<?xml version="1.0" encoding="utf-8" standalone="no"?>
<!DOCTYPE svg PUBLIC "-//W3C//DTD SVG 1.1//EN"
  "http://www.w3.org/Graphics/SVG/1.1/DTD/svg11.dtd">
<svg xmlns:xlink="http://www.w3.org/1999/xlink" width="460.8pt" height="345.6pt" viewBox="0 0 460.8 345.6" xmlns="http://www.w3.org/2000/svg" version="1.1">
 <metadata>
  <rdf:RDF xmlns:dc="http://purl.org/dc/elements/1.1/" xmlns:cc="http://creativecommons.org/ns#" xmlns:rdf="http://www.w3.org/1999/02/22-rdf-syntax-ns#">
   <cc:Work>
    <dc:type rdf:resource="http://purl.org/dc/dcmitype/StillImage"/>
    <dc:date>2025-10-31T21:39:29.479277</dc:date>
    <dc:format>image/svg+xml</dc:format>
    <dc:creator>
     <cc:Agent>
      <dc:title>Matplotlib v3.6.3, https://matplotlib.org/</dc:title>
     </cc:Agent>
    </dc:creator>
   </cc:Work>
  </rdf:RDF>
 </metadata>
 <defs>
  <style type="text/css">*{stroke-linejoin: round; stroke-linecap: butt}</style>
 </defs>
 <g id="figure_1">
  <g id="patch_1">
   <path d="M 0 345.6 
L 460.8 345.6 
L 460.8 0 
L 0 0 
z
" style="fill: #ffffff"/>
  </g>
  <g id="axes_1">
   <g id="patch_2">
    <path d="M 32.56 94.52 
L 450 94.52 
L 450 25.44 
L 32.56 25.44 
z
" style="fill: #ffffff"/>
   </g>
   <g id="matplotlib.axis_1">
    <g id="xtick_1">
     <g id="line2d_1">
      <defs>
       <path id="mc236ab3933" d="M 0 0 
L 0 3.5 
" style="stroke: #000000; stroke-width: 0.8"/>
      </defs>
      <g>
       <use xlink:href="#mc236ab3933" x="51.534545" y="94.52" style="stroke: #000000; stroke-width: 0.8"/>
      </g>
     </g>
     <g id="text_1">
      <!-- 0.000 -->
      <g transform="translate(37.220483 109.118437) scale(0.1 -0.1)">
       <defs>
        <path id="DejaVuSans-30" d="M 2034 4250 
Q 1547 4250 1301 3770 
Q 1056 3291 1056 2328 
Q 1056 1369 1301 889 
Q 1547 409 2034 409 
Q 2525 409 2770 889 
Q 3016 1369 3016 2328 
Q 3016 3291 2770 3770 
Q 2525 4250 2034 4250 
z
M 2034 4750 
Q 2819 4750 3233 4129 
Q 3647 3509 3647 2328 
Q 3647 1150 3233 529 
Q 2819 -91 2034 -91 
Q 1250 -91 836 529 
Q 422 1150 422 2328 
Q 422 3509 836 4129 
Q 1250 4750 2034 4750 
z
" transform="scale(0.015625)"/>
        <path id="DejaVuSans-2e" d="M 684 794 
L 1344 794 
L 1344 0 
L 684 0 
L 684 794 
z
" transform="scale(0.015625)"/>
       </defs>
       <use xlink:href="#DejaVuSans-30"/>
       <use xlink:href="#DejaVuSans-2e" x="63.623047"/>
       <use xlink:href="#DejaVuSans-30" x="95.410156"/>
       <use xlink:href="#DejaVuSans-30" x="159.033203"/>
       <use xlink:href="#DejaVuSans-30" x="222.65625"/>
      </g>
     </g>
    </g>
    <g id="xtick_2">
     <g id="line2d_2">
      <g>
       <use xlink:href="#mc236ab3933" x="114.78303" y="94.52" style="stroke: #000000; stroke-width: 0.8"/>
      </g>
     </g>
     <g id="text_2">
      <!-- 0.005 -->
      <g transform="translate(100.468968 109.118437) scale(0.1 -0.1)">
       <defs>
        <path id="DejaVuSans-35" d="M 691 4666 
L 3169 4666 
L 3169 4134 
L 1269 4134 
L 1269 2991 
Q 1406 3038 1543 3061 
Q 1681 3084 1819 3084 
Q 2600 3084 3056 2656 
Q 3513 2228 3513 1497 
Q 3513 744 3044 326 
Q 2575 -91 1722 -91 
Q 1428 -91 1123 -41 
Q 819 9 494 109 
L 494 744 
Q 775 591 1075 516 
Q 1375 441 1709 441 
Q 2250 441 2565 725 
Q 2881 1009 2881 1497 
Q 2881 1984 2565 2268 
Q 2250 2553 1709 2553 
Q 1456 2553 1204 2497 
Q 953 2441 691 2322 
L 691 4666 
z
" transform="scale(0.015625)"/>
       </defs>
       <use xlink:href="#DejaVuSans-30"/>
       <use xlink:href="#DejaVuSans-2e" x="63.623047"/>
       <use xlink:href="#DejaVuSans-30" x="95.410156"/>
       <use xlink:href="#DejaVuSans-30" x="159.033203"/>
       <use xlink:href="#DejaVuSans-35" x="222.65625"/>
      </g>
     </g>
    </g>
    <g id="xtick_3">
     <g id="line2d_3">
      <g>
       <use xlink:href="#mc236ab3933" x="178.031515" y="94.52" style="stroke: #000000; stroke-width: 0.8"/>
      </g>
     </g>
     <g id="text_3">
      <!-- 0.010 -->
      <g transform="translate(163.717453 109.118437) scale(0.1 -0.1)">
       <defs>
        <path id="DejaVuSans-31" d="M 794 531 
L 1825 531 
L 1825 4091 
L 703 3866 
L 703 4441 
L 1819 4666 
L 2450 4666 
L 2450 531 
L 3481 531 
L 3481 0 
L 794 0 
L 794 531 
z
" transform="scale(0.015625)"/>
       </defs>
       <use xlink:href="#DejaVuSans-30"/>
       <use xlink:href="#DejaVuSans-2e" x="63.623047"/>
       <use xlink:href="#DejaVuSans-30" x="95.410156"/>
       <use xlink:href="#DejaVuSans-31" x="159.033203"/>
       <use xlink:href="#DejaVuSans-30" x="222.65625"/>
      </g>
     </g>
    </g>
    <g id="xtick_4">
     <g id="line2d_4">
      <g>
       <use xlink:href="#mc236ab3933" x="241.28" y="94.52" style="stroke: #000000; stroke-width: 0.8"/>
      </g>
     </g>
     <g id="text_4">
      <!-- 0.015 -->
      <g transform="translate(226.965937 109.118437) scale(0.1 -0.1)">
       <use xlink:href="#DejaVuSans-30"/>
       <use xlink:href="#DejaVuSans-2e" x="63.623047"/>
       <use xlink:href="#DejaVuSans-30" x="95.410156"/>
       <use xlink:href="#DejaVuSans-31" x="159.033203"/>
       <use xlink:href="#DejaVuSans-35" x="222.65625"/>
      </g>
     </g>
    </g>
    <g id="xtick_5">
     <g id="line2d_5">
      <g>
       <use xlink:href="#mc236ab3933" x="304.528485" y="94.52" style="stroke: #000000; stroke-width: 0.8"/>
      </g>
     </g>
     <g id="text_5">
      <!-- 0.020 -->
      <g transform="translate(290.214422 109.118437) scale(0.1 -0.1)">
       <defs>
        <path id="DejaVuSans-32" d="M 1228 531 
L 3431 531 
L 3431 0 
L 469 0 
L 469 531 
Q 828 903 1448 1529 
Q 2069 2156 2228 2338 
Q 2531 2678 2651 2914 
Q 2772 3150 2772 3378 
Q 2772 3750 2511 3984 
Q 2250 4219 1831 4219 
Q 1534 4219 1204 4116 
Q 875 4013 500 3803 
L 500 4441 
Q 881 4594 1212 4672 
Q 1544 4750 1819 4750 
Q 2544 4750 2975 4387 
Q 3406 4025 3406 3419 
Q 3406 3131 3298 2873 
Q 3191 2616 2906 2266 
Q 2828 2175 2409 1742 
Q 1991 1309 1228 531 
z
" transform="scale(0.015625)"/>
       </defs>
       <use xlink:href="#DejaVuSans-30"/>
       <use xlink:href="#DejaVuSans-2e" x="63.623047"/>
       <use xlink:href="#DejaVuSans-30" x="95.410156"/>
       <use xlink:href="#DejaVuSans-32" x="159.033203"/>
       <use xlink:href="#DejaVuSans-30" x="222.65625"/>
      </g>
     </g>
    </g>
    <g id="xtick_6">
     <g id="line2d_6">
      <g>
       <use xlink:href="#mc236ab3933" x="367.77697" y="94.52" style="stroke: #000000; stroke-width: 0.8"/>
      </g>
     </g>
     <g id="text_6">
      <!-- 0.025 -->
      <g transform="translate(353.462907 109.118437) scale(0.1 -0.1)">
       <use xlink:href="#DejaVuSans-30"/>
       <use xlink:href="#DejaVuSans-2e" x="63.623047"/>
       <use xlink:href="#DejaVuSans-30" x="95.410156"/>
       <use xlink:href="#DejaVuSans-32" x="159.033203"/>
       <use xlink:href="#DejaVuSans-35" x="222.65625"/>
      </g>
     </g>
    </g>
    <g id="xtick_7">
     <g id="line2d_7">
      <g>
       <use xlink:href="#mc236ab3933" x="431.025455" y="94.52" style="stroke: #000000; stroke-width: 0.8"/>
      </g>
     </g>
     <g id="text_7">
      <!-- 0.030 -->
      <g transform="translate(416.711392 109.118437) scale(0.1 -0.1)">
       <defs>
        <path id="DejaVuSans-33" d="M 2597 2516 
Q 3050 2419 3304 2112 
Q 3559 1806 3559 1356 
Q 3559 666 3084 287 
Q 2609 -91 1734 -91 
Q 1441 -91 1130 -33 
Q 819 25 488 141 
L 488 750 
Q 750 597 1062 519 
Q 1375 441 1716 441 
Q 2309 441 2620 675 
Q 2931 909 2931 1356 
Q 2931 1769 2642 2001 
Q 2353 2234 1838 2234 
L 1294 2234 
L 1294 2753 
L 1863 2753 
Q 2328 2753 2575 2939 
Q 2822 3125 2822 3475 
Q 2822 3834 2567 4026 
Q 2313 4219 1838 4219 
Q 1578 4219 1281 4162 
Q 984 4106 628 3988 
L 628 4550 
Q 988 4650 1302 4700 
Q 1616 4750 1894 4750 
Q 2613 4750 3031 4423 
Q 3450 4097 3450 3541 
Q 3450 3153 3228 2886 
Q 3006 2619 2597 2516 
z
" transform="scale(0.015625)"/>
       </defs>
       <use xlink:href="#DejaVuSans-30"/>
       <use xlink:href="#DejaVuSans-2e" x="63.623047"/>
       <use xlink:href="#DejaVuSans-30" x="95.410156"/>
       <use xlink:href="#DejaVuSans-33" x="159.033203"/>
       <use xlink:href="#DejaVuSans-30" x="222.65625"/>
      </g>
     </g>
    </g>
   </g>
   <g id="matplotlib.axis_2">
    <g id="ytick_1">
     <g id="line2d_8">
      <defs>
       <path id="mc4e7e181b2" d="M 0 0 
L -3.5 0 
" style="stroke: #000000; stroke-width: 0.8"/>
      </defs>
      <g>
       <use xlink:href="#mc4e7e181b2" x="32.56" y="91.38" style="stroke: #000000; stroke-width: 0.8"/>
      </g>
     </g>
     <g id="text_8">
      <!-- −1 -->
      <g transform="translate(10.817813 95.179219) scale(0.1 -0.1)">
       <defs>
        <path id="DejaVuSans-2212" d="M 678 2272 
L 4684 2272 
L 4684 1741 
L 678 1741 
L 678 2272 
z
" transform="scale(0.015625)"/>
       </defs>
       <use xlink:href="#DejaVuSans-2212"/>
       <use xlink:href="#DejaVuSans-31" x="83.789062"/>
      </g>
     </g>
    </g>
    <g id="ytick_2">
     <g id="line2d_9">
      <g>
       <use xlink:href="#mc4e7e181b2" x="32.56" y="59.979972" style="stroke: #000000; stroke-width: 0.8"/>
      </g>
     </g>
     <g id="text_9">
      <!-- 0 -->
      <g transform="translate(19.1975 63.779191) scale(0.1 -0.1)">
       <use xlink:href="#DejaVuSans-30"/>
      </g>
     </g>
    </g>
    <g id="ytick_3">
     <g id="line2d_10">
      <g>
       <use xlink:href="#mc4e7e181b2" x="32.56" y="28.579944" style="stroke: #000000; stroke-width: 0.8"/>
      </g>
     </g>
     <g id="text_10">
      <!-- 1 -->
      <g transform="translate(19.1975 32.379163) scale(0.1 -0.1)">
       <use xlink:href="#DejaVuSans-31"/>
      </g>
     </g>
    </g>
   </g>
   <g id="line2d_11">
    <path d="M 51.534545 44.279958 
L 53.433899 51.353431 
L 60.271573 77.832221 
L 61.791057 82.526065 
L 62.930669 85.487194 
L 64.070281 87.89683 
L 65.209894 89.702875 
L 65.969635 90.551729 
L 66.729377 91.106513 
L 67.489118 91.361892 
L 68.24886 91.315408 
L 69.008601 90.967508 
L 69.768343 90.32154 
L 70.528084 89.383717 
L 71.287826 88.163059 
L 72.427438 85.828159 
L 73.567051 82.934395 
L 75.086534 78.316411 
L 76.985888 71.577644 
L 79.644983 61.075817 
L 83.06382 47.561193 
L 84.963174 40.929541 
L 86.482657 36.428423 
L 87.62227 33.637629 
L 88.761882 31.416383 
L 89.521623 30.276225 
L 90.281365 29.421788 
L 91.041107 28.861289 
L 91.800848 28.60012 
L 92.56059 28.640794 
L 93.320331 28.982919 
L 94.080073 29.623205 
L 94.839814 30.555492 
L 95.599556 31.770813 
L 96.739168 34.098193 
L 97.878781 36.985164 
L 99.398264 41.59547 
L 101.297618 48.327264 
L 103.956713 58.824918 
L 107.37555 72.344313 
L 109.274904 78.983273 
L 110.794387 83.492295 
L 111.933999 86.290024 
L 113.073612 88.518902 
L 113.833353 89.664456 
L 114.593095 90.524475 
L 115.352836 91.090687 
L 116.112578 91.357645 
L 116.87232 91.322781 
L 117.632061 90.986431 
L 118.391803 90.351831 
L 119.151544 89.425083 
L 119.911286 88.215104 
L 121.050898 85.895252 
L 122.190511 83.015084 
L 123.709994 78.412471 
L 125.609348 71.687676 
L 128.268443 61.194231 
L 131.68728 47.670113 
L 133.586634 41.02387 
L 135.106117 36.50696 
L 136.245729 33.702306 
L 137.385342 31.465801 
L 138.145083 30.314856 
L 138.904825 29.449259 
L 139.664566 28.877337 
L 140.424308 28.60459 
L 141.18405 28.633644 
L 141.943791 28.964217 
L 142.703533 29.59313 
L 143.463274 30.514335 
L 144.223016 31.718969 
L 145.362628 34.031285 
L 146.50224 36.904638 
L 148.021724 41.499541 
L 149.921077 48.217315 
L 152.580173 58.706513 
L 155.99901 72.235305 
L 157.898364 78.888808 
L 159.417847 83.41359 
L 160.557459 86.22516 
L 161.697072 88.469281 
L 162.456813 89.625614 
L 163.216555 90.496786 
L 163.976296 91.074417 
L 164.736038 91.352951 
L 165.495779 91.329708 
L 166.255521 91.004913 
L 167.015263 90.381688 
L 167.775004 89.46603 
L 168.534746 88.266746 
L 169.674358 85.961975 
L 170.81397 83.095446 
L 172.333453 78.508269 
L 174.232807 71.797541 
L 176.891903 61.312627 
L 180.690611 46.375078 
L 182.589965 39.910112 
L 184.109448 35.586891 
L 185.24906 32.951141 
L 186.388672 30.899781 
L 187.148414 29.879323 
L 187.908155 29.148403 
L 188.667897 28.714052 
L 189.427639 28.580447 
L 190.18738 28.748874 
L 190.947122 29.217713 
L 191.706863 29.982453 
L 192.466605 31.03574 
L 193.606217 33.133795 
L 194.745829 35.812292 
L 195.885442 39.013319 
L 197.404925 43.973115 
L 199.304279 51.012188 
L 206.141953 77.538645 
L 207.661436 82.277206 
L 208.801048 85.278248 
L 209.940661 87.732317 
L 211.080273 89.58635 
L 211.840015 90.468663 
L 212.599756 91.057705 
L 213.359498 91.34781 
L 214.119239 91.336189 
L 214.878981 91.022952 
L 215.638722 90.411113 
L 216.398464 89.506558 
L 217.158205 88.317986 
L 218.297818 86.028329 
L 219.43743 83.175479 
L 220.956913 78.603803 
L 222.476396 73.31728 
L 224.755621 64.496638 
L 229.31407 46.481968 
L 231.213424 40.001384 
L 232.732907 35.661679 
L 233.87252 33.011641 
L 235.012132 30.944687 
L 235.771874 29.913272 
L 236.531615 29.171068 
L 237.291357 28.725214 
L 238.051098 28.58 
L 238.81084 28.736822 
L 239.570581 29.194171 
L 240.330323 29.947649 
L 241.090065 30.990007 
L 242.229677 33.072526 
L 243.369289 35.736813 
L 244.508902 38.925261 
L 246.028385 43.871288 
L 247.927739 50.898694 
L 255.145283 78.699071 
L 256.664767 83.255181 
L 257.804379 86.094311 
L 258.943991 88.368822 
L 260.083604 90.029537 
L 260.843345 90.777379 
L 261.603087 91.228982 
L 262.362828 91.38 
L 263.12257 91.228982 
L 263.882311 90.777379 
L 264.642053 90.029537 
L 265.401795 88.992648 
L 266.541407 86.917908 
L 267.681019 84.260742 
L 268.820632 81.0786 
L 270.340115 76.139484 
L 272.239469 69.117949 
L 279.457013 41.308474 
L 280.976496 36.744573 
L 282.116109 33.898578 
L 283.255721 31.616489 
L 284.395334 29.947649 
L 285.155075 29.194171 
L 285.914817 28.736822 
L 286.674558 28.58 
L 287.4343 28.725214 
L 288.194041 29.171068 
L 288.953783 29.913272 
L 289.713524 30.944687 
L 290.853137 33.011641 
L 291.992749 35.661679 
L 293.132361 38.837503 
L 294.651845 43.76969 
L 296.551198 50.785329 
L 303.768743 78.603803 
L 305.288226 83.175479 
L 306.427839 86.028329 
L 307.567451 88.317986 
L 308.707063 89.994946 
L 309.466805 90.754057 
L 310.226547 91.217152 
L 310.986288 91.379776 
L 311.74603 91.240367 
L 312.505771 90.800263 
L 313.265513 90.0637 
L 314.025254 89.037762 
L 315.164867 86.978601 
L 316.304479 84.335703 
L 317.444091 81.166208 
L 318.963574 76.240967 
L 320.862928 69.231249 
L 328.080473 41.403875 
L 329.599956 36.82444 
L 330.739569 33.964746 
L 331.879181 31.667527 
L 333.018793 29.982453 
L 333.778535 29.217713 
L 334.538276 28.748874 
L 335.298018 28.580447 
L 336.05776 28.714052 
L 336.817501 29.148403 
L 337.577243 29.879323 
L 338.336984 30.899781 
L 339.476597 32.951141 
L 340.616209 35.586891 
L 341.755821 38.750045 
L 343.275304 43.668323 
L 345.174658 50.672095 
L 352.392203 78.508269 
L 353.911686 83.095446 
L 355.051299 85.961975 
L 356.190911 88.266746 
L 357.330523 89.959928 
L 358.090265 90.730296 
L 358.850006 91.204877 
L 359.609748 91.379106 
L 360.369489 91.251306 
L 361.129231 90.822708 
L 361.888973 90.097434 
L 362.648714 89.082461 
L 363.788327 87.03891 
L 364.927939 84.410316 
L 366.067551 81.253514 
L 367.587034 76.342217 
L 369.486388 69.344417 
L 376.703933 41.499541 
L 378.223416 36.904638 
L 379.363028 34.031285 
L 380.502641 31.718969 
L 381.642253 30.017685 
L 382.401995 29.241693 
L 383.161736 28.761371 
L 383.921478 28.581341 
L 384.681219 28.703335 
L 385.440961 29.126178 
L 386.200703 29.845803 
L 386.960444 30.855289 
L 388.100056 32.891024 
L 389.239669 35.512451 
L 390.379281 38.662891 
L 391.898764 43.567188 
L 393.798118 50.558993 
L 397.596826 65.782254 
L 399.876051 74.48546 
L 401.395534 79.636874 
L 402.915017 84.033789 
L 404.054629 86.733531 
L 405.194242 88.854833 
L 405.953983 89.924483 
L 406.713725 90.706097 
L 407.473466 91.192158 
L 408.233208 91.377988 
L 408.992949 91.261801 
L 409.752691 90.844714 
L 410.512432 90.13074 
L 411.272174 89.126746 
L 412.411786 87.098833 
L 413.551399 84.484583 
L 414.691011 81.340517 
L 416.210494 76.443235 
L 418.109848 69.457451 
L 421.908556 54.235927 
L 424.187781 45.527056 
L 425.707264 40.369306 
L 427.226747 35.964281 
L 428.366359 33.257477 
L 429.505971 31.128441 
L 430.265713 30.053343 
L 431.025455 29.26611 
L 431.025455 29.26611 
" clip-path="url(#pced50197a8)" style="fill: none; stroke: #0000ff; stroke-width: 1.5; stroke-linecap: square"/>
   </g>
   <g id="LineCollection_1">
    <path d="M 51.534545 59.979972 
L 51.534545 44.279958 
" clip-path="url(#pced50197a8)" style="fill: none; stroke: #0000ff; stroke-width: 1.5"/>
    <path d="M 114.78303 59.979972 
L 114.78303 90.693834 
" clip-path="url(#pced50197a8)" style="fill: none; stroke: #0000ff; stroke-width: 1.5"/>
    <path d="M 178.031515 59.979972 
L 178.031515 56.697775 
" clip-path="url(#pced50197a8)" style="fill: none; stroke: #0000ff; stroke-width: 1.5"/>
    <path d="M 241.28 59.979972 
L 241.28 31.294619 
" clip-path="url(#pced50197a8)" style="fill: none; stroke: #0000ff; stroke-width: 1.5"/>
    <path d="M 304.528485 59.979972 
L 304.528485 80.990692 
" clip-path="url(#pced50197a8)" style="fill: none; stroke: #0000ff; stroke-width: 1.5"/>
    <path d="M 367.77697 59.979972 
L 367.77697 75.679986 
" clip-path="url(#pced50197a8)" style="fill: none; stroke: #0000ff; stroke-width: 1.5"/>
   </g>
   <g id="line2d_12">
    <defs>
     <path id="m66f65f893f" d="M 0 3 
C 0.795609 3 1.55874 2.683901 2.12132 2.12132 
C 2.683901 1.55874 3 0.795609 3 0 
C 3 -0.795609 2.683901 -1.55874 2.12132 -2.12132 
C 1.55874 -2.683901 0.795609 -3 0 -3 
C -0.795609 -3 -1.55874 -2.683901 -2.12132 -2.12132 
C -2.683901 -1.55874 -3 -0.795609 -3 0 
C -3 0.795609 -2.683901 1.55874 -2.12132 2.12132 
C -1.55874 2.683901 -0.795609 3 0 3 
z
" style="stroke: #0000ff"/>
    </defs>
    <g clip-path="url(#pced50197a8)">
     <use xlink:href="#m66f65f893f" x="51.534545" y="44.279958" style="fill: #0000ff; stroke: #0000ff"/>
     <use xlink:href="#m66f65f893f" x="114.78303" y="90.693834" style="fill: #0000ff; stroke: #0000ff"/>
     <use xlink:href="#m66f65f893f" x="178.031515" y="56.697775" style="fill: #0000ff; stroke: #0000ff"/>
     <use xlink:href="#m66f65f893f" x="241.28" y="31.294619" style="fill: #0000ff; stroke: #0000ff"/>
     <use xlink:href="#m66f65f893f" x="304.528485" y="80.990692" style="fill: #0000ff; stroke: #0000ff"/>
     <use xlink:href="#m66f65f893f" x="367.77697" y="75.679986" style="fill: #0000ff; stroke: #0000ff"/>
    </g>
   </g>
   <g id="line2d_13">
    <path d="M 51.534545 59.979972 
L 367.77697 59.979972 
" clip-path="url(#pced50197a8)" style="fill: none; stroke: #d62728; stroke-width: 1.5; stroke-linecap: square"/>
   </g>
   <g id="patch_3">
    <path d="M 32.56 94.52 
L 32.56 25.44 
" style="fill: none; stroke: #000000; stroke-width: 0.8; stroke-linejoin: miter; stroke-linecap: square"/>
   </g>
   <g id="patch_4">
    <path d="M 450 94.52 
L 450 25.44 
" style="fill: none; stroke: #000000; stroke-width: 0.8; stroke-linejoin: miter; stroke-linecap: square"/>
   </g>
   <g id="patch_5">
    <path d="M 32.56 94.52 
L 450 94.52 
" style="fill: none; stroke: #000000; stroke-width: 0.8; stroke-linejoin: miter; stroke-linecap: square"/>
   </g>
   <g id="patch_6">
    <path d="M 32.56 25.44 
L 450 25.44 
" style="fill: none; stroke: #000000; stroke-width: 0.8; stroke-linejoin: miter; stroke-linecap: square"/>
   </g>
   <g id="text_11">
    <!-- Freq: 260Hz; Phase: +pi/3 -->
    <g transform="translate(163.27625 19.44) scale(0.12 -0.12)">
     <defs>
      <path id="DejaVuSans-46" d="M 628 4666 
L 3309 4666 
L 3309 4134 
L 1259 4134 
L 1259 2759 
L 3109 2759 
L 3109 2228 
L 1259 2228 
L 1259 0 
L 628 0 
L 628 4666 
z
" transform="scale(0.015625)"/>
      <path id="DejaVuSans-72" d="M 2631 2963 
Q 2534 3019 2420 3045 
Q 2306 3072 2169 3072 
Q 1681 3072 1420 2755 
Q 1159 2438 1159 1844 
L 1159 0 
L 581 0 
L 581 3500 
L 1159 3500 
L 1159 2956 
Q 1341 3275 1631 3429 
Q 1922 3584 2338 3584 
Q 2397 3584 2469 3576 
Q 2541 3569 2628 3553 
L 2631 2963 
z
" transform="scale(0.015625)"/>
      <path id="DejaVuSans-65" d="M 3597 1894 
L 3597 1613 
L 953 1613 
Q 991 1019 1311 708 
Q 1631 397 2203 397 
Q 2534 397 2845 478 
Q 3156 559 3463 722 
L 3463 178 
Q 3153 47 2828 -22 
Q 2503 -91 2169 -91 
Q 1331 -91 842 396 
Q 353 884 353 1716 
Q 353 2575 817 3079 
Q 1281 3584 2069 3584 
Q 2775 3584 3186 3129 
Q 3597 2675 3597 1894 
z
M 3022 2063 
Q 3016 2534 2758 2815 
Q 2500 3097 2075 3097 
Q 1594 3097 1305 2825 
Q 1016 2553 972 2059 
L 3022 2063 
z
" transform="scale(0.015625)"/>
      <path id="DejaVuSans-71" d="M 947 1747 
Q 947 1113 1208 752 
Q 1469 391 1925 391 
Q 2381 391 2643 752 
Q 2906 1113 2906 1747 
Q 2906 2381 2643 2742 
Q 2381 3103 1925 3103 
Q 1469 3103 1208 2742 
Q 947 2381 947 1747 
z
M 2906 525 
Q 2725 213 2448 61 
Q 2172 -91 1784 -91 
Q 1150 -91 751 415 
Q 353 922 353 1747 
Q 353 2572 751 3078 
Q 1150 3584 1784 3584 
Q 2172 3584 2448 3432 
Q 2725 3281 2906 2969 
L 2906 3500 
L 3481 3500 
L 3481 -1331 
L 2906 -1331 
L 2906 525 
z
" transform="scale(0.015625)"/>
      <path id="DejaVuSans-3a" d="M 750 794 
L 1409 794 
L 1409 0 
L 750 0 
L 750 794 
z
M 750 3309 
L 1409 3309 
L 1409 2516 
L 750 2516 
L 750 3309 
z
" transform="scale(0.015625)"/>
      <path id="DejaVuSans-20" transform="scale(0.015625)"/>
      <path id="DejaVuSans-36" d="M 2113 2584 
Q 1688 2584 1439 2293 
Q 1191 2003 1191 1497 
Q 1191 994 1439 701 
Q 1688 409 2113 409 
Q 2538 409 2786 701 
Q 3034 994 3034 1497 
Q 3034 2003 2786 2293 
Q 2538 2584 2113 2584 
z
M 3366 4563 
L 3366 3988 
Q 3128 4100 2886 4159 
Q 2644 4219 2406 4219 
Q 1781 4219 1451 3797 
Q 1122 3375 1075 2522 
Q 1259 2794 1537 2939 
Q 1816 3084 2150 3084 
Q 2853 3084 3261 2657 
Q 3669 2231 3669 1497 
Q 3669 778 3244 343 
Q 2819 -91 2113 -91 
Q 1303 -91 875 529 
Q 447 1150 447 2328 
Q 447 3434 972 4092 
Q 1497 4750 2381 4750 
Q 2619 4750 2861 4703 
Q 3103 4656 3366 4563 
z
" transform="scale(0.015625)"/>
      <path id="DejaVuSans-48" d="M 628 4666 
L 1259 4666 
L 1259 2753 
L 3553 2753 
L 3553 4666 
L 4184 4666 
L 4184 0 
L 3553 0 
L 3553 2222 
L 1259 2222 
L 1259 0 
L 628 0 
L 628 4666 
z
" transform="scale(0.015625)"/>
      <path id="DejaVuSans-7a" d="M 353 3500 
L 3084 3500 
L 3084 2975 
L 922 459 
L 3084 459 
L 3084 0 
L 275 0 
L 275 525 
L 2438 3041 
L 353 3041 
L 353 3500 
z
" transform="scale(0.015625)"/>
      <path id="DejaVuSans-3b" d="M 750 3309 
L 1409 3309 
L 1409 2516 
L 750 2516 
L 750 3309 
z
M 750 794 
L 1409 794 
L 1409 256 
L 897 -744 
L 494 -744 
L 750 256 
L 750 794 
z
" transform="scale(0.015625)"/>
      <path id="DejaVuSans-50" d="M 1259 4147 
L 1259 2394 
L 2053 2394 
Q 2494 2394 2734 2622 
Q 2975 2850 2975 3272 
Q 2975 3691 2734 3919 
Q 2494 4147 2053 4147 
L 1259 4147 
z
M 628 4666 
L 2053 4666 
Q 2838 4666 3239 4311 
Q 3641 3956 3641 3272 
Q 3641 2581 3239 2228 
Q 2838 1875 2053 1875 
L 1259 1875 
L 1259 0 
L 628 0 
L 628 4666 
z
" transform="scale(0.015625)"/>
      <path id="DejaVuSans-68" d="M 3513 2113 
L 3513 0 
L 2938 0 
L 2938 2094 
Q 2938 2591 2744 2837 
Q 2550 3084 2163 3084 
Q 1697 3084 1428 2787 
Q 1159 2491 1159 1978 
L 1159 0 
L 581 0 
L 581 4863 
L 1159 4863 
L 1159 2956 
Q 1366 3272 1645 3428 
Q 1925 3584 2291 3584 
Q 2894 3584 3203 3211 
Q 3513 2838 3513 2113 
z
" transform="scale(0.015625)"/>
      <path id="DejaVuSans-61" d="M 2194 1759 
Q 1497 1759 1228 1600 
Q 959 1441 959 1056 
Q 959 750 1161 570 
Q 1363 391 1709 391 
Q 2188 391 2477 730 
Q 2766 1069 2766 1631 
L 2766 1759 
L 2194 1759 
z
M 3341 1997 
L 3341 0 
L 2766 0 
L 2766 531 
Q 2569 213 2275 61 
Q 1981 -91 1556 -91 
Q 1019 -91 701 211 
Q 384 513 384 1019 
Q 384 1609 779 1909 
Q 1175 2209 1959 2209 
L 2766 2209 
L 2766 2266 
Q 2766 2663 2505 2880 
Q 2244 3097 1772 3097 
Q 1472 3097 1187 3025 
Q 903 2953 641 2809 
L 641 3341 
Q 956 3463 1253 3523 
Q 1550 3584 1831 3584 
Q 2591 3584 2966 3190 
Q 3341 2797 3341 1997 
z
" transform="scale(0.015625)"/>
      <path id="DejaVuSans-73" d="M 2834 3397 
L 2834 2853 
Q 2591 2978 2328 3040 
Q 2066 3103 1784 3103 
Q 1356 3103 1142 2972 
Q 928 2841 928 2578 
Q 928 2378 1081 2264 
Q 1234 2150 1697 2047 
L 1894 2003 
Q 2506 1872 2764 1633 
Q 3022 1394 3022 966 
Q 3022 478 2636 193 
Q 2250 -91 1575 -91 
Q 1294 -91 989 -36 
Q 684 19 347 128 
L 347 722 
Q 666 556 975 473 
Q 1284 391 1588 391 
Q 1994 391 2212 530 
Q 2431 669 2431 922 
Q 2431 1156 2273 1281 
Q 2116 1406 1581 1522 
L 1381 1569 
Q 847 1681 609 1914 
Q 372 2147 372 2553 
Q 372 3047 722 3315 
Q 1072 3584 1716 3584 
Q 2034 3584 2315 3537 
Q 2597 3491 2834 3397 
z
" transform="scale(0.015625)"/>
      <path id="DejaVuSans-2b" d="M 2944 4013 
L 2944 2272 
L 4684 2272 
L 4684 1741 
L 2944 1741 
L 2944 0 
L 2419 0 
L 2419 1741 
L 678 1741 
L 678 2272 
L 2419 2272 
L 2419 4013 
L 2944 4013 
z
" transform="scale(0.015625)"/>
      <path id="DejaVuSans-70" d="M 1159 525 
L 1159 -1331 
L 581 -1331 
L 581 3500 
L 1159 3500 
L 1159 2969 
Q 1341 3281 1617 3432 
Q 1894 3584 2278 3584 
Q 2916 3584 3314 3078 
Q 3713 2572 3713 1747 
Q 3713 922 3314 415 
Q 2916 -91 2278 -91 
Q 1894 -91 1617 61 
Q 1341 213 1159 525 
z
M 3116 1747 
Q 3116 2381 2855 2742 
Q 2594 3103 2138 3103 
Q 1681 3103 1420 2742 
Q 1159 2381 1159 1747 
Q 1159 1113 1420 752 
Q 1681 391 2138 391 
Q 2594 391 2855 752 
Q 3116 1113 3116 1747 
z
" transform="scale(0.015625)"/>
      <path id="DejaVuSans-69" d="M 603 3500 
L 1178 3500 
L 1178 0 
L 603 0 
L 603 3500 
z
M 603 4863 
L 1178 4863 
L 1178 4134 
L 603 4134 
L 603 4863 
z
" transform="scale(0.015625)"/>
      <path id="DejaVuSans-2f" d="M 1625 4666 
L 2156 4666 
L 531 -594 
L 0 -594 
L 1625 4666 
z
" transform="scale(0.015625)"/>
     </defs>
     <use xlink:href="#DejaVuSans-46"/>
     <use xlink:href="#DejaVuSans-72" x="50.269531"/>
     <use xlink:href="#DejaVuSans-65" x="89.132812"/>
     <use xlink:href="#DejaVuSans-71" x="150.65625"/>
     <use xlink:href="#DejaVuSans-3a" x="214.132812"/>
     <use xlink:href="#DejaVuSans-20" x="247.824219"/>
     <use xlink:href="#DejaVuSans-32" x="279.611328"/>
     <use xlink:href="#DejaVuSans-36" x="343.234375"/>
     <use xlink:href="#DejaVuSans-30" x="406.857422"/>
     <use xlink:href="#DejaVuSans-48" x="470.480469"/>
     <use xlink:href="#DejaVuSans-7a" x="545.675781"/>
     <use xlink:href="#DejaVuSans-3b" x="598.166016"/>
     <use xlink:href="#DejaVuSans-20" x="631.857422"/>
     <use xlink:href="#DejaVuSans-50" x="663.644531"/>
     <use xlink:href="#DejaVuSans-68" x="723.947266"/>
     <use xlink:href="#DejaVuSans-61" x="787.326172"/>
     <use xlink:href="#DejaVuSans-73" x="848.605469"/>
     <use xlink:href="#DejaVuSans-65" x="900.705078"/>
     <use xlink:href="#DejaVuSans-3a" x="962.228516"/>
     <use xlink:href="#DejaVuSans-20" x="995.919922"/>
     <use xlink:href="#DejaVuSans-2b" x="1027.707031"/>
     <use xlink:href="#DejaVuSans-70" x="1111.496094"/>
     <use xlink:href="#DejaVuSans-69" x="1174.972656"/>
     <use xlink:href="#DejaVuSans-2f" x="1202.755859"/>
     <use xlink:href="#DejaVuSans-33" x="1236.447266"/>
    </g>
   </g>
  </g>
  <g id="axes_2">
   <g id="patch_7">
    <path d="M 32.56 206.12 
L 450 206.12 
L 450 137.04 
L 32.56 137.04 
z
" style="fill: #ffffff"/>
   </g>
   <g id="matplotlib.axis_3">
    <g id="xtick_8">
     <g id="line2d_14">
      <g>
       <use xlink:href="#mc236ab3933" x="51.534545" y="206.12" style="stroke: #000000; stroke-width: 0.8"/>
      </g>
     </g>
     <g id="text_12">
      <!-- 0.000 -->
      <g transform="translate(37.220483 220.718437) scale(0.1 -0.1)">
       <use xlink:href="#DejaVuSans-30"/>
       <use xlink:href="#DejaVuSans-2e" x="63.623047"/>
       <use xlink:href="#DejaVuSans-30" x="95.410156"/>
       <use xlink:href="#DejaVuSans-30" x="159.033203"/>
       <use xlink:href="#DejaVuSans-30" x="222.65625"/>
      </g>
     </g>
    </g>
    <g id="xtick_9">
     <g id="line2d_15">
      <g>
       <use xlink:href="#mc236ab3933" x="114.78303" y="206.12" style="stroke: #000000; stroke-width: 0.8"/>
      </g>
     </g>
     <g id="text_13">
      <!-- 0.005 -->
      <g transform="translate(100.468968 220.718437) scale(0.1 -0.1)">
       <use xlink:href="#DejaVuSans-30"/>
       <use xlink:href="#DejaVuSans-2e" x="63.623047"/>
       <use xlink:href="#DejaVuSans-30" x="95.410156"/>
       <use xlink:href="#DejaVuSans-30" x="159.033203"/>
       <use xlink:href="#DejaVuSans-35" x="222.65625"/>
      </g>
     </g>
    </g>
    <g id="xtick_10">
     <g id="line2d_16">
      <g>
       <use xlink:href="#mc236ab3933" x="178.031515" y="206.12" style="stroke: #000000; stroke-width: 0.8"/>
      </g>
     </g>
     <g id="text_14">
      <!-- 0.010 -->
      <g transform="translate(163.717453 220.718437) scale(0.1 -0.1)">
       <use xlink:href="#DejaVuSans-30"/>
       <use xlink:href="#DejaVuSans-2e" x="63.623047"/>
       <use xlink:href="#DejaVuSans-30" x="95.410156"/>
       <use xlink:href="#DejaVuSans-31" x="159.033203"/>
       <use xlink:href="#DejaVuSans-30" x="222.65625"/>
      </g>
     </g>
    </g>
    <g id="xtick_11">
     <g id="line2d_17">
      <g>
       <use xlink:href="#mc236ab3933" x="241.28" y="206.12" style="stroke: #000000; stroke-width: 0.8"/>
      </g>
     </g>
     <g id="text_15">
      <!-- 0.015 -->
      <g transform="translate(226.965937 220.718437) scale(0.1 -0.1)">
       <use xlink:href="#DejaVuSans-30"/>
       <use xlink:href="#DejaVuSans-2e" x="63.623047"/>
       <use xlink:href="#DejaVuSans-30" x="95.410156"/>
       <use xlink:href="#DejaVuSans-31" x="159.033203"/>
       <use xlink:href="#DejaVuSans-35" x="222.65625"/>
      </g>
     </g>
    </g>
    <g id="xtick_12">
     <g id="line2d_18">
      <g>
       <use xlink:href="#mc236ab3933" x="304.528485" y="206.12" style="stroke: #000000; stroke-width: 0.8"/>
      </g>
     </g>
     <g id="text_16">
      <!-- 0.020 -->
      <g transform="translate(290.214422 220.718437) scale(0.1 -0.1)">
       <use xlink:href="#DejaVuSans-30"/>
       <use xlink:href="#DejaVuSans-2e" x="63.623047"/>
       <use xlink:href="#DejaVuSans-30" x="95.410156"/>
       <use xlink:href="#DejaVuSans-32" x="159.033203"/>
       <use xlink:href="#DejaVuSans-30" x="222.65625"/>
      </g>
     </g>
    </g>
    <g id="xtick_13">
     <g id="line2d_19">
      <g>
       <use xlink:href="#mc236ab3933" x="367.77697" y="206.12" style="stroke: #000000; stroke-width: 0.8"/>
      </g>
     </g>
     <g id="text_17">
      <!-- 0.025 -->
      <g transform="translate(353.462907 220.718437) scale(0.1 -0.1)">
       <use xlink:href="#DejaVuSans-30"/>
       <use xlink:href="#DejaVuSans-2e" x="63.623047"/>
       <use xlink:href="#DejaVuSans-30" x="95.410156"/>
       <use xlink:href="#DejaVuSans-32" x="159.033203"/>
       <use xlink:href="#DejaVuSans-35" x="222.65625"/>
      </g>
     </g>
    </g>
    <g id="xtick_14">
     <g id="line2d_20">
      <g>
       <use xlink:href="#mc236ab3933" x="431.025455" y="206.12" style="stroke: #000000; stroke-width: 0.8"/>
      </g>
     </g>
     <g id="text_18">
      <!-- 0.030 -->
      <g transform="translate(416.711392 220.718437) scale(0.1 -0.1)">
       <use xlink:href="#DejaVuSans-30"/>
       <use xlink:href="#DejaVuSans-2e" x="63.623047"/>
       <use xlink:href="#DejaVuSans-30" x="95.410156"/>
       <use xlink:href="#DejaVuSans-33" x="159.033203"/>
       <use xlink:href="#DejaVuSans-30" x="222.65625"/>
      </g>
     </g>
    </g>
   </g>
   <g id="matplotlib.axis_4">
    <g id="ytick_4">
     <g id="line2d_21">
      <g>
       <use xlink:href="#mc4e7e181b2" x="32.56" y="202.980224" style="stroke: #000000; stroke-width: 0.8"/>
      </g>
     </g>
     <g id="text_19">
      <!-- −1 -->
      <g transform="translate(10.817813 206.779442) scale(0.1 -0.1)">
       <use xlink:href="#DejaVuSans-2212"/>
       <use xlink:href="#DejaVuSans-31" x="83.789062"/>
      </g>
     </g>
    </g>
    <g id="ytick_5">
     <g id="line2d_22">
      <g>
       <use xlink:href="#mc4e7e181b2" x="32.56" y="171.580084" style="stroke: #000000; stroke-width: 0.8"/>
      </g>
     </g>
     <g id="text_20">
      <!-- 0 -->
      <g transform="translate(19.1975 175.379303) scale(0.1 -0.1)">
       <use xlink:href="#DejaVuSans-30"/>
      </g>
     </g>
    </g>
    <g id="ytick_6">
     <g id="line2d_23">
      <g>
       <use xlink:href="#mc4e7e181b2" x="32.56" y="140.179944" style="stroke: #000000; stroke-width: 0.8"/>
      </g>
     </g>
     <g id="text_21">
      <!-- 1 -->
      <g transform="translate(19.1975 143.979163) scale(0.1 -0.1)">
       <use xlink:href="#DejaVuSans-31"/>
      </g>
     </g>
    </g>
   </g>
   <g id="line2d_24">
    <path d="M 51.534545 155.880014 
L 53.81377 151.784823 
L 55.713124 148.747227 
L 57.612478 146.107369 
L 59.131961 144.313009 
L 60.651444 142.822795 
L 62.170927 141.653349 
L 63.69041 140.817715 
L 64.830023 140.415805 
L 65.969635 140.209508 
L 67.109247 140.20012 
L 68.24886 140.3877 
L 69.388472 140.77107 
L 70.528084 141.347824 
L 72.047568 142.411219 
L 73.567051 143.799974 
L 75.086534 145.498597 
L 76.985888 148.028451 
L 78.885242 150.968562 
L 81.164466 154.965674 
L 83.823562 160.147729 
L 87.242399 167.356753 
L 94.839814 183.616921 
L 97.49891 188.743889 
L 99.778134 192.678787 
L 101.677488 195.557649 
L 103.576842 198.018833 
L 105.096325 199.657978 
L 106.615809 200.983933 
L 108.135292 201.981908 
L 109.274904 202.508315 
L 110.414516 202.84059 
L 111.554129 202.976646 
L 112.693741 202.915631 
L 113.833353 202.657927 
L 114.972966 202.205152 
L 116.112578 201.560147 
L 117.632061 200.408285 
L 119.151544 198.934865 
L 120.671027 197.15632 
L 122.570381 194.534588 
L 124.469735 191.513 
L 126.74896 187.43383 
L 129.408055 182.18026 
L 133.206763 174.095388 
L 139.664566 160.258172 
L 142.323662 155.066341 
L 144.602887 151.058101 
L 146.50224 148.106988 
L 148.401594 145.564765 
L 149.921077 143.855406 
L 151.440561 142.455297 
L 152.960044 141.380055 
L 154.479527 140.641674 
L 155.619139 140.314052 
L 156.758751 140.182683 
L 157.898364 140.248391 
L 159.037976 140.510763 
L 160.177588 140.968153 
L 161.317201 141.61769 
L 162.836684 142.775417 
L 164.356167 144.254441 
L 165.87565 146.038264 
L 167.775004 148.666047 
L 169.674358 151.692982 
L 171.953583 155.777507 
L 174.612678 161.035696 
L 178.411386 169.12384 
L 184.869189 182.957238 
L 187.528285 188.14419 
L 189.807509 192.146873 
L 191.706863 195.09249 
L 193.606217 197.628533 
L 195.1257 199.332527 
L 196.645183 200.726961 
L 198.164666 201.796282 
L 199.304279 202.377601 
L 200.443891 202.765608 
L 201.583504 202.957868 
L 202.723116 202.953174 
L 203.862728 202.751556 
L 205.002341 202.354278 
L 206.141953 201.763835 
L 207.661436 200.682676 
L 209.180919 199.276897 
L 210.700402 197.562179 
L 212.599756 195.013785 
L 214.49911 192.057188 
L 216.778335 188.043406 
L 219.43743 182.846714 
L 222.856267 175.627221 
L 230.453683 159.379277 
L 233.112778 154.267717 
L 235.392003 150.350082 
L 237.291357 147.488141 
L 239.190711 145.04587 
L 240.710194 143.42307 
L 242.229677 142.114342 
L 243.74916 141.134284 
L 244.888772 140.621649 
L 246.028385 140.303335 
L 247.167997 140.181341 
L 248.307609 140.256433 
L 249.447222 140.528139 
L 250.586834 140.994754 
L 251.726446 141.653349 
L 253.24593 142.822795 
L 254.765413 144.313009 
L 256.284896 146.107369 
L 258.18425 148.747227 
L 260.083604 151.784823 
L 262.362828 155.880014 
L 265.021924 161.147384 
L 268.820632 169.241989 
L 275.278435 183.067599 
L 277.93753 188.244738 
L 280.216755 192.236265 
L 282.116109 195.17086 
L 284.015463 197.694516 
L 285.534946 199.387762 
L 287.054429 200.770831 
L 288.573912 201.828298 
L 289.713524 202.400485 
L 290.853137 202.779216 
L 291.992749 202.962115 
L 293.132361 202.948034 
L 294.271974 202.73706 
L 295.411586 202.330517 
L 296.551198 201.730959 
L 298.070682 200.637977 
L 299.590165 199.220873 
L 301.109648 197.495456 
L 303.009002 194.934747 
L 304.908356 191.967211 
L 307.18758 187.942388 
L 309.846676 182.73603 
L 313.265513 175.509687 
L 320.862928 159.270181 
L 323.522024 154.168983 
L 325.801249 150.262927 
L 327.700602 147.412317 
L 329.599956 144.982699 
L 331.119439 143.370824 
L 332.638923 142.073604 
L 334.158406 141.105509 
L 335.298018 140.602064 
L 336.43763 140.293063 
L 337.577243 140.180447 
L 338.716855 140.264922 
L 339.856467 140.545958 
L 340.99608 141.021791 
L 342.135692 141.689433 
L 343.655175 142.870582 
L 345.174658 144.371965 
L 346.694141 146.176837 
L 348.593495 148.828732 
L 350.492849 151.876945 
L 352.772074 155.982745 
L 355.431169 161.259221 
L 359.229877 169.36017 
L 365.68768 183.177797 
L 368.346776 188.345048 
L 370.626001 192.325362 
L 372.525354 195.248894 
L 374.424708 197.760127 
L 375.944191 199.4426 
L 377.463675 200.814286 
L 378.983158 201.859883 
L 380.12277 202.42293 
L 381.262382 202.79238 
L 382.401995 202.965916 
L 383.541607 202.942446 
L 384.681219 202.72212 
L 385.820832 202.306319 
L 386.960444 201.697653 
L 388.479927 200.592864 
L 389.99941 199.164456 
L 391.518893 197.428363 
L 393.418247 194.855376 
L 395.317601 191.876944 
L 397.596826 187.841136 
L 400.255921 182.625188 
L 403.674758 175.392096 
L 411.272174 159.16126 
L 413.931269 154.070498 
L 416.210494 150.176075 
L 418.109848 147.336838 
L 420.009202 144.919906 
L 421.528685 143.31898 
L 423.048168 142.033287 
L 424.567651 141.077169 
L 425.707264 140.58292 
L 426.846876 140.283237 
L 427.986488 140.18 
L 429.126101 140.273857 
L 430.265713 140.564218 
L 431.025455 140.866112 
L 431.025455 140.866112 
" clip-path="url(#pbb645660d0)" style="fill: none; stroke: #0000ff; stroke-width: 1.5; stroke-linecap: square"/>
   </g>
   <g id="LineCollection_2">
    <path d="M 51.534545 171.580084 
L 51.534545 155.880014 
" clip-path="url(#pbb645660d0)" style="fill: none; stroke: #0000ff; stroke-width: 1.5"/>
    <path d="M 114.78303 171.580084 
L 114.78303 202.294055 
" clip-path="url(#pbb645660d0)" style="fill: none; stroke: #0000ff; stroke-width: 1.5"/>
    <path d="M 178.031515 171.580084 
L 178.031515 168.297875 
" clip-path="url(#pbb645660d0)" style="fill: none; stroke: #0000ff; stroke-width: 1.5"/>
    <path d="M 241.28 171.580084 
L 241.28 142.894629 
" clip-path="url(#pbb645660d0)" style="fill: none; stroke: #0000ff; stroke-width: 1.5"/>
    <path d="M 304.528485 171.580084 
L 304.528485 192.590878 
" clip-path="url(#pbb645660d0)" style="fill: none; stroke: #0000ff; stroke-width: 1.5"/>
    <path d="M 367.77697 171.580084 
L 367.77697 187.280154 
" clip-path="url(#pbb645660d0)" style="fill: none; stroke: #0000ff; stroke-width: 1.5"/>
   </g>
   <g id="line2d_25">
    <g clip-path="url(#pbb645660d0)">
     <use xlink:href="#m66f65f893f" x="51.534545" y="155.880014" style="fill: #0000ff; stroke: #0000ff"/>
     <use xlink:href="#m66f65f893f" x="114.78303" y="202.294055" style="fill: #0000ff; stroke: #0000ff"/>
     <use xlink:href="#m66f65f893f" x="178.031515" y="168.297875" style="fill: #0000ff; stroke: #0000ff"/>
     <use xlink:href="#m66f65f893f" x="241.28" y="142.894629" style="fill: #0000ff; stroke: #0000ff"/>
     <use xlink:href="#m66f65f893f" x="304.528485" y="192.590878" style="fill: #0000ff; stroke: #0000ff"/>
     <use xlink:href="#m66f65f893f" x="367.77697" y="187.280154" style="fill: #0000ff; stroke: #0000ff"/>
    </g>
   </g>
   <g id="line2d_26">
    <path d="M 51.534545 171.580084 
L 367.77697 171.580084 
" clip-path="url(#pbb645660d0)" style="fill: none; stroke: #d62728; stroke-width: 1.5; stroke-linecap: square"/>
   </g>
   <g id="patch_8">
    <path d="M 32.56 206.12 
L 32.56 137.04 
" style="fill: none; stroke: #000000; stroke-width: 0.8; stroke-linejoin: miter; stroke-linecap: square"/>
   </g>
   <g id="patch_9">
    <path d="M 450 206.12 
L 450 137.04 
" style="fill: none; stroke: #000000; stroke-width: 0.8; stroke-linejoin: miter; stroke-linecap: square"/>
   </g>
   <g id="patch_10">
    <path d="M 32.56 206.12 
L 450 206.12 
" style="fill: none; stroke: #000000; stroke-width: 0.8; stroke-linejoin: miter; stroke-linecap: square"/>
   </g>
   <g id="patch_11">
    <path d="M 32.56 137.04 
L 450 137.04 
" style="fill: none; stroke: #000000; stroke-width: 0.8; stroke-linejoin: miter; stroke-linecap: square"/>
   </g>
   <g id="text_22">
    <!-- Freq: 120Hz; Phase: -pi/3 -->
    <g transform="translate(166.139375 131.04) scale(0.12 -0.12)">
     <defs>
      <path id="DejaVuSans-2d" d="M 313 2009 
L 1997 2009 
L 1997 1497 
L 313 1497 
L 313 2009 
z
" transform="scale(0.015625)"/>
     </defs>
     <use xlink:href="#DejaVuSans-46"/>
     <use xlink:href="#DejaVuSans-72" x="50.269531"/>
     <use xlink:href="#DejaVuSans-65" x="89.132812"/>
     <use xlink:href="#DejaVuSans-71" x="150.65625"/>
     <use xlink:href="#DejaVuSans-3a" x="214.132812"/>
     <use xlink:href="#DejaVuSans-20" x="247.824219"/>
     <use xlink:href="#DejaVuSans-31" x="279.611328"/>
     <use xlink:href="#DejaVuSans-32" x="343.234375"/>
     <use xlink:href="#DejaVuSans-30" x="406.857422"/>
     <use xlink:href="#DejaVuSans-48" x="470.480469"/>
     <use xlink:href="#DejaVuSans-7a" x="545.675781"/>
     <use xlink:href="#DejaVuSans-3b" x="598.166016"/>
     <use xlink:href="#DejaVuSans-20" x="631.857422"/>
     <use xlink:href="#DejaVuSans-50" x="663.644531"/>
     <use xlink:href="#DejaVuSans-68" x="723.947266"/>
     <use xlink:href="#DejaVuSans-61" x="787.326172"/>
     <use xlink:href="#DejaVuSans-73" x="848.605469"/>
     <use xlink:href="#DejaVuSans-65" x="900.705078"/>
     <use xlink:href="#DejaVuSans-3a" x="962.228516"/>
     <use xlink:href="#DejaVuSans-20" x="995.919922"/>
     <use xlink:href="#DejaVuSans-2d" x="1027.707031"/>
     <use xlink:href="#DejaVuSans-70" x="1063.791016"/>
     <use xlink:href="#DejaVuSans-69" x="1127.267578"/>
     <use xlink:href="#DejaVuSans-2f" x="1155.050781"/>
     <use xlink:href="#DejaVuSans-33" x="1188.742188"/>
    </g>
   </g>
  </g>
  <g id="axes_3">
   <g id="patch_12">
    <path d="M 32.56 317.72 
L 450 317.72 
L 450 248.64 
L 32.56 248.64 
z
" style="fill: #ffffff"/>
   </g>
   <g id="matplotlib.axis_5">
    <g id="xtick_15">
     <g id="line2d_27">
      <g>
       <use xlink:href="#mc236ab3933" x="51.534545" y="317.72" style="stroke: #000000; stroke-width: 0.8"/>
      </g>
     </g>
     <g id="text_23">
      <!-- 0.000 -->
      <g transform="translate(37.220483 332.318437) scale(0.1 -0.1)">
       <use xlink:href="#DejaVuSans-30"/>
       <use xlink:href="#DejaVuSans-2e" x="63.623047"/>
       <use xlink:href="#DejaVuSans-30" x="95.410156"/>
       <use xlink:href="#DejaVuSans-30" x="159.033203"/>
       <use xlink:href="#DejaVuSans-30" x="222.65625"/>
      </g>
     </g>
    </g>
    <g id="xtick_16">
     <g id="line2d_28">
      <g>
       <use xlink:href="#mc236ab3933" x="114.78303" y="317.72" style="stroke: #000000; stroke-width: 0.8"/>
      </g>
     </g>
     <g id="text_24">
      <!-- 0.005 -->
      <g transform="translate(100.468968 332.318437) scale(0.1 -0.1)">
       <use xlink:href="#DejaVuSans-30"/>
       <use xlink:href="#DejaVuSans-2e" x="63.623047"/>
       <use xlink:href="#DejaVuSans-30" x="95.410156"/>
       <use xlink:href="#DejaVuSans-30" x="159.033203"/>
       <use xlink:href="#DejaVuSans-35" x="222.65625"/>
      </g>
     </g>
    </g>
    <g id="xtick_17">
     <g id="line2d_29">
      <g>
       <use xlink:href="#mc236ab3933" x="178.031515" y="317.72" style="stroke: #000000; stroke-width: 0.8"/>
      </g>
     </g>
     <g id="text_25">
      <!-- 0.010 -->
      <g transform="translate(163.717453 332.318437) scale(0.1 -0.1)">
       <use xlink:href="#DejaVuSans-30"/>
       <use xlink:href="#DejaVuSans-2e" x="63.623047"/>
       <use xlink:href="#DejaVuSans-30" x="95.410156"/>
       <use xlink:href="#DejaVuSans-31" x="159.033203"/>
       <use xlink:href="#DejaVuSans-30" x="222.65625"/>
      </g>
     </g>
    </g>
    <g id="xtick_18">
     <g id="line2d_30">
      <g>
       <use xlink:href="#mc236ab3933" x="241.28" y="317.72" style="stroke: #000000; stroke-width: 0.8"/>
      </g>
     </g>
     <g id="text_26">
      <!-- 0.015 -->
      <g transform="translate(226.965937 332.318437) scale(0.1 -0.1)">
       <use xlink:href="#DejaVuSans-30"/>
       <use xlink:href="#DejaVuSans-2e" x="63.623047"/>
       <use xlink:href="#DejaVuSans-30" x="95.410156"/>
       <use xlink:href="#DejaVuSans-31" x="159.033203"/>
       <use xlink:href="#DejaVuSans-35" x="222.65625"/>
      </g>
     </g>
    </g>
    <g id="xtick_19">
     <g id="line2d_31">
      <g>
       <use xlink:href="#mc236ab3933" x="304.528485" y="317.72" style="stroke: #000000; stroke-width: 0.8"/>
      </g>
     </g>
     <g id="text_27">
      <!-- 0.020 -->
      <g transform="translate(290.214422 332.318437) scale(0.1 -0.1)">
       <use xlink:href="#DejaVuSans-30"/>
       <use xlink:href="#DejaVuSans-2e" x="63.623047"/>
       <use xlink:href="#DejaVuSans-30" x="95.410156"/>
       <use xlink:href="#DejaVuSans-32" x="159.033203"/>
       <use xlink:href="#DejaVuSans-30" x="222.65625"/>
      </g>
     </g>
    </g>
    <g id="xtick_20">
     <g id="line2d_32">
      <g>
       <use xlink:href="#mc236ab3933" x="367.77697" y="317.72" style="stroke: #000000; stroke-width: 0.8"/>
      </g>
     </g>
     <g id="text_28">
      <!-- 0.025 -->
      <g transform="translate(353.462907 332.318437) scale(0.1 -0.1)">
       <use xlink:href="#DejaVuSans-30"/>
       <use xlink:href="#DejaVuSans-2e" x="63.623047"/>
       <use xlink:href="#DejaVuSans-30" x="95.410156"/>
       <use xlink:href="#DejaVuSans-32" x="159.033203"/>
       <use xlink:href="#DejaVuSans-35" x="222.65625"/>
      </g>
     </g>
    </g>
    <g id="xtick_21">
     <g id="line2d_33">
      <g>
       <use xlink:href="#mc236ab3933" x="431.025455" y="317.72" style="stroke: #000000; stroke-width: 0.8"/>
      </g>
     </g>
     <g id="text_29">
      <!-- 0.030 -->
      <g transform="translate(416.711392 332.318437) scale(0.1 -0.1)">
       <use xlink:href="#DejaVuSans-30"/>
       <use xlink:href="#DejaVuSans-2e" x="63.623047"/>
       <use xlink:href="#DejaVuSans-30" x="95.410156"/>
       <use xlink:href="#DejaVuSans-33" x="159.033203"/>
       <use xlink:href="#DejaVuSans-30" x="222.65625"/>
      </g>
     </g>
    </g>
   </g>
   <g id="matplotlib.axis_6">
    <g id="ytick_7">
     <g id="line2d_34">
      <g>
       <use xlink:href="#mc4e7e181b2" x="32.56" y="314.58" style="stroke: #000000; stroke-width: 0.8"/>
      </g>
     </g>
     <g id="text_30">
      <!-- −1 -->
      <g transform="translate(10.817813 318.379219) scale(0.1 -0.1)">
       <use xlink:href="#DejaVuSans-2212"/>
       <use xlink:href="#DejaVuSans-31" x="83.789062"/>
      </g>
     </g>
    </g>
    <g id="ytick_8">
     <g id="line2d_35">
      <g>
       <use xlink:href="#mc4e7e181b2" x="32.56" y="283.179748" style="stroke: #000000; stroke-width: 0.8"/>
      </g>
     </g>
     <g id="text_31">
      <!-- 0 -->
      <g transform="translate(19.1975 286.978967) scale(0.1 -0.1)">
       <use xlink:href="#DejaVuSans-30"/>
      </g>
     </g>
    </g>
    <g id="ytick_9">
     <g id="line2d_36">
      <g>
       <use xlink:href="#mc4e7e181b2" x="32.56" y="251.779497" style="stroke: #000000; stroke-width: 0.8"/>
      </g>
     </g>
     <g id="text_32">
      <!-- 1 -->
      <g transform="translate(19.1975 255.578716) scale(0.1 -0.1)">
       <use xlink:href="#DejaVuSans-31"/>
      </g>
     </g>
    </g>
   </g>
   <g id="line2d_37">
    <path d="M 51.534545 267.479623 
L 56.472866 271.637073 
L 62.170927 276.738224 
L 72.807309 286.638683 
L 80.404725 293.556586 
L 85.722916 298.104044 
L 90.281365 301.708177 
L 94.459944 304.713539 
L 98.258651 307.157399 
L 101.677488 309.095213 
L 105.096325 310.764219 
L 108.135292 312.008053 
L 111.174258 313.01558 
L 114.213224 313.778542 
L 117.25219 314.290685 
L 119.911286 314.529708 
L 122.570381 314.571951 
L 125.229477 314.417151 
L 128.268443 314.000259 
L 131.307409 313.330731 
L 134.346375 312.414054 
L 137.385342 311.257743 
L 140.424308 309.871275 
L 143.843145 308.050611 
L 147.261982 305.971974 
L 151.06069 303.386125 
L 155.239268 300.244267 
L 159.797718 296.517152 
L 165.115909 291.863303 
L 172.333453 285.222338 
L 185.24906 273.307651 
L 190.567251 268.72673 
L 195.1257 265.08447 
L 199.304279 262.037128 
L 203.102987 259.549829 
L 206.521824 257.569095 
L 209.940661 255.854008 
L 212.979627 254.566945 
L 216.018593 253.514421 
L 219.057559 252.705066 
L 222.096526 252.145512 
L 225.135492 251.840347 
L 227.794587 251.784024 
L 230.453683 251.924768 
L 233.112778 252.261695 
L 236.151744 252.88421 
L 239.190711 253.755059 
L 242.229677 254.867102 
L 245.268643 256.211226 
L 248.68748 257.986983 
L 252.106317 260.024052 
L 255.905025 262.568154 
L 259.703733 265.376144 
L 264.262182 269.043238 
L 269.200502 273.307651 
L 275.658306 279.191357 
L 291.992749 294.224892 
L 296.931069 298.415846 
L 301.489519 301.993984 
L 305.288226 304.713539 
L 309.086934 307.157399 
L 312.505771 309.095213 
L 315.924608 310.764219 
L 318.963574 312.008053 
L 322.002541 313.01558 
L 325.041507 313.778542 
L 328.080473 314.290685 
L 330.739569 314.529708 
L 333.398664 314.571951 
L 336.05776 314.417151 
L 339.096726 314.000259 
L 342.135692 313.330731 
L 345.174658 312.414054 
L 348.213625 311.257743 
L 351.252591 309.871275 
L 354.671428 308.050611 
L 358.090265 305.971974 
L 361.888973 303.386125 
L 366.067551 300.244267 
L 370.626001 296.517152 
L 375.944191 291.863303 
L 383.161736 285.222338 
L 396.077343 273.307651 
L 401.395534 268.72673 
L 405.953983 265.08447 
L 410.132562 262.037128 
L 413.931269 259.549829 
L 417.350106 257.569095 
L 420.768943 255.854008 
L 423.80791 254.566945 
L 426.846876 253.514421 
L 429.885842 252.705066 
L 431.025455 252.465668 
L 431.025455 252.465668 
" clip-path="url(#p6281ce208f)" style="fill: none; stroke: #0000ff; stroke-width: 1.5; stroke-linecap: square"/>
   </g>
   <g id="LineCollection_3">
    <path d="M 51.534545 283.179748 
L 51.534545 267.479623 
" clip-path="url(#p6281ce208f)" style="fill: none; stroke: #0000ff; stroke-width: 1.5"/>
    <path d="M 114.78303 283.179748 
L 114.78303 313.893829 
" clip-path="url(#p6281ce208f)" style="fill: none; stroke: #0000ff; stroke-width: 1.5"/>
    <path d="M 178.031515 283.179748 
L 178.031515 279.897528 
" clip-path="url(#p6281ce208f)" style="fill: none; stroke: #0000ff; stroke-width: 1.5"/>
    <path d="M 241.28 283.179748 
L 241.28 254.494191 
" clip-path="url(#p6281ce208f)" style="fill: none; stroke: #0000ff; stroke-width: 1.5"/>
    <path d="M 304.528485 283.179748 
L 304.528485 304.190618 
" clip-path="url(#p6281ce208f)" style="fill: none; stroke: #0000ff; stroke-width: 1.5"/>
    <path d="M 367.77697 283.179748 
L 367.77697 298.879874 
" clip-path="url(#p6281ce208f)" style="fill: none; stroke: #0000ff; stroke-width: 1.5"/>
   </g>
   <g id="line2d_38">
    <g clip-path="url(#p6281ce208f)">
     <use xlink:href="#m66f65f893f" x="51.534545" y="267.479623" style="fill: #0000ff; stroke: #0000ff"/>
     <use xlink:href="#m66f65f893f" x="114.78303" y="313.893829" style="fill: #0000ff; stroke: #0000ff"/>
     <use xlink:href="#m66f65f893f" x="178.031515" y="279.897528" style="fill: #0000ff; stroke: #0000ff"/>
     <use xlink:href="#m66f65f893f" x="241.28" y="254.494191" style="fill: #0000ff; stroke: #0000ff"/>
     <use xlink:href="#m66f65f893f" x="304.528485" y="304.190618" style="fill: #0000ff; stroke: #0000ff"/>
     <use xlink:href="#m66f65f893f" x="367.77697" y="298.879874" style="fill: #0000ff; stroke: #0000ff"/>
    </g>
   </g>
   <g id="line2d_39">
    <path d="M 51.534545 283.179748 
L 367.77697 283.179748 
" clip-path="url(#p6281ce208f)" style="fill: none; stroke: #d62728; stroke-width: 1.5; stroke-linecap: square"/>
   </g>
   <g id="patch_13">
    <path d="M 32.56 317.72 
L 32.56 248.64 
" style="fill: none; stroke: #000000; stroke-width: 0.8; stroke-linejoin: miter; stroke-linecap: square"/>
   </g>
   <g id="patch_14">
    <path d="M 450 317.72 
L 450 248.64 
" style="fill: none; stroke: #000000; stroke-width: 0.8; stroke-linejoin: miter; stroke-linecap: square"/>
   </g>
   <g id="patch_15">
    <path d="M 32.56 317.72 
L 450 317.72 
" style="fill: none; stroke: #000000; stroke-width: 0.8; stroke-linejoin: miter; stroke-linecap: square"/>
   </g>
   <g id="patch_16">
    <path d="M 32.56 248.64 
L 450 248.64 
" style="fill: none; stroke: #000000; stroke-width: 0.8; stroke-linejoin: miter; stroke-linecap: square"/>
   </g>
   <g id="text_33">
    <!-- Freq: 60hz; Phase: +pi/3 -->
    <g transform="translate(167.803438 242.64) scale(0.12 -0.12)">
     <use xlink:href="#DejaVuSans-46"/>
     <use xlink:href="#DejaVuSans-72" x="50.269531"/>
     <use xlink:href="#DejaVuSans-65" x="89.132812"/>
     <use xlink:href="#DejaVuSans-71" x="150.65625"/>
     <use xlink:href="#DejaVuSans-3a" x="214.132812"/>
     <use xlink:href="#DejaVuSans-20" x="247.824219"/>
     <use xlink:href="#DejaVuSans-36" x="279.611328"/>
     <use xlink:href="#DejaVuSans-30" x="343.234375"/>
     <use xlink:href="#DejaVuSans-68" x="406.857422"/>
     <use xlink:href="#DejaVuSans-7a" x="470.236328"/>
     <use xlink:href="#DejaVuSans-3b" x="522.726562"/>
     <use xlink:href="#DejaVuSans-20" x="556.417969"/>
     <use xlink:href="#DejaVuSans-50" x="588.205078"/>
     <use xlink:href="#DejaVuSans-68" x="648.507812"/>
     <use xlink:href="#DejaVuSans-61" x="711.886719"/>
     <use xlink:href="#DejaVuSans-73" x="773.166016"/>
     <use xlink:href="#DejaVuSans-65" x="825.265625"/>
     <use xlink:href="#DejaVuSans-3a" x="886.789062"/>
     <use xlink:href="#DejaVuSans-20" x="920.480469"/>
     <use xlink:href="#DejaVuSans-2b" x="952.267578"/>
     <use xlink:href="#DejaVuSans-70" x="1036.056641"/>
     <use xlink:href="#DejaVuSans-69" x="1099.533203"/>
     <use xlink:href="#DejaVuSans-2f" x="1127.316406"/>
     <use xlink:href="#DejaVuSans-33" x="1161.007812"/>
    </g>
   </g>
  </g>
 </g>
 <defs>
  <clipPath id="pced50197a8">
   <rect x="32.56" y="25.44" width="417.44" height="69.08"/>
  </clipPath>
  <clipPath id="pbb645660d0">
   <rect x="32.56" y="137.04" width="417.44" height="69.08"/>
  </clipPath>
  <clipPath id="p6281ce208f">
   <rect x="32.56" y="248.64" width="417.44" height="69.08"/>
  </clipPath>
 </defs>
</svg>
