<?xml version="1.0" encoding="utf-8" standalone="no"?>
<!DOCTYPE svg PUBLIC "-//W3C//DTD SVG 1.1//EN"
  "http://www.w3.org/Graphics/SVG/1.1/DTD/svg11.dtd">
<svg xmlns:xlink="http://www.w3.org/1999/xlink" width="460.8pt" height="345.6pt" viewBox="0 0 460.8 345.6" xmlns="http://www.w3.org/2000/svg" version="1.1">
 <metadata>
  <rdf:RDF xmlns:dc="http://purl.org/dc/elements/1.1/" xmlns:cc="http://creativecommons.org/ns#" xmlns:rdf="http://www.w3.org/1999/02/22-rdf-syntax-ns#">
   <cc:Work>
    <dc:type rdf:resource="http://purl.org/dc/dcmitype/StillImage"/>
    <dc:date>2025-10-31T21:37:05.172322</dc:date>
    <dc:format>image/svg+xml</dc:format>
    <dc:creator>
     <cc:Agent>
      <dc:title>Matplotlib v3.6.3, https://matplotlib.org/</dc:title>
     </cc:Agent>
    </dc:creator>
   </cc:Work>
  </rdf:RDF>
 </metadata>
 <defs>
  <style type="text/css">*{stroke-linejoin: round; stroke-linecap: butt}</style>
 </defs>
 <g id="figure_1">
  <g id="patch_1">
   <path d="M 0 345.6 
L 460.8 345.6 
L 460.8 0 
L 0 0 
z
" style="fill: #ffffff"/>
  </g>
  <g id="axes_1">
   <g id="patch_2">
    <path d="M 32.56 66.62 
L 450 66.62 
L 450 25.44 
L 32.56 25.44 
z
" style="fill: #ffffff"/>
   </g>
   <g id="matplotlib.axis_1">
    <g id="xtick_1">
     <g id="line2d_1">
      <defs>
       <path id="m693155f5d7" d="M 0 0 
L 0 3.5 
" style="stroke: #000000; stroke-width: 0.8"/>
      </defs>
      <g>
       <use xlink:href="#m693155f5d7" x="51.534545" y="66.62" style="stroke: #000000; stroke-width: 0.8"/>
      </g>
     </g>
     <g id="text_1">
      <!-- 0.000 -->
      <g transform="translate(37.220483 81.218437) scale(0.1 -0.1)">
       <defs>
        <path id="DejaVuSans-30" d="M 2034 4250 
Q 1547 4250 1301 3770 
Q 1056 3291 1056 2328 
Q 1056 1369 1301 889 
Q 1547 409 2034 409 
Q 2525 409 2770 889 
Q 3016 1369 3016 2328 
Q 3016 3291 2770 3770 
Q 2525 4250 2034 4250 
z
M 2034 4750 
Q 2819 4750 3233 4129 
Q 3647 3509 3647 2328 
Q 3647 1150 3233 529 
Q 2819 -91 2034 -91 
Q 1250 -91 836 529 
Q 422 1150 422 2328 
Q 422 3509 836 4129 
Q 1250 4750 2034 4750 
z
" transform="scale(0.015625)"/>
        <path id="DejaVuSans-2e" d="M 684 794 
L 1344 794 
L 1344 0 
L 684 0 
L 684 794 
z
" transform="scale(0.015625)"/>
       </defs>
       <use xlink:href="#DejaVuSans-30"/>
       <use xlink:href="#DejaVuSans-2e" x="63.623047"/>
       <use xlink:href="#DejaVuSans-30" x="95.410156"/>
       <use xlink:href="#DejaVuSans-30" x="159.033203"/>
       <use xlink:href="#DejaVuSans-30" x="222.65625"/>
      </g>
     </g>
    </g>
    <g id="xtick_2">
     <g id="line2d_2">
      <g>
       <use xlink:href="#m693155f5d7" x="127.432727" y="66.62" style="stroke: #000000; stroke-width: 0.8"/>
      </g>
     </g>
     <g id="text_2">
      <!-- 0.005 -->
      <g transform="translate(113.118665 81.218437) scale(0.1 -0.1)">
       <defs>
        <path id="DejaVuSans-35" d="M 691 4666 
L 3169 4666 
L 3169 4134 
L 1269 4134 
L 1269 2991 
Q 1406 3038 1543 3061 
Q 1681 3084 1819 3084 
Q 2600 3084 3056 2656 
Q 3513 2228 3513 1497 
Q 3513 744 3044 326 
Q 2575 -91 1722 -91 
Q 1428 -91 1123 -41 
Q 819 9 494 109 
L 494 744 
Q 775 591 1075 516 
Q 1375 441 1709 441 
Q 2250 441 2565 725 
Q 2881 1009 2881 1497 
Q 2881 1984 2565 2268 
Q 2250 2553 1709 2553 
Q 1456 2553 1204 2497 
Q 953 2441 691 2322 
L 691 4666 
z
" transform="scale(0.015625)"/>
       </defs>
       <use xlink:href="#DejaVuSans-30"/>
       <use xlink:href="#DejaVuSans-2e" x="63.623047"/>
       <use xlink:href="#DejaVuSans-30" x="95.410156"/>
       <use xlink:href="#DejaVuSans-30" x="159.033203"/>
       <use xlink:href="#DejaVuSans-35" x="222.65625"/>
      </g>
     </g>
    </g>
    <g id="xtick_3">
     <g id="line2d_3">
      <g>
       <use xlink:href="#m693155f5d7" x="203.330909" y="66.62" style="stroke: #000000; stroke-width: 0.8"/>
      </g>
     </g>
     <g id="text_3">
      <!-- 0.010 -->
      <g transform="translate(189.016847 81.218437) scale(0.1 -0.1)">
       <defs>
        <path id="DejaVuSans-31" d="M 794 531 
L 1825 531 
L 1825 4091 
L 703 3866 
L 703 4441 
L 1819 4666 
L 2450 4666 
L 2450 531 
L 3481 531 
L 3481 0 
L 794 0 
L 794 531 
z
" transform="scale(0.015625)"/>
       </defs>
       <use xlink:href="#DejaVuSans-30"/>
       <use xlink:href="#DejaVuSans-2e" x="63.623047"/>
       <use xlink:href="#DejaVuSans-30" x="95.410156"/>
       <use xlink:href="#DejaVuSans-31" x="159.033203"/>
       <use xlink:href="#DejaVuSans-30" x="222.65625"/>
      </g>
     </g>
    </g>
    <g id="xtick_4">
     <g id="line2d_4">
      <g>
       <use xlink:href="#m693155f5d7" x="279.229091" y="66.62" style="stroke: #000000; stroke-width: 0.8"/>
      </g>
     </g>
     <g id="text_4">
      <!-- 0.015 -->
      <g transform="translate(264.915028 81.218437) scale(0.1 -0.1)">
       <use xlink:href="#DejaVuSans-30"/>
       <use xlink:href="#DejaVuSans-2e" x="63.623047"/>
       <use xlink:href="#DejaVuSans-30" x="95.410156"/>
       <use xlink:href="#DejaVuSans-31" x="159.033203"/>
       <use xlink:href="#DejaVuSans-35" x="222.65625"/>
      </g>
     </g>
    </g>
    <g id="xtick_5">
     <g id="line2d_5">
      <g>
       <use xlink:href="#m693155f5d7" x="355.127273" y="66.62" style="stroke: #000000; stroke-width: 0.8"/>
      </g>
     </g>
     <g id="text_5">
      <!-- 0.020 -->
      <g transform="translate(340.81321 81.218437) scale(0.1 -0.1)">
       <defs>
        <path id="DejaVuSans-32" d="M 1228 531 
L 3431 531 
L 3431 0 
L 469 0 
L 469 531 
Q 828 903 1448 1529 
Q 2069 2156 2228 2338 
Q 2531 2678 2651 2914 
Q 2772 3150 2772 3378 
Q 2772 3750 2511 3984 
Q 2250 4219 1831 4219 
Q 1534 4219 1204 4116 
Q 875 4013 500 3803 
L 500 4441 
Q 881 4594 1212 4672 
Q 1544 4750 1819 4750 
Q 2544 4750 2975 4387 
Q 3406 4025 3406 3419 
Q 3406 3131 3298 2873 
Q 3191 2616 2906 2266 
Q 2828 2175 2409 1742 
Q 1991 1309 1228 531 
z
" transform="scale(0.015625)"/>
       </defs>
       <use xlink:href="#DejaVuSans-30"/>
       <use xlink:href="#DejaVuSans-2e" x="63.623047"/>
       <use xlink:href="#DejaVuSans-30" x="95.410156"/>
       <use xlink:href="#DejaVuSans-32" x="159.033203"/>
       <use xlink:href="#DejaVuSans-30" x="222.65625"/>
      </g>
     </g>
    </g>
    <g id="xtick_6">
     <g id="line2d_6">
      <g>
       <use xlink:href="#m693155f5d7" x="431.025455" y="66.62" style="stroke: #000000; stroke-width: 0.8"/>
      </g>
     </g>
     <g id="text_6">
      <!-- 0.025 -->
      <g transform="translate(416.711392 81.218437) scale(0.1 -0.1)">
       <use xlink:href="#DejaVuSans-30"/>
       <use xlink:href="#DejaVuSans-2e" x="63.623047"/>
       <use xlink:href="#DejaVuSans-30" x="95.410156"/>
       <use xlink:href="#DejaVuSans-32" x="159.033203"/>
       <use xlink:href="#DejaVuSans-35" x="222.65625"/>
      </g>
     </g>
    </g>
   </g>
   <g id="matplotlib.axis_2">
    <g id="ytick_1">
     <g id="line2d_7">
      <defs>
       <path id="m615df9623c" d="M 0 0 
L -3.5 0 
" style="stroke: #000000; stroke-width: 0.8"/>
      </defs>
      <g>
       <use xlink:href="#m615df9623c" x="32.56" y="64.748191" style="stroke: #000000; stroke-width: 0.8"/>
      </g>
     </g>
     <g id="text_7">
      <!-- −1 -->
      <g transform="translate(10.817813 68.54741) scale(0.1 -0.1)">
       <defs>
        <path id="DejaVuSans-2212" d="M 678 2272 
L 4684 2272 
L 4684 1741 
L 678 1741 
L 678 2272 
z
" transform="scale(0.015625)"/>
       </defs>
       <use xlink:href="#DejaVuSans-2212"/>
       <use xlink:href="#DejaVuSans-31" x="83.789062"/>
      </g>
     </g>
    </g>
    <g id="ytick_2">
     <g id="line2d_8">
      <g>
       <use xlink:href="#m615df9623c" x="32.56" y="46.03" style="stroke: #000000; stroke-width: 0.8"/>
      </g>
     </g>
     <g id="text_8">
      <!-- 0 -->
      <g transform="translate(19.1975 49.829219) scale(0.1 -0.1)">
       <use xlink:href="#DejaVuSans-30"/>
      </g>
     </g>
    </g>
    <g id="ytick_3">
     <g id="line2d_9">
      <g>
       <use xlink:href="#m615df9623c" x="32.56" y="27.311809" style="stroke: #000000; stroke-width: 0.8"/>
      </g>
     </g>
     <g id="text_9">
      <!-- 1 -->
      <g transform="translate(19.1975 31.111028) scale(0.1 -0.1)">
       <use xlink:href="#DejaVuSans-31"/>
      </g>
     </g>
    </g>
   </g>
   <g id="line2d_10">
    <path d="M 51.534545 46.03 
L 54.382507 37.527204 
L 55.806488 33.867217 
L 56.993139 31.323744 
L 57.942459 29.692392 
L 58.89178 28.463828 
L 59.603771 27.825352 
L 60.315761 27.439564 
L 61.027751 27.311818 
L 61.739742 27.443889 
L 62.451732 27.833942 
L 63.163723 28.476565 
L 64.113043 29.710372 
L 65.062364 31.346524 
L 66.249015 33.895194 
L 67.672996 37.559984 
L 69.571637 43.136342 
L 73.606249 55.213383 
L 75.03023 58.769304 
L 76.216881 61.201386 
L 77.166202 62.730511 
L 78.115522 63.8479 
L 78.827513 64.398766 
L 79.539503 64.694667 
L 80.251494 64.731493 
L 80.963484 64.508736 
L 81.675474 64.029486 
L 82.387465 63.300396 
L 83.336785 61.957609 
L 84.286106 60.222142 
L 85.472757 57.566623 
L 86.896738 53.804297 
L 89.032709 47.426193 
L 92.355331 37.461745 
L 93.779312 33.811402 
L 94.965963 31.278355 
L 95.915283 29.656622 
L 96.864604 28.438559 
L 97.576594 27.808382 
L 98.288585 27.431128 
L 99.000575 27.312035 
L 99.712566 27.452755 
L 100.424556 27.851334 
L 101.136547 28.502241 
L 102.085867 29.74652 
L 103.035188 31.392254 
L 104.221839 33.95129 
L 105.64582 37.62564 
L 107.544461 43.209032 
L 111.579073 55.277403 
L 113.003054 58.823095 
L 114.189705 61.24435 
L 115.139026 62.7636 
L 116.088346 63.870299 
L 116.800337 64.41277 
L 117.512327 64.700081 
L 118.224317 64.728243 
L 118.936308 64.496866 
L 119.648298 64.009161 
L 120.360289 63.271898 
L 121.309609 61.918849 
L 122.25893 60.174075 
L 123.445581 57.508613 
L 124.869562 53.737329 
L 127.005533 47.352835 
L 130.328155 37.396417 
L 131.752136 33.755777 
L 132.938787 31.233193 
L 133.888107 29.621104 
L 134.837428 28.413561 
L 135.549418 27.791693 
L 136.261409 27.42298 
L 136.973399 27.312541 
L 137.68539 27.461907 
L 138.39738 27.869006 
L 139.109371 28.528188 
L 140.058691 29.78292 
L 141.008012 31.43821 
L 142.194663 34.007572 
L 143.618643 37.691426 
L 145.517285 43.281766 
L 149.551897 55.341281 
L 150.975878 58.876688 
L 152.162529 61.287079 
L 153.111849 62.796431 
L 154.06117 63.892422 
L 154.77316 64.42649 
L 155.485151 64.705207 
L 156.197141 64.724704 
L 156.909132 64.484711 
L 157.621122 63.988559 
L 158.333113 63.243135 
L 159.282433 61.879844 
L 160.231754 60.12579 
L 161.418405 57.450425 
L 162.842386 53.670242 
L 164.978357 47.279457 
L 168.300979 37.331223 
L 169.72496 33.700341 
L 170.911611 31.18826 
L 171.860931 29.58584 
L 172.810252 28.388835 
L 173.522242 27.775286 
L 174.234233 27.41512 
L 174.946223 27.313336 
L 175.658214 27.471346 
L 176.370204 27.886959 
L 177.082195 28.554405 
L 178.031515 29.819571 
L 178.980836 31.484391 
L 180.167486 34.06404 
L 181.591467 37.757341 
L 183.490109 43.354542 
L 187.524721 55.405015 
L 188.948702 58.930083 
L 190.135353 61.329572 
L 191.084673 62.829002 
L 192.033994 63.91427 
L 192.745984 64.439926 
L 193.457975 64.710044 
L 194.169965 64.720876 
L 194.881956 64.472271 
L 195.593946 63.96768 
L 196.305937 63.214106 
L 197.255257 61.840594 
L 198.204578 60.077287 
L 199.391229 57.392061 
L 200.81521 53.603037 
L 202.951181 47.206059 
L 206.273803 37.266163 
L 207.697784 33.645095 
L 208.884435 31.143556 
L 209.833755 29.55083 
L 210.783076 28.364382 
L 211.495066 27.759161 
L 212.207057 27.407546 
L 212.919047 27.314419 
L 213.631038 27.481072 
L 214.343028 27.905192 
L 215.055018 28.580891 
L 216.004339 29.856472 
L 216.95366 31.530796 
L 218.14031 34.120693 
L 219.564291 37.823383 
L 221.700263 44.157558 
L 225.260215 54.826316 
L 226.684196 58.442456 
L 227.870847 60.93871 
L 228.820167 62.52658 
L 229.769488 63.707743 
L 230.481478 64.308796 
L 231.193469 64.656133 
L 231.905459 64.74493 
L 232.61745 64.573957 
L 233.32944 64.145587 
L 234.04143 63.465764 
L 234.990751 62.184983 
L 235.940072 60.505917 
L 237.126722 57.910912 
L 238.550703 54.203548 
L 240.686675 47.865847 
L 244.246627 37.201239 
L 245.670608 33.59004 
L 246.857259 31.099082 
L 247.806579 29.516074 
L 248.7559 28.340201 
L 249.46789 27.743318 
L 250.179881 27.400261 
L 250.891871 27.315792 
L 251.603862 27.491084 
L 252.315852 27.923705 
L 253.027842 28.607648 
L 253.977163 29.893623 
L 254.926484 31.577426 
L 256.113134 34.177529 
L 257.537115 37.889553 
L 259.673087 44.230755 
L 263.233039 54.891173 
L 264.65702 58.497415 
L 265.84367 60.983069 
L 266.792991 62.561208 
L 267.742312 63.731787 
L 268.454302 64.324498 
L 269.166293 64.663274 
L 269.878283 64.743413 
L 270.590273 64.563802 
L 271.302264 64.126934 
L 272.014254 63.438873 
L 272.963575 62.147708 
L 273.912896 60.459175 
L 275.099546 57.853984 
L 276.523527 54.137315 
L 278.659499 47.792636 
L 282.219451 37.13645 
L 283.643432 33.535178 
L 284.830082 31.054839 
L 285.779403 29.481573 
L 286.728724 28.316294 
L 287.440714 27.727757 
L 288.152705 27.393262 
L 288.864695 27.317454 
L 289.576685 27.501383 
L 290.288676 27.942497 
L 291.000666 28.634673 
L 291.949987 29.931023 
L 292.899308 31.624279 
L 294.085958 34.234548 
L 295.509939 37.955848 
L 297.645911 44.30398 
L 301.205863 54.955892 
L 302.629844 58.552181 
L 303.816494 61.027197 
L 304.765815 62.595582 
L 305.715136 63.755558 
L 306.427126 64.339918 
L 307.139116 64.670129 
L 307.851107 64.741607 
L 308.563097 64.553361 
L 309.275088 64.108002 
L 309.987078 63.411714 
L 310.936399 62.110184 
L 311.885719 60.412212 
L 313.07237 57.796873 
L 314.496351 54.070958 
L 316.632322 47.719397 
L 320.192275 37.071799 
L 321.616256 33.480508 
L 322.802906 31.010826 
L 323.752227 29.447328 
L 324.701548 28.29266 
L 325.413538 27.712479 
L 326.125528 27.386552 
L 326.837519 27.319404 
L 327.549509 27.511968 
L 328.2615 27.961568 
L 328.97349 28.661967 
L 329.922811 29.968672 
L 330.872131 31.671354 
L 332.058782 34.29175 
L 333.482763 38.022267 
L 335.618734 44.377232 
L 338.941357 54.368574 
L 340.365337 58.052428 
L 341.551988 60.62179 
L 342.501309 62.27708 
L 343.450629 63.531812 
L 344.16262 64.190994 
L 344.87461 64.598093 
L 345.586601 64.747459 
L 346.298591 64.63702 
L 347.010582 64.268307 
L 347.722572 63.646439 
L 348.671893 62.438896 
L 349.621213 60.826807 
L 350.807864 58.304223 
L 352.231845 54.663583 
L 354.130486 49.105185 
L 358.165099 37.007287 
L 359.58908 33.426033 
L 360.77573 30.967046 
L 361.725051 29.413339 
L 362.674371 28.2693 
L 363.386362 27.697483 
L 364.098352 27.38013 
L 364.810343 27.321644 
L 365.522333 27.522838 
L 366.234324 27.980919 
L 366.946314 28.689529 
L 367.895635 30.006568 
L 368.844955 31.718651 
L 370.031606 34.349133 
L 371.455587 38.088811 
L 373.591558 44.45051 
L 376.91418 54.43436 
L 378.338161 58.10871 
L 379.524812 60.667746 
L 380.474133 62.31348 
L 381.423453 63.557759 
L 382.135444 64.208666 
L 382.847434 64.607245 
L 383.559425 64.747965 
L 384.271415 64.628872 
L 384.983406 64.251618 
L 385.695396 63.621441 
L 386.644717 62.403378 
L 387.594037 60.781645 
L 388.780688 58.248598 
L 390.204669 54.598255 
L 392.10331 49.032609 
L 396.137923 36.942914 
L 397.561903 33.371751 
L 398.748554 30.923498 
L 399.697875 29.379606 
L 400.647195 28.246214 
L 401.359186 27.682771 
L 402.071176 27.373995 
L 402.783167 27.324172 
L 403.495157 27.533994 
L 404.207148 28.000548 
L 404.919138 28.717359 
L 405.868459 30.044712 
L 406.817779 31.766168 
L 408.00443 34.406696 
L 409.428411 38.155477 
L 411.564382 44.523811 
L 414.887004 54.500016 
L 416.310985 58.164806 
L 417.497636 60.713476 
L 418.446957 62.349628 
L 419.396277 63.583435 
L 420.108268 64.226058 
L 420.820258 64.616111 
L 421.532249 64.748182 
L 422.244239 64.620436 
L 422.956229 64.234648 
L 423.66822 63.596172 
L 424.617541 62.367608 
L 425.566861 60.736256 
L 426.753512 58.192783 
L 428.177493 54.532796 
L 430.076134 48.959986 
L 431.025455 46.03 
L 431.025455 46.03 
" clip-path="url(#p6705929e44)" style="fill: none; stroke: #0000ff; stroke-width: 1.5; stroke-linecap: square"/>
   </g>
   <g id="patch_3">
    <path d="M 32.56 66.62 
L 32.56 25.44 
" style="fill: none; stroke: #000000; stroke-width: 0.8; stroke-linejoin: miter; stroke-linecap: square"/>
   </g>
   <g id="patch_4">
    <path d="M 450 66.62 
L 450 25.44 
" style="fill: none; stroke: #000000; stroke-width: 0.8; stroke-linejoin: miter; stroke-linecap: square"/>
   </g>
   <g id="patch_5">
    <path d="M 32.56 66.62 
L 450 66.62 
" style="fill: none; stroke: #000000; stroke-width: 0.8; stroke-linejoin: miter; stroke-linecap: square"/>
   </g>
   <g id="patch_6">
    <path d="M 32.56 25.44 
L 450 25.44 
" style="fill: none; stroke: #000000; stroke-width: 0.8; stroke-linejoin: miter; stroke-linecap: square"/>
   </g>
   <g id="text_10">
    <!-- Sinusoidal 400Hz 1600samples -->
    <g transform="translate(147.444687 19.44) scale(0.12 -0.12)">
     <defs>
      <path id="DejaVuSans-53" d="M 3425 4513 
L 3425 3897 
Q 3066 4069 2747 4153 
Q 2428 4238 2131 4238 
Q 1616 4238 1336 4038 
Q 1056 3838 1056 3469 
Q 1056 3159 1242 3001 
Q 1428 2844 1947 2747 
L 2328 2669 
Q 3034 2534 3370 2195 
Q 3706 1856 3706 1288 
Q 3706 609 3251 259 
Q 2797 -91 1919 -91 
Q 1588 -91 1214 -16 
Q 841 59 441 206 
L 441 856 
Q 825 641 1194 531 
Q 1563 422 1919 422 
Q 2459 422 2753 634 
Q 3047 847 3047 1241 
Q 3047 1584 2836 1778 
Q 2625 1972 2144 2069 
L 1759 2144 
Q 1053 2284 737 2584 
Q 422 2884 422 3419 
Q 422 4038 858 4394 
Q 1294 4750 2059 4750 
Q 2388 4750 2728 4690 
Q 3069 4631 3425 4513 
z
" transform="scale(0.015625)"/>
      <path id="DejaVuSans-69" d="M 603 3500 
L 1178 3500 
L 1178 0 
L 603 0 
L 603 3500 
z
M 603 4863 
L 1178 4863 
L 1178 4134 
L 603 4134 
L 603 4863 
z
" transform="scale(0.015625)"/>
      <path id="DejaVuSans-6e" d="M 3513 2113 
L 3513 0 
L 2938 0 
L 2938 2094 
Q 2938 2591 2744 2837 
Q 2550 3084 2163 3084 
Q 1697 3084 1428 2787 
Q 1159 2491 1159 1978 
L 1159 0 
L 581 0 
L 581 3500 
L 1159 3500 
L 1159 2956 
Q 1366 3272 1645 3428 
Q 1925 3584 2291 3584 
Q 2894 3584 3203 3211 
Q 3513 2838 3513 2113 
z
" transform="scale(0.015625)"/>
      <path id="DejaVuSans-75" d="M 544 1381 
L 544 3500 
L 1119 3500 
L 1119 1403 
Q 1119 906 1312 657 
Q 1506 409 1894 409 
Q 2359 409 2629 706 
Q 2900 1003 2900 1516 
L 2900 3500 
L 3475 3500 
L 3475 0 
L 2900 0 
L 2900 538 
Q 2691 219 2414 64 
Q 2138 -91 1772 -91 
Q 1169 -91 856 284 
Q 544 659 544 1381 
z
M 1991 3584 
L 1991 3584 
z
" transform="scale(0.015625)"/>
      <path id="DejaVuSans-73" d="M 2834 3397 
L 2834 2853 
Q 2591 2978 2328 3040 
Q 2066 3103 1784 3103 
Q 1356 3103 1142 2972 
Q 928 2841 928 2578 
Q 928 2378 1081 2264 
Q 1234 2150 1697 2047 
L 1894 2003 
Q 2506 1872 2764 1633 
Q 3022 1394 3022 966 
Q 3022 478 2636 193 
Q 2250 -91 1575 -91 
Q 1294 -91 989 -36 
Q 684 19 347 128 
L 347 722 
Q 666 556 975 473 
Q 1284 391 1588 391 
Q 1994 391 2212 530 
Q 2431 669 2431 922 
Q 2431 1156 2273 1281 
Q 2116 1406 1581 1522 
L 1381 1569 
Q 847 1681 609 1914 
Q 372 2147 372 2553 
Q 372 3047 722 3315 
Q 1072 3584 1716 3584 
Q 2034 3584 2315 3537 
Q 2597 3491 2834 3397 
z
" transform="scale(0.015625)"/>
      <path id="DejaVuSans-6f" d="M 1959 3097 
Q 1497 3097 1228 2736 
Q 959 2375 959 1747 
Q 959 1119 1226 758 
Q 1494 397 1959 397 
Q 2419 397 2687 759 
Q 2956 1122 2956 1747 
Q 2956 2369 2687 2733 
Q 2419 3097 1959 3097 
z
M 1959 3584 
Q 2709 3584 3137 3096 
Q 3566 2609 3566 1747 
Q 3566 888 3137 398 
Q 2709 -91 1959 -91 
Q 1206 -91 779 398 
Q 353 888 353 1747 
Q 353 2609 779 3096 
Q 1206 3584 1959 3584 
z
" transform="scale(0.015625)"/>
      <path id="DejaVuSans-64" d="M 2906 2969 
L 2906 4863 
L 3481 4863 
L 3481 0 
L 2906 0 
L 2906 525 
Q 2725 213 2448 61 
Q 2172 -91 1784 -91 
Q 1150 -91 751 415 
Q 353 922 353 1747 
Q 353 2572 751 3078 
Q 1150 3584 1784 3584 
Q 2172 3584 2448 3432 
Q 2725 3281 2906 2969 
z
M 947 1747 
Q 947 1113 1208 752 
Q 1469 391 1925 391 
Q 2381 391 2643 752 
Q 2906 1113 2906 1747 
Q 2906 2381 2643 2742 
Q 2381 3103 1925 3103 
Q 1469 3103 1208 2742 
Q 947 2381 947 1747 
z
" transform="scale(0.015625)"/>
      <path id="DejaVuSans-61" d="M 2194 1759 
Q 1497 1759 1228 1600 
Q 959 1441 959 1056 
Q 959 750 1161 570 
Q 1363 391 1709 391 
Q 2188 391 2477 730 
Q 2766 1069 2766 1631 
L 2766 1759 
L 2194 1759 
z
M 3341 1997 
L 3341 0 
L 2766 0 
L 2766 531 
Q 2569 213 2275 61 
Q 1981 -91 1556 -91 
Q 1019 -91 701 211 
Q 384 513 384 1019 
Q 384 1609 779 1909 
Q 1175 2209 1959 2209 
L 2766 2209 
L 2766 2266 
Q 2766 2663 2505 2880 
Q 2244 3097 1772 3097 
Q 1472 3097 1187 3025 
Q 903 2953 641 2809 
L 641 3341 
Q 956 3463 1253 3523 
Q 1550 3584 1831 3584 
Q 2591 3584 2966 3190 
Q 3341 2797 3341 1997 
z
" transform="scale(0.015625)"/>
      <path id="DejaVuSans-6c" d="M 603 4863 
L 1178 4863 
L 1178 0 
L 603 0 
L 603 4863 
z
" transform="scale(0.015625)"/>
      <path id="DejaVuSans-20" transform="scale(0.015625)"/>
      <path id="DejaVuSans-34" d="M 2419 4116 
L 825 1625 
L 2419 1625 
L 2419 4116 
z
M 2253 4666 
L 3047 4666 
L 3047 1625 
L 3713 1625 
L 3713 1100 
L 3047 1100 
L 3047 0 
L 2419 0 
L 2419 1100 
L 313 1100 
L 313 1709 
L 2253 4666 
z
" transform="scale(0.015625)"/>
      <path id="DejaVuSans-48" d="M 628 4666 
L 1259 4666 
L 1259 2753 
L 3553 2753 
L 3553 4666 
L 4184 4666 
L 4184 0 
L 3553 0 
L 3553 2222 
L 1259 2222 
L 1259 0 
L 628 0 
L 628 4666 
z
" transform="scale(0.015625)"/>
      <path id="DejaVuSans-7a" d="M 353 3500 
L 3084 3500 
L 3084 2975 
L 922 459 
L 3084 459 
L 3084 0 
L 275 0 
L 275 525 
L 2438 3041 
L 353 3041 
L 353 3500 
z
" transform="scale(0.015625)"/>
      <path id="DejaVuSans-36" d="M 2113 2584 
Q 1688 2584 1439 2293 
Q 1191 2003 1191 1497 
Q 1191 994 1439 701 
Q 1688 409 2113 409 
Q 2538 409 2786 701 
Q 3034 994 3034 1497 
Q 3034 2003 2786 2293 
Q 2538 2584 2113 2584 
z
M 3366 4563 
L 3366 3988 
Q 3128 4100 2886 4159 
Q 2644 4219 2406 4219 
Q 1781 4219 1451 3797 
Q 1122 3375 1075 2522 
Q 1259 2794 1537 2939 
Q 1816 3084 2150 3084 
Q 2853 3084 3261 2657 
Q 3669 2231 3669 1497 
Q 3669 778 3244 343 
Q 2819 -91 2113 -91 
Q 1303 -91 875 529 
Q 447 1150 447 2328 
Q 447 3434 972 4092 
Q 1497 4750 2381 4750 
Q 2619 4750 2861 4703 
Q 3103 4656 3366 4563 
z
" transform="scale(0.015625)"/>
      <path id="DejaVuSans-6d" d="M 3328 2828 
Q 3544 3216 3844 3400 
Q 4144 3584 4550 3584 
Q 5097 3584 5394 3201 
Q 5691 2819 5691 2113 
L 5691 0 
L 5113 0 
L 5113 2094 
Q 5113 2597 4934 2840 
Q 4756 3084 4391 3084 
Q 3944 3084 3684 2787 
Q 3425 2491 3425 1978 
L 3425 0 
L 2847 0 
L 2847 2094 
Q 2847 2600 2669 2842 
Q 2491 3084 2119 3084 
Q 1678 3084 1418 2786 
Q 1159 2488 1159 1978 
L 1159 0 
L 581 0 
L 581 3500 
L 1159 3500 
L 1159 2956 
Q 1356 3278 1631 3431 
Q 1906 3584 2284 3584 
Q 2666 3584 2933 3390 
Q 3200 3197 3328 2828 
z
" transform="scale(0.015625)"/>
      <path id="DejaVuSans-70" d="M 1159 525 
L 1159 -1331 
L 581 -1331 
L 581 3500 
L 1159 3500 
L 1159 2969 
Q 1341 3281 1617 3432 
Q 1894 3584 2278 3584 
Q 2916 3584 3314 3078 
Q 3713 2572 3713 1747 
Q 3713 922 3314 415 
Q 2916 -91 2278 -91 
Q 1894 -91 1617 61 
Q 1341 213 1159 525 
z
M 3116 1747 
Q 3116 2381 2855 2742 
Q 2594 3103 2138 3103 
Q 1681 3103 1420 2742 
Q 1159 2381 1159 1747 
Q 1159 1113 1420 752 
Q 1681 391 2138 391 
Q 2594 391 2855 752 
Q 3116 1113 3116 1747 
z
" transform="scale(0.015625)"/>
      <path id="DejaVuSans-65" d="M 3597 1894 
L 3597 1613 
L 953 1613 
Q 991 1019 1311 708 
Q 1631 397 2203 397 
Q 2534 397 2845 478 
Q 3156 559 3463 722 
L 3463 178 
Q 3153 47 2828 -22 
Q 2503 -91 2169 -91 
Q 1331 -91 842 396 
Q 353 884 353 1716 
Q 353 2575 817 3079 
Q 1281 3584 2069 3584 
Q 2775 3584 3186 3129 
Q 3597 2675 3597 1894 
z
M 3022 2063 
Q 3016 2534 2758 2815 
Q 2500 3097 2075 3097 
Q 1594 3097 1305 2825 
Q 1016 2553 972 2059 
L 3022 2063 
z
" transform="scale(0.015625)"/>
     </defs>
     <use xlink:href="#DejaVuSans-53"/>
     <use xlink:href="#DejaVuSans-69" x="63.476562"/>
     <use xlink:href="#DejaVuSans-6e" x="91.259766"/>
     <use xlink:href="#DejaVuSans-75" x="154.638672"/>
     <use xlink:href="#DejaVuSans-73" x="218.017578"/>
     <use xlink:href="#DejaVuSans-6f" x="270.117188"/>
     <use xlink:href="#DejaVuSans-69" x="331.298828"/>
     <use xlink:href="#DejaVuSans-64" x="359.082031"/>
     <use xlink:href="#DejaVuSans-61" x="422.558594"/>
     <use xlink:href="#DejaVuSans-6c" x="483.837891"/>
     <use xlink:href="#DejaVuSans-20" x="511.621094"/>
     <use xlink:href="#DejaVuSans-34" x="543.408203"/>
     <use xlink:href="#DejaVuSans-30" x="607.03125"/>
     <use xlink:href="#DejaVuSans-30" x="670.654297"/>
     <use xlink:href="#DejaVuSans-48" x="734.277344"/>
     <use xlink:href="#DejaVuSans-7a" x="809.472656"/>
     <use xlink:href="#DejaVuSans-20" x="861.962891"/>
     <use xlink:href="#DejaVuSans-31" x="893.75"/>
     <use xlink:href="#DejaVuSans-36" x="957.373047"/>
     <use xlink:href="#DejaVuSans-30" x="1020.996094"/>
     <use xlink:href="#DejaVuSans-30" x="1084.619141"/>
     <use xlink:href="#DejaVuSans-73" x="1148.242188"/>
     <use xlink:href="#DejaVuSans-61" x="1200.341797"/>
     <use xlink:href="#DejaVuSans-6d" x="1261.621094"/>
     <use xlink:href="#DejaVuSans-70" x="1359.033203"/>
     <use xlink:href="#DejaVuSans-6c" x="1422.509766"/>
     <use xlink:href="#DejaVuSans-65" x="1450.292969"/>
     <use xlink:href="#DejaVuSans-73" x="1511.816406"/>
    </g>
   </g>
  </g>
  <g id="axes_2">
   <g id="patch_7">
    <path d="M 32.56 150.32 
L 450 150.32 
L 450 109.14 
L 32.56 109.14 
z
" style="fill: #ffffff"/>
   </g>
   <g id="matplotlib.axis_3">
    <g id="xtick_7">
     <g id="line2d_11">
      <g>
       <use xlink:href="#m693155f5d7" x="51.534545" y="150.32" style="stroke: #000000; stroke-width: 0.8"/>
      </g>
     </g>
     <g id="text_11">
      <!-- 0.0 -->
      <g transform="translate(43.582983 164.918437) scale(0.1 -0.1)">
       <use xlink:href="#DejaVuSans-30"/>
       <use xlink:href="#DejaVuSans-2e" x="63.623047"/>
       <use xlink:href="#DejaVuSans-30" x="95.410156"/>
      </g>
     </g>
    </g>
    <g id="xtick_8">
     <g id="line2d_12">
      <g>
       <use xlink:href="#m693155f5d7" x="114.78303" y="150.32" style="stroke: #000000; stroke-width: 0.8"/>
      </g>
     </g>
     <g id="text_12">
      <!-- 0.5 -->
      <g transform="translate(106.831468 164.918437) scale(0.1 -0.1)">
       <use xlink:href="#DejaVuSans-30"/>
       <use xlink:href="#DejaVuSans-2e" x="63.623047"/>
       <use xlink:href="#DejaVuSans-35" x="95.410156"/>
      </g>
     </g>
    </g>
    <g id="xtick_9">
     <g id="line2d_13">
      <g>
       <use xlink:href="#m693155f5d7" x="178.031515" y="150.32" style="stroke: #000000; stroke-width: 0.8"/>
      </g>
     </g>
     <g id="text_13">
      <!-- 1.0 -->
      <g transform="translate(170.079953 164.918437) scale(0.1 -0.1)">
       <use xlink:href="#DejaVuSans-31"/>
       <use xlink:href="#DejaVuSans-2e" x="63.623047"/>
       <use xlink:href="#DejaVuSans-30" x="95.410156"/>
      </g>
     </g>
    </g>
    <g id="xtick_10">
     <g id="line2d_14">
      <g>
       <use xlink:href="#m693155f5d7" x="241.28" y="150.32" style="stroke: #000000; stroke-width: 0.8"/>
      </g>
     </g>
     <g id="text_14">
      <!-- 1.5 -->
      <g transform="translate(233.328438 164.918437) scale(0.1 -0.1)">
       <use xlink:href="#DejaVuSans-31"/>
       <use xlink:href="#DejaVuSans-2e" x="63.623047"/>
       <use xlink:href="#DejaVuSans-35" x="95.410156"/>
      </g>
     </g>
    </g>
    <g id="xtick_11">
     <g id="line2d_15">
      <g>
       <use xlink:href="#m693155f5d7" x="304.528485" y="150.32" style="stroke: #000000; stroke-width: 0.8"/>
      </g>
     </g>
     <g id="text_15">
      <!-- 2.0 -->
      <g transform="translate(296.576922 164.918437) scale(0.1 -0.1)">
       <use xlink:href="#DejaVuSans-32"/>
       <use xlink:href="#DejaVuSans-2e" x="63.623047"/>
       <use xlink:href="#DejaVuSans-30" x="95.410156"/>
      </g>
     </g>
    </g>
    <g id="xtick_12">
     <g id="line2d_16">
      <g>
       <use xlink:href="#m693155f5d7" x="367.77697" y="150.32" style="stroke: #000000; stroke-width: 0.8"/>
      </g>
     </g>
     <g id="text_16">
      <!-- 2.5 -->
      <g transform="translate(359.825407 164.918437) scale(0.1 -0.1)">
       <use xlink:href="#DejaVuSans-32"/>
       <use xlink:href="#DejaVuSans-2e" x="63.623047"/>
       <use xlink:href="#DejaVuSans-35" x="95.410156"/>
      </g>
     </g>
    </g>
    <g id="xtick_13">
     <g id="line2d_17">
      <g>
       <use xlink:href="#m693155f5d7" x="431.025455" y="150.32" style="stroke: #000000; stroke-width: 0.8"/>
      </g>
     </g>
     <g id="text_17">
      <!-- 3.0 -->
      <g transform="translate(423.073892 164.918437) scale(0.1 -0.1)">
       <defs>
        <path id="DejaVuSans-33" d="M 2597 2516 
Q 3050 2419 3304 2112 
Q 3559 1806 3559 1356 
Q 3559 666 3084 287 
Q 2609 -91 1734 -91 
Q 1441 -91 1130 -33 
Q 819 25 488 141 
L 488 750 
Q 750 597 1062 519 
Q 1375 441 1716 441 
Q 2309 441 2620 675 
Q 2931 909 2931 1356 
Q 2931 1769 2642 2001 
Q 2353 2234 1838 2234 
L 1294 2234 
L 1294 2753 
L 1863 2753 
Q 2328 2753 2575 2939 
Q 2822 3125 2822 3475 
Q 2822 3834 2567 4026 
Q 2313 4219 1838 4219 
Q 1578 4219 1281 4162 
Q 984 4106 628 3988 
L 628 4550 
Q 988 4650 1302 4700 
Q 1616 4750 1894 4750 
Q 2613 4750 3031 4423 
Q 3450 4097 3450 3541 
Q 3450 3153 3228 2886 
Q 3006 2619 2597 2516 
z
" transform="scale(0.015625)"/>
       </defs>
       <use xlink:href="#DejaVuSans-33"/>
       <use xlink:href="#DejaVuSans-2e" x="63.623047"/>
       <use xlink:href="#DejaVuSans-30" x="95.410156"/>
      </g>
     </g>
    </g>
   </g>
   <g id="matplotlib.axis_4">
    <g id="ytick_4">
     <g id="line2d_18">
      <g>
       <use xlink:href="#m615df9623c" x="32.56" y="148.449487" style="stroke: #000000; stroke-width: 0.8"/>
      </g>
     </g>
     <g id="text_18">
      <!-- −1 -->
      <g transform="translate(10.817813 152.248706) scale(0.1 -0.1)">
       <use xlink:href="#DejaVuSans-2212"/>
       <use xlink:href="#DejaVuSans-31" x="83.789062"/>
      </g>
     </g>
    </g>
    <g id="ytick_5">
     <g id="line2d_19">
      <g>
       <use xlink:href="#m615df9623c" x="32.56" y="129.73" style="stroke: #000000; stroke-width: 0.8"/>
      </g>
     </g>
     <g id="text_19">
      <!-- 0 -->
      <g transform="translate(19.1975 133.529219) scale(0.1 -0.1)">
       <use xlink:href="#DejaVuSans-30"/>
      </g>
     </g>
    </g>
    <g id="ytick_6">
     <g id="line2d_20">
      <g>
       <use xlink:href="#m615df9623c" x="32.56" y="111.010513" style="stroke: #000000; stroke-width: 0.8"/>
      </g>
     </g>
     <g id="text_20">
      <!-- 1 -->
      <g transform="translate(19.1975 114.809731) scale(0.1 -0.1)">
       <use xlink:href="#DejaVuSans-31"/>
      </g>
     </g>
    </g>
   </g>
   <g id="line2d_21">
    <path d="M 51.534545 129.73 
L 55.338966 122.822455 
L 57.241176 119.677207 
L 59.143386 116.889866 
L 61.045596 114.559669 
L 62.947806 112.769577 
L 63.898911 112.097806 
L 64.850016 111.583324 
L 65.801121 111.230721 
L 66.752226 111.043142 
L 67.703331 111.022262 
L 68.654436 111.168265 
L 69.605541 111.479849 
L 70.556646 111.954236 
L 71.507751 112.587193 
L 72.458856 113.373074 
L 74.361066 115.374263 
L 76.263276 117.886556 
L 78.165486 120.820509 
L 81.018802 125.780351 
L 87.676537 137.852081 
L 89.578747 140.875636 
L 91.480957 143.502374 
L 93.383167 145.638779 
L 95.285377 147.208787 
L 96.236482 147.763077 
L 97.187587 148.156501 
L 98.138692 148.385551 
L 99.089797 148.448182 
L 100.040902 148.343836 
L 100.992007 148.073443 
L 101.943112 147.639417 
L 102.894217 147.045627 
L 103.845322 146.297373 
L 105.747532 144.365485 
L 107.649743 141.912533 
L 109.551953 139.025849 
L 112.405268 134.110726 
L 120.014108 120.434151 
L 121.916318 117.547467 
L 123.818528 115.094515 
L 125.720738 113.162627 
L 126.671843 112.414373 
L 127.622948 111.820583 
L 128.574053 111.386557 
L 129.525158 111.116164 
L 130.476263 111.011818 
L 131.427368 111.074449 
L 132.378473 111.303499 
L 133.329578 111.696923 
L 134.280684 112.251213 
L 135.231789 112.961425 
L 137.133999 114.822933 
L 139.036209 117.215175 
L 140.938419 120.052979 
L 143.791734 124.920642 
L 151.400574 138.639491 
L 153.302784 141.573444 
L 155.204994 144.085737 
L 157.107204 146.086926 
L 158.058309 146.872807 
L 159.009414 147.505764 
L 159.960519 147.980151 
L 160.911625 148.291735 
L 161.86273 148.437738 
L 162.813835 148.416858 
L 163.76494 148.229279 
L 164.716045 147.876676 
L 165.66715 147.362194 
L 166.618255 146.690423 
L 168.520465 144.900331 
L 170.422675 142.570134 
L 172.324885 139.782793 
L 174.227095 136.637545 
L 178.031515 129.73 
L 181.835935 122.822455 
L 183.738145 119.677207 
L 185.640355 116.889866 
L 187.542566 114.559669 
L 189.444776 112.769577 
L 190.395881 112.097806 
L 191.346986 111.583324 
L 192.298091 111.230721 
L 193.249196 111.043142 
L 194.200301 111.022262 
L 195.151406 111.168265 
L 196.102511 111.479849 
L 197.053616 111.954236 
L 198.004721 112.587193 
L 198.955826 113.373074 
L 200.858036 115.374263 
L 202.760246 117.886556 
L 204.662456 120.820509 
L 207.515771 125.780351 
L 214.173506 137.852081 
L 216.075717 140.875636 
L 217.977927 143.502374 
L 219.880137 145.638779 
L 221.782347 147.208787 
L 222.733452 147.763077 
L 223.684557 148.156501 
L 224.635662 148.385551 
L 225.586767 148.448182 
L 226.537872 148.343836 
L 227.488977 148.073443 
L 228.440082 147.639417 
L 229.391187 147.045627 
L 230.342292 146.297373 
L 232.244502 144.365485 
L 234.146712 141.912533 
L 236.048922 139.025849 
L 238.902237 134.110726 
L 246.511078 120.434151 
L 248.413288 117.547467 
L 250.315498 115.094515 
L 252.217708 113.162627 
L 253.168813 112.414373 
L 254.119918 111.820583 
L 255.071023 111.386557 
L 256.022128 111.116164 
L 256.973233 111.011818 
L 257.924338 111.074449 
L 258.875443 111.303499 
L 259.826548 111.696923 
L 260.777653 112.251213 
L 261.728758 112.961425 
L 263.630968 114.822933 
L 265.533178 117.215175 
L 267.435388 120.052979 
L 270.288704 124.920642 
L 277.897544 138.639491 
L 279.799754 141.573444 
L 281.701964 144.085737 
L 283.604174 146.086926 
L 284.555279 146.872807 
L 285.506384 147.505764 
L 286.457489 147.980151 
L 287.408594 148.291735 
L 288.359699 148.437738 
L 289.310804 148.416858 
L 290.261909 148.229279 
L 291.213014 147.876676 
L 292.164119 147.362194 
L 293.115224 146.690423 
L 295.017434 144.900331 
L 296.919645 142.570134 
L 298.821855 139.782793 
L 300.724065 136.637545 
L 304.528485 129.73 
L 308.332905 122.822455 
L 310.235115 119.677207 
L 312.137325 116.889866 
L 314.039535 114.559669 
L 315.941745 112.769577 
L 316.89285 112.097806 
L 317.843955 111.583324 
L 318.79506 111.230721 
L 319.746165 111.043142 
L 320.69727 111.022262 
L 321.648375 111.168265 
L 322.599481 111.479849 
L 323.550586 111.954236 
L 324.501691 112.587193 
L 325.452796 113.373074 
L 327.355006 115.374263 
L 329.257216 117.886556 
L 331.159426 120.820509 
L 334.012741 125.780351 
L 340.670476 137.852081 
L 342.572686 140.875636 
L 344.474896 143.502374 
L 346.377106 145.638779 
L 348.279316 147.208787 
L 349.230422 147.763077 
L 350.181527 148.156501 
L 351.132632 148.385551 
L 352.083737 148.448182 
L 353.034842 148.343836 
L 353.985947 148.073443 
L 354.937052 147.639417 
L 355.888157 147.045627 
L 356.839262 146.297373 
L 358.741472 144.365485 
L 360.643682 141.912533 
L 362.545892 139.025849 
L 365.399207 134.110726 
L 373.008047 120.434151 
L 374.910257 117.547467 
L 376.812468 115.094515 
L 378.714678 113.162627 
L 379.665783 112.414373 
L 380.616888 111.820583 
L 381.567993 111.386557 
L 382.519098 111.116164 
L 383.470203 111.011818 
L 384.421308 111.074449 
L 385.372413 111.303499 
L 386.323518 111.696923 
L 387.274623 112.251213 
L 388.225728 112.961425 
L 390.127938 114.822933 
L 392.030148 117.215175 
L 393.932358 120.052979 
L 396.785673 124.920642 
L 404.394514 138.639491 
L 406.296724 141.573444 
L 408.198934 144.085737 
L 410.101144 146.086926 
L 411.052249 146.872807 
L 412.003354 147.505764 
L 412.954459 147.980151 
L 413.905564 148.291735 
L 414.856669 148.437738 
L 415.807774 148.416858 
L 416.758879 148.229279 
L 417.709984 147.876676 
L 418.661089 147.362194 
L 419.612194 146.690423 
L 421.514404 144.900331 
L 423.416614 142.570134 
L 425.318824 139.782793 
L 427.221034 136.637545 
L 431.025455 129.73 
L 431.025455 129.73 
" clip-path="url(#pb7af4ff70c)" style="fill: none; stroke: #0000ff; stroke-width: 1.5; stroke-linecap: square"/>
   </g>
   <g id="patch_8">
    <path d="M 32.56 150.32 
L 32.56 109.14 
" style="fill: none; stroke: #000000; stroke-width: 0.8; stroke-linejoin: miter; stroke-linecap: square"/>
   </g>
   <g id="patch_9">
    <path d="M 450 150.32 
L 450 109.14 
" style="fill: none; stroke: #000000; stroke-width: 0.8; stroke-linejoin: miter; stroke-linecap: square"/>
   </g>
   <g id="patch_10">
    <path d="M 32.56 150.32 
L 450 150.32 
" style="fill: none; stroke: #000000; stroke-width: 0.8; stroke-linejoin: miter; stroke-linecap: square"/>
   </g>
   <g id="patch_11">
    <path d="M 32.56 109.14 
L 450 109.14 
" style="fill: none; stroke: #000000; stroke-width: 0.8; stroke-linejoin: miter; stroke-linecap: square"/>
   </g>
   <g id="text_21">
    <!-- Sinusoidal 800Hz 3sec -->
    <g transform="translate(173.720937 103.14) scale(0.12 -0.12)">
     <defs>
      <path id="DejaVuSans-38" d="M 2034 2216 
Q 1584 2216 1326 1975 
Q 1069 1734 1069 1313 
Q 1069 891 1326 650 
Q 1584 409 2034 409 
Q 2484 409 2743 651 
Q 3003 894 3003 1313 
Q 3003 1734 2745 1975 
Q 2488 2216 2034 2216 
z
M 1403 2484 
Q 997 2584 770 2862 
Q 544 3141 544 3541 
Q 544 4100 942 4425 
Q 1341 4750 2034 4750 
Q 2731 4750 3128 4425 
Q 3525 4100 3525 3541 
Q 3525 3141 3298 2862 
Q 3072 2584 2669 2484 
Q 3125 2378 3379 2068 
Q 3634 1759 3634 1313 
Q 3634 634 3220 271 
Q 2806 -91 2034 -91 
Q 1263 -91 848 271 
Q 434 634 434 1313 
Q 434 1759 690 2068 
Q 947 2378 1403 2484 
z
M 1172 3481 
Q 1172 3119 1398 2916 
Q 1625 2713 2034 2713 
Q 2441 2713 2670 2916 
Q 2900 3119 2900 3481 
Q 2900 3844 2670 4047 
Q 2441 4250 2034 4250 
Q 1625 4250 1398 4047 
Q 1172 3844 1172 3481 
z
" transform="scale(0.015625)"/>
      <path id="DejaVuSans-63" d="M 3122 3366 
L 3122 2828 
Q 2878 2963 2633 3030 
Q 2388 3097 2138 3097 
Q 1578 3097 1268 2742 
Q 959 2388 959 1747 
Q 959 1106 1268 751 
Q 1578 397 2138 397 
Q 2388 397 2633 464 
Q 2878 531 3122 666 
L 3122 134 
Q 2881 22 2623 -34 
Q 2366 -91 2075 -91 
Q 1284 -91 818 406 
Q 353 903 353 1747 
Q 353 2603 823 3093 
Q 1294 3584 2113 3584 
Q 2378 3584 2631 3529 
Q 2884 3475 3122 3366 
z
" transform="scale(0.015625)"/>
     </defs>
     <use xlink:href="#DejaVuSans-53"/>
     <use xlink:href="#DejaVuSans-69" x="63.476562"/>
     <use xlink:href="#DejaVuSans-6e" x="91.259766"/>
     <use xlink:href="#DejaVuSans-75" x="154.638672"/>
     <use xlink:href="#DejaVuSans-73" x="218.017578"/>
     <use xlink:href="#DejaVuSans-6f" x="270.117188"/>
     <use xlink:href="#DejaVuSans-69" x="331.298828"/>
     <use xlink:href="#DejaVuSans-64" x="359.082031"/>
     <use xlink:href="#DejaVuSans-61" x="422.558594"/>
     <use xlink:href="#DejaVuSans-6c" x="483.837891"/>
     <use xlink:href="#DejaVuSans-20" x="511.621094"/>
     <use xlink:href="#DejaVuSans-38" x="543.408203"/>
     <use xlink:href="#DejaVuSans-30" x="607.03125"/>
     <use xlink:href="#DejaVuSans-30" x="670.654297"/>
     <use xlink:href="#DejaVuSans-48" x="734.277344"/>
     <use xlink:href="#DejaVuSans-7a" x="809.472656"/>
     <use xlink:href="#DejaVuSans-20" x="861.962891"/>
     <use xlink:href="#DejaVuSans-33" x="893.75"/>
     <use xlink:href="#DejaVuSans-73" x="957.373047"/>
     <use xlink:href="#DejaVuSans-65" x="1009.472656"/>
     <use xlink:href="#DejaVuSans-63" x="1070.996094"/>
    </g>
   </g>
  </g>
  <g id="axes_3">
   <g id="patch_12">
    <path d="M 32.56 234.02 
L 450 234.02 
L 450 192.84 
L 32.56 192.84 
z
" style="fill: #ffffff"/>
   </g>
   <g id="matplotlib.axis_5">
    <g id="xtick_14">
     <g id="line2d_22">
      <g>
       <use xlink:href="#m693155f5d7" x="51.534545" y="234.02" style="stroke: #000000; stroke-width: 0.8"/>
      </g>
     </g>
     <g id="text_22">
      <!-- 0.000 -->
      <g transform="translate(37.220483 248.618437) scale(0.1 -0.1)">
       <use xlink:href="#DejaVuSans-30"/>
       <use xlink:href="#DejaVuSans-2e" x="63.623047"/>
       <use xlink:href="#DejaVuSans-30" x="95.410156"/>
       <use xlink:href="#DejaVuSans-30" x="159.033203"/>
       <use xlink:href="#DejaVuSans-30" x="222.65625"/>
      </g>
     </g>
    </g>
    <g id="xtick_15">
     <g id="line2d_23">
      <g>
       <use xlink:href="#m693155f5d7" x="127.432727" y="234.02" style="stroke: #000000; stroke-width: 0.8"/>
      </g>
     </g>
     <g id="text_23">
      <!-- 0.005 -->
      <g transform="translate(113.118665 248.618437) scale(0.1 -0.1)">
       <use xlink:href="#DejaVuSans-30"/>
       <use xlink:href="#DejaVuSans-2e" x="63.623047"/>
       <use xlink:href="#DejaVuSans-30" x="95.410156"/>
       <use xlink:href="#DejaVuSans-30" x="159.033203"/>
       <use xlink:href="#DejaVuSans-35" x="222.65625"/>
      </g>
     </g>
    </g>
    <g id="xtick_16">
     <g id="line2d_24">
      <g>
       <use xlink:href="#m693155f5d7" x="203.330909" y="234.02" style="stroke: #000000; stroke-width: 0.8"/>
      </g>
     </g>
     <g id="text_24">
      <!-- 0.010 -->
      <g transform="translate(189.016847 248.618437) scale(0.1 -0.1)">
       <use xlink:href="#DejaVuSans-30"/>
       <use xlink:href="#DejaVuSans-2e" x="63.623047"/>
       <use xlink:href="#DejaVuSans-30" x="95.410156"/>
       <use xlink:href="#DejaVuSans-31" x="159.033203"/>
       <use xlink:href="#DejaVuSans-30" x="222.65625"/>
      </g>
     </g>
    </g>
    <g id="xtick_17">
     <g id="line2d_25">
      <g>
       <use xlink:href="#m693155f5d7" x="279.229091" y="234.02" style="stroke: #000000; stroke-width: 0.8"/>
      </g>
     </g>
     <g id="text_25">
      <!-- 0.015 -->
      <g transform="translate(264.915028 248.618437) scale(0.1 -0.1)">
       <use xlink:href="#DejaVuSans-30"/>
       <use xlink:href="#DejaVuSans-2e" x="63.623047"/>
       <use xlink:href="#DejaVuSans-30" x="95.410156"/>
       <use xlink:href="#DejaVuSans-31" x="159.033203"/>
       <use xlink:href="#DejaVuSans-35" x="222.65625"/>
      </g>
     </g>
    </g>
    <g id="xtick_18">
     <g id="line2d_26">
      <g>
       <use xlink:href="#m693155f5d7" x="355.127273" y="234.02" style="stroke: #000000; stroke-width: 0.8"/>
      </g>
     </g>
     <g id="text_26">
      <!-- 0.020 -->
      <g transform="translate(340.81321 248.618437) scale(0.1 -0.1)">
       <use xlink:href="#DejaVuSans-30"/>
       <use xlink:href="#DejaVuSans-2e" x="63.623047"/>
       <use xlink:href="#DejaVuSans-30" x="95.410156"/>
       <use xlink:href="#DejaVuSans-32" x="159.033203"/>
       <use xlink:href="#DejaVuSans-30" x="222.65625"/>
      </g>
     </g>
    </g>
    <g id="xtick_19">
     <g id="line2d_27">
      <g>
       <use xlink:href="#m693155f5d7" x="431.025455" y="234.02" style="stroke: #000000; stroke-width: 0.8"/>
      </g>
     </g>
     <g id="text_27">
      <!-- 0.025 -->
      <g transform="translate(416.711392 248.618437) scale(0.1 -0.1)">
       <use xlink:href="#DejaVuSans-30"/>
       <use xlink:href="#DejaVuSans-2e" x="63.623047"/>
       <use xlink:href="#DejaVuSans-30" x="95.410156"/>
       <use xlink:href="#DejaVuSans-32" x="159.033203"/>
       <use xlink:href="#DejaVuSans-35" x="222.65625"/>
      </g>
     </g>
    </g>
   </g>
   <g id="matplotlib.axis_6">
    <g id="ytick_7">
     <g id="line2d_28">
      <g>
       <use xlink:href="#m615df9623c" x="32.56" y="232.148182" style="stroke: #000000; stroke-width: 0.8"/>
      </g>
     </g>
     <g id="text_28">
      <!-- 0 -->
      <g transform="translate(19.1975 235.947401) scale(0.1 -0.1)">
       <use xlink:href="#DejaVuSans-30"/>
      </g>
     </g>
    </g>
    <g id="ytick_8">
     <g id="line2d_29">
      <g>
       <use xlink:href="#m615df9623c" x="32.56" y="194.599058" style="stroke: #000000; stroke-width: 0.8"/>
      </g>
     </g>
     <g id="text_29">
      <!-- 1 -->
      <g transform="translate(19.1975 198.398277) scale(0.1 -0.1)">
       <use xlink:href="#DejaVuSans-31"/>
      </g>
     </g>
    </g>
   </g>
   <g id="line2d_30">
    <path d="M 51.534545 232.148182 
L 114.593095 194.711818 
L 114.972966 232.035422 
L 177.651644 194.824578 
L 178.031515 232.148182 
L 241.090065 194.711818 
L 241.469935 232.035422 
L 304.148614 194.824578 
L 304.528485 232.148182 
L 367.587034 194.711818 
L 367.966905 232.035422 
L 430.645584 194.824578 
L 431.025455 232.148182 
L 431.025455 232.148182 
" clip-path="url(#p665bcd3043)" style="fill: none; stroke: #0000ff; stroke-width: 1.5; stroke-linecap: square"/>
   </g>
   <g id="patch_13">
    <path d="M 32.56 234.02 
L 32.56 192.84 
" style="fill: none; stroke: #000000; stroke-width: 0.8; stroke-linejoin: miter; stroke-linecap: square"/>
   </g>
   <g id="patch_14">
    <path d="M 450 234.02 
L 450 192.84 
" style="fill: none; stroke: #000000; stroke-width: 0.8; stroke-linejoin: miter; stroke-linecap: square"/>
   </g>
   <g id="patch_15">
    <path d="M 32.56 234.02 
L 450 234.02 
" style="fill: none; stroke: #000000; stroke-width: 0.8; stroke-linejoin: miter; stroke-linecap: square"/>
   </g>
   <g id="patch_16">
    <path d="M 32.56 192.84 
L 450 192.84 
" style="fill: none; stroke: #000000; stroke-width: 0.8; stroke-linejoin: miter; stroke-linecap: square"/>
   </g>
   <g id="text_30">
    <!-- Sawtooth 240Hz -->
    <g transform="translate(192.017188 186.84) scale(0.12 -0.12)">
     <defs>
      <path id="DejaVuSans-77" d="M 269 3500 
L 844 3500 
L 1563 769 
L 2278 3500 
L 2956 3500 
L 3675 769 
L 4391 3500 
L 4966 3500 
L 4050 0 
L 3372 0 
L 2619 2869 
L 1863 0 
L 1184 0 
L 269 3500 
z
" transform="scale(0.015625)"/>
      <path id="DejaVuSans-74" d="M 1172 4494 
L 1172 3500 
L 2356 3500 
L 2356 3053 
L 1172 3053 
L 1172 1153 
Q 1172 725 1289 603 
Q 1406 481 1766 481 
L 2356 481 
L 2356 0 
L 1766 0 
Q 1100 0 847 248 
Q 594 497 594 1153 
L 594 3053 
L 172 3053 
L 172 3500 
L 594 3500 
L 594 4494 
L 1172 4494 
z
" transform="scale(0.015625)"/>
      <path id="DejaVuSans-68" d="M 3513 2113 
L 3513 0 
L 2938 0 
L 2938 2094 
Q 2938 2591 2744 2837 
Q 2550 3084 2163 3084 
Q 1697 3084 1428 2787 
Q 1159 2491 1159 1978 
L 1159 0 
L 581 0 
L 581 4863 
L 1159 4863 
L 1159 2956 
Q 1366 3272 1645 3428 
Q 1925 3584 2291 3584 
Q 2894 3584 3203 3211 
Q 3513 2838 3513 2113 
z
" transform="scale(0.015625)"/>
     </defs>
     <use xlink:href="#DejaVuSans-53"/>
     <use xlink:href="#DejaVuSans-61" x="63.476562"/>
     <use xlink:href="#DejaVuSans-77" x="124.755859"/>
     <use xlink:href="#DejaVuSans-74" x="206.542969"/>
     <use xlink:href="#DejaVuSans-6f" x="245.751953"/>
     <use xlink:href="#DejaVuSans-6f" x="306.933594"/>
     <use xlink:href="#DejaVuSans-74" x="368.115234"/>
     <use xlink:href="#DejaVuSans-68" x="407.324219"/>
     <use xlink:href="#DejaVuSans-20" x="470.703125"/>
     <use xlink:href="#DejaVuSans-32" x="502.490234"/>
     <use xlink:href="#DejaVuSans-34" x="566.113281"/>
     <use xlink:href="#DejaVuSans-30" x="629.736328"/>
     <use xlink:href="#DejaVuSans-48" x="693.359375"/>
     <use xlink:href="#DejaVuSans-7a" x="768.554688"/>
    </g>
   </g>
  </g>
  <g id="axes_4">
   <g id="patch_17">
    <path d="M 32.56 317.72 
L 450 317.72 
L 450 276.54 
L 32.56 276.54 
z
" style="fill: #ffffff"/>
   </g>
   <g id="matplotlib.axis_7">
    <g id="xtick_20">
     <g id="line2d_31">
      <g>
       <use xlink:href="#m693155f5d7" x="51.534545" y="317.72" style="stroke: #000000; stroke-width: 0.8"/>
      </g>
     </g>
     <g id="text_31">
      <!-- 0.000 -->
      <g transform="translate(37.220483 332.318437) scale(0.1 -0.1)">
       <use xlink:href="#DejaVuSans-30"/>
       <use xlink:href="#DejaVuSans-2e" x="63.623047"/>
       <use xlink:href="#DejaVuSans-30" x="95.410156"/>
       <use xlink:href="#DejaVuSans-30" x="159.033203"/>
       <use xlink:href="#DejaVuSans-30" x="222.65625"/>
      </g>
     </g>
    </g>
    <g id="xtick_21">
     <g id="line2d_32">
      <g>
       <use xlink:href="#m693155f5d7" x="127.432727" y="317.72" style="stroke: #000000; stroke-width: 0.8"/>
      </g>
     </g>
     <g id="text_32">
      <!-- 0.005 -->
      <g transform="translate(113.118665 332.318437) scale(0.1 -0.1)">
       <use xlink:href="#DejaVuSans-30"/>
       <use xlink:href="#DejaVuSans-2e" x="63.623047"/>
       <use xlink:href="#DejaVuSans-30" x="95.410156"/>
       <use xlink:href="#DejaVuSans-30" x="159.033203"/>
       <use xlink:href="#DejaVuSans-35" x="222.65625"/>
      </g>
     </g>
    </g>
    <g id="xtick_22">
     <g id="line2d_33">
      <g>
       <use xlink:href="#m693155f5d7" x="203.330909" y="317.72" style="stroke: #000000; stroke-width: 0.8"/>
      </g>
     </g>
     <g id="text_33">
      <!-- 0.010 -->
      <g transform="translate(189.016847 332.318437) scale(0.1 -0.1)">
       <use xlink:href="#DejaVuSans-30"/>
       <use xlink:href="#DejaVuSans-2e" x="63.623047"/>
       <use xlink:href="#DejaVuSans-30" x="95.410156"/>
       <use xlink:href="#DejaVuSans-31" x="159.033203"/>
       <use xlink:href="#DejaVuSans-30" x="222.65625"/>
      </g>
     </g>
    </g>
    <g id="xtick_23">
     <g id="line2d_34">
      <g>
       <use xlink:href="#m693155f5d7" x="279.229091" y="317.72" style="stroke: #000000; stroke-width: 0.8"/>
      </g>
     </g>
     <g id="text_34">
      <!-- 0.015 -->
      <g transform="translate(264.915028 332.318437) scale(0.1 -0.1)">
       <use xlink:href="#DejaVuSans-30"/>
       <use xlink:href="#DejaVuSans-2e" x="63.623047"/>
       <use xlink:href="#DejaVuSans-30" x="95.410156"/>
       <use xlink:href="#DejaVuSans-31" x="159.033203"/>
       <use xlink:href="#DejaVuSans-35" x="222.65625"/>
      </g>
     </g>
    </g>
    <g id="xtick_24">
     <g id="line2d_35">
      <g>
       <use xlink:href="#m693155f5d7" x="355.127273" y="317.72" style="stroke: #000000; stroke-width: 0.8"/>
      </g>
     </g>
     <g id="text_35">
      <!-- 0.020 -->
      <g transform="translate(340.81321 332.318437) scale(0.1 -0.1)">
       <use xlink:href="#DejaVuSans-30"/>
       <use xlink:href="#DejaVuSans-2e" x="63.623047"/>
       <use xlink:href="#DejaVuSans-30" x="95.410156"/>
       <use xlink:href="#DejaVuSans-32" x="159.033203"/>
       <use xlink:href="#DejaVuSans-30" x="222.65625"/>
      </g>
     </g>
    </g>
    <g id="xtick_25">
     <g id="line2d_36">
      <g>
       <use xlink:href="#m693155f5d7" x="431.025455" y="317.72" style="stroke: #000000; stroke-width: 0.8"/>
      </g>
     </g>
     <g id="text_36">
      <!-- 0.025 -->
      <g transform="translate(416.711392 332.318437) scale(0.1 -0.1)">
       <use xlink:href="#DejaVuSans-30"/>
       <use xlink:href="#DejaVuSans-2e" x="63.623047"/>
       <use xlink:href="#DejaVuSans-30" x="95.410156"/>
       <use xlink:href="#DejaVuSans-32" x="159.033203"/>
       <use xlink:href="#DejaVuSans-35" x="222.65625"/>
      </g>
     </g>
    </g>
   </g>
   <g id="matplotlib.axis_8">
    <g id="ytick_9">
     <g id="line2d_37">
      <g>
       <use xlink:href="#m615df9623c" x="32.56" y="315.848182" style="stroke: #000000; stroke-width: 0.8"/>
      </g>
     </g>
     <g id="text_37">
      <!-- −1 -->
      <g transform="translate(10.817813 319.647401) scale(0.1 -0.1)">
       <use xlink:href="#DejaVuSans-2212"/>
       <use xlink:href="#DejaVuSans-31" x="83.789062"/>
      </g>
     </g>
    </g>
    <g id="ytick_10">
     <g id="line2d_38">
      <g>
       <use xlink:href="#m615df9623c" x="32.56" y="297.13" style="stroke: #000000; stroke-width: 0.8"/>
      </g>
     </g>
     <g id="text_38">
      <!-- 0 -->
      <g transform="translate(19.1975 300.929219) scale(0.1 -0.1)">
       <use xlink:href="#DejaVuSans-30"/>
      </g>
     </g>
    </g>
    <g id="ytick_11">
     <g id="line2d_39">
      <g>
       <use xlink:href="#m615df9623c" x="32.56" y="278.411818" style="stroke: #000000; stroke-width: 0.8"/>
      </g>
     </g>
     <g id="text_39">
      <!-- 1 -->
      <g transform="translate(19.1975 282.211037) scale(0.1 -0.1)">
       <use xlink:href="#DejaVuSans-31"/>
      </g>
     </g>
    </g>
   </g>
   <g id="line2d_40">
    <path d="M 51.534545 278.411818 
L 76.606017 278.411818 
L 76.985888 315.848182 
L 102.057359 315.848182 
L 102.43723 278.411818 
L 127.128831 278.411818 
L 127.508701 315.848182 
L 152.580173 315.848182 
L 152.960044 278.411818 
L 177.651644 278.411818 
L 178.031515 315.848182 
L 203.102987 315.848182 
L 203.482857 278.411818 
L 228.554329 278.411818 
L 228.9342 315.848182 
L 253.6258 315.848182 
L 254.005671 278.411818 
L 279.077143 278.411818 
L 279.457013 315.848182 
L 304.148614 315.848182 
L 304.528485 278.411818 
L 329.599956 278.411818 
L 329.979827 315.848182 
L 355.051299 315.848182 
L 355.431169 278.411818 
L 380.12277 278.411818 
L 380.502641 315.848182 
L 405.574112 315.848182 
L 405.953983 278.411818 
L 430.645584 278.411818 
L 431.025455 315.848182 
L 431.025455 315.848182 
" clip-path="url(#pfb1f217069)" style="fill: none; stroke: #0000ff; stroke-width: 1.5; stroke-linecap: square"/>
   </g>
   <g id="patch_18">
    <path d="M 32.56 317.72 
L 32.56 276.54 
" style="fill: none; stroke: #000000; stroke-width: 0.8; stroke-linejoin: miter; stroke-linecap: square"/>
   </g>
   <g id="patch_19">
    <path d="M 450 317.72 
L 450 276.54 
" style="fill: none; stroke: #000000; stroke-width: 0.8; stroke-linejoin: miter; stroke-linecap: square"/>
   </g>
   <g id="patch_20">
    <path d="M 32.56 317.72 
L 450 317.72 
" style="fill: none; stroke: #000000; stroke-width: 0.8; stroke-linejoin: miter; stroke-linecap: square"/>
   </g>
   <g id="patch_21">
    <path d="M 32.56 276.54 
L 450 276.54 
" style="fill: none; stroke: #000000; stroke-width: 0.8; stroke-linejoin: miter; stroke-linecap: square"/>
   </g>
   <g id="text_40">
    <!-- Square 300Hz -->
    <g transform="translate(199.138438 270.54) scale(0.12 -0.12)">
     <defs>
      <path id="DejaVuSans-71" d="M 947 1747 
Q 947 1113 1208 752 
Q 1469 391 1925 391 
Q 2381 391 2643 752 
Q 2906 1113 2906 1747 
Q 2906 2381 2643 2742 
Q 2381 3103 1925 3103 
Q 1469 3103 1208 2742 
Q 947 2381 947 1747 
z
M 2906 525 
Q 2725 213 2448 61 
Q 2172 -91 1784 -91 
Q 1150 -91 751 415 
Q 353 922 353 1747 
Q 353 2572 751 3078 
Q 1150 3584 1784 3584 
Q 2172 3584 2448 3432 
Q 2725 3281 2906 2969 
L 2906 3500 
L 3481 3500 
L 3481 -1331 
L 2906 -1331 
L 2906 525 
z
" transform="scale(0.015625)"/>
      <path id="DejaVuSans-72" d="M 2631 2963 
Q 2534 3019 2420 3045 
Q 2306 3072 2169 3072 
Q 1681 3072 1420 2755 
Q 1159 2438 1159 1844 
L 1159 0 
L 581 0 
L 581 3500 
L 1159 3500 
L 1159 2956 
Q 1341 3275 1631 3429 
Q 1922 3584 2338 3584 
Q 2397 3584 2469 3576 
Q 2541 3569 2628 3553 
L 2631 2963 
z
" transform="scale(0.015625)"/>
     </defs>
     <use xlink:href="#DejaVuSans-53"/>
     <use xlink:href="#DejaVuSans-71" x="63.476562"/>
     <use xlink:href="#DejaVuSans-75" x="126.953125"/>
     <use xlink:href="#DejaVuSans-61" x="190.332031"/>
     <use xlink:href="#DejaVuSans-72" x="251.611328"/>
     <use xlink:href="#DejaVuSans-65" x="290.474609"/>
     <use xlink:href="#DejaVuSans-20" x="351.998047"/>
     <use xlink:href="#DejaVuSans-33" x="383.785156"/>
     <use xlink:href="#DejaVuSans-30" x="447.408203"/>
     <use xlink:href="#DejaVuSans-30" x="511.03125"/>
     <use xlink:href="#DejaVuSans-48" x="574.654297"/>
     <use xlink:href="#DejaVuSans-7a" x="649.849609"/>
    </g>
   </g>
  </g>
 </g>
 <defs>
  <clipPath id="p6705929e44">
   <rect x="32.56" y="25.44" width="417.44" height="41.18"/>
  </clipPath>
  <clipPath id="pb7af4ff70c">
   <rect x="32.56" y="109.14" width="417.44" height="41.18"/>
  </clipPath>
  <clipPath id="p665bcd3043">
   <rect x="32.56" y="192.84" width="417.44" height="41.18"/>
  </clipPath>
  <clipPath id="pfb1f217069">
   <rect x="32.56" y="276.54" width="417.44" height="41.18"/>
  </clipPath>
 </defs>
</svg>
