<?xml version="1.0" encoding="utf-8" standalone="no"?>
<!DOCTYPE svg PUBLIC "-//W3C//DTD SVG 1.1//EN"
  "http://www.w3.org/Graphics/SVG/1.1/DTD/svg11.dtd">
<svg xmlns:xlink="http://www.w3.org/1999/xlink" width="864pt" height="648pt" viewBox="0 0 864 648" xmlns="http://www.w3.org/2000/svg" version="1.1">
 <metadata>
  <rdf:RDF xmlns:dc="http://purl.org/dc/elements/1.1/" xmlns:cc="http://creativecommons.org/ns#" xmlns:rdf="http://www.w3.org/1999/02/22-rdf-syntax-ns#">
   <cc:Work>
    <dc:type rdf:resource="http://purl.org/dc/dcmitype/StillImage"/>
    <dc:date>2025-11-06T09:41:09.731172</dc:date>
    <dc:format>image/svg+xml</dc:format>
    <dc:creator>
     <cc:Agent>
      <dc:title>Matplotlib v3.6.3, https://matplotlib.org/</dc:title>
     </cc:Agent>
    </dc:creator>
   </cc:Work>
  </rdf:RDF>
 </metadata>
 <defs>
  <style type="text/css">*{stroke-linejoin: round; stroke-linecap: butt}</style>
 </defs>
 <g id="figure_1">
  <g id="patch_1">
   <path d="M 0 648 
L 864 648 
L 864 0 
L 0 0 
z
" style="fill: #ffffff"/>
  </g>
  <g id="axes_1">
   <g id="patch_2">
    <path d="M 42.1 192.68 
L 845.235 192.68 
L 845.235 10.8 
L 42.1 10.8 
z
" style="fill: #ffffff"/>
   </g>
   <g id="matplotlib.axis_1">
    <g id="xtick_1">
     <g id="line2d_1">
      <defs>
       <path id="m1e61dfde93" d="M 0 0 
L 0 3.5 
" style="stroke: #000000; stroke-width: 0.8"/>
      </defs>
      <g>
       <use xlink:href="#m1e61dfde93" x="78.606136" y="192.68" style="stroke: #000000; stroke-width: 0.8"/>
      </g>
     </g>
     <g id="text_1">
      <!-- 0.0000 -->
      <g transform="translate(61.110824 207.278437) scale(0.1 -0.1)">
       <defs>
        <path id="DejaVuSans-30" d="M 2034 4250 
Q 1547 4250 1301 3770 
Q 1056 3291 1056 2328 
Q 1056 1369 1301 889 
Q 1547 409 2034 409 
Q 2525 409 2770 889 
Q 3016 1369 3016 2328 
Q 3016 3291 2770 3770 
Q 2525 4250 2034 4250 
z
M 2034 4750 
Q 2819 4750 3233 4129 
Q 3647 3509 3647 2328 
Q 3647 1150 3233 529 
Q 2819 -91 2034 -91 
Q 1250 -91 836 529 
Q 422 1150 422 2328 
Q 422 3509 836 4129 
Q 1250 4750 2034 4750 
z
" transform="scale(0.015625)"/>
        <path id="DejaVuSans-2e" d="M 684 794 
L 1344 794 
L 1344 0 
L 684 0 
L 684 794 
z
" transform="scale(0.015625)"/>
       </defs>
       <use xlink:href="#DejaVuSans-30"/>
       <use xlink:href="#DejaVuSans-2e" x="63.623047"/>
       <use xlink:href="#DejaVuSans-30" x="95.410156"/>
       <use xlink:href="#DejaVuSans-30" x="159.033203"/>
       <use xlink:href="#DejaVuSans-30" x="222.65625"/>
       <use xlink:href="#DejaVuSans-30" x="286.279297"/>
      </g>
     </g>
    </g>
    <g id="xtick_2">
     <g id="line2d_2">
      <g>
       <use xlink:href="#m1e61dfde93" x="224.776853" y="192.68" style="stroke: #000000; stroke-width: 0.8"/>
      </g>
     </g>
     <g id="text_2">
      <!-- 0.0005 -->
      <g transform="translate(207.28154 207.278437) scale(0.1 -0.1)">
       <defs>
        <path id="DejaVuSans-35" d="M 691 4666 
L 3169 4666 
L 3169 4134 
L 1269 4134 
L 1269 2991 
Q 1406 3038 1543 3061 
Q 1681 3084 1819 3084 
Q 2600 3084 3056 2656 
Q 3513 2228 3513 1497 
Q 3513 744 3044 326 
Q 2575 -91 1722 -91 
Q 1428 -91 1123 -41 
Q 819 9 494 109 
L 494 744 
Q 775 591 1075 516 
Q 1375 441 1709 441 
Q 2250 441 2565 725 
Q 2881 1009 2881 1497 
Q 2881 1984 2565 2268 
Q 2250 2553 1709 2553 
Q 1456 2553 1204 2497 
Q 953 2441 691 2322 
L 691 4666 
z
" transform="scale(0.015625)"/>
       </defs>
       <use xlink:href="#DejaVuSans-30"/>
       <use xlink:href="#DejaVuSans-2e" x="63.623047"/>
       <use xlink:href="#DejaVuSans-30" x="95.410156"/>
       <use xlink:href="#DejaVuSans-30" x="159.033203"/>
       <use xlink:href="#DejaVuSans-30" x="222.65625"/>
       <use xlink:href="#DejaVuSans-35" x="286.279297"/>
      </g>
     </g>
    </g>
    <g id="xtick_3">
     <g id="line2d_3">
      <g>
       <use xlink:href="#m1e61dfde93" x="370.947569" y="192.68" style="stroke: #000000; stroke-width: 0.8"/>
      </g>
     </g>
     <g id="text_3">
      <!-- 0.0010 -->
      <g transform="translate(353.452256 207.278437) scale(0.1 -0.1)">
       <defs>
        <path id="DejaVuSans-31" d="M 794 531 
L 1825 531 
L 1825 4091 
L 703 3866 
L 703 4441 
L 1819 4666 
L 2450 4666 
L 2450 531 
L 3481 531 
L 3481 0 
L 794 0 
L 794 531 
z
" transform="scale(0.015625)"/>
       </defs>
       <use xlink:href="#DejaVuSans-30"/>
       <use xlink:href="#DejaVuSans-2e" x="63.623047"/>
       <use xlink:href="#DejaVuSans-30" x="95.410156"/>
       <use xlink:href="#DejaVuSans-30" x="159.033203"/>
       <use xlink:href="#DejaVuSans-31" x="222.65625"/>
       <use xlink:href="#DejaVuSans-30" x="286.279297"/>
      </g>
     </g>
    </g>
    <g id="xtick_4">
     <g id="line2d_4">
      <g>
       <use xlink:href="#m1e61dfde93" x="517.118285" y="192.68" style="stroke: #000000; stroke-width: 0.8"/>
      </g>
     </g>
     <g id="text_4">
      <!-- 0.0015 -->
      <g transform="translate(499.622972 207.278437) scale(0.1 -0.1)">
       <use xlink:href="#DejaVuSans-30"/>
       <use xlink:href="#DejaVuSans-2e" x="63.623047"/>
       <use xlink:href="#DejaVuSans-30" x="95.410156"/>
       <use xlink:href="#DejaVuSans-30" x="159.033203"/>
       <use xlink:href="#DejaVuSans-31" x="222.65625"/>
       <use xlink:href="#DejaVuSans-35" x="286.279297"/>
      </g>
     </g>
    </g>
    <g id="xtick_5">
     <g id="line2d_5">
      <g>
       <use xlink:href="#m1e61dfde93" x="663.289001" y="192.68" style="stroke: #000000; stroke-width: 0.8"/>
      </g>
     </g>
     <g id="text_5">
      <!-- 0.0020 -->
      <g transform="translate(645.793689 207.278437) scale(0.1 -0.1)">
       <defs>
        <path id="DejaVuSans-32" d="M 1228 531 
L 3431 531 
L 3431 0 
L 469 0 
L 469 531 
Q 828 903 1448 1529 
Q 2069 2156 2228 2338 
Q 2531 2678 2651 2914 
Q 2772 3150 2772 3378 
Q 2772 3750 2511 3984 
Q 2250 4219 1831 4219 
Q 1534 4219 1204 4116 
Q 875 4013 500 3803 
L 500 4441 
Q 881 4594 1212 4672 
Q 1544 4750 1819 4750 
Q 2544 4750 2975 4387 
Q 3406 4025 3406 3419 
Q 3406 3131 3298 2873 
Q 3191 2616 2906 2266 
Q 2828 2175 2409 1742 
Q 1991 1309 1228 531 
z
" transform="scale(0.015625)"/>
       </defs>
       <use xlink:href="#DejaVuSans-30"/>
       <use xlink:href="#DejaVuSans-2e" x="63.623047"/>
       <use xlink:href="#DejaVuSans-30" x="95.410156"/>
       <use xlink:href="#DejaVuSans-30" x="159.033203"/>
       <use xlink:href="#DejaVuSans-32" x="222.65625"/>
       <use xlink:href="#DejaVuSans-30" x="286.279297"/>
      </g>
     </g>
    </g>
    <g id="xtick_6">
     <g id="line2d_6">
      <g>
       <use xlink:href="#m1e61dfde93" x="809.459717" y="192.68" style="stroke: #000000; stroke-width: 0.8"/>
      </g>
     </g>
     <g id="text_6">
      <!-- 0.0025 -->
      <g transform="translate(791.964405 207.278437) scale(0.1 -0.1)">
       <use xlink:href="#DejaVuSans-30"/>
       <use xlink:href="#DejaVuSans-2e" x="63.623047"/>
       <use xlink:href="#DejaVuSans-30" x="95.410156"/>
       <use xlink:href="#DejaVuSans-30" x="159.033203"/>
       <use xlink:href="#DejaVuSans-32" x="222.65625"/>
       <use xlink:href="#DejaVuSans-35" x="286.279297"/>
      </g>
     </g>
    </g>
   </g>
   <g id="matplotlib.axis_2">
    <g id="ytick_1">
     <g id="line2d_7">
      <defs>
       <path id="m77f8301972" d="M 0 0 
L -3.5 0 
" style="stroke: #000000; stroke-width: 0.8"/>
      </defs>
      <g>
       <use xlink:href="#m77f8301972" x="42.1" y="184.412727" style="stroke: #000000; stroke-width: 0.8"/>
      </g>
     </g>
     <g id="text_7">
      <!-- −1.00 -->
      <g transform="translate(4.454688 188.211946) scale(0.1 -0.1)">
       <defs>
        <path id="DejaVuSans-2212" d="M 678 2272 
L 4684 2272 
L 4684 1741 
L 678 1741 
L 678 2272 
z
" transform="scale(0.015625)"/>
       </defs>
       <use xlink:href="#DejaVuSans-2212"/>
       <use xlink:href="#DejaVuSans-31" x="83.789062"/>
       <use xlink:href="#DejaVuSans-2e" x="147.412109"/>
       <use xlink:href="#DejaVuSans-30" x="179.199219"/>
       <use xlink:href="#DejaVuSans-30" x="242.822266"/>
      </g>
     </g>
    </g>
    <g id="ytick_2">
     <g id="line2d_8">
      <g>
       <use xlink:href="#m77f8301972" x="42.1" y="163.744545" style="stroke: #000000; stroke-width: 0.8"/>
      </g>
     </g>
     <g id="text_8">
      <!-- −0.75 -->
      <g transform="translate(4.454688 167.543764) scale(0.1 -0.1)">
       <defs>
        <path id="DejaVuSans-37" d="M 525 4666 
L 3525 4666 
L 3525 4397 
L 1831 0 
L 1172 0 
L 2766 4134 
L 525 4134 
L 525 4666 
z
" transform="scale(0.015625)"/>
       </defs>
       <use xlink:href="#DejaVuSans-2212"/>
       <use xlink:href="#DejaVuSans-30" x="83.789062"/>
       <use xlink:href="#DejaVuSans-2e" x="147.412109"/>
       <use xlink:href="#DejaVuSans-37" x="179.199219"/>
       <use xlink:href="#DejaVuSans-35" x="242.822266"/>
      </g>
     </g>
    </g>
    <g id="ytick_3">
     <g id="line2d_9">
      <g>
       <use xlink:href="#m77f8301972" x="42.1" y="143.076364" style="stroke: #000000; stroke-width: 0.8"/>
      </g>
     </g>
     <g id="text_9">
      <!-- −0.50 -->
      <g transform="translate(4.454688 146.875582) scale(0.1 -0.1)">
       <use xlink:href="#DejaVuSans-2212"/>
       <use xlink:href="#DejaVuSans-30" x="83.789062"/>
       <use xlink:href="#DejaVuSans-2e" x="147.412109"/>
       <use xlink:href="#DejaVuSans-35" x="179.199219"/>
       <use xlink:href="#DejaVuSans-30" x="242.822266"/>
      </g>
     </g>
    </g>
    <g id="ytick_4">
     <g id="line2d_10">
      <g>
       <use xlink:href="#m77f8301972" x="42.1" y="122.408182" style="stroke: #000000; stroke-width: 0.8"/>
      </g>
     </g>
     <g id="text_10">
      <!-- −0.25 -->
      <g transform="translate(4.454688 126.207401) scale(0.1 -0.1)">
       <use xlink:href="#DejaVuSans-2212"/>
       <use xlink:href="#DejaVuSans-30" x="83.789062"/>
       <use xlink:href="#DejaVuSans-2e" x="147.412109"/>
       <use xlink:href="#DejaVuSans-32" x="179.199219"/>
       <use xlink:href="#DejaVuSans-35" x="242.822266"/>
      </g>
     </g>
    </g>
    <g id="ytick_5">
     <g id="line2d_11">
      <g>
       <use xlink:href="#m77f8301972" x="42.1" y="101.74" style="stroke: #000000; stroke-width: 0.8"/>
      </g>
     </g>
     <g id="text_11">
      <!-- 0.00 -->
      <g transform="translate(12.834375 105.539219) scale(0.1 -0.1)">
       <use xlink:href="#DejaVuSans-30"/>
       <use xlink:href="#DejaVuSans-2e" x="63.623047"/>
       <use xlink:href="#DejaVuSans-30" x="95.410156"/>
       <use xlink:href="#DejaVuSans-30" x="159.033203"/>
      </g>
     </g>
    </g>
    <g id="ytick_6">
     <g id="line2d_12">
      <g>
       <use xlink:href="#m77f8301972" x="42.1" y="81.071818" style="stroke: #000000; stroke-width: 0.8"/>
      </g>
     </g>
     <g id="text_12">
      <!-- 0.25 -->
      <g transform="translate(12.834375 84.871037) scale(0.1 -0.1)">
       <use xlink:href="#DejaVuSans-30"/>
       <use xlink:href="#DejaVuSans-2e" x="63.623047"/>
       <use xlink:href="#DejaVuSans-32" x="95.410156"/>
       <use xlink:href="#DejaVuSans-35" x="159.033203"/>
      </g>
     </g>
    </g>
    <g id="ytick_7">
     <g id="line2d_13">
      <g>
       <use xlink:href="#m77f8301972" x="42.1" y="60.403636" style="stroke: #000000; stroke-width: 0.8"/>
      </g>
     </g>
     <g id="text_13">
      <!-- 0.50 -->
      <g transform="translate(12.834375 64.202855) scale(0.1 -0.1)">
       <use xlink:href="#DejaVuSans-30"/>
       <use xlink:href="#DejaVuSans-2e" x="63.623047"/>
       <use xlink:href="#DejaVuSans-35" x="95.410156"/>
       <use xlink:href="#DejaVuSans-30" x="159.033203"/>
      </g>
     </g>
    </g>
    <g id="ytick_8">
     <g id="line2d_14">
      <g>
       <use xlink:href="#m77f8301972" x="42.1" y="39.735455" style="stroke: #000000; stroke-width: 0.8"/>
      </g>
     </g>
     <g id="text_14">
      <!-- 0.75 -->
      <g transform="translate(12.834375 43.534673) scale(0.1 -0.1)">
       <use xlink:href="#DejaVuSans-30"/>
       <use xlink:href="#DejaVuSans-2e" x="63.623047"/>
       <use xlink:href="#DejaVuSans-37" x="95.410156"/>
       <use xlink:href="#DejaVuSans-35" x="159.033203"/>
      </g>
     </g>
    </g>
    <g id="ytick_9">
     <g id="line2d_15">
      <g>
       <use xlink:href="#m77f8301972" x="42.1" y="19.067273" style="stroke: #000000; stroke-width: 0.8"/>
      </g>
     </g>
     <g id="text_15">
      <!-- 1.00 -->
      <g transform="translate(12.834375 22.866491) scale(0.1 -0.1)">
       <use xlink:href="#DejaVuSans-31"/>
       <use xlink:href="#DejaVuSans-2e" x="63.623047"/>
       <use xlink:href="#DejaVuSans-30" x="95.410156"/>
       <use xlink:href="#DejaVuSans-30" x="159.033203"/>
      </g>
     </g>
    </g>
   </g>
   <g id="line2d_16">
    <path d="M 78.606136 101.74 
L 88.838086 80.175521 
L 93.954062 69.86272 
L 98.339183 61.457703 
L 102.724305 53.567389 
L 106.378572 47.458265 
L 110.03284 41.830949 
L 112.956255 37.70972 
L 115.879669 33.952323 
L 118.803083 30.580109 
L 121.726498 27.61224 
L 123.919058 25.661923 
L 126.111619 23.954821 
L 128.30418 22.49639 
L 130.496741 21.291292 
L 132.689301 20.343381 
L 134.881862 19.655687 
L 137.074423 19.230408 
L 139.266984 19.068905 
L 141.459544 19.171692 
L 143.652105 19.538442 
L 145.844666 20.167982 
L 148.037227 21.0583 
L 150.229787 22.206549 
L 152.422348 23.609058 
L 154.614909 25.261344 
L 156.80747 27.158125 
L 159.00003 29.293337 
L 161.923445 32.499273 
L 164.846859 36.098648 
L 167.770273 40.071011 
L 170.693688 44.393789 
L 174.347955 50.252436 
L 178.002223 56.568089 
L 182.387345 64.670937 
L 186.772466 73.24743 
L 192.619295 85.229431 
L 201.389538 103.817574 
L 210.890634 123.805515 
L 216.00661 134.095928 
L 220.391731 142.475113 
L 224.045999 149.064525 
L 227.700267 155.233881 
L 231.354535 160.928422 
L 234.277949 165.108067 
L 237.201363 168.927643 
L 240.124778 172.365445 
L 243.048192 175.401939 
L 245.240753 177.405484 
L 247.433314 179.167133 
L 249.625874 180.681256 
L 251.818435 181.943012 
L 254.010996 182.948366 
L 256.203557 183.694105 
L 258.396117 184.177846 
L 260.588678 184.398041 
L 262.781239 184.353986 
L 264.973799 184.045823 
L 267.16636 183.474536 
L 269.358921 182.641952 
L 271.551482 181.550733 
L 273.744042 180.204367 
L 275.936603 178.607158 
L 278.129164 176.764212 
L 280.321725 174.681422 
L 283.245139 171.542892 
L 286.168553 168.007729 
L 289.091968 164.096019 
L 292.015382 159.829989 
L 295.66965 154.0363 
L 299.323918 147.778426 
L 302.978186 141.111911 
L 307.363307 132.656227 
L 312.479282 122.299871 
L 319.787818 106.931063 
L 332.943183 79.174319 
L 338.059158 68.906701 
L 342.444279 60.553679 
L 346.098547 53.990489 
L 349.752815 47.851128 
L 353.407083 42.190088 
L 356.330497 38.039569 
L 359.253911 34.251008 
L 362.177326 30.845933 
L 365.10074 27.843692 
L 367.293301 25.866722 
L 369.485862 24.132312 
L 371.678422 22.646005 
L 373.870983 21.412555 
L 376.063544 20.435903 
L 378.256105 19.719172 
L 380.448665 19.264653 
L 382.641226 19.0738 
L 384.833787 19.147223 
L 387.026347 19.484686 
L 389.218908 20.085111 
L 391.411469 20.946579 
L 393.60403 22.066335 
L 395.79659 23.4408 
L 397.989151 25.06558 
L 400.181712 26.93548 
L 402.374273 29.044523 
L 405.297687 32.216818 
L 408.221101 35.784158 
L 411.144516 39.726272 
L 414.06793 44.020761 
L 417.722198 49.847043 
L 421.376466 56.133931 
L 425.761587 64.207367 
L 430.146709 72.760372 
L 435.993537 84.720777 
L 444.76378 103.298252 
L 454.264877 123.304479 
L 459.380852 133.61728 
L 463.765973 142.022297 
L 468.151095 149.912611 
L 471.805363 156.021735 
L 475.459631 161.649051 
L 478.383045 165.77028 
L 481.306459 169.527677 
L 484.229874 172.899891 
L 487.153288 175.86776 
L 489.345849 177.818077 
L 491.53841 179.525179 
L 493.73097 180.98361 
L 495.923531 182.188708 
L 498.116092 183.136619 
L 500.308653 183.824313 
L 502.501213 184.249592 
L 504.693774 184.411095 
L 506.886335 184.308308 
L 509.078895 183.941558 
L 511.271456 183.312018 
L 513.464017 182.4217 
L 515.656578 181.273451 
L 517.849138 179.870942 
L 520.041699 178.218656 
L 522.23426 176.321875 
L 524.426821 174.186663 
L 527.350235 170.980727 
L 530.273649 167.381352 
L 533.197064 163.408989 
L 536.120478 159.086211 
L 539.774746 153.227564 
L 543.429014 146.911911 
L 547.814135 138.809063 
L 552.199257 130.23257 
L 558.046085 118.250569 
L 566.816328 99.662426 
L 576.317425 79.674485 
L 581.4334 69.384072 
L 585.818521 61.004887 
L 589.472789 54.415475 
L 593.127057 48.246119 
L 596.781325 42.551578 
L 599.70474 38.371933 
L 602.628154 34.552357 
L 605.551568 31.114555 
L 608.474982 28.078061 
L 610.667543 26.074516 
L 612.860104 24.312867 
L 615.052665 22.798744 
L 617.245225 21.536988 
L 619.437786 20.531634 
L 621.630347 19.785895 
L 623.822908 19.302154 
L 626.015468 19.081959 
L 628.208029 19.126014 
L 630.40059 19.434177 
L 632.593151 20.005464 
L 634.785711 20.838048 
L 636.978272 21.929267 
L 639.170833 23.275633 
L 641.363394 24.872842 
L 643.555954 26.715788 
L 645.748515 28.798578 
L 648.671929 31.937108 
L 651.595344 35.472271 
L 654.518758 39.383981 
L 657.442172 43.650011 
L 661.09644 49.4437 
L 664.750708 55.701574 
L 668.404976 62.368089 
L 672.790098 70.823773 
L 677.906073 81.180129 
L 685.214608 96.548937 
L 698.369973 124.305681 
L 703.485948 134.573299 
L 707.871069 142.926321 
L 711.525337 149.489511 
L 715.179605 155.628872 
L 718.833873 161.289912 
L 721.757288 165.440431 
L 724.680702 169.228992 
L 727.604116 172.634067 
L 730.52753 175.636308 
L 732.720091 177.613278 
L 734.912652 179.347688 
L 737.105213 180.833995 
L 739.297773 182.067445 
L 741.490334 183.044097 
L 743.682895 183.760828 
L 745.875456 184.215347 
L 748.068016 184.4062 
L 750.260577 184.332777 
L 752.453138 183.995314 
L 754.645699 183.394889 
L 756.838259 182.533421 
L 759.03082 181.413665 
L 761.223381 180.0392 
L 763.415942 178.41442 
L 765.608502 176.54452 
L 767.801063 174.435477 
L 770.724477 171.263182 
L 773.647892 167.695842 
L 776.571306 163.753728 
L 779.49472 159.459239 
L 783.148988 153.632957 
L 786.803256 147.346069 
L 791.188378 139.272633 
L 795.573499 130.719628 
L 801.420328 118.759223 
L 808.728864 103.298252 
L 808.728864 103.298252 
" clip-path="url(#p48beccbcdb)" style="fill: none; stroke: #bfbf00; stroke-width: 1.5; stroke-linecap: square"/>
   </g>
   <g id="LineCollection_1">
    <path d="M 78.606136 101.74 
L 78.606136 101.74 
" clip-path="url(#p48beccbcdb)" style="fill: none; stroke: #800080; stroke-width: 1.5"/>
    <path d="M 159.81209 101.74 
L 159.81209 30.143318 
" clip-path="url(#p48beccbcdb)" style="fill: none; stroke: #800080; stroke-width: 1.5"/>
    <path d="M 241.018043 101.74 
L 241.018043 173.336682 
" clip-path="url(#p48beccbcdb)" style="fill: none; stroke: #800080; stroke-width: 1.5"/>
    <path d="M 322.223997 101.74 
L 322.223997 101.74 
" clip-path="url(#p48beccbcdb)" style="fill: none; stroke: #800080; stroke-width: 1.5"/>
    <path d="M 403.42995 101.74 
L 403.42995 30.143318 
" clip-path="url(#p48beccbcdb)" style="fill: none; stroke: #800080; stroke-width: 1.5"/>
    <path d="M 484.635904 101.74 
L 484.635904 173.336682 
" clip-path="url(#p48beccbcdb)" style="fill: none; stroke: #800080; stroke-width: 1.5"/>
    <path d="M 565.841857 101.74 
L 565.841857 101.74 
" clip-path="url(#p48beccbcdb)" style="fill: none; stroke: #800080; stroke-width: 1.5"/>
    <path d="M 647.04781 101.74 
L 647.04781 30.143318 
" clip-path="url(#p48beccbcdb)" style="fill: none; stroke: #800080; stroke-width: 1.5"/>
    <path d="M 728.253764 101.74 
L 728.253764 173.336682 
" clip-path="url(#p48beccbcdb)" style="fill: none; stroke: #800080; stroke-width: 1.5"/>
   </g>
   <g id="line2d_17">
    <defs>
     <path id="m1ba46a24f1" d="M 0 3 
C 0.795609 3 1.55874 2.683901 2.12132 2.12132 
C 2.683901 1.55874 3 0.795609 3 0 
C 3 -0.795609 2.683901 -1.55874 2.12132 -2.12132 
C 1.55874 -2.683901 0.795609 -3 0 -3 
C -0.795609 -3 -1.55874 -2.683901 -2.12132 -2.12132 
C -2.683901 -1.55874 -3 -0.795609 -3 0 
C -3 0.795609 -2.683901 1.55874 -2.12132 2.12132 
C -1.55874 2.683901 -0.795609 3 0 3 
z
" style="stroke: #800080"/>
    </defs>
    <g clip-path="url(#p48beccbcdb)">
     <use xlink:href="#m1ba46a24f1" x="78.606136" y="101.74" style="fill: #800080; stroke: #800080"/>
     <use xlink:href="#m1ba46a24f1" x="159.81209" y="30.143318" style="fill: #800080; stroke: #800080"/>
     <use xlink:href="#m1ba46a24f1" x="241.018043" y="173.336682" style="fill: #800080; stroke: #800080"/>
     <use xlink:href="#m1ba46a24f1" x="322.223997" y="101.74" style="fill: #800080; stroke: #800080"/>
     <use xlink:href="#m1ba46a24f1" x="403.42995" y="30.143318" style="fill: #800080; stroke: #800080"/>
     <use xlink:href="#m1ba46a24f1" x="484.635904" y="173.336682" style="fill: #800080; stroke: #800080"/>
     <use xlink:href="#m1ba46a24f1" x="565.841857" y="101.74" style="fill: #800080; stroke: #800080"/>
     <use xlink:href="#m1ba46a24f1" x="647.04781" y="30.143318" style="fill: #800080; stroke: #800080"/>
     <use xlink:href="#m1ba46a24f1" x="728.253764" y="173.336682" style="fill: #800080; stroke: #800080"/>
    </g>
   </g>
   <g id="line2d_18">
    <path d="M 78.606136 101.74 
L 728.253764 101.74 
" clip-path="url(#p48beccbcdb)" style="fill: none; stroke: #d62728; stroke-width: 1.5; stroke-linecap: square"/>
   </g>
   <g id="patch_3">
    <path d="M 42.1 192.68 
L 42.1 10.8 
" style="fill: none; stroke: #000000; stroke-width: 0.8; stroke-linejoin: miter; stroke-linecap: square"/>
   </g>
   <g id="patch_4">
    <path d="M 845.235 192.68 
L 845.235 10.8 
" style="fill: none; stroke: #000000; stroke-width: 0.8; stroke-linejoin: miter; stroke-linecap: square"/>
   </g>
   <g id="patch_5">
    <path d="M 42.1 192.68 
L 845.235 192.68 
" style="fill: none; stroke: #000000; stroke-width: 0.8; stroke-linejoin: miter; stroke-linecap: square"/>
   </g>
   <g id="patch_6">
    <path d="M 42.1 10.8 
L 845.235 10.8 
" style="fill: none; stroke: #000000; stroke-width: 0.8; stroke-linejoin: miter; stroke-linecap: square"/>
   </g>
  </g>
  <g id="axes_2">
   <g id="patch_7">
    <path d="M 42.1 406.4 
L 845.235 406.4 
L 845.235 224.52 
L 42.1 224.52 
z
" style="fill: #ffffff"/>
   </g>
   <g id="matplotlib.axis_3">
    <g id="xtick_7">
     <g id="line2d_19">
      <g>
       <use xlink:href="#m1e61dfde93" x="78.606136" y="406.4" style="stroke: #000000; stroke-width: 0.8"/>
      </g>
     </g>
     <g id="text_16">
      <!-- 0.0000 -->
      <g transform="translate(61.110824 420.998438) scale(0.1 -0.1)">
       <use xlink:href="#DejaVuSans-30"/>
       <use xlink:href="#DejaVuSans-2e" x="63.623047"/>
       <use xlink:href="#DejaVuSans-30" x="95.410156"/>
       <use xlink:href="#DejaVuSans-30" x="159.033203"/>
       <use xlink:href="#DejaVuSans-30" x="222.65625"/>
       <use xlink:href="#DejaVuSans-30" x="286.279297"/>
      </g>
     </g>
    </g>
    <g id="xtick_8">
     <g id="line2d_20">
      <g>
       <use xlink:href="#m1e61dfde93" x="224.776853" y="406.4" style="stroke: #000000; stroke-width: 0.8"/>
      </g>
     </g>
     <g id="text_17">
      <!-- 0.0005 -->
      <g transform="translate(207.28154 420.998438) scale(0.1 -0.1)">
       <use xlink:href="#DejaVuSans-30"/>
       <use xlink:href="#DejaVuSans-2e" x="63.623047"/>
       <use xlink:href="#DejaVuSans-30" x="95.410156"/>
       <use xlink:href="#DejaVuSans-30" x="159.033203"/>
       <use xlink:href="#DejaVuSans-30" x="222.65625"/>
       <use xlink:href="#DejaVuSans-35" x="286.279297"/>
      </g>
     </g>
    </g>
    <g id="xtick_9">
     <g id="line2d_21">
      <g>
       <use xlink:href="#m1e61dfde93" x="370.947569" y="406.4" style="stroke: #000000; stroke-width: 0.8"/>
      </g>
     </g>
     <g id="text_18">
      <!-- 0.0010 -->
      <g transform="translate(353.452256 420.998438) scale(0.1 -0.1)">
       <use xlink:href="#DejaVuSans-30"/>
       <use xlink:href="#DejaVuSans-2e" x="63.623047"/>
       <use xlink:href="#DejaVuSans-30" x="95.410156"/>
       <use xlink:href="#DejaVuSans-30" x="159.033203"/>
       <use xlink:href="#DejaVuSans-31" x="222.65625"/>
       <use xlink:href="#DejaVuSans-30" x="286.279297"/>
      </g>
     </g>
    </g>
    <g id="xtick_10">
     <g id="line2d_22">
      <g>
       <use xlink:href="#m1e61dfde93" x="517.118285" y="406.4" style="stroke: #000000; stroke-width: 0.8"/>
      </g>
     </g>
     <g id="text_19">
      <!-- 0.0015 -->
      <g transform="translate(499.622972 420.998438) scale(0.1 -0.1)">
       <use xlink:href="#DejaVuSans-30"/>
       <use xlink:href="#DejaVuSans-2e" x="63.623047"/>
       <use xlink:href="#DejaVuSans-30" x="95.410156"/>
       <use xlink:href="#DejaVuSans-30" x="159.033203"/>
       <use xlink:href="#DejaVuSans-31" x="222.65625"/>
       <use xlink:href="#DejaVuSans-35" x="286.279297"/>
      </g>
     </g>
    </g>
    <g id="xtick_11">
     <g id="line2d_23">
      <g>
       <use xlink:href="#m1e61dfde93" x="663.289001" y="406.4" style="stroke: #000000; stroke-width: 0.8"/>
      </g>
     </g>
     <g id="text_20">
      <!-- 0.0020 -->
      <g transform="translate(645.793689 420.998438) scale(0.1 -0.1)">
       <use xlink:href="#DejaVuSans-30"/>
       <use xlink:href="#DejaVuSans-2e" x="63.623047"/>
       <use xlink:href="#DejaVuSans-30" x="95.410156"/>
       <use xlink:href="#DejaVuSans-30" x="159.033203"/>
       <use xlink:href="#DejaVuSans-32" x="222.65625"/>
       <use xlink:href="#DejaVuSans-30" x="286.279297"/>
      </g>
     </g>
    </g>
    <g id="xtick_12">
     <g id="line2d_24">
      <g>
       <use xlink:href="#m1e61dfde93" x="809.459717" y="406.4" style="stroke: #000000; stroke-width: 0.8"/>
      </g>
     </g>
     <g id="text_21">
      <!-- 0.0025 -->
      <g transform="translate(791.964405 420.998438) scale(0.1 -0.1)">
       <use xlink:href="#DejaVuSans-30"/>
       <use xlink:href="#DejaVuSans-2e" x="63.623047"/>
       <use xlink:href="#DejaVuSans-30" x="95.410156"/>
       <use xlink:href="#DejaVuSans-30" x="159.033203"/>
       <use xlink:href="#DejaVuSans-32" x="222.65625"/>
       <use xlink:href="#DejaVuSans-35" x="286.279297"/>
      </g>
     </g>
    </g>
   </g>
   <g id="matplotlib.axis_4">
    <g id="ytick_10">
     <g id="line2d_25">
      <g>
       <use xlink:href="#m77f8301972" x="42.1" y="398.139255" style="stroke: #000000; stroke-width: 0.8"/>
      </g>
     </g>
     <g id="text_22">
      <!-- −1.00 -->
      <g transform="translate(4.454688 401.938474) scale(0.1 -0.1)">
       <use xlink:href="#DejaVuSans-2212"/>
       <use xlink:href="#DejaVuSans-31" x="83.789062"/>
       <use xlink:href="#DejaVuSans-2e" x="147.412109"/>
       <use xlink:href="#DejaVuSans-30" x="179.199219"/>
       <use xlink:href="#DejaVuSans-30" x="242.822266"/>
      </g>
     </g>
    </g>
    <g id="ytick_11">
     <g id="line2d_26">
      <g>
       <use xlink:href="#m77f8301972" x="42.1" y="377.469441" style="stroke: #000000; stroke-width: 0.8"/>
      </g>
     </g>
     <g id="text_23">
      <!-- −0.75 -->
      <g transform="translate(4.454688 381.26866) scale(0.1 -0.1)">
       <use xlink:href="#DejaVuSans-2212"/>
       <use xlink:href="#DejaVuSans-30" x="83.789062"/>
       <use xlink:href="#DejaVuSans-2e" x="147.412109"/>
       <use xlink:href="#DejaVuSans-37" x="179.199219"/>
       <use xlink:href="#DejaVuSans-35" x="242.822266"/>
      </g>
     </g>
    </g>
    <g id="ytick_12">
     <g id="line2d_27">
      <g>
       <use xlink:href="#m77f8301972" x="42.1" y="356.799628" style="stroke: #000000; stroke-width: 0.8"/>
      </g>
     </g>
     <g id="text_24">
      <!-- −0.50 -->
      <g transform="translate(4.454688 360.598846) scale(0.1 -0.1)">
       <use xlink:href="#DejaVuSans-2212"/>
       <use xlink:href="#DejaVuSans-30" x="83.789062"/>
       <use xlink:href="#DejaVuSans-2e" x="147.412109"/>
       <use xlink:href="#DejaVuSans-35" x="179.199219"/>
       <use xlink:href="#DejaVuSans-30" x="242.822266"/>
      </g>
     </g>
    </g>
    <g id="ytick_13">
     <g id="line2d_28">
      <g>
       <use xlink:href="#m77f8301972" x="42.1" y="336.129814" style="stroke: #000000; stroke-width: 0.8"/>
      </g>
     </g>
     <g id="text_25">
      <!-- −0.25 -->
      <g transform="translate(4.454688 339.929033) scale(0.1 -0.1)">
       <use xlink:href="#DejaVuSans-2212"/>
       <use xlink:href="#DejaVuSans-30" x="83.789062"/>
       <use xlink:href="#DejaVuSans-2e" x="147.412109"/>
       <use xlink:href="#DejaVuSans-32" x="179.199219"/>
       <use xlink:href="#DejaVuSans-35" x="242.822266"/>
      </g>
     </g>
    </g>
    <g id="ytick_14">
     <g id="line2d_29">
      <g>
       <use xlink:href="#m77f8301972" x="42.1" y="315.46" style="stroke: #000000; stroke-width: 0.8"/>
      </g>
     </g>
     <g id="text_26">
      <!-- 0.00 -->
      <g transform="translate(12.834375 319.259219) scale(0.1 -0.1)">
       <use xlink:href="#DejaVuSans-30"/>
       <use xlink:href="#DejaVuSans-2e" x="63.623047"/>
       <use xlink:href="#DejaVuSans-30" x="95.410156"/>
       <use xlink:href="#DejaVuSans-30" x="159.033203"/>
      </g>
     </g>
    </g>
    <g id="ytick_15">
     <g id="line2d_30">
      <g>
       <use xlink:href="#m77f8301972" x="42.1" y="294.790186" style="stroke: #000000; stroke-width: 0.8"/>
      </g>
     </g>
     <g id="text_27">
      <!-- 0.25 -->
      <g transform="translate(12.834375 298.589405) scale(0.1 -0.1)">
       <use xlink:href="#DejaVuSans-30"/>
       <use xlink:href="#DejaVuSans-2e" x="63.623047"/>
       <use xlink:href="#DejaVuSans-32" x="95.410156"/>
       <use xlink:href="#DejaVuSans-35" x="159.033203"/>
      </g>
     </g>
    </g>
    <g id="ytick_16">
     <g id="line2d_31">
      <g>
       <use xlink:href="#m77f8301972" x="42.1" y="274.120372" style="stroke: #000000; stroke-width: 0.8"/>
      </g>
     </g>
     <g id="text_28">
      <!-- 0.50 -->
      <g transform="translate(12.834375 277.919591) scale(0.1 -0.1)">
       <use xlink:href="#DejaVuSans-30"/>
       <use xlink:href="#DejaVuSans-2e" x="63.623047"/>
       <use xlink:href="#DejaVuSans-35" x="95.410156"/>
       <use xlink:href="#DejaVuSans-30" x="159.033203"/>
      </g>
     </g>
    </g>
    <g id="ytick_17">
     <g id="line2d_32">
      <g>
       <use xlink:href="#m77f8301972" x="42.1" y="253.450559" style="stroke: #000000; stroke-width: 0.8"/>
      </g>
     </g>
     <g id="text_29">
      <!-- 0.75 -->
      <g transform="translate(12.834375 257.249777) scale(0.1 -0.1)">
       <use xlink:href="#DejaVuSans-30"/>
       <use xlink:href="#DejaVuSans-2e" x="63.623047"/>
       <use xlink:href="#DejaVuSans-37" x="95.410156"/>
       <use xlink:href="#DejaVuSans-35" x="159.033203"/>
      </g>
     </g>
    </g>
    <g id="ytick_18">
     <g id="line2d_33">
      <g>
       <use xlink:href="#m77f8301972" x="42.1" y="232.780745" style="stroke: #000000; stroke-width: 0.8"/>
      </g>
     </g>
     <g id="text_30">
      <!-- 1.00 -->
      <g transform="translate(12.834375 236.579963) scale(0.1 -0.1)">
       <use xlink:href="#DejaVuSans-31"/>
       <use xlink:href="#DejaVuSans-2e" x="63.623047"/>
       <use xlink:href="#DejaVuSans-30" x="95.410156"/>
       <use xlink:href="#DejaVuSans-30" x="159.033203"/>
      </g>
     </g>
    </g>
   </g>
   <g id="line2d_34">
    <path d="M 78.606136 315.46 
L 82.260404 345.896264 
L 84.452965 362.361374 
L 85.914672 372.057845 
L 87.376379 380.469742 
L 88.838086 387.406145 
L 90.299794 392.709621 
L 91.030647 394.709868 
L 91.761501 396.259801 
L 92.492354 397.350613 
L 93.223208 397.976107 
L 93.954062 398.132727 
L 94.684915 397.819585 
L 95.415769 397.038459 
L 96.146622 395.793788 
L 96.877476 394.092644 
L 97.608329 391.944695 
L 98.339183 389.362143 
L 99.80089 382.954321 
L 101.262597 375.014614 
L 102.724305 365.723224 
L 104.916865 349.720264 
L 107.84028 325.822458 
L 112.956255 283.101517 
L 115.148815 266.862353 
L 116.610523 257.365424 
L 118.07223 249.187039 
L 119.533937 242.512818 
L 120.26479 239.788541 
L 120.995644 237.494245 
L 121.726498 235.642965 
L 122.457351 234.245222 
L 123.188205 233.308957 
L 123.919058 232.839491 
L 124.649912 232.839491 
L 125.380766 233.308957 
L 126.111619 234.245222 
L 126.842473 235.642965 
L 127.573326 237.494245 
L 128.30418 239.788541 
L 129.765887 245.651596 
L 131.227594 253.099058 
L 132.689301 261.961895 
L 134.151009 272.038953 
L 136.343569 288.924621 
L 139.997837 319.614163 
L 143.652105 349.720264 
L 145.844666 365.723224 
L 147.306373 375.014614 
L 148.76808 382.954321 
L 150.229787 389.362143 
L 150.960641 391.944695 
L 151.691494 394.092644 
L 152.422348 395.793788 
L 153.153202 397.038459 
L 153.884055 397.819585 
L 154.614909 398.132727 
L 155.345762 397.976107 
L 156.076616 397.350613 
L 156.80747 396.259801 
L 157.538323 394.709868 
L 158.269177 392.709621 
L 159.00003 390.270427 
L 160.461737 384.13305 
L 161.923445 376.437035 
L 163.385152 367.357054 
L 164.846859 357.099191 
L 167.03942 340.019177 
L 171.424541 303.03946 
L 174.347955 279.319594 
L 176.540516 263.562946 
L 178.002223 254.482965 
L 179.463931 246.78695 
L 180.925638 240.649573 
L 181.656491 238.210379 
L 182.387345 236.210132 
L 183.118198 234.660199 
L 183.849052 233.569387 
L 184.579906 232.943893 
L 185.310759 232.787273 
L 186.041613 233.100415 
L 186.772466 233.881541 
L 187.50332 235.126212 
L 188.234173 236.827356 
L 188.965027 238.975305 
L 189.695881 241.557857 
L 191.157588 247.965679 
L 192.619295 255.905386 
L 194.081002 265.196776 
L 196.273563 281.199736 
L 199.196977 305.097542 
L 204.312952 347.818483 
L 206.505513 364.057647 
L 207.96722 373.554576 
L 209.428927 381.732961 
L 210.890634 388.407182 
L 211.621488 391.131459 
L 212.352342 393.425755 
L 213.083195 395.277035 
L 213.814049 396.674778 
L 214.544902 397.611043 
L 215.275756 398.080509 
L 216.00661 398.080509 
L 216.737463 397.611043 
L 217.468317 396.674778 
L 218.19917 395.277035 
L 218.930024 393.425755 
L 219.660877 391.131459 
L 221.122585 385.268404 
L 222.584292 377.820942 
L 224.045999 368.958105 
L 225.507706 358.881047 
L 227.700267 341.995379 
L 231.354535 311.305837 
L 235.008803 281.199736 
L 237.201363 265.196776 
L 238.663071 255.905386 
L 240.124778 247.965679 
L 241.586485 241.557857 
L 242.317338 238.975305 
L 243.048192 236.827356 
L 243.779046 235.126212 
L 244.509899 233.881541 
L 245.240753 233.100415 
L 245.971606 232.787273 
L 246.70246 232.943893 
L 247.433314 233.569387 
L 248.164167 234.660199 
L 248.895021 236.210132 
L 249.625874 238.210379 
L 250.356728 240.649573 
L 251.818435 246.78695 
L 253.280142 254.482965 
L 254.741849 263.562946 
L 256.203557 273.820809 
L 258.396117 290.900823 
L 262.781239 327.88054 
L 265.704653 351.600406 
L 267.897214 367.357054 
L 269.358921 376.437035 
L 270.820628 384.13305 
L 272.282335 390.270427 
L 273.013189 392.709621 
L 273.744042 394.709868 
L 274.474896 396.259801 
L 275.20575 397.350613 
L 275.936603 397.976107 
L 276.667457 398.132727 
L 277.39831 397.819585 
L 278.129164 397.038459 
L 278.860018 395.793788 
L 279.590871 394.092644 
L 280.321725 391.944695 
L 281.052578 389.362143 
L 282.514285 382.954321 
L 283.975993 375.014614 
L 285.4377 365.723224 
L 287.63026 349.720264 
L 290.553675 325.822458 
L 295.66965 283.101517 
L 297.862211 266.862353 
L 299.323918 257.365424 
L 300.785625 249.187039 
L 302.247332 242.512818 
L 302.978186 239.788541 
L 303.709039 237.494245 
L 304.439893 235.642965 
L 305.170746 234.245222 
L 305.9016 233.308957 
L 306.632454 232.839491 
L 307.363307 232.839491 
L 308.094161 233.308957 
L 308.825014 234.245222 
L 309.555868 235.642965 
L 310.286721 237.494245 
L 311.017575 239.788541 
L 312.479282 245.651596 
L 313.940989 253.099058 
L 315.402697 261.961895 
L 316.864404 272.038953 
L 319.056964 288.924621 
L 322.711232 319.614163 
L 326.3655 349.720264 
L 328.558061 365.723224 
L 330.019768 375.014614 
L 331.481475 382.954321 
L 332.943183 389.362143 
L 333.674036 391.944695 
L 334.40489 394.092644 
L 335.135743 395.793788 
L 335.866597 397.038459 
L 336.59745 397.819585 
L 337.328304 398.132727 
L 338.059158 397.976107 
L 338.790011 397.350613 
L 339.520865 396.259801 
L 340.251718 394.709868 
L 340.982572 392.709621 
L 341.713425 390.270427 
L 343.175133 384.13305 
L 344.63684 376.437035 
L 346.098547 367.357054 
L 347.560254 357.099191 
L 349.752815 340.019177 
L 354.137936 303.03946 
L 357.061351 279.319594 
L 359.253911 263.562946 
L 360.715619 254.482965 
L 362.177326 246.78695 
L 363.639033 240.649573 
L 364.369886 238.210379 
L 365.10074 236.210132 
L 365.831594 234.660199 
L 366.562447 233.569387 
L 367.293301 232.943893 
L 368.024154 232.787273 
L 368.755008 233.100415 
L 369.485862 233.881541 
L 370.216715 235.126212 
L 370.947569 236.827356 
L 371.678422 238.975305 
L 372.409276 241.557857 
L 373.870983 247.965679 
L 375.33269 255.905386 
L 376.794397 265.196776 
L 378.986958 281.199736 
L 381.910372 305.097542 
L 387.026347 347.818483 
L 389.218908 364.057647 
L 390.680615 373.554576 
L 392.142323 381.732961 
L 393.60403 388.407182 
L 394.334883 391.131459 
L 395.065737 393.425755 
L 395.79659 395.277035 
L 396.527444 396.674778 
L 397.258298 397.611043 
L 397.989151 398.080509 
L 398.720005 398.080509 
L 399.450858 397.611043 
L 400.181712 396.674778 
L 400.912566 395.277035 
L 401.643419 393.425755 
L 402.374273 391.131459 
L 403.83598 385.268404 
L 405.297687 377.820942 
L 406.759394 368.958105 
L 408.221101 358.881047 
L 410.413662 341.995379 
L 414.06793 311.305837 
L 417.722198 281.199736 
L 419.914759 265.196776 
L 421.376466 255.905386 
L 422.838173 247.965679 
L 424.29988 241.557857 
L 425.030734 238.975305 
L 425.761587 236.827356 
L 426.492441 235.126212 
L 427.223294 233.881541 
L 427.954148 233.100415 
L 428.685002 232.787273 
L 429.415855 232.943893 
L 430.146709 233.569387 
L 430.877562 234.660199 
L 431.608416 236.210132 
L 432.339269 238.210379 
L 433.070123 240.649573 
L 434.53183 246.78695 
L 435.993537 254.482965 
L 437.455245 263.562946 
L 438.916952 273.820809 
L 441.109512 290.900823 
L 445.494634 327.88054 
L 448.418048 351.600406 
L 450.610609 367.357054 
L 452.072316 376.437035 
L 453.534023 384.13305 
L 454.995731 390.270427 
L 455.726584 392.709621 
L 456.457438 394.709868 
L 457.188291 396.259801 
L 457.919145 397.350613 
L 458.649998 397.976107 
L 459.380852 398.132727 
L 460.111706 397.819585 
L 460.842559 397.038459 
L 461.573413 395.793788 
L 462.304266 394.092644 
L 463.03512 391.944695 
L 463.765973 389.362143 
L 465.227681 382.954321 
L 466.689388 375.014614 
L 468.151095 365.723224 
L 470.343656 349.720264 
L 473.26707 325.822458 
L 478.383045 283.101517 
L 480.575606 266.862353 
L 482.037313 257.365424 
L 483.49902 249.187039 
L 484.960727 242.512818 
L 485.691581 239.788541 
L 486.422434 237.494245 
L 487.153288 235.642965 
L 487.884142 234.245222 
L 488.614995 233.308957 
L 489.345849 232.839491 
L 490.076702 232.839491 
L 490.807556 233.308957 
L 491.53841 234.245222 
L 492.269263 235.642965 
L 493.000117 237.494245 
L 493.73097 239.788541 
L 495.192677 245.651596 
L 496.654385 253.099058 
L 498.116092 261.961895 
L 499.577799 272.038953 
L 501.77036 288.924621 
L 505.424628 319.614163 
L 509.078895 349.720264 
L 511.271456 365.723224 
L 512.733163 375.014614 
L 514.194871 382.954321 
L 515.656578 389.362143 
L 516.387431 391.944695 
L 517.118285 394.092644 
L 517.849138 395.793788 
L 518.579992 397.038459 
L 519.310846 397.819585 
L 520.041699 398.132727 
L 520.772553 397.976107 
L 521.503406 397.350613 
L 522.23426 396.259801 
L 522.965114 394.709868 
L 523.695967 392.709621 
L 524.426821 390.270427 
L 525.888528 384.13305 
L 527.350235 376.437035 
L 528.811942 367.357054 
L 530.273649 357.099191 
L 532.46621 340.019177 
L 536.851332 303.03946 
L 539.774746 279.319594 
L 541.967307 263.562946 
L 543.429014 254.482965 
L 544.890721 246.78695 
L 546.352428 240.649573 
L 547.083282 238.210379 
L 547.814135 236.210132 
L 548.544989 234.660199 
L 549.275842 233.569387 
L 550.006696 232.943893 
L 550.73755 232.787273 
L 551.468403 233.100415 
L 552.199257 233.881541 
L 552.93011 235.126212 
L 553.660964 236.827356 
L 554.391817 238.975305 
L 555.122671 241.557857 
L 556.584378 247.965679 
L 558.046085 255.905386 
L 559.507793 265.196776 
L 561.700353 281.199736 
L 564.623768 305.097542 
L 569.739743 347.818483 
L 571.932303 364.057647 
L 573.394011 373.554576 
L 574.855718 381.732961 
L 576.317425 388.407182 
L 577.048279 391.131459 
L 577.779132 393.425755 
L 578.509986 395.277035 
L 579.240839 396.674778 
L 579.971693 397.611043 
L 580.702546 398.080509 
L 581.4334 398.080509 
L 582.164254 397.611043 
L 582.895107 396.674778 
L 583.625961 395.277035 
L 584.356814 393.425755 
L 585.087668 391.131459 
L 586.549375 385.268404 
L 588.011082 377.820942 
L 589.472789 368.958105 
L 590.934497 358.881047 
L 593.127057 341.995379 
L 596.781325 311.305837 
L 600.435593 281.199736 
L 602.628154 265.196776 
L 604.089861 255.905386 
L 605.551568 247.965679 
L 607.013275 241.557857 
L 607.744129 238.975305 
L 608.474982 236.827356 
L 609.205836 235.126212 
L 609.93669 233.881541 
L 610.667543 233.100415 
L 611.398397 232.787273 
L 612.12925 232.943893 
L 612.860104 233.569387 
L 613.590958 234.660199 
L 614.321811 236.210132 
L 615.052665 238.210379 
L 615.783518 240.649573 
L 617.245225 246.78695 
L 618.706933 254.482965 
L 620.16864 263.562946 
L 621.630347 273.820809 
L 623.822908 290.900823 
L 628.208029 327.88054 
L 631.131443 351.600406 
L 633.324004 367.357054 
L 634.785711 376.437035 
L 636.247419 384.13305 
L 637.709126 390.270427 
L 638.439979 392.709621 
L 639.170833 394.709868 
L 639.901686 396.259801 
L 640.63254 397.350613 
L 641.363394 397.976107 
L 642.094247 398.132727 
L 642.825101 397.819585 
L 643.555954 397.038459 
L 644.286808 395.793788 
L 645.017662 394.092644 
L 645.748515 391.944695 
L 646.479369 389.362143 
L 647.941076 382.954321 
L 649.402783 375.014614 
L 650.86449 365.723224 
L 653.057051 349.720264 
L 655.980465 325.822458 
L 661.09644 283.101517 
L 663.289001 266.862353 
L 664.750708 257.365424 
L 666.212415 249.187039 
L 667.674123 242.512818 
L 668.404976 239.788541 
L 669.13583 237.494245 
L 669.866683 235.642965 
L 670.597537 234.245222 
L 671.32839 233.308957 
L 672.059244 232.839491 
L 672.790098 232.839491 
L 673.520951 233.308957 
L 674.251805 234.245222 
L 674.982658 235.642965 
L 675.713512 237.494245 
L 676.444366 239.788541 
L 677.906073 245.651596 
L 679.36778 253.099058 
L 680.829487 261.961895 
L 682.291194 272.038953 
L 684.483755 288.924621 
L 688.138023 319.614163 
L 691.792291 349.720264 
L 693.984851 365.723224 
L 695.446559 375.014614 
L 696.908266 382.954321 
L 698.369973 389.362143 
L 699.100827 391.944695 
L 699.83168 394.092644 
L 700.562534 395.793788 
L 701.293387 397.038459 
L 702.024241 397.819585 
L 702.755094 398.132727 
L 703.485948 397.976107 
L 704.216802 397.350613 
L 704.947655 396.259801 
L 705.678509 394.709868 
L 706.409362 392.709621 
L 707.140216 390.270427 
L 708.601923 384.13305 
L 710.06363 376.437035 
L 711.525337 367.357054 
L 712.987045 357.099191 
L 715.179605 340.019177 
L 719.564727 303.03946 
L 722.488141 279.319594 
L 724.680702 263.562946 
L 726.142409 254.482965 
L 727.604116 246.78695 
L 729.065823 240.649573 
L 729.796677 238.210379 
L 730.52753 236.210132 
L 731.258384 234.660199 
L 731.989238 233.569387 
L 732.720091 232.943893 
L 733.450945 232.787273 
L 734.181798 233.100415 
L 734.912652 233.881541 
L 735.643506 235.126212 
L 736.374359 236.827356 
L 737.105213 238.975305 
L 737.836066 241.557857 
L 739.297773 247.965679 
L 740.759481 255.905386 
L 742.221188 265.196776 
L 744.413749 281.199736 
L 747.337163 305.097542 
L 752.453138 347.818483 
L 754.645699 364.057647 
L 756.107406 373.554576 
L 757.569113 381.732961 
L 759.03082 388.407182 
L 759.761674 391.131459 
L 760.492527 393.425755 
L 761.223381 395.277035 
L 761.954234 396.674778 
L 762.685088 397.611043 
L 763.415942 398.080509 
L 764.146795 398.080509 
L 764.877649 397.611043 
L 765.608502 396.674778 
L 766.339356 395.277035 
L 767.07021 393.425755 
L 767.801063 391.131459 
L 769.26277 385.268404 
L 770.724477 377.820942 
L 772.186185 368.958105 
L 773.647892 358.881047 
L 775.840452 341.995379 
L 779.49472 311.305837 
L 783.148988 281.199736 
L 785.341549 265.196776 
L 786.803256 255.905386 
L 788.264963 247.965679 
L 789.726671 241.557857 
L 790.457524 238.975305 
L 791.188378 236.827356 
L 791.919231 235.126212 
L 792.650085 233.881541 
L 793.380938 233.100415 
L 794.111792 232.787273 
L 794.842646 232.943893 
L 795.573499 233.569387 
L 796.304353 234.660199 
L 797.035206 236.210132 
L 797.76606 238.210379 
L 798.496914 240.649573 
L 799.958621 246.78695 
L 801.420328 254.482965 
L 802.882035 263.562946 
L 804.343742 273.820809 
L 806.536303 290.900823 
L 808.728864 309.232036 
L 808.728864 309.232036 
" clip-path="url(#pe6de1c1c7c)" style="fill: none; stroke: #0000ff; stroke-width: 1.5; stroke-linecap: square"/>
   </g>
   <g id="LineCollection_2">
    <path d="M 78.606136 315.46 
L 78.606136 315.46 
" clip-path="url(#pe6de1c1c7c)" style="fill: none; stroke: #800080; stroke-width: 1.5"/>
    <path d="M 159.81209 315.46 
L 159.81209 243.857665 
" clip-path="url(#pe6de1c1c7c)" style="fill: none; stroke: #800080; stroke-width: 1.5"/>
    <path d="M 241.018043 315.46 
L 241.018043 387.062335 
" clip-path="url(#pe6de1c1c7c)" style="fill: none; stroke: #800080; stroke-width: 1.5"/>
    <path d="M 322.223997 315.46 
L 322.223997 315.46 
" clip-path="url(#pe6de1c1c7c)" style="fill: none; stroke: #800080; stroke-width: 1.5"/>
    <path d="M 403.42995 315.46 
L 403.42995 243.857665 
" clip-path="url(#pe6de1c1c7c)" style="fill: none; stroke: #800080; stroke-width: 1.5"/>
    <path d="M 484.635904 315.46 
L 484.635904 387.062335 
" clip-path="url(#pe6de1c1c7c)" style="fill: none; stroke: #800080; stroke-width: 1.5"/>
    <path d="M 565.841857 315.46 
L 565.841857 315.46 
" clip-path="url(#pe6de1c1c7c)" style="fill: none; stroke: #800080; stroke-width: 1.5"/>
    <path d="M 647.04781 315.46 
L 647.04781 243.857665 
" clip-path="url(#pe6de1c1c7c)" style="fill: none; stroke: #800080; stroke-width: 1.5"/>
    <path d="M 728.253764 315.46 
L 728.253764 387.062335 
" clip-path="url(#pe6de1c1c7c)" style="fill: none; stroke: #800080; stroke-width: 1.5"/>
   </g>
   <g id="line2d_35">
    <g clip-path="url(#pe6de1c1c7c)">
     <use xlink:href="#m1ba46a24f1" x="78.606136" y="315.46" style="fill: #800080; stroke: #800080"/>
     <use xlink:href="#m1ba46a24f1" x="159.81209" y="243.857665" style="fill: #800080; stroke: #800080"/>
     <use xlink:href="#m1ba46a24f1" x="241.018043" y="387.062335" style="fill: #800080; stroke: #800080"/>
     <use xlink:href="#m1ba46a24f1" x="322.223997" y="315.46" style="fill: #800080; stroke: #800080"/>
     <use xlink:href="#m1ba46a24f1" x="403.42995" y="243.857665" style="fill: #800080; stroke: #800080"/>
     <use xlink:href="#m1ba46a24f1" x="484.635904" y="387.062335" style="fill: #800080; stroke: #800080"/>
     <use xlink:href="#m1ba46a24f1" x="565.841857" y="315.46" style="fill: #800080; stroke: #800080"/>
     <use xlink:href="#m1ba46a24f1" x="647.04781" y="243.857665" style="fill: #800080; stroke: #800080"/>
     <use xlink:href="#m1ba46a24f1" x="728.253764" y="387.062335" style="fill: #800080; stroke: #800080"/>
    </g>
   </g>
   <g id="line2d_36">
    <path d="M 78.606136 315.46 
L 728.253764 315.46 
" clip-path="url(#pe6de1c1c7c)" style="fill: none; stroke: #d62728; stroke-width: 1.5; stroke-linecap: square"/>
   </g>
   <g id="patch_8">
    <path d="M 42.1 406.4 
L 42.1 224.52 
" style="fill: none; stroke: #000000; stroke-width: 0.8; stroke-linejoin: miter; stroke-linecap: square"/>
   </g>
   <g id="patch_9">
    <path d="M 845.235 406.4 
L 845.235 224.52 
" style="fill: none; stroke: #000000; stroke-width: 0.8; stroke-linejoin: miter; stroke-linecap: square"/>
   </g>
   <g id="patch_10">
    <path d="M 42.1 406.4 
L 845.235 406.4 
" style="fill: none; stroke: #000000; stroke-width: 0.8; stroke-linejoin: miter; stroke-linecap: square"/>
   </g>
   <g id="patch_11">
    <path d="M 42.1 224.52 
L 845.235 224.52 
" style="fill: none; stroke: #000000; stroke-width: 0.8; stroke-linejoin: miter; stroke-linecap: square"/>
   </g>
  </g>
  <g id="axes_3">
   <g id="patch_12">
    <path d="M 42.1 620.12 
L 845.235 620.12 
L 845.235 438.24 
L 42.1 438.24 
z
" style="fill: #ffffff"/>
   </g>
   <g id="matplotlib.axis_5">
    <g id="xtick_13">
     <g id="line2d_37">
      <g>
       <use xlink:href="#m1e61dfde93" x="42.1" y="620.12" style="stroke: #000000; stroke-width: 0.8"/>
      </g>
     </g>
     <g id="text_31">
      <!-- 0.0 -->
      <g transform="translate(34.148438 634.718438) scale(0.1 -0.1)">
       <use xlink:href="#DejaVuSans-30"/>
       <use xlink:href="#DejaVuSans-2e" x="63.623047"/>
       <use xlink:href="#DejaVuSans-30" x="95.410156"/>
      </g>
     </g>
    </g>
    <g id="xtick_14">
     <g id="line2d_38">
      <g>
       <use xlink:href="#m1e61dfde93" x="202.727" y="620.12" style="stroke: #000000; stroke-width: 0.8"/>
      </g>
     </g>
     <g id="text_32">
      <!-- 0.2 -->
      <g transform="translate(194.775438 634.718438) scale(0.1 -0.1)">
       <use xlink:href="#DejaVuSans-30"/>
       <use xlink:href="#DejaVuSans-2e" x="63.623047"/>
       <use xlink:href="#DejaVuSans-32" x="95.410156"/>
      </g>
     </g>
    </g>
    <g id="xtick_15">
     <g id="line2d_39">
      <g>
       <use xlink:href="#m1e61dfde93" x="363.354" y="620.12" style="stroke: #000000; stroke-width: 0.8"/>
      </g>
     </g>
     <g id="text_33">
      <!-- 0.4 -->
      <g transform="translate(355.402438 634.718438) scale(0.1 -0.1)">
       <defs>
        <path id="DejaVuSans-34" d="M 2419 4116 
L 825 1625 
L 2419 1625 
L 2419 4116 
z
M 2253 4666 
L 3047 4666 
L 3047 1625 
L 3713 1625 
L 3713 1100 
L 3047 1100 
L 3047 0 
L 2419 0 
L 2419 1100 
L 313 1100 
L 313 1709 
L 2253 4666 
z
" transform="scale(0.015625)"/>
       </defs>
       <use xlink:href="#DejaVuSans-30"/>
       <use xlink:href="#DejaVuSans-2e" x="63.623047"/>
       <use xlink:href="#DejaVuSans-34" x="95.410156"/>
      </g>
     </g>
    </g>
    <g id="xtick_16">
     <g id="line2d_40">
      <g>
       <use xlink:href="#m1e61dfde93" x="523.981" y="620.12" style="stroke: #000000; stroke-width: 0.8"/>
      </g>
     </g>
     <g id="text_34">
      <!-- 0.6 -->
      <g transform="translate(516.029438 634.718438) scale(0.1 -0.1)">
       <defs>
        <path id="DejaVuSans-36" d="M 2113 2584 
Q 1688 2584 1439 2293 
Q 1191 2003 1191 1497 
Q 1191 994 1439 701 
Q 1688 409 2113 409 
Q 2538 409 2786 701 
Q 3034 994 3034 1497 
Q 3034 2003 2786 2293 
Q 2538 2584 2113 2584 
z
M 3366 4563 
L 3366 3988 
Q 3128 4100 2886 4159 
Q 2644 4219 2406 4219 
Q 1781 4219 1451 3797 
Q 1122 3375 1075 2522 
Q 1259 2794 1537 2939 
Q 1816 3084 2150 3084 
Q 2853 3084 3261 2657 
Q 3669 2231 3669 1497 
Q 3669 778 3244 343 
Q 2819 -91 2113 -91 
Q 1303 -91 875 529 
Q 447 1150 447 2328 
Q 447 3434 972 4092 
Q 1497 4750 2381 4750 
Q 2619 4750 2861 4703 
Q 3103 4656 3366 4563 
z
" transform="scale(0.015625)"/>
       </defs>
       <use xlink:href="#DejaVuSans-30"/>
       <use xlink:href="#DejaVuSans-2e" x="63.623047"/>
       <use xlink:href="#DejaVuSans-36" x="95.410156"/>
      </g>
     </g>
    </g>
    <g id="xtick_17">
     <g id="line2d_41">
      <g>
       <use xlink:href="#m1e61dfde93" x="684.608" y="620.12" style="stroke: #000000; stroke-width: 0.8"/>
      </g>
     </g>
     <g id="text_35">
      <!-- 0.8 -->
      <g transform="translate(676.656438 634.718438) scale(0.1 -0.1)">
       <defs>
        <path id="DejaVuSans-38" d="M 2034 2216 
Q 1584 2216 1326 1975 
Q 1069 1734 1069 1313 
Q 1069 891 1326 650 
Q 1584 409 2034 409 
Q 2484 409 2743 651 
Q 3003 894 3003 1313 
Q 3003 1734 2745 1975 
Q 2488 2216 2034 2216 
z
M 1403 2484 
Q 997 2584 770 2862 
Q 544 3141 544 3541 
Q 544 4100 942 4425 
Q 1341 4750 2034 4750 
Q 2731 4750 3128 4425 
Q 3525 4100 3525 3541 
Q 3525 3141 3298 2862 
Q 3072 2584 2669 2484 
Q 3125 2378 3379 2068 
Q 3634 1759 3634 1313 
Q 3634 634 3220 271 
Q 2806 -91 2034 -91 
Q 1263 -91 848 271 
Q 434 634 434 1313 
Q 434 1759 690 2068 
Q 947 2378 1403 2484 
z
M 1172 3481 
Q 1172 3119 1398 2916 
Q 1625 2713 2034 2713 
Q 2441 2713 2670 2916 
Q 2900 3119 2900 3481 
Q 2900 3844 2670 4047 
Q 2441 4250 2034 4250 
Q 1625 4250 1398 4047 
Q 1172 3844 1172 3481 
z
" transform="scale(0.015625)"/>
       </defs>
       <use xlink:href="#DejaVuSans-30"/>
       <use xlink:href="#DejaVuSans-2e" x="63.623047"/>
       <use xlink:href="#DejaVuSans-38" x="95.410156"/>
      </g>
     </g>
    </g>
    <g id="xtick_18">
     <g id="line2d_42">
      <g>
       <use xlink:href="#m1e61dfde93" x="845.235" y="620.12" style="stroke: #000000; stroke-width: 0.8"/>
      </g>
     </g>
     <g id="text_36">
      <!-- 1.0 -->
      <g transform="translate(837.283437 634.718438) scale(0.1 -0.1)">
       <use xlink:href="#DejaVuSans-31"/>
       <use xlink:href="#DejaVuSans-2e" x="63.623047"/>
       <use xlink:href="#DejaVuSans-30" x="95.410156"/>
      </g>
     </g>
    </g>
   </g>
   <g id="matplotlib.axis_6">
    <g id="ytick_19">
     <g id="line2d_43">
      <g>
       <use xlink:href="#m77f8301972" x="42.1" y="620.12" style="stroke: #000000; stroke-width: 0.8"/>
      </g>
     </g>
     <g id="text_37">
      <!-- 0.0 -->
      <g transform="translate(19.196875 623.919219) scale(0.1 -0.1)">
       <use xlink:href="#DejaVuSans-30"/>
       <use xlink:href="#DejaVuSans-2e" x="63.623047"/>
       <use xlink:href="#DejaVuSans-30" x="95.410156"/>
      </g>
     </g>
    </g>
    <g id="ytick_20">
     <g id="line2d_44">
      <g>
       <use xlink:href="#m77f8301972" x="42.1" y="583.744" style="stroke: #000000; stroke-width: 0.8"/>
      </g>
     </g>
     <g id="text_38">
      <!-- 0.2 -->
      <g transform="translate(19.196875 587.543219) scale(0.1 -0.1)">
       <use xlink:href="#DejaVuSans-30"/>
       <use xlink:href="#DejaVuSans-2e" x="63.623047"/>
       <use xlink:href="#DejaVuSans-32" x="95.410156"/>
      </g>
     </g>
    </g>
    <g id="ytick_21">
     <g id="line2d_45">
      <g>
       <use xlink:href="#m77f8301972" x="42.1" y="547.368" style="stroke: #000000; stroke-width: 0.8"/>
      </g>
     </g>
     <g id="text_39">
      <!-- 0.4 -->
      <g transform="translate(19.196875 551.167219) scale(0.1 -0.1)">
       <use xlink:href="#DejaVuSans-30"/>
       <use xlink:href="#DejaVuSans-2e" x="63.623047"/>
       <use xlink:href="#DejaVuSans-34" x="95.410156"/>
      </g>
     </g>
    </g>
    <g id="ytick_22">
     <g id="line2d_46">
      <g>
       <use xlink:href="#m77f8301972" x="42.1" y="510.992" style="stroke: #000000; stroke-width: 0.8"/>
      </g>
     </g>
     <g id="text_40">
      <!-- 0.6 -->
      <g transform="translate(19.196875 514.791219) scale(0.1 -0.1)">
       <use xlink:href="#DejaVuSans-30"/>
       <use xlink:href="#DejaVuSans-2e" x="63.623047"/>
       <use xlink:href="#DejaVuSans-36" x="95.410156"/>
      </g>
     </g>
    </g>
    <g id="ytick_23">
     <g id="line2d_47">
      <g>
       <use xlink:href="#m77f8301972" x="42.1" y="474.616" style="stroke: #000000; stroke-width: 0.8"/>
      </g>
     </g>
     <g id="text_41">
      <!-- 0.8 -->
      <g transform="translate(19.196875 478.415219) scale(0.1 -0.1)">
       <use xlink:href="#DejaVuSans-30"/>
       <use xlink:href="#DejaVuSans-2e" x="63.623047"/>
       <use xlink:href="#DejaVuSans-38" x="95.410156"/>
      </g>
     </g>
    </g>
    <g id="ytick_24">
     <g id="line2d_48">
      <g>
       <use xlink:href="#m77f8301972" x="42.1" y="438.24" style="stroke: #000000; stroke-width: 0.8"/>
      </g>
     </g>
     <g id="text_42">
      <!-- 1.0 -->
      <g transform="translate(19.196875 442.039219) scale(0.1 -0.1)">
       <use xlink:href="#DejaVuSans-31"/>
       <use xlink:href="#DejaVuSans-2e" x="63.623047"/>
       <use xlink:href="#DejaVuSans-30" x="95.410156"/>
      </g>
     </g>
    </g>
   </g>
   <g id="patch_13">
    <path d="M 42.1 620.12 
L 42.1 438.24 
" style="fill: none; stroke: #000000; stroke-width: 0.8; stroke-linejoin: miter; stroke-linecap: square"/>
   </g>
   <g id="patch_14">
    <path d="M 845.235 620.12 
L 845.235 438.24 
" style="fill: none; stroke: #000000; stroke-width: 0.8; stroke-linejoin: miter; stroke-linecap: square"/>
   </g>
   <g id="patch_15">
    <path d="M 42.1 620.12 
L 845.235 620.12 
" style="fill: none; stroke: #000000; stroke-width: 0.8; stroke-linejoin: miter; stroke-linecap: square"/>
   </g>
   <g id="patch_16">
    <path d="M 42.1 438.24 
L 845.235 438.24 
" style="fill: none; stroke: #000000; stroke-width: 0.8; stroke-linejoin: miter; stroke-linecap: square"/>
   </g>
  </g>
 </g>
 <defs>
  <clipPath id="p48beccbcdb">
   <rect x="42.1" y="10.8" width="803.135" height="181.88"/>
  </clipPath>
  <clipPath id="pe6de1c1c7c">
   <rect x="42.1" y="224.52" width="803.135" height="181.88"/>
  </clipPath>
 </defs>
</svg>
