<?xml version="1.0" encoding="utf-8" standalone="no"?>
<!DOCTYPE svg PUBLIC "-//W3C//DTD SVG 1.1//EN"
  "http://www.w3.org/Graphics/SVG/1.1/DTD/svg11.dtd">
<svg xmlns:xlink="http://www.w3.org/1999/xlink" width="864pt" height="648pt" viewBox="0 0 864 648" xmlns="http://www.w3.org/2000/svg" version="1.1">
 <metadata>
  <rdf:RDF xmlns:dc="http://purl.org/dc/elements/1.1/" xmlns:cc="http://creativecommons.org/ns#" xmlns:rdf="http://www.w3.org/1999/02/22-rdf-syntax-ns#">
   <cc:Work>
    <dc:type rdf:resource="http://purl.org/dc/dcmitype/StillImage"/>
    <dc:date>2025-11-08T14:30:18.931664</dc:date>
    <dc:format>image/svg+xml</dc:format>
    <dc:creator>
     <cc:Agent>
      <dc:title>Matplotlib v3.6.3, https://matplotlib.org/</dc:title>
     </cc:Agent>
    </dc:creator>
   </cc:Work>
  </rdf:RDF>
 </metadata>
 <defs>
  <style type="text/css">*{stroke-linejoin: round; stroke-linecap: butt}</style>
 </defs>
 <g id="figure_1">
  <g id="patch_1">
   <path d="M 0 648 
L 864 648 
L 864 0 
L 0 0 
z
" style="fill: #ffffff"/>
  </g>
  <g id="axes_1">
   <g id="patch_2">
    <path d="M 42.1 209.72 
L 853.2 209.72 
L 853.2 47.04 
L 42.1 47.04 
z
" style="fill: #ffffff"/>
   </g>
   <g id="matplotlib.axis_1">
    <g id="xtick_1">
     <g id="line2d_1">
      <defs>
       <path id="mabf02fd2c5" d="M 0 0 
L 0 3.5 
" style="stroke: #000000; stroke-width: 0.8"/>
      </defs>
      <g>
       <use xlink:href="#mabf02fd2c5" x="78.968182" y="209.72" style="stroke: #000000; stroke-width: 0.8"/>
      </g>
     </g>
     <g id="text_1">
      <!-- 0.0 -->
      <g transform="translate(71.016619 224.318437) scale(0.1 -0.1)">
       <defs>
        <path id="DejaVuSans-30" d="M 2034 4250 
Q 1547 4250 1301 3770 
Q 1056 3291 1056 2328 
Q 1056 1369 1301 889 
Q 1547 409 2034 409 
Q 2525 409 2770 889 
Q 3016 1369 3016 2328 
Q 3016 3291 2770 3770 
Q 2525 4250 2034 4250 
z
M 2034 4750 
Q 2819 4750 3233 4129 
Q 3647 3509 3647 2328 
Q 3647 1150 3233 529 
Q 2819 -91 2034 -91 
Q 1250 -91 836 529 
Q 422 1150 422 2328 
Q 422 3509 836 4129 
Q 1250 4750 2034 4750 
z
" transform="scale(0.015625)"/>
        <path id="DejaVuSans-2e" d="M 684 794 
L 1344 794 
L 1344 0 
L 684 0 
L 684 794 
z
" transform="scale(0.015625)"/>
       </defs>
       <use xlink:href="#DejaVuSans-30"/>
       <use xlink:href="#DejaVuSans-2e" x="63.623047"/>
       <use xlink:href="#DejaVuSans-30" x="95.410156"/>
      </g>
     </g>
    </g>
    <g id="xtick_2">
     <g id="line2d_2">
      <g>
       <use xlink:href="#mabf02fd2c5" x="226.588529" y="209.72" style="stroke: #000000; stroke-width: 0.8"/>
      </g>
     </g>
     <g id="text_2">
      <!-- 0.2 -->
      <g transform="translate(218.636967 224.318437) scale(0.1 -0.1)">
       <defs>
        <path id="DejaVuSans-32" d="M 1228 531 
L 3431 531 
L 3431 0 
L 469 0 
L 469 531 
Q 828 903 1448 1529 
Q 2069 2156 2228 2338 
Q 2531 2678 2651 2914 
Q 2772 3150 2772 3378 
Q 2772 3750 2511 3984 
Q 2250 4219 1831 4219 
Q 1534 4219 1204 4116 
Q 875 4013 500 3803 
L 500 4441 
Q 881 4594 1212 4672 
Q 1544 4750 1819 4750 
Q 2544 4750 2975 4387 
Q 3406 4025 3406 3419 
Q 3406 3131 3298 2873 
Q 3191 2616 2906 2266 
Q 2828 2175 2409 1742 
Q 1991 1309 1228 531 
z
" transform="scale(0.015625)"/>
       </defs>
       <use xlink:href="#DejaVuSans-30"/>
       <use xlink:href="#DejaVuSans-2e" x="63.623047"/>
       <use xlink:href="#DejaVuSans-32" x="95.410156"/>
      </g>
     </g>
    </g>
    <g id="xtick_3">
     <g id="line2d_3">
      <g>
       <use xlink:href="#mabf02fd2c5" x="374.208877" y="209.72" style="stroke: #000000; stroke-width: 0.8"/>
      </g>
     </g>
     <g id="text_3">
      <!-- 0.4 -->
      <g transform="translate(366.257315 224.318437) scale(0.1 -0.1)">
       <defs>
        <path id="DejaVuSans-34" d="M 2419 4116 
L 825 1625 
L 2419 1625 
L 2419 4116 
z
M 2253 4666 
L 3047 4666 
L 3047 1625 
L 3713 1625 
L 3713 1100 
L 3047 1100 
L 3047 0 
L 2419 0 
L 2419 1100 
L 313 1100 
L 313 1709 
L 2253 4666 
z
" transform="scale(0.015625)"/>
       </defs>
       <use xlink:href="#DejaVuSans-30"/>
       <use xlink:href="#DejaVuSans-2e" x="63.623047"/>
       <use xlink:href="#DejaVuSans-34" x="95.410156"/>
      </g>
     </g>
    </g>
    <g id="xtick_4">
     <g id="line2d_4">
      <g>
       <use xlink:href="#mabf02fd2c5" x="521.829225" y="209.72" style="stroke: #000000; stroke-width: 0.8"/>
      </g>
     </g>
     <g id="text_4">
      <!-- 0.6 -->
      <g transform="translate(513.877662 224.318437) scale(0.1 -0.1)">
       <defs>
        <path id="DejaVuSans-36" d="M 2113 2584 
Q 1688 2584 1439 2293 
Q 1191 2003 1191 1497 
Q 1191 994 1439 701 
Q 1688 409 2113 409 
Q 2538 409 2786 701 
Q 3034 994 3034 1497 
Q 3034 2003 2786 2293 
Q 2538 2584 2113 2584 
z
M 3366 4563 
L 3366 3988 
Q 3128 4100 2886 4159 
Q 2644 4219 2406 4219 
Q 1781 4219 1451 3797 
Q 1122 3375 1075 2522 
Q 1259 2794 1537 2939 
Q 1816 3084 2150 3084 
Q 2853 3084 3261 2657 
Q 3669 2231 3669 1497 
Q 3669 778 3244 343 
Q 2819 -91 2113 -91 
Q 1303 -91 875 529 
Q 447 1150 447 2328 
Q 447 3434 972 4092 
Q 1497 4750 2381 4750 
Q 2619 4750 2861 4703 
Q 3103 4656 3366 4563 
z
" transform="scale(0.015625)"/>
       </defs>
       <use xlink:href="#DejaVuSans-30"/>
       <use xlink:href="#DejaVuSans-2e" x="63.623047"/>
       <use xlink:href="#DejaVuSans-36" x="95.410156"/>
      </g>
     </g>
    </g>
    <g id="xtick_5">
     <g id="line2d_5">
      <g>
       <use xlink:href="#mabf02fd2c5" x="669.449572" y="209.72" style="stroke: #000000; stroke-width: 0.8"/>
      </g>
     </g>
     <g id="text_5">
      <!-- 0.8 -->
      <g transform="translate(661.49801 224.318437) scale(0.1 -0.1)">
       <defs>
        <path id="DejaVuSans-38" d="M 2034 2216 
Q 1584 2216 1326 1975 
Q 1069 1734 1069 1313 
Q 1069 891 1326 650 
Q 1584 409 2034 409 
Q 2484 409 2743 651 
Q 3003 894 3003 1313 
Q 3003 1734 2745 1975 
Q 2488 2216 2034 2216 
z
M 1403 2484 
Q 997 2584 770 2862 
Q 544 3141 544 3541 
Q 544 4100 942 4425 
Q 1341 4750 2034 4750 
Q 2731 4750 3128 4425 
Q 3525 4100 3525 3541 
Q 3525 3141 3298 2862 
Q 3072 2584 2669 2484 
Q 3125 2378 3379 2068 
Q 3634 1759 3634 1313 
Q 3634 634 3220 271 
Q 2806 -91 2034 -91 
Q 1263 -91 848 271 
Q 434 634 434 1313 
Q 434 1759 690 2068 
Q 947 2378 1403 2484 
z
M 1172 3481 
Q 1172 3119 1398 2916 
Q 1625 2713 2034 2713 
Q 2441 2713 2670 2916 
Q 2900 3119 2900 3481 
Q 2900 3844 2670 4047 
Q 2441 4250 2034 4250 
Q 1625 4250 1398 4047 
Q 1172 3844 1172 3481 
z
" transform="scale(0.015625)"/>
       </defs>
       <use xlink:href="#DejaVuSans-30"/>
       <use xlink:href="#DejaVuSans-2e" x="63.623047"/>
       <use xlink:href="#DejaVuSans-38" x="95.410156"/>
      </g>
     </g>
    </g>
    <g id="xtick_6">
     <g id="line2d_6">
      <g>
       <use xlink:href="#mabf02fd2c5" x="817.06992" y="209.72" style="stroke: #000000; stroke-width: 0.8"/>
      </g>
     </g>
     <g id="text_6">
      <!-- 1.0 -->
      <g transform="translate(809.118357 224.318437) scale(0.1 -0.1)">
       <defs>
        <path id="DejaVuSans-31" d="M 794 531 
L 1825 531 
L 1825 4091 
L 703 3866 
L 703 4441 
L 1819 4666 
L 2450 4666 
L 2450 531 
L 3481 531 
L 3481 0 
L 794 0 
L 794 531 
z
" transform="scale(0.015625)"/>
       </defs>
       <use xlink:href="#DejaVuSans-31"/>
       <use xlink:href="#DejaVuSans-2e" x="63.623047"/>
       <use xlink:href="#DejaVuSans-30" x="95.410156"/>
      </g>
     </g>
    </g>
   </g>
   <g id="matplotlib.axis_2">
    <g id="ytick_1">
     <g id="line2d_7">
      <defs>
       <path id="me07536f7f7" d="M 0 0 
L -3.5 0 
" style="stroke: #000000; stroke-width: 0.8"/>
      </defs>
      <g>
       <use xlink:href="#me07536f7f7" x="42.1" y="202.325455" style="stroke: #000000; stroke-width: 0.8"/>
      </g>
     </g>
     <g id="text_7">
      <!-- −1.0 -->
      <g transform="translate(10.817188 206.124673) scale(0.1 -0.1)">
       <defs>
        <path id="DejaVuSans-2212" d="M 678 2272 
L 4684 2272 
L 4684 1741 
L 678 1741 
L 678 2272 
z
" transform="scale(0.015625)"/>
       </defs>
       <use xlink:href="#DejaVuSans-2212"/>
       <use xlink:href="#DejaVuSans-31" x="83.789062"/>
       <use xlink:href="#DejaVuSans-2e" x="147.412109"/>
       <use xlink:href="#DejaVuSans-30" x="179.199219"/>
      </g>
     </g>
    </g>
    <g id="ytick_2">
     <g id="line2d_8">
      <g>
       <use xlink:href="#me07536f7f7" x="42.1" y="165.352727" style="stroke: #000000; stroke-width: 0.8"/>
      </g>
     </g>
     <g id="text_8">
      <!-- −0.5 -->
      <g transform="translate(10.817188 169.151946) scale(0.1 -0.1)">
       <defs>
        <path id="DejaVuSans-35" d="M 691 4666 
L 3169 4666 
L 3169 4134 
L 1269 4134 
L 1269 2991 
Q 1406 3038 1543 3061 
Q 1681 3084 1819 3084 
Q 2600 3084 3056 2656 
Q 3513 2228 3513 1497 
Q 3513 744 3044 326 
Q 2575 -91 1722 -91 
Q 1428 -91 1123 -41 
Q 819 9 494 109 
L 494 744 
Q 775 591 1075 516 
Q 1375 441 1709 441 
Q 2250 441 2565 725 
Q 2881 1009 2881 1497 
Q 2881 1984 2565 2268 
Q 2250 2553 1709 2553 
Q 1456 2553 1204 2497 
Q 953 2441 691 2322 
L 691 4666 
z
" transform="scale(0.015625)"/>
       </defs>
       <use xlink:href="#DejaVuSans-2212"/>
       <use xlink:href="#DejaVuSans-30" x="83.789062"/>
       <use xlink:href="#DejaVuSans-2e" x="147.412109"/>
       <use xlink:href="#DejaVuSans-35" x="179.199219"/>
      </g>
     </g>
    </g>
    <g id="ytick_3">
     <g id="line2d_9">
      <g>
       <use xlink:href="#me07536f7f7" x="42.1" y="128.38" style="stroke: #000000; stroke-width: 0.8"/>
      </g>
     </g>
     <g id="text_9">
      <!-- 0.0 -->
      <g transform="translate(19.196875 132.179219) scale(0.1 -0.1)">
       <use xlink:href="#DejaVuSans-30"/>
       <use xlink:href="#DejaVuSans-2e" x="63.623047"/>
       <use xlink:href="#DejaVuSans-30" x="95.410156"/>
      </g>
     </g>
    </g>
    <g id="ytick_4">
     <g id="line2d_10">
      <g>
       <use xlink:href="#me07536f7f7" x="42.1" y="91.407273" style="stroke: #000000; stroke-width: 0.8"/>
      </g>
     </g>
     <g id="text_10">
      <!-- 0.5 -->
      <g transform="translate(19.196875 95.206491) scale(0.1 -0.1)">
       <use xlink:href="#DejaVuSans-30"/>
       <use xlink:href="#DejaVuSans-2e" x="63.623047"/>
       <use xlink:href="#DejaVuSans-35" x="95.410156"/>
      </g>
     </g>
    </g>
    <g id="ytick_5">
     <g id="line2d_11">
      <g>
       <use xlink:href="#me07536f7f7" x="42.1" y="54.434545" style="stroke: #000000; stroke-width: 0.8"/>
      </g>
     </g>
     <g id="text_11">
      <!-- 1.0 -->
      <g transform="translate(19.196875 58.233764) scale(0.1 -0.1)">
       <use xlink:href="#DejaVuSans-31"/>
       <use xlink:href="#DejaVuSans-2e" x="63.623047"/>
       <use xlink:href="#DejaVuSans-30" x="95.410156"/>
      </g>
     </g>
    </g>
   </g>
   <g id="line2d_12">
    <path d="M 78.968182 128.38 
L 85.611097 107.749876 
L 89.301606 96.895557 
L 92.254013 88.758044 
L 95.20642 81.245393 
L 97.420725 76.092668 
L 99.63503 71.404048 
L 101.849336 67.221151 
L 104.063641 63.581104 
L 106.277946 60.516217 
L 107.75415 58.806144 
L 109.230353 57.370647 
L 110.706557 56.215391 
L 112.18276 55.344937 
L 113.658964 54.762718 
L 115.135167 54.471033 
L 116.61137 54.471033 
L 118.087574 54.762718 
L 119.563777 55.344937 
L 121.039981 56.215391 
L 122.516184 57.370647 
L 123.992388 58.806144 
L 125.468591 60.516217 
L 126.944795 62.494118 
L 129.1591 65.945788 
L 131.373405 69.951628 
L 133.58771 74.476083 
L 135.802016 79.478994 
L 138.754423 86.816489 
L 141.70683 94.809466 
L 145.397338 105.529598 
L 150.56405 121.421118 
L 160.159373 151.230402 
L 163.849882 161.950534 
L 166.802289 169.943511 
L 169.754696 177.281006 
L 171.969001 182.283917 
L 174.183306 186.808372 
L 176.397611 190.814212 
L 178.611916 194.265882 
L 180.08812 196.243783 
L 181.564323 197.953856 
L 183.040527 199.389353 
L 184.51673 200.544609 
L 185.992934 201.415063 
L 187.469137 201.997282 
L 188.945341 202.288967 
L 190.421544 202.288967 
L 191.897748 201.997282 
L 193.373951 201.415063 
L 194.850155 200.544609 
L 196.326358 199.389353 
L 197.802562 197.953856 
L 199.278765 196.243783 
L 200.754969 194.265882 
L 202.969274 190.814212 
L 205.183579 186.808372 
L 207.397884 182.283917 
L 209.612189 177.281006 
L 212.564596 169.943511 
L 215.517003 161.950534 
L 219.207512 151.230402 
L 224.374224 135.338882 
L 233.969547 105.529598 
L 237.660056 94.809466 
L 240.612462 86.816489 
L 243.564869 79.478994 
L 245.779175 74.476083 
L 247.99348 69.951628 
L 250.207785 65.945788 
L 252.42209 62.494118 
L 253.898294 60.516217 
L 255.374497 58.806144 
L 256.850701 57.370647 
L 258.326904 56.215391 
L 259.803108 55.344937 
L 261.279311 54.762718 
L 262.755515 54.471033 
L 264.231718 54.471033 
L 265.707922 54.762718 
L 267.184125 55.344937 
L 268.660329 56.215391 
L 270.136532 57.370647 
L 271.612735 58.806144 
L 273.088939 60.516217 
L 274.565142 62.494118 
L 276.779448 65.945788 
L 278.993753 69.951628 
L 281.208058 74.476083 
L 283.422363 79.478994 
L 286.37477 86.816489 
L 289.327177 94.809466 
L 293.017686 105.529598 
L 298.184398 121.421118 
L 307.779721 151.230402 
L 311.470229 161.950534 
L 314.422636 169.943511 
L 317.375043 177.281006 
L 319.589348 182.283917 
L 321.803654 186.808372 
L 324.017959 190.814212 
L 326.232264 194.265882 
L 327.708468 196.243783 
L 329.184671 197.953856 
L 330.660875 199.389353 
L 332.137078 200.544609 
L 333.613281 201.415063 
L 335.089485 201.997282 
L 336.565688 202.288967 
L 338.041892 202.288967 
L 339.518095 201.997282 
L 340.994299 201.415063 
L 342.470502 200.544609 
L 343.946706 199.389353 
L 345.422909 197.953856 
L 346.899113 196.243783 
L 348.375316 194.265882 
L 350.589621 190.814212 
L 352.803927 186.808372 
L 355.018232 182.283917 
L 357.232537 177.281006 
L 360.184944 169.943511 
L 363.137351 161.950534 
L 366.82786 151.230402 
L 371.994572 135.338882 
L 381.589894 105.529598 
L 385.280403 94.809466 
L 388.23281 86.816489 
L 391.185217 79.478994 
L 393.399522 74.476083 
L 395.613827 69.951628 
L 397.828133 65.945788 
L 400.042438 62.494118 
L 401.518641 60.516217 
L 402.994845 58.806144 
L 404.471048 57.370647 
L 405.947252 56.215391 
L 407.423455 55.344937 
L 408.899659 54.762718 
L 410.375862 54.471033 
L 411.852066 54.471033 
L 413.328269 54.762718 
L 414.804473 55.344937 
L 416.280676 56.215391 
L 417.75688 57.370647 
L 419.233083 58.806144 
L 420.709287 60.516217 
L 422.18549 62.494118 
L 424.399795 65.945788 
L 426.6141 69.951628 
L 428.828406 74.476083 
L 431.042711 79.478994 
L 433.995118 86.816489 
L 436.947525 94.809466 
L 440.638033 105.529598 
L 445.804746 121.421118 
L 455.400068 151.230402 
L 459.090577 161.950534 
L 462.042984 169.943511 
L 464.995391 177.281006 
L 467.209696 182.283917 
L 469.424001 186.808372 
L 471.638306 190.814212 
L 473.852612 194.265882 
L 475.328815 196.243783 
L 476.805019 197.953856 
L 478.281222 199.389353 
L 479.757426 200.544609 
L 481.233629 201.415063 
L 482.709833 201.997282 
L 484.186036 202.288967 
L 485.66224 202.288967 
L 487.138443 201.997282 
L 488.614646 201.415063 
L 490.09085 200.544609 
L 491.567053 199.389353 
L 493.043257 197.953856 
L 494.51946 196.243783 
L 495.995664 194.265882 
L 498.209969 190.814212 
L 500.424274 186.808372 
L 502.638579 182.283917 
L 504.852885 177.281006 
L 507.805292 169.943511 
L 510.757699 161.950534 
L 514.448207 151.230402 
L 519.614919 135.338882 
L 529.210242 105.529598 
L 532.900751 94.809466 
L 535.853158 86.816489 
L 538.805565 79.478994 
L 541.01987 74.476083 
L 543.234175 69.951628 
L 545.44848 65.945788 
L 547.662786 62.494118 
L 549.138989 60.516217 
L 550.615192 58.806144 
L 552.091396 57.370647 
L 553.567599 56.215391 
L 555.043803 55.344937 
L 556.520006 54.762718 
L 557.99621 54.471033 
L 559.472413 54.471033 
L 560.948617 54.762718 
L 562.42482 55.344937 
L 563.901024 56.215391 
L 565.377227 57.370647 
L 566.853431 58.806144 
L 568.329634 60.516217 
L 569.805838 62.494118 
L 572.020143 65.945788 
L 574.234448 69.951628 
L 576.448753 74.476083 
L 578.663059 79.478994 
L 581.615465 86.816489 
L 584.567872 94.809466 
L 588.258381 105.529598 
L 593.425093 121.421118 
L 603.020416 151.230402 
L 606.710925 161.950534 
L 609.663332 169.943511 
L 612.615738 177.281006 
L 614.830044 182.283917 
L 617.044349 186.808372 
L 619.258654 190.814212 
L 621.472959 194.265882 
L 622.949163 196.243783 
L 624.425366 197.953856 
L 625.90157 199.389353 
L 627.377773 200.544609 
L 628.853977 201.415063 
L 630.33018 201.997282 
L 631.806384 202.288967 
L 633.282587 202.288967 
L 634.758791 201.997282 
L 636.234994 201.415063 
L 637.711198 200.544609 
L 639.187401 199.389353 
L 640.663605 197.953856 
L 642.139808 196.243783 
L 643.616011 194.265882 
L 645.830317 190.814212 
L 648.044622 186.808372 
L 650.258927 182.283917 
L 652.473232 177.281006 
L 655.425639 169.943511 
L 658.378046 161.950534 
L 662.068555 151.230402 
L 667.235267 135.338882 
L 676.83059 105.529598 
L 680.521098 94.809466 
L 683.473505 86.816489 
L 686.425912 79.478994 
L 688.640217 74.476083 
L 690.854523 69.951628 
L 693.068828 65.945788 
L 695.283133 62.494118 
L 696.759337 60.516217 
L 698.23554 58.806144 
L 699.711744 57.370647 
L 701.187947 56.215391 
L 702.664151 55.344937 
L 704.140354 54.762718 
L 705.616557 54.471033 
L 707.092761 54.471033 
L 708.568964 54.762718 
L 710.045168 55.344937 
L 711.521371 56.215391 
L 712.997575 57.370647 
L 714.473778 58.806144 
L 715.949982 60.516217 
L 717.426185 62.494118 
L 719.64049 65.945788 
L 721.854796 69.951628 
L 724.069101 74.476083 
L 726.283406 79.478994 
L 729.235813 86.816489 
L 732.18822 94.809466 
L 735.878729 105.529598 
L 741.045441 121.421118 
L 750.640763 151.230402 
L 754.331272 161.950534 
L 757.283679 169.943511 
L 760.236086 177.281006 
L 762.450391 182.283917 
L 764.664697 186.808372 
L 766.879002 190.814212 
L 769.093307 194.265882 
L 770.56951 196.243783 
L 772.045714 197.953856 
L 773.521917 199.389353 
L 774.998121 200.544609 
L 776.474324 201.415063 
L 777.950528 201.997282 
L 779.426731 202.288967 
L 780.902935 202.288967 
L 782.379138 201.997282 
L 783.855342 201.415063 
L 785.331545 200.544609 
L 786.807749 199.389353 
L 788.283952 197.953856 
L 789.760156 196.243783 
L 791.236359 194.265882 
L 793.450664 190.814212 
L 795.66497 186.808372 
L 797.879275 182.283917 
L 800.09358 177.281006 
L 803.045987 169.943511 
L 805.998394 161.950534 
L 809.688903 151.230402 
L 814.855615 135.338882 
L 816.331818 130.702683 
L 816.331818 130.702683 
" clip-path="url(#pcebc2939c8)" style="fill: none; stroke: #008000; stroke-width: 1.5; stroke-linecap: square"/>
   </g>
   <g id="LineCollection_1">
    <path d="M 78.968182 128.38 
L 78.968182 128.38 
" clip-path="url(#pcebc2939c8)" style="fill: none; stroke: #000000; stroke-width: 1.5"/>
    <path d="M 263.493616 128.38 
L 263.493616 54.434545 
" clip-path="url(#pcebc2939c8)" style="fill: none; stroke: #000000; stroke-width: 1.5"/>
    <path d="M 448.019051 128.38 
L 448.019051 128.38 
" clip-path="url(#pcebc2939c8)" style="fill: none; stroke: #000000; stroke-width: 1.5"/>
    <path d="M 632.544485 128.38 
L 632.544485 202.325455 
" clip-path="url(#pcebc2939c8)" style="fill: none; stroke: #000000; stroke-width: 1.5"/>
   </g>
   <g id="line2d_13">
    <defs>
     <path id="m978b152ae3" d="M 0 3 
C 0.795609 3 1.55874 2.683901 2.12132 2.12132 
C 2.683901 1.55874 3 0.795609 3 0 
C 3 -0.795609 2.683901 -1.55874 2.12132 -2.12132 
C 1.55874 -2.683901 0.795609 -3 0 -3 
C -0.795609 -3 -1.55874 -2.683901 -2.12132 -2.12132 
C -2.683901 -1.55874 -3 -0.795609 -3 0 
C -3 0.795609 -2.683901 1.55874 -2.12132 2.12132 
C -1.55874 2.683901 -0.795609 3 0 3 
z
" style="stroke: #000000"/>
    </defs>
    <g clip-path="url(#pcebc2939c8)">
     <use xlink:href="#m978b152ae3" x="78.968182" y="128.38" style="stroke: #000000"/>
     <use xlink:href="#m978b152ae3" x="263.493616" y="54.434545" style="stroke: #000000"/>
     <use xlink:href="#m978b152ae3" x="448.019051" y="128.38" style="stroke: #000000"/>
     <use xlink:href="#m978b152ae3" x="632.544485" y="202.325455" style="stroke: #000000"/>
    </g>
   </g>
   <g id="line2d_14">
    <path d="M 78.968182 128.38 
L 632.544485 128.38 
" clip-path="url(#pcebc2939c8)" style="fill: none; stroke: #000000; stroke-width: 1.5; stroke-linecap: square"/>
   </g>
   <g id="patch_3">
    <path d="M 42.1 209.72 
L 42.1 47.04 
" style="fill: none; stroke: #000000; stroke-width: 0.8; stroke-linejoin: miter; stroke-linecap: square"/>
   </g>
   <g id="patch_4">
    <path d="M 853.2 209.72 
L 853.2 47.04 
" style="fill: none; stroke: #000000; stroke-width: 0.8; stroke-linejoin: miter; stroke-linecap: square"/>
   </g>
   <g id="patch_5">
    <path d="M 42.1 209.72 
L 853.2 209.72 
" style="fill: none; stroke: #000000; stroke-width: 0.8; stroke-linejoin: miter; stroke-linecap: square"/>
   </g>
   <g id="patch_6">
    <path d="M 42.1 47.04 
L 853.2 47.04 
" style="fill: none; stroke: #000000; stroke-width: 0.8; stroke-linejoin: miter; stroke-linecap: square"/>
   </g>
   <g id="text_12">
    <!-- f = 5Hz -->
    <g transform="translate(425.2175 41.04) scale(0.12 -0.12)">
     <defs>
      <path id="DejaVuSans-66" d="M 2375 4863 
L 2375 4384 
L 1825 4384 
Q 1516 4384 1395 4259 
Q 1275 4134 1275 3809 
L 1275 3500 
L 2222 3500 
L 2222 3053 
L 1275 3053 
L 1275 0 
L 697 0 
L 697 3053 
L 147 3053 
L 147 3500 
L 697 3500 
L 697 3744 
Q 697 4328 969 4595 
Q 1241 4863 1831 4863 
L 2375 4863 
z
" transform="scale(0.015625)"/>
      <path id="DejaVuSans-20" transform="scale(0.015625)"/>
      <path id="DejaVuSans-3d" d="M 678 2906 
L 4684 2906 
L 4684 2381 
L 678 2381 
L 678 2906 
z
M 678 1631 
L 4684 1631 
L 4684 1100 
L 678 1100 
L 678 1631 
z
" transform="scale(0.015625)"/>
      <path id="DejaVuSans-48" d="M 628 4666 
L 1259 4666 
L 1259 2753 
L 3553 2753 
L 3553 4666 
L 4184 4666 
L 4184 0 
L 3553 0 
L 3553 2222 
L 1259 2222 
L 1259 0 
L 628 0 
L 628 4666 
z
" transform="scale(0.015625)"/>
      <path id="DejaVuSans-7a" d="M 353 3500 
L 3084 3500 
L 3084 2975 
L 922 459 
L 3084 459 
L 3084 0 
L 275 0 
L 275 525 
L 2438 3041 
L 353 3041 
L 353 3500 
z
" transform="scale(0.015625)"/>
     </defs>
     <use xlink:href="#DejaVuSans-66"/>
     <use xlink:href="#DejaVuSans-20" x="35.205078"/>
     <use xlink:href="#DejaVuSans-3d" x="66.992188"/>
     <use xlink:href="#DejaVuSans-20" x="150.78125"/>
     <use xlink:href="#DejaVuSans-35" x="182.568359"/>
     <use xlink:href="#DejaVuSans-48" x="246.191406"/>
     <use xlink:href="#DejaVuSans-7a" x="321.386719"/>
    </g>
   </g>
  </g>
  <g id="axes_2">
   <g id="patch_7">
    <path d="M 42.1 414.92 
L 853.2 414.92 
L 853.2 252.24 
L 42.1 252.24 
z
" style="fill: #ffffff"/>
   </g>
   <g id="matplotlib.axis_3">
    <g id="xtick_7">
     <g id="line2d_15">
      <g>
       <use xlink:href="#mabf02fd2c5" x="78.968182" y="414.92" style="stroke: #000000; stroke-width: 0.8"/>
      </g>
     </g>
     <g id="text_13">
      <!-- 0.0 -->
      <g transform="translate(71.016619 429.518437) scale(0.1 -0.1)">
       <use xlink:href="#DejaVuSans-30"/>
       <use xlink:href="#DejaVuSans-2e" x="63.623047"/>
       <use xlink:href="#DejaVuSans-30" x="95.410156"/>
      </g>
     </g>
    </g>
    <g id="xtick_8">
     <g id="line2d_16">
      <g>
       <use xlink:href="#mabf02fd2c5" x="226.588529" y="414.92" style="stroke: #000000; stroke-width: 0.8"/>
      </g>
     </g>
     <g id="text_14">
      <!-- 0.2 -->
      <g transform="translate(218.636967 429.518437) scale(0.1 -0.1)">
       <use xlink:href="#DejaVuSans-30"/>
       <use xlink:href="#DejaVuSans-2e" x="63.623047"/>
       <use xlink:href="#DejaVuSans-32" x="95.410156"/>
      </g>
     </g>
    </g>
    <g id="xtick_9">
     <g id="line2d_17">
      <g>
       <use xlink:href="#mabf02fd2c5" x="374.208877" y="414.92" style="stroke: #000000; stroke-width: 0.8"/>
      </g>
     </g>
     <g id="text_15">
      <!-- 0.4 -->
      <g transform="translate(366.257315 429.518437) scale(0.1 -0.1)">
       <use xlink:href="#DejaVuSans-30"/>
       <use xlink:href="#DejaVuSans-2e" x="63.623047"/>
       <use xlink:href="#DejaVuSans-34" x="95.410156"/>
      </g>
     </g>
    </g>
    <g id="xtick_10">
     <g id="line2d_18">
      <g>
       <use xlink:href="#mabf02fd2c5" x="521.829225" y="414.92" style="stroke: #000000; stroke-width: 0.8"/>
      </g>
     </g>
     <g id="text_16">
      <!-- 0.6 -->
      <g transform="translate(513.877662 429.518437) scale(0.1 -0.1)">
       <use xlink:href="#DejaVuSans-30"/>
       <use xlink:href="#DejaVuSans-2e" x="63.623047"/>
       <use xlink:href="#DejaVuSans-36" x="95.410156"/>
      </g>
     </g>
    </g>
    <g id="xtick_11">
     <g id="line2d_19">
      <g>
       <use xlink:href="#mabf02fd2c5" x="669.449572" y="414.92" style="stroke: #000000; stroke-width: 0.8"/>
      </g>
     </g>
     <g id="text_17">
      <!-- 0.8 -->
      <g transform="translate(661.49801 429.518437) scale(0.1 -0.1)">
       <use xlink:href="#DejaVuSans-30"/>
       <use xlink:href="#DejaVuSans-2e" x="63.623047"/>
       <use xlink:href="#DejaVuSans-38" x="95.410156"/>
      </g>
     </g>
    </g>
    <g id="xtick_12">
     <g id="line2d_20">
      <g>
       <use xlink:href="#mabf02fd2c5" x="817.06992" y="414.92" style="stroke: #000000; stroke-width: 0.8"/>
      </g>
     </g>
     <g id="text_18">
      <!-- 1.0 -->
      <g transform="translate(809.118357 429.518437) scale(0.1 -0.1)">
       <use xlink:href="#DejaVuSans-31"/>
       <use xlink:href="#DejaVuSans-2e" x="63.623047"/>
       <use xlink:href="#DejaVuSans-30" x="95.410156"/>
      </g>
     </g>
    </g>
   </g>
   <g id="matplotlib.axis_4">
    <g id="ytick_6">
     <g id="line2d_21">
      <g>
       <use xlink:href="#me07536f7f7" x="42.1" y="407.525455" style="stroke: #000000; stroke-width: 0.8"/>
      </g>
     </g>
     <g id="text_19">
      <!-- −1.0 -->
      <g transform="translate(10.817188 411.324673) scale(0.1 -0.1)">
       <use xlink:href="#DejaVuSans-2212"/>
       <use xlink:href="#DejaVuSans-31" x="83.789062"/>
       <use xlink:href="#DejaVuSans-2e" x="147.412109"/>
       <use xlink:href="#DejaVuSans-30" x="179.199219"/>
      </g>
     </g>
    </g>
    <g id="ytick_7">
     <g id="line2d_22">
      <g>
       <use xlink:href="#me07536f7f7" x="42.1" y="370.552727" style="stroke: #000000; stroke-width: 0.8"/>
      </g>
     </g>
     <g id="text_20">
      <!-- −0.5 -->
      <g transform="translate(10.817188 374.351946) scale(0.1 -0.1)">
       <use xlink:href="#DejaVuSans-2212"/>
       <use xlink:href="#DejaVuSans-30" x="83.789062"/>
       <use xlink:href="#DejaVuSans-2e" x="147.412109"/>
       <use xlink:href="#DejaVuSans-35" x="179.199219"/>
      </g>
     </g>
    </g>
    <g id="ytick_8">
     <g id="line2d_23">
      <g>
       <use xlink:href="#me07536f7f7" x="42.1" y="333.58" style="stroke: #000000; stroke-width: 0.8"/>
      </g>
     </g>
     <g id="text_21">
      <!-- 0.0 -->
      <g transform="translate(19.196875 337.379219) scale(0.1 -0.1)">
       <use xlink:href="#DejaVuSans-30"/>
       <use xlink:href="#DejaVuSans-2e" x="63.623047"/>
       <use xlink:href="#DejaVuSans-30" x="95.410156"/>
      </g>
     </g>
    </g>
    <g id="ytick_9">
     <g id="line2d_24">
      <g>
       <use xlink:href="#me07536f7f7" x="42.1" y="296.607273" style="stroke: #000000; stroke-width: 0.8"/>
      </g>
     </g>
     <g id="text_22">
      <!-- 0.5 -->
      <g transform="translate(19.196875 300.406491) scale(0.1 -0.1)">
       <use xlink:href="#DejaVuSans-30"/>
       <use xlink:href="#DejaVuSans-2e" x="63.623047"/>
       <use xlink:href="#DejaVuSans-35" x="95.410156"/>
      </g>
     </g>
    </g>
    <g id="ytick_10">
     <g id="line2d_25">
      <g>
       <use xlink:href="#me07536f7f7" x="42.1" y="259.634545" style="stroke: #000000; stroke-width: 0.8"/>
      </g>
     </g>
     <g id="text_23">
      <!-- 1.0 -->
      <g transform="translate(19.196875 263.433764) scale(0.1 -0.1)">
       <use xlink:href="#DejaVuSans-31"/>
       <use xlink:href="#DejaVuSans-2e" x="63.623047"/>
       <use xlink:href="#DejaVuSans-30" x="95.410156"/>
      </g>
     </g>
    </g>
   </g>
   <g id="line2d_26">
    <path d="M 78.968182 333.58 
L 83.396792 308.969507 
L 86.349199 293.958044 
L 88.563504 283.98585 
L 90.039708 278.112696 
L 91.515911 272.948269 
L 92.992115 268.558556 
L 94.468318 264.999647 
L 95.944522 262.317015 
L 96.682624 261.315464 
L 97.420725 260.544937 
L 98.158827 260.007895 
L 98.896929 259.706056 
L 99.63503 259.640384 
L 100.373132 259.81109 
L 101.111234 260.217627 
L 101.849336 260.858697 
L 102.587437 261.73225 
L 103.325539 262.835492 
L 104.801743 265.716217 
L 106.277946 269.464063 
L 107.75415 274.031142 
L 109.230353 279.3591 
L 110.706557 285.379859 
L 112.920862 295.539535 
L 115.135167 306.791383 
L 118.825676 327.083803 
L 124.73049 359.935038 
L 126.944795 371.221299 
L 129.1591 381.426847 
L 130.635303 387.483917 
L 132.111507 392.852235 
L 133.58771 397.46321 
L 135.063914 401.257925 
L 136.540117 404.187893 
L 137.278219 405.316452 
L 138.016321 406.215677 
L 138.754423 406.882693 
L 139.492524 407.315368 
L 140.230626 407.512318 
L 140.968728 407.472914 
L 141.70683 407.197282 
L 142.444931 406.686303 
L 143.183033 405.94161 
L 143.921135 404.965584 
L 144.659237 403.761346 
L 146.13544 400.684348 
L 147.611643 396.749933 
L 149.087847 392.008372 
L 150.56405 386.520249 
L 152.040254 380.355688 
L 154.254559 370.014947 
L 156.468864 358.628129 
L 160.159373 338.223074 
L 165.326085 309.408116 
L 168.278492 294.351109 
L 170.492797 284.33145 
L 171.969001 278.421043 
L 173.445204 273.215423 
L 174.921408 268.781104 
L 176.397611 265.174745 
L 177.873815 262.442427 
L 178.611916 261.415391 
L 179.350018 260.619059 
L 180.08812 260.055976 
L 180.826222 259.727942 
L 181.564323 259.636005 
L 182.302425 259.78046 
L 183.040527 260.160844 
L 183.778629 260.775943 
L 184.51673 261.623788 
L 185.254832 262.701671 
L 186.731036 265.533038 
L 188.207239 269.233867 
L 189.683443 273.756871 
L 191.159646 279.044257 
L 192.635849 285.028468 
L 194.850155 295.14187 
L 197.06446 306.358863 
L 200.016867 322.471501 
L 207.397884 363.3731 
L 209.612189 374.371705 
L 211.826495 384.199147 
L 213.302698 389.959158 
L 214.778902 394.998791 
L 216.255105 399.253653 
L 217.731309 402.669378 
L 219.207512 405.202322 
L 219.945614 406.127184 
L 220.683716 406.82012 
L 221.421817 407.278915 
L 222.159919 407.502102 
L 222.898021 407.488967 
L 223.636122 407.239553 
L 224.374224 406.754656 
L 225.112326 406.035827 
L 225.850428 405.085365 
L 226.588529 403.906306 
L 228.064733 400.8782 
L 229.540936 396.990198 
L 231.01714 392.291981 
L 232.493343 386.843578 
L 233.969547 380.714607 
L 236.183852 370.418524 
L 238.398157 359.064778 
L 242.088666 338.686675 
L 247.255378 309.847679 
L 250.207785 294.745723 
L 252.42209 284.678994 
L 253.898294 278.731567 
L 255.374497 273.484961 
L 256.850701 269.006211 
L 258.326904 265.352545 
L 259.803108 262.570647 
L 260.541209 261.518167 
L 261.279311 260.696062 
L 262.017413 260.10696 
L 262.755515 259.752744 
L 263.493616 259.634545 
L 264.231718 259.752744 
L 264.96982 260.10696 
L 265.707922 260.696062 
L 266.446023 261.518167 
L 267.184125 262.570647 
L 267.922227 263.850136 
L 269.39843 267.07307 
L 270.874634 271.145788 
L 272.350837 276.016251 
L 273.827041 281.622229 
L 276.041346 291.251246 
L 278.255651 302.095557 
L 281.208058 317.903038 
L 290.065279 366.735901 
L 292.279584 377.419067 
L 294.493889 386.843578 
L 295.970093 392.291981 
L 297.446296 396.990198 
L 298.9225 400.8782 
L 300.398703 403.906306 
L 301.136805 405.085365 
L 301.874907 406.035827 
L 302.613008 406.754656 
L 303.35111 407.239553 
L 304.089212 407.488967 
L 304.827314 407.502102 
L 305.565415 407.278915 
L 306.303517 406.82012 
L 307.041619 406.127184 
L 307.779721 405.202322 
L 308.517822 404.048491 
L 309.994026 401.069394 
L 311.470229 397.22796 
L 312.946433 392.573272 
L 314.422636 387.164805 
L 315.89884 381.071664 
L 318.113145 370.820647 
L 320.32745 359.50042 
L 324.017959 339.150075 
L 329.922773 306.358863 
L 332.137078 295.14187 
L 334.351383 285.028468 
L 335.827587 279.044257 
L 337.30379 273.756871 
L 338.779994 269.233867 
L 340.256197 265.533038 
L 341.732401 262.701671 
L 342.470502 261.623788 
L 343.208604 260.775943 
L 343.946706 260.160844 
L 344.684808 259.78046 
L 345.422909 259.636005 
L 346.161011 259.727942 
L 346.899113 260.055976 
L 347.637214 260.619059 
L 348.375316 261.415391 
L 349.113418 262.442427 
L 349.85152 263.696881 
L 351.327723 266.871294 
L 352.803927 270.89807 
L 354.28013 275.725756 
L 355.756334 281.292668 
L 357.970639 290.871124 
L 360.184944 301.675787 
L 363.137351 317.449299 
L 371.994572 366.319959 
L 374.208877 377.044048 
L 376.423182 386.520249 
L 377.899386 392.008372 
L 379.375589 396.749933 
L 380.851793 400.684348 
L 382.327996 403.761346 
L 383.066098 404.965584 
L 383.8042 405.94161 
L 384.542301 406.686303 
L 385.280403 407.197282 
L 386.018505 407.472914 
L 386.756607 407.512318 
L 387.494708 407.315368 
L 388.23281 406.882693 
L 388.970912 406.215677 
L 389.709014 405.316452 
L 390.447115 404.187893 
L 391.923319 401.257925 
L 393.399522 397.46321 
L 394.875726 392.852235 
L 396.351929 387.483917 
L 397.828133 381.426847 
L 400.042438 371.221299 
L 402.256743 359.935038 
L 405.947252 339.613255 
L 411.852066 306.791383 
L 414.066371 295.539535 
L 416.280676 285.379859 
L 417.75688 279.3591 
L 419.233083 274.031142 
L 420.709287 269.464063 
L 422.18549 265.716217 
L 423.661694 262.835492 
L 424.399795 261.73225 
L 425.137897 260.858697 
L 425.875999 260.217627 
L 426.6141 259.81109 
L 427.352202 259.640384 
L 428.090304 259.706056 
L 428.828406 260.007895 
L 429.566507 260.544937 
L 430.304609 261.315464 
L 431.042711 262.317015 
L 431.780813 263.546385 
L 433.257016 266.672152 
L 434.73322 270.652826 
L 436.209423 275.437544 
L 437.685627 280.965171 
L 439.899932 290.492688 
L 442.114237 301.257276 
L 445.066644 316.996197 
L 453.923865 365.902724 
L 456.13817 376.667312 
L 458.352475 386.194829 
L 459.828679 391.722456 
L 461.304882 396.507174 
L 462.781086 400.487848 
L 464.257289 403.613615 
L 464.995391 404.842985 
L 465.733493 405.844536 
L 466.471594 406.615063 
L 467.209696 407.152105 
L 467.947798 407.453944 
L 468.6859 407.519616 
L 469.424001 407.34891 
L 470.162103 406.942373 
L 470.900205 406.301303 
L 471.638306 405.42775 
L 472.376408 404.324508 
L 473.852612 401.443783 
L 475.328815 397.695937 
L 476.805019 393.128858 
L 478.281222 387.8009 
L 479.757426 381.780141 
L 481.971731 371.620465 
L 484.186036 360.368617 
L 487.876545 340.076197 
L 493.781359 307.224962 
L 495.995664 295.938701 
L 498.209969 285.733153 
L 499.686173 279.676083 
L 501.162376 274.307765 
L 502.638579 269.69679 
L 504.114783 265.902075 
L 505.590986 262.972107 
L 506.329088 261.843548 
L 507.06719 260.944323 
L 507.805292 260.277307 
L 508.543393 259.844632 
L 509.281495 259.647682 
L 510.019597 259.687086 
L 510.757699 259.962718 
L 511.4958 260.473697 
L 512.233902 261.21839 
L 512.972004 262.194416 
L 513.710106 263.398654 
L 515.186309 266.475652 
L 516.662513 270.410067 
L 518.138716 275.151628 
L 519.614919 280.639751 
L 521.091123 286.804312 
L 523.305428 297.145053 
L 525.519733 308.531871 
L 529.210242 328.936926 
L 534.376954 357.751884 
L 537.329361 372.808891 
L 539.543666 382.82855 
L 541.01987 388.738957 
L 542.496073 393.944577 
L 543.972277 398.378896 
L 545.44848 401.985255 
L 546.924684 404.717573 
L 547.662786 405.744609 
L 548.400887 406.540941 
L 549.138989 407.104024 
L 549.877091 407.432058 
L 550.615192 407.523995 
L 551.353294 407.37954 
L 552.091396 406.999156 
L 552.829498 406.384057 
L 553.567599 405.536212 
L 554.305701 404.458329 
L 555.781905 401.626962 
L 557.258108 397.926133 
L 558.734312 393.403129 
L 560.210515 388.115743 
L 561.686719 382.131532 
L 563.901024 372.01813 
L 566.115329 360.801137 
L 569.067736 344.688499 
L 576.448753 303.7869 
L 578.663059 292.788295 
L 580.877364 282.960853 
L 582.353567 277.200842 
L 583.829771 272.161209 
L 585.305974 267.906347 
L 586.782178 264.490622 
L 588.258381 261.957678 
L 588.996483 261.032816 
L 589.734585 260.33988 
L 590.472686 259.881085 
L 591.210788 259.657898 
L 591.94889 259.671033 
L 592.686992 259.920447 
L 593.425093 260.405344 
L 594.163195 261.124173 
L 594.901297 262.074635 
L 595.639398 263.253694 
L 597.115602 266.2818 
L 598.591805 270.169802 
L 600.068009 274.868019 
L 601.544212 280.316422 
L 603.020416 286.445393 
L 605.234721 296.741476 
L 607.449026 308.095222 
L 611.139535 328.473325 
L 616.306247 357.312321 
L 619.258654 372.414277 
L 621.472959 382.481006 
L 622.949163 388.428433 
L 624.425366 393.675039 
L 625.90157 398.153789 
L 627.377773 401.807455 
L 628.853977 404.589353 
L 629.592078 405.641833 
L 630.33018 406.463938 
L 631.068282 407.05304 
L 631.806384 407.407256 
L 632.544485 407.525455 
L 633.282587 407.407256 
L 634.020689 407.05304 
L 634.758791 406.463938 
L 635.496892 405.641833 
L 636.234994 404.589353 
L 636.973096 403.309864 
L 638.449299 400.08693 
L 639.925503 396.014212 
L 641.401706 391.143749 
L 642.87791 385.537771 
L 645.092215 375.908754 
L 647.30652 365.064443 
L 650.258927 349.256962 
L 659.116148 300.424099 
L 661.330453 289.740933 
L 663.544758 280.316422 
L 665.020962 274.868019 
L 666.497165 270.169802 
L 667.973369 266.2818 
L 669.449572 263.253694 
L 670.187674 262.074635 
L 670.925776 261.124173 
L 671.663878 260.405344 
L 672.401979 259.920447 
L 673.140081 259.671033 
L 673.878183 259.657898 
L 674.616284 259.881085 
L 675.354386 260.33988 
L 676.092488 261.032816 
L 676.83059 261.957678 
L 677.568691 263.111509 
L 679.044895 266.090606 
L 680.521098 269.93204 
L 681.997302 274.586728 
L 683.473505 279.995195 
L 684.949709 286.088336 
L 687.164014 296.339353 
L 689.378319 307.65958 
L 693.068828 328.009925 
L 698.973642 360.801137 
L 701.187947 372.01813 
L 703.402252 382.131532 
L 704.878456 388.115743 
L 706.354659 393.403129 
L 707.830863 397.926133 
L 709.307066 401.626962 
L 710.78327 404.458329 
L 711.521371 405.536212 
L 712.259473 406.384057 
L 712.997575 406.999156 
L 713.735677 407.37954 
L 714.473778 407.523995 
L 715.21188 407.432058 
L 715.949982 407.104024 
L 716.688084 406.540941 
L 717.426185 405.744609 
L 718.164287 404.717573 
L 718.902389 403.463119 
L 720.378592 400.288706 
L 721.854796 396.26193 
L 723.330999 391.434244 
L 724.807203 385.867332 
L 727.021508 376.288876 
L 729.235813 365.484213 
L 732.18822 349.710701 
L 741.045441 300.840041 
L 743.259746 290.115952 
L 745.474051 280.639751 
L 746.950255 275.151628 
L 748.426458 270.410067 
L 749.902662 266.475652 
L 751.378865 263.398654 
L 752.116967 262.194416 
L 752.855069 261.21839 
L 753.59317 260.473697 
L 754.331272 259.962718 
L 755.069374 259.687086 
L 755.807476 259.647682 
L 756.545577 259.844632 
L 757.283679 260.277307 
L 758.021781 260.944323 
L 758.759883 261.843548 
L 759.497984 262.972107 
L 760.974188 265.902075 
L 762.450391 269.69679 
L 763.926595 274.307765 
L 765.402798 279.676083 
L 766.879002 285.733153 
L 769.093307 295.938701 
L 771.307612 307.224962 
L 774.998121 327.546745 
L 780.902935 360.368617 
L 783.11724 371.620465 
L 785.331545 381.780141 
L 786.807749 387.8009 
L 788.283952 393.128858 
L 789.760156 397.695937 
L 791.236359 401.443783 
L 792.712563 404.324508 
L 793.450664 405.42775 
L 794.188766 406.301303 
L 794.926868 406.942373 
L 795.66497 407.34891 
L 796.403071 407.519616 
L 797.141173 407.453944 
L 797.879275 407.152105 
L 798.617376 406.615063 
L 799.355478 405.844536 
L 800.09358 404.842985 
L 800.831682 403.613615 
L 802.307885 400.487848 
L 803.784089 396.507174 
L 805.260292 391.722456 
L 806.736496 386.194829 
L 808.950801 376.667312 
L 811.165106 365.902724 
L 814.117513 350.163803 
L 816.331818 337.759289 
L 816.331818 337.759289 
" clip-path="url(#pd33c815d67)" style="fill: none; stroke: #ff0000; stroke-width: 1.5; stroke-linecap: square"/>
   </g>
   <g id="LineCollection_2">
    <path d="M 78.968182 333.58 
L 78.968182 333.58 
" clip-path="url(#pd33c815d67)" style="fill: none; stroke: #000000; stroke-width: 1.5"/>
    <path d="M 263.493616 333.58 
L 263.493616 259.634545 
" clip-path="url(#pd33c815d67)" style="fill: none; stroke: #000000; stroke-width: 1.5"/>
    <path d="M 448.019051 333.58 
L 448.019051 333.58 
" clip-path="url(#pd33c815d67)" style="fill: none; stroke: #000000; stroke-width: 1.5"/>
    <path d="M 632.544485 333.58 
L 632.544485 407.525455 
" clip-path="url(#pd33c815d67)" style="fill: none; stroke: #000000; stroke-width: 1.5"/>
   </g>
   <g id="line2d_27">
    <g clip-path="url(#pd33c815d67)">
     <use xlink:href="#m978b152ae3" x="78.968182" y="333.58" style="stroke: #000000"/>
     <use xlink:href="#m978b152ae3" x="263.493616" y="259.634545" style="stroke: #000000"/>
     <use xlink:href="#m978b152ae3" x="448.019051" y="333.58" style="stroke: #000000"/>
     <use xlink:href="#m978b152ae3" x="632.544485" y="407.525455" style="stroke: #000000"/>
    </g>
   </g>
   <g id="line2d_28">
    <path d="M 78.968182 333.58 
L 632.544485 333.58 
" clip-path="url(#pd33c815d67)" style="fill: none; stroke: #000000; stroke-width: 1.5; stroke-linecap: square"/>
   </g>
   <g id="LineCollection_3">
    <path d="M 78.968182 333.58 
L 78.968182 333.58 
" clip-path="url(#pd33c815d67)" style="fill: none; stroke: #000000; stroke-width: 1.5"/>
    <path d="M 263.493616 333.58 
L 263.493616 259.634545 
" clip-path="url(#pd33c815d67)" style="fill: none; stroke: #000000; stroke-width: 1.5"/>
    <path d="M 448.019051 333.58 
L 448.019051 333.58 
" clip-path="url(#pd33c815d67)" style="fill: none; stroke: #000000; stroke-width: 1.5"/>
    <path d="M 632.544485 333.58 
L 632.544485 407.525455 
" clip-path="url(#pd33c815d67)" style="fill: none; stroke: #000000; stroke-width: 1.5"/>
   </g>
   <g id="line2d_29">
    <g clip-path="url(#pd33c815d67)">
     <use xlink:href="#m978b152ae3" x="78.968182" y="333.58" style="stroke: #000000"/>
     <use xlink:href="#m978b152ae3" x="263.493616" y="259.634545" style="stroke: #000000"/>
     <use xlink:href="#m978b152ae3" x="448.019051" y="333.58" style="stroke: #000000"/>
     <use xlink:href="#m978b152ae3" x="632.544485" y="407.525455" style="stroke: #000000"/>
    </g>
   </g>
   <g id="line2d_30">
    <path d="M 78.968182 333.58 
L 632.544485 333.58 
" clip-path="url(#pd33c815d67)" style="fill: none; stroke: #000000; stroke-width: 1.5; stroke-linecap: square"/>
   </g>
   <g id="patch_8">
    <path d="M 42.1 414.92 
L 42.1 252.24 
" style="fill: none; stroke: #000000; stroke-width: 0.8; stroke-linejoin: miter; stroke-linecap: square"/>
   </g>
   <g id="patch_9">
    <path d="M 853.2 414.92 
L 853.2 252.24 
" style="fill: none; stroke: #000000; stroke-width: 0.8; stroke-linejoin: miter; stroke-linecap: square"/>
   </g>
   <g id="patch_10">
    <path d="M 42.1 414.92 
L 853.2 414.92 
" style="fill: none; stroke: #000000; stroke-width: 0.8; stroke-linejoin: miter; stroke-linecap: square"/>
   </g>
   <g id="patch_11">
    <path d="M 42.1 252.24 
L 853.2 252.24 
" style="fill: none; stroke: #000000; stroke-width: 0.8; stroke-linejoin: miter; stroke-linecap: square"/>
   </g>
   <g id="text_24">
    <!-- f = 9Hz -->
    <g transform="translate(425.2175 246.24) scale(0.12 -0.12)">
     <defs>
      <path id="DejaVuSans-39" d="M 703 97 
L 703 672 
Q 941 559 1184 500 
Q 1428 441 1663 441 
Q 2288 441 2617 861 
Q 2947 1281 2994 2138 
Q 2813 1869 2534 1725 
Q 2256 1581 1919 1581 
Q 1219 1581 811 2004 
Q 403 2428 403 3163 
Q 403 3881 828 4315 
Q 1253 4750 1959 4750 
Q 2769 4750 3195 4129 
Q 3622 3509 3622 2328 
Q 3622 1225 3098 567 
Q 2575 -91 1691 -91 
Q 1453 -91 1209 -44 
Q 966 3 703 97 
z
M 1959 2075 
Q 2384 2075 2632 2365 
Q 2881 2656 2881 3163 
Q 2881 3666 2632 3958 
Q 2384 4250 1959 4250 
Q 1534 4250 1286 3958 
Q 1038 3666 1038 3163 
Q 1038 2656 1286 2365 
Q 1534 2075 1959 2075 
z
" transform="scale(0.015625)"/>
     </defs>
     <use xlink:href="#DejaVuSans-66"/>
     <use xlink:href="#DejaVuSans-20" x="35.205078"/>
     <use xlink:href="#DejaVuSans-3d" x="66.992188"/>
     <use xlink:href="#DejaVuSans-20" x="150.78125"/>
     <use xlink:href="#DejaVuSans-39" x="182.568359"/>
     <use xlink:href="#DejaVuSans-48" x="246.191406"/>
     <use xlink:href="#DejaVuSans-7a" x="321.386719"/>
    </g>
   </g>
  </g>
  <g id="axes_3">
   <g id="patch_12">
    <path d="M 42.1 620.12 
L 853.2 620.12 
L 853.2 457.44 
L 42.1 457.44 
z
" style="fill: #ffffff"/>
   </g>
   <g id="matplotlib.axis_5">
    <g id="xtick_13">
     <g id="line2d_31">
      <g>
       <use xlink:href="#mabf02fd2c5" x="78.968182" y="620.12" style="stroke: #000000; stroke-width: 0.8"/>
      </g>
     </g>
     <g id="text_25">
      <!-- 0.0 -->
      <g transform="translate(71.016619 634.718437) scale(0.1 -0.1)">
       <use xlink:href="#DejaVuSans-30"/>
       <use xlink:href="#DejaVuSans-2e" x="63.623047"/>
       <use xlink:href="#DejaVuSans-30" x="95.410156"/>
      </g>
     </g>
    </g>
    <g id="xtick_14">
     <g id="line2d_32">
      <g>
       <use xlink:href="#mabf02fd2c5" x="226.588529" y="620.12" style="stroke: #000000; stroke-width: 0.8"/>
      </g>
     </g>
     <g id="text_26">
      <!-- 0.2 -->
      <g transform="translate(218.636967 634.718437) scale(0.1 -0.1)">
       <use xlink:href="#DejaVuSans-30"/>
       <use xlink:href="#DejaVuSans-2e" x="63.623047"/>
       <use xlink:href="#DejaVuSans-32" x="95.410156"/>
      </g>
     </g>
    </g>
    <g id="xtick_15">
     <g id="line2d_33">
      <g>
       <use xlink:href="#mabf02fd2c5" x="374.208877" y="620.12" style="stroke: #000000; stroke-width: 0.8"/>
      </g>
     </g>
     <g id="text_27">
      <!-- 0.4 -->
      <g transform="translate(366.257315 634.718437) scale(0.1 -0.1)">
       <use xlink:href="#DejaVuSans-30"/>
       <use xlink:href="#DejaVuSans-2e" x="63.623047"/>
       <use xlink:href="#DejaVuSans-34" x="95.410156"/>
      </g>
     </g>
    </g>
    <g id="xtick_16">
     <g id="line2d_34">
      <g>
       <use xlink:href="#mabf02fd2c5" x="521.829225" y="620.12" style="stroke: #000000; stroke-width: 0.8"/>
      </g>
     </g>
     <g id="text_28">
      <!-- 0.6 -->
      <g transform="translate(513.877662 634.718437) scale(0.1 -0.1)">
       <use xlink:href="#DejaVuSans-30"/>
       <use xlink:href="#DejaVuSans-2e" x="63.623047"/>
       <use xlink:href="#DejaVuSans-36" x="95.410156"/>
      </g>
     </g>
    </g>
    <g id="xtick_17">
     <g id="line2d_35">
      <g>
       <use xlink:href="#mabf02fd2c5" x="669.449572" y="620.12" style="stroke: #000000; stroke-width: 0.8"/>
      </g>
     </g>
     <g id="text_29">
      <!-- 0.8 -->
      <g transform="translate(661.49801 634.718437) scale(0.1 -0.1)">
       <use xlink:href="#DejaVuSans-30"/>
       <use xlink:href="#DejaVuSans-2e" x="63.623047"/>
       <use xlink:href="#DejaVuSans-38" x="95.410156"/>
      </g>
     </g>
    </g>
    <g id="xtick_18">
     <g id="line2d_36">
      <g>
       <use xlink:href="#mabf02fd2c5" x="817.06992" y="620.12" style="stroke: #000000; stroke-width: 0.8"/>
      </g>
     </g>
     <g id="text_30">
      <!-- 1.0 -->
      <g transform="translate(809.118357 634.718437) scale(0.1 -0.1)">
       <use xlink:href="#DejaVuSans-31"/>
       <use xlink:href="#DejaVuSans-2e" x="63.623047"/>
       <use xlink:href="#DejaVuSans-30" x="95.410156"/>
      </g>
     </g>
    </g>
   </g>
   <g id="matplotlib.axis_6">
    <g id="ytick_11">
     <g id="line2d_37">
      <g>
       <use xlink:href="#me07536f7f7" x="42.1" y="612.725455" style="stroke: #000000; stroke-width: 0.8"/>
      </g>
     </g>
     <g id="text_31">
      <!-- −1.0 -->
      <g transform="translate(10.817188 616.524673) scale(0.1 -0.1)">
       <use xlink:href="#DejaVuSans-2212"/>
       <use xlink:href="#DejaVuSans-31" x="83.789062"/>
       <use xlink:href="#DejaVuSans-2e" x="147.412109"/>
       <use xlink:href="#DejaVuSans-30" x="179.199219"/>
      </g>
     </g>
    </g>
    <g id="ytick_12">
     <g id="line2d_38">
      <g>
       <use xlink:href="#me07536f7f7" x="42.1" y="575.752727" style="stroke: #000000; stroke-width: 0.8"/>
      </g>
     </g>
     <g id="text_32">
      <!-- −0.5 -->
      <g transform="translate(10.817188 579.551946) scale(0.1 -0.1)">
       <use xlink:href="#DejaVuSans-2212"/>
       <use xlink:href="#DejaVuSans-30" x="83.789062"/>
       <use xlink:href="#DejaVuSans-2e" x="147.412109"/>
       <use xlink:href="#DejaVuSans-35" x="179.199219"/>
      </g>
     </g>
    </g>
    <g id="ytick_13">
     <g id="line2d_39">
      <g>
       <use xlink:href="#me07536f7f7" x="42.1" y="538.78" style="stroke: #000000; stroke-width: 0.8"/>
      </g>
     </g>
     <g id="text_33">
      <!-- 0.0 -->
      <g transform="translate(19.196875 542.579219) scale(0.1 -0.1)">
       <use xlink:href="#DejaVuSans-30"/>
       <use xlink:href="#DejaVuSans-2e" x="63.623047"/>
       <use xlink:href="#DejaVuSans-30" x="95.410156"/>
      </g>
     </g>
    </g>
    <g id="ytick_14">
     <g id="line2d_40">
      <g>
       <use xlink:href="#me07536f7f7" x="42.1" y="501.807273" style="stroke: #000000; stroke-width: 0.8"/>
      </g>
     </g>
     <g id="text_34">
      <!-- 0.5 -->
      <g transform="translate(19.196875 505.606491) scale(0.1 -0.1)">
       <use xlink:href="#DejaVuSans-30"/>
       <use xlink:href="#DejaVuSans-2e" x="63.623047"/>
       <use xlink:href="#DejaVuSans-35" x="95.410156"/>
      </g>
     </g>
    </g>
    <g id="ytick_15">
     <g id="line2d_41">
      <g>
       <use xlink:href="#me07536f7f7" x="42.1" y="464.834545" style="stroke: #000000; stroke-width: 0.8"/>
      </g>
     </g>
     <g id="text_35">
      <!-- 1.0 -->
      <g transform="translate(19.196875 468.633764) scale(0.1 -0.1)">
       <use xlink:href="#DejaVuSans-31"/>
       <use xlink:href="#DejaVuSans-2e" x="63.623047"/>
       <use xlink:href="#DejaVuSans-30" x="95.410156"/>
      </g>
     </g>
    </g>
   </g>
   <g id="line2d_42">
    <path d="M 78.968182 538.78 
L 82.658691 509.412719 
L 84.872996 493.826318 
L 86.349199 484.876083 
L 87.825403 477.361209 
L 89.301606 471.4818 
L 90.039708 469.206144 
L 90.77781 467.394416 
L 91.515911 466.058697 
L 92.254013 465.207895 
L 92.992115 464.847682 
L 93.730217 464.98046 
L 94.468318 465.605344 
L 95.20642 466.718167 
L 95.944522 468.311509 
L 96.682624 470.374745 
L 97.420725 472.894118 
L 98.896929 479.231142 
L 100.373132 487.153841 
L 101.849336 496.451246 
L 104.063641 512.424962 
L 107.016048 535.992982 
L 110.706557 565.568617 
L 112.920862 581.488876 
L 114.397065 590.737771 
L 115.873269 598.603129 
L 117.349472 604.87551 
L 118.087574 607.360353 
L 118.825676 609.387893 
L 119.563777 610.944609 
L 120.301879 612.02012 
L 121.039981 612.607256 
L 121.778083 612.702102 
L 122.516184 612.304024 
L 123.254286 611.415677 
L 123.992388 610.042985 
L 124.73049 608.195102 
L 125.468591 605.884348 
L 126.944795 599.938849 
L 128.420998 592.364805 
L 129.897202 583.363899 
L 131.373405 573.175808 
L 133.58771 556.268026 
L 140.230626 503.56435 
L 141.70683 493.458309 
L 143.183033 484.5591 
L 144.659237 477.103691 
L 146.13544 471.290606 
L 146.873542 469.050136 
L 147.611643 467.274635 
L 148.349745 465.975943 
L 149.087847 465.162718 
L 149.825949 464.840384 
L 150.56405 465.01109 
L 151.302152 465.673697 
L 152.040254 466.823788 
L 152.778356 468.453694 
L 153.516457 470.552545 
L 154.254559 473.106347 
L 155.730763 479.507765 
L 157.206966 487.487491 
L 158.68317 496.83304 
L 160.897475 512.85958 
L 163.849882 536.457317 
L 167.54039 566.001137 
L 169.754696 581.867312 
L 171.230899 591.067332 
L 172.707103 598.875039 
L 174.183306 605.082529 
L 174.921408 607.532745 
L 175.65951 609.524508 
L 176.397611 611.044536 
L 177.135713 612.082693 
L 177.873815 612.632058 
L 178.611916 612.688967 
L 179.350018 612.25304 
L 180.08812 611.327184 
L 180.826222 609.917573 
L 181.564323 608.033607 
L 182.302425 605.687848 
L 183.778629 599.676492 
L 185.254832 592.043578 
L 186.731036 582.992356 
L 188.945341 567.292184 
L 191.897748 543.886675 
L 196.326358 508.562258 
L 198.540663 493.09209 
L 200.016867 484.244257 
L 201.49307 476.848608 
L 202.969274 471.102075 
L 203.707376 468.896881 
L 204.445477 467.157678 
L 205.183579 465.896062 
L 205.921681 465.120447 
L 206.659783 464.836005 
L 207.397884 465.044632 
L 208.135986 465.744937 
L 208.874088 466.93225 
L 209.612189 468.598654 
L 210.350291 470.733038 
L 211.088393 473.321168 
L 212.564596 479.786728 
L 214.0408 487.823166 
L 215.517003 497.216489 
L 217.731309 513.295222 
L 220.683716 536.921744 
L 224.374224 566.432583 
L 226.588529 582.244048 
L 228.064733 591.394829 
L 229.540936 599.144577 
L 231.01714 605.28693 
L 231.755242 607.702422 
L 232.493343 609.658329 
L 233.231445 611.14161 
L 233.969547 612.142373 
L 234.707649 612.653944 
L 235.44575 612.672914 
L 236.183852 612.199156 
L 236.921954 611.235827 
L 237.660056 609.789353 
L 238.398157 607.869378 
L 239.136259 605.488706 
L 240.612462 599.411731 
L 242.088666 591.720249 
L 243.564869 582.619067 
L 245.779175 566.862938 
L 248.731582 543.423074 
L 252.42209 513.731871 
L 254.636395 497.601579 
L 256.112599 488.160853 
L 257.588802 480.068019 
L 259.065006 473.538574 
L 259.803108 470.916217 
L 260.541209 468.746385 
L 261.279311 467.043548 
L 262.017413 465.819059 
L 262.755515 465.081085 
L 263.493616 464.834545 
L 264.231718 465.081085 
L 264.96982 465.819059 
L 265.707922 467.043548 
L 266.446023 468.746385 
L 267.184125 470.916217 
L 267.922227 473.538574 
L 269.39843 480.068019 
L 270.874634 488.160853 
L 272.350837 497.601579 
L 274.565142 513.731871 
L 277.517549 537.386244 
L 281.208058 566.862938 
L 283.422363 582.619067 
L 284.898567 591.720249 
L 286.37477 599.411731 
L 287.850974 605.488706 
L 288.589075 607.869378 
L 289.327177 609.789353 
L 290.065279 611.235827 
L 290.803381 612.199156 
L 291.541482 612.672914 
L 292.279584 612.653944 
L 293.017686 612.142373 
L 293.755788 611.14161 
L 294.493889 609.658329 
L 295.231991 607.702422 
L 295.970093 605.28693 
L 297.446296 599.144577 
L 298.9225 591.394829 
L 300.398703 582.244048 
L 302.613008 566.432583 
L 305.565415 542.959289 
L 309.255924 513.295222 
L 311.470229 497.216489 
L 312.946433 487.823166 
L 314.422636 479.786728 
L 315.89884 473.321168 
L 316.636941 470.733038 
L 317.375043 468.598654 
L 318.113145 466.93225 
L 318.851247 465.744937 
L 319.589348 465.044632 
L 320.32745 464.836005 
L 321.065552 465.120447 
L 321.803654 465.896062 
L 322.541755 467.157678 
L 323.279857 468.896881 
L 324.017959 471.102075 
L 324.756061 473.758556 
L 326.232264 480.351628 
L 327.708468 488.500538 
L 329.184671 497.988295 
L 331.398976 514.169507 
L 335.089485 543.886675 
L 338.041892 567.292184 
L 340.256197 582.992356 
L 341.732401 592.043578 
L 343.208604 599.676492 
L 344.684808 605.687848 
L 345.422909 608.033607 
L 346.161011 609.917573 
L 346.899113 611.327184 
L 347.637214 612.25304 
L 348.375316 612.688967 
L 349.113418 612.632058 
L 349.85152 612.082693 
L 350.589621 611.044536 
L 351.327723 609.524508 
L 352.065825 607.532745 
L 352.803927 605.082529 
L 354.28013 598.875039 
L 355.756334 591.067332 
L 357.232537 581.867312 
L 359.446842 566.001137 
L 362.399249 542.495339 
L 366.089758 512.85958 
L 368.304063 496.83304 
L 369.780267 487.487491 
L 371.25647 479.507765 
L 372.732674 473.106347 
L 373.470775 470.552545 
L 374.208877 468.453694 
L 374.946979 466.823788 
L 375.685081 465.673697 
L 376.423182 465.01109 
L 377.161284 464.840384 
L 377.899386 465.162718 
L 378.637487 465.975943 
L 379.375589 467.274635 
L 380.113691 469.050136 
L 380.851793 471.290606 
L 381.589894 473.981104 
L 383.066098 480.637544 
L 384.542301 488.842209 
L 386.018505 498.376622 
L 388.23281 514.608116 
L 391.923319 544.350075 
L 394.875726 567.720304 
L 397.090031 583.363899 
L 398.566234 592.364805 
L 400.042438 599.938849 
L 401.518641 605.884348 
L 402.256743 608.195102 
L 402.994845 610.042985 
L 403.732947 611.415677 
L 404.471048 612.304024 
L 405.20915 612.702102 
L 405.947252 612.607256 
L 406.685354 612.02012 
L 407.423455 610.944609 
L 408.161557 609.387893 
L 408.899659 607.360353 
L 409.63776 604.87551 
L 411.113964 598.603129 
L 412.590167 590.737771 
L 414.066371 581.488876 
L 416.280676 565.568617 
L 419.233083 542.031242 
L 422.923592 512.424962 
L 425.137897 496.451246 
L 426.6141 487.153841 
L 428.090304 479.231142 
L 429.566507 472.894118 
L 430.304609 470.374745 
L 431.042711 468.311509 
L 431.780813 466.718167 
L 432.518914 465.605344 
L 433.257016 464.98046 
L 433.995118 464.847682 
L 434.73322 465.207895 
L 435.471321 466.058697 
L 436.209423 467.394416 
L 436.947525 469.206144 
L 437.685627 471.4818 
L 438.423728 474.206211 
L 439.899932 480.925756 
L 441.376135 489.18585 
L 442.852339 498.766543 
L 445.066644 515.047679 
L 448.757153 544.813255 
L 451.70956 568.147281 
L 453.923865 583.733682 
L 455.400068 592.683917 
L 456.876272 600.198791 
L 458.352475 606.0782 
L 459.090577 608.353856 
L 459.828679 610.165584 
L 460.56678 611.501303 
L 461.304882 612.352105 
L 462.042984 612.712318 
L 462.781086 612.57954 
L 463.519187 611.954656 
L 464.257289 610.841833 
L 464.995391 609.248491 
L 465.733493 607.185255 
L 466.471594 604.665882 
L 467.947798 598.328858 
L 469.424001 590.406159 
L 470.900205 581.108754 
L 473.11451 565.135038 
L 476.066917 541.567018 
L 479.757426 511.991383 
L 481.971731 496.071124 
L 483.447934 486.822229 
L 484.924138 478.956871 
L 486.400341 472.68449 
L 487.138443 470.199647 
L 487.876545 468.172107 
L 488.614646 466.615391 
L 489.352748 465.53988 
L 490.09085 464.952744 
L 490.828952 464.857898 
L 491.567053 465.255976 
L 492.305155 466.144323 
L 493.043257 467.517015 
L 493.781359 469.364898 
L 494.51946 471.675652 
L 495.995664 477.621151 
L 497.471867 485.195195 
L 498.948071 494.196101 
L 500.424274 504.384192 
L 502.638579 521.291974 
L 509.281495 573.99565 
L 510.757699 584.101691 
L 512.233902 593.0009 
L 513.710106 600.456309 
L 515.186309 606.269394 
L 515.924411 608.509864 
L 516.662513 610.285365 
L 517.400614 611.584057 
L 518.138716 612.397282 
L 518.876818 612.719616 
L 519.614919 612.54891 
L 520.353021 611.886303 
L 521.091123 610.736212 
L 521.829225 609.106306 
L 522.567326 607.007455 
L 523.305428 604.453653 
L 524.781632 598.052235 
L 526.257835 590.072509 
L 527.734039 580.72696 
L 529.948344 564.70042 
L 532.900751 541.102683 
L 536.591259 511.558863 
L 538.805565 495.692688 
L 540.281768 486.492668 
L 541.757972 478.684961 
L 543.234175 472.477471 
L 543.972277 470.027255 
L 544.710379 468.035492 
L 545.44848 466.515464 
L 546.186582 465.477307 
L 546.924684 464.927942 
L 547.662786 464.871033 
L 548.400887 465.30696 
L 549.138989 466.232816 
L 549.877091 467.642427 
L 550.615192 469.526393 
L 551.353294 471.872152 
L 552.829498 477.883508 
L 554.305701 485.516422 
L 555.781905 494.567644 
L 557.99621 510.267816 
L 560.948617 533.673325 
L 565.377227 568.997742 
L 567.591532 584.46791 
L 569.067736 593.315743 
L 570.543939 600.711392 
L 572.020143 606.457925 
L 572.758245 608.663119 
L 573.496346 610.402322 
L 574.234448 611.663938 
L 574.97255 612.439553 
L 575.710652 612.723995 
L 576.448753 612.515368 
L 577.186855 611.815063 
L 577.924957 610.62775 
L 578.663059 608.961346 
L 579.40116 606.826962 
L 580.139262 604.238832 
L 581.615465 597.773272 
L 583.091669 589.736834 
L 584.567872 580.343511 
L 586.782178 564.264778 
L 589.734585 540.638256 
L 593.425093 511.127417 
L 595.639398 495.315952 
L 597.115602 486.165171 
L 598.591805 478.415423 
L 600.068009 472.27307 
L 600.806111 469.857578 
L 601.544212 467.901671 
L 602.282314 466.41839 
L 603.020416 465.417627 
L 603.758518 464.906056 
L 604.496619 464.887086 
L 605.234721 465.360844 
L 605.972823 466.324173 
L 606.710925 467.770647 
L 607.449026 469.690622 
L 608.187128 472.071294 
L 609.663332 478.148269 
L 611.139535 485.839751 
L 612.615738 494.940933 
L 614.830044 510.697062 
L 617.782451 534.136926 
L 621.472959 563.828129 
L 623.687265 579.958421 
L 625.163468 589.399147 
L 626.639671 597.491981 
L 628.115875 604.021426 
L 628.853977 606.643783 
L 629.592078 608.813615 
L 630.33018 610.516452 
L 631.068282 611.740941 
L 631.806384 612.478915 
L 632.544485 612.725455 
L 633.282587 612.478915 
L 634.020689 611.740941 
L 634.758791 610.516452 
L 635.496892 608.813615 
L 636.234994 606.643783 
L 636.973096 604.021426 
L 638.449299 597.491981 
L 639.925503 589.399147 
L 641.401706 579.958421 
L 643.616011 563.828129 
L 646.568418 540.173756 
L 650.258927 510.697062 
L 652.473232 494.940933 
L 653.949436 485.839751 
L 655.425639 478.148269 
L 656.901843 472.071294 
L 657.639944 469.690622 
L 658.378046 467.770647 
L 659.116148 466.324173 
L 659.85425 465.360844 
L 660.592351 464.887086 
L 661.330453 464.906056 
L 662.068555 465.417627 
L 662.806657 466.41839 
L 663.544758 467.901671 
L 664.28286 469.857578 
L 665.020962 472.27307 
L 666.497165 478.415423 
L 667.973369 486.165171 
L 669.449572 495.315952 
L 671.663878 511.127417 
L 674.616284 534.600711 
L 678.306793 564.264778 
L 680.521098 580.343511 
L 681.997302 589.736834 
L 683.473505 597.773272 
L 684.949709 604.238832 
L 685.687811 606.826962 
L 686.425912 608.961346 
L 687.164014 610.62775 
L 687.902116 611.815063 
L 688.640217 612.515368 
L 689.378319 612.723995 
L 690.116421 612.439553 
L 690.854523 611.663938 
L 691.592624 610.402322 
L 692.330726 608.663119 
L 693.068828 606.457925 
L 693.80693 603.801444 
L 695.283133 597.208372 
L 696.759337 589.059462 
L 698.23554 579.571705 
L 700.449845 563.390493 
L 704.140354 533.673325 
L 707.092761 510.267816 
L 709.307066 494.567644 
L 710.78327 485.516422 
L 712.259473 477.883508 
L 713.735677 471.872152 
L 714.473778 469.526393 
L 715.21188 467.642427 
L 715.949982 466.232816 
L 716.688084 465.30696 
L 717.426185 464.871033 
L 718.164287 464.927942 
L 718.902389 465.477307 
L 719.64049 466.515464 
L 720.378592 468.035492 
L 721.116694 470.027255 
L 721.854796 472.477471 
L 723.330999 478.684961 
L 724.807203 486.492668 
L 726.283406 495.692688 
L 728.497711 511.558863 
L 731.450118 535.064661 
L 735.140627 564.70042 
L 737.354932 580.72696 
L 738.831136 590.072509 
L 740.307339 598.052235 
L 741.783543 604.453653 
L 742.521644 607.007455 
L 743.259746 609.106306 
L 743.997848 610.736212 
L 744.73595 611.886303 
L 745.474051 612.54891 
L 746.212153 612.719616 
L 746.950255 612.397282 
L 747.688357 611.584057 
L 748.426458 610.285365 
L 749.16456 608.509864 
L 749.902662 606.269394 
L 750.640763 603.578896 
L 752.116967 596.922456 
L 753.59317 588.717791 
L 755.069374 579.183378 
L 757.283679 562.951884 
L 760.974188 533.209925 
L 763.926595 509.839696 
L 766.1409 494.196101 
L 767.617103 485.195195 
L 769.093307 477.621151 
L 770.56951 471.675652 
L 771.307612 469.364898 
L 772.045714 467.517015 
L 772.783816 466.144323 
L 773.521917 465.255976 
L 774.260019 464.857898 
L 774.998121 464.952744 
L 775.736223 465.53988 
L 776.474324 466.615391 
L 777.212426 468.172107 
L 777.950528 470.199647 
L 778.68863 472.68449 
L 780.164833 478.956871 
L 781.641036 486.822229 
L 783.11724 496.071124 
L 785.331545 511.991383 
L 788.283952 535.528758 
L 791.974461 565.135038 
L 794.188766 581.108754 
L 795.66497 590.406159 
L 797.141173 598.328858 
L 798.617376 604.665882 
L 799.355478 607.185255 
L 800.09358 609.248491 
L 800.831682 610.841833 
L 801.569783 611.954656 
L 802.307885 612.57954 
L 803.045987 612.712318 
L 803.784089 612.352105 
L 804.52219 611.501303 
L 805.260292 610.165584 
L 805.998394 608.353856 
L 806.736496 606.0782 
L 807.474597 603.353789 
L 808.950801 596.634244 
L 810.427004 588.37415 
L 811.903208 578.793457 
L 814.117513 562.512321 
L 816.331818 544.813255 
L 816.331818 544.813255 
" clip-path="url(#peed0bf049d)" style="fill: none; stroke: #0000ff; stroke-width: 1.5; stroke-linecap: square"/>
   </g>
   <g id="LineCollection_4">
    <path d="M 78.968182 538.78 
L 78.968182 538.78 
" clip-path="url(#peed0bf049d)" style="fill: none; stroke: #000000; stroke-width: 1.5"/>
    <path d="M 263.493616 538.78 
L 263.493616 464.834545 
" clip-path="url(#peed0bf049d)" style="fill: none; stroke: #000000; stroke-width: 1.5"/>
    <path d="M 448.019051 538.78 
L 448.019051 538.78 
" clip-path="url(#peed0bf049d)" style="fill: none; stroke: #000000; stroke-width: 1.5"/>
    <path d="M 632.544485 538.78 
L 632.544485 612.725455 
" clip-path="url(#peed0bf049d)" style="fill: none; stroke: #000000; stroke-width: 1.5"/>
   </g>
   <g id="line2d_43">
    <g clip-path="url(#peed0bf049d)">
     <use xlink:href="#m978b152ae3" x="78.968182" y="538.78" style="stroke: #000000"/>
     <use xlink:href="#m978b152ae3" x="263.493616" y="464.834545" style="stroke: #000000"/>
     <use xlink:href="#m978b152ae3" x="448.019051" y="538.78" style="stroke: #000000"/>
     <use xlink:href="#m978b152ae3" x="632.544485" y="612.725455" style="stroke: #000000"/>
    </g>
   </g>
   <g id="line2d_44">
    <path d="M 78.968182 538.78 
L 632.544485 538.78 
" clip-path="url(#peed0bf049d)" style="fill: none; stroke: #000000; stroke-width: 1.5; stroke-linecap: square"/>
   </g>
   <g id="LineCollection_5">
    <path d="M 78.968182 538.78 
L 78.968182 538.78 
" clip-path="url(#peed0bf049d)" style="fill: none; stroke: #000000; stroke-width: 1.5"/>
    <path d="M 263.493616 538.78 
L 263.493616 464.834545 
" clip-path="url(#peed0bf049d)" style="fill: none; stroke: #000000; stroke-width: 1.5"/>
    <path d="M 448.019051 538.78 
L 448.019051 538.78 
" clip-path="url(#peed0bf049d)" style="fill: none; stroke: #000000; stroke-width: 1.5"/>
    <path d="M 632.544485 538.78 
L 632.544485 612.725455 
" clip-path="url(#peed0bf049d)" style="fill: none; stroke: #000000; stroke-width: 1.5"/>
   </g>
   <g id="line2d_45">
    <g clip-path="url(#peed0bf049d)">
     <use xlink:href="#m978b152ae3" x="78.968182" y="538.78" style="stroke: #000000"/>
     <use xlink:href="#m978b152ae3" x="263.493616" y="464.834545" style="stroke: #000000"/>
     <use xlink:href="#m978b152ae3" x="448.019051" y="538.78" style="stroke: #000000"/>
     <use xlink:href="#m978b152ae3" x="632.544485" y="612.725455" style="stroke: #000000"/>
    </g>
   </g>
   <g id="line2d_46">
    <path d="M 78.968182 538.78 
L 632.544485 538.78 
" clip-path="url(#peed0bf049d)" style="fill: none; stroke: #000000; stroke-width: 1.5; stroke-linecap: square"/>
   </g>
   <g id="patch_13">
    <path d="M 42.1 620.12 
L 42.1 457.44 
" style="fill: none; stroke: #000000; stroke-width: 0.8; stroke-linejoin: miter; stroke-linecap: square"/>
   </g>
   <g id="patch_14">
    <path d="M 853.2 620.12 
L 853.2 457.44 
" style="fill: none; stroke: #000000; stroke-width: 0.8; stroke-linejoin: miter; stroke-linecap: square"/>
   </g>
   <g id="patch_15">
    <path d="M 42.1 620.12 
L 853.2 620.12 
" style="fill: none; stroke: #000000; stroke-width: 0.8; stroke-linejoin: miter; stroke-linecap: square"/>
   </g>
   <g id="patch_16">
    <path d="M 42.1 457.44 
L 853.2 457.44 
" style="fill: none; stroke: #000000; stroke-width: 0.8; stroke-linejoin: miter; stroke-linecap: square"/>
   </g>
   <g id="text_36">
    <!-- f = 13Hz -->
    <g transform="translate(421.4 451.44) scale(0.12 -0.12)">
     <defs>
      <path id="DejaVuSans-33" d="M 2597 2516 
Q 3050 2419 3304 2112 
Q 3559 1806 3559 1356 
Q 3559 666 3084 287 
Q 2609 -91 1734 -91 
Q 1441 -91 1130 -33 
Q 819 25 488 141 
L 488 750 
Q 750 597 1062 519 
Q 1375 441 1716 441 
Q 2309 441 2620 675 
Q 2931 909 2931 1356 
Q 2931 1769 2642 2001 
Q 2353 2234 1838 2234 
L 1294 2234 
L 1294 2753 
L 1863 2753 
Q 2328 2753 2575 2939 
Q 2822 3125 2822 3475 
Q 2822 3834 2567 4026 
Q 2313 4219 1838 4219 
Q 1578 4219 1281 4162 
Q 984 4106 628 3988 
L 628 4550 
Q 988 4650 1302 4700 
Q 1616 4750 1894 4750 
Q 2613 4750 3031 4423 
Q 3450 4097 3450 3541 
Q 3450 3153 3228 2886 
Q 3006 2619 2597 2516 
z
" transform="scale(0.015625)"/>
     </defs>
     <use xlink:href="#DejaVuSans-66"/>
     <use xlink:href="#DejaVuSans-20" x="35.205078"/>
     <use xlink:href="#DejaVuSans-3d" x="66.992188"/>
     <use xlink:href="#DejaVuSans-20" x="150.78125"/>
     <use xlink:href="#DejaVuSans-31" x="182.568359"/>
     <use xlink:href="#DejaVuSans-33" x="246.191406"/>
     <use xlink:href="#DejaVuSans-48" x="309.814453"/>
     <use xlink:href="#DejaVuSans-7a" x="385.009766"/>
    </g>
   </g>
  </g>
  <g id="text_37">
   <!-- Aliasing with fs=4Hz sampling frequency -->
   <g transform="translate(308.8875 22.078125) scale(0.12 -0.12)">
    <defs>
     <path id="DejaVuSans-41" d="M 2188 4044 
L 1331 1722 
L 3047 1722 
L 2188 4044 
z
M 1831 4666 
L 2547 4666 
L 4325 0 
L 3669 0 
L 3244 1197 
L 1141 1197 
L 716 0 
L 50 0 
L 1831 4666 
z
" transform="scale(0.015625)"/>
     <path id="DejaVuSans-6c" d="M 603 4863 
L 1178 4863 
L 1178 0 
L 603 0 
L 603 4863 
z
" transform="scale(0.015625)"/>
     <path id="DejaVuSans-69" d="M 603 3500 
L 1178 3500 
L 1178 0 
L 603 0 
L 603 3500 
z
M 603 4863 
L 1178 4863 
L 1178 4134 
L 603 4134 
L 603 4863 
z
" transform="scale(0.015625)"/>
     <path id="DejaVuSans-61" d="M 2194 1759 
Q 1497 1759 1228 1600 
Q 959 1441 959 1056 
Q 959 750 1161 570 
Q 1363 391 1709 391 
Q 2188 391 2477 730 
Q 2766 1069 2766 1631 
L 2766 1759 
L 2194 1759 
z
M 3341 1997 
L 3341 0 
L 2766 0 
L 2766 531 
Q 2569 213 2275 61 
Q 1981 -91 1556 -91 
Q 1019 -91 701 211 
Q 384 513 384 1019 
Q 384 1609 779 1909 
Q 1175 2209 1959 2209 
L 2766 2209 
L 2766 2266 
Q 2766 2663 2505 2880 
Q 2244 3097 1772 3097 
Q 1472 3097 1187 3025 
Q 903 2953 641 2809 
L 641 3341 
Q 956 3463 1253 3523 
Q 1550 3584 1831 3584 
Q 2591 3584 2966 3190 
Q 3341 2797 3341 1997 
z
" transform="scale(0.015625)"/>
     <path id="DejaVuSans-73" d="M 2834 3397 
L 2834 2853 
Q 2591 2978 2328 3040 
Q 2066 3103 1784 3103 
Q 1356 3103 1142 2972 
Q 928 2841 928 2578 
Q 928 2378 1081 2264 
Q 1234 2150 1697 2047 
L 1894 2003 
Q 2506 1872 2764 1633 
Q 3022 1394 3022 966 
Q 3022 478 2636 193 
Q 2250 -91 1575 -91 
Q 1294 -91 989 -36 
Q 684 19 347 128 
L 347 722 
Q 666 556 975 473 
Q 1284 391 1588 391 
Q 1994 391 2212 530 
Q 2431 669 2431 922 
Q 2431 1156 2273 1281 
Q 2116 1406 1581 1522 
L 1381 1569 
Q 847 1681 609 1914 
Q 372 2147 372 2553 
Q 372 3047 722 3315 
Q 1072 3584 1716 3584 
Q 2034 3584 2315 3537 
Q 2597 3491 2834 3397 
z
" transform="scale(0.015625)"/>
     <path id="DejaVuSans-6e" d="M 3513 2113 
L 3513 0 
L 2938 0 
L 2938 2094 
Q 2938 2591 2744 2837 
Q 2550 3084 2163 3084 
Q 1697 3084 1428 2787 
Q 1159 2491 1159 1978 
L 1159 0 
L 581 0 
L 581 3500 
L 1159 3500 
L 1159 2956 
Q 1366 3272 1645 3428 
Q 1925 3584 2291 3584 
Q 2894 3584 3203 3211 
Q 3513 2838 3513 2113 
z
" transform="scale(0.015625)"/>
     <path id="DejaVuSans-67" d="M 2906 1791 
Q 2906 2416 2648 2759 
Q 2391 3103 1925 3103 
Q 1463 3103 1205 2759 
Q 947 2416 947 1791 
Q 947 1169 1205 825 
Q 1463 481 1925 481 
Q 2391 481 2648 825 
Q 2906 1169 2906 1791 
z
M 3481 434 
Q 3481 -459 3084 -895 
Q 2688 -1331 1869 -1331 
Q 1566 -1331 1297 -1286 
Q 1028 -1241 775 -1147 
L 775 -588 
Q 1028 -725 1275 -790 
Q 1522 -856 1778 -856 
Q 2344 -856 2625 -561 
Q 2906 -266 2906 331 
L 2906 616 
Q 2728 306 2450 153 
Q 2172 0 1784 0 
Q 1141 0 747 490 
Q 353 981 353 1791 
Q 353 2603 747 3093 
Q 1141 3584 1784 3584 
Q 2172 3584 2450 3431 
Q 2728 3278 2906 2969 
L 2906 3500 
L 3481 3500 
L 3481 434 
z
" transform="scale(0.015625)"/>
     <path id="DejaVuSans-77" d="M 269 3500 
L 844 3500 
L 1563 769 
L 2278 3500 
L 2956 3500 
L 3675 769 
L 4391 3500 
L 4966 3500 
L 4050 0 
L 3372 0 
L 2619 2869 
L 1863 0 
L 1184 0 
L 269 3500 
z
" transform="scale(0.015625)"/>
     <path id="DejaVuSans-74" d="M 1172 4494 
L 1172 3500 
L 2356 3500 
L 2356 3053 
L 1172 3053 
L 1172 1153 
Q 1172 725 1289 603 
Q 1406 481 1766 481 
L 2356 481 
L 2356 0 
L 1766 0 
Q 1100 0 847 248 
Q 594 497 594 1153 
L 594 3053 
L 172 3053 
L 172 3500 
L 594 3500 
L 594 4494 
L 1172 4494 
z
" transform="scale(0.015625)"/>
     <path id="DejaVuSans-68" d="M 3513 2113 
L 3513 0 
L 2938 0 
L 2938 2094 
Q 2938 2591 2744 2837 
Q 2550 3084 2163 3084 
Q 1697 3084 1428 2787 
Q 1159 2491 1159 1978 
L 1159 0 
L 581 0 
L 581 4863 
L 1159 4863 
L 1159 2956 
Q 1366 3272 1645 3428 
Q 1925 3584 2291 3584 
Q 2894 3584 3203 3211 
Q 3513 2838 3513 2113 
z
" transform="scale(0.015625)"/>
     <path id="DejaVuSans-6d" d="M 3328 2828 
Q 3544 3216 3844 3400 
Q 4144 3584 4550 3584 
Q 5097 3584 5394 3201 
Q 5691 2819 5691 2113 
L 5691 0 
L 5113 0 
L 5113 2094 
Q 5113 2597 4934 2840 
Q 4756 3084 4391 3084 
Q 3944 3084 3684 2787 
Q 3425 2491 3425 1978 
L 3425 0 
L 2847 0 
L 2847 2094 
Q 2847 2600 2669 2842 
Q 2491 3084 2119 3084 
Q 1678 3084 1418 2786 
Q 1159 2488 1159 1978 
L 1159 0 
L 581 0 
L 581 3500 
L 1159 3500 
L 1159 2956 
Q 1356 3278 1631 3431 
Q 1906 3584 2284 3584 
Q 2666 3584 2933 3390 
Q 3200 3197 3328 2828 
z
" transform="scale(0.015625)"/>
     <path id="DejaVuSans-70" d="M 1159 525 
L 1159 -1331 
L 581 -1331 
L 581 3500 
L 1159 3500 
L 1159 2969 
Q 1341 3281 1617 3432 
Q 1894 3584 2278 3584 
Q 2916 3584 3314 3078 
Q 3713 2572 3713 1747 
Q 3713 922 3314 415 
Q 2916 -91 2278 -91 
Q 1894 -91 1617 61 
Q 1341 213 1159 525 
z
M 3116 1747 
Q 3116 2381 2855 2742 
Q 2594 3103 2138 3103 
Q 1681 3103 1420 2742 
Q 1159 2381 1159 1747 
Q 1159 1113 1420 752 
Q 1681 391 2138 391 
Q 2594 391 2855 752 
Q 3116 1113 3116 1747 
z
" transform="scale(0.015625)"/>
     <path id="DejaVuSans-72" d="M 2631 2963 
Q 2534 3019 2420 3045 
Q 2306 3072 2169 3072 
Q 1681 3072 1420 2755 
Q 1159 2438 1159 1844 
L 1159 0 
L 581 0 
L 581 3500 
L 1159 3500 
L 1159 2956 
Q 1341 3275 1631 3429 
Q 1922 3584 2338 3584 
Q 2397 3584 2469 3576 
Q 2541 3569 2628 3553 
L 2631 2963 
z
" transform="scale(0.015625)"/>
     <path id="DejaVuSans-65" d="M 3597 1894 
L 3597 1613 
L 953 1613 
Q 991 1019 1311 708 
Q 1631 397 2203 397 
Q 2534 397 2845 478 
Q 3156 559 3463 722 
L 3463 178 
Q 3153 47 2828 -22 
Q 2503 -91 2169 -91 
Q 1331 -91 842 396 
Q 353 884 353 1716 
Q 353 2575 817 3079 
Q 1281 3584 2069 3584 
Q 2775 3584 3186 3129 
Q 3597 2675 3597 1894 
z
M 3022 2063 
Q 3016 2534 2758 2815 
Q 2500 3097 2075 3097 
Q 1594 3097 1305 2825 
Q 1016 2553 972 2059 
L 3022 2063 
z
" transform="scale(0.015625)"/>
     <path id="DejaVuSans-71" d="M 947 1747 
Q 947 1113 1208 752 
Q 1469 391 1925 391 
Q 2381 391 2643 752 
Q 2906 1113 2906 1747 
Q 2906 2381 2643 2742 
Q 2381 3103 1925 3103 
Q 1469 3103 1208 2742 
Q 947 2381 947 1747 
z
M 2906 525 
Q 2725 213 2448 61 
Q 2172 -91 1784 -91 
Q 1150 -91 751 415 
Q 353 922 353 1747 
Q 353 2572 751 3078 
Q 1150 3584 1784 3584 
Q 2172 3584 2448 3432 
Q 2725 3281 2906 2969 
L 2906 3500 
L 3481 3500 
L 3481 -1331 
L 2906 -1331 
L 2906 525 
z
" transform="scale(0.015625)"/>
     <path id="DejaVuSans-75" d="M 544 1381 
L 544 3500 
L 1119 3500 
L 1119 1403 
Q 1119 906 1312 657 
Q 1506 409 1894 409 
Q 2359 409 2629 706 
Q 2900 1003 2900 1516 
L 2900 3500 
L 3475 3500 
L 3475 0 
L 2900 0 
L 2900 538 
Q 2691 219 2414 64 
Q 2138 -91 1772 -91 
Q 1169 -91 856 284 
Q 544 659 544 1381 
z
M 1991 3584 
L 1991 3584 
z
" transform="scale(0.015625)"/>
     <path id="DejaVuSans-63" d="M 3122 3366 
L 3122 2828 
Q 2878 2963 2633 3030 
Q 2388 3097 2138 3097 
Q 1578 3097 1268 2742 
Q 959 2388 959 1747 
Q 959 1106 1268 751 
Q 1578 397 2138 397 
Q 2388 397 2633 464 
Q 2878 531 3122 666 
L 3122 134 
Q 2881 22 2623 -34 
Q 2366 -91 2075 -91 
Q 1284 -91 818 406 
Q 353 903 353 1747 
Q 353 2603 823 3093 
Q 1294 3584 2113 3584 
Q 2378 3584 2631 3529 
Q 2884 3475 3122 3366 
z
" transform="scale(0.015625)"/>
     <path id="DejaVuSans-79" d="M 2059 -325 
Q 1816 -950 1584 -1140 
Q 1353 -1331 966 -1331 
L 506 -1331 
L 506 -850 
L 844 -850 
Q 1081 -850 1212 -737 
Q 1344 -625 1503 -206 
L 1606 56 
L 191 3500 
L 800 3500 
L 1894 763 
L 2988 3500 
L 3597 3500 
L 2059 -325 
z
" transform="scale(0.015625)"/>
    </defs>
    <use xlink:href="#DejaVuSans-41"/>
    <use xlink:href="#DejaVuSans-6c" x="68.408203"/>
    <use xlink:href="#DejaVuSans-69" x="96.191406"/>
    <use xlink:href="#DejaVuSans-61" x="123.974609"/>
    <use xlink:href="#DejaVuSans-73" x="185.253906"/>
    <use xlink:href="#DejaVuSans-69" x="237.353516"/>
    <use xlink:href="#DejaVuSans-6e" x="265.136719"/>
    <use xlink:href="#DejaVuSans-67" x="328.515625"/>
    <use xlink:href="#DejaVuSans-20" x="391.992188"/>
    <use xlink:href="#DejaVuSans-77" x="423.779297"/>
    <use xlink:href="#DejaVuSans-69" x="505.566406"/>
    <use xlink:href="#DejaVuSans-74" x="533.349609"/>
    <use xlink:href="#DejaVuSans-68" x="572.558594"/>
    <use xlink:href="#DejaVuSans-20" x="635.9375"/>
    <use xlink:href="#DejaVuSans-66" x="667.724609"/>
    <use xlink:href="#DejaVuSans-73" x="702.929688"/>
    <use xlink:href="#DejaVuSans-3d" x="755.029297"/>
    <use xlink:href="#DejaVuSans-34" x="838.818359"/>
    <use xlink:href="#DejaVuSans-48" x="902.441406"/>
    <use xlink:href="#DejaVuSans-7a" x="977.636719"/>
    <use xlink:href="#DejaVuSans-20" x="1030.126953"/>
    <use xlink:href="#DejaVuSans-73" x="1061.914062"/>
    <use xlink:href="#DejaVuSans-61" x="1114.013672"/>
    <use xlink:href="#DejaVuSans-6d" x="1175.292969"/>
    <use xlink:href="#DejaVuSans-70" x="1272.705078"/>
    <use xlink:href="#DejaVuSans-6c" x="1336.181641"/>
    <use xlink:href="#DejaVuSans-69" x="1363.964844"/>
    <use xlink:href="#DejaVuSans-6e" x="1391.748047"/>
    <use xlink:href="#DejaVuSans-67" x="1455.126953"/>
    <use xlink:href="#DejaVuSans-20" x="1518.603516"/>
    <use xlink:href="#DejaVuSans-66" x="1550.390625"/>
    <use xlink:href="#DejaVuSans-72" x="1585.595703"/>
    <use xlink:href="#DejaVuSans-65" x="1624.458984"/>
    <use xlink:href="#DejaVuSans-71" x="1685.982422"/>
    <use xlink:href="#DejaVuSans-75" x="1749.458984"/>
    <use xlink:href="#DejaVuSans-65" x="1812.837891"/>
    <use xlink:href="#DejaVuSans-6e" x="1874.361328"/>
    <use xlink:href="#DejaVuSans-63" x="1937.740234"/>
    <use xlink:href="#DejaVuSans-79" x="1992.720703"/>
   </g>
  </g>
 </g>
 <defs>
  <clipPath id="pcebc2939c8">
   <rect x="42.1" y="47.04" width="811.1" height="162.68"/>
  </clipPath>
  <clipPath id="pd33c815d67">
   <rect x="42.1" y="252.24" width="811.1" height="162.68"/>
  </clipPath>
  <clipPath id="peed0bf049d">
   <rect x="42.1" y="457.44" width="811.1" height="162.68"/>
  </clipPath>
 </defs>
</svg>
