<?xml version="1.0" encoding="utf-8" standalone="no"?>
<!DOCTYPE svg PUBLIC "-//W3C//DTD SVG 1.1//EN"
  "http://www.w3.org/Graphics/SVG/1.1/DTD/svg11.dtd">
<svg xmlns:xlink="http://www.w3.org/1999/xlink" width="864pt" height="648pt" viewBox="0 0 864 648" xmlns="http://www.w3.org/2000/svg" version="1.1">
 <metadata>
  <rdf:RDF xmlns:dc="http://purl.org/dc/elements/1.1/" xmlns:cc="http://creativecommons.org/ns#" xmlns:rdf="http://www.w3.org/1999/02/22-rdf-syntax-ns#">
   <cc:Work>
    <dc:type rdf:resource="http://purl.org/dc/dcmitype/StillImage"/>
    <dc:date>2025-11-11T12:49:05.046721</dc:date>
    <dc:format>image/svg+xml</dc:format>
    <dc:creator>
     <cc:Agent>
      <dc:title>Matplotlib v3.6.3, https://matplotlib.org/</dc:title>
     </cc:Agent>
    </dc:creator>
   </cc:Work>
  </rdf:RDF>
 </metadata>
 <defs>
  <style type="text/css">*{stroke-linejoin: round; stroke-linecap: butt}</style>
 </defs>
 <g id="figure_1">
  <g id="patch_1">
   <path d="M 0 648 
L 864 648 
L 864 0 
L 0 0 
z
" style="fill: #ffffff"/>
  </g>
  <g id="axes_1">
   <g id="patch_2">
    <path d="M 42.1 209.72 
L 853.2 209.72 
L 853.2 47.04 
L 42.1 47.04 
z
" style="fill: #ffffff"/>
   </g>
   <g id="matplotlib.axis_1">
    <g id="xtick_1">
     <g id="line2d_1">
      <defs>
       <path id="mfe7f239f4a" d="M 0 0 
L 0 3.5 
" style="stroke: #000000; stroke-width: 0.8"/>
      </defs>
      <g>
       <use xlink:href="#mfe7f239f4a" x="78.968182" y="209.72" style="stroke: #000000; stroke-width: 0.8"/>
      </g>
     </g>
     <g id="text_1">
      <!-- 0.0 -->
      <g transform="translate(71.016619 224.318437) scale(0.1 -0.1)">
       <defs>
        <path id="DejaVuSans-30" d="M 2034 4250 
Q 1547 4250 1301 3770 
Q 1056 3291 1056 2328 
Q 1056 1369 1301 889 
Q 1547 409 2034 409 
Q 2525 409 2770 889 
Q 3016 1369 3016 2328 
Q 3016 3291 2770 3770 
Q 2525 4250 2034 4250 
z
M 2034 4750 
Q 2819 4750 3233 4129 
Q 3647 3509 3647 2328 
Q 3647 1150 3233 529 
Q 2819 -91 2034 -91 
Q 1250 -91 836 529 
Q 422 1150 422 2328 
Q 422 3509 836 4129 
Q 1250 4750 2034 4750 
z
" transform="scale(0.015625)"/>
        <path id="DejaVuSans-2e" d="M 684 794 
L 1344 794 
L 1344 0 
L 684 0 
L 684 794 
z
" transform="scale(0.015625)"/>
       </defs>
       <use xlink:href="#DejaVuSans-30"/>
       <use xlink:href="#DejaVuSans-2e" x="63.623047"/>
       <use xlink:href="#DejaVuSans-30" x="95.410156"/>
      </g>
     </g>
    </g>
    <g id="xtick_2">
     <g id="line2d_2">
      <g>
       <use xlink:href="#mfe7f239f4a" x="226.514682" y="209.72" style="stroke: #000000; stroke-width: 0.8"/>
      </g>
     </g>
     <g id="text_2">
      <!-- 0.2 -->
      <g transform="translate(218.56312 224.318437) scale(0.1 -0.1)">
       <defs>
        <path id="DejaVuSans-32" d="M 1228 531 
L 3431 531 
L 3431 0 
L 469 0 
L 469 531 
Q 828 903 1448 1529 
Q 2069 2156 2228 2338 
Q 2531 2678 2651 2914 
Q 2772 3150 2772 3378 
Q 2772 3750 2511 3984 
Q 2250 4219 1831 4219 
Q 1534 4219 1204 4116 
Q 875 4013 500 3803 
L 500 4441 
Q 881 4594 1212 4672 
Q 1544 4750 1819 4750 
Q 2544 4750 2975 4387 
Q 3406 4025 3406 3419 
Q 3406 3131 3298 2873 
Q 3191 2616 2906 2266 
Q 2828 2175 2409 1742 
Q 1991 1309 1228 531 
z
" transform="scale(0.015625)"/>
       </defs>
       <use xlink:href="#DejaVuSans-30"/>
       <use xlink:href="#DejaVuSans-2e" x="63.623047"/>
       <use xlink:href="#DejaVuSans-32" x="95.410156"/>
      </g>
     </g>
    </g>
    <g id="xtick_3">
     <g id="line2d_3">
      <g>
       <use xlink:href="#mfe7f239f4a" x="374.061183" y="209.72" style="stroke: #000000; stroke-width: 0.8"/>
      </g>
     </g>
     <g id="text_3">
      <!-- 0.4 -->
      <g transform="translate(366.10962 224.318437) scale(0.1 -0.1)">
       <defs>
        <path id="DejaVuSans-34" d="M 2419 4116 
L 825 1625 
L 2419 1625 
L 2419 4116 
z
M 2253 4666 
L 3047 4666 
L 3047 1625 
L 3713 1625 
L 3713 1100 
L 3047 1100 
L 3047 0 
L 2419 0 
L 2419 1100 
L 313 1100 
L 313 1709 
L 2253 4666 
z
" transform="scale(0.015625)"/>
       </defs>
       <use xlink:href="#DejaVuSans-30"/>
       <use xlink:href="#DejaVuSans-2e" x="63.623047"/>
       <use xlink:href="#DejaVuSans-34" x="95.410156"/>
      </g>
     </g>
    </g>
    <g id="xtick_4">
     <g id="line2d_4">
      <g>
       <use xlink:href="#mfe7f239f4a" x="521.607683" y="209.72" style="stroke: #000000; stroke-width: 0.8"/>
      </g>
     </g>
     <g id="text_4">
      <!-- 0.6 -->
      <g transform="translate(513.656121 224.318437) scale(0.1 -0.1)">
       <defs>
        <path id="DejaVuSans-36" d="M 2113 2584 
Q 1688 2584 1439 2293 
Q 1191 2003 1191 1497 
Q 1191 994 1439 701 
Q 1688 409 2113 409 
Q 2538 409 2786 701 
Q 3034 994 3034 1497 
Q 3034 2003 2786 2293 
Q 2538 2584 2113 2584 
z
M 3366 4563 
L 3366 3988 
Q 3128 4100 2886 4159 
Q 2644 4219 2406 4219 
Q 1781 4219 1451 3797 
Q 1122 3375 1075 2522 
Q 1259 2794 1537 2939 
Q 1816 3084 2150 3084 
Q 2853 3084 3261 2657 
Q 3669 2231 3669 1497 
Q 3669 778 3244 343 
Q 2819 -91 2113 -91 
Q 1303 -91 875 529 
Q 447 1150 447 2328 
Q 447 3434 972 4092 
Q 1497 4750 2381 4750 
Q 2619 4750 2861 4703 
Q 3103 4656 3366 4563 
z
" transform="scale(0.015625)"/>
       </defs>
       <use xlink:href="#DejaVuSans-30"/>
       <use xlink:href="#DejaVuSans-2e" x="63.623047"/>
       <use xlink:href="#DejaVuSans-36" x="95.410156"/>
      </g>
     </g>
    </g>
    <g id="xtick_5">
     <g id="line2d_5">
      <g>
       <use xlink:href="#mfe7f239f4a" x="669.154184" y="209.72" style="stroke: #000000; stroke-width: 0.8"/>
      </g>
     </g>
     <g id="text_5">
      <!-- 0.8 -->
      <g transform="translate(661.202621 224.318437) scale(0.1 -0.1)">
       <defs>
        <path id="DejaVuSans-38" d="M 2034 2216 
Q 1584 2216 1326 1975 
Q 1069 1734 1069 1313 
Q 1069 891 1326 650 
Q 1584 409 2034 409 
Q 2484 409 2743 651 
Q 3003 894 3003 1313 
Q 3003 1734 2745 1975 
Q 2488 2216 2034 2216 
z
M 1403 2484 
Q 997 2584 770 2862 
Q 544 3141 544 3541 
Q 544 4100 942 4425 
Q 1341 4750 2034 4750 
Q 2731 4750 3128 4425 
Q 3525 4100 3525 3541 
Q 3525 3141 3298 2862 
Q 3072 2584 2669 2484 
Q 3125 2378 3379 2068 
Q 3634 1759 3634 1313 
Q 3634 634 3220 271 
Q 2806 -91 2034 -91 
Q 1263 -91 848 271 
Q 434 634 434 1313 
Q 434 1759 690 2068 
Q 947 2378 1403 2484 
z
M 1172 3481 
Q 1172 3119 1398 2916 
Q 1625 2713 2034 2713 
Q 2441 2713 2670 2916 
Q 2900 3119 2900 3481 
Q 2900 3844 2670 4047 
Q 2441 4250 2034 4250 
Q 1625 4250 1398 4047 
Q 1172 3844 1172 3481 
z
" transform="scale(0.015625)"/>
       </defs>
       <use xlink:href="#DejaVuSans-30"/>
       <use xlink:href="#DejaVuSans-2e" x="63.623047"/>
       <use xlink:href="#DejaVuSans-38" x="95.410156"/>
      </g>
     </g>
    </g>
    <g id="xtick_6">
     <g id="line2d_6">
      <g>
       <use xlink:href="#mfe7f239f4a" x="816.700684" y="209.72" style="stroke: #000000; stroke-width: 0.8"/>
      </g>
     </g>
     <g id="text_6">
      <!-- 1.0 -->
      <g transform="translate(808.749122 224.318437) scale(0.1 -0.1)">
       <defs>
        <path id="DejaVuSans-31" d="M 794 531 
L 1825 531 
L 1825 4091 
L 703 3866 
L 703 4441 
L 1819 4666 
L 2450 4666 
L 2450 531 
L 3481 531 
L 3481 0 
L 794 0 
L 794 531 
z
" transform="scale(0.015625)"/>
       </defs>
       <use xlink:href="#DejaVuSans-31"/>
       <use xlink:href="#DejaVuSans-2e" x="63.623047"/>
       <use xlink:href="#DejaVuSans-30" x="95.410156"/>
      </g>
     </g>
    </g>
   </g>
   <g id="matplotlib.axis_2">
    <g id="ytick_1">
     <g id="line2d_7">
      <defs>
       <path id="m232abbd57e" d="M 0 0 
L -3.5 0 
" style="stroke: #000000; stroke-width: 0.8"/>
      </defs>
      <g>
       <use xlink:href="#m232abbd57e" x="42.1" y="202.331293" style="stroke: #000000; stroke-width: 0.8"/>
      </g>
     </g>
     <g id="text_7">
      <!-- −1.0 -->
      <g transform="translate(10.817188 206.130512) scale(0.1 -0.1)">
       <defs>
        <path id="DejaVuSans-2212" d="M 678 2272 
L 4684 2272 
L 4684 1741 
L 678 1741 
L 678 2272 
z
" transform="scale(0.015625)"/>
       </defs>
       <use xlink:href="#DejaVuSans-2212"/>
       <use xlink:href="#DejaVuSans-31" x="83.789062"/>
       <use xlink:href="#DejaVuSans-2e" x="147.412109"/>
       <use xlink:href="#DejaVuSans-30" x="179.199219"/>
      </g>
     </g>
    </g>
    <g id="ytick_2">
     <g id="line2d_8">
      <g>
       <use xlink:href="#m232abbd57e" x="42.1" y="165.355647" style="stroke: #000000; stroke-width: 0.8"/>
      </g>
     </g>
     <g id="text_8">
      <!-- −0.5 -->
      <g transform="translate(10.817188 169.154865) scale(0.1 -0.1)">
       <defs>
        <path id="DejaVuSans-35" d="M 691 4666 
L 3169 4666 
L 3169 4134 
L 1269 4134 
L 1269 2991 
Q 1406 3038 1543 3061 
Q 1681 3084 1819 3084 
Q 2600 3084 3056 2656 
Q 3513 2228 3513 1497 
Q 3513 744 3044 326 
Q 2575 -91 1722 -91 
Q 1428 -91 1123 -41 
Q 819 9 494 109 
L 494 744 
Q 775 591 1075 516 
Q 1375 441 1709 441 
Q 2250 441 2565 725 
Q 2881 1009 2881 1497 
Q 2881 1984 2565 2268 
Q 2250 2553 1709 2553 
Q 1456 2553 1204 2497 
Q 953 2441 691 2322 
L 691 4666 
z
" transform="scale(0.015625)"/>
       </defs>
       <use xlink:href="#DejaVuSans-2212"/>
       <use xlink:href="#DejaVuSans-30" x="83.789062"/>
       <use xlink:href="#DejaVuSans-2e" x="147.412109"/>
       <use xlink:href="#DejaVuSans-35" x="179.199219"/>
      </g>
     </g>
    </g>
    <g id="ytick_3">
     <g id="line2d_9">
      <g>
       <use xlink:href="#m232abbd57e" x="42.1" y="128.38" style="stroke: #000000; stroke-width: 0.8"/>
      </g>
     </g>
     <g id="text_9">
      <!-- 0.0 -->
      <g transform="translate(19.196875 132.179219) scale(0.1 -0.1)">
       <use xlink:href="#DejaVuSans-30"/>
       <use xlink:href="#DejaVuSans-2e" x="63.623047"/>
       <use xlink:href="#DejaVuSans-30" x="95.410156"/>
      </g>
     </g>
    </g>
    <g id="ytick_4">
     <g id="line2d_10">
      <g>
       <use xlink:href="#m232abbd57e" x="42.1" y="91.404353" style="stroke: #000000; stroke-width: 0.8"/>
      </g>
     </g>
     <g id="text_10">
      <!-- 0.5 -->
      <g transform="translate(19.196875 95.203572) scale(0.1 -0.1)">
       <use xlink:href="#DejaVuSans-30"/>
       <use xlink:href="#DejaVuSans-2e" x="63.623047"/>
       <use xlink:href="#DejaVuSans-35" x="95.410156"/>
      </g>
     </g>
    </g>
    <g id="ytick_5">
     <g id="line2d_11">
      <g>
       <use xlink:href="#m232abbd57e" x="42.1" y="54.428707" style="stroke: #000000; stroke-width: 0.8"/>
      </g>
     </g>
     <g id="text_11">
      <!-- 1.0 -->
      <g transform="translate(19.196875 58.227925) scale(0.1 -0.1)">
       <use xlink:href="#DejaVuSans-31"/>
       <use xlink:href="#DejaVuSans-2e" x="63.623047"/>
       <use xlink:href="#DejaVuSans-30" x="95.410156"/>
      </g>
     </g>
    </g>
   </g>
   <g id="line2d_12">
    <path d="M 78.968182 128.38 
L 84.132309 102.89321 
L 86.714373 91.136413 
L 88.927571 81.961412 
L 90.771902 75.112216 
L 92.616233 69.103085 
L 94.091698 64.964795 
L 95.567163 61.466869 
L 96.673762 59.285166 
L 97.780361 57.496074 
L 98.886959 56.109758 
L 99.993558 55.134096 
L 100.731291 54.714631 
L 101.469023 54.481251 
L 102.206756 54.434545 
L 102.944488 54.574633 
L 103.682221 54.901158 
L 104.419953 55.413298 
L 105.526552 56.526577 
L 106.633151 58.04814 
L 107.739749 59.969344 
L 108.846348 62.279271 
L 110.321813 65.940858 
L 111.797278 70.232953 
L 113.641609 76.418126 
L 115.485941 83.422768 
L 117.699138 92.753693 
L 120.281202 104.645805 
L 123.969864 122.809485 
L 130.240591 153.86679 
L 132.822655 165.623587 
L 135.035852 174.798588 
L 136.880183 181.647784 
L 138.724515 187.656915 
L 140.19998 191.795205 
L 141.675445 195.293131 
L 142.782043 197.474834 
L 143.888642 199.263926 
L 144.995241 200.650242 
L 146.10184 201.625904 
L 146.839572 202.045369 
L 147.577305 202.278749 
L 148.315037 202.325455 
L 149.05277 202.185367 
L 149.790502 201.858842 
L 150.528235 201.346702 
L 151.634833 200.233423 
L 152.741432 198.71186 
L 153.848031 196.790656 
L 154.95463 194.480729 
L 156.430095 190.819142 
L 157.90556 186.527047 
L 159.749891 180.341874 
L 161.594222 173.337232 
L 163.80742 164.006307 
L 166.389483 152.114195 
L 170.078146 133.950515 
L 176.348872 102.89321 
L 178.930936 91.136413 
L 181.144133 81.961412 
L 182.988465 75.112216 
L 184.832796 69.103085 
L 186.308261 64.964795 
L 187.783726 61.466869 
L 188.890325 59.285166 
L 189.996923 57.496074 
L 191.103522 56.109758 
L 192.210121 55.134096 
L 192.947853 54.714631 
L 193.685586 54.481251 
L 194.423318 54.434545 
L 195.161051 54.574633 
L 195.898783 54.901158 
L 196.636516 55.413298 
L 197.743115 56.526577 
L 198.849713 58.04814 
L 199.956312 59.969344 
L 201.062911 62.279271 
L 202.538376 65.940858 
L 204.013841 70.232953 
L 205.858172 76.418126 
L 207.702504 83.422768 
L 209.915701 92.753693 
L 212.497765 104.645805 
L 216.186427 122.809485 
L 222.457154 153.86679 
L 225.039217 165.623587 
L 227.252415 174.798588 
L 229.096746 181.647784 
L 230.941077 187.656915 
L 232.416542 191.795205 
L 233.892007 195.293131 
L 234.998606 197.474834 
L 236.105205 199.263926 
L 237.211804 200.650242 
L 238.318402 201.625904 
L 239.056135 202.045369 
L 239.793867 202.278749 
L 240.5316 202.325455 
L 241.269332 202.185367 
L 242.007065 201.858842 
L 242.744797 201.346702 
L 243.851396 200.233423 
L 244.957995 198.71186 
L 246.064594 196.790656 
L 247.171192 194.480729 
L 248.646657 190.819142 
L 250.122122 186.527047 
L 251.966454 180.341874 
L 253.810785 173.337232 
L 256.023982 164.006307 
L 258.606046 152.114195 
L 262.294709 133.950515 
L 268.565435 102.89321 
L 271.147499 91.136413 
L 273.360696 81.961412 
L 275.205028 75.112216 
L 277.049359 69.103085 
L 278.524824 64.964795 
L 280.000289 61.466869 
L 281.106888 59.285166 
L 282.213486 57.496074 
L 283.320085 56.109758 
L 284.426684 55.134096 
L 285.164416 54.714631 
L 285.902149 54.481251 
L 286.639881 54.434545 
L 287.377614 54.574633 
L 288.115346 54.901158 
L 288.853079 55.413298 
L 289.959678 56.526577 
L 291.066276 58.04814 
L 292.172875 59.969344 
L 293.279474 62.279271 
L 294.754939 65.940858 
L 296.230404 70.232953 
L 298.074735 76.418126 
L 299.919066 83.422768 
L 302.132264 92.753693 
L 304.714328 104.645805 
L 308.40299 122.809485 
L 314.673716 153.86679 
L 317.25578 165.623587 
L 319.468978 174.798588 
L 321.313309 181.647784 
L 323.15764 187.656915 
L 324.633105 191.795205 
L 326.10857 195.293131 
L 327.215169 197.474834 
L 328.321768 199.263926 
L 329.428366 200.650242 
L 330.534965 201.625904 
L 331.272698 202.045369 
L 332.01043 202.278749 
L 332.748163 202.325455 
L 333.485895 202.185367 
L 334.223628 201.858842 
L 334.96136 201.346702 
L 336.067959 200.233423 
L 337.174558 198.71186 
L 338.281156 196.790656 
L 339.387755 194.480729 
L 340.86322 190.819142 
L 342.338685 186.527047 
L 344.183017 180.341874 
L 346.027348 173.337232 
L 348.240545 164.006307 
L 350.822609 152.114195 
L 354.511272 133.950515 
L 360.781998 102.89321 
L 363.364062 91.136413 
L 365.577259 81.961412 
L 367.42159 75.112216 
L 369.265922 69.103085 
L 370.741387 64.964795 
L 372.216852 61.466869 
L 373.32345 59.285166 
L 374.430049 57.496074 
L 375.536648 56.109758 
L 376.643247 55.134096 
L 377.380979 54.714631 
L 378.118712 54.481251 
L 378.856444 54.434545 
L 379.594177 54.574633 
L 380.331909 54.901158 
L 381.069642 55.413298 
L 382.17624 56.526577 
L 383.282839 58.04814 
L 384.389438 59.969344 
L 385.496037 62.279271 
L 386.971502 65.940858 
L 388.446967 70.232953 
L 390.291298 76.418126 
L 392.135629 83.422768 
L 394.348827 92.753693 
L 396.93089 104.645805 
L 400.619553 122.809485 
L 406.890279 153.86679 
L 409.472343 165.623587 
L 411.68554 174.798588 
L 413.529872 181.647784 
L 415.374203 187.656915 
L 416.849668 191.795205 
L 418.325133 195.293131 
L 419.431732 197.474834 
L 420.538331 199.263926 
L 421.644929 200.650242 
L 422.751528 201.625904 
L 423.489261 202.045369 
L 424.226993 202.278749 
L 424.964726 202.325455 
L 425.702458 202.185367 
L 426.440191 201.858842 
L 427.177923 201.346702 
L 428.284522 200.233423 
L 429.391121 198.71186 
L 430.497719 196.790656 
L 431.604318 194.480729 
L 433.079783 190.819142 
L 434.555248 186.527047 
L 436.399579 180.341874 
L 438.243911 173.337232 
L 440.457108 164.006307 
L 443.039172 152.114195 
L 446.727834 133.950515 
L 452.998561 102.89321 
L 455.580624 91.136413 
L 457.793822 81.961412 
L 459.638153 75.112216 
L 461.482484 69.103085 
L 462.957949 64.964795 
L 464.433414 61.466869 
L 465.540013 59.285166 
L 466.646612 57.496074 
L 467.753211 56.109758 
L 468.859809 55.134096 
L 469.597542 54.714631 
L 470.335274 54.481251 
L 471.073007 54.434545 
L 471.810739 54.574633 
L 472.548472 54.901158 
L 473.286204 55.413298 
L 474.392803 56.526577 
L 475.499402 58.04814 
L 476.606001 59.969344 
L 477.712599 62.279271 
L 479.188064 65.940858 
L 480.663529 70.232953 
L 482.507861 76.418126 
L 484.352192 83.422768 
L 486.56539 92.753693 
L 489.147453 104.645805 
L 492.836116 122.809485 
L 499.106842 153.86679 
L 501.688906 165.623587 
L 503.902103 174.798588 
L 505.746435 181.647784 
L 507.590766 187.656915 
L 509.066231 191.795205 
L 510.541696 195.293131 
L 511.648295 197.474834 
L 512.754893 199.263926 
L 513.861492 200.650242 
L 514.968091 201.625904 
L 515.705823 202.045369 
L 516.443556 202.278749 
L 517.181288 202.325455 
L 517.919021 202.185367 
L 518.656753 201.858842 
L 519.394486 201.346702 
L 520.501085 200.233423 
L 521.607683 198.71186 
L 522.714282 196.790656 
L 523.820881 194.480729 
L 525.296346 190.819142 
L 526.771811 186.527047 
L 528.616142 180.341874 
L 530.460473 173.337232 
L 532.673671 164.006307 
L 535.255735 152.114195 
L 538.944397 133.950515 
L 545.215123 102.89321 
L 547.797187 91.136413 
L 550.010385 81.961412 
L 551.854716 75.112216 
L 553.699047 69.103085 
L 555.174512 64.964795 
L 556.649977 61.466869 
L 557.756576 59.285166 
L 558.863175 57.496074 
L 559.969774 56.109758 
L 561.076372 55.134096 
L 561.814105 54.714631 
L 562.551837 54.481251 
L 563.28957 54.434545 
L 564.027302 54.574633 
L 564.765035 54.901158 
L 565.502767 55.413298 
L 566.609366 56.526577 
L 567.715965 58.04814 
L 568.822564 59.969344 
L 569.929162 62.279271 
L 571.404627 65.940858 
L 572.880092 70.232953 
L 574.724424 76.418126 
L 576.568755 83.422768 
L 578.781952 92.753693 
L 581.364016 104.645805 
L 585.052679 122.809485 
L 591.323405 153.86679 
L 593.905469 165.623587 
L 596.118666 174.798588 
L 597.962997 181.647784 
L 599.807329 187.656915 
L 601.282794 191.795205 
L 602.758259 195.293131 
L 603.864857 197.474834 
L 604.971456 199.263926 
L 606.078055 200.650242 
L 607.184654 201.625904 
L 607.922386 202.045369 
L 608.660119 202.278749 
L 609.397851 202.325455 
L 610.135584 202.185367 
L 610.873316 201.858842 
L 611.611049 201.346702 
L 612.717647 200.233423 
L 613.824246 198.71186 
L 614.930845 196.790656 
L 616.037444 194.480729 
L 617.512909 190.819142 
L 618.988374 186.527047 
L 620.832705 180.341874 
L 622.677036 173.337232 
L 624.890234 164.006307 
L 627.472298 152.114195 
L 631.16096 133.950515 
L 637.431686 102.89321 
L 640.01375 91.136413 
L 642.226948 81.961412 
L 644.071279 75.112216 
L 645.91561 69.103085 
L 647.391075 64.964795 
L 648.86654 61.466869 
L 649.973139 59.285166 
L 651.079738 57.496074 
L 652.186336 56.109758 
L 653.292935 55.134096 
L 654.030668 54.714631 
L 654.7684 54.481251 
L 655.506133 54.434545 
L 656.243865 54.574633 
L 656.981598 54.901158 
L 657.71933 55.413298 
L 658.825929 56.526577 
L 659.932528 58.04814 
L 661.039126 59.969344 
L 662.145725 62.279271 
L 663.62119 65.940858 
L 665.096655 70.232953 
L 666.940986 76.418126 
L 668.785318 83.422768 
L 670.998515 92.753693 
L 673.580579 104.645805 
L 677.269241 122.809485 
L 683.539968 153.86679 
L 686.122031 165.623587 
L 688.335229 174.798588 
L 690.17956 181.647784 
L 692.023891 187.656915 
L 693.499356 191.795205 
L 694.974822 195.293131 
L 696.08142 197.474834 
L 697.188019 199.263926 
L 698.294618 200.650242 
L 699.401217 201.625904 
L 700.138949 202.045369 
L 700.876682 202.278749 
L 701.614414 202.325455 
L 702.352147 202.185367 
L 703.089879 201.858842 
L 703.827612 201.346702 
L 704.93421 200.233423 
L 706.040809 198.71186 
L 707.147408 196.790656 
L 708.254007 194.480729 
L 709.729472 190.819142 
L 711.204937 186.527047 
L 713.049268 180.341874 
L 714.893599 173.337232 
L 717.106797 164.006307 
L 719.68886 152.114195 
L 723.377523 133.950515 
L 729.648249 102.89321 
L 732.230313 91.136413 
L 734.44351 81.961412 
L 736.287842 75.112216 
L 738.132173 69.103085 
L 739.607638 64.964795 
L 741.083103 61.466869 
L 742.189702 59.285166 
L 743.2963 57.496074 
L 744.402899 56.109758 
L 745.509498 55.134096 
L 746.24723 54.714631 
L 746.984963 54.481251 
L 747.722695 54.434545 
L 748.460428 54.574633 
L 749.19816 54.901158 
L 749.935893 55.413298 
L 751.042492 56.526577 
L 752.14909 58.04814 
L 753.255689 59.969344 
L 754.362288 62.279271 
L 755.837753 65.940858 
L 757.313218 70.232953 
L 759.157549 76.418126 
L 761.00188 83.422768 
L 763.215078 92.753693 
L 765.797142 104.645805 
L 769.485804 122.809485 
L 775.756531 153.86679 
L 778.338594 165.623587 
L 780.551792 174.798588 
L 782.396123 181.647784 
L 784.240454 187.656915 
L 785.715919 191.795205 
L 787.191384 195.293131 
L 788.297983 197.474834 
L 789.404582 199.263926 
L 790.511181 200.650242 
L 791.617779 201.625904 
L 792.355512 202.045369 
L 793.093244 202.278749 
L 793.830977 202.325455 
L 794.568709 202.185367 
L 795.306442 201.858842 
L 796.044174 201.346702 
L 797.150773 200.233423 
L 798.257372 198.71186 
L 799.363971 196.790656 
L 800.470569 194.480729 
L 801.946034 190.819142 
L 803.421499 186.527047 
L 805.265831 180.341874 
L 807.110162 173.337232 
L 809.323359 164.006307 
L 811.905423 152.114195 
L 815.594086 133.950515 
L 816.331818 130.238403 
L 816.331818 130.238403 
" clip-path="url(#pd893281a6e)" style="fill: none; stroke: #bfbf00; stroke-width: 1.5; stroke-linecap: square"/>
   </g>
   <g id="LineCollection_1">
    <path d="M 78.968182 128.38 
L 78.968182 128.38 
" clip-path="url(#pd893281a6e)" style="fill: none; stroke: #000000; stroke-width: 1.5"/>
    <path d="M 184.358539 128.38 
L 184.358539 70.562551 
" clip-path="url(#pd893281a6e)" style="fill: none; stroke: #000000; stroke-width: 1.5"/>
    <path d="M 289.748897 128.38 
L 289.748897 56.28282 
" clip-path="url(#pd893281a6e)" style="fill: none; stroke: #000000; stroke-width: 1.5"/>
    <path d="M 395.139254 128.38 
L 395.139254 96.293736 
" clip-path="url(#pd893281a6e)" style="fill: none; stroke: #000000; stroke-width: 1.5"/>
    <path d="M 500.529612 128.38 
L 500.529612 160.466264 
" clip-path="url(#pd893281a6e)" style="fill: none; stroke: #000000; stroke-width: 1.5"/>
    <path d="M 605.919969 128.38 
L 605.919969 200.47718 
" clip-path="url(#pd893281a6e)" style="fill: none; stroke: #000000; stroke-width: 1.5"/>
    <path d="M 711.310327 128.38 
L 711.310327 186.197449 
" clip-path="url(#pd893281a6e)" style="fill: none; stroke: #000000; stroke-width: 1.5"/>
   </g>
   <g id="line2d_13">
    <defs>
     <path id="mb761156309" d="M 0 3 
C 0.795609 3 1.55874 2.683901 2.12132 2.12132 
C 2.683901 1.55874 3 0.795609 3 0 
C 3 -0.795609 2.683901 -1.55874 2.12132 -2.12132 
C 1.55874 -2.683901 0.795609 -3 0 -3 
C -0.795609 -3 -1.55874 -2.683901 -2.12132 -2.12132 
C -2.683901 -1.55874 -3 -0.795609 -3 0 
C -3 0.795609 -2.683901 1.55874 -2.12132 2.12132 
C -1.55874 2.683901 -0.795609 3 0 3 
z
" style="stroke: #000000"/>
    </defs>
    <g clip-path="url(#pd893281a6e)">
     <use xlink:href="#mb761156309" x="78.968182" y="128.38" style="stroke: #000000"/>
     <use xlink:href="#mb761156309" x="184.358539" y="70.562551" style="stroke: #000000"/>
     <use xlink:href="#mb761156309" x="289.748897" y="56.28282" style="stroke: #000000"/>
     <use xlink:href="#mb761156309" x="395.139254" y="96.293736" style="stroke: #000000"/>
     <use xlink:href="#mb761156309" x="500.529612" y="160.466264" style="stroke: #000000"/>
     <use xlink:href="#mb761156309" x="605.919969" y="200.47718" style="stroke: #000000"/>
     <use xlink:href="#mb761156309" x="711.310327" y="186.197449" style="stroke: #000000"/>
    </g>
   </g>
   <g id="line2d_14">
    <path d="M 78.968182 128.38 
L 711.310327 128.38 
" clip-path="url(#pd893281a6e)" style="fill: none; stroke-dasharray: 5.55,2.4; stroke-dashoffset: 0; stroke: #000000; stroke-width: 1.5"/>
   </g>
   <g id="patch_3">
    <path d="M 42.1 209.72 
L 42.1 47.04 
" style="fill: none; stroke: #000000; stroke-width: 0.8; stroke-linejoin: miter; stroke-linecap: square"/>
   </g>
   <g id="patch_4">
    <path d="M 853.2 209.72 
L 853.2 47.04 
" style="fill: none; stroke: #000000; stroke-width: 0.8; stroke-linejoin: miter; stroke-linecap: square"/>
   </g>
   <g id="patch_5">
    <path d="M 42.1 209.72 
L 853.2 209.72 
" style="fill: none; stroke: #000000; stroke-width: 0.8; stroke-linejoin: miter; stroke-linecap: square"/>
   </g>
   <g id="patch_6">
    <path d="M 42.1 47.04 
L 853.2 47.04 
" style="fill: none; stroke: #000000; stroke-width: 0.8; stroke-linejoin: miter; stroke-linecap: square"/>
   </g>
   <g id="text_12">
    <!-- f1=8 Hz -->
    <g transform="translate(423.306875 41.04) scale(0.12 -0.12)">
     <defs>
      <path id="DejaVuSans-66" d="M 2375 4863 
L 2375 4384 
L 1825 4384 
Q 1516 4384 1395 4259 
Q 1275 4134 1275 3809 
L 1275 3500 
L 2222 3500 
L 2222 3053 
L 1275 3053 
L 1275 0 
L 697 0 
L 697 3053 
L 147 3053 
L 147 3500 
L 697 3500 
L 697 3744 
Q 697 4328 969 4595 
Q 1241 4863 1831 4863 
L 2375 4863 
z
" transform="scale(0.015625)"/>
      <path id="DejaVuSans-3d" d="M 678 2906 
L 4684 2906 
L 4684 2381 
L 678 2381 
L 678 2906 
z
M 678 1631 
L 4684 1631 
L 4684 1100 
L 678 1100 
L 678 1631 
z
" transform="scale(0.015625)"/>
      <path id="DejaVuSans-20" transform="scale(0.015625)"/>
      <path id="DejaVuSans-48" d="M 628 4666 
L 1259 4666 
L 1259 2753 
L 3553 2753 
L 3553 4666 
L 4184 4666 
L 4184 0 
L 3553 0 
L 3553 2222 
L 1259 2222 
L 1259 0 
L 628 0 
L 628 4666 
z
" transform="scale(0.015625)"/>
      <path id="DejaVuSans-7a" d="M 353 3500 
L 3084 3500 
L 3084 2975 
L 922 459 
L 3084 459 
L 3084 0 
L 275 0 
L 275 525 
L 2438 3041 
L 353 3041 
L 353 3500 
z
" transform="scale(0.015625)"/>
     </defs>
     <use xlink:href="#DejaVuSans-66"/>
     <use xlink:href="#DejaVuSans-31" x="35.205078"/>
     <use xlink:href="#DejaVuSans-3d" x="98.828125"/>
     <use xlink:href="#DejaVuSans-38" x="182.617188"/>
     <use xlink:href="#DejaVuSans-20" x="246.240234"/>
     <use xlink:href="#DejaVuSans-48" x="278.027344"/>
     <use xlink:href="#DejaVuSans-7a" x="353.222656"/>
    </g>
   </g>
  </g>
  <g id="axes_2">
   <g id="patch_7">
    <path d="M 42.1 414.92 
L 853.2 414.92 
L 853.2 252.24 
L 42.1 252.24 
z
" style="fill: #ffffff"/>
   </g>
   <g id="matplotlib.axis_3">
    <g id="xtick_7">
     <g id="line2d_15">
      <g>
       <use xlink:href="#mfe7f239f4a" x="78.968182" y="414.92" style="stroke: #000000; stroke-width: 0.8"/>
      </g>
     </g>
     <g id="text_13">
      <!-- 0.0 -->
      <g transform="translate(71.016619 429.518437) scale(0.1 -0.1)">
       <use xlink:href="#DejaVuSans-30"/>
       <use xlink:href="#DejaVuSans-2e" x="63.623047"/>
       <use xlink:href="#DejaVuSans-30" x="95.410156"/>
      </g>
     </g>
    </g>
    <g id="xtick_8">
     <g id="line2d_16">
      <g>
       <use xlink:href="#mfe7f239f4a" x="226.514682" y="414.92" style="stroke: #000000; stroke-width: 0.8"/>
      </g>
     </g>
     <g id="text_14">
      <!-- 0.2 -->
      <g transform="translate(218.56312 429.518437) scale(0.1 -0.1)">
       <use xlink:href="#DejaVuSans-30"/>
       <use xlink:href="#DejaVuSans-2e" x="63.623047"/>
       <use xlink:href="#DejaVuSans-32" x="95.410156"/>
      </g>
     </g>
    </g>
    <g id="xtick_9">
     <g id="line2d_17">
      <g>
       <use xlink:href="#mfe7f239f4a" x="374.061183" y="414.92" style="stroke: #000000; stroke-width: 0.8"/>
      </g>
     </g>
     <g id="text_15">
      <!-- 0.4 -->
      <g transform="translate(366.10962 429.518437) scale(0.1 -0.1)">
       <use xlink:href="#DejaVuSans-30"/>
       <use xlink:href="#DejaVuSans-2e" x="63.623047"/>
       <use xlink:href="#DejaVuSans-34" x="95.410156"/>
      </g>
     </g>
    </g>
    <g id="xtick_10">
     <g id="line2d_18">
      <g>
       <use xlink:href="#mfe7f239f4a" x="521.607683" y="414.92" style="stroke: #000000; stroke-width: 0.8"/>
      </g>
     </g>
     <g id="text_16">
      <!-- 0.6 -->
      <g transform="translate(513.656121 429.518437) scale(0.1 -0.1)">
       <use xlink:href="#DejaVuSans-30"/>
       <use xlink:href="#DejaVuSans-2e" x="63.623047"/>
       <use xlink:href="#DejaVuSans-36" x="95.410156"/>
      </g>
     </g>
    </g>
    <g id="xtick_11">
     <g id="line2d_19">
      <g>
       <use xlink:href="#mfe7f239f4a" x="669.154184" y="414.92" style="stroke: #000000; stroke-width: 0.8"/>
      </g>
     </g>
     <g id="text_17">
      <!-- 0.8 -->
      <g transform="translate(661.202621 429.518437) scale(0.1 -0.1)">
       <use xlink:href="#DejaVuSans-30"/>
       <use xlink:href="#DejaVuSans-2e" x="63.623047"/>
       <use xlink:href="#DejaVuSans-38" x="95.410156"/>
      </g>
     </g>
    </g>
    <g id="xtick_12">
     <g id="line2d_20">
      <g>
       <use xlink:href="#mfe7f239f4a" x="816.700684" y="414.92" style="stroke: #000000; stroke-width: 0.8"/>
      </g>
     </g>
     <g id="text_18">
      <!-- 1.0 -->
      <g transform="translate(808.749122 429.518437) scale(0.1 -0.1)">
       <use xlink:href="#DejaVuSans-31"/>
       <use xlink:href="#DejaVuSans-2e" x="63.623047"/>
       <use xlink:href="#DejaVuSans-30" x="95.410156"/>
      </g>
     </g>
    </g>
   </g>
   <g id="matplotlib.axis_4">
    <g id="ytick_6">
     <g id="line2d_21">
      <g>
       <use xlink:href="#m232abbd57e" x="42.1" y="407.525455" style="stroke: #000000; stroke-width: 0.8"/>
      </g>
     </g>
     <g id="text_19">
      <!-- −1.0 -->
      <g transform="translate(10.817188 411.324673) scale(0.1 -0.1)">
       <use xlink:href="#DejaVuSans-2212"/>
       <use xlink:href="#DejaVuSans-31" x="83.789062"/>
       <use xlink:href="#DejaVuSans-2e" x="147.412109"/>
       <use xlink:href="#DejaVuSans-30" x="179.199219"/>
      </g>
     </g>
    </g>
    <g id="ytick_7">
     <g id="line2d_22">
      <g>
       <use xlink:href="#m232abbd57e" x="42.1" y="370.552727" style="stroke: #000000; stroke-width: 0.8"/>
      </g>
     </g>
     <g id="text_20">
      <!-- −0.5 -->
      <g transform="translate(10.817188 374.351946) scale(0.1 -0.1)">
       <use xlink:href="#DejaVuSans-2212"/>
       <use xlink:href="#DejaVuSans-30" x="83.789062"/>
       <use xlink:href="#DejaVuSans-2e" x="147.412109"/>
       <use xlink:href="#DejaVuSans-35" x="179.199219"/>
      </g>
     </g>
    </g>
    <g id="ytick_8">
     <g id="line2d_23">
      <g>
       <use xlink:href="#m232abbd57e" x="42.1" y="333.58" style="stroke: #000000; stroke-width: 0.8"/>
      </g>
     </g>
     <g id="text_21">
      <!-- 0.0 -->
      <g transform="translate(19.196875 337.379219) scale(0.1 -0.1)">
       <use xlink:href="#DejaVuSans-30"/>
       <use xlink:href="#DejaVuSans-2e" x="63.623047"/>
       <use xlink:href="#DejaVuSans-30" x="95.410156"/>
      </g>
     </g>
    </g>
    <g id="ytick_9">
     <g id="line2d_24">
      <g>
       <use xlink:href="#m232abbd57e" x="42.1" y="296.607273" style="stroke: #000000; stroke-width: 0.8"/>
      </g>
     </g>
     <g id="text_22">
      <!-- 0.5 -->
      <g transform="translate(19.196875 300.406491) scale(0.1 -0.1)">
       <use xlink:href="#DejaVuSans-30"/>
       <use xlink:href="#DejaVuSans-2e" x="63.623047"/>
       <use xlink:href="#DejaVuSans-35" x="95.410156"/>
      </g>
     </g>
    </g>
    <g id="ytick_10">
     <g id="line2d_25">
      <g>
       <use xlink:href="#m232abbd57e" x="42.1" y="259.634545" style="stroke: #000000; stroke-width: 0.8"/>
      </g>
     </g>
     <g id="text_23">
      <!-- 1.0 -->
      <g transform="translate(19.196875 263.433764) scale(0.1 -0.1)">
       <use xlink:href="#DejaVuSans-31"/>
       <use xlink:href="#DejaVuSans-2e" x="63.623047"/>
       <use xlink:href="#DejaVuSans-30" x="95.410156"/>
      </g>
     </g>
    </g>
   </g>
   <g id="line2d_26">
    <path d="M 78.968182 333.58 
L 82.287978 303.150384 
L 84.132309 288.258309 
L 85.607774 278.112696 
L 86.714373 271.775845 
L 87.820972 266.672152 
L 88.558704 264.006144 
L 89.296437 261.957678 
L 90.034169 260.544937 
L 90.771902 259.78046 
L 91.140768 259.643668 
L 91.509634 259.671033 
L 91.878501 259.862495 
L 92.247367 260.217627 
L 92.985099 261.415391 
L 93.722832 263.253694 
L 94.460564 265.716217 
L 95.567163 270.531135 
L 96.673762 276.604048 
L 97.780361 283.813784 
L 99.255826 294.943606 
L 101.100157 310.729598 
L 104.419953 341.694354 
L 107.002017 365.064443 
L 108.846348 379.813852 
L 110.321813 389.808565 
L 111.428412 396.014212 
L 112.535011 400.97413 
L 113.272743 403.538712 
L 114.010476 405.482336 
L 114.748208 406.787749 
L 115.485941 407.443366 
L 115.854807 407.525455 
L 116.223673 407.443366 
L 116.592539 407.197282 
L 117.330272 406.215677 
L 118.068004 404.589353 
L 118.805737 402.332745 
L 119.543469 399.465882 
L 120.650068 394.078453 
L 121.756667 387.483917 
L 123.232132 377.044048 
L 125.076463 361.8777 
L 127.658527 338.223074 
L 131.34719 304.212719 
L 133.191521 289.181654 
L 134.666986 278.887642 
L 135.773585 272.421151 
L 136.880183 267.174943 
L 137.617916 264.408166 
L 138.355648 262.255363 
L 139.093381 260.735643 
L 139.831113 259.862495 
L 140.19998 259.671033 
L 140.568846 259.643668 
L 140.937712 259.78046 
L 141.306578 260.081105 
L 142.044311 261.170924 
L 142.782043 262.903451 
L 143.519776 265.263308 
L 144.257508 268.229549 
L 145.364107 273.756871 
L 146.470706 280.477824 
L 147.946171 291.060975 
L 149.790502 306.358863 
L 152.372566 330.096692 
L 156.061228 364.009616 
L 157.90556 378.901691 
L 159.381025 389.047304 
L 160.487623 395.384155 
L 161.594222 400.487848 
L 162.331955 403.153856 
L 163.069687 405.202322 
L 163.80742 406.615063 
L 164.545152 407.37954 
L 164.914018 407.516332 
L 165.282885 407.488967 
L 165.651751 407.297505 
L 166.020617 406.942373 
L 166.75835 405.744609 
L 167.496082 403.906306 
L 168.233815 401.443783 
L 169.340413 396.628865 
L 170.447012 390.555952 
L 171.553611 383.346216 
L 173.029076 372.216394 
L 174.873407 356.430402 
L 178.193203 325.465646 
L 180.775267 302.095557 
L 182.619598 287.346148 
L 184.095063 277.351435 
L 185.201662 271.145788 
L 186.308261 266.18587 
L 187.045993 263.621288 
L 187.783726 261.677664 
L 188.521458 260.372251 
L 189.259191 259.716634 
L 189.628057 259.634545 
L 189.996923 259.716634 
L 190.36579 259.962718 
L 191.103522 260.944323 
L 191.841255 262.570647 
L 192.578987 264.827255 
L 193.31672 267.694118 
L 194.423318 273.081547 
L 195.529917 279.676083 
L 197.005382 290.115952 
L 198.849713 305.2823 
L 201.431777 328.936926 
L 205.12044 362.947281 
L 206.964771 377.978346 
L 208.440236 388.272358 
L 209.546835 394.738849 
L 210.653434 399.985057 
L 211.391166 402.751834 
L 212.128899 404.904637 
L 212.866631 406.424357 
L 213.604364 407.297505 
L 213.97323 407.488967 
L 214.342096 407.516332 
L 214.710962 407.37954 
L 215.079829 407.078895 
L 215.817561 405.989076 
L 216.555294 404.256549 
L 217.293026 401.896692 
L 218.030759 398.930451 
L 219.137357 393.403129 
L 220.243956 386.682176 
L 221.719421 376.099025 
L 223.563752 360.801137 
L 226.145816 337.063308 
L 229.834479 303.150384 
L 231.67881 288.258309 
L 233.154275 278.112696 
L 234.260874 271.775845 
L 235.367472 266.672152 
L 236.105205 264.006144 
L 236.842937 261.957678 
L 237.58067 260.544937 
L 238.318402 259.78046 
L 238.687269 259.643668 
L 239.056135 259.671033 
L 239.425001 259.862495 
L 239.793867 260.217627 
L 240.5316 261.415391 
L 241.269332 263.253694 
L 242.007065 265.716217 
L 243.113664 270.531135 
L 244.220262 276.604048 
L 245.326861 283.813784 
L 246.802326 294.943606 
L 248.646657 310.729598 
L 251.966454 341.694354 
L 254.548517 365.064443 
L 256.392849 379.813852 
L 257.868314 389.808565 
L 258.974912 396.014212 
L 260.081511 400.97413 
L 260.819244 403.538712 
L 261.556976 405.482336 
L 262.294709 406.787749 
L 263.032441 407.443366 
L 263.401307 407.525455 
L 263.770174 407.443366 
L 264.13904 407.197282 
L 264.876772 406.215677 
L 265.614505 404.589353 
L 266.352237 402.332745 
L 267.08997 399.465882 
L 268.196569 394.078453 
L 269.303167 387.483917 
L 270.778632 377.044048 
L 272.622964 361.8777 
L 275.205028 338.223074 
L 278.89369 304.212719 
L 280.738021 289.181654 
L 282.213486 278.887642 
L 283.320085 272.421151 
L 284.426684 267.174943 
L 285.164416 264.408166 
L 285.902149 262.255363 
L 286.639881 260.735643 
L 287.377614 259.862495 
L 287.74648 259.671033 
L 288.115346 259.643668 
L 288.484213 259.78046 
L 288.853079 260.081105 
L 289.590811 261.170924 
L 290.328544 262.903451 
L 291.066276 265.263308 
L 291.804009 268.229549 
L 292.910608 273.756871 
L 294.017206 280.477824 
L 295.492671 291.060975 
L 297.337003 306.358863 
L 299.919066 330.096692 
L 303.607729 364.009616 
L 305.45206 378.901691 
L 306.927525 389.047304 
L 308.034124 395.384155 
L 309.140723 400.487848 
L 309.878455 403.153856 
L 310.616188 405.202322 
L 311.35392 406.615063 
L 312.091653 407.37954 
L 312.460519 407.516332 
L 312.829385 407.488967 
L 313.198251 407.297505 
L 313.567118 406.942373 
L 314.30485 405.744609 
L 315.042583 403.906306 
L 315.780315 401.443783 
L 316.886914 396.628865 
L 317.993513 390.555952 
L 319.100111 383.346216 
L 320.575576 372.216394 
L 322.419908 356.430402 
L 325.739704 325.465646 
L 328.321768 302.095557 
L 330.166099 287.346148 
L 331.641564 277.351435 
L 332.748163 271.145788 
L 333.854761 266.18587 
L 334.592494 263.621288 
L 335.330226 261.677664 
L 336.067959 260.372251 
L 336.805691 259.716634 
L 337.174558 259.634545 
L 337.543424 259.716634 
L 337.91229 259.962718 
L 338.650023 260.944323 
L 339.387755 262.570647 
L 340.125488 264.827255 
L 340.86322 267.694118 
L 341.969819 273.081547 
L 343.076418 279.676083 
L 344.551883 290.115952 
L 346.396214 305.2823 
L 348.978278 328.936926 
L 352.66694 362.947281 
L 354.511272 377.978346 
L 355.986737 388.272358 
L 357.093335 394.738849 
L 358.199934 399.985057 
L 358.937667 402.751834 
L 359.675399 404.904637 
L 360.413132 406.424357 
L 361.150864 407.297505 
L 361.51973 407.488967 
L 361.888597 407.516332 
L 362.257463 407.37954 
L 362.626329 407.078895 
L 363.364062 405.989076 
L 364.101794 404.256549 
L 364.839527 401.896692 
L 365.577259 398.930451 
L 366.683858 393.403129 
L 367.790457 386.682176 
L 369.265922 376.099025 
L 371.110253 360.801137 
L 373.692317 337.063308 
L 377.380979 303.150384 
L 379.22531 288.258309 
L 380.700775 278.112696 
L 381.807374 271.775845 
L 382.913973 266.672152 
L 383.651705 264.006144 
L 384.389438 261.957678 
L 385.12717 260.544937 
L 385.864903 259.78046 
L 386.233769 259.643668 
L 386.602635 259.671033 
L 386.971502 259.862495 
L 387.340368 260.217627 
L 388.0781 261.415391 
L 388.815833 263.253694 
L 389.553565 265.716217 
L 390.660164 270.531135 
L 391.766763 276.604048 
L 392.873362 283.813784 
L 394.348827 294.943606 
L 396.193158 310.729598 
L 399.512954 341.694354 
L 402.095018 365.064443 
L 403.939349 379.813852 
L 405.414814 389.808565 
L 406.521413 396.014212 
L 407.628012 400.97413 
L 408.365744 403.538712 
L 409.103477 405.482336 
L 409.841209 406.787749 
L 410.578942 407.443366 
L 410.947808 407.525455 
L 411.316674 407.443366 
L 411.68554 407.197282 
L 412.423273 406.215677 
L 413.161006 404.589353 
L 413.898738 402.332745 
L 414.636471 399.465882 
L 415.743069 394.078453 
L 416.849668 387.483917 
L 418.325133 377.044048 
L 420.169464 361.8777 
L 422.751528 338.223074 
L 426.440191 304.212719 
L 428.284522 289.181654 
L 429.759987 278.887642 
L 430.866586 272.421151 
L 431.973184 267.174943 
L 432.710917 264.408166 
L 433.448649 262.255363 
L 434.186382 260.735643 
L 434.924114 259.862495 
L 435.292981 259.671033 
L 435.661847 259.643668 
L 436.030713 259.78046 
L 436.399579 260.081105 
L 437.137312 261.170924 
L 437.875044 262.903451 
L 438.612777 265.263308 
L 439.350509 268.229549 
L 440.457108 273.756871 
L 441.563707 280.477824 
L 443.039172 291.060975 
L 444.883503 306.358863 
L 447.465567 330.096692 
L 451.154229 364.009616 
L 452.998561 378.901691 
L 454.474026 389.047304 
L 455.580624 395.384155 
L 456.687223 400.487848 
L 457.424956 403.153856 
L 458.162688 405.202322 
L 458.900421 406.615063 
L 459.638153 407.37954 
L 460.007019 407.516332 
L 460.375886 407.488967 
L 460.744752 407.297505 
L 461.113618 406.942373 
L 461.851351 405.744609 
L 462.589083 403.906306 
L 463.326816 401.443783 
L 464.433414 396.628865 
L 465.540013 390.555952 
L 466.646612 383.346216 
L 468.122077 372.216394 
L 469.966408 356.430402 
L 473.286204 325.465646 
L 475.868268 302.095557 
L 477.712599 287.346148 
L 479.188064 277.351435 
L 480.294663 271.145788 
L 481.401262 266.18587 
L 482.138994 263.621288 
L 482.876727 261.677664 
L 483.61446 260.372251 
L 484.352192 259.716634 
L 484.721058 259.634545 
L 485.089925 259.716634 
L 485.458791 259.962718 
L 486.196523 260.944323 
L 486.934256 262.570647 
L 487.671988 264.827255 
L 488.409721 267.694118 
L 489.51632 273.081547 
L 490.622918 279.676083 
L 492.098383 290.115952 
L 493.942715 305.2823 
L 496.524778 328.936926 
L 500.213441 362.947281 
L 502.057772 377.978346 
L 503.533237 388.272358 
L 504.639836 394.738849 
L 505.746435 399.985057 
L 506.484167 402.751834 
L 507.2219 404.904637 
L 507.959632 406.424357 
L 508.697365 407.297505 
L 509.066231 407.488967 
L 509.435097 407.516332 
L 509.803963 407.37954 
L 510.17283 407.078895 
L 510.910562 405.989076 
L 511.648295 404.256549 
L 512.386027 401.896692 
L 513.12376 398.930451 
L 514.230358 393.403129 
L 515.336957 386.682176 
L 516.812422 376.099025 
L 518.656753 360.801137 
L 521.238817 337.063308 
L 524.92748 303.150384 
L 526.771811 288.258309 
L 528.247276 278.112696 
L 529.353875 271.775845 
L 530.460473 266.672152 
L 531.198206 264.006144 
L 531.935938 261.957678 
L 532.673671 260.544937 
L 533.411403 259.78046 
L 533.78027 259.643668 
L 534.149136 259.671033 
L 534.518002 259.862495 
L 534.886868 260.217627 
L 535.624601 261.415391 
L 536.362333 263.253694 
L 537.100066 265.716217 
L 538.206665 270.531135 
L 539.313263 276.604048 
L 540.419862 283.813784 
L 541.895327 294.943606 
L 543.739658 310.729598 
L 547.059455 341.694354 
L 549.641518 365.064443 
L 551.48585 379.813852 
L 552.961315 389.808565 
L 554.067914 396.014212 
L 555.174512 400.97413 
L 555.912245 403.538712 
L 556.649977 405.482336 
L 557.38771 406.787749 
L 558.125442 407.443366 
L 558.494309 407.525455 
L 558.863175 407.443366 
L 559.232041 407.197282 
L 559.969774 406.215677 
L 560.707506 404.589353 
L 561.445239 402.332745 
L 562.182971 399.465882 
L 563.28957 394.078453 
L 564.396169 387.483917 
L 565.871634 377.044048 
L 567.715965 361.8777 
L 570.298029 338.223074 
L 573.986691 304.212719 
L 575.831022 289.181654 
L 577.306487 278.887642 
L 578.413086 272.421151 
L 579.519685 267.174943 
L 580.257417 264.408166 
L 580.99515 262.255363 
L 581.732882 260.735643 
L 582.470615 259.862495 
L 582.839481 259.671033 
L 583.208347 259.643668 
L 583.577214 259.78046 
L 583.94608 260.081105 
L 584.683812 261.170924 
L 585.421545 262.903451 
L 586.159277 265.263308 
L 586.89701 268.229549 
L 588.003609 273.756871 
L 589.110207 280.477824 
L 590.585672 291.060975 
L 592.430004 306.358863 
L 595.012067 330.096692 
L 598.70073 364.009616 
L 600.545061 378.901691 
L 602.020526 389.047304 
L 603.127125 395.384155 
L 604.233724 400.487848 
L 604.971456 403.153856 
L 605.709189 405.202322 
L 606.446921 406.615063 
L 607.184654 407.37954 
L 607.55352 407.516332 
L 607.922386 407.488967 
L 608.291252 407.297505 
L 608.660119 406.942373 
L 609.397851 405.744609 
L 610.135584 403.906306 
L 610.873316 401.443783 
L 611.979915 396.628865 
L 613.086514 390.555952 
L 614.193112 383.346216 
L 615.668577 372.216394 
L 617.512909 356.430402 
L 620.832705 325.465646 
L 623.414769 302.095557 
L 625.2591 287.346148 
L 626.734565 277.351435 
L 627.841164 271.145788 
L 628.947763 266.18587 
L 629.685495 263.621288 
L 630.423228 261.677664 
L 631.16096 260.372251 
L 631.898693 259.716634 
L 632.267559 259.634545 
L 632.636425 259.716634 
L 633.005291 259.962718 
L 633.743024 260.944323 
L 634.480756 262.570647 
L 635.218489 264.827255 
L 635.956221 267.694118 
L 637.06282 273.081547 
L 638.169419 279.676083 
L 639.644884 290.115952 
L 641.489215 305.2823 
L 644.071279 328.936926 
L 647.759941 362.947281 
L 649.604273 377.978346 
L 651.079738 388.272358 
L 652.186336 394.738849 
L 653.292935 399.985057 
L 654.030668 402.751834 
L 654.7684 404.904637 
L 655.506133 406.424357 
L 656.243865 407.297505 
L 656.612731 407.488967 
L 656.981598 407.516332 
L 657.350464 407.37954 
L 657.71933 407.078895 
L 658.457063 405.989076 
L 659.194795 404.256549 
L 659.932528 401.896692 
L 660.67026 398.930451 
L 661.776859 393.403129 
L 662.883458 386.682176 
L 664.358923 376.099025 
L 666.203254 360.801137 
L 668.785318 337.063308 
L 672.47398 303.150384 
L 674.318311 288.258309 
L 675.793776 278.112696 
L 676.900375 271.775845 
L 678.006974 266.672152 
L 678.744706 264.006144 
L 679.482439 261.957678 
L 680.220171 260.544937 
L 680.957904 259.78046 
L 681.32677 259.643668 
L 681.695636 259.671033 
L 682.064503 259.862495 
L 682.433369 260.217627 
L 683.171101 261.415391 
L 683.908834 263.253694 
L 684.646566 265.716217 
L 685.753165 270.531135 
L 686.859764 276.604048 
L 687.966363 283.813784 
L 689.441828 294.943606 
L 691.286159 310.729598 
L 694.605955 341.694354 
L 697.188019 365.064443 
L 699.03235 379.813852 
L 700.507815 389.808565 
L 701.614414 396.014212 
L 702.721013 400.97413 
L 703.458745 403.538712 
L 704.196478 405.482336 
L 704.93421 406.787749 
L 705.671943 407.443366 
L 706.040809 407.525455 
L 706.409675 407.443366 
L 706.778542 407.197282 
L 707.516274 406.215677 
L 708.254007 404.589353 
L 708.991739 402.332745 
L 709.729472 399.465882 
L 710.83607 394.078453 
L 711.942669 387.483917 
L 713.418134 377.044048 
L 715.262465 361.8777 
L 717.844529 338.223074 
L 721.533192 304.212719 
L 723.377523 289.181654 
L 724.852988 278.887642 
L 725.959587 272.421151 
L 727.066185 267.174943 
L 727.803918 264.408166 
L 728.54165 262.255363 
L 729.279383 260.735643 
L 730.017115 259.862495 
L 730.385982 259.671033 
L 730.754848 259.643668 
L 731.123714 259.78046 
L 731.49258 260.081105 
L 732.230313 261.170924 
L 732.968045 262.903451 
L 733.705778 265.263308 
L 734.44351 268.229549 
L 735.550109 273.756871 
L 736.656708 280.477824 
L 738.132173 291.060975 
L 739.976504 306.358863 
L 742.558568 330.096692 
L 746.24723 364.009616 
L 748.091562 378.901691 
L 749.567027 389.047304 
L 750.673625 395.384155 
L 751.780224 400.487848 
L 752.517957 403.153856 
L 753.255689 405.202322 
L 753.993422 406.615063 
L 754.731154 407.37954 
L 755.10002 407.516332 
L 755.468887 407.488967 
L 755.837753 407.297505 
L 756.206619 406.942373 
L 756.944352 405.744609 
L 757.682084 403.906306 
L 758.419817 401.443783 
L 759.526415 396.628865 
L 760.633014 390.555952 
L 761.739613 383.346216 
L 763.215078 372.216394 
L 765.059409 356.430402 
L 768.379206 325.465646 
L 770.961269 302.095557 
L 772.805601 287.346148 
L 774.281066 277.351435 
L 775.387664 271.145788 
L 776.494263 266.18587 
L 777.231996 263.621288 
L 777.969728 261.677664 
L 778.707461 260.372251 
L 779.445193 259.716634 
L 779.814059 259.634545 
L 780.182926 259.716634 
L 780.551792 259.962718 
L 781.289524 260.944323 
L 782.027257 262.570647 
L 782.764989 264.827255 
L 783.502722 267.694118 
L 784.609321 273.081547 
L 785.715919 279.676083 
L 787.191384 290.115952 
L 789.035716 305.2823 
L 791.617779 328.936926 
L 795.306442 362.947281 
L 797.150773 377.978346 
L 798.626238 388.272358 
L 799.732837 394.738849 
L 800.839436 399.985057 
L 801.577168 402.751834 
L 802.314901 404.904637 
L 803.052633 406.424357 
L 803.790366 407.297505 
L 804.159232 407.488967 
L 804.528098 407.516332 
L 804.896964 407.37954 
L 805.265831 407.078895 
L 806.003563 405.989076 
L 806.741296 404.256549 
L 807.479028 401.896692 
L 808.216761 398.930451 
L 809.323359 393.403129 
L 810.429958 386.682176 
L 811.905423 376.099025 
L 813.749754 360.801137 
L 816.331818 337.063308 
L 816.331818 337.063308 
" clip-path="url(#pa1b3daddcb)" style="fill: none; stroke: #800080; stroke-width: 1.5; stroke-linecap: square"/>
   </g>
   <g id="LineCollection_2">
    <path d="M 78.968182 333.58 
L 78.968182 333.58 
" clip-path="url(#pa1b3daddcb)" style="fill: none; stroke: #000000; stroke-width: 1.5"/>
    <path d="M 184.358539 333.58 
L 184.358539 275.767116 
" clip-path="url(#pa1b3daddcb)" style="fill: none; stroke: #000000; stroke-width: 1.5"/>
    <path d="M 289.748897 333.58 
L 289.748897 261.488512 
" clip-path="url(#pa1b3daddcb)" style="fill: none; stroke: #000000; stroke-width: 1.5"/>
    <path d="M 395.139254 333.58 
L 395.139254 301.49627 
" clip-path="url(#pa1b3daddcb)" style="fill: none; stroke: #000000; stroke-width: 1.5"/>
    <path d="M 500.529612 333.58 
L 500.529612 365.66373 
" clip-path="url(#pa1b3daddcb)" style="fill: none; stroke: #000000; stroke-width: 1.5"/>
    <path d="M 605.919969 333.58 
L 605.919969 405.671488 
" clip-path="url(#pa1b3daddcb)" style="fill: none; stroke: #000000; stroke-width: 1.5"/>
    <path d="M 711.310327 333.58 
L 711.310327 391.392884 
" clip-path="url(#pa1b3daddcb)" style="fill: none; stroke: #000000; stroke-width: 1.5"/>
   </g>
   <g id="line2d_27">
    <g clip-path="url(#pa1b3daddcb)">
     <use xlink:href="#mb761156309" x="78.968182" y="333.58" style="stroke: #000000"/>
     <use xlink:href="#mb761156309" x="184.358539" y="275.767116" style="stroke: #000000"/>
     <use xlink:href="#mb761156309" x="289.748897" y="261.488512" style="stroke: #000000"/>
     <use xlink:href="#mb761156309" x="395.139254" y="301.49627" style="stroke: #000000"/>
     <use xlink:href="#mb761156309" x="500.529612" y="365.66373" style="stroke: #000000"/>
     <use xlink:href="#mb761156309" x="605.919969" y="405.671488" style="stroke: #000000"/>
     <use xlink:href="#mb761156309" x="711.310327" y="391.392884" style="stroke: #000000"/>
    </g>
   </g>
   <g id="line2d_28">
    <path d="M 78.968182 333.58 
L 711.310327 333.58 
" clip-path="url(#pa1b3daddcb)" style="fill: none; stroke-dasharray: 5.55,2.4; stroke-dashoffset: 0; stroke: #000000; stroke-width: 1.5"/>
   </g>
   <g id="patch_8">
    <path d="M 42.1 414.92 
L 42.1 252.24 
" style="fill: none; stroke: #000000; stroke-width: 0.8; stroke-linejoin: miter; stroke-linecap: square"/>
   </g>
   <g id="patch_9">
    <path d="M 853.2 414.92 
L 853.2 252.24 
" style="fill: none; stroke: #000000; stroke-width: 0.8; stroke-linejoin: miter; stroke-linecap: square"/>
   </g>
   <g id="patch_10">
    <path d="M 42.1 414.92 
L 853.2 414.92 
" style="fill: none; stroke: #000000; stroke-width: 0.8; stroke-linejoin: miter; stroke-linecap: square"/>
   </g>
   <g id="patch_11">
    <path d="M 42.1 252.24 
L 853.2 252.24 
" style="fill: none; stroke: #000000; stroke-width: 0.8; stroke-linejoin: miter; stroke-linecap: square"/>
   </g>
   <g id="text_24">
    <!-- f2=15 Hz -->
    <g transform="translate(419.489375 246.24) scale(0.12 -0.12)">
     <use xlink:href="#DejaVuSans-66"/>
     <use xlink:href="#DejaVuSans-32" x="35.205078"/>
     <use xlink:href="#DejaVuSans-3d" x="98.828125"/>
     <use xlink:href="#DejaVuSans-31" x="182.617188"/>
     <use xlink:href="#DejaVuSans-35" x="246.240234"/>
     <use xlink:href="#DejaVuSans-20" x="309.863281"/>
     <use xlink:href="#DejaVuSans-48" x="341.650391"/>
     <use xlink:href="#DejaVuSans-7a" x="416.845703"/>
    </g>
   </g>
  </g>
  <g id="axes_3">
   <g id="patch_12">
    <path d="M 42.1 620.12 
L 853.2 620.12 
L 853.2 457.44 
L 42.1 457.44 
z
" style="fill: #ffffff"/>
   </g>
   <g id="matplotlib.axis_5">
    <g id="xtick_13">
     <g id="line2d_29">
      <g>
       <use xlink:href="#mfe7f239f4a" x="78.968182" y="620.12" style="stroke: #000000; stroke-width: 0.8"/>
      </g>
     </g>
     <g id="text_25">
      <!-- 0.0 -->
      <g transform="translate(71.016619 634.718437) scale(0.1 -0.1)">
       <use xlink:href="#DejaVuSans-30"/>
       <use xlink:href="#DejaVuSans-2e" x="63.623047"/>
       <use xlink:href="#DejaVuSans-30" x="95.410156"/>
      </g>
     </g>
    </g>
    <g id="xtick_14">
     <g id="line2d_30">
      <g>
       <use xlink:href="#mfe7f239f4a" x="226.514682" y="620.12" style="stroke: #000000; stroke-width: 0.8"/>
      </g>
     </g>
     <g id="text_26">
      <!-- 0.2 -->
      <g transform="translate(218.56312 634.718437) scale(0.1 -0.1)">
       <use xlink:href="#DejaVuSans-30"/>
       <use xlink:href="#DejaVuSans-2e" x="63.623047"/>
       <use xlink:href="#DejaVuSans-32" x="95.410156"/>
      </g>
     </g>
    </g>
    <g id="xtick_15">
     <g id="line2d_31">
      <g>
       <use xlink:href="#mfe7f239f4a" x="374.061183" y="620.12" style="stroke: #000000; stroke-width: 0.8"/>
      </g>
     </g>
     <g id="text_27">
      <!-- 0.4 -->
      <g transform="translate(366.10962 634.718437) scale(0.1 -0.1)">
       <use xlink:href="#DejaVuSans-30"/>
       <use xlink:href="#DejaVuSans-2e" x="63.623047"/>
       <use xlink:href="#DejaVuSans-34" x="95.410156"/>
      </g>
     </g>
    </g>
    <g id="xtick_16">
     <g id="line2d_32">
      <g>
       <use xlink:href="#mfe7f239f4a" x="521.607683" y="620.12" style="stroke: #000000; stroke-width: 0.8"/>
      </g>
     </g>
     <g id="text_28">
      <!-- 0.6 -->
      <g transform="translate(513.656121 634.718437) scale(0.1 -0.1)">
       <use xlink:href="#DejaVuSans-30"/>
       <use xlink:href="#DejaVuSans-2e" x="63.623047"/>
       <use xlink:href="#DejaVuSans-36" x="95.410156"/>
      </g>
     </g>
    </g>
    <g id="xtick_17">
     <g id="line2d_33">
      <g>
       <use xlink:href="#mfe7f239f4a" x="669.154184" y="620.12" style="stroke: #000000; stroke-width: 0.8"/>
      </g>
     </g>
     <g id="text_29">
      <!-- 0.8 -->
      <g transform="translate(661.202621 634.718437) scale(0.1 -0.1)">
       <use xlink:href="#DejaVuSans-30"/>
       <use xlink:href="#DejaVuSans-2e" x="63.623047"/>
       <use xlink:href="#DejaVuSans-38" x="95.410156"/>
      </g>
     </g>
    </g>
    <g id="xtick_18">
     <g id="line2d_34">
      <g>
       <use xlink:href="#mfe7f239f4a" x="816.700684" y="620.12" style="stroke: #000000; stroke-width: 0.8"/>
      </g>
     </g>
     <g id="text_30">
      <!-- 1.0 -->
      <g transform="translate(808.749122 634.718437) scale(0.1 -0.1)">
       <use xlink:href="#DejaVuSans-31"/>
       <use xlink:href="#DejaVuSans-2e" x="63.623047"/>
       <use xlink:href="#DejaVuSans-30" x="95.410156"/>
      </g>
     </g>
    </g>
   </g>
   <g id="matplotlib.axis_6">
    <g id="ytick_11">
     <g id="line2d_35">
      <g>
       <use xlink:href="#m232abbd57e" x="42.1" y="612.725455" style="stroke: #000000; stroke-width: 0.8"/>
      </g>
     </g>
     <g id="text_31">
      <!-- −1.0 -->
      <g transform="translate(10.817188 616.524673) scale(0.1 -0.1)">
       <use xlink:href="#DejaVuSans-2212"/>
       <use xlink:href="#DejaVuSans-31" x="83.789062"/>
       <use xlink:href="#DejaVuSans-2e" x="147.412109"/>
       <use xlink:href="#DejaVuSans-30" x="179.199219"/>
      </g>
     </g>
    </g>
    <g id="ytick_12">
     <g id="line2d_36">
      <g>
       <use xlink:href="#m232abbd57e" x="42.1" y="575.752727" style="stroke: #000000; stroke-width: 0.8"/>
      </g>
     </g>
     <g id="text_32">
      <!-- −0.5 -->
      <g transform="translate(10.817188 579.551946) scale(0.1 -0.1)">
       <use xlink:href="#DejaVuSans-2212"/>
       <use xlink:href="#DejaVuSans-30" x="83.789062"/>
       <use xlink:href="#DejaVuSans-2e" x="147.412109"/>
       <use xlink:href="#DejaVuSans-35" x="179.199219"/>
      </g>
     </g>
    </g>
    <g id="ytick_13">
     <g id="line2d_37">
      <g>
       <use xlink:href="#m232abbd57e" x="42.1" y="538.78" style="stroke: #000000; stroke-width: 0.8"/>
      </g>
     </g>
     <g id="text_33">
      <!-- 0.0 -->
      <g transform="translate(19.196875 542.579219) scale(0.1 -0.1)">
       <use xlink:href="#DejaVuSans-30"/>
       <use xlink:href="#DejaVuSans-2e" x="63.623047"/>
       <use xlink:href="#DejaVuSans-30" x="95.410156"/>
      </g>
     </g>
    </g>
    <g id="ytick_14">
     <g id="line2d_38">
      <g>
       <use xlink:href="#m232abbd57e" x="42.1" y="501.807273" style="stroke: #000000; stroke-width: 0.8"/>
      </g>
     </g>
     <g id="text_34">
      <!-- 0.5 -->
      <g transform="translate(19.196875 505.606491) scale(0.1 -0.1)">
       <use xlink:href="#DejaVuSans-30"/>
       <use xlink:href="#DejaVuSans-2e" x="63.623047"/>
       <use xlink:href="#DejaVuSans-35" x="95.410156"/>
      </g>
     </g>
    </g>
    <g id="ytick_15">
     <g id="line2d_39">
      <g>
       <use xlink:href="#m232abbd57e" x="42.1" y="464.834545" style="stroke: #000000; stroke-width: 0.8"/>
      </g>
     </g>
     <g id="text_35">
      <!-- 1.0 -->
      <g transform="translate(19.196875 468.633764) scale(0.1 -0.1)">
       <use xlink:href="#DejaVuSans-31"/>
       <use xlink:href="#DejaVuSans-2e" x="63.623047"/>
       <use xlink:href="#DejaVuSans-30" x="95.410156"/>
      </g>
     </g>
    </g>
   </g>
   <g id="line2d_40">
    <path d="M 78.968182 538.78 
L 81.550246 504.384192 
L 83.025711 487.823166 
L 84.132309 477.883508 
L 84.870042 472.68449 
L 85.607774 468.746385 
L 86.345507 466.144323 
L 86.714373 465.360844 
L 87.083239 464.927942 
L 87.452106 464.847682 
L 87.820972 465.120447 
L 88.189838 465.744937 
L 88.558704 466.718167 
L 89.296437 469.690622 
L 90.034169 473.981104 
L 90.771902 479.507765 
L 91.878501 489.878994 
L 92.985099 502.345053 
L 94.829431 526.295534 
L 98.518093 575.618524 
L 99.993558 591.720249 
L 101.100157 601.214212 
L 101.837889 606.0782 
L 102.575622 609.658329 
L 103.313354 611.886303 
L 103.682221 612.478915 
L 104.051087 612.719616 
L 104.419953 612.607256 
L 104.788819 612.142373 
L 105.157686 611.327184 
L 105.895418 608.663119 
L 106.633151 604.665882 
L 107.370883 599.411731 
L 108.477482 589.399147 
L 109.584081 577.21813 
L 111.059546 558.516189 
L 115.854807 495.315952 
L 116.961406 483.931567 
L 118.068004 474.89679 
L 118.805737 470.374745 
L 119.543469 467.157678 
L 120.281202 465.30696 
L 120.650068 464.906056 
L 121.018934 464.857898 
L 121.387801 465.162718 
L 121.756667 465.819059 
L 122.125533 466.823788 
L 122.863266 469.857578 
L 123.600998 474.206211 
L 124.338731 479.786728 
L 125.445329 490.228468 
L 126.920794 507.295557 
L 128.765126 531.821118 
L 131.716056 571.519959 
L 133.191521 588.37415 
L 134.29812 598.603129 
L 135.035852 604.021426 
L 135.773585 608.195102 
L 136.511317 611.044536 
L 136.880183 611.954656 
L 137.24905 612.515368 
L 137.617916 612.723995 
L 137.986782 612.57954 
L 138.355648 612.082693 
L 138.724515 611.235827 
L 139.462247 608.509864 
L 140.19998 604.453653 
L 140.937712 599.144577 
L 142.044311 589.059462 
L 143.15091 576.820465 
L 144.626375 558.068044 
L 149.05277 499.158044 
L 150.159368 487.153841 
L 151.265967 477.361209 
L 152.0037 472.27307 
L 152.741432 468.453694 
L 153.479165 465.975943 
L 153.848031 465.255976 
L 154.216897 464.887086 
L 154.585763 464.871033 
L 154.95463 465.207895 
L 155.323496 465.896062 
L 155.692362 466.93225 
L 156.430095 470.027255 
L 157.167827 474.433867 
L 157.90556 480.068019 
L 159.012158 490.579859 
L 160.487623 507.71657 
L 162.700821 537.386244 
L 165.282885 571.935901 
L 166.75835 588.717791 
L 167.864948 598.875039 
L 168.602681 604.238832 
L 169.340413 608.353856 
L 170.078146 611.14161 
L 170.447012 612.02012 
L 170.815878 612.54891 
L 171.184745 612.725455 
L 171.553611 612.54891 
L 171.922477 612.02012 
L 172.291343 611.14161 
L 173.029076 608.353856 
L 173.766808 604.238832 
L 174.504541 598.875039 
L 175.61114 588.717791 
L 176.717738 576.421299 
L 178.193203 557.619137 
L 182.619598 498.766543 
L 183.726197 486.822229 
L 184.832796 477.103691 
L 185.570528 472.071294 
L 186.308261 468.311509 
L 187.045993 465.896062 
L 187.41486 465.207895 
L 187.783726 464.871033 
L 188.152592 464.887086 
L 188.521458 465.255976 
L 188.890325 465.975943 
L 189.259191 467.043548 
L 189.996923 470.199647 
L 190.734656 474.664063 
L 191.472388 480.351628 
L 192.578987 490.933153 
L 194.054452 508.138809 
L 196.26765 537.850798 
L 198.849713 572.350534 
L 200.325178 589.059462 
L 201.431777 599.144577 
L 202.16951 604.453653 
L 202.907242 608.509864 
L 203.644975 611.235827 
L 204.013841 612.082693 
L 204.382707 612.57954 
L 204.751574 612.723995 
L 205.12044 612.515368 
L 205.489306 611.954656 
L 205.858172 611.044536 
L 206.595905 608.195102 
L 207.333637 604.021426 
L 208.07137 598.603129 
L 209.177969 588.37415 
L 210.284567 576.020647 
L 212.128899 552.179343 
L 215.817561 502.750068 
L 217.293026 486.492668 
L 218.399625 476.848608 
L 219.137357 471.872152 
L 219.87509 468.172107 
L 220.612822 465.819059 
L 220.981689 465.162718 
L 221.350555 464.857898 
L 221.719421 464.906056 
L 222.088287 465.30696 
L 222.457154 466.058697 
L 223.194886 468.598654 
L 223.932619 472.477471 
L 224.670351 477.621151 
L 225.77695 487.487491 
L 226.883549 499.551109 
L 228.359014 518.149876 
L 233.154275 581.488876 
L 234.260874 593.0009 
L 235.367472 602.190198 
L 236.105205 606.826962 
L 236.842937 610.165584 
L 237.58067 612.142373 
L 237.949536 612.607256 
L 238.318402 612.719616 
L 238.687269 612.478915 
L 239.056135 611.886303 
L 239.425001 610.944609 
L 240.162734 608.033607 
L 240.900466 603.801444 
L 241.638199 598.328858 
L 242.744797 588.02855 
L 243.851396 575.618524 
L 245.695727 551.72216 
L 249.38439 502.345053 
L 250.859855 486.165171 
L 251.966454 476.595971 
L 252.704186 471.675652 
L 253.441919 468.035492 
L 254.179651 465.744937 
L 254.548517 465.120447 
L 254.917384 464.847682 
L 255.28625 464.927942 
L 255.655116 465.360844 
L 256.023982 466.144323 
L 256.761715 468.746385 
L 257.499447 472.68449 
L 258.23718 477.883508 
L 259.343779 487.823166 
L 260.450377 499.945723 
L 261.925842 518.596445 
L 266.721104 581.867312 
L 267.827702 593.315743 
L 268.934301 602.42796 
L 269.672034 607.007455 
L 270.409766 610.285365 
L 271.147499 612.199156 
L 271.516365 612.632058 
L 271.885231 612.712318 
L 272.254098 612.439553 
L 272.622964 611.815063 
L 272.99183 610.841833 
L 273.729563 607.869378 
L 274.467295 603.578896 
L 275.205028 598.052235 
L 276.311626 587.681006 
L 277.418225 575.214947 
L 279.262556 551.264466 
L 282.951219 501.941476 
L 284.426684 485.839751 
L 285.533283 476.345788 
L 286.271015 471.4818 
L 287.008748 467.901671 
L 287.74648 465.673697 
L 288.115346 465.081085 
L 288.484213 464.840384 
L 288.853079 464.952744 
L 289.221945 465.417627 
L 289.590811 466.232816 
L 290.328544 468.896881 
L 291.066276 472.894118 
L 291.804009 478.148269 
L 292.910608 488.160853 
L 294.017206 500.34187 
L 295.492671 519.043811 
L 300.287933 582.244048 
L 301.394531 593.628433 
L 302.50113 602.66321 
L 303.238863 607.185255 
L 303.976595 610.402322 
L 304.714328 612.25304 
L 305.083194 612.653944 
L 305.45206 612.702102 
L 305.820926 612.397282 
L 306.189793 611.740941 
L 306.558659 610.736212 
L 307.296391 607.702422 
L 308.034124 603.353789 
L 308.771856 597.773272 
L 309.878455 587.331532 
L 311.35392 570.264443 
L 313.198251 545.738882 
L 316.149181 506.040041 
L 317.624646 489.18585 
L 318.731245 478.956871 
L 319.468978 473.538574 
L 320.20671 469.364898 
L 320.944443 466.515464 
L 321.313309 465.605344 
L 321.682175 465.044632 
L 322.051041 464.836005 
L 322.419908 464.98046 
L 322.788774 465.477307 
L 323.15764 466.324173 
L 323.895373 469.050136 
L 324.633105 473.106347 
L 325.370838 478.415423 
L 326.477436 488.500538 
L 327.584035 500.739535 
L 329.0595 519.491956 
L 333.485895 578.401956 
L 334.592494 590.406159 
L 335.699093 600.198791 
L 336.436825 605.28693 
L 337.174558 609.106306 
L 337.91229 611.584057 
L 338.281156 612.304024 
L 338.650023 612.672914 
L 339.018889 612.688967 
L 339.387755 612.352105 
L 339.756621 611.663938 
L 340.125488 610.62775 
L 340.86322 607.532745 
L 341.600953 603.126133 
L 342.338685 597.491981 
L 343.445284 586.980141 
L 344.920749 569.84343 
L 347.133947 540.173756 
L 349.71601 505.624099 
L 351.191475 488.842209 
L 352.298074 478.684961 
L 353.035807 473.321168 
L 353.773539 469.206144 
L 354.511272 466.41839 
L 354.880138 465.53988 
L 355.249004 465.01109 
L 355.61787 464.834545 
L 355.986737 465.01109 
L 356.355603 465.53988 
L 356.724469 466.41839 
L 357.462202 469.206144 
L 358.199934 473.321168 
L 358.937667 478.684961 
L 360.044265 488.842209 
L 361.150864 501.138701 
L 362.626329 519.940863 
L 367.052724 578.793457 
L 368.159323 590.737771 
L 369.265922 600.456309 
L 370.003654 605.488706 
L 370.741387 609.248491 
L 371.479119 611.663938 
L 371.847985 612.352105 
L 372.216852 612.688967 
L 372.585718 612.672914 
L 372.954584 612.304024 
L 373.32345 611.584057 
L 373.692317 610.516452 
L 374.430049 607.360353 
L 375.167782 602.895937 
L 375.905514 597.208372 
L 377.012113 586.626847 
L 378.487578 569.421191 
L 380.700775 539.709202 
L 383.282839 505.209466 
L 384.758304 488.500538 
L 385.864903 478.415423 
L 386.602635 473.106347 
L 387.340368 469.050136 
L 388.0781 466.324173 
L 388.446967 465.477307 
L 388.815833 464.98046 
L 389.184699 464.836005 
L 389.553565 465.044632 
L 389.922432 465.605344 
L 390.291298 466.515464 
L 391.02903 469.364898 
L 391.766763 473.538574 
L 392.504495 478.956871 
L 393.611094 489.18585 
L 394.717693 501.539353 
L 396.562024 525.380657 
L 400.250687 574.809932 
L 401.726152 591.067332 
L 402.83275 600.711392 
L 403.570483 605.687848 
L 404.308215 609.387893 
L 405.045948 611.740941 
L 405.414814 612.397282 
L 405.78368 612.702102 
L 406.152547 612.653944 
L 406.521413 612.25304 
L 406.890279 611.501303 
L 407.628012 608.961346 
L 408.365744 605.082529 
L 409.103477 599.938849 
L 410.210075 590.072509 
L 411.316674 578.008891 
L 412.792139 559.410124 
L 417.587401 496.071124 
L 418.693999 484.5591 
L 419.800598 475.369802 
L 420.538331 470.733038 
L 421.276063 467.394416 
L 422.013796 465.417627 
L 422.382662 464.952744 
L 422.751528 464.840384 
L 423.120394 465.081085 
L 423.489261 465.673697 
L 423.858127 466.615391 
L 424.595859 469.526393 
L 425.333592 473.758556 
L 426.071324 479.231142 
L 427.177923 489.53145 
L 428.284522 501.941476 
L 430.128853 525.83784 
L 433.817516 575.214947 
L 435.292981 591.394829 
L 436.399579 600.964029 
L 437.137312 605.884348 
L 437.875044 609.524508 
L 438.612777 611.815063 
L 438.981643 612.439553 
L 439.350509 612.712318 
L 439.719376 612.632058 
L 440.088242 612.199156 
L 440.457108 611.415677 
L 441.194841 608.813615 
L 441.932573 604.87551 
L 442.670306 599.676492 
L 443.776904 589.736834 
L 444.883503 577.614277 
L 446.358968 558.963555 
L 451.154229 495.692688 
L 452.260828 484.244257 
L 453.367427 475.13204 
L 454.105159 470.552545 
L 454.842892 467.274635 
L 455.580624 465.360844 
L 455.949491 464.927942 
L 456.318357 464.847682 
L 456.687223 465.120447 
L 457.056089 465.744937 
L 457.424956 466.718167 
L 458.162688 469.690622 
L 458.900421 473.981104 
L 459.638153 479.507765 
L 460.744752 489.878994 
L 461.851351 502.345053 
L 463.695682 526.295534 
L 467.384344 575.618524 
L 468.859809 591.720249 
L 469.966408 601.214212 
L 470.704141 606.0782 
L 471.441873 609.658329 
L 472.179606 611.886303 
L 472.548472 612.478915 
L 472.917338 612.719616 
L 473.286204 612.607256 
L 473.655071 612.142373 
L 474.023937 611.327184 
L 474.761669 608.663119 
L 475.499402 604.665882 
L 476.237134 599.411731 
L 477.343733 589.399147 
L 478.450332 577.21813 
L 479.925797 558.516189 
L 484.721058 495.315952 
L 485.827657 483.931567 
L 486.934256 474.89679 
L 487.671988 470.374745 
L 488.409721 467.157678 
L 489.147453 465.30696 
L 489.51632 464.906056 
L 489.885186 464.857898 
L 490.254052 465.162718 
L 490.622918 465.819059 
L 490.991785 466.823788 
L 491.729517 469.857578 
L 492.46725 474.206211 
L 493.204982 479.786728 
L 494.311581 490.228468 
L 495.787046 507.295557 
L 497.631377 531.821118 
L 500.582307 571.519959 
L 502.057772 588.37415 
L 503.164371 598.603129 
L 503.902103 604.021426 
L 504.639836 608.195102 
L 505.377568 611.044536 
L 505.746435 611.954656 
L 506.115301 612.515368 
L 506.484167 612.723995 
L 506.853033 612.57954 
L 507.2219 612.082693 
L 507.590766 611.235827 
L 508.328498 608.509864 
L 509.066231 604.453653 
L 509.803963 599.144577 
L 510.910562 589.059462 
L 512.017161 576.820465 
L 513.492626 558.068044 
L 517.919021 499.158044 
L 519.02562 487.153841 
L 520.132218 477.361209 
L 520.869951 472.27307 
L 521.607683 468.453694 
L 522.345416 465.975943 
L 522.714282 465.255976 
L 523.083148 464.887086 
L 523.452015 464.871033 
L 523.820881 465.207895 
L 524.189747 465.896062 
L 524.558613 466.93225 
L 525.296346 470.027255 
L 526.034078 474.433867 
L 526.771811 480.068019 
L 527.87841 490.579859 
L 529.353875 507.71657 
L 531.567072 537.386244 
L 534.149136 571.935901 
L 535.624601 588.717791 
L 536.7312 598.875039 
L 537.468932 604.238832 
L 538.206665 608.353856 
L 538.944397 611.14161 
L 539.313263 612.02012 
L 539.68213 612.54891 
L 540.050996 612.725455 
L 540.419862 612.54891 
L 540.788728 612.02012 
L 541.157595 611.14161 
L 541.895327 608.353856 
L 542.63306 604.238832 
L 543.370792 598.875039 
L 544.477391 588.717791 
L 545.58399 576.421299 
L 547.059455 557.619137 
L 551.48585 498.766543 
L 552.592448 486.822229 
L 553.699047 477.103691 
L 554.43678 472.071294 
L 555.174512 468.311509 
L 555.912245 465.896062 
L 556.281111 465.207895 
L 556.649977 464.871033 
L 557.018844 464.887086 
L 557.38771 465.255976 
L 557.756576 465.975943 
L 558.125442 467.043548 
L 558.863175 470.199647 
L 559.600907 474.664063 
L 560.33864 480.351628 
L 561.445239 490.933153 
L 562.920704 508.138809 
L 565.133901 537.850798 
L 567.715965 572.350534 
L 569.19143 589.059462 
L 570.298029 599.144577 
L 571.035761 604.453653 
L 571.773494 608.509864 
L 572.511226 611.235827 
L 572.880092 612.082693 
L 573.248959 612.57954 
L 573.617825 612.723995 
L 573.986691 612.515368 
L 574.355557 611.954656 
L 574.724424 611.044536 
L 575.462156 608.195102 
L 576.199889 604.021426 
L 576.937621 598.603129 
L 578.04422 588.37415 
L 579.150819 576.020647 
L 580.99515 552.179343 
L 584.683812 502.750068 
L 586.159277 486.492668 
L 587.265876 476.848608 
L 588.003609 471.872152 
L 588.741341 468.172107 
L 589.479074 465.819059 
L 589.84794 465.162718 
L 590.216806 464.857898 
L 590.585672 464.906056 
L 590.954539 465.30696 
L 591.323405 466.058697 
L 592.061137 468.598654 
L 592.79887 472.477471 
L 593.536602 477.621151 
L 594.643201 487.487491 
L 595.7498 499.551109 
L 597.225265 518.149876 
L 602.020526 581.488876 
L 603.127125 593.0009 
L 604.233724 602.190198 
L 604.971456 606.826962 
L 605.709189 610.165584 
L 606.446921 612.142373 
L 606.815787 612.607256 
L 607.184654 612.719616 
L 607.55352 612.478915 
L 607.922386 611.886303 
L 608.291252 610.944609 
L 609.028985 608.033607 
L 609.766717 603.801444 
L 610.50445 598.328858 
L 611.611049 588.02855 
L 612.717647 575.618524 
L 614.561979 551.72216 
L 618.250641 502.345053 
L 619.726106 486.165171 
L 620.832705 476.595971 
L 621.570437 471.675652 
L 622.30817 468.035492 
L 623.045902 465.744937 
L 623.414769 465.120447 
L 623.783635 464.847682 
L 624.152501 464.927942 
L 624.521368 465.360844 
L 624.890234 466.144323 
L 625.627966 468.746385 
L 626.365699 472.68449 
L 627.103431 477.883508 
L 628.21003 487.823166 
L 629.316629 499.945723 
L 630.792094 518.596445 
L 635.587355 581.867312 
L 636.693954 593.315743 
L 637.800553 602.42796 
L 638.538285 607.007455 
L 639.276018 610.285365 
L 640.01375 612.199156 
L 640.382616 612.632058 
L 640.751483 612.712318 
L 641.120349 612.439553 
L 641.489215 611.815063 
L 641.858081 610.841833 
L 642.595814 607.869378 
L 643.333546 603.578896 
L 644.071279 598.052235 
L 645.177878 587.681006 
L 646.284476 575.214947 
L 648.128808 551.264466 
L 651.81747 501.941476 
L 653.292935 485.839751 
L 654.399534 476.345788 
L 655.137266 471.4818 
L 655.874999 467.901671 
L 656.612731 465.673697 
L 656.981598 465.081085 
L 657.350464 464.840384 
L 657.71933 464.952744 
L 658.088196 465.417627 
L 658.457063 466.232816 
L 659.194795 468.896881 
L 659.932528 472.894118 
L 660.67026 478.148269 
L 661.776859 488.160853 
L 662.883458 500.34187 
L 664.358923 519.043811 
L 669.154184 582.244048 
L 670.260783 593.628433 
L 671.367381 602.66321 
L 672.105114 607.185255 
L 672.842846 610.402322 
L 673.580579 612.25304 
L 673.949445 612.653944 
L 674.318311 612.702102 
L 674.687178 612.397282 
L 675.056044 611.740941 
L 675.42491 610.736212 
L 676.162643 607.702422 
L 676.900375 603.353789 
L 677.638108 597.773272 
L 678.744706 587.331532 
L 680.220171 570.264443 
L 682.064503 545.738882 
L 685.015433 506.040041 
L 686.490898 489.18585 
L 687.597496 478.956871 
L 688.335229 473.538574 
L 689.072961 469.364898 
L 689.810694 466.515464 
L 690.17956 465.605344 
L 690.548426 465.044632 
L 690.917293 464.836005 
L 691.286159 464.98046 
L 691.655025 465.477307 
L 692.023891 466.324173 
L 692.761624 469.050136 
L 693.499356 473.106347 
L 694.237089 478.415423 
L 695.343688 488.500538 
L 696.450287 500.739535 
L 697.925752 519.491956 
L 702.352147 578.401956 
L 703.458745 590.406159 
L 704.565344 600.198791 
L 705.303077 605.28693 
L 706.040809 609.106306 
L 706.778542 611.584057 
L 707.147408 612.304024 
L 707.516274 612.672914 
L 707.88514 612.688967 
L 708.254007 612.352105 
L 708.622873 611.663938 
L 708.991739 610.62775 
L 709.729472 607.532745 
L 710.467204 603.126133 
L 711.204937 597.491981 
L 712.311535 586.980141 
L 713.787 569.84343 
L 716.000198 540.173756 
L 718.582262 505.624099 
L 720.057727 488.842209 
L 721.164325 478.684961 
L 721.902058 473.321168 
L 722.63979 469.206144 
L 723.377523 466.41839 
L 723.746389 465.53988 
L 724.115255 465.01109 
L 724.484122 464.834545 
L 724.852988 465.01109 
L 725.221854 465.53988 
L 725.59072 466.41839 
L 726.328453 469.206144 
L 727.066185 473.321168 
L 727.803918 478.684961 
L 728.910517 488.842209 
L 730.017115 501.138701 
L 731.49258 519.940863 
L 735.918975 578.793457 
L 737.025574 590.737771 
L 738.132173 600.456309 
L 738.869905 605.488706 
L 739.607638 609.248491 
L 740.34537 611.663938 
L 740.714237 612.352105 
L 741.083103 612.688967 
L 741.451969 612.672914 
L 741.820835 612.304024 
L 742.189702 611.584057 
L 742.558568 610.516452 
L 743.2963 607.360353 
L 744.034033 602.895937 
L 744.771765 597.208372 
L 745.878364 586.626847 
L 747.353829 569.421191 
L 749.567027 539.709202 
L 752.14909 505.209466 
L 753.624555 488.500538 
L 754.731154 478.415423 
L 755.468887 473.106347 
L 756.206619 469.050136 
L 756.944352 466.324173 
L 757.313218 465.477307 
L 757.682084 464.98046 
L 758.05095 464.836005 
L 758.419817 465.044632 
L 758.788683 465.605344 
L 759.157549 466.515464 
L 759.895282 469.364898 
L 760.633014 473.538574 
L 761.370747 478.956871 
L 762.477345 489.18585 
L 763.583944 501.539353 
L 765.428276 525.380657 
L 769.116938 574.809932 
L 770.592403 591.067332 
L 771.699002 600.711392 
L 772.436734 605.687848 
L 773.174467 609.387893 
L 773.912199 611.740941 
L 774.281066 612.397282 
L 774.649932 612.702102 
L 775.018798 612.653944 
L 775.387664 612.25304 
L 775.756531 611.501303 
L 776.494263 608.961346 
L 777.231996 605.082529 
L 777.969728 599.938849 
L 779.076327 590.072509 
L 780.182926 578.008891 
L 781.658391 559.410124 
L 786.453652 496.071124 
L 787.560251 484.5591 
L 788.666849 475.369802 
L 789.404582 470.733038 
L 790.142314 467.394416 
L 790.880047 465.417627 
L 791.248913 464.952744 
L 791.617779 464.840384 
L 791.986646 465.081085 
L 792.355512 465.673697 
L 792.724378 466.615391 
L 793.462111 469.526393 
L 794.199843 473.758556 
L 794.937576 479.231142 
L 796.044174 489.53145 
L 797.150773 501.941476 
L 798.995104 525.83784 
L 802.683767 575.214947 
L 804.159232 591.394829 
L 805.265831 600.964029 
L 806.003563 605.884348 
L 806.741296 609.524508 
L 807.479028 611.815063 
L 807.847894 612.439553 
L 808.216761 612.712318 
L 808.585627 612.632058 
L 808.954493 612.199156 
L 809.323359 611.415677 
L 810.061092 608.813615 
L 810.798824 604.87551 
L 811.536557 599.676492 
L 812.643156 589.736834 
L 813.749754 577.614277 
L 815.225219 558.963555 
L 816.331818 543.886675 
L 816.331818 543.886675 
" clip-path="url(#pfb252692ba)" style="fill: none; stroke: #008000; stroke-width: 1.5; stroke-linecap: square"/>
   </g>
   <g id="LineCollection_3">
    <path d="M 78.968182 538.78 
L 78.968182 538.78 
" clip-path="url(#pfb252692ba)" style="fill: none; stroke: #000000; stroke-width: 1.5"/>
    <path d="M 184.358539 538.78 
L 184.358539 480.967116 
" clip-path="url(#pfb252692ba)" style="fill: none; stroke: #000000; stroke-width: 1.5"/>
    <path d="M 289.748897 538.78 
L 289.748897 466.688512 
" clip-path="url(#pfb252692ba)" style="fill: none; stroke: #000000; stroke-width: 1.5"/>
    <path d="M 395.139254 538.78 
L 395.139254 506.69627 
" clip-path="url(#pfb252692ba)" style="fill: none; stroke: #000000; stroke-width: 1.5"/>
    <path d="M 500.529612 538.78 
L 500.529612 570.86373 
" clip-path="url(#pfb252692ba)" style="fill: none; stroke: #000000; stroke-width: 1.5"/>
    <path d="M 605.919969 538.78 
L 605.919969 610.871488 
" clip-path="url(#pfb252692ba)" style="fill: none; stroke: #000000; stroke-width: 1.5"/>
    <path d="M 711.310327 538.78 
L 711.310327 596.592884 
" clip-path="url(#pfb252692ba)" style="fill: none; stroke: #000000; stroke-width: 1.5"/>
   </g>
   <g id="line2d_41">
    <g clip-path="url(#pfb252692ba)">
     <use xlink:href="#mb761156309" x="78.968182" y="538.78" style="stroke: #000000"/>
     <use xlink:href="#mb761156309" x="184.358539" y="480.967116" style="stroke: #000000"/>
     <use xlink:href="#mb761156309" x="289.748897" y="466.688512" style="stroke: #000000"/>
     <use xlink:href="#mb761156309" x="395.139254" y="506.69627" style="stroke: #000000"/>
     <use xlink:href="#mb761156309" x="500.529612" y="570.86373" style="stroke: #000000"/>
     <use xlink:href="#mb761156309" x="605.919969" y="610.871488" style="stroke: #000000"/>
     <use xlink:href="#mb761156309" x="711.310327" y="596.592884" style="stroke: #000000"/>
    </g>
   </g>
   <g id="line2d_42">
    <path d="M 78.968182 538.78 
L 711.310327 538.78 
" clip-path="url(#pfb252692ba)" style="fill: none; stroke-dasharray: 5.55,2.4; stroke-dashoffset: 0; stroke: #000000; stroke-width: 1.5"/>
   </g>
   <g id="patch_13">
    <path d="M 42.1 620.12 
L 42.1 457.44 
" style="fill: none; stroke: #000000; stroke-width: 0.8; stroke-linejoin: miter; stroke-linecap: square"/>
   </g>
   <g id="patch_14">
    <path d="M 853.2 620.12 
L 853.2 457.44 
" style="fill: none; stroke: #000000; stroke-width: 0.8; stroke-linejoin: miter; stroke-linecap: square"/>
   </g>
   <g id="patch_15">
    <path d="M 42.1 620.12 
L 853.2 620.12 
" style="fill: none; stroke: #000000; stroke-width: 0.8; stroke-linejoin: miter; stroke-linecap: square"/>
   </g>
   <g id="patch_16">
    <path d="M 42.1 457.44 
L 853.2 457.44 
" style="fill: none; stroke: #000000; stroke-width: 0.8; stroke-linejoin: miter; stroke-linecap: square"/>
   </g>
   <g id="text_36">
    <!-- f3=22 Hz -->
    <g transform="translate(419.489375 451.44) scale(0.12 -0.12)">
     <defs>
      <path id="DejaVuSans-33" d="M 2597 2516 
Q 3050 2419 3304 2112 
Q 3559 1806 3559 1356 
Q 3559 666 3084 287 
Q 2609 -91 1734 -91 
Q 1441 -91 1130 -33 
Q 819 25 488 141 
L 488 750 
Q 750 597 1062 519 
Q 1375 441 1716 441 
Q 2309 441 2620 675 
Q 2931 909 2931 1356 
Q 2931 1769 2642 2001 
Q 2353 2234 1838 2234 
L 1294 2234 
L 1294 2753 
L 1863 2753 
Q 2328 2753 2575 2939 
Q 2822 3125 2822 3475 
Q 2822 3834 2567 4026 
Q 2313 4219 1838 4219 
Q 1578 4219 1281 4162 
Q 984 4106 628 3988 
L 628 4550 
Q 988 4650 1302 4700 
Q 1616 4750 1894 4750 
Q 2613 4750 3031 4423 
Q 3450 4097 3450 3541 
Q 3450 3153 3228 2886 
Q 3006 2619 2597 2516 
z
" transform="scale(0.015625)"/>
     </defs>
     <use xlink:href="#DejaVuSans-66"/>
     <use xlink:href="#DejaVuSans-33" x="35.205078"/>
     <use xlink:href="#DejaVuSans-3d" x="98.828125"/>
     <use xlink:href="#DejaVuSans-32" x="182.617188"/>
     <use xlink:href="#DejaVuSans-32" x="246.240234"/>
     <use xlink:href="#DejaVuSans-20" x="309.863281"/>
     <use xlink:href="#DejaVuSans-48" x="341.650391"/>
     <use xlink:href="#DejaVuSans-7a" x="416.845703"/>
    </g>
   </g>
  </g>
  <g id="text_37">
   <!-- Aliasing with fs = 7Hz, base freq f=1Hz -->
   <g transform="translate(313.88625 22.078125) scale(0.12 -0.12)">
    <defs>
     <path id="DejaVuSans-41" d="M 2188 4044 
L 1331 1722 
L 3047 1722 
L 2188 4044 
z
M 1831 4666 
L 2547 4666 
L 4325 0 
L 3669 0 
L 3244 1197 
L 1141 1197 
L 716 0 
L 50 0 
L 1831 4666 
z
" transform="scale(0.015625)"/>
     <path id="DejaVuSans-6c" d="M 603 4863 
L 1178 4863 
L 1178 0 
L 603 0 
L 603 4863 
z
" transform="scale(0.015625)"/>
     <path id="DejaVuSans-69" d="M 603 3500 
L 1178 3500 
L 1178 0 
L 603 0 
L 603 3500 
z
M 603 4863 
L 1178 4863 
L 1178 4134 
L 603 4134 
L 603 4863 
z
" transform="scale(0.015625)"/>
     <path id="DejaVuSans-61" d="M 2194 1759 
Q 1497 1759 1228 1600 
Q 959 1441 959 1056 
Q 959 750 1161 570 
Q 1363 391 1709 391 
Q 2188 391 2477 730 
Q 2766 1069 2766 1631 
L 2766 1759 
L 2194 1759 
z
M 3341 1997 
L 3341 0 
L 2766 0 
L 2766 531 
Q 2569 213 2275 61 
Q 1981 -91 1556 -91 
Q 1019 -91 701 211 
Q 384 513 384 1019 
Q 384 1609 779 1909 
Q 1175 2209 1959 2209 
L 2766 2209 
L 2766 2266 
Q 2766 2663 2505 2880 
Q 2244 3097 1772 3097 
Q 1472 3097 1187 3025 
Q 903 2953 641 2809 
L 641 3341 
Q 956 3463 1253 3523 
Q 1550 3584 1831 3584 
Q 2591 3584 2966 3190 
Q 3341 2797 3341 1997 
z
" transform="scale(0.015625)"/>
     <path id="DejaVuSans-73" d="M 2834 3397 
L 2834 2853 
Q 2591 2978 2328 3040 
Q 2066 3103 1784 3103 
Q 1356 3103 1142 2972 
Q 928 2841 928 2578 
Q 928 2378 1081 2264 
Q 1234 2150 1697 2047 
L 1894 2003 
Q 2506 1872 2764 1633 
Q 3022 1394 3022 966 
Q 3022 478 2636 193 
Q 2250 -91 1575 -91 
Q 1294 -91 989 -36 
Q 684 19 347 128 
L 347 722 
Q 666 556 975 473 
Q 1284 391 1588 391 
Q 1994 391 2212 530 
Q 2431 669 2431 922 
Q 2431 1156 2273 1281 
Q 2116 1406 1581 1522 
L 1381 1569 
Q 847 1681 609 1914 
Q 372 2147 372 2553 
Q 372 3047 722 3315 
Q 1072 3584 1716 3584 
Q 2034 3584 2315 3537 
Q 2597 3491 2834 3397 
z
" transform="scale(0.015625)"/>
     <path id="DejaVuSans-6e" d="M 3513 2113 
L 3513 0 
L 2938 0 
L 2938 2094 
Q 2938 2591 2744 2837 
Q 2550 3084 2163 3084 
Q 1697 3084 1428 2787 
Q 1159 2491 1159 1978 
L 1159 0 
L 581 0 
L 581 3500 
L 1159 3500 
L 1159 2956 
Q 1366 3272 1645 3428 
Q 1925 3584 2291 3584 
Q 2894 3584 3203 3211 
Q 3513 2838 3513 2113 
z
" transform="scale(0.015625)"/>
     <path id="DejaVuSans-67" d="M 2906 1791 
Q 2906 2416 2648 2759 
Q 2391 3103 1925 3103 
Q 1463 3103 1205 2759 
Q 947 2416 947 1791 
Q 947 1169 1205 825 
Q 1463 481 1925 481 
Q 2391 481 2648 825 
Q 2906 1169 2906 1791 
z
M 3481 434 
Q 3481 -459 3084 -895 
Q 2688 -1331 1869 -1331 
Q 1566 -1331 1297 -1286 
Q 1028 -1241 775 -1147 
L 775 -588 
Q 1028 -725 1275 -790 
Q 1522 -856 1778 -856 
Q 2344 -856 2625 -561 
Q 2906 -266 2906 331 
L 2906 616 
Q 2728 306 2450 153 
Q 2172 0 1784 0 
Q 1141 0 747 490 
Q 353 981 353 1791 
Q 353 2603 747 3093 
Q 1141 3584 1784 3584 
Q 2172 3584 2450 3431 
Q 2728 3278 2906 2969 
L 2906 3500 
L 3481 3500 
L 3481 434 
z
" transform="scale(0.015625)"/>
     <path id="DejaVuSans-77" d="M 269 3500 
L 844 3500 
L 1563 769 
L 2278 3500 
L 2956 3500 
L 3675 769 
L 4391 3500 
L 4966 3500 
L 4050 0 
L 3372 0 
L 2619 2869 
L 1863 0 
L 1184 0 
L 269 3500 
z
" transform="scale(0.015625)"/>
     <path id="DejaVuSans-74" d="M 1172 4494 
L 1172 3500 
L 2356 3500 
L 2356 3053 
L 1172 3053 
L 1172 1153 
Q 1172 725 1289 603 
Q 1406 481 1766 481 
L 2356 481 
L 2356 0 
L 1766 0 
Q 1100 0 847 248 
Q 594 497 594 1153 
L 594 3053 
L 172 3053 
L 172 3500 
L 594 3500 
L 594 4494 
L 1172 4494 
z
" transform="scale(0.015625)"/>
     <path id="DejaVuSans-68" d="M 3513 2113 
L 3513 0 
L 2938 0 
L 2938 2094 
Q 2938 2591 2744 2837 
Q 2550 3084 2163 3084 
Q 1697 3084 1428 2787 
Q 1159 2491 1159 1978 
L 1159 0 
L 581 0 
L 581 4863 
L 1159 4863 
L 1159 2956 
Q 1366 3272 1645 3428 
Q 1925 3584 2291 3584 
Q 2894 3584 3203 3211 
Q 3513 2838 3513 2113 
z
" transform="scale(0.015625)"/>
     <path id="DejaVuSans-37" d="M 525 4666 
L 3525 4666 
L 3525 4397 
L 1831 0 
L 1172 0 
L 2766 4134 
L 525 4134 
L 525 4666 
z
" transform="scale(0.015625)"/>
     <path id="DejaVuSans-2c" d="M 750 794 
L 1409 794 
L 1409 256 
L 897 -744 
L 494 -744 
L 750 256 
L 750 794 
z
" transform="scale(0.015625)"/>
     <path id="DejaVuSans-62" d="M 3116 1747 
Q 3116 2381 2855 2742 
Q 2594 3103 2138 3103 
Q 1681 3103 1420 2742 
Q 1159 2381 1159 1747 
Q 1159 1113 1420 752 
Q 1681 391 2138 391 
Q 2594 391 2855 752 
Q 3116 1113 3116 1747 
z
M 1159 2969 
Q 1341 3281 1617 3432 
Q 1894 3584 2278 3584 
Q 2916 3584 3314 3078 
Q 3713 2572 3713 1747 
Q 3713 922 3314 415 
Q 2916 -91 2278 -91 
Q 1894 -91 1617 61 
Q 1341 213 1159 525 
L 1159 0 
L 581 0 
L 581 4863 
L 1159 4863 
L 1159 2969 
z
" transform="scale(0.015625)"/>
     <path id="DejaVuSans-65" d="M 3597 1894 
L 3597 1613 
L 953 1613 
Q 991 1019 1311 708 
Q 1631 397 2203 397 
Q 2534 397 2845 478 
Q 3156 559 3463 722 
L 3463 178 
Q 3153 47 2828 -22 
Q 2503 -91 2169 -91 
Q 1331 -91 842 396 
Q 353 884 353 1716 
Q 353 2575 817 3079 
Q 1281 3584 2069 3584 
Q 2775 3584 3186 3129 
Q 3597 2675 3597 1894 
z
M 3022 2063 
Q 3016 2534 2758 2815 
Q 2500 3097 2075 3097 
Q 1594 3097 1305 2825 
Q 1016 2553 972 2059 
L 3022 2063 
z
" transform="scale(0.015625)"/>
     <path id="DejaVuSans-72" d="M 2631 2963 
Q 2534 3019 2420 3045 
Q 2306 3072 2169 3072 
Q 1681 3072 1420 2755 
Q 1159 2438 1159 1844 
L 1159 0 
L 581 0 
L 581 3500 
L 1159 3500 
L 1159 2956 
Q 1341 3275 1631 3429 
Q 1922 3584 2338 3584 
Q 2397 3584 2469 3576 
Q 2541 3569 2628 3553 
L 2631 2963 
z
" transform="scale(0.015625)"/>
     <path id="DejaVuSans-71" d="M 947 1747 
Q 947 1113 1208 752 
Q 1469 391 1925 391 
Q 2381 391 2643 752 
Q 2906 1113 2906 1747 
Q 2906 2381 2643 2742 
Q 2381 3103 1925 3103 
Q 1469 3103 1208 2742 
Q 947 2381 947 1747 
z
M 2906 525 
Q 2725 213 2448 61 
Q 2172 -91 1784 -91 
Q 1150 -91 751 415 
Q 353 922 353 1747 
Q 353 2572 751 3078 
Q 1150 3584 1784 3584 
Q 2172 3584 2448 3432 
Q 2725 3281 2906 2969 
L 2906 3500 
L 3481 3500 
L 3481 -1331 
L 2906 -1331 
L 2906 525 
z
" transform="scale(0.015625)"/>
    </defs>
    <use xlink:href="#DejaVuSans-41"/>
    <use xlink:href="#DejaVuSans-6c" x="68.408203"/>
    <use xlink:href="#DejaVuSans-69" x="96.191406"/>
    <use xlink:href="#DejaVuSans-61" x="123.974609"/>
    <use xlink:href="#DejaVuSans-73" x="185.253906"/>
    <use xlink:href="#DejaVuSans-69" x="237.353516"/>
    <use xlink:href="#DejaVuSans-6e" x="265.136719"/>
    <use xlink:href="#DejaVuSans-67" x="328.515625"/>
    <use xlink:href="#DejaVuSans-20" x="391.992188"/>
    <use xlink:href="#DejaVuSans-77" x="423.779297"/>
    <use xlink:href="#DejaVuSans-69" x="505.566406"/>
    <use xlink:href="#DejaVuSans-74" x="533.349609"/>
    <use xlink:href="#DejaVuSans-68" x="572.558594"/>
    <use xlink:href="#DejaVuSans-20" x="635.9375"/>
    <use xlink:href="#DejaVuSans-66" x="667.724609"/>
    <use xlink:href="#DejaVuSans-73" x="702.929688"/>
    <use xlink:href="#DejaVuSans-20" x="755.029297"/>
    <use xlink:href="#DejaVuSans-3d" x="786.816406"/>
    <use xlink:href="#DejaVuSans-20" x="870.605469"/>
    <use xlink:href="#DejaVuSans-37" x="902.392578"/>
    <use xlink:href="#DejaVuSans-48" x="966.015625"/>
    <use xlink:href="#DejaVuSans-7a" x="1041.210938"/>
    <use xlink:href="#DejaVuSans-2c" x="1093.701172"/>
    <use xlink:href="#DejaVuSans-20" x="1125.488281"/>
    <use xlink:href="#DejaVuSans-62" x="1157.275391"/>
    <use xlink:href="#DejaVuSans-61" x="1220.751953"/>
    <use xlink:href="#DejaVuSans-73" x="1282.03125"/>
    <use xlink:href="#DejaVuSans-65" x="1334.130859"/>
    <use xlink:href="#DejaVuSans-20" x="1395.654297"/>
    <use xlink:href="#DejaVuSans-66" x="1427.441406"/>
    <use xlink:href="#DejaVuSans-72" x="1462.646484"/>
    <use xlink:href="#DejaVuSans-65" x="1501.509766"/>
    <use xlink:href="#DejaVuSans-71" x="1563.033203"/>
    <use xlink:href="#DejaVuSans-20" x="1626.509766"/>
    <use xlink:href="#DejaVuSans-66" x="1658.296875"/>
    <use xlink:href="#DejaVuSans-3d" x="1693.501953"/>
    <use xlink:href="#DejaVuSans-31" x="1777.291016"/>
    <use xlink:href="#DejaVuSans-48" x="1840.914062"/>
    <use xlink:href="#DejaVuSans-7a" x="1916.109375"/>
   </g>
  </g>
 </g>
 <defs>
  <clipPath id="pd893281a6e">
   <rect x="42.1" y="47.04" width="811.1" height="162.68"/>
  </clipPath>
  <clipPath id="pa1b3daddcb">
   <rect x="42.1" y="252.24" width="811.1" height="162.68"/>
  </clipPath>
  <clipPath id="pfb252692ba">
   <rect x="42.1" y="457.44" width="811.1" height="162.68"/>
  </clipPath>
 </defs>
</svg>
