<?xml version="1.0" encoding="utf-8" standalone="no"?>
<!DOCTYPE svg PUBLIC "-//W3C//DTD SVG 1.1//EN"
  "http://www.w3.org/Graphics/SVG/1.1/DTD/svg11.dtd">
<svg xmlns:xlink="http://www.w3.org/1999/xlink" width="720pt" height="648pt" viewBox="0 0 720 648" xmlns="http://www.w3.org/2000/svg" version="1.1">
 <metadata>
  <rdf:RDF xmlns:dc="http://purl.org/dc/elements/1.1/" xmlns:cc="http://creativecommons.org/ns#" xmlns:rdf="http://www.w3.org/1999/02/22-rdf-syntax-ns#">
   <cc:Work>
    <dc:type rdf:resource="http://purl.org/dc/dcmitype/StillImage"/>
    <dc:date>2025-11-25T12:39:20.510858</dc:date>
    <dc:format>image/svg+xml</dc:format>
    <dc:creator>
     <cc:Agent>
      <dc:title>Matplotlib v3.6.3, https://matplotlib.org/</dc:title>
     </cc:Agent>
    </dc:creator>
   </cc:Work>
  </rdf:RDF>
 </metadata>
 <defs>
  <style type="text/css">*{stroke-linejoin: round; stroke-linecap: butt}</style>
 </defs>
 <g id="figure_1">
  <g id="patch_1">
   <path d="M 0 648 
L 720 648 
L 720 0 
L 0 0 
z
" style="fill: #ffffff"/>
  </g>
  <g id="axes_1">
   <g id="patch_2">
    <path d="M 53.03 287.44 
L 707.653322 287.44 
L 707.653322 25.44 
L 53.03 25.44 
z
" style="fill: #ffffff"/>
   </g>
   <g id="matplotlib.axis_1">
    <g id="xtick_1">
     <g id="line2d_1">
      <defs>
       <path id="mf1fff61669" d="M 0 0 
L 0 3.5 
" style="stroke: #000000; stroke-width: 0.8"/>
      </defs>
      <g>
       <use xlink:href="#mf1fff61669" x="103.981379" y="287.44" style="stroke: #000000; stroke-width: 0.8"/>
      </g>
     </g>
     <g id="text_1">
      <!-- 2100 -->
      <g transform="translate(91.256379 302.038437) scale(0.1 -0.1)">
       <defs>
        <path id="DejaVuSans-32" d="M 1228 531 
L 3431 531 
L 3431 0 
L 469 0 
L 469 531 
Q 828 903 1448 1529 
Q 2069 2156 2228 2338 
Q 2531 2678 2651 2914 
Q 2772 3150 2772 3378 
Q 2772 3750 2511 3984 
Q 2250 4219 1831 4219 
Q 1534 4219 1204 4116 
Q 875 4013 500 3803 
L 500 4441 
Q 881 4594 1212 4672 
Q 1544 4750 1819 4750 
Q 2544 4750 2975 4387 
Q 3406 4025 3406 3419 
Q 3406 3131 3298 2873 
Q 3191 2616 2906 2266 
Q 2828 2175 2409 1742 
Q 1991 1309 1228 531 
z
" transform="scale(0.015625)"/>
        <path id="DejaVuSans-31" d="M 794 531 
L 1825 531 
L 1825 4091 
L 703 3866 
L 703 4441 
L 1819 4666 
L 2450 4666 
L 2450 531 
L 3481 531 
L 3481 0 
L 794 0 
L 794 531 
z
" transform="scale(0.015625)"/>
        <path id="DejaVuSans-30" d="M 2034 4250 
Q 1547 4250 1301 3770 
Q 1056 3291 1056 2328 
Q 1056 1369 1301 889 
Q 1547 409 2034 409 
Q 2525 409 2770 889 
Q 3016 1369 3016 2328 
Q 3016 3291 2770 3770 
Q 2525 4250 2034 4250 
z
M 2034 4750 
Q 2819 4750 3233 4129 
Q 3647 3509 3647 2328 
Q 3647 1150 3233 529 
Q 2819 -91 2034 -91 
Q 1250 -91 836 529 
Q 422 1150 422 2328 
Q 422 3509 836 4129 
Q 1250 4750 2034 4750 
z
" transform="scale(0.015625)"/>
       </defs>
       <use xlink:href="#DejaVuSans-32"/>
       <use xlink:href="#DejaVuSans-31" x="63.623047"/>
       <use xlink:href="#DejaVuSans-30" x="127.246094"/>
       <use xlink:href="#DejaVuSans-30" x="190.869141"/>
      </g>
     </g>
    </g>
    <g id="xtick_2">
     <g id="line2d_2">
      <g>
       <use xlink:href="#mf1fff61669" x="185.503586" y="287.44" style="stroke: #000000; stroke-width: 0.8"/>
      </g>
     </g>
     <g id="text_2">
      <!-- 2200 -->
      <g transform="translate(172.778586 302.038437) scale(0.1 -0.1)">
       <use xlink:href="#DejaVuSans-32"/>
       <use xlink:href="#DejaVuSans-32" x="63.623047"/>
       <use xlink:href="#DejaVuSans-30" x="127.246094"/>
       <use xlink:href="#DejaVuSans-30" x="190.869141"/>
      </g>
     </g>
    </g>
    <g id="xtick_3">
     <g id="line2d_3">
      <g>
       <use xlink:href="#mf1fff61669" x="267.025793" y="287.44" style="stroke: #000000; stroke-width: 0.8"/>
      </g>
     </g>
     <g id="text_3">
      <!-- 2300 -->
      <g transform="translate(254.300793 302.038437) scale(0.1 -0.1)">
       <defs>
        <path id="DejaVuSans-33" d="M 2597 2516 
Q 3050 2419 3304 2112 
Q 3559 1806 3559 1356 
Q 3559 666 3084 287 
Q 2609 -91 1734 -91 
Q 1441 -91 1130 -33 
Q 819 25 488 141 
L 488 750 
Q 750 597 1062 519 
Q 1375 441 1716 441 
Q 2309 441 2620 675 
Q 2931 909 2931 1356 
Q 2931 1769 2642 2001 
Q 2353 2234 1838 2234 
L 1294 2234 
L 1294 2753 
L 1863 2753 
Q 2328 2753 2575 2939 
Q 2822 3125 2822 3475 
Q 2822 3834 2567 4026 
Q 2313 4219 1838 4219 
Q 1578 4219 1281 4162 
Q 984 4106 628 3988 
L 628 4550 
Q 988 4650 1302 4700 
Q 1616 4750 1894 4750 
Q 2613 4750 3031 4423 
Q 3450 4097 3450 3541 
Q 3450 3153 3228 2886 
Q 3006 2619 2597 2516 
z
" transform="scale(0.015625)"/>
       </defs>
       <use xlink:href="#DejaVuSans-32"/>
       <use xlink:href="#DejaVuSans-33" x="63.623047"/>
       <use xlink:href="#DejaVuSans-30" x="127.246094"/>
       <use xlink:href="#DejaVuSans-30" x="190.869141"/>
      </g>
     </g>
    </g>
    <g id="xtick_4">
     <g id="line2d_4">
      <g>
       <use xlink:href="#mf1fff61669" x="348.548" y="287.44" style="stroke: #000000; stroke-width: 0.8"/>
      </g>
     </g>
     <g id="text_4">
      <!-- 2400 -->
      <g transform="translate(335.823 302.038437) scale(0.1 -0.1)">
       <defs>
        <path id="DejaVuSans-34" d="M 2419 4116 
L 825 1625 
L 2419 1625 
L 2419 4116 
z
M 2253 4666 
L 3047 4666 
L 3047 1625 
L 3713 1625 
L 3713 1100 
L 3047 1100 
L 3047 0 
L 2419 0 
L 2419 1100 
L 313 1100 
L 313 1709 
L 2253 4666 
z
" transform="scale(0.015625)"/>
       </defs>
       <use xlink:href="#DejaVuSans-32"/>
       <use xlink:href="#DejaVuSans-34" x="63.623047"/>
       <use xlink:href="#DejaVuSans-30" x="127.246094"/>
       <use xlink:href="#DejaVuSans-30" x="190.869141"/>
      </g>
     </g>
    </g>
    <g id="xtick_5">
     <g id="line2d_5">
      <g>
       <use xlink:href="#mf1fff61669" x="430.070207" y="287.44" style="stroke: #000000; stroke-width: 0.8"/>
      </g>
     </g>
     <g id="text_5">
      <!-- 2500 -->
      <g transform="translate(417.345207 302.038437) scale(0.1 -0.1)">
       <defs>
        <path id="DejaVuSans-35" d="M 691 4666 
L 3169 4666 
L 3169 4134 
L 1269 4134 
L 1269 2991 
Q 1406 3038 1543 3061 
Q 1681 3084 1819 3084 
Q 2600 3084 3056 2656 
Q 3513 2228 3513 1497 
Q 3513 744 3044 326 
Q 2575 -91 1722 -91 
Q 1428 -91 1123 -41 
Q 819 9 494 109 
L 494 744 
Q 775 591 1075 516 
Q 1375 441 1709 441 
Q 2250 441 2565 725 
Q 2881 1009 2881 1497 
Q 2881 1984 2565 2268 
Q 2250 2553 1709 2553 
Q 1456 2553 1204 2497 
Q 953 2441 691 2322 
L 691 4666 
z
" transform="scale(0.015625)"/>
       </defs>
       <use xlink:href="#DejaVuSans-32"/>
       <use xlink:href="#DejaVuSans-35" x="63.623047"/>
       <use xlink:href="#DejaVuSans-30" x="127.246094"/>
       <use xlink:href="#DejaVuSans-30" x="190.869141"/>
      </g>
     </g>
    </g>
    <g id="xtick_6">
     <g id="line2d_6">
      <g>
       <use xlink:href="#mf1fff61669" x="511.592414" y="287.44" style="stroke: #000000; stroke-width: 0.8"/>
      </g>
     </g>
     <g id="text_6">
      <!-- 2600 -->
      <g transform="translate(498.867414 302.038437) scale(0.1 -0.1)">
       <defs>
        <path id="DejaVuSans-36" d="M 2113 2584 
Q 1688 2584 1439 2293 
Q 1191 2003 1191 1497 
Q 1191 994 1439 701 
Q 1688 409 2113 409 
Q 2538 409 2786 701 
Q 3034 994 3034 1497 
Q 3034 2003 2786 2293 
Q 2538 2584 2113 2584 
z
M 3366 4563 
L 3366 3988 
Q 3128 4100 2886 4159 
Q 2644 4219 2406 4219 
Q 1781 4219 1451 3797 
Q 1122 3375 1075 2522 
Q 1259 2794 1537 2939 
Q 1816 3084 2150 3084 
Q 2853 3084 3261 2657 
Q 3669 2231 3669 1497 
Q 3669 778 3244 343 
Q 2819 -91 2113 -91 
Q 1303 -91 875 529 
Q 447 1150 447 2328 
Q 447 3434 972 4092 
Q 1497 4750 2381 4750 
Q 2619 4750 2861 4703 
Q 3103 4656 3366 4563 
z
" transform="scale(0.015625)"/>
       </defs>
       <use xlink:href="#DejaVuSans-32"/>
       <use xlink:href="#DejaVuSans-36" x="63.623047"/>
       <use xlink:href="#DejaVuSans-30" x="127.246094"/>
       <use xlink:href="#DejaVuSans-30" x="190.869141"/>
      </g>
     </g>
    </g>
    <g id="xtick_7">
     <g id="line2d_7">
      <g>
       <use xlink:href="#mf1fff61669" x="593.114621" y="287.44" style="stroke: #000000; stroke-width: 0.8"/>
      </g>
     </g>
     <g id="text_7">
      <!-- 2700 -->
      <g transform="translate(580.389621 302.038437) scale(0.1 -0.1)">
       <defs>
        <path id="DejaVuSans-37" d="M 525 4666 
L 3525 4666 
L 3525 4397 
L 1831 0 
L 1172 0 
L 2766 4134 
L 525 4134 
L 525 4666 
z
" transform="scale(0.015625)"/>
       </defs>
       <use xlink:href="#DejaVuSans-32"/>
       <use xlink:href="#DejaVuSans-37" x="63.623047"/>
       <use xlink:href="#DejaVuSans-30" x="127.246094"/>
       <use xlink:href="#DejaVuSans-30" x="190.869141"/>
      </g>
     </g>
    </g>
    <g id="xtick_8">
     <g id="line2d_8">
      <g>
       <use xlink:href="#mf1fff61669" x="674.636828" y="287.44" style="stroke: #000000; stroke-width: 0.8"/>
      </g>
     </g>
     <g id="text_8">
      <!-- 2800 -->
      <g transform="translate(661.911828 302.038437) scale(0.1 -0.1)">
       <defs>
        <path id="DejaVuSans-38" d="M 2034 2216 
Q 1584 2216 1326 1975 
Q 1069 1734 1069 1313 
Q 1069 891 1326 650 
Q 1584 409 2034 409 
Q 2484 409 2743 651 
Q 3003 894 3003 1313 
Q 3003 1734 2745 1975 
Q 2488 2216 2034 2216 
z
M 1403 2484 
Q 997 2584 770 2862 
Q 544 3141 544 3541 
Q 544 4100 942 4425 
Q 1341 4750 2034 4750 
Q 2731 4750 3128 4425 
Q 3525 4100 3525 3541 
Q 3525 3141 3298 2862 
Q 3072 2584 2669 2484 
Q 3125 2378 3379 2068 
Q 3634 1759 3634 1313 
Q 3634 634 3220 271 
Q 2806 -91 2034 -91 
Q 1263 -91 848 271 
Q 434 634 434 1313 
Q 434 1759 690 2068 
Q 947 2378 1403 2484 
z
M 1172 3481 
Q 1172 3119 1398 2916 
Q 1625 2713 2034 2713 
Q 2441 2713 2670 2916 
Q 2900 3119 2900 3481 
Q 2900 3844 2670 4047 
Q 2441 4250 2034 4250 
Q 1625 4250 1398 4047 
Q 1172 3844 1172 3481 
z
" transform="scale(0.015625)"/>
       </defs>
       <use xlink:href="#DejaVuSans-32"/>
       <use xlink:href="#DejaVuSans-38" x="63.623047"/>
       <use xlink:href="#DejaVuSans-30" x="127.246094"/>
       <use xlink:href="#DejaVuSans-30" x="190.869141"/>
      </g>
     </g>
    </g>
    <g id="text_9">
     <!-- Esantioane -->
     <g transform="translate(352.626817 315.716563) scale(0.1 -0.1)">
      <defs>
       <path id="DejaVuSans-45" d="M 628 4666 
L 3578 4666 
L 3578 4134 
L 1259 4134 
L 1259 2753 
L 3481 2753 
L 3481 2222 
L 1259 2222 
L 1259 531 
L 3634 531 
L 3634 0 
L 628 0 
L 628 4666 
z
" transform="scale(0.015625)"/>
       <path id="DejaVuSans-73" d="M 2834 3397 
L 2834 2853 
Q 2591 2978 2328 3040 
Q 2066 3103 1784 3103 
Q 1356 3103 1142 2972 
Q 928 2841 928 2578 
Q 928 2378 1081 2264 
Q 1234 2150 1697 2047 
L 1894 2003 
Q 2506 1872 2764 1633 
Q 3022 1394 3022 966 
Q 3022 478 2636 193 
Q 2250 -91 1575 -91 
Q 1294 -91 989 -36 
Q 684 19 347 128 
L 347 722 
Q 666 556 975 473 
Q 1284 391 1588 391 
Q 1994 391 2212 530 
Q 2431 669 2431 922 
Q 2431 1156 2273 1281 
Q 2116 1406 1581 1522 
L 1381 1569 
Q 847 1681 609 1914 
Q 372 2147 372 2553 
Q 372 3047 722 3315 
Q 1072 3584 1716 3584 
Q 2034 3584 2315 3537 
Q 2597 3491 2834 3397 
z
" transform="scale(0.015625)"/>
       <path id="DejaVuSans-61" d="M 2194 1759 
Q 1497 1759 1228 1600 
Q 959 1441 959 1056 
Q 959 750 1161 570 
Q 1363 391 1709 391 
Q 2188 391 2477 730 
Q 2766 1069 2766 1631 
L 2766 1759 
L 2194 1759 
z
M 3341 1997 
L 3341 0 
L 2766 0 
L 2766 531 
Q 2569 213 2275 61 
Q 1981 -91 1556 -91 
Q 1019 -91 701 211 
Q 384 513 384 1019 
Q 384 1609 779 1909 
Q 1175 2209 1959 2209 
L 2766 2209 
L 2766 2266 
Q 2766 2663 2505 2880 
Q 2244 3097 1772 3097 
Q 1472 3097 1187 3025 
Q 903 2953 641 2809 
L 641 3341 
Q 956 3463 1253 3523 
Q 1550 3584 1831 3584 
Q 2591 3584 2966 3190 
Q 3341 2797 3341 1997 
z
" transform="scale(0.015625)"/>
       <path id="DejaVuSans-6e" d="M 3513 2113 
L 3513 0 
L 2938 0 
L 2938 2094 
Q 2938 2591 2744 2837 
Q 2550 3084 2163 3084 
Q 1697 3084 1428 2787 
Q 1159 2491 1159 1978 
L 1159 0 
L 581 0 
L 581 3500 
L 1159 3500 
L 1159 2956 
Q 1366 3272 1645 3428 
Q 1925 3584 2291 3584 
Q 2894 3584 3203 3211 
Q 3513 2838 3513 2113 
z
" transform="scale(0.015625)"/>
       <path id="DejaVuSans-74" d="M 1172 4494 
L 1172 3500 
L 2356 3500 
L 2356 3053 
L 1172 3053 
L 1172 1153 
Q 1172 725 1289 603 
Q 1406 481 1766 481 
L 2356 481 
L 2356 0 
L 1766 0 
Q 1100 0 847 248 
Q 594 497 594 1153 
L 594 3053 
L 172 3053 
L 172 3500 
L 594 3500 
L 594 4494 
L 1172 4494 
z
" transform="scale(0.015625)"/>
       <path id="DejaVuSans-69" d="M 603 3500 
L 1178 3500 
L 1178 0 
L 603 0 
L 603 3500 
z
M 603 4863 
L 1178 4863 
L 1178 4134 
L 603 4134 
L 603 4863 
z
" transform="scale(0.015625)"/>
       <path id="DejaVuSans-6f" d="M 1959 3097 
Q 1497 3097 1228 2736 
Q 959 2375 959 1747 
Q 959 1119 1226 758 
Q 1494 397 1959 397 
Q 2419 397 2687 759 
Q 2956 1122 2956 1747 
Q 2956 2369 2687 2733 
Q 2419 3097 1959 3097 
z
M 1959 3584 
Q 2709 3584 3137 3096 
Q 3566 2609 3566 1747 
Q 3566 888 3137 398 
Q 2709 -91 1959 -91 
Q 1206 -91 779 398 
Q 353 888 353 1747 
Q 353 2609 779 3096 
Q 1206 3584 1959 3584 
z
" transform="scale(0.015625)"/>
       <path id="DejaVuSans-65" d="M 3597 1894 
L 3597 1613 
L 953 1613 
Q 991 1019 1311 708 
Q 1631 397 2203 397 
Q 2534 397 2845 478 
Q 3156 559 3463 722 
L 3463 178 
Q 3153 47 2828 -22 
Q 2503 -91 2169 -91 
Q 1331 -91 842 396 
Q 353 884 353 1716 
Q 353 2575 817 3079 
Q 1281 3584 2069 3584 
Q 2775 3584 3186 3129 
Q 3597 2675 3597 1894 
z
M 3022 2063 
Q 3016 2534 2758 2815 
Q 2500 3097 2075 3097 
Q 1594 3097 1305 2825 
Q 1016 2553 972 2059 
L 3022 2063 
z
" transform="scale(0.015625)"/>
      </defs>
      <use xlink:href="#DejaVuSans-45"/>
      <use xlink:href="#DejaVuSans-73" x="63.183594"/>
      <use xlink:href="#DejaVuSans-61" x="115.283203"/>
      <use xlink:href="#DejaVuSans-6e" x="176.5625"/>
      <use xlink:href="#DejaVuSans-74" x="239.941406"/>
      <use xlink:href="#DejaVuSans-69" x="279.150391"/>
      <use xlink:href="#DejaVuSans-6f" x="306.933594"/>
      <use xlink:href="#DejaVuSans-61" x="368.115234"/>
      <use xlink:href="#DejaVuSans-6e" x="429.394531"/>
      <use xlink:href="#DejaVuSans-65" x="492.773438"/>
     </g>
    </g>
   </g>
   <g id="matplotlib.axis_2">
    <g id="ytick_1">
     <g id="line2d_9">
      <defs>
       <path id="m2a84fe928d" d="M 0 0 
L -3.5 0 
" style="stroke: #000000; stroke-width: 0.8"/>
      </defs>
      <g>
       <use xlink:href="#m2a84fe928d" x="53.03" y="270.522435" style="stroke: #000000; stroke-width: 0.8"/>
      </g>
     </g>
     <g id="text_10">
      <!-- −10 -->
      <g transform="translate(24.925313 274.321653) scale(0.1 -0.1)">
       <defs>
        <path id="DejaVuSans-2212" d="M 678 2272 
L 4684 2272 
L 4684 1741 
L 678 1741 
L 678 2272 
z
" transform="scale(0.015625)"/>
       </defs>
       <use xlink:href="#DejaVuSans-2212"/>
       <use xlink:href="#DejaVuSans-31" x="83.789062"/>
       <use xlink:href="#DejaVuSans-30" x="147.412109"/>
      </g>
     </g>
    </g>
    <g id="ytick_2">
     <g id="line2d_10">
      <g>
       <use xlink:href="#m2a84fe928d" x="53.03" y="236.496461" style="stroke: #000000; stroke-width: 0.8"/>
      </g>
     </g>
     <g id="text_11">
      <!-- 0 -->
      <g transform="translate(39.6675 240.295679) scale(0.1 -0.1)">
       <use xlink:href="#DejaVuSans-30"/>
      </g>
     </g>
    </g>
    <g id="ytick_3">
     <g id="line2d_11">
      <g>
       <use xlink:href="#m2a84fe928d" x="53.03" y="202.470487" style="stroke: #000000; stroke-width: 0.8"/>
      </g>
     </g>
     <g id="text_12">
      <!-- 10 -->
      <g transform="translate(33.305 206.269705) scale(0.1 -0.1)">
       <use xlink:href="#DejaVuSans-31"/>
       <use xlink:href="#DejaVuSans-30" x="63.623047"/>
      </g>
     </g>
    </g>
    <g id="ytick_4">
     <g id="line2d_12">
      <g>
       <use xlink:href="#m2a84fe928d" x="53.03" y="168.444513" style="stroke: #000000; stroke-width: 0.8"/>
      </g>
     </g>
     <g id="text_13">
      <!-- 20 -->
      <g transform="translate(33.305 172.243731) scale(0.1 -0.1)">
       <use xlink:href="#DejaVuSans-32"/>
       <use xlink:href="#DejaVuSans-30" x="63.623047"/>
      </g>
     </g>
    </g>
    <g id="ytick_5">
     <g id="line2d_13">
      <g>
       <use xlink:href="#m2a84fe928d" x="53.03" y="134.418539" style="stroke: #000000; stroke-width: 0.8"/>
      </g>
     </g>
     <g id="text_14">
      <!-- 30 -->
      <g transform="translate(33.305 138.217757) scale(0.1 -0.1)">
       <use xlink:href="#DejaVuSans-33"/>
       <use xlink:href="#DejaVuSans-30" x="63.623047"/>
      </g>
     </g>
    </g>
    <g id="ytick_6">
     <g id="line2d_14">
      <g>
       <use xlink:href="#m2a84fe928d" x="53.03" y="100.392565" style="stroke: #000000; stroke-width: 0.8"/>
      </g>
     </g>
     <g id="text_15">
      <!-- 40 -->
      <g transform="translate(33.305 104.191783) scale(0.1 -0.1)">
       <use xlink:href="#DejaVuSans-34"/>
       <use xlink:href="#DejaVuSans-30" x="63.623047"/>
      </g>
     </g>
    </g>
    <g id="ytick_7">
     <g id="line2d_15">
      <g>
       <use xlink:href="#m2a84fe928d" x="53.03" y="66.366591" style="stroke: #000000; stroke-width: 0.8"/>
      </g>
     </g>
     <g id="text_16">
      <!-- 50 -->
      <g transform="translate(33.305 70.165809) scale(0.1 -0.1)">
       <use xlink:href="#DejaVuSans-35"/>
       <use xlink:href="#DejaVuSans-30" x="63.623047"/>
      </g>
     </g>
    </g>
    <g id="ytick_8">
     <g id="line2d_16">
      <g>
       <use xlink:href="#m2a84fe928d" x="53.03" y="32.340616" style="stroke: #000000; stroke-width: 0.8"/>
      </g>
     </g>
     <g id="text_17">
      <!-- 60 -->
      <g transform="translate(33.305 36.139835) scale(0.1 -0.1)">
       <use xlink:href="#DejaVuSans-36"/>
       <use xlink:href="#DejaVuSans-30" x="63.623047"/>
      </g>
     </g>
    </g>
    <g id="text_18">
     <!-- Nr masini -->
     <g transform="translate(18.845625 180.311094) rotate(-90) scale(0.1 -0.1)">
      <defs>
       <path id="DejaVuSans-4e" d="M 628 4666 
L 1478 4666 
L 3547 763 
L 3547 4666 
L 4159 4666 
L 4159 0 
L 3309 0 
L 1241 3903 
L 1241 0 
L 628 0 
L 628 4666 
z
" transform="scale(0.015625)"/>
       <path id="DejaVuSans-72" d="M 2631 2963 
Q 2534 3019 2420 3045 
Q 2306 3072 2169 3072 
Q 1681 3072 1420 2755 
Q 1159 2438 1159 1844 
L 1159 0 
L 581 0 
L 581 3500 
L 1159 3500 
L 1159 2956 
Q 1341 3275 1631 3429 
Q 1922 3584 2338 3584 
Q 2397 3584 2469 3576 
Q 2541 3569 2628 3553 
L 2631 2963 
z
" transform="scale(0.015625)"/>
       <path id="DejaVuSans-20" transform="scale(0.015625)"/>
       <path id="DejaVuSans-6d" d="M 3328 2828 
Q 3544 3216 3844 3400 
Q 4144 3584 4550 3584 
Q 5097 3584 5394 3201 
Q 5691 2819 5691 2113 
L 5691 0 
L 5113 0 
L 5113 2094 
Q 5113 2597 4934 2840 
Q 4756 3084 4391 3084 
Q 3944 3084 3684 2787 
Q 3425 2491 3425 1978 
L 3425 0 
L 2847 0 
L 2847 2094 
Q 2847 2600 2669 2842 
Q 2491 3084 2119 3084 
Q 1678 3084 1418 2786 
Q 1159 2488 1159 1978 
L 1159 0 
L 581 0 
L 581 3500 
L 1159 3500 
L 1159 2956 
Q 1356 3278 1631 3431 
Q 1906 3584 2284 3584 
Q 2666 3584 2933 3390 
Q 3200 3197 3328 2828 
z
" transform="scale(0.015625)"/>
      </defs>
      <use xlink:href="#DejaVuSans-4e"/>
      <use xlink:href="#DejaVuSans-72" x="74.804688"/>
      <use xlink:href="#DejaVuSans-20" x="115.917969"/>
      <use xlink:href="#DejaVuSans-6d" x="147.705078"/>
      <use xlink:href="#DejaVuSans-61" x="245.117188"/>
      <use xlink:href="#DejaVuSans-73" x="306.396484"/>
      <use xlink:href="#DejaVuSans-69" x="358.496094"/>
      <use xlink:href="#DejaVuSans-6e" x="386.279297"/>
      <use xlink:href="#DejaVuSans-69" x="449.658203"/>
     </g>
    </g>
   </g>
   <g id="line2d_17">
    <path d="M 82.785606 248.31013 
L 83.600828 248.31013 
L 84.41605 241.504935 
L 85.231272 221.089351 
L 86.861716 207.478961 
L 87.676938 193.868571 
L 88.49216 241.504935 
L 89.307382 214.284156 
L 90.122604 214.284156 
L 90.937826 200.673766 
L 91.753048 241.504935 
L 92.56827 207.478961 
L 93.383492 234.69974 
L 94.198715 248.31013 
L 95.013937 221.089351 
L 95.829159 268.725714 
L 96.644381 221.089351 
L 98.274825 261.920519 
L 99.090047 268.725714 
L 99.905269 255.115325 
L 100.720491 255.115325 
L 101.535713 241.504935 
L 102.350935 268.725714 
L 103.166157 255.115325 
L 103.981379 255.115325 
L 104.796601 227.894545 
L 105.611823 234.69974 
L 107.242268 221.089351 
L 108.05749 193.868571 
L 108.872712 214.284156 
L 109.687934 214.284156 
L 110.503156 227.894545 
L 111.318378 221.089351 
L 112.1336 248.31013 
L 112.948822 200.673766 
L 113.764044 241.504935 
L 114.579266 221.089351 
L 115.394488 255.115325 
L 116.20971 255.115325 
L 117.840155 268.725714 
L 118.655377 261.920519 
L 119.470599 234.69974 
L 120.285821 248.31013 
L 121.101043 214.284156 
L 121.916265 234.69974 
L 122.731487 221.089351 
L 123.546709 214.284156 
L 124.361931 234.69974 
L 125.177153 221.089351 
L 125.992375 221.089351 
L 126.807597 255.115325 
L 127.622819 207.478961 
L 128.438041 180.258182 
L 129.253263 207.478961 
L 130.068486 221.089351 
L 130.883708 241.504935 
L 131.69893 153.037403 
L 132.514152 227.894545 
L 133.329374 214.284156 
L 134.144596 214.284156 
L 135.77504 255.115325 
L 136.590262 268.725714 
L 137.405484 275.530909 
L 138.220706 255.115325 
L 139.035928 268.725714 
L 139.85115 234.69974 
L 140.666372 248.31013 
L 141.481595 214.284156 
L 142.296817 214.284156 
L 143.112039 200.673766 
L 143.927261 214.284156 
L 144.742483 180.258182 
L 145.557705 241.504935 
L 146.372927 193.868571 
L 147.188149 241.504935 
L 148.003371 221.089351 
L 148.818593 248.31013 
L 149.633815 227.894545 
L 150.449037 275.530909 
L 151.264259 241.504935 
L 152.079481 221.089351 
L 152.894703 248.31013 
L 153.709926 248.31013 
L 154.525148 234.69974 
L 155.34037 248.31013 
L 156.155592 268.725714 
L 157.786036 268.725714 
L 158.601258 255.115325 
L 159.41648 275.530909 
L 160.231702 227.894545 
L 161.046924 248.31013 
L 161.862146 207.478961 
L 162.677368 241.504935 
L 163.49259 255.115325 
L 164.307812 234.69974 
L 165.123035 261.920519 
L 165.938257 261.920519 
L 166.753479 221.089351 
L 167.568701 241.504935 
L 168.383923 214.284156 
L 169.199145 241.504935 
L 170.014367 241.504935 
L 170.829589 255.115325 
L 171.644811 234.69974 
L 172.460033 268.725714 
L 173.275255 268.725714 
L 174.090477 255.115325 
L 174.905699 255.115325 
L 175.720921 261.920519 
L 176.536144 275.530909 
L 178.166588 275.530909 
L 178.98181 268.725714 
L 179.797032 275.530909 
L 180.612254 275.530909 
L 181.427476 255.115325 
L 182.242698 248.31013 
L 183.05792 261.920519 
L 183.873142 248.31013 
L 184.688364 261.920519 
L 185.503586 268.725714 
L 186.318808 248.31013 
L 187.13403 275.530909 
L 187.949252 255.115325 
L 188.764475 261.920519 
L 189.579697 261.920519 
L 190.394919 248.31013 
L 191.210141 261.920519 
L 192.025363 261.920519 
L 192.840585 248.31013 
L 193.655807 261.920519 
L 195.286251 275.530909 
L 196.101473 275.530909 
L 196.916695 261.920519 
L 197.731917 261.920519 
L 198.547139 248.31013 
L 199.362361 275.530909 
L 200.177584 248.31013 
L 200.992806 248.31013 
L 201.808028 255.115325 
L 202.62325 248.31013 
L 203.438472 268.725714 
L 204.253694 241.504935 
L 205.068916 255.115325 
L 205.884138 248.31013 
L 206.69936 248.31013 
L 207.514582 268.725714 
L 208.329804 261.920519 
L 209.145026 241.504935 
L 209.960248 248.31013 
L 210.77547 268.725714 
L 211.590692 255.115325 
L 212.405915 275.530909 
L 213.221137 261.920519 
L 214.036359 261.920519 
L 214.851581 268.725714 
L 215.666803 261.920519 
L 216.482025 275.530909 
L 217.297247 268.725714 
L 218.112469 268.725714 
L 218.927691 255.115325 
L 219.742913 261.920519 
L 221.373357 261.920519 
L 222.188579 268.725714 
L 223.003801 248.31013 
L 223.819024 255.115325 
L 224.634246 275.530909 
L 225.449468 261.920519 
L 226.26469 268.725714 
L 227.079912 261.920519 
L 227.895134 234.69974 
L 228.710356 248.31013 
L 229.525578 268.725714 
L 230.3408 248.31013 
L 231.156022 268.725714 
L 231.971244 268.725714 
L 232.786466 261.920519 
L 233.601688 268.725714 
L 234.41691 261.920519 
L 235.232132 275.530909 
L 236.047355 248.31013 
L 236.862577 248.31013 
L 237.677799 261.920519 
L 238.493021 261.920519 
L 239.308243 268.725714 
L 240.123465 227.894545 
L 240.938687 248.31013 
L 241.753909 234.69974 
L 242.569131 241.504935 
L 243.384353 261.920519 
L 244.199575 241.504935 
L 245.014797 248.31013 
L 245.830019 50.959481 
L 246.645241 139.427013 
L 247.460464 173.452987 
L 248.275686 173.452987 
L 249.090908 193.868571 
L 249.90613 227.894545 
L 250.721352 221.089351 
L 251.536574 255.115325 
L 252.351796 261.920519 
L 253.167018 255.115325 
L 253.98224 261.920519 
L 254.797462 275.530909 
L 256.427906 248.31013 
L 257.243128 241.504935 
L 258.05835 261.920519 
L 258.873573 227.894545 
L 259.688795 261.920519 
L 260.504017 261.920519 
L 261.319239 268.725714 
L 262.134461 255.115325 
L 262.949683 261.920519 
L 263.764905 275.530909 
L 264.580127 261.920519 
L 265.395349 268.725714 
L 266.210571 261.920519 
L 267.025793 234.69974 
L 267.841015 241.504935 
L 268.656237 261.920519 
L 269.471459 241.504935 
L 270.286681 261.920519 
L 271.101904 275.530909 
L 271.917126 261.920519 
L 272.732348 268.725714 
L 274.362792 268.725714 
L 275.993236 255.115325 
L 276.808458 261.920519 
L 277.62368 255.115325 
L 279.254124 255.115325 
L 280.069346 248.31013 
L 280.884568 248.31013 
L 281.69979 261.920519 
L 282.515013 241.504935 
L 283.330235 255.115325 
L 284.145457 261.920519 
L 284.960679 248.31013 
L 287.406345 268.725714 
L 288.221567 261.920519 
L 289.036789 248.31013 
L 289.852011 248.31013 
L 290.667233 255.115325 
L 291.482455 255.115325 
L 292.297677 261.920519 
L 293.112899 275.530909 
L 294.743344 275.530909 
L 295.558566 255.115325 
L 298.004232 255.115325 
L 298.819454 248.31013 
L 299.634676 268.725714 
L 300.449898 261.920519 
L 301.26512 241.504935 
L 302.080342 234.69974 
L 302.895564 234.69974 
L 303.710786 261.920519 
L 305.34123 248.31013 
L 306.971675 275.530909 
L 307.786897 248.31013 
L 308.602119 268.725714 
L 309.417341 261.920519 
L 310.232563 275.530909 
L 311.047785 268.725714 
L 311.863007 275.530909 
L 312.678229 275.530909 
L 313.493451 261.920519 
L 315.123895 275.530909 
L 315.939117 275.530909 
L 316.754339 255.115325 
L 317.569562 241.504935 
L 318.384784 275.530909 
L 319.200006 261.920519 
L 320.83045 261.920519 
L 321.645672 241.504935 
L 322.460894 227.894545 
L 323.276116 241.504935 
L 324.091338 248.31013 
L 324.90656 248.31013 
L 325.721782 241.504935 
L 326.537004 221.089351 
L 327.352226 193.868571 
L 328.167448 200.673766 
L 328.98267 248.31013 
L 329.797893 248.31013 
L 330.613115 268.725714 
L 331.428337 261.920519 
L 332.243559 268.725714 
L 333.058781 268.725714 
L 333.874003 261.920519 
L 334.689225 241.504935 
L 335.504447 248.31013 
L 336.319669 261.920519 
L 337.134891 200.673766 
L 338.765335 227.894545 
L 339.580557 227.894545 
L 340.395779 248.31013 
L 341.211002 227.894545 
L 342.026224 268.725714 
L 342.841446 255.115325 
L 343.656668 187.063377 
L 344.47189 221.089351 
L 345.287112 227.894545 
L 346.102334 261.920519 
L 346.917556 234.69974 
L 347.732778 227.894545 
L 348.548 241.504935 
L 349.363222 268.725714 
L 350.178444 275.530909 
L 350.993666 255.115325 
L 351.808888 227.894545 
L 352.62411 241.504935 
L 353.439333 241.504935 
L 354.254555 248.31013 
L 355.069777 200.673766 
L 355.884999 214.284156 
L 356.700221 214.284156 
L 357.515443 173.452987 
L 358.330665 200.673766 
L 359.145887 180.258182 
L 359.961109 227.894545 
L 360.776331 221.089351 
L 361.591553 221.089351 
L 362.406775 241.504935 
L 363.221997 255.115325 
L 364.037219 214.284156 
L 364.852442 241.504935 
L 365.667664 139.427013 
L 366.482886 214.284156 
L 367.298108 248.31013 
L 368.11333 248.31013 
L 368.928552 234.69974 
L 369.743774 255.115325 
L 370.558996 255.115325 
L 372.18944 241.504935 
L 373.004662 268.725714 
L 373.819884 275.530909 
L 374.635106 248.31013 
L 375.450328 248.31013 
L 376.26555 221.089351 
L 377.080773 234.69974 
L 377.895995 241.504935 
L 378.711217 234.69974 
L 379.526439 255.115325 
L 380.341661 98.595844 
L 381.156883 193.868571 
L 381.972105 187.063377 
L 382.787327 207.478961 
L 384.417771 261.920519 
L 385.232993 221.089351 
L 386.048215 214.284156 
L 386.863437 234.69974 
L 387.678659 241.504935 
L 388.493882 255.115325 
L 389.309104 248.31013 
L 390.124326 275.530909 
L 390.939548 275.530909 
L 391.75477 268.725714 
L 392.569992 268.725714 
L 393.385214 275.530909 
L 394.200436 241.504935 
L 395.015658 248.31013 
L 397.461324 248.31013 
L 398.276546 241.504935 
L 399.091768 261.920519 
L 399.906991 248.31013 
L 400.722213 221.089351 
L 401.537435 227.894545 
L 402.352657 214.284156 
L 403.167879 227.894545 
L 403.983101 221.089351 
L 404.798323 261.920519 
L 405.613545 227.894545 
L 406.428767 248.31013 
L 407.243989 255.115325 
L 408.059211 255.115325 
L 408.874433 275.530909 
L 409.689655 275.530909 
L 410.504877 255.115325 
L 411.320099 255.115325 
L 412.135322 261.920519 
L 412.950544 261.920519 
L 413.765766 275.530909 
L 416.211432 255.115325 
L 417.026654 234.69974 
L 417.841876 227.894545 
L 418.657098 255.115325 
L 419.47232 255.115325 
L 420.287542 227.894545 
L 421.102764 261.920519 
L 421.917986 227.894545 
L 422.733208 261.920519 
L 423.548431 241.504935 
L 424.363653 234.69974 
L 425.178875 241.504935 
L 426.809319 268.725714 
L 427.624541 241.504935 
L 428.439763 255.115325 
L 429.254985 255.115325 
L 430.070207 268.725714 
L 430.885429 261.920519 
L 431.700651 261.920519 
L 432.515873 255.115325 
L 433.331095 261.920519 
L 434.146317 248.31013 
L 434.961539 214.284156 
L 435.776762 227.894545 
L 436.591984 234.69974 
L 437.407206 227.894545 
L 438.222428 193.868571 
L 439.03765 173.452987 
L 439.852872 187.063377 
L 440.668094 166.647792 
L 441.483316 119.011429 
L 442.298538 57.764675 
L 443.11376 139.427013 
L 443.928982 153.037403 
L 444.744204 234.69974 
L 445.559426 207.478961 
L 446.374648 214.284156 
L 447.189871 248.31013 
L 448.005093 234.69974 
L 448.820315 241.504935 
L 449.635537 261.920519 
L 450.450759 275.530909 
L 451.265981 268.725714 
L 452.081203 241.504935 
L 452.896425 248.31013 
L 453.711647 248.31013 
L 454.526869 234.69974 
L 455.342091 268.725714 
L 456.157313 234.69974 
L 456.972535 261.920519 
L 457.787757 275.530909 
L 458.602979 241.504935 
L 459.418202 261.920519 
L 460.233424 255.115325 
L 461.048646 234.69974 
L 461.863868 234.69974 
L 462.67909 241.504935 
L 463.494312 221.089351 
L 464.309534 234.69974 
L 465.124756 227.894545 
L 465.939978 255.115325 
L 466.7552 268.725714 
L 467.570422 255.115325 
L 468.385644 268.725714 
L 469.200866 261.920519 
L 470.016088 275.530909 
L 470.831311 268.725714 
L 472.461755 268.725714 
L 473.276977 241.504935 
L 474.092199 261.920519 
L 474.907421 261.920519 
L 475.722643 255.115325 
L 476.537865 255.115325 
L 477.353087 241.504935 
L 478.168309 261.920519 
L 478.983531 248.31013 
L 479.798753 241.504935 
L 480.613975 221.089351 
L 481.429197 234.69974 
L 483.059642 221.089351 
L 483.874864 234.69974 
L 484.690086 261.920519 
L 485.505308 227.894545 
L 486.32053 255.115325 
L 487.135752 241.504935 
L 487.950974 261.920519 
L 488.766196 255.115325 
L 489.581418 261.920519 
L 490.39664 261.920519 
L 491.211862 248.31013 
L 492.027084 221.089351 
L 492.842306 234.69974 
L 493.657528 234.69974 
L 494.472751 227.894545 
L 495.287973 214.284156 
L 496.103195 227.894545 
L 496.918417 227.894545 
L 497.733639 241.504935 
L 498.548861 214.284156 
L 499.364083 207.478961 
L 500.179305 180.258182 
L 500.994527 71.375065 
L 501.809749 91.790649 
L 502.624971 125.816623 
L 503.440193 214.284156 
L 504.255415 200.673766 
L 505.070637 214.284156 
L 505.88586 200.673766 
L 506.701082 146.232208 
L 507.516304 180.258182 
L 508.331526 227.894545 
L 509.146748 255.115325 
L 509.96197 200.673766 
L 510.777192 221.089351 
L 511.592414 207.478961 
L 512.407636 180.258182 
L 513.222858 139.427013 
L 514.03808 173.452987 
L 514.853302 166.647792 
L 515.668524 214.284156 
L 517.298968 214.284156 
L 518.114191 200.673766 
L 518.929413 173.452987 
L 519.744635 234.69974 
L 520.559857 200.673766 
L 521.375079 187.063377 
L 522.190301 193.868571 
L 523.005523 173.452987 
L 523.820745 227.894545 
L 524.635967 200.673766 
L 525.451189 200.673766 
L 526.266411 234.69974 
L 527.081633 261.920519 
L 527.896855 255.115325 
L 528.712077 255.115325 
L 530.342522 241.504935 
L 531.157744 241.504935 
L 531.972966 234.69974 
L 532.788188 241.504935 
L 533.60341 261.920519 
L 534.418632 234.69974 
L 535.233854 268.725714 
L 536.049076 248.31013 
L 538.494742 227.894545 
L 539.309964 241.504935 
L 540.940408 227.894545 
L 541.755631 187.063377 
L 542.570853 173.452987 
L 543.386075 248.31013 
L 544.201297 234.69974 
L 545.016519 248.31013 
L 546.646963 248.31013 
L 547.462185 261.920519 
L 548.277407 255.115325 
L 549.092629 261.920519 
L 549.907851 241.504935 
L 550.723073 214.284156 
L 551.538295 234.69974 
L 553.16874 234.69974 
L 553.983962 214.284156 
L 554.799184 241.504935 
L 555.614406 261.920519 
L 556.429628 234.69974 
L 557.24485 248.31013 
L 558.060072 248.31013 
L 558.875294 207.478961 
L 559.690516 132.621818 
L 560.505738 105.401039 
L 561.32096 187.063377 
L 562.136182 221.089351 
L 562.951404 207.478961 
L 564.581849 234.69974 
L 565.397071 241.504935 
L 566.212293 255.115325 
L 567.842737 268.725714 
L 568.657959 248.31013 
L 569.473181 261.920519 
L 570.288403 248.31013 
L 571.103625 241.504935 
L 571.918847 241.504935 
L 572.734069 248.31013 
L 573.549291 248.31013 
L 574.364513 227.894545 
L 575.179735 241.504935 
L 575.994957 234.69974 
L 576.81018 200.673766 
L 577.625402 180.258182 
L 578.440624 166.647792 
L 579.255846 105.401039 
L 580.071068 173.452987 
L 580.88629 173.452987 
L 581.701512 193.868571 
L 582.516734 221.089351 
L 583.331956 221.089351 
L 584.147178 241.504935 
L 584.9624 234.69974 
L 585.777622 248.31013 
L 586.592844 248.31013 
L 587.408066 261.920519 
L 588.223289 255.115325 
L 589.038511 268.725714 
L 589.853733 248.31013 
L 590.668955 261.920519 
L 591.484177 221.089351 
L 592.299399 255.115325 
L 593.114621 261.920519 
L 593.929843 241.504935 
L 594.745065 255.115325 
L 595.560287 241.504935 
L 596.375509 241.504935 
L 598.005953 268.725714 
L 598.821175 261.920519 
L 599.636397 234.69974 
L 600.45162 248.31013 
L 601.266842 234.69974 
L 602.082064 255.115325 
L 602.897286 241.504935 
L 603.712508 248.31013 
L 604.52773 153.037403 
L 605.342952 227.894545 
L 606.158174 221.089351 
L 606.973396 221.089351 
L 607.788618 241.504935 
L 608.60384 234.69974 
L 609.419062 255.115325 
L 610.234284 193.868571 
L 611.049506 153.037403 
L 611.864729 153.037403 
L 612.679951 187.063377 
L 613.495173 234.69974 
L 614.310395 214.284156 
L 615.125617 214.284156 
L 615.940839 200.673766 
L 616.756061 200.673766 
L 617.571283 132.621818 
L 618.386505 37.349091 
L 619.201727 139.427013 
L 620.016949 173.452987 
L 620.832171 193.868571 
L 621.647393 153.037403 
L 622.462615 187.063377 
L 623.277838 166.647792 
L 624.09306 234.69974 
L 624.908282 214.284156 
L 625.723504 248.31013 
L 626.538726 214.284156 
L 628.16917 200.673766 
L 628.984392 207.478961 
L 629.799614 187.063377 
L 630.614836 214.284156 
L 631.430058 221.089351 
L 632.24528 153.037403 
L 633.060502 234.69974 
L 633.875724 200.673766 
L 634.690946 227.894545 
L 635.506169 193.868571 
L 636.321391 207.478961 
L 637.136613 241.504935 
L 637.951835 187.063377 
L 638.767057 187.063377 
L 639.582279 221.089351 
L 640.397501 214.284156 
L 641.212723 214.284156 
L 642.027945 221.089351 
L 642.843167 248.31013 
L 643.658389 227.894545 
L 644.473611 200.673766 
L 645.288833 180.258182 
L 646.104055 241.504935 
L 646.919278 248.31013 
L 647.7345 261.920519 
L 649.364944 234.69974 
L 650.180166 248.31013 
L 650.995388 227.894545 
L 651.81061 221.089351 
L 652.625832 261.920519 
L 653.441054 248.31013 
L 654.256276 255.115325 
L 655.071498 200.673766 
L 655.88672 234.69974 
L 656.701942 227.894545 
L 657.517164 214.284156 
L 658.332386 214.284156 
L 659.147609 221.089351 
L 659.962831 193.868571 
L 660.778053 214.284156 
L 661.593275 200.673766 
L 662.408497 221.089351 
L 663.223719 207.478961 
L 664.854163 248.31013 
L 665.669385 227.894545 
L 667.299829 241.504935 
L 668.115051 207.478961 
L 668.930273 193.868571 
L 669.745495 248.31013 
L 670.560718 248.31013 
L 671.37594 221.089351 
L 672.191162 241.504935 
L 673.006384 268.725714 
L 673.821606 221.089351 
L 674.636828 248.31013 
L 675.45205 227.894545 
L 676.267272 221.089351 
L 677.082494 221.089351 
L 677.897716 255.115325 
L 677.897716 255.115325 
" clip-path="url(#p39f9f5269d)" style="fill: none; stroke: #1f77b4; stroke-width: 1.5; stroke-linecap: square"/>
   </g>
   <g id="patch_3">
    <path d="M 53.03 287.44 
L 53.03 25.44 
" style="fill: none; stroke: #000000; stroke-width: 0.8; stroke-linejoin: miter; stroke-linecap: square"/>
   </g>
   <g id="patch_4">
    <path d="M 707.653322 287.44 
L 707.653322 25.44 
" style="fill: none; stroke: #000000; stroke-width: 0.8; stroke-linejoin: miter; stroke-linecap: square"/>
   </g>
   <g id="patch_5">
    <path d="M 53.03 287.44 
L 707.653322 287.44 
" style="fill: none; stroke: #000000; stroke-width: 0.8; stroke-linejoin: miter; stroke-linecap: square"/>
   </g>
   <g id="patch_6">
    <path d="M 53.03 25.44 
L 707.653322 25.44 
" style="fill: none; stroke: #000000; stroke-width: 0.8; stroke-linejoin: miter; stroke-linecap: square"/>
   </g>
   <g id="text_19">
    <!-- Semnalul brut pe 731 esantioane -->
    <g transform="translate(280.211036 19.44) scale(0.12 -0.12)">
     <defs>
      <path id="DejaVuSans-53" d="M 3425 4513 
L 3425 3897 
Q 3066 4069 2747 4153 
Q 2428 4238 2131 4238 
Q 1616 4238 1336 4038 
Q 1056 3838 1056 3469 
Q 1056 3159 1242 3001 
Q 1428 2844 1947 2747 
L 2328 2669 
Q 3034 2534 3370 2195 
Q 3706 1856 3706 1288 
Q 3706 609 3251 259 
Q 2797 -91 1919 -91 
Q 1588 -91 1214 -16 
Q 841 59 441 206 
L 441 856 
Q 825 641 1194 531 
Q 1563 422 1919 422 
Q 2459 422 2753 634 
Q 3047 847 3047 1241 
Q 3047 1584 2836 1778 
Q 2625 1972 2144 2069 
L 1759 2144 
Q 1053 2284 737 2584 
Q 422 2884 422 3419 
Q 422 4038 858 4394 
Q 1294 4750 2059 4750 
Q 2388 4750 2728 4690 
Q 3069 4631 3425 4513 
z
" transform="scale(0.015625)"/>
      <path id="DejaVuSans-6c" d="M 603 4863 
L 1178 4863 
L 1178 0 
L 603 0 
L 603 4863 
z
" transform="scale(0.015625)"/>
      <path id="DejaVuSans-75" d="M 544 1381 
L 544 3500 
L 1119 3500 
L 1119 1403 
Q 1119 906 1312 657 
Q 1506 409 1894 409 
Q 2359 409 2629 706 
Q 2900 1003 2900 1516 
L 2900 3500 
L 3475 3500 
L 3475 0 
L 2900 0 
L 2900 538 
Q 2691 219 2414 64 
Q 2138 -91 1772 -91 
Q 1169 -91 856 284 
Q 544 659 544 1381 
z
M 1991 3584 
L 1991 3584 
z
" transform="scale(0.015625)"/>
      <path id="DejaVuSans-62" d="M 3116 1747 
Q 3116 2381 2855 2742 
Q 2594 3103 2138 3103 
Q 1681 3103 1420 2742 
Q 1159 2381 1159 1747 
Q 1159 1113 1420 752 
Q 1681 391 2138 391 
Q 2594 391 2855 752 
Q 3116 1113 3116 1747 
z
M 1159 2969 
Q 1341 3281 1617 3432 
Q 1894 3584 2278 3584 
Q 2916 3584 3314 3078 
Q 3713 2572 3713 1747 
Q 3713 922 3314 415 
Q 2916 -91 2278 -91 
Q 1894 -91 1617 61 
Q 1341 213 1159 525 
L 1159 0 
L 581 0 
L 581 4863 
L 1159 4863 
L 1159 2969 
z
" transform="scale(0.015625)"/>
      <path id="DejaVuSans-70" d="M 1159 525 
L 1159 -1331 
L 581 -1331 
L 581 3500 
L 1159 3500 
L 1159 2969 
Q 1341 3281 1617 3432 
Q 1894 3584 2278 3584 
Q 2916 3584 3314 3078 
Q 3713 2572 3713 1747 
Q 3713 922 3314 415 
Q 2916 -91 2278 -91 
Q 1894 -91 1617 61 
Q 1341 213 1159 525 
z
M 3116 1747 
Q 3116 2381 2855 2742 
Q 2594 3103 2138 3103 
Q 1681 3103 1420 2742 
Q 1159 2381 1159 1747 
Q 1159 1113 1420 752 
Q 1681 391 2138 391 
Q 2594 391 2855 752 
Q 3116 1113 3116 1747 
z
" transform="scale(0.015625)"/>
     </defs>
     <use xlink:href="#DejaVuSans-53"/>
     <use xlink:href="#DejaVuSans-65" x="63.476562"/>
     <use xlink:href="#DejaVuSans-6d" x="125"/>
     <use xlink:href="#DejaVuSans-6e" x="222.412109"/>
     <use xlink:href="#DejaVuSans-61" x="285.791016"/>
     <use xlink:href="#DejaVuSans-6c" x="347.070312"/>
     <use xlink:href="#DejaVuSans-75" x="374.853516"/>
     <use xlink:href="#DejaVuSans-6c" x="438.232422"/>
     <use xlink:href="#DejaVuSans-20" x="466.015625"/>
     <use xlink:href="#DejaVuSans-62" x="497.802734"/>
     <use xlink:href="#DejaVuSans-72" x="561.279297"/>
     <use xlink:href="#DejaVuSans-75" x="602.392578"/>
     <use xlink:href="#DejaVuSans-74" x="665.771484"/>
     <use xlink:href="#DejaVuSans-20" x="704.980469"/>
     <use xlink:href="#DejaVuSans-70" x="736.767578"/>
     <use xlink:href="#DejaVuSans-65" x="800.244141"/>
     <use xlink:href="#DejaVuSans-20" x="861.767578"/>
     <use xlink:href="#DejaVuSans-37" x="893.554688"/>
     <use xlink:href="#DejaVuSans-33" x="957.177734"/>
     <use xlink:href="#DejaVuSans-31" x="1020.800781"/>
     <use xlink:href="#DejaVuSans-20" x="1084.423828"/>
     <use xlink:href="#DejaVuSans-65" x="1116.210938"/>
     <use xlink:href="#DejaVuSans-73" x="1177.734375"/>
     <use xlink:href="#DejaVuSans-61" x="1229.833984"/>
     <use xlink:href="#DejaVuSans-6e" x="1291.113281"/>
     <use xlink:href="#DejaVuSans-74" x="1354.492188"/>
     <use xlink:href="#DejaVuSans-69" x="1393.701172"/>
     <use xlink:href="#DejaVuSans-6f" x="1421.484375"/>
     <use xlink:href="#DejaVuSans-61" x="1482.666016"/>
     <use xlink:href="#DejaVuSans-6e" x="1543.945312"/>
     <use xlink:href="#DejaVuSans-65" x="1607.324219"/>
    </g>
   </g>
   <g id="legend_1">
    <g id="patch_7">
     <path d="M 60.03 48.118125 
L 161.387813 48.118125 
Q 163.387813 48.118125 163.387813 46.118125 
L 163.387813 32.44 
Q 163.387813 30.44 161.387813 30.44 
L 60.03 30.44 
Q 58.03 30.44 58.03 32.44 
L 58.03 46.118125 
Q 58.03 48.118125 60.03 48.118125 
z
" style="fill: #ffffff; opacity: 0.8; stroke: #cccccc; stroke-linejoin: miter"/>
    </g>
    <g id="line2d_18">
     <path d="M 62.03 38.538437 
L 72.03 38.538437 
L 82.03 38.538437 
" style="fill: none; stroke: #1f77b4; stroke-width: 1.5; stroke-linecap: square"/>
    </g>
    <g id="text_20">
     <!-- semnalul brut -->
     <g transform="translate(90.03 42.038437) scale(0.1 -0.1)">
      <use xlink:href="#DejaVuSans-73"/>
      <use xlink:href="#DejaVuSans-65" x="52.099609"/>
      <use xlink:href="#DejaVuSans-6d" x="113.623047"/>
      <use xlink:href="#DejaVuSans-6e" x="211.035156"/>
      <use xlink:href="#DejaVuSans-61" x="274.414062"/>
      <use xlink:href="#DejaVuSans-6c" x="335.693359"/>
      <use xlink:href="#DejaVuSans-75" x="363.476562"/>
      <use xlink:href="#DejaVuSans-6c" x="426.855469"/>
      <use xlink:href="#DejaVuSans-20" x="454.638672"/>
      <use xlink:href="#DejaVuSans-62" x="486.425781"/>
      <use xlink:href="#DejaVuSans-72" x="549.902344"/>
      <use xlink:href="#DejaVuSans-75" x="591.015625"/>
      <use xlink:href="#DejaVuSans-74" x="654.394531"/>
     </g>
    </g>
   </g>
  </g>
  <g id="axes_2">
   <g id="patch_8">
    <path d="M 53.03 606.04 
L 707.653322 606.04 
L 707.653322 344.04 
L 53.03 344.04 
z
" style="fill: #ffffff"/>
   </g>
   <g id="matplotlib.axis_3">
    <g id="xtick_9">
     <g id="line2d_19">
      <g>
       <use xlink:href="#mf1fff61669" x="82.785606" y="606.04" style="stroke: #000000; stroke-width: 0.8"/>
      </g>
     </g>
     <g id="text_21">
      <!-- 0.00000 -->
      <g transform="translate(62.109043 620.638438) scale(0.1 -0.1)">
       <defs>
        <path id="DejaVuSans-2e" d="M 684 794 
L 1344 794 
L 1344 0 
L 684 0 
L 684 794 
z
" transform="scale(0.015625)"/>
       </defs>
       <use xlink:href="#DejaVuSans-30"/>
       <use xlink:href="#DejaVuSans-2e" x="63.623047"/>
       <use xlink:href="#DejaVuSans-30" x="95.410156"/>
       <use xlink:href="#DejaVuSans-30" x="159.033203"/>
       <use xlink:href="#DejaVuSans-30" x="222.65625"/>
       <use xlink:href="#DejaVuSans-30" x="286.279297"/>
       <use xlink:href="#DejaVuSans-30" x="349.902344"/>
      </g>
     </g>
    </g>
    <g id="xtick_10">
     <g id="line2d_20">
      <g>
       <use xlink:href="#mf1fff61669" x="168.834893" y="606.04" style="stroke: #000000; stroke-width: 0.8"/>
      </g>
     </g>
     <g id="text_22">
      <!-- 0.00002 -->
      <g transform="translate(148.15833 620.638438) scale(0.1 -0.1)">
       <use xlink:href="#DejaVuSans-30"/>
       <use xlink:href="#DejaVuSans-2e" x="63.623047"/>
       <use xlink:href="#DejaVuSans-30" x="95.410156"/>
       <use xlink:href="#DejaVuSans-30" x="159.033203"/>
       <use xlink:href="#DejaVuSans-30" x="222.65625"/>
       <use xlink:href="#DejaVuSans-30" x="286.279297"/>
       <use xlink:href="#DejaVuSans-32" x="349.902344"/>
      </g>
     </g>
    </g>
    <g id="xtick_11">
     <g id="line2d_21">
      <g>
       <use xlink:href="#mf1fff61669" x="254.88418" y="606.04" style="stroke: #000000; stroke-width: 0.8"/>
      </g>
     </g>
     <g id="text_23">
      <!-- 0.00004 -->
      <g transform="translate(234.207618 620.638438) scale(0.1 -0.1)">
       <use xlink:href="#DejaVuSans-30"/>
       <use xlink:href="#DejaVuSans-2e" x="63.623047"/>
       <use xlink:href="#DejaVuSans-30" x="95.410156"/>
       <use xlink:href="#DejaVuSans-30" x="159.033203"/>
       <use xlink:href="#DejaVuSans-30" x="222.65625"/>
       <use xlink:href="#DejaVuSans-30" x="286.279297"/>
       <use xlink:href="#DejaVuSans-34" x="349.902344"/>
      </g>
     </g>
    </g>
    <g id="xtick_12">
     <g id="line2d_22">
      <g>
       <use xlink:href="#mf1fff61669" x="340.933468" y="606.04" style="stroke: #000000; stroke-width: 0.8"/>
      </g>
     </g>
     <g id="text_24">
      <!-- 0.00006 -->
      <g transform="translate(320.256905 620.638438) scale(0.1 -0.1)">
       <use xlink:href="#DejaVuSans-30"/>
       <use xlink:href="#DejaVuSans-2e" x="63.623047"/>
       <use xlink:href="#DejaVuSans-30" x="95.410156"/>
       <use xlink:href="#DejaVuSans-30" x="159.033203"/>
       <use xlink:href="#DejaVuSans-30" x="222.65625"/>
       <use xlink:href="#DejaVuSans-30" x="286.279297"/>
       <use xlink:href="#DejaVuSans-36" x="349.902344"/>
      </g>
     </g>
    </g>
    <g id="xtick_13">
     <g id="line2d_23">
      <g>
       <use xlink:href="#mf1fff61669" x="426.982755" y="606.04" style="stroke: #000000; stroke-width: 0.8"/>
      </g>
     </g>
     <g id="text_25">
      <!-- 0.00008 -->
      <g transform="translate(406.306193 620.638438) scale(0.1 -0.1)">
       <use xlink:href="#DejaVuSans-30"/>
       <use xlink:href="#DejaVuSans-2e" x="63.623047"/>
       <use xlink:href="#DejaVuSans-30" x="95.410156"/>
       <use xlink:href="#DejaVuSans-30" x="159.033203"/>
       <use xlink:href="#DejaVuSans-30" x="222.65625"/>
       <use xlink:href="#DejaVuSans-30" x="286.279297"/>
       <use xlink:href="#DejaVuSans-38" x="349.902344"/>
      </g>
     </g>
    </g>
    <g id="xtick_14">
     <g id="line2d_24">
      <g>
       <use xlink:href="#mf1fff61669" x="513.032042" y="606.04" style="stroke: #000000; stroke-width: 0.8"/>
      </g>
     </g>
     <g id="text_26">
      <!-- 0.00010 -->
      <g transform="translate(492.35548 620.638438) scale(0.1 -0.1)">
       <use xlink:href="#DejaVuSans-30"/>
       <use xlink:href="#DejaVuSans-2e" x="63.623047"/>
       <use xlink:href="#DejaVuSans-30" x="95.410156"/>
       <use xlink:href="#DejaVuSans-30" x="159.033203"/>
       <use xlink:href="#DejaVuSans-30" x="222.65625"/>
       <use xlink:href="#DejaVuSans-31" x="286.279297"/>
       <use xlink:href="#DejaVuSans-30" x="349.902344"/>
      </g>
     </g>
    </g>
    <g id="xtick_15">
     <g id="line2d_25">
      <g>
       <use xlink:href="#mf1fff61669" x="599.08133" y="606.04" style="stroke: #000000; stroke-width: 0.8"/>
      </g>
     </g>
     <g id="text_27">
      <!-- 0.00012 -->
      <g transform="translate(578.404767 620.638438) scale(0.1 -0.1)">
       <use xlink:href="#DejaVuSans-30"/>
       <use xlink:href="#DejaVuSans-2e" x="63.623047"/>
       <use xlink:href="#DejaVuSans-30" x="95.410156"/>
       <use xlink:href="#DejaVuSans-30" x="159.033203"/>
       <use xlink:href="#DejaVuSans-30" x="222.65625"/>
       <use xlink:href="#DejaVuSans-31" x="286.279297"/>
       <use xlink:href="#DejaVuSans-32" x="349.902344"/>
      </g>
     </g>
    </g>
    <g id="xtick_16">
     <g id="line2d_26">
      <g>
       <use xlink:href="#mf1fff61669" x="685.130617" y="606.04" style="stroke: #000000; stroke-width: 0.8"/>
      </g>
     </g>
     <g id="text_28">
      <!-- 0.00014 -->
      <g transform="translate(664.454055 620.638438) scale(0.1 -0.1)">
       <use xlink:href="#DejaVuSans-30"/>
       <use xlink:href="#DejaVuSans-2e" x="63.623047"/>
       <use xlink:href="#DejaVuSans-30" x="95.410156"/>
       <use xlink:href="#DejaVuSans-30" x="159.033203"/>
       <use xlink:href="#DejaVuSans-30" x="222.65625"/>
       <use xlink:href="#DejaVuSans-31" x="286.279297"/>
       <use xlink:href="#DejaVuSans-34" x="349.902344"/>
      </g>
     </g>
    </g>
    <g id="text_29">
     <!-- Frecventa [Hz] -->
     <g transform="translate(343.955723 634.316563) scale(0.1 -0.1)">
      <defs>
       <path id="DejaVuSans-46" d="M 628 4666 
L 3309 4666 
L 3309 4134 
L 1259 4134 
L 1259 2759 
L 3109 2759 
L 3109 2228 
L 1259 2228 
L 1259 0 
L 628 0 
L 628 4666 
z
" transform="scale(0.015625)"/>
       <path id="DejaVuSans-63" d="M 3122 3366 
L 3122 2828 
Q 2878 2963 2633 3030 
Q 2388 3097 2138 3097 
Q 1578 3097 1268 2742 
Q 959 2388 959 1747 
Q 959 1106 1268 751 
Q 1578 397 2138 397 
Q 2388 397 2633 464 
Q 2878 531 3122 666 
L 3122 134 
Q 2881 22 2623 -34 
Q 2366 -91 2075 -91 
Q 1284 -91 818 406 
Q 353 903 353 1747 
Q 353 2603 823 3093 
Q 1294 3584 2113 3584 
Q 2378 3584 2631 3529 
Q 2884 3475 3122 3366 
z
" transform="scale(0.015625)"/>
       <path id="DejaVuSans-76" d="M 191 3500 
L 800 3500 
L 1894 563 
L 2988 3500 
L 3597 3500 
L 2284 0 
L 1503 0 
L 191 3500 
z
" transform="scale(0.015625)"/>
       <path id="DejaVuSans-5b" d="M 550 4863 
L 1875 4863 
L 1875 4416 
L 1125 4416 
L 1125 -397 
L 1875 -397 
L 1875 -844 
L 550 -844 
L 550 4863 
z
" transform="scale(0.015625)"/>
       <path id="DejaVuSans-48" d="M 628 4666 
L 1259 4666 
L 1259 2753 
L 3553 2753 
L 3553 4666 
L 4184 4666 
L 4184 0 
L 3553 0 
L 3553 2222 
L 1259 2222 
L 1259 0 
L 628 0 
L 628 4666 
z
" transform="scale(0.015625)"/>
       <path id="DejaVuSans-7a" d="M 353 3500 
L 3084 3500 
L 3084 2975 
L 922 459 
L 3084 459 
L 3084 0 
L 275 0 
L 275 525 
L 2438 3041 
L 353 3041 
L 353 3500 
z
" transform="scale(0.015625)"/>
       <path id="DejaVuSans-5d" d="M 1947 4863 
L 1947 -844 
L 622 -844 
L 622 -397 
L 1369 -397 
L 1369 4416 
L 622 4416 
L 622 4863 
L 1947 4863 
z
" transform="scale(0.015625)"/>
      </defs>
      <use xlink:href="#DejaVuSans-46"/>
      <use xlink:href="#DejaVuSans-72" x="50.269531"/>
      <use xlink:href="#DejaVuSans-65" x="89.132812"/>
      <use xlink:href="#DejaVuSans-63" x="150.65625"/>
      <use xlink:href="#DejaVuSans-76" x="205.636719"/>
      <use xlink:href="#DejaVuSans-65" x="264.816406"/>
      <use xlink:href="#DejaVuSans-6e" x="326.339844"/>
      <use xlink:href="#DejaVuSans-74" x="389.71875"/>
      <use xlink:href="#DejaVuSans-61" x="428.927734"/>
      <use xlink:href="#DejaVuSans-20" x="490.207031"/>
      <use xlink:href="#DejaVuSans-5b" x="521.994141"/>
      <use xlink:href="#DejaVuSans-48" x="561.007812"/>
      <use xlink:href="#DejaVuSans-7a" x="636.203125"/>
      <use xlink:href="#DejaVuSans-5d" x="688.693359"/>
     </g>
    </g>
   </g>
   <g id="matplotlib.axis_4">
    <g id="ytick_9">
     <g id="line2d_27">
      <g>
       <use xlink:href="#m2a84fe928d" x="53.03" y="594.130909" style="stroke: #000000; stroke-width: 0.8"/>
      </g>
     </g>
     <g id="text_30">
      <!-- 0.0 -->
      <g transform="translate(30.126875 597.930128) scale(0.1 -0.1)">
       <use xlink:href="#DejaVuSans-30"/>
       <use xlink:href="#DejaVuSans-2e" x="63.623047"/>
       <use xlink:href="#DejaVuSans-30" x="95.410156"/>
      </g>
     </g>
    </g>
    <g id="ytick_10">
     <g id="line2d_28">
      <g>
       <use xlink:href="#m2a84fe928d" x="53.03" y="545.596791" style="stroke: #000000; stroke-width: 0.8"/>
      </g>
     </g>
     <g id="text_31">
      <!-- 0.5 -->
      <g transform="translate(30.126875 549.396009) scale(0.1 -0.1)">
       <use xlink:href="#DejaVuSans-30"/>
       <use xlink:href="#DejaVuSans-2e" x="63.623047"/>
       <use xlink:href="#DejaVuSans-35" x="95.410156"/>
      </g>
     </g>
    </g>
    <g id="ytick_11">
     <g id="line2d_29">
      <g>
       <use xlink:href="#m2a84fe928d" x="53.03" y="497.062672" style="stroke: #000000; stroke-width: 0.8"/>
      </g>
     </g>
     <g id="text_32">
      <!-- 1.0 -->
      <g transform="translate(30.126875 500.861891) scale(0.1 -0.1)">
       <use xlink:href="#DejaVuSans-31"/>
       <use xlink:href="#DejaVuSans-2e" x="63.623047"/>
       <use xlink:href="#DejaVuSans-30" x="95.410156"/>
      </g>
     </g>
    </g>
    <g id="ytick_12">
     <g id="line2d_30">
      <g>
       <use xlink:href="#m2a84fe928d" x="53.03" y="448.528554" style="stroke: #000000; stroke-width: 0.8"/>
      </g>
     </g>
     <g id="text_33">
      <!-- 1.5 -->
      <g transform="translate(30.126875 452.327772) scale(0.1 -0.1)">
       <use xlink:href="#DejaVuSans-31"/>
       <use xlink:href="#DejaVuSans-2e" x="63.623047"/>
       <use xlink:href="#DejaVuSans-35" x="95.410156"/>
      </g>
     </g>
    </g>
    <g id="ytick_13">
     <g id="line2d_31">
      <g>
       <use xlink:href="#m2a84fe928d" x="53.03" y="399.994435" style="stroke: #000000; stroke-width: 0.8"/>
      </g>
     </g>
     <g id="text_34">
      <!-- 2.0 -->
      <g transform="translate(30.126875 403.793654) scale(0.1 -0.1)">
       <use xlink:href="#DejaVuSans-32"/>
       <use xlink:href="#DejaVuSans-2e" x="63.623047"/>
       <use xlink:href="#DejaVuSans-30" x="95.410156"/>
      </g>
     </g>
    </g>
    <g id="ytick_14">
     <g id="line2d_32">
      <g>
       <use xlink:href="#m2a84fe928d" x="53.03" y="351.460316" style="stroke: #000000; stroke-width: 0.8"/>
      </g>
     </g>
     <g id="text_35">
      <!-- 2.5 -->
      <g transform="translate(30.126875 355.259535) scale(0.1 -0.1)">
       <use xlink:href="#DejaVuSans-32"/>
       <use xlink:href="#DejaVuSans-2e" x="63.623047"/>
       <use xlink:href="#DejaVuSans-35" x="95.410156"/>
      </g>
     </g>
    </g>
    <g id="text_36">
     <!-- Amplitudine -->
     <g transform="translate(24.047188 505.220469) rotate(-90) scale(0.1 -0.1)">
      <defs>
       <path id="DejaVuSans-41" d="M 2188 4044 
L 1331 1722 
L 3047 1722 
L 2188 4044 
z
M 1831 4666 
L 2547 4666 
L 4325 0 
L 3669 0 
L 3244 1197 
L 1141 1197 
L 716 0 
L 50 0 
L 1831 4666 
z
" transform="scale(0.015625)"/>
       <path id="DejaVuSans-64" d="M 2906 2969 
L 2906 4863 
L 3481 4863 
L 3481 0 
L 2906 0 
L 2906 525 
Q 2725 213 2448 61 
Q 2172 -91 1784 -91 
Q 1150 -91 751 415 
Q 353 922 353 1747 
Q 353 2572 751 3078 
Q 1150 3584 1784 3584 
Q 2172 3584 2448 3432 
Q 2725 3281 2906 2969 
z
M 947 1747 
Q 947 1113 1208 752 
Q 1469 391 1925 391 
Q 2381 391 2643 752 
Q 2906 1113 2906 1747 
Q 2906 2381 2643 2742 
Q 2381 3103 1925 3103 
Q 1469 3103 1208 2742 
Q 947 2381 947 1747 
z
" transform="scale(0.015625)"/>
      </defs>
      <use xlink:href="#DejaVuSans-41"/>
      <use xlink:href="#DejaVuSans-6d" x="68.408203"/>
      <use xlink:href="#DejaVuSans-70" x="165.820312"/>
      <use xlink:href="#DejaVuSans-6c" x="229.296875"/>
      <use xlink:href="#DejaVuSans-69" x="257.080078"/>
      <use xlink:href="#DejaVuSans-74" x="284.863281"/>
      <use xlink:href="#DejaVuSans-75" x="324.072266"/>
      <use xlink:href="#DejaVuSans-64" x="387.451172"/>
      <use xlink:href="#DejaVuSans-69" x="450.927734"/>
      <use xlink:href="#DejaVuSans-6e" x="478.710938"/>
      <use xlink:href="#DejaVuSans-65" x="542.089844"/>
     </g>
    </g>
   </g>
   <g id="line2d_33">
    <path d="M 82.785606 594.130909 
L 84.420529 355.949091 
L 86.055452 523.073069 
L 87.690376 573.87851 
L 89.325299 537.754556 
L 90.960222 471.717973 
L 92.595146 484.414721 
L 94.230069 521.059544 
L 95.864993 537.266453 
L 97.499916 479.917543 
L 99.134839 461.22603 
L 100.769763 483.288376 
L 102.404686 584.348992 
L 104.039609 533.224255 
L 105.674533 551.308546 
L 107.309456 565.756597 
L 108.94438 500.989868 
L 110.579303 540.294505 
L 112.214226 535.091885 
L 113.84915 581.237341 
L 115.484073 565.902747 
L 117.118997 505.895292 
L 118.75392 532.187673 
L 120.388843 547.803037 
L 122.023767 572.930366 
L 123.65869 564.535309 
L 125.293613 576.80728 
L 126.928537 543.928884 
L 128.56346 559.693541 
L 130.198384 500.188413 
L 131.833307 391.183274 
L 133.46823 486.074737 
L 135.103154 550.665133 
L 136.738077 551.697487 
L 138.373 545.42526 
L 140.007924 583.410805 
L 141.642847 554.355935 
L 143.277771 585.505388 
L 144.912694 560.868095 
L 146.547617 574.087281 
L 148.182541 529.428172 
L 149.817464 569.874396 
L 151.452388 580.641332 
L 153.087311 540.67001 
L 154.722234 577.12233 
L 156.357158 538.2341 
L 157.992081 574.701495 
L 159.627004 559.563623 
L 161.261928 546.525213 
L 162.896851 556.77768 
L 164.531775 545.491758 
L 166.166698 566.477399 
L 167.801621 556.615497 
L 169.436545 552.306109 
L 171.071468 574.921534 
L 172.706391 565.204727 
L 174.341315 552.281958 
L 175.976238 575.513618 
L 177.611162 551.906946 
L 179.246085 551.250855 
L 180.881008 551.373837 
L 182.515932 481.835175 
L 184.150855 568.420166 
L 185.785779 556.448696 
L 187.420702 562.031973 
L 189.055625 573.323393 
L 190.690549 587.298913 
L 192.325472 549.811331 
L 193.960395 583.000555 
L 195.595319 574.712627 
L 197.230242 556.025969 
L 198.865166 568.101831 
L 200.500089 559.599585 
L 202.135012 578.077593 
L 203.769936 556.831164 
L 205.404859 565.956495 
L 207.039782 581.204422 
L 208.674706 581.583795 
L 210.309629 572.439891 
L 211.944553 551.031297 
L 213.579476 551.988508 
L 215.214399 559.873018 
L 216.849323 566.650817 
L 218.484246 577.368643 
L 220.11917 578.696195 
L 221.754093 545.217144 
L 223.389016 581.467951 
L 225.02394 572.780105 
L 226.658863 587.206845 
L 228.293786 575.84583 
L 229.92871 553.266125 
L 231.563633 535.318064 
L 234.83348 559.777584 
L 236.468403 583.602424 
L 238.103327 567.471233 
L 239.73825 562.045064 
L 241.373173 575.097653 
L 243.008097 574.536069 
L 244.64302 555.335404 
L 246.277944 549.068553 
L 247.912867 558.914872 
L 249.54779 563.11904 
L 251.182714 551.478998 
L 252.817637 563.619544 
L 254.452561 573.546942 
L 256.087484 570.984322 
L 257.722407 582.832526 
L 259.357331 567.922902 
L 260.992254 545.5707 
L 262.627177 574.636315 
L 264.262101 553.792108 
L 265.897024 563.960695 
L 267.531948 549.875613 
L 269.166871 561.148891 
L 270.801794 575.078157 
L 272.436718 570.628161 
L 274.071641 589.723541 
L 275.706564 581.606097 
L 277.341488 562.575455 
L 278.976411 562.980261 
L 280.611335 583.358068 
L 282.246258 580.875057 
L 283.881181 554.328665 
L 285.516105 571.599618 
L 287.151028 580.458523 
L 288.785952 577.129968 
L 290.420875 578.871644 
L 292.055798 573.461254 
L 293.690722 585.249483 
L 295.325645 580.655036 
L 296.960568 563.708405 
L 298.595492 559.381975 
L 300.230415 540.444839 
L 301.865339 584.743392 
L 303.500262 585.060377 
L 305.135185 571.190032 
L 306.770109 582.971586 
L 308.405032 584.117989 
L 310.039955 574.845692 
L 311.674879 575.620862 
L 313.309802 578.793525 
L 314.944726 582.829303 
L 316.579649 569.316201 
L 318.214572 572.840645 
L 319.849496 579.17719 
L 321.484419 592.20204 
L 323.119343 563.860537 
L 324.754266 575.151568 
L 326.389189 584.563698 
L 328.024113 590.828124 
L 329.659036 580.368281 
L 331.293959 574.276011 
L 332.928883 569.330858 
L 336.19873 583.920614 
L 337.833653 569.174223 
L 339.468576 580.298424 
L 341.1035 571.436011 
L 342.738423 585.571942 
L 344.373346 567.090758 
L 346.00827 579.891897 
L 347.643193 575.857363 
L 349.278117 561.016407 
L 350.91304 590.293221 
L 352.547963 560.930164 
L 354.182887 569.800967 
L 355.81781 583.892362 
L 359.087657 571.525023 
L 360.72258 573.942575 
L 362.357504 562.799279 
L 363.992427 567.083994 
L 365.62735 564.242065 
L 367.262274 570.912173 
L 368.897197 567.408497 
L 370.532121 555.390011 
L 372.167044 587.063539 
L 373.801967 585.199119 
L 375.436891 561.758388 
L 377.071814 583.143751 
L 378.706737 573.877034 
L 380.341661 566.151326 
L 381.976584 577.569268 
L 383.611508 572.445396 
L 385.246431 585.281093 
L 386.881354 581.742179 
L 388.516278 582.964508 
L 390.151201 574.86848 
L 391.786125 582.655284 
L 393.421048 581.980203 
L 395.055971 576.631079 
L 396.690895 572.436011 
L 398.325818 577.384768 
L 399.960741 567.422078 
L 401.595665 588.035235 
L 403.230588 567.93193 
L 404.865512 583.089297 
L 406.500435 579.209814 
L 408.135358 573.59515 
L 409.770282 572.056993 
L 411.405205 585.167139 
L 413.040128 572.985904 
L 414.675052 550.771637 
L 416.309975 589.055862 
L 417.944899 586.57429 
L 419.579822 568.25866 
L 421.214745 579.099843 
L 422.849669 578.160829 
L 424.484592 578.217155 
L 426.119516 583.640722 
L 427.754439 576.082214 
L 429.389362 571.929763 
L 431.024286 557.000657 
L 432.659209 571.238764 
L 434.294132 568.795633 
L 435.929056 582.750877 
L 437.563979 571.112292 
L 439.198903 587.780362 
L 440.833826 583.065696 
L 442.468749 592.962737 
L 444.103673 580.04227 
L 445.738596 583.420525 
L 449.008443 572.518209 
L 450.643366 573.676303 
L 452.27829 574.038228 
L 453.913213 579.831118 
L 455.548136 579.261746 
L 457.18306 575.98799 
L 458.817983 588.080088 
L 460.452906 589.277521 
L 462.08783 585.384401 
L 463.722753 570.776579 
L 465.357677 573.282634 
L 466.9926 583.264231 
L 468.627523 584.837224 
L 470.262447 586.88181 
L 471.89737 586.636438 
L 473.532294 590.133282 
L 475.167217 574.1543 
L 476.80214 570.990211 
L 478.437064 578.213927 
L 480.071987 574.849688 
L 481.70691 575.957195 
L 483.341834 588.733035 
L 484.976757 576.091848 
L 486.611681 582.991691 
L 488.246604 577.298099 
L 489.881527 570.648081 
L 491.516451 581.704679 
L 493.151374 581.031549 
L 494.786297 584.932291 
L 496.421221 590.815135 
L 498.056144 578.875749 
L 499.691068 579.378647 
L 501.325991 577.086764 
L 502.960914 584.588828 
L 504.595838 559.69314 
L 506.230761 590.771258 
L 507.865685 592.166478 
L 509.500608 570.016919 
L 511.135531 584.367292 
L 512.770455 574.686724 
L 514.405378 580.799573 
L 516.040301 584.482586 
L 517.675225 589.446949 
L 519.310148 592.222459 
L 520.945072 584.392762 
L 522.579995 570.218223 
L 524.214918 585.714189 
L 525.849842 582.004474 
L 527.484765 581.476168 
L 529.119688 557.65547 
L 530.754612 588.865971 
L 532.389535 569.062911 
L 534.024459 579.821503 
L 535.659382 577.592356 
L 537.294305 575.956692 
L 538.929229 573.881675 
L 540.564152 575.705968 
L 542.199076 580.665595 
L 543.833999 575.51992 
L 545.468922 580.689426 
L 547.103846 571.210934 
L 548.738769 567.218925 
L 550.373692 571.385286 
L 552.008616 589.755212 
L 553.643539 558.678342 
L 555.278463 584.591563 
L 556.913386 566.429786 
L 558.548309 585.716143 
L 560.183233 575.944141 
L 561.818156 570.416257 
L 563.453079 592.022138 
L 565.088003 570.90981 
L 566.722926 569.577717 
L 568.35785 578.885765 
L 569.992773 578.929774 
L 571.627696 575.831064 
L 573.26262 585.049258 
L 574.897543 561.505195 
L 576.532467 578.472272 
L 578.16739 575.994404 
L 579.802313 570.350011 
L 581.437237 567.387419 
L 583.07216 570.464814 
L 584.707083 581.981016 
L 586.342007 587.531298 
L 587.97693 579.820933 
L 589.611854 590.713305 
L 591.246777 586.176504 
L 592.8817 568.918942 
L 594.516624 586.132186 
L 596.151547 580.957019 
L 597.78647 579.733705 
L 599.421394 581.614036 
L 601.056317 578.667808 
L 602.691241 579.301792 
L 604.326164 568.532492 
L 605.961087 574.459893 
L 607.596011 577.197341 
L 609.230934 582.03556 
L 610.865858 588.446264 
L 612.500781 576.051393 
L 614.135704 574.187874 
L 615.770628 554.063735 
L 617.405551 568.707149 
L 619.040474 571.486142 
L 620.675398 565.385742 
L 622.310321 588.559839 
L 623.945245 571.768274 
L 625.580168 578.519422 
L 627.215091 586.745131 
L 628.850015 580.996762 
L 630.484938 584.692089 
L 632.119861 565.401636 
L 633.754785 590.723693 
L 635.389708 575.953932 
L 637.024632 591.335091 
L 638.659555 583.673003 
L 640.294478 570.791384 
L 641.929402 578.692607 
L 643.564325 582.492655 
L 645.199249 585.271084 
L 646.834172 571.689437 
L 648.469095 577.361021 
L 650.104019 579.153407 
L 651.738942 579.203542 
L 653.373865 579.047644 
L 655.008789 580.774556 
L 656.643712 579.141918 
L 658.278636 583.247999 
L 659.913559 589.305812 
L 661.548482 554.498557 
L 663.183406 548.083129 
L 664.818329 560.622145 
L 666.453252 579.772804 
L 668.088176 573.332648 
L 669.723099 566.00932 
L 671.358023 588.952881 
L 672.992946 580.416264 
L 674.627869 585.583111 
L 676.262793 580.813561 
L 677.897716 575.603057 
L 677.897716 575.603057 
" clip-path="url(#pb1481c06e2)" style="fill: none; stroke: #ff0000; stroke-width: 1.5; stroke-linecap: square"/>
   </g>
   <g id="patch_9">
    <path d="M 53.03 606.04 
L 53.03 344.04 
" style="fill: none; stroke: #000000; stroke-width: 0.8; stroke-linejoin: miter; stroke-linecap: square"/>
   </g>
   <g id="patch_10">
    <path d="M 707.653322 606.04 
L 707.653322 344.04 
" style="fill: none; stroke: #000000; stroke-width: 0.8; stroke-linejoin: miter; stroke-linecap: square"/>
   </g>
   <g id="patch_11">
    <path d="M 53.03 606.04 
L 707.653322 606.04 
" style="fill: none; stroke: #000000; stroke-width: 0.8; stroke-linejoin: miter; stroke-linecap: square"/>
   </g>
   <g id="patch_12">
    <path d="M 53.03 344.04 
L 707.653322 344.04 
" style="fill: none; stroke: #000000; stroke-width: 0.8; stroke-linejoin: miter; stroke-linecap: square"/>
   </g>
   <g id="text_37">
    <!-- FFT pe 731 esantioane -->
    <g transform="translate(312.047598 338.04) scale(0.12 -0.12)">
     <defs>
      <path id="DejaVuSans-54" d="M -19 4666 
L 3928 4666 
L 3928 4134 
L 2272 4134 
L 2272 0 
L 1638 0 
L 1638 4134 
L -19 4134 
L -19 4666 
z
" transform="scale(0.015625)"/>
     </defs>
     <use xlink:href="#DejaVuSans-46"/>
     <use xlink:href="#DejaVuSans-46" x="57.519531"/>
     <use xlink:href="#DejaVuSans-54" x="113.289062"/>
     <use xlink:href="#DejaVuSans-20" x="174.373047"/>
     <use xlink:href="#DejaVuSans-70" x="206.160156"/>
     <use xlink:href="#DejaVuSans-65" x="269.636719"/>
     <use xlink:href="#DejaVuSans-20" x="331.160156"/>
     <use xlink:href="#DejaVuSans-37" x="362.947266"/>
     <use xlink:href="#DejaVuSans-33" x="426.570312"/>
     <use xlink:href="#DejaVuSans-31" x="490.193359"/>
     <use xlink:href="#DejaVuSans-20" x="553.816406"/>
     <use xlink:href="#DejaVuSans-65" x="585.603516"/>
     <use xlink:href="#DejaVuSans-73" x="647.126953"/>
     <use xlink:href="#DejaVuSans-61" x="699.226562"/>
     <use xlink:href="#DejaVuSans-6e" x="760.505859"/>
     <use xlink:href="#DejaVuSans-74" x="823.884766"/>
     <use xlink:href="#DejaVuSans-69" x="863.09375"/>
     <use xlink:href="#DejaVuSans-6f" x="890.876953"/>
     <use xlink:href="#DejaVuSans-61" x="952.058594"/>
     <use xlink:href="#DejaVuSans-6e" x="1013.337891"/>
     <use xlink:href="#DejaVuSans-65" x="1076.716797"/>
    </g>
   </g>
   <g id="legend_2">
    <g id="patch_13">
     <path d="M 651.217384 366.718125 
L 700.653322 366.718125 
Q 702.653322 366.718125 702.653322 364.718125 
L 702.653322 351.04 
Q 702.653322 349.04 700.653322 349.04 
L 651.217384 349.04 
Q 649.217384 349.04 649.217384 351.04 
L 649.217384 364.718125 
Q 649.217384 366.718125 651.217384 366.718125 
z
" style="fill: #ffffff; opacity: 0.8; stroke: #cccccc; stroke-linejoin: miter"/>
    </g>
    <g id="line2d_34">
     <path d="M 653.217384 357.138437 
L 663.217384 357.138437 
L 673.217384 357.138437 
" style="fill: none; stroke: #ff0000; stroke-width: 1.5; stroke-linecap: square"/>
    </g>
    <g id="text_38">
     <!-- FFT -->
     <g transform="translate(681.217384 360.638437) scale(0.1 -0.1)">
      <use xlink:href="#DejaVuSans-46"/>
      <use xlink:href="#DejaVuSans-46" x="57.519531"/>
      <use xlink:href="#DejaVuSans-54" x="113.289062"/>
     </g>
    </g>
   </g>
  </g>
 </g>
 <defs>
  <clipPath id="p39f9f5269d">
   <rect x="53.03" y="25.44" width="654.623322" height="262"/>
  </clipPath>
  <clipPath id="pb1481c06e2">
   <rect x="53.03" y="344.04" width="654.623322" height="262"/>
  </clipPath>
 </defs>
</svg>
