<?xml version="1.0" encoding="utf-8" standalone="no"?>
<!DOCTYPE svg PUBLIC "-//W3C//DTD SVG 1.1//EN"
  "http://www.w3.org/Graphics/SVG/1.1/DTD/svg11.dtd">
<svg xmlns:xlink="http://www.w3.org/1999/xlink" width="720pt" height="864pt" viewBox="0 0 720 864" xmlns="http://www.w3.org/2000/svg" version="1.1">
 <metadata>
  <rdf:RDF xmlns:dc="http://purl.org/dc/elements/1.1/" xmlns:cc="http://creativecommons.org/ns#" xmlns:rdf="http://www.w3.org/1999/02/22-rdf-syntax-ns#">
   <cc:Work>
    <dc:type rdf:resource="http://purl.org/dc/dcmitype/StillImage"/>
    <dc:date>2025-12-16T16:42:35.815592</dc:date>
    <dc:format>image/svg+xml</dc:format>
    <dc:creator>
     <cc:Agent>
      <dc:title>Matplotlib v3.10.7, https://matplotlib.org/</dc:title>
     </cc:Agent>
    </dc:creator>
   </cc:Work>
  </rdf:RDF>
 </metadata>
 <defs>
  <style type="text/css">*{stroke-linejoin: round; stroke-linecap: butt}</style>
 </defs>
 <g id="figure_1">
  <g id="patch_1">
   <path d="M 0 864 
L 720 864 
L 720 0 
L 0 0 
z
" style="fill: #ffffff"/>
  </g>
  <g id="axes_1">
   <g id="patch_2">
    <path d="M 33.64 409.52 
L 709.2 409.52 
L 709.2 26.88 
L 33.64 26.88 
z
" style="fill: #ffffff"/>
   </g>
   <g id="matplotlib.axis_1">
    <g id="xtick_1">
     <g id="line2d_1">
      <defs>
       <path id="m4d69dcbafa" d="M 0 0 
L 0 3.5 
" style="stroke: #000000; stroke-width: 0.8"/>
      </defs>
      <g>
       <use xlink:href="#m4d69dcbafa" x="64.347273" y="409.52" style="stroke: #000000; stroke-width: 0.8"/>
      </g>
     </g>
     <g id="text_1">
      <!-- 0 -->
      <g transform="translate(61.166023 424.118438) scale(0.1 -0.1)">
       <defs>
        <path id="DejaVuSans-30" d="M 2034 4250 
Q 1547 4250 1301 3770 
Q 1056 3291 1056 2328 
Q 1056 1369 1301 889 
Q 1547 409 2034 409 
Q 2525 409 2770 889 
Q 3016 1369 3016 2328 
Q 3016 3291 2770 3770 
Q 2525 4250 2034 4250 
z
M 2034 4750 
Q 2819 4750 3233 4129 
Q 3647 3509 3647 2328 
Q 3647 1150 3233 529 
Q 2819 -91 2034 -91 
Q 1250 -91 836 529 
Q 422 1150 422 2328 
Q 422 3509 836 4129 
Q 1250 4750 2034 4750 
z
" transform="scale(0.015625)"/>
       </defs>
       <use xlink:href="#DejaVuSans-30"/>
      </g>
     </g>
    </g>
    <g id="xtick_2">
     <g id="line2d_2">
      <g>
       <use xlink:href="#m4d69dcbafa" x="187.176364" y="409.52" style="stroke: #000000; stroke-width: 0.8"/>
      </g>
     </g>
     <g id="text_2">
      <!-- 1 -->
      <g transform="translate(183.995114 424.118438) scale(0.1 -0.1)">
       <defs>
        <path id="DejaVuSans-31" d="M 794 531 
L 1825 531 
L 1825 4091 
L 703 3866 
L 703 4441 
L 1819 4666 
L 2450 4666 
L 2450 531 
L 3481 531 
L 3481 0 
L 794 0 
L 794 531 
z
" transform="scale(0.015625)"/>
       </defs>
       <use xlink:href="#DejaVuSans-31"/>
      </g>
     </g>
    </g>
    <g id="xtick_3">
     <g id="line2d_3">
      <g>
       <use xlink:href="#m4d69dcbafa" x="310.005455" y="409.52" style="stroke: #000000; stroke-width: 0.8"/>
      </g>
     </g>
     <g id="text_3">
      <!-- 2 -->
      <g transform="translate(306.824205 424.118438) scale(0.1 -0.1)">
       <defs>
        <path id="DejaVuSans-32" d="M 1228 531 
L 3431 531 
L 3431 0 
L 469 0 
L 469 531 
Q 828 903 1448 1529 
Q 2069 2156 2228 2338 
Q 2531 2678 2651 2914 
Q 2772 3150 2772 3378 
Q 2772 3750 2511 3984 
Q 2250 4219 1831 4219 
Q 1534 4219 1204 4116 
Q 875 4013 500 3803 
L 500 4441 
Q 881 4594 1212 4672 
Q 1544 4750 1819 4750 
Q 2544 4750 2975 4387 
Q 3406 4025 3406 3419 
Q 3406 3131 3298 2873 
Q 3191 2616 2906 2266 
Q 2828 2175 2409 1742 
Q 1991 1309 1228 531 
z
" transform="scale(0.015625)"/>
       </defs>
       <use xlink:href="#DejaVuSans-32"/>
      </g>
     </g>
    </g>
    <g id="xtick_4">
     <g id="line2d_4">
      <g>
       <use xlink:href="#m4d69dcbafa" x="432.834545" y="409.52" style="stroke: #000000; stroke-width: 0.8"/>
      </g>
     </g>
     <g id="text_4">
      <!-- 3 -->
      <g transform="translate(429.653295 424.118438) scale(0.1 -0.1)">
       <defs>
        <path id="DejaVuSans-33" d="M 2597 2516 
Q 3050 2419 3304 2112 
Q 3559 1806 3559 1356 
Q 3559 666 3084 287 
Q 2609 -91 1734 -91 
Q 1441 -91 1130 -33 
Q 819 25 488 141 
L 488 750 
Q 750 597 1062 519 
Q 1375 441 1716 441 
Q 2309 441 2620 675 
Q 2931 909 2931 1356 
Q 2931 1769 2642 2001 
Q 2353 2234 1838 2234 
L 1294 2234 
L 1294 2753 
L 1863 2753 
Q 2328 2753 2575 2939 
Q 2822 3125 2822 3475 
Q 2822 3834 2567 4026 
Q 2313 4219 1838 4219 
Q 1578 4219 1281 4162 
Q 984 4106 628 3988 
L 628 4550 
Q 988 4650 1302 4700 
Q 1616 4750 1894 4750 
Q 2613 4750 3031 4423 
Q 3450 4097 3450 3541 
Q 3450 3153 3228 2886 
Q 3006 2619 2597 2516 
z
" transform="scale(0.015625)"/>
       </defs>
       <use xlink:href="#DejaVuSans-33"/>
      </g>
     </g>
    </g>
    <g id="xtick_5">
     <g id="line2d_5">
      <g>
       <use xlink:href="#m4d69dcbafa" x="555.663636" y="409.52" style="stroke: #000000; stroke-width: 0.8"/>
      </g>
     </g>
     <g id="text_5">
      <!-- 4 -->
      <g transform="translate(552.482386 424.118438) scale(0.1 -0.1)">
       <defs>
        <path id="DejaVuSans-34" d="M 2419 4116 
L 825 1625 
L 2419 1625 
L 2419 4116 
z
M 2253 4666 
L 3047 4666 
L 3047 1625 
L 3713 1625 
L 3713 1100 
L 3047 1100 
L 3047 0 
L 2419 0 
L 2419 1100 
L 313 1100 
L 313 1709 
L 2253 4666 
z
" transform="scale(0.015625)"/>
       </defs>
       <use xlink:href="#DejaVuSans-34"/>
      </g>
     </g>
    </g>
    <g id="xtick_6">
     <g id="line2d_6">
      <g>
       <use xlink:href="#m4d69dcbafa" x="678.492727" y="409.52" style="stroke: #000000; stroke-width: 0.8"/>
      </g>
     </g>
     <g id="text_6">
      <!-- 5 -->
      <g transform="translate(675.311477 424.118438) scale(0.1 -0.1)">
       <defs>
        <path id="DejaVuSans-35" d="M 691 4666 
L 3169 4666 
L 3169 4134 
L 1269 4134 
L 1269 2991 
Q 1406 3038 1543 3061 
Q 1681 3084 1819 3084 
Q 2600 3084 3056 2656 
Q 3513 2228 3513 1497 
Q 3513 744 3044 326 
Q 2575 -91 1722 -91 
Q 1428 -91 1123 -41 
Q 819 9 494 109 
L 494 744 
Q 775 591 1075 516 
Q 1375 441 1709 441 
Q 2250 441 2565 725 
Q 2881 1009 2881 1497 
Q 2881 1984 2565 2268 
Q 2250 2553 1709 2553 
Q 1456 2553 1204 2497 
Q 953 2441 691 2322 
L 691 4666 
z
" transform="scale(0.015625)"/>
       </defs>
       <use xlink:href="#DejaVuSans-35"/>
      </g>
     </g>
    </g>
   </g>
   <g id="matplotlib.axis_2">
    <g id="ytick_1">
     <g id="line2d_7">
      <defs>
       <path id="m7c8590b13f" d="M 0 0 
L -3.5 0 
" style="stroke: #000000; stroke-width: 0.8"/>
      </defs>
      <g>
       <use xlink:href="#m7c8590b13f" x="33.64" y="354.773985" style="stroke: #000000; stroke-width: 0.8"/>
      </g>
     </g>
     <g id="text_7">
      <!-- 0 -->
      <g transform="translate(20.2775 358.573203) scale(0.1 -0.1)">
       <use xlink:href="#DejaVuSans-30"/>
      </g>
     </g>
    </g>
    <g id="ytick_2">
     <g id="line2d_8">
      <g>
       <use xlink:href="#m7c8590b13f" x="33.64" y="281.055219" style="stroke: #000000; stroke-width: 0.8"/>
      </g>
     </g>
     <g id="text_8">
      <!-- 5 -->
      <g transform="translate(20.2775 284.854438) scale(0.1 -0.1)">
       <use xlink:href="#DejaVuSans-35"/>
      </g>
     </g>
    </g>
    <g id="ytick_3">
     <g id="line2d_9">
      <g>
       <use xlink:href="#m7c8590b13f" x="33.64" y="207.336454" style="stroke: #000000; stroke-width: 0.8"/>
      </g>
     </g>
     <g id="text_9">
      <!-- 10 -->
      <g transform="translate(13.915 211.135673) scale(0.1 -0.1)">
       <use xlink:href="#DejaVuSans-31"/>
       <use xlink:href="#DejaVuSans-30" transform="translate(63.623047 0)"/>
      </g>
     </g>
    </g>
    <g id="ytick_4">
     <g id="line2d_10">
      <g>
       <use xlink:href="#m7c8590b13f" x="33.64" y="133.617689" style="stroke: #000000; stroke-width: 0.8"/>
      </g>
     </g>
     <g id="text_10">
      <!-- 15 -->
      <g transform="translate(13.915 137.416907) scale(0.1 -0.1)">
       <use xlink:href="#DejaVuSans-31"/>
       <use xlink:href="#DejaVuSans-35" transform="translate(63.623047 0)"/>
      </g>
     </g>
    </g>
    <g id="ytick_5">
     <g id="line2d_11">
      <g>
       <use xlink:href="#m7c8590b13f" x="33.64" y="59.898923" style="stroke: #000000; stroke-width: 0.8"/>
      </g>
     </g>
     <g id="text_11">
      <!-- 20 -->
      <g transform="translate(13.915 63.698142) scale(0.1 -0.1)">
       <use xlink:href="#DejaVuSans-32"/>
       <use xlink:href="#DejaVuSans-30" transform="translate(63.623047 0)"/>
      </g>
     </g>
    </g>
   </g>
   <g id="line2d_12">
    <path d="M 64.347273 338.080887 
L 64.962033 331.327419 
L 65.576793 318.030927 
L 66.191553 324.1604 
L 67.421074 320.409372 
L 68.035834 317.723933 
L 68.650594 292.340606 
L 69.265354 307.696674 
L 69.880115 308.895314 
L 70.494875 319.634994 
L 71.109635 307.220053 
L 71.724395 328.563149 
L 72.339156 330.076498 
L 72.953916 330.191233 
L 73.568676 309.713638 
L 74.183436 340.357857 
L 74.798196 337.080615 
L 75.412957 339.8715 
L 76.027717 336.675574 
L 76.642477 355.242326 
L 77.257237 338.016904 
L 77.871997 340.626601 
L 78.486758 339.926596 
L 79.101518 335.862118 
L 80.945799 319.410529 
L 81.560559 330.662486 
L 82.175319 320.337986 
L 82.790079 307.832066 
L 83.404839 311.150732 
L 84.0196 305.303302 
L 84.63436 302.068583 
L 85.24912 319.831682 
L 85.86388 311.056108 
L 86.47864 298.501875 
L 87.093401 303.676224 
L 87.708161 307.648913 
L 88.322921 304.179425 
L 88.937681 329.062311 
L 89.552442 318.461907 
L 90.167202 333.821007 
L 90.781962 329.083892 
L 91.396722 335.516109 
L 92.011482 326.502669 
L 92.626243 348.902053 
L 93.241003 352.39763 
L 93.855763 359.572021 
L 94.470523 368.702279 
L 95.085283 367.569362 
L 95.700044 351.634382 
L 96.314804 371.248151 
L 96.929564 356.847748 
L 97.544324 350.575778 
L 98.159085 361.410558 
L 98.773845 350.143925 
L 99.388605 347.303922 
L 100.003365 346.000997 
L 100.618125 347.674237 
L 101.232886 346.400174 
L 101.847646 350.300661 
L 102.462406 345.894516 
L 103.077166 329.092127 
L 103.691926 347.773561 
L 104.306687 349.813806 
L 104.921447 344.704109 
L 105.536207 340.80321 
L 106.150967 354.367671 
L 106.765728 360.092526 
L 107.380488 357.687831 
L 107.995248 369.156891 
L 108.610008 366.367303 
L 109.224768 378.644416 
L 109.839529 371.784508 
L 110.454289 363.373389 
L 111.069049 385.555893 
L 111.683809 375.732203 
L 112.298569 389.836019 
L 112.91333 392.127273 
L 113.52809 378.085421 
L 114.14285 388.113098 
L 114.75761 372.104048 
L 115.372371 375.569027 
L 115.987131 372.654525 
L 116.601891 360.03255 
L 117.216651 361.884545 
L 117.831411 356.397083 
L 118.446172 337.530056 
L 119.060932 349.252414 
L 119.675692 327.510681 
L 120.290452 339.802757 
L 120.905212 331.323497 
L 121.519973 327.621014 
L 122.134733 328.254036 
L 122.749493 335.338547 
L 123.364253 337.675567 
L 123.979014 332.591732 
L 124.593774 348.660853 
L 125.208534 354.208725 
L 125.823294 333.677881 
L 126.438054 343.469245 
L 127.052815 349.184914 
L 127.667575 349.573642 
L 128.282335 357.808751 
L 128.897095 360.645488 
L 129.511855 362.580955 
L 130.741376 343.64864 
L 131.356136 349.237065 
L 132.585657 333.485629 
L 133.200417 341.521101 
L 133.815177 332.487364 
L 134.429937 336.969868 
L 135.044697 316.932901 
L 135.659458 315.012121 
L 136.888978 320.078354 
L 137.503738 309.090523 
L 138.118498 293.198668 
L 138.733259 307.264188 
L 139.348019 302.671648 
L 139.962779 294.877488 
L 140.577539 305.527226 
L 141.80706 316.513174 
L 142.42182 322.145406 
L 143.03658 323.73623 
L 143.65134 320.997106 
L 144.266101 339.608627 
L 144.880861 331.958591 
L 145.495621 346.049931 
L 146.110381 344.706741 
L 146.725142 340.283767 
L 147.339902 346.714539 
L 147.954662 343.336734 
L 148.569422 352.590198 
L 149.184182 338.986527 
L 149.798943 340.953597 
L 150.413703 345.580442 
L 151.028463 345.34261 
L 151.643223 338.254612 
L 152.872744 329.712445 
L 153.487504 326.750791 
L 154.102264 329.607552 
L 154.717024 328.818361 
L 155.331785 328.491874 
L 155.946545 320.033216 
L 156.561305 324.376226 
L 157.176065 318.836431 
L 157.790825 326.963291 
L 158.405586 328.546982 
L 159.020346 334.462451 
L 160.249866 357.881005 
L 160.864626 349.528446 
L 161.479387 365.779271 
L 162.094147 356.9804 
L 162.708907 357.25633 
L 163.323667 363.229451 
L 163.938428 368.008214 
L 164.553188 376.564205 
L 165.782708 389.699742 
L 166.397468 379.083127 
L 167.012229 375.98582 
L 167.626989 376.413302 
L 168.241749 378.798086 
L 168.856509 367.746494 
L 169.471269 360.498316 
L 170.08603 356.851145 
L 170.70079 355.683797 
L 171.31555 356.691195 
L 171.93031 353.203658 
L 172.545071 353.405514 
L 173.159831 358.739769 
L 173.774591 342.864901 
L 174.389351 356.666686 
L 175.004111 359.249752 
L 175.618872 335.387032 
L 176.233632 337.524956 
L 176.848392 356.46724 
L 177.463152 358.295121 
L 178.077912 350.901548 
L 178.692673 350.522209 
L 179.307433 359.115443 
L 179.922193 362.809565 
L 180.536953 372.488121 
L 181.151714 373.219235 
L 181.766474 371.689632 
L 182.381234 384.413537 
L 184.225515 351.446851 
L 184.840275 366.065682 
L 185.455035 344.703396 
L 186.069795 355.948303 
L 186.684555 343.178737 
L 187.299316 337.310802 
L 187.914076 334.792591 
L 188.528836 320.465449 
L 189.143596 339.934403 
L 189.758357 324.027156 
L 190.373117 326.191871 
L 190.987877 308.898814 
L 191.602637 309.873918 
L 192.217397 304.430182 
L 192.832158 313.444415 
L 194.061678 307.960489 
L 194.676438 324.343211 
L 195.291198 309.670753 
L 196.520719 330.418614 
L 197.135479 321.194567 
L 197.750239 332.338173 
L 198.365 323.621952 
L 198.97976 333.650807 
L 199.59452 326.022535 
L 200.20928 335.336179 
L 200.82404 334.477809 
L 201.438801 347.768411 
L 202.053561 334.607408 
L 202.668321 328.73824 
L 203.283081 333.022109 
L 203.897841 322.283132 
L 204.512602 304.749938 
L 205.127362 306.95975 
L 205.742122 318.580076 
L 206.356882 299.639971 
L 206.971643 303.418907 
L 207.586403 299.439111 
L 208.201163 298.910084 
L 208.815923 306.102491 
L 209.430683 298.742026 
L 210.045444 298.251181 
L 211.274964 307.640547 
L 211.889724 323.03894 
L 212.504484 325.941145 
L 213.119245 327.210441 
L 213.734005 324.280163 
L 214.348765 322.880312 
L 214.963525 332.504993 
L 215.578286 356.774532 
L 216.193046 353.116086 
L 216.807806 346.495101 
L 217.422566 358.917303 
L 218.037326 358.03366 
L 218.652087 356.36955 
L 219.266847 369.148891 
L 219.881607 345.299964 
L 220.496367 363.86853 
L 221.111127 346.342543 
L 221.725888 353.851463 
L 222.340648 351.242736 
L 222.955408 344.184147 
L 223.570168 332.416719 
L 224.184929 328.8391 
L 224.799689 339.745832 
L 225.414449 313.796254 
L 226.029209 339.046693 
L 226.643969 331.547503 
L 227.25873 337.678137 
L 228.48825 342.695533 
L 229.10301 323.454787 
L 229.71777 357.089823 
L 230.332531 345.598753 
L 230.947291 355.434272 
L 231.562051 356.107592 
L 232.176811 364.914486 
L 232.791572 350.016365 
L 233.406332 372.005928 
L 234.021092 370.847828 
L 234.635852 375.522024 
L 235.250612 366.276214 
L 235.865373 368.985635 
L 236.480133 388.077687 
L 237.094893 361.637301 
L 237.709653 356.546543 
L 238.324414 357.761362 
L 238.939174 353.51082 
L 239.553934 357.158304 
L 240.168694 349.754478 
L 240.783454 344.38656 
L 241.398215 333.650654 
L 242.012975 337.256398 
L 242.627735 328.487152 
L 243.242495 308.967124 
L 243.857255 307.940933 
L 244.472016 326.431618 
L 245.086776 318.921109 
L 245.701536 319.608919 
L 246.316296 321.619059 
L 246.931057 321.875409 
L 247.545817 310.116663 
L 248.160577 325.555855 
L 248.775337 335.8968 
L 249.390097 324.116578 
L 250.004858 330.264701 
L 250.619618 327.798135 
L 251.234378 331.652074 
L 251.849138 329.183891 
L 252.463898 347.039258 
L 253.078659 333.254057 
L 253.693419 342.748022 
L 254.308179 336.080298 
L 254.922939 321.525768 
L 255.5377 320.568761 
L 256.15246 312.215197 
L 256.76722 310.273599 
L 257.38198 309.786569 
L 257.99674 302.532343 
L 258.611501 302.522508 
L 259.841021 297.06617 
L 260.455781 284.727116 
L 261.070541 293.026334 
L 261.685302 285.375274 
L 262.300062 279.366559 
L 262.914822 288.954655 
L 263.529582 281.520261 
L 264.144343 281.319145 
L 264.759103 292.599149 
L 265.373863 298.790689 
L 265.988623 296.631566 
L 266.603383 300.000666 
L 267.218144 305.697613 
L 267.832904 317.93143 
L 268.447664 306.295387 
L 269.062424 314.014538 
L 269.677184 331.675959 
L 270.291945 321.005063 
L 270.906705 323.330522 
L 271.521465 324.803053 
L 272.136225 322.956276 
L 272.750986 310.630981 
L 273.365746 325.251363 
L 273.980506 308.461808 
L 274.595266 330.148576 
L 275.824787 302.60965 
L 276.439547 305.470904 
L 277.054307 314.047926 
L 277.669067 306.758453 
L 278.283827 293.54141 
L 278.898588 288.324257 
L 279.513348 309.344362 
L 280.128108 307.101695 
L 280.742868 302.005198 
L 281.357629 314.653421 
L 281.972389 316.146011 
L 282.587149 305.133319 
L 283.201909 320.849878 
L 283.816669 330.864382 
L 284.43143 324.812824 
L 285.04619 339.151227 
L 286.27571 340.744683 
L 286.89047 337.02071 
L 287.505231 353.899209 
L 288.119991 364.346372 
L 288.734751 342.486565 
L 289.349511 344.207262 
L 289.964272 352.523678 
L 290.579032 354.81861 
L 291.193792 345.611245 
L 291.808552 343.461037 
L 292.423312 342.659832 
L 293.038073 337.963372 
L 293.652833 337.282286 
L 294.267593 325.603102 
L 294.882353 324.736237 
L 295.497113 313.143745 
L 296.111874 314.941577 
L 296.726634 310.885413 
L 297.341394 311.69011 
L 297.956154 310.12726 
L 298.570915 317.224622 
L 299.185675 320.230801 
L 299.800435 325.582548 
L 300.415195 323.899039 
L 301.029955 320.336773 
L 301.644716 340.391854 
L 302.259476 332.09781 
L 302.874236 339.418327 
L 303.488996 343.547275 
L 304.103756 348.548261 
L 304.718517 349.804135 
L 305.333277 344.966655 
L 305.948037 344.128123 
L 306.562797 329.079176 
L 307.177558 335.476499 
L 307.792318 325.813945 
L 309.021838 313.352748 
L 309.636598 319.916236 
L 310.251359 308.800405 
L 310.866119 303.75969 
L 311.480879 300.563326 
L 312.095639 289.479678 
L 312.710399 285.304088 
L 313.32516 290.81241 
L 313.93992 275.261895 
L 314.55468 275.893861 
L 315.16944 271.866111 
L 315.784201 273.060294 
L 316.398961 281.802629 
L 317.013721 275.402071 
L 317.628481 277.05366 
L 318.243241 278.365958 
L 318.858002 296.718102 
L 319.472762 288.13089 
L 320.087522 291.476001 
L 320.702282 312.402804 
L 321.317042 297.030743 
L 321.931803 296.366706 
L 322.546563 305.781157 
L 323.161323 299.877888 
L 323.776083 315.72398 
L 324.390844 300.766819 
L 325.005604 305.310442 
L 325.620364 286.823681 
L 326.235124 287.487073 
L 326.849884 299.221619 
L 327.464645 287.329632 
L 328.079405 265.794667 
L 328.694165 274.615202 
L 329.308925 278.993935 
L 329.923686 263.179046 
L 330.538446 265.150021 
L 331.153206 263.968781 
L 331.767966 257.652955 
L 332.382726 272.85362 
L 332.997487 270.622988 
L 333.612247 266.924253 
L 334.227007 271.585669 
L 334.841767 282.708962 
L 335.456527 283.157929 
L 336.071288 285.107294 
L 336.686048 290.945545 
L 337.300808 300.262453 
L 337.915568 302.264548 
L 338.530329 315.209744 
L 339.145089 315.562421 
L 339.759849 317.543518 
L 340.374609 313.070463 
L 340.989369 322.690912 
L 341.60413 321.02987 
L 342.21889 316.706684 
L 342.83365 302.619325 
L 343.44841 310.632983 
L 344.06317 300.396773 
L 344.677931 298.144196 
L 345.292691 305.996257 
L 346.522211 282.023397 
L 347.136972 294.28027 
L 347.751732 297.445861 
L 348.366492 285.638151 
L 348.981252 296.464586 
L 349.596012 290.882016 
L 350.210773 301.703801 
L 350.825533 294.928389 
L 351.440293 292.853308 
L 352.669813 309.654057 
L 353.284574 313.354114 
L 353.899334 315.537211 
L 354.514094 316.26952 
L 355.128854 322.282746 
L 355.743615 333.437108 
L 356.973135 313.236922 
L 357.587895 331.565359 
L 358.202655 328.924596 
L 358.817416 331.68196 
L 359.432176 327.786681 
L 360.046936 327.076591 
L 360.661696 333.401455 
L 361.276456 325.560779 
L 361.891217 305.742468 
L 362.505977 298.058149 
L 363.120737 296.170882 
L 363.735497 298.355374 
L 364.350258 300.981122 
L 364.965018 290.117063 
L 365.579778 285.826733 
L 366.194538 269.5764 
L 366.809298 280.480683 
L 367.424059 288.915539 
L 368.038819 269.387751 
L 368.653579 276.009104 
L 369.268339 263.013526 
L 369.883099 283.889911 
L 370.49786 278.162711 
L 371.11262 290.233016 
L 371.72738 277.564138 
L 372.34214 290.293096 
L 372.956901 294.522981 
L 373.571661 292.385592 
L 374.186421 293.169986 
L 374.801181 291.512607 
L 375.415941 293.781571 
L 376.030702 286.437674 
L 376.645462 280.448504 
L 377.260222 293.674846 
L 377.874982 277.179578 
L 378.489742 285.527491 
L 379.104503 270.07757 
L 379.719263 278.874403 
L 380.334023 256.72518 
L 380.948783 254.33531 
L 381.563544 264.011571 
L 382.178304 250.691839 
L 382.793064 251.84499 
L 383.407824 237.98951 
L 384.022584 234.544375 
L 384.637345 233.021593 
L 385.252105 241.169508 
L 385.866865 228.49395 
L 386.481625 234.399374 
L 387.096385 239.215343 
L 387.711146 272.409999 
L 388.325906 259.349066 
L 388.940666 265.354117 
L 389.555426 260.47346 
L 390.170187 274.047936 
L 390.784947 261.57717 
L 391.399707 266.391121 
L 392.014467 267.379001 
L 392.629227 282.773655 
L 393.243988 282.331414 
L 393.858748 268.134497 
L 394.473508 278.047574 
L 395.088268 267.132263 
L 395.703028 262.355684 
L 396.317789 256.454662 
L 396.932549 271.203074 
L 397.547309 252.69995 
L 398.77683 250.632015 
L 399.39159 253.260756 
L 400.00635 260.344319 
L 400.62111 245.331314 
L 401.23587 258.747407 
L 401.850631 240.76765 
L 402.465391 252.372321 
L 403.080151 244.417425 
L 403.694911 257.840773 
L 404.309671 252.541086 
L 404.924432 258.086166 
L 405.539192 283.030087 
L 406.153952 266.72736 
L 406.768712 277.943847 
L 407.383473 278.365778 
L 407.998233 285.319873 
L 408.612993 290.515092 
L 409.227753 304.940188 
L 409.842513 294.216584 
L 410.457274 293.89116 
L 411.072034 297.14077 
L 411.686794 291.576676 
L 412.301554 295.905242 
L 412.916314 290.274309 
L 413.531075 312.252981 
L 414.145835 288.773108 
L 414.760595 289.970193 
L 415.375355 279.862085 
L 415.990116 272.704139 
L 416.604876 272.734737 
L 417.219636 269.781224 
L 417.834396 257.446551 
L 418.449156 257.949854 
L 419.063917 267.091102 
L 419.678677 271.785768 
L 420.293437 260.645053 
L 420.908197 258.183632 
L 421.522958 252.71043 
L 422.137718 262.933449 
L 422.752478 269.454449 
L 423.367238 284.475094 
L 423.981998 275.816604 
L 424.596759 280.780959 
L 425.211519 281.29035 
L 425.826279 267.513262 
L 426.441039 282.556992 
L 427.67056 270.783354 
L 428.28532 289.328071 
L 428.90008 281.623889 
L 429.51484 278.682667 
L 430.129601 282.127947 
L 430.744361 265.046022 
L 431.359121 279.062503 
L 431.973881 259.932198 
L 432.588641 255.252885 
L 433.203402 245.053217 
L 433.818162 244.001621 
L 434.432922 235.737244 
L 435.047682 224.429258 
L 435.662442 232.894065 
L 436.277203 230.44479 
L 436.891963 233.425908 
L 437.506723 228.077189 
L 438.121483 218.9735 
L 438.736244 223.260437 
L 439.351004 232.192337 
L 439.965764 214.581851 
L 440.580524 224.610544 
L 441.810045 239.410397 
L 442.424805 224.580316 
L 443.039565 227.95053 
L 443.654325 251.4133 
L 445.498606 240.277514 
L 446.113366 240.571084 
L 446.728126 236.380087 
L 447.342887 237.876573 
L 447.957647 232.198847 
L 448.572407 231.576786 
L 449.187167 223.809465 
L 449.801927 235.811059 
L 451.031448 214.678346 
L 451.646208 209.978027 
L 452.260968 199.737924 
L 452.875728 196.924648 
L 453.490489 189.431679 
L 454.105249 195.826676 
L 454.720009 205.295042 
L 455.334769 199.675331 
L 455.94953 210.171129 
L 456.56429 193.910367 
L 457.17905 201.886609 
L 457.79381 213.741988 
L 458.40857 231.959674 
L 459.023331 232.257099 
L 459.638091 233.826541 
L 460.252851 238.371148 
L 460.867611 241.864887 
L 461.482371 233.520213 
L 462.097132 252.207911 
L 462.711892 252.753008 
L 463.326652 248.031333 
L 464.556173 253.150781 
L 465.170933 265.026113 
L 465.785693 248.974468 
L 466.400453 253.903949 
L 467.015213 241.716063 
L 467.629974 245.582713 
L 468.244734 241.979844 
L 469.474254 220.569099 
L 470.089014 242.24211 
L 470.703775 234.081808 
L 471.318535 214.218221 
L 471.933295 220.983203 
L 472.548055 231.397044 
L 473.162816 220.269235 
L 473.777576 222.605027 
L 474.392336 224.113258 
L 475.007096 225.011896 
L 475.621856 232.988965 
L 476.236617 250.490147 
L 476.851377 241.115009 
L 477.466137 241.094672 
L 478.080897 253.719951 
L 478.695657 255.259821 
L 479.310418 250.201684 
L 479.925178 268.183443 
L 480.539938 257.027809 
L 481.154698 271.247476 
L 481.769459 258.985737 
L 482.384219 253.732167 
L 482.998979 252.66227 
L 483.613739 245.397068 
L 484.228499 245.460374 
L 484.84326 252.533751 
L 485.45802 237.851948 
L 486.07278 231.802357 
L 486.68754 235.113666 
L 487.3023 212.554233 
L 487.917061 222.987482 
L 488.531821 207.773477 
L 489.146581 211.332735 
L 489.761341 191.761838 
L 490.376102 198.593624 
L 490.990862 206.682423 
L 491.605622 209.742012 
L 492.220382 210.919637 
L 492.835142 203.396711 
L 493.449903 207.021134 
L 494.064663 206.504834 
L 494.679423 225.064498 
L 495.294183 219.936758 
L 495.908943 228.914807 
L 496.523704 226.104193 
L 497.138464 220.372542 
L 497.753224 213.520087 
L 498.367984 218.337917 
L 498.982745 220.184586 
L 499.597505 221.389064 
L 500.827025 198.326359 
L 501.441785 203.797063 
L 502.056546 204.72623 
L 502.671306 182.154951 
L 503.286066 181.499042 
L 503.900826 181.131865 
L 504.515586 163.507721 
L 505.130347 173.218933 
L 505.745107 166.622238 
L 506.359867 171.013231 
L 506.974627 169.189677 
L 507.589388 165.808092 
L 508.204148 165.320521 
L 508.818908 168.862748 
L 509.433668 154.345769 
L 510.048428 172.866653 
L 510.663189 161.547762 
L 511.277949 183.301878 
L 511.892709 178.323987 
L 512.507469 177.070551 
L 513.12223 164.117907 
L 513.73699 186.500118 
L 514.96651 198.623114 
L 515.58127 192.317107 
L 516.196031 194.985045 
L 516.810791 190.419515 
L 517.425551 187.430071 
L 518.040311 188.330588 
L 518.655071 188.567988 
L 519.269832 185.875489 
L 519.884592 189.77292 
L 520.499352 196.048884 
L 521.114112 184.894569 
L 521.728873 168.373028 
L 522.343633 173.88185 
L 523.573153 158.705903 
L 524.187913 164.800708 
L 524.802674 167.678602 
L 525.417434 179.315096 
L 526.032194 167.794809 
L 526.646954 179.221994 
L 527.261714 166.090505 
L 527.876475 179.529228 
L 528.491235 179.865613 
L 529.105995 199.145468 
L 529.720755 195.342146 
L 530.335516 218.250441 
L 531.565036 203.347708 
L 532.179796 210.119758 
L 532.794556 226.356082 
L 533.409317 211.852073 
L 534.024077 225.420124 
L 534.638837 218.617568 
L 535.253597 221.98588 
L 535.868357 217.483105 
L 536.483118 212.058079 
L 537.097878 194.631787 
L 537.712638 205.989304 
L 538.327398 198.149441 
L 538.942159 187.95878 
L 539.556919 198.861851 
L 540.171679 183.698994 
L 540.786439 174.885701 
L 541.401199 184.079634 
L 542.01596 181.109111 
L 542.63072 189.264404 
L 543.24548 168.635436 
L 543.86024 188.19304 
L 544.475 180.169648 
L 545.089761 179.071537 
L 545.704521 173.463199 
L 546.319281 176.634856 
L 546.934041 188.880132 
L 547.548802 198.889725 
L 548.163562 192.367213 
L 548.778322 189.682758 
L 549.393082 181.332812 
L 550.007842 197.591111 
L 551.237363 211.948062 
L 551.852123 204.779173 
L 552.466883 190.998089 
L 553.081643 191.93617 
L 553.696404 181.065267 
L 554.311164 173.571568 
L 554.925924 172.038496 
L 555.540684 165.505134 
L 556.155445 162.275434 
L 556.770205 149.430719 
L 557.384965 152.438411 
L 557.999725 148.372798 
L 558.614485 142.397564 
L 559.229246 139.53764 
L 559.844006 124.159281 
L 560.458766 119.300932 
L 561.073526 137.268013 
L 561.688286 134.833054 
L 562.917807 132.063185 
L 563.532567 125.574993 
L 564.147327 137.043903 
L 564.762088 134.405324 
L 565.376848 134.621548 
L 565.991608 152.02916 
L 566.606368 163.734967 
L 567.221128 159.802184 
L 567.835889 158.885395 
L 568.450649 155.455141 
L 569.065409 156.696365 
L 569.680169 151.497576 
L 570.90969 136.966389 
L 571.52445 138.335361 
L 572.13921 112.563713 
L 572.75397 124.744086 
L 573.368731 126.495366 
L 573.983491 130.020627 
L 574.598251 115.146213 
L 575.213011 97.155407 
L 575.827771 98.899664 
L 576.442532 106.537236 
L 577.057292 108.353453 
L 577.672052 103.015126 
L 578.286812 109.357954 
L 578.901572 105.223672 
L 579.516333 123.484018 
L 580.131093 118.199424 
L 580.745853 134.159817 
L 581.360613 132.585129 
L 581.975374 137.837508 
L 582.590134 134.403942 
L 583.204894 162.99272 
L 583.819654 143.512891 
L 584.434414 141.160646 
L 585.049175 160.533198 
L 585.663935 143.067055 
L 586.278695 148.503398 
L 586.893455 160.755308 
L 587.508215 150.813329 
L 588.122976 153.574111 
L 588.737736 149.728018 
L 589.352496 147.194866 
L 589.967256 149.896309 
L 590.582017 133.472845 
L 591.196777 150.758942 
L 591.811537 138.839025 
L 592.426297 121.854585 
L 593.041057 134.706004 
L 593.655818 123.3368 
L 594.270578 127.667846 
L 594.885338 117.095934 
L 595.500098 130.737863 
L 596.114858 132.927955 
L 596.729619 128.648931 
L 597.344379 132.311935 
L 597.959139 141.95473 
L 598.573899 131.612858 
L 599.18866 151.223819 
L 599.80342 155.168127 
L 600.41818 152.301559 
L 601.03294 133.553395 
L 602.262461 170.79214 
L 602.877221 153.455872 
L 603.491981 146.851427 
L 604.106741 166.406 
L 604.721502 147.919019 
L 605.336262 152.642389 
L 605.951022 159.959714 
L 606.565782 147.109958 
L 607.180542 154.473976 
L 607.795303 137.863572 
L 608.410063 146.557287 
L 609.024823 131.317337 
L 609.639583 122.330231 
L 610.254343 116.86048 
L 610.869104 109.112609 
L 611.483864 119.120096 
L 612.098624 109.202555 
L 613.942905 92.448228 
L 614.557665 92.648868 
L 615.172425 115.041559 
L 615.787185 105.191764 
L 616.401946 112.086604 
L 617.016706 112.593644 
L 617.631466 118.061921 
L 618.246226 107.630486 
L 618.860986 112.516474 
L 619.475747 108.801801 
L 620.090507 120.08875 
L 620.705267 114.998287 
L 621.320027 115.318343 
L 621.934788 122.058423 
L 622.549548 112.90783 
L 623.164308 117.217205 
L 623.779068 116.372485 
L 624.393828 102.183265 
L 625.008589 91.230354 
L 625.623349 93.290692 
L 626.238109 73.416461 
L 626.852869 68.06515 
L 627.467629 75.322021 
L 628.08239 57.095418 
L 628.69715 53.530018 
L 629.31191 60.507235 
L 629.92667 65.155346 
L 630.541431 51.281176 
L 631.156191 62.176911 
L 631.770951 68.067054 
L 632.385711 48.664658 
L 633.000471 55.947349 
L 633.615232 71.006093 
L 634.229992 61.078143 
L 635.459512 78.255552 
L 636.074272 64.367925 
L 636.689033 98.728143 
L 637.303793 97.948805 
L 638.533313 78.185713 
L 639.148074 98.289107 
L 640.377594 88.509892 
L 640.992354 92.243569 
L 641.607114 70.811483 
L 642.221875 78.550787 
L 642.836635 76.835924 
L 643.451395 68.165403 
L 644.066155 84.313173 
L 644.680915 66.230037 
L 645.295676 63.629379 
L 645.910436 62.032309 
L 646.525196 44.272727 
L 647.139956 67.625021 
L 648.369477 49.841758 
L 648.984237 67.222935 
L 649.598997 64.69049 
L 650.213757 63.400889 
L 650.828518 64.931662 
L 651.443278 93.697225 
L 652.058038 64.396135 
L 652.672798 90.550164 
L 653.902319 95.424095 
L 654.517079 107.036521 
L 655.131839 93.224358 
L 655.746599 95.684368 
L 656.36136 107.208653 
L 656.97612 113.470731 
L 657.59088 106.918149 
L 658.20564 102.566727 
L 658.8204 92.393163 
L 659.435161 101.557932 
L 660.049921 102.785316 
L 660.664681 86.030359 
L 661.279441 91.550816 
L 661.894201 77.50504 
L 662.508962 79.750878 
L 663.123722 73.788009 
L 663.738482 55.477618 
L 664.353242 65.654669 
L 664.968003 73.594627 
L 665.582763 49.051667 
L 666.197523 50.36919 
L 666.812283 62.029037 
L 667.427043 63.486617 
L 668.041804 65.500577 
L 668.656564 68.647453 
L 669.271324 66.795647 
L 669.886084 79.337251 
L 670.500844 87.893653 
L 671.115605 80.055851 
L 671.730365 75.642428 
L 672.345125 78.805715 
L 672.959885 98.822076 
L 673.574646 74.553962 
L 674.189406 66.380331 
L 674.804166 74.362247 
L 675.418926 77.633393 
L 676.033686 70.843948 
L 676.648447 71.107894 
L 677.263207 61.025988 
L 677.877967 44.380015 
L 678.492727 46.088787 
L 678.492727 46.088787 
" clip-path="url(#p736733b60e)" style="fill: none; stroke: #1f77b4; stroke-width: 1.5; stroke-linecap: square"/>
   </g>
   <g id="patch_3">
    <path d="M 33.64 409.52 
L 33.64 26.88 
" style="fill: none; stroke: #000000; stroke-width: 0.8; stroke-linejoin: miter; stroke-linecap: square"/>
   </g>
   <g id="patch_4">
    <path d="M 709.2 409.52 
L 709.2 26.88 
" style="fill: none; stroke: #000000; stroke-width: 0.8; stroke-linejoin: miter; stroke-linecap: square"/>
   </g>
   <g id="patch_5">
    <path d="M 33.64 409.52 
L 709.2 409.52 
" style="fill: none; stroke: #000000; stroke-width: 0.8; stroke-linejoin: miter; stroke-linecap: square"/>
   </g>
   <g id="patch_6">
    <path d="M 33.64 26.88 
L 709.2 26.88 
" style="fill: none; stroke: #000000; stroke-width: 0.8; stroke-linejoin: miter; stroke-linecap: square"/>
   </g>
   <g id="text_12">
    <!-- Seria de timp -->
    <g transform="translate(331.121563 20.88) scale(0.12 -0.12)">
     <defs>
      <path id="DejaVuSans-53" d="M 3425 4513 
L 3425 3897 
Q 3066 4069 2747 4153 
Q 2428 4238 2131 4238 
Q 1616 4238 1336 4038 
Q 1056 3838 1056 3469 
Q 1056 3159 1242 3001 
Q 1428 2844 1947 2747 
L 2328 2669 
Q 3034 2534 3370 2195 
Q 3706 1856 3706 1288 
Q 3706 609 3251 259 
Q 2797 -91 1919 -91 
Q 1588 -91 1214 -16 
Q 841 59 441 206 
L 441 856 
Q 825 641 1194 531 
Q 1563 422 1919 422 
Q 2459 422 2753 634 
Q 3047 847 3047 1241 
Q 3047 1584 2836 1778 
Q 2625 1972 2144 2069 
L 1759 2144 
Q 1053 2284 737 2584 
Q 422 2884 422 3419 
Q 422 4038 858 4394 
Q 1294 4750 2059 4750 
Q 2388 4750 2728 4690 
Q 3069 4631 3425 4513 
z
" transform="scale(0.015625)"/>
      <path id="DejaVuSans-65" d="M 3597 1894 
L 3597 1613 
L 953 1613 
Q 991 1019 1311 708 
Q 1631 397 2203 397 
Q 2534 397 2845 478 
Q 3156 559 3463 722 
L 3463 178 
Q 3153 47 2828 -22 
Q 2503 -91 2169 -91 
Q 1331 -91 842 396 
Q 353 884 353 1716 
Q 353 2575 817 3079 
Q 1281 3584 2069 3584 
Q 2775 3584 3186 3129 
Q 3597 2675 3597 1894 
z
M 3022 2063 
Q 3016 2534 2758 2815 
Q 2500 3097 2075 3097 
Q 1594 3097 1305 2825 
Q 1016 2553 972 2059 
L 3022 2063 
z
" transform="scale(0.015625)"/>
      <path id="DejaVuSans-72" d="M 2631 2963 
Q 2534 3019 2420 3045 
Q 2306 3072 2169 3072 
Q 1681 3072 1420 2755 
Q 1159 2438 1159 1844 
L 1159 0 
L 581 0 
L 581 3500 
L 1159 3500 
L 1159 2956 
Q 1341 3275 1631 3429 
Q 1922 3584 2338 3584 
Q 2397 3584 2469 3576 
Q 2541 3569 2628 3553 
L 2631 2963 
z
" transform="scale(0.015625)"/>
      <path id="DejaVuSans-69" d="M 603 3500 
L 1178 3500 
L 1178 0 
L 603 0 
L 603 3500 
z
M 603 4863 
L 1178 4863 
L 1178 4134 
L 603 4134 
L 603 4863 
z
" transform="scale(0.015625)"/>
      <path id="DejaVuSans-61" d="M 2194 1759 
Q 1497 1759 1228 1600 
Q 959 1441 959 1056 
Q 959 750 1161 570 
Q 1363 391 1709 391 
Q 2188 391 2477 730 
Q 2766 1069 2766 1631 
L 2766 1759 
L 2194 1759 
z
M 3341 1997 
L 3341 0 
L 2766 0 
L 2766 531 
Q 2569 213 2275 61 
Q 1981 -91 1556 -91 
Q 1019 -91 701 211 
Q 384 513 384 1019 
Q 384 1609 779 1909 
Q 1175 2209 1959 2209 
L 2766 2209 
L 2766 2266 
Q 2766 2663 2505 2880 
Q 2244 3097 1772 3097 
Q 1472 3097 1187 3025 
Q 903 2953 641 2809 
L 641 3341 
Q 956 3463 1253 3523 
Q 1550 3584 1831 3584 
Q 2591 3584 2966 3190 
Q 3341 2797 3341 1997 
z
" transform="scale(0.015625)"/>
      <path id="DejaVuSans-20" transform="scale(0.015625)"/>
      <path id="DejaVuSans-64" d="M 2906 2969 
L 2906 4863 
L 3481 4863 
L 3481 0 
L 2906 0 
L 2906 525 
Q 2725 213 2448 61 
Q 2172 -91 1784 -91 
Q 1150 -91 751 415 
Q 353 922 353 1747 
Q 353 2572 751 3078 
Q 1150 3584 1784 3584 
Q 2172 3584 2448 3432 
Q 2725 3281 2906 2969 
z
M 947 1747 
Q 947 1113 1208 752 
Q 1469 391 1925 391 
Q 2381 391 2643 752 
Q 2906 1113 2906 1747 
Q 2906 2381 2643 2742 
Q 2381 3103 1925 3103 
Q 1469 3103 1208 2742 
Q 947 2381 947 1747 
z
" transform="scale(0.015625)"/>
      <path id="DejaVuSans-74" d="M 1172 4494 
L 1172 3500 
L 2356 3500 
L 2356 3053 
L 1172 3053 
L 1172 1153 
Q 1172 725 1289 603 
Q 1406 481 1766 481 
L 2356 481 
L 2356 0 
L 1766 0 
Q 1100 0 847 248 
Q 594 497 594 1153 
L 594 3053 
L 172 3053 
L 172 3500 
L 594 3500 
L 594 4494 
L 1172 4494 
z
" transform="scale(0.015625)"/>
      <path id="DejaVuSans-6d" d="M 3328 2828 
Q 3544 3216 3844 3400 
Q 4144 3584 4550 3584 
Q 5097 3584 5394 3201 
Q 5691 2819 5691 2113 
L 5691 0 
L 5113 0 
L 5113 2094 
Q 5113 2597 4934 2840 
Q 4756 3084 4391 3084 
Q 3944 3084 3684 2787 
Q 3425 2491 3425 1978 
L 3425 0 
L 2847 0 
L 2847 2094 
Q 2847 2600 2669 2842 
Q 2491 3084 2119 3084 
Q 1678 3084 1418 2786 
Q 1159 2488 1159 1978 
L 1159 0 
L 581 0 
L 581 3500 
L 1159 3500 
L 1159 2956 
Q 1356 3278 1631 3431 
Q 1906 3584 2284 3584 
Q 2666 3584 2933 3390 
Q 3200 3197 3328 2828 
z
" transform="scale(0.015625)"/>
      <path id="DejaVuSans-70" d="M 1159 525 
L 1159 -1331 
L 581 -1331 
L 581 3500 
L 1159 3500 
L 1159 2969 
Q 1341 3281 1617 3432 
Q 1894 3584 2278 3584 
Q 2916 3584 3314 3078 
Q 3713 2572 3713 1747 
Q 3713 922 3314 415 
Q 2916 -91 2278 -91 
Q 1894 -91 1617 61 
Q 1341 213 1159 525 
z
M 3116 1747 
Q 3116 2381 2855 2742 
Q 2594 3103 2138 3103 
Q 1681 3103 1420 2742 
Q 1159 2381 1159 1747 
Q 1159 1113 1420 752 
Q 1681 391 2138 391 
Q 2594 391 2855 752 
Q 3116 1113 3116 1747 
z
" transform="scale(0.015625)"/>
     </defs>
     <use xlink:href="#DejaVuSans-53"/>
     <use xlink:href="#DejaVuSans-65" transform="translate(63.476562 0)"/>
     <use xlink:href="#DejaVuSans-72" transform="translate(125 0)"/>
     <use xlink:href="#DejaVuSans-69" transform="translate(166.113281 0)"/>
     <use xlink:href="#DejaVuSans-61" transform="translate(193.896484 0)"/>
     <use xlink:href="#DejaVuSans-20" transform="translate(255.175781 0)"/>
     <use xlink:href="#DejaVuSans-64" transform="translate(286.962891 0)"/>
     <use xlink:href="#DejaVuSans-65" transform="translate(350.439453 0)"/>
     <use xlink:href="#DejaVuSans-20" transform="translate(411.962891 0)"/>
     <use xlink:href="#DejaVuSans-74" transform="translate(443.75 0)"/>
     <use xlink:href="#DejaVuSans-69" transform="translate(482.958984 0)"/>
     <use xlink:href="#DejaVuSans-6d" transform="translate(510.742188 0)"/>
     <use xlink:href="#DejaVuSans-70" transform="translate(608.154297 0)"/>
    </g>
   </g>
  </g>
  <g id="axes_2">
   <g id="patch_7">
    <path d="M 33.64 836.12 
L 709.2 836.12 
L 709.2 453.48 
L 33.64 453.48 
z
" style="fill: #ffffff"/>
   </g>
   <g id="matplotlib.axis_3">
    <g id="xtick_7">
     <g id="line2d_13">
      <g>
       <use xlink:href="#m4d69dcbafa" x="64.347273" y="836.12" style="stroke: #000000; stroke-width: 0.8"/>
      </g>
     </g>
     <g id="text_13">
      <!-- 0 -->
      <g transform="translate(61.166023 850.718437) scale(0.1 -0.1)">
       <use xlink:href="#DejaVuSans-30"/>
      </g>
     </g>
    </g>
    <g id="xtick_8">
     <g id="line2d_14">
      <g>
       <use xlink:href="#m4d69dcbafa" x="187.176364" y="836.12" style="stroke: #000000; stroke-width: 0.8"/>
      </g>
     </g>
     <g id="text_14">
      <!-- 1 -->
      <g transform="translate(183.995114 850.718437) scale(0.1 -0.1)">
       <use xlink:href="#DejaVuSans-31"/>
      </g>
     </g>
    </g>
    <g id="xtick_9">
     <g id="line2d_15">
      <g>
       <use xlink:href="#m4d69dcbafa" x="310.005455" y="836.12" style="stroke: #000000; stroke-width: 0.8"/>
      </g>
     </g>
     <g id="text_15">
      <!-- 2 -->
      <g transform="translate(306.824205 850.718437) scale(0.1 -0.1)">
       <use xlink:href="#DejaVuSans-32"/>
      </g>
     </g>
    </g>
    <g id="xtick_10">
     <g id="line2d_16">
      <g>
       <use xlink:href="#m4d69dcbafa" x="432.834545" y="836.12" style="stroke: #000000; stroke-width: 0.8"/>
      </g>
     </g>
     <g id="text_16">
      <!-- 3 -->
      <g transform="translate(429.653295 850.718437) scale(0.1 -0.1)">
       <use xlink:href="#DejaVuSans-33"/>
      </g>
     </g>
    </g>
    <g id="xtick_11">
     <g id="line2d_17">
      <g>
       <use xlink:href="#m4d69dcbafa" x="555.663636" y="836.12" style="stroke: #000000; stroke-width: 0.8"/>
      </g>
     </g>
     <g id="text_17">
      <!-- 4 -->
      <g transform="translate(552.482386 850.718437) scale(0.1 -0.1)">
       <use xlink:href="#DejaVuSans-34"/>
      </g>
     </g>
    </g>
    <g id="xtick_12">
     <g id="line2d_18">
      <g>
       <use xlink:href="#m4d69dcbafa" x="678.492727" y="836.12" style="stroke: #000000; stroke-width: 0.8"/>
      </g>
     </g>
     <g id="text_18">
      <!-- 5 -->
      <g transform="translate(675.311477 850.718437) scale(0.1 -0.1)">
       <use xlink:href="#DejaVuSans-35"/>
      </g>
     </g>
    </g>
   </g>
   <g id="matplotlib.axis_4">
    <g id="ytick_6">
     <g id="line2d_19">
      <g>
       <use xlink:href="#m7c8590b13f" x="33.64" y="818.825312" style="stroke: #000000; stroke-width: 0.8"/>
      </g>
     </g>
     <g id="text_19">
      <!-- 0.0 -->
      <g transform="translate(10.736875 822.62453) scale(0.1 -0.1)">
       <defs>
        <path id="DejaVuSans-2e" d="M 684 794 
L 1344 794 
L 1344 0 
L 684 0 
L 684 794 
z
" transform="scale(0.015625)"/>
       </defs>
       <use xlink:href="#DejaVuSans-30"/>
       <use xlink:href="#DejaVuSans-2e" transform="translate(63.623047 0)"/>
       <use xlink:href="#DejaVuSans-30" transform="translate(95.410156 0)"/>
      </g>
     </g>
    </g>
    <g id="ytick_7">
     <g id="line2d_20">
      <g>
       <use xlink:href="#m7c8590b13f" x="33.64" y="749.234795" style="stroke: #000000; stroke-width: 0.8"/>
      </g>
     </g>
     <g id="text_20">
      <!-- 0.2 -->
      <g transform="translate(10.736875 753.034014) scale(0.1 -0.1)">
       <use xlink:href="#DejaVuSans-30"/>
       <use xlink:href="#DejaVuSans-2e" transform="translate(63.623047 0)"/>
       <use xlink:href="#DejaVuSans-32" transform="translate(95.410156 0)"/>
      </g>
     </g>
    </g>
    <g id="ytick_8">
     <g id="line2d_21">
      <g>
       <use xlink:href="#m7c8590b13f" x="33.64" y="679.644278" style="stroke: #000000; stroke-width: 0.8"/>
      </g>
     </g>
     <g id="text_21">
      <!-- 0.4 -->
      <g transform="translate(10.736875 683.443497) scale(0.1 -0.1)">
       <use xlink:href="#DejaVuSans-30"/>
       <use xlink:href="#DejaVuSans-2e" transform="translate(63.623047 0)"/>
       <use xlink:href="#DejaVuSans-34" transform="translate(95.410156 0)"/>
      </g>
     </g>
    </g>
    <g id="ytick_9">
     <g id="line2d_22">
      <g>
       <use xlink:href="#m7c8590b13f" x="33.64" y="610.053761" style="stroke: #000000; stroke-width: 0.8"/>
      </g>
     </g>
     <g id="text_22">
      <!-- 0.6 -->
      <g transform="translate(10.736875 613.85298) scale(0.1 -0.1)">
       <defs>
        <path id="DejaVuSans-36" d="M 2113 2584 
Q 1688 2584 1439 2293 
Q 1191 2003 1191 1497 
Q 1191 994 1439 701 
Q 1688 409 2113 409 
Q 2538 409 2786 701 
Q 3034 994 3034 1497 
Q 3034 2003 2786 2293 
Q 2538 2584 2113 2584 
z
M 3366 4563 
L 3366 3988 
Q 3128 4100 2886 4159 
Q 2644 4219 2406 4219 
Q 1781 4219 1451 3797 
Q 1122 3375 1075 2522 
Q 1259 2794 1537 2939 
Q 1816 3084 2150 3084 
Q 2853 3084 3261 2657 
Q 3669 2231 3669 1497 
Q 3669 778 3244 343 
Q 2819 -91 2113 -91 
Q 1303 -91 875 529 
Q 447 1150 447 2328 
Q 447 3434 972 4092 
Q 1497 4750 2381 4750 
Q 2619 4750 2861 4703 
Q 3103 4656 3366 4563 
z
" transform="scale(0.015625)"/>
       </defs>
       <use xlink:href="#DejaVuSans-30"/>
       <use xlink:href="#DejaVuSans-2e" transform="translate(63.623047 0)"/>
       <use xlink:href="#DejaVuSans-36" transform="translate(95.410156 0)"/>
      </g>
     </g>
    </g>
    <g id="ytick_10">
     <g id="line2d_23">
      <g>
       <use xlink:href="#m7c8590b13f" x="33.64" y="540.463244" style="stroke: #000000; stroke-width: 0.8"/>
      </g>
     </g>
     <g id="text_23">
      <!-- 0.8 -->
      <g transform="translate(10.736875 544.262463) scale(0.1 -0.1)">
       <defs>
        <path id="DejaVuSans-38" d="M 2034 2216 
Q 1584 2216 1326 1975 
Q 1069 1734 1069 1313 
Q 1069 891 1326 650 
Q 1584 409 2034 409 
Q 2484 409 2743 651 
Q 3003 894 3003 1313 
Q 3003 1734 2745 1975 
Q 2488 2216 2034 2216 
z
M 1403 2484 
Q 997 2584 770 2862 
Q 544 3141 544 3541 
Q 544 4100 942 4425 
Q 1341 4750 2034 4750 
Q 2731 4750 3128 4425 
Q 3525 4100 3525 3541 
Q 3525 3141 3298 2862 
Q 3072 2584 2669 2484 
Q 3125 2378 3379 2068 
Q 3634 1759 3634 1313 
Q 3634 634 3220 271 
Q 2806 -91 2034 -91 
Q 1263 -91 848 271 
Q 434 634 434 1313 
Q 434 1759 690 2068 
Q 947 2378 1403 2484 
z
M 1172 3481 
Q 1172 3119 1398 2916 
Q 1625 2713 2034 2713 
Q 2441 2713 2670 2916 
Q 2900 3119 2900 3481 
Q 2900 3844 2670 4047 
Q 2441 4250 2034 4250 
Q 1625 4250 1398 4047 
Q 1172 3844 1172 3481 
z
" transform="scale(0.015625)"/>
       </defs>
       <use xlink:href="#DejaVuSans-30"/>
       <use xlink:href="#DejaVuSans-2e" transform="translate(63.623047 0)"/>
       <use xlink:href="#DejaVuSans-38" transform="translate(95.410156 0)"/>
      </g>
     </g>
    </g>
    <g id="ytick_11">
     <g id="line2d_24">
      <g>
       <use xlink:href="#m7c8590b13f" x="33.64" y="470.872727" style="stroke: #000000; stroke-width: 0.8"/>
      </g>
     </g>
     <g id="text_24">
      <!-- 1.0 -->
      <g transform="translate(10.736875 474.671946) scale(0.1 -0.1)">
       <use xlink:href="#DejaVuSans-31"/>
       <use xlink:href="#DejaVuSans-2e" transform="translate(63.623047 0)"/>
       <use xlink:href="#DejaVuSans-30" transform="translate(95.410156 0)"/>
      </g>
     </g>
    </g>
   </g>
   <g id="line2d_25">
    <path d="M 64.347273 470.872727 
L 64.962033 472.834711 
L 66.806314 476.714856 
L 71.724395 489.189609 
L 72.953916 491.402682 
L 74.183436 493.189002 
L 75.412957 494.45715 
L 77.871997 496.184662 
L 78.486758 496.46243 
L 79.101518 496.92182 
L 80.945799 498.913951 
L 82.175319 500.764911 
L 83.404839 503.13292 
L 85.24912 507.658742 
L 88.322921 515.549385 
L 89.552442 518.106337 
L 91.396722 520.993651 
L 92.626243 522.088317 
L 93.855763 522.804142 
L 96.314804 523.668439 
L 98.159085 524.850133 
L 99.388605 525.977952 
L 100.618125 527.800917 
L 101.847646 530.156272 
L 104.306687 535.211648 
L 105.536207 537.743859 
L 106.765728 539.870409 
L 107.380488 540.863186 
L 109.224768 542.733526 
L 110.454289 543.349194 
L 111.069049 543.613456 
L 111.683809 543.53191 
L 112.91333 543.664013 
L 113.52809 543.624204 
L 114.75761 543.997691 
L 115.987131 544.673654 
L 117.216651 545.979092 
L 118.446172 547.703397 
L 120.290452 550.94262 
L 122.749493 556.177724 
L 125.208534 560.54955 
L 126.438054 561.931281 
L 127.667575 562.98271 
L 128.282335 563.190416 
L 130.126616 564.084947 
L 131.356136 564.589634 
L 131.970896 564.800106 
L 133.200417 565.830961 
L 133.815177 566.399414 
L 135.044697 567.901351 
L 136.274218 570.063275 
L 138.118498 574.078452 
L 140.577539 579.873617 
L 142.42182 583.572641 
L 143.65134 585.351211 
L 145.495621 587.062256 
L 146.725142 587.761952 
L 147.954662 588.222593 
L 150.413703 589.562875 
L 152.257983 591.391094 
L 153.487504 593.321531 
L 155.331785 596.785539 
L 157.790825 601.873109 
L 159.635106 604.98501 
L 160.864626 606.356222 
L 161.479387 606.899034 
L 162.708907 607.557736 
L 163.938428 607.866967 
L 165.782708 608.019918 
L 167.012229 608.175414 
L 167.626989 608.44268 
L 170.08603 610.293502 
L 170.70079 610.967336 
L 173.159831 614.958897 
L 175.618872 619.039191 
L 176.848392 620.83898 
L 178.692673 622.832731 
L 180.536953 623.971284 
L 182.381234 624.147695 
L 184.225515 624.473939 
L 185.455035 624.907625 
L 186.684555 625.752509 
L 187.914076 627.071475 
L 189.143596 628.890068 
L 190.373117 631.010456 
L 192.217397 634.363947 
L 194.676438 638.65596 
L 195.905959 640.173976 
L 197.135479 641.385432 
L 198.365 642.225638 
L 198.97976 642.514142 
L 200.20928 642.863076 
L 202.053561 643.349241 
L 203.897841 644.673277 
L 205.127362 646.045068 
L 205.742122 646.783548 
L 209.430683 653.153445 
L 211.274964 656.4311 
L 212.504484 658.168926 
L 213.734005 659.421629 
L 214.963525 660.32134 
L 216.193046 660.854959 
L 217.422566 661.165775 
L 218.652087 661.258323 
L 219.881607 661.605763 
L 221.725888 662.666664 
L 222.340648 663.067893 
L 223.570168 664.229652 
L 225.414449 666.828466 
L 226.643969 668.864876 
L 228.48825 671.590666 
L 230.947291 674.347072 
L 231.562051 674.762073 
L 232.791572 675.248039 
L 234.635852 675.448559 
L 237.709653 675.50695 
L 238.324414 675.624436 
L 239.553934 676.353728 
L 240.783454 677.498574 
L 241.398215 678.09723 
L 243.242495 680.619641 
L 245.086776 683.292975 
L 246.316296 685.075025 
L 247.545817 686.417727 
L 248.775337 687.404328 
L 250.004858 688.179738 
L 252.463898 688.666255 
L 253.078659 688.747205 
L 253.693419 688.956197 
L 254.922939 689.180106 
L 256.15246 689.746142 
L 256.76722 690.097306 
L 257.38198 690.580742 
L 259.226261 692.601744 
L 261.070541 695.378021 
L 263.529582 699.060128 
L 264.759103 700.671277 
L 265.988623 701.98645 
L 266.603383 702.51429 
L 269.062424 703.701085 
L 269.677184 703.784223 
L 270.291945 703.999557 
L 270.906705 703.9813 
L 273.365746 704.669894 
L 273.980506 705.008474 
L 275.824787 706.515612 
L 277.669067 708.63936 
L 278.898588 710.212459 
L 280.742868 712.661546 
L 281.972389 714.102151 
L 283.201909 715.175236 
L 283.816669 715.601077 
L 285.66095 716.196782 
L 286.89047 716.43137 
L 288.734751 716.325147 
L 291.193792 716.917223 
L 291.808552 717.137295 
L 293.038073 717.832264 
L 294.267593 718.920915 
L 295.497113 720.226555 
L 298.570915 723.810665 
L 299.185675 724.448809 
L 301.644716 726.161331 
L 303.488996 726.634175 
L 305.948037 726.519091 
L 306.562797 726.404924 
L 308.407078 726.713188 
L 309.636598 727.283217 
L 310.866119 728.105778 
L 312.710399 729.895216 
L 313.93992 731.329356 
L 317.013721 734.890655 
L 317.628481 735.515979 
L 318.243241 735.969626 
L 320.087522 736.787992 
L 321.931803 737.238098 
L 324.390844 737.384306 
L 325.620364 737.745577 
L 326.849884 738.220899 
L 328.079405 739.099435 
L 329.308925 740.154173 
L 330.538446 741.399218 
L 333.612247 744.951265 
L 336.071288 746.942228 
L 337.300808 747.540904 
L 340.374609 747.877269 
L 342.21889 747.935824 
L 344.06317 748.334968 
L 344.677931 748.603795 
L 346.522211 749.874677 
L 348.981252 752.250517 
L 350.210773 753.400416 
L 352.055053 754.993703 
L 353.284574 755.713971 
L 354.514094 756.113129 
L 355.128854 756.236029 
L 355.743615 756.150379 
L 356.973135 756.224188 
L 360.661696 756.255025 
L 361.891217 756.463665 
L 362.505977 756.668776 
L 364.350258 757.795187 
L 366.194538 759.23264 
L 367.424059 760.400431 
L 368.653579 761.466989 
L 369.883099 762.352222 
L 371.72738 763.25428 
L 372.956901 763.546184 
L 375.415941 763.698655 
L 376.645462 763.535859 
L 377.260222 763.674988 
L 378.489742 763.765824 
L 379.104503 763.856435 
L 380.334023 764.369091 
L 382.178304 765.580073 
L 383.407824 766.489846 
L 387.096385 769.631231 
L 388.940666 770.470399 
L 390.170187 770.81998 
L 392.629227 770.969186 
L 393.858748 770.840973 
L 395.703028 770.960193 
L 396.317789 771.0687 
L 398.77683 772.222475 
L 400.62111 773.651647 
L 403.694911 775.909076 
L 404.924432 776.583792 
L 405.539192 776.924808 
L 407.383473 777.486702 
L 408.612993 777.655407 
L 409.842513 777.630738 
L 411.686794 777.539249 
L 414.145835 777.713588 
L 415.990116 778.417398 
L 416.604876 778.653946 
L 419.063917 780.24495 
L 420.293437 781.015057 
L 422.137718 782.15819 
L 423.981998 782.849916 
L 426.441039 783.253436 
L 430.129601 783.16525 
L 432.588641 783.578787 
L 433.818162 783.915961 
L 438.736244 786.736595 
L 440.580524 787.437895 
L 441.810045 787.689203 
L 443.039565 787.929708 
L 444.269085 787.865541 
L 446.113366 787.826435 
L 449.187167 787.902428 
L 451.031448 788.20583 
L 453.490489 789.297053 
L 455.334769 790.240293 
L 457.79381 791.424935 
L 459.023331 791.835609 
L 460.252851 791.966756 
L 460.867611 792.13698 
L 464.556173 791.988299 
L 467.629974 792.249657 
L 470.089014 792.961167 
L 471.318535 793.63673 
L 475.007096 795.430931 
L 476.851377 795.977891 
L 478.080897 796.169628 
L 481.154698 796.35462 
L 483.613739 796.39394 
L 484.84326 796.531595 
L 486.68754 797.037713 
L 492.220382 799.286729 
L 494.064663 799.79731 
L 497.138464 799.954299 
L 499.597505 799.777498 
L 500.827025 799.830019 
L 502.056546 799.83944 
L 503.900826 799.975712 
L 505.130347 800.231432 
L 506.359867 800.629027 
L 506.974627 800.69411 
L 508.818908 801.180798 
L 511.277949 801.636818 
L 513.12223 801.636973 
L 513.73699 801.559308 
L 514.35175 801.629591 
L 517.425551 801.231918 
L 521.728873 801.468152 
L 526.646954 802.615089 
L 530.335516 803.228339 
L 532.794556 803.295743 
L 536.483118 803.561595 
L 541.401199 804.860167 
L 543.24548 805.330339 
L 544.475 805.746973 
L 545.704521 806.103646 
L 546.319281 806.274608 
L 547.548802 806.414634 
L 548.163562 806.541844 
L 550.622603 806.669697 
L 553.696404 806.781786 
L 554.311164 806.729364 
L 556.770205 807.052743 
L 558.614485 807.292538 
L 560.458766 807.602521 
L 565.991608 807.628758 
L 567.221128 807.531704 
L 567.835889 807.542511 
L 569.680169 807.201105 
L 571.52445 806.93786 
L 573.368731 806.87172 
L 574.598251 806.885379 
L 576.442532 806.896131 
L 579.516333 806.870041 
L 582.590134 806.98975 
L 583.819654 806.897227 
L 586.893455 807.059265 
L 588.737736 807.194496 
L 589.967256 807.291846 
L 594.885338 808.033096 
L 602.877221 809.391323 
L 604.106741 809.744136 
L 604.721502 809.835489 
L 605.951022 810.191099 
L 607.180542 810.370641 
L 611.483864 811.180765 
L 618.246226 811.707233 
L 620.090507 811.754394 
L 623.164308 811.956267 
L 623.779068 812.072846 
L 625.008589 812.120076 
L 627.467629 812.00775 
L 635.459512 810.973943 
L 639.762834 810.84734 
L 640.992354 810.940205 
L 642.836635 810.977071 
L 646.525196 811.15486 
L 647.754717 811.158794 
L 650.213757 811.094337 
L 650.828518 811.130172 
L 652.672798 811.533289 
L 654.517079 811.888638 
L 657.59088 813.064627 
L 658.8204 813.475056 
L 661.279441 814.370764 
L 662.508962 814.689141 
L 664.353242 815.135232 
L 669.886084 816.009174 
L 671.730365 816.379175 
L 676.033686 818.030878 
L 678.492727 818.727273 
L 678.492727 818.727273 
" clip-path="url(#p644e30540e)" style="fill: none; stroke: #1f77b4; stroke-width: 1.5; stroke-linecap: square"/>
   </g>
   <g id="patch_8">
    <path d="M 33.64 836.12 
L 33.64 453.48 
" style="fill: none; stroke: #000000; stroke-width: 0.8; stroke-linejoin: miter; stroke-linecap: square"/>
   </g>
   <g id="patch_9">
    <path d="M 709.2 836.12 
L 709.2 453.48 
" style="fill: none; stroke: #000000; stroke-width: 0.8; stroke-linejoin: miter; stroke-linecap: square"/>
   </g>
   <g id="patch_10">
    <path d="M 33.64 836.12 
L 709.2 836.12 
" style="fill: none; stroke: #000000; stroke-width: 0.8; stroke-linejoin: miter; stroke-linecap: square"/>
   </g>
   <g id="patch_11">
    <path d="M 33.64 453.48 
L 709.2 453.48 
" style="fill: none; stroke: #000000; stroke-width: 0.8; stroke-linejoin: miter; stroke-linecap: square"/>
   </g>
   <g id="text_25">
    <!-- Autocorelatia -->
    <g transform="translate(331.45625 447.48) scale(0.12 -0.12)">
     <defs>
      <path id="DejaVuSans-41" d="M 2188 4044 
L 1331 1722 
L 3047 1722 
L 2188 4044 
z
M 1831 4666 
L 2547 4666 
L 4325 0 
L 3669 0 
L 3244 1197 
L 1141 1197 
L 716 0 
L 50 0 
L 1831 4666 
z
" transform="scale(0.015625)"/>
      <path id="DejaVuSans-75" d="M 544 1381 
L 544 3500 
L 1119 3500 
L 1119 1403 
Q 1119 906 1312 657 
Q 1506 409 1894 409 
Q 2359 409 2629 706 
Q 2900 1003 2900 1516 
L 2900 3500 
L 3475 3500 
L 3475 0 
L 2900 0 
L 2900 538 
Q 2691 219 2414 64 
Q 2138 -91 1772 -91 
Q 1169 -91 856 284 
Q 544 659 544 1381 
z
M 1991 3584 
L 1991 3584 
z
" transform="scale(0.015625)"/>
      <path id="DejaVuSans-6f" d="M 1959 3097 
Q 1497 3097 1228 2736 
Q 959 2375 959 1747 
Q 959 1119 1226 758 
Q 1494 397 1959 397 
Q 2419 397 2687 759 
Q 2956 1122 2956 1747 
Q 2956 2369 2687 2733 
Q 2419 3097 1959 3097 
z
M 1959 3584 
Q 2709 3584 3137 3096 
Q 3566 2609 3566 1747 
Q 3566 888 3137 398 
Q 2709 -91 1959 -91 
Q 1206 -91 779 398 
Q 353 888 353 1747 
Q 353 2609 779 3096 
Q 1206 3584 1959 3584 
z
" transform="scale(0.015625)"/>
      <path id="DejaVuSans-63" d="M 3122 3366 
L 3122 2828 
Q 2878 2963 2633 3030 
Q 2388 3097 2138 3097 
Q 1578 3097 1268 2742 
Q 959 2388 959 1747 
Q 959 1106 1268 751 
Q 1578 397 2138 397 
Q 2388 397 2633 464 
Q 2878 531 3122 666 
L 3122 134 
Q 2881 22 2623 -34 
Q 2366 -91 2075 -91 
Q 1284 -91 818 406 
Q 353 903 353 1747 
Q 353 2603 823 3093 
Q 1294 3584 2113 3584 
Q 2378 3584 2631 3529 
Q 2884 3475 3122 3366 
z
" transform="scale(0.015625)"/>
      <path id="DejaVuSans-6c" d="M 603 4863 
L 1178 4863 
L 1178 0 
L 603 0 
L 603 4863 
z
" transform="scale(0.015625)"/>
     </defs>
     <use xlink:href="#DejaVuSans-41"/>
     <use xlink:href="#DejaVuSans-75" transform="translate(68.408203 0)"/>
     <use xlink:href="#DejaVuSans-74" transform="translate(131.787109 0)"/>
     <use xlink:href="#DejaVuSans-6f" transform="translate(170.996094 0)"/>
     <use xlink:href="#DejaVuSans-63" transform="translate(232.177734 0)"/>
     <use xlink:href="#DejaVuSans-6f" transform="translate(287.158203 0)"/>
     <use xlink:href="#DejaVuSans-72" transform="translate(348.339844 0)"/>
     <use xlink:href="#DejaVuSans-65" transform="translate(387.203125 0)"/>
     <use xlink:href="#DejaVuSans-6c" transform="translate(448.726562 0)"/>
     <use xlink:href="#DejaVuSans-61" transform="translate(476.509766 0)"/>
     <use xlink:href="#DejaVuSans-74" transform="translate(537.789062 0)"/>
     <use xlink:href="#DejaVuSans-69" transform="translate(576.998047 0)"/>
     <use xlink:href="#DejaVuSans-61" transform="translate(604.78125 0)"/>
    </g>
   </g>
  </g>
 </g>
 <defs>
  <clipPath id="p736733b60e">
   <rect x="33.64" y="26.88" width="675.56" height="382.64"/>
  </clipPath>
  <clipPath id="p644e30540e">
   <rect x="33.64" y="453.48" width="675.56" height="382.64"/>
  </clipPath>
 </defs>
</svg>
