<?xml version="1.0" encoding="utf-8" standalone="no"?>
<!DOCTYPE svg PUBLIC "-//W3C//DTD SVG 1.1//EN"
  "http://www.w3.org/Graphics/SVG/1.1/DTD/svg11.dtd">
<svg xmlns:xlink="http://www.w3.org/1999/xlink" width="720pt" height="432pt" viewBox="0 0 720 432" xmlns="http://www.w3.org/2000/svg" version="1.1">
 <metadata>
  <rdf:RDF xmlns:dc="http://purl.org/dc/elements/1.1/" xmlns:cc="http://creativecommons.org/ns#" xmlns:rdf="http://www.w3.org/1999/02/22-rdf-syntax-ns#">
   <cc:Work>
    <dc:type rdf:resource="http://purl.org/dc/dcmitype/StillImage"/>
    <dc:date>2025-12-16T16:44:32.788734</dc:date>
    <dc:format>image/svg+xml</dc:format>
    <dc:creator>
     <cc:Agent>
      <dc:title>Matplotlib v3.10.7, https://matplotlib.org/</dc:title>
     </cc:Agent>
    </dc:creator>
   </cc:Work>
  </rdf:RDF>
 </metadata>
 <defs>
  <style type="text/css">*{stroke-linejoin: round; stroke-linecap: butt}</style>
 </defs>
 <g id="figure_1">
  <g id="patch_1">
   <path d="M 0 432 
L 720 432 
L 720 0 
L 0 0 
z
" style="fill: #ffffff"/>
  </g>
  <g id="axes_1">
   <g id="patch_2">
    <path d="M 44.66 390.04 
L 709.2 390.04 
L 709.2 27.6 
L 44.66 27.6 
z
" style="fill: #ffffff"/>
   </g>
   <g id="matplotlib.axis_1">
    <g id="xtick_1">
     <g id="line2d_1">
      <path d="M 74.866364 390.04 
L 74.866364 27.6 
" clip-path="url(#p5348a0ac89)" style="fill: none; stroke-dasharray: 2.96,1.28; stroke-dashoffset: 0; stroke: #b0b0b0; stroke-opacity: 0.4; stroke-width: 0.8"/>
     </g>
     <g id="line2d_2">
      <defs>
       <path id="m4580ed7bcb" d="M 0 0 
L 0 3.5 
" style="stroke: #000000; stroke-width: 0.8"/>
      </defs>
      <g>
       <use xlink:href="#m4580ed7bcb" x="74.866364" y="390.04" style="stroke: #000000; stroke-width: 0.8"/>
      </g>
     </g>
     <g id="text_1">
      <!-- 600 -->
      <g transform="translate(65.322614 404.638438) scale(0.1 -0.1)">
       <defs>
        <path id="DejaVuSans-36" d="M 2113 2584 
Q 1688 2584 1439 2293 
Q 1191 2003 1191 1497 
Q 1191 994 1439 701 
Q 1688 409 2113 409 
Q 2538 409 2786 701 
Q 3034 994 3034 1497 
Q 3034 2003 2786 2293 
Q 2538 2584 2113 2584 
z
M 3366 4563 
L 3366 3988 
Q 3128 4100 2886 4159 
Q 2644 4219 2406 4219 
Q 1781 4219 1451 3797 
Q 1122 3375 1075 2522 
Q 1259 2794 1537 2939 
Q 1816 3084 2150 3084 
Q 2853 3084 3261 2657 
Q 3669 2231 3669 1497 
Q 3669 778 3244 343 
Q 2819 -91 2113 -91 
Q 1303 -91 875 529 
Q 447 1150 447 2328 
Q 447 3434 972 4092 
Q 1497 4750 2381 4750 
Q 2619 4750 2861 4703 
Q 3103 4656 3366 4563 
z
" transform="scale(0.015625)"/>
        <path id="DejaVuSans-30" d="M 2034 4250 
Q 1547 4250 1301 3770 
Q 1056 3291 1056 2328 
Q 1056 1369 1301 889 
Q 1547 409 2034 409 
Q 2525 409 2770 889 
Q 3016 1369 3016 2328 
Q 3016 3291 2770 3770 
Q 2525 4250 2034 4250 
z
M 2034 4750 
Q 2819 4750 3233 4129 
Q 3647 3509 3647 2328 
Q 3647 1150 3233 529 
Q 2819 -91 2034 -91 
Q 1250 -91 836 529 
Q 422 1150 422 2328 
Q 422 3509 836 4129 
Q 1250 4750 2034 4750 
z
" transform="scale(0.015625)"/>
       </defs>
       <use xlink:href="#DejaVuSans-36"/>
       <use xlink:href="#DejaVuSans-30" transform="translate(63.623047 0)"/>
       <use xlink:href="#DejaVuSans-30" transform="translate(127.246094 0)"/>
      </g>
     </g>
    </g>
    <g id="xtick_2">
     <g id="line2d_3">
      <path d="M 150.571536 390.04 
L 150.571536 27.6 
" clip-path="url(#p5348a0ac89)" style="fill: none; stroke-dasharray: 2.96,1.28; stroke-dashoffset: 0; stroke: #b0b0b0; stroke-opacity: 0.4; stroke-width: 0.8"/>
     </g>
     <g id="line2d_4">
      <g>
       <use xlink:href="#m4580ed7bcb" x="150.571536" y="390.04" style="stroke: #000000; stroke-width: 0.8"/>
      </g>
     </g>
     <g id="text_2">
      <!-- 650 -->
      <g transform="translate(141.027786 404.638438) scale(0.1 -0.1)">
       <defs>
        <path id="DejaVuSans-35" d="M 691 4666 
L 3169 4666 
L 3169 4134 
L 1269 4134 
L 1269 2991 
Q 1406 3038 1543 3061 
Q 1681 3084 1819 3084 
Q 2600 3084 3056 2656 
Q 3513 2228 3513 1497 
Q 3513 744 3044 326 
Q 2575 -91 1722 -91 
Q 1428 -91 1123 -41 
Q 819 9 494 109 
L 494 744 
Q 775 591 1075 516 
Q 1375 441 1709 441 
Q 2250 441 2565 725 
Q 2881 1009 2881 1497 
Q 2881 1984 2565 2268 
Q 2250 2553 1709 2553 
Q 1456 2553 1204 2497 
Q 953 2441 691 2322 
L 691 4666 
z
" transform="scale(0.015625)"/>
       </defs>
       <use xlink:href="#DejaVuSans-36"/>
       <use xlink:href="#DejaVuSans-35" transform="translate(63.623047 0)"/>
       <use xlink:href="#DejaVuSans-30" transform="translate(127.246094 0)"/>
      </g>
     </g>
    </g>
    <g id="xtick_3">
     <g id="line2d_5">
      <path d="M 226.276708 390.04 
L 226.276708 27.6 
" clip-path="url(#p5348a0ac89)" style="fill: none; stroke-dasharray: 2.96,1.28; stroke-dashoffset: 0; stroke: #b0b0b0; stroke-opacity: 0.4; stroke-width: 0.8"/>
     </g>
     <g id="line2d_6">
      <g>
       <use xlink:href="#m4580ed7bcb" x="226.276708" y="390.04" style="stroke: #000000; stroke-width: 0.8"/>
      </g>
     </g>
     <g id="text_3">
      <!-- 700 -->
      <g transform="translate(216.732958 404.638438) scale(0.1 -0.1)">
       <defs>
        <path id="DejaVuSans-37" d="M 525 4666 
L 3525 4666 
L 3525 4397 
L 1831 0 
L 1172 0 
L 2766 4134 
L 525 4134 
L 525 4666 
z
" transform="scale(0.015625)"/>
       </defs>
       <use xlink:href="#DejaVuSans-37"/>
       <use xlink:href="#DejaVuSans-30" transform="translate(63.623047 0)"/>
       <use xlink:href="#DejaVuSans-30" transform="translate(127.246094 0)"/>
      </g>
     </g>
    </g>
    <g id="xtick_4">
     <g id="line2d_7">
      <path d="M 301.98188 390.04 
L 301.98188 27.6 
" clip-path="url(#p5348a0ac89)" style="fill: none; stroke-dasharray: 2.96,1.28; stroke-dashoffset: 0; stroke: #b0b0b0; stroke-opacity: 0.4; stroke-width: 0.8"/>
     </g>
     <g id="line2d_8">
      <g>
       <use xlink:href="#m4580ed7bcb" x="301.98188" y="390.04" style="stroke: #000000; stroke-width: 0.8"/>
      </g>
     </g>
     <g id="text_4">
      <!-- 750 -->
      <g transform="translate(292.43813 404.638438) scale(0.1 -0.1)">
       <use xlink:href="#DejaVuSans-37"/>
       <use xlink:href="#DejaVuSans-35" transform="translate(63.623047 0)"/>
       <use xlink:href="#DejaVuSans-30" transform="translate(127.246094 0)"/>
      </g>
     </g>
    </g>
    <g id="xtick_5">
     <g id="line2d_9">
      <path d="M 377.687052 390.04 
L 377.687052 27.6 
" clip-path="url(#p5348a0ac89)" style="fill: none; stroke-dasharray: 2.96,1.28; stroke-dashoffset: 0; stroke: #b0b0b0; stroke-opacity: 0.4; stroke-width: 0.8"/>
     </g>
     <g id="line2d_10">
      <g>
       <use xlink:href="#m4580ed7bcb" x="377.687052" y="390.04" style="stroke: #000000; stroke-width: 0.8"/>
      </g>
     </g>
     <g id="text_5">
      <!-- 800 -->
      <g transform="translate(368.143302 404.638438) scale(0.1 -0.1)">
       <defs>
        <path id="DejaVuSans-38" d="M 2034 2216 
Q 1584 2216 1326 1975 
Q 1069 1734 1069 1313 
Q 1069 891 1326 650 
Q 1584 409 2034 409 
Q 2484 409 2743 651 
Q 3003 894 3003 1313 
Q 3003 1734 2745 1975 
Q 2488 2216 2034 2216 
z
M 1403 2484 
Q 997 2584 770 2862 
Q 544 3141 544 3541 
Q 544 4100 942 4425 
Q 1341 4750 2034 4750 
Q 2731 4750 3128 4425 
Q 3525 4100 3525 3541 
Q 3525 3141 3298 2862 
Q 3072 2584 2669 2484 
Q 3125 2378 3379 2068 
Q 3634 1759 3634 1313 
Q 3634 634 3220 271 
Q 2806 -91 2034 -91 
Q 1263 -91 848 271 
Q 434 634 434 1313 
Q 434 1759 690 2068 
Q 947 2378 1403 2484 
z
M 1172 3481 
Q 1172 3119 1398 2916 
Q 1625 2713 2034 2713 
Q 2441 2713 2670 2916 
Q 2900 3119 2900 3481 
Q 2900 3844 2670 4047 
Q 2441 4250 2034 4250 
Q 1625 4250 1398 4047 
Q 1172 3844 1172 3481 
z
" transform="scale(0.015625)"/>
       </defs>
       <use xlink:href="#DejaVuSans-38"/>
       <use xlink:href="#DejaVuSans-30" transform="translate(63.623047 0)"/>
       <use xlink:href="#DejaVuSans-30" transform="translate(127.246094 0)"/>
      </g>
     </g>
    </g>
    <g id="xtick_6">
     <g id="line2d_11">
      <path d="M 453.392224 390.04 
L 453.392224 27.6 
" clip-path="url(#p5348a0ac89)" style="fill: none; stroke-dasharray: 2.96,1.28; stroke-dashoffset: 0; stroke: #b0b0b0; stroke-opacity: 0.4; stroke-width: 0.8"/>
     </g>
     <g id="line2d_12">
      <g>
       <use xlink:href="#m4580ed7bcb" x="453.392224" y="390.04" style="stroke: #000000; stroke-width: 0.8"/>
      </g>
     </g>
     <g id="text_6">
      <!-- 850 -->
      <g transform="translate(443.848474 404.638438) scale(0.1 -0.1)">
       <use xlink:href="#DejaVuSans-38"/>
       <use xlink:href="#DejaVuSans-35" transform="translate(63.623047 0)"/>
       <use xlink:href="#DejaVuSans-30" transform="translate(127.246094 0)"/>
      </g>
     </g>
    </g>
    <g id="xtick_7">
     <g id="line2d_13">
      <path d="M 529.097396 390.04 
L 529.097396 27.6 
" clip-path="url(#p5348a0ac89)" style="fill: none; stroke-dasharray: 2.96,1.28; stroke-dashoffset: 0; stroke: #b0b0b0; stroke-opacity: 0.4; stroke-width: 0.8"/>
     </g>
     <g id="line2d_14">
      <g>
       <use xlink:href="#m4580ed7bcb" x="529.097396" y="390.04" style="stroke: #000000; stroke-width: 0.8"/>
      </g>
     </g>
     <g id="text_7">
      <!-- 900 -->
      <g transform="translate(519.553646 404.638438) scale(0.1 -0.1)">
       <defs>
        <path id="DejaVuSans-39" d="M 703 97 
L 703 672 
Q 941 559 1184 500 
Q 1428 441 1663 441 
Q 2288 441 2617 861 
Q 2947 1281 2994 2138 
Q 2813 1869 2534 1725 
Q 2256 1581 1919 1581 
Q 1219 1581 811 2004 
Q 403 2428 403 3163 
Q 403 3881 828 4315 
Q 1253 4750 1959 4750 
Q 2769 4750 3195 4129 
Q 3622 3509 3622 2328 
Q 3622 1225 3098 567 
Q 2575 -91 1691 -91 
Q 1453 -91 1209 -44 
Q 966 3 703 97 
z
M 1959 2075 
Q 2384 2075 2632 2365 
Q 2881 2656 2881 3163 
Q 2881 3666 2632 3958 
Q 2384 4250 1959 4250 
Q 1534 4250 1286 3958 
Q 1038 3666 1038 3163 
Q 1038 2656 1286 2365 
Q 1534 2075 1959 2075 
z
" transform="scale(0.015625)"/>
       </defs>
       <use xlink:href="#DejaVuSans-39"/>
       <use xlink:href="#DejaVuSans-30" transform="translate(63.623047 0)"/>
       <use xlink:href="#DejaVuSans-30" transform="translate(127.246094 0)"/>
      </g>
     </g>
    </g>
    <g id="xtick_8">
     <g id="line2d_15">
      <path d="M 604.802568 390.04 
L 604.802568 27.6 
" clip-path="url(#p5348a0ac89)" style="fill: none; stroke-dasharray: 2.96,1.28; stroke-dashoffset: 0; stroke: #b0b0b0; stroke-opacity: 0.4; stroke-width: 0.8"/>
     </g>
     <g id="line2d_16">
      <g>
       <use xlink:href="#m4580ed7bcb" x="604.802568" y="390.04" style="stroke: #000000; stroke-width: 0.8"/>
      </g>
     </g>
     <g id="text_8">
      <!-- 950 -->
      <g transform="translate(595.258818 404.638438) scale(0.1 -0.1)">
       <use xlink:href="#DejaVuSans-39"/>
       <use xlink:href="#DejaVuSans-35" transform="translate(63.623047 0)"/>
       <use xlink:href="#DejaVuSans-30" transform="translate(127.246094 0)"/>
      </g>
     </g>
    </g>
    <g id="xtick_9">
     <g id="line2d_17">
      <path d="M 680.50774 390.04 
L 680.50774 27.6 
" clip-path="url(#p5348a0ac89)" style="fill: none; stroke-dasharray: 2.96,1.28; stroke-dashoffset: 0; stroke: #b0b0b0; stroke-opacity: 0.4; stroke-width: 0.8"/>
     </g>
     <g id="line2d_18">
      <g>
       <use xlink:href="#m4580ed7bcb" x="680.50774" y="390.04" style="stroke: #000000; stroke-width: 0.8"/>
      </g>
     </g>
     <g id="text_9">
      <!-- 1000 -->
      <g transform="translate(667.78274 404.638438) scale(0.1 -0.1)">
       <defs>
        <path id="DejaVuSans-31" d="M 794 531 
L 1825 531 
L 1825 4091 
L 703 3866 
L 703 4441 
L 1819 4666 
L 2450 4666 
L 2450 531 
L 3481 531 
L 3481 0 
L 794 0 
L 794 531 
z
" transform="scale(0.015625)"/>
       </defs>
       <use xlink:href="#DejaVuSans-31"/>
       <use xlink:href="#DejaVuSans-30" transform="translate(63.623047 0)"/>
       <use xlink:href="#DejaVuSans-30" transform="translate(127.246094 0)"/>
       <use xlink:href="#DejaVuSans-30" transform="translate(190.869141 0)"/>
      </g>
     </g>
    </g>
    <g id="text_10">
     <!-- Timp -->
     <g transform="translate(364.59875 418.316562) scale(0.1 -0.1)">
      <defs>
       <path id="DejaVuSans-54" d="M -19 4666 
L 3928 4666 
L 3928 4134 
L 2272 4134 
L 2272 0 
L 1638 0 
L 1638 4134 
L -19 4134 
L -19 4666 
z
" transform="scale(0.015625)"/>
       <path id="DejaVuSans-69" d="M 603 3500 
L 1178 3500 
L 1178 0 
L 603 0 
L 603 3500 
z
M 603 4863 
L 1178 4863 
L 1178 4134 
L 603 4134 
L 603 4863 
z
" transform="scale(0.015625)"/>
       <path id="DejaVuSans-6d" d="M 3328 2828 
Q 3544 3216 3844 3400 
Q 4144 3584 4550 3584 
Q 5097 3584 5394 3201 
Q 5691 2819 5691 2113 
L 5691 0 
L 5113 0 
L 5113 2094 
Q 5113 2597 4934 2840 
Q 4756 3084 4391 3084 
Q 3944 3084 3684 2787 
Q 3425 2491 3425 1978 
L 3425 0 
L 2847 0 
L 2847 2094 
Q 2847 2600 2669 2842 
Q 2491 3084 2119 3084 
Q 1678 3084 1418 2786 
Q 1159 2488 1159 1978 
L 1159 0 
L 581 0 
L 581 3500 
L 1159 3500 
L 1159 2956 
Q 1356 3278 1631 3431 
Q 1906 3584 2284 3584 
Q 2666 3584 2933 3390 
Q 3200 3197 3328 2828 
z
" transform="scale(0.015625)"/>
       <path id="DejaVuSans-70" d="M 1159 525 
L 1159 -1331 
L 581 -1331 
L 581 3500 
L 1159 3500 
L 1159 2969 
Q 1341 3281 1617 3432 
Q 1894 3584 2278 3584 
Q 2916 3584 3314 3078 
Q 3713 2572 3713 1747 
Q 3713 922 3314 415 
Q 2916 -91 2278 -91 
Q 1894 -91 1617 61 
Q 1341 213 1159 525 
z
M 3116 1747 
Q 3116 2381 2855 2742 
Q 2594 3103 2138 3103 
Q 1681 3103 1420 2742 
Q 1159 2381 1159 1747 
Q 1159 1113 1420 752 
Q 1681 391 2138 391 
Q 2594 391 2855 752 
Q 3116 1113 3116 1747 
z
" transform="scale(0.015625)"/>
      </defs>
      <use xlink:href="#DejaVuSans-54"/>
      <use xlink:href="#DejaVuSans-69" transform="translate(57.958984 0)"/>
      <use xlink:href="#DejaVuSans-6d" transform="translate(85.742188 0)"/>
      <use xlink:href="#DejaVuSans-70" transform="translate(183.154297 0)"/>
     </g>
    </g>
   </g>
   <g id="matplotlib.axis_2">
    <g id="ytick_1">
     <g id="line2d_19">
      <path d="M 44.66 345.981568 
L 709.2 345.981568 
" clip-path="url(#p5348a0ac89)" style="fill: none; stroke-dasharray: 2.96,1.28; stroke-dashoffset: 0; stroke: #b0b0b0; stroke-opacity: 0.4; stroke-width: 0.8"/>
     </g>
     <g id="line2d_20">
      <defs>
       <path id="meb2abfd972" d="M 0 0 
L -3.5 0 
" style="stroke: #000000; stroke-width: 0.8"/>
      </defs>
      <g>
       <use xlink:href="#meb2abfd972" x="44.66" y="345.981568" style="stroke: #000000; stroke-width: 0.8"/>
      </g>
     </g>
     <g id="text_11">
      <!-- 8 -->
      <g transform="translate(31.2975 349.780787) scale(0.1 -0.1)">
       <use xlink:href="#DejaVuSans-38"/>
      </g>
     </g>
    </g>
    <g id="ytick_2">
     <g id="line2d_21">
      <path d="M 44.66 300.84579 
L 709.2 300.84579 
" clip-path="url(#p5348a0ac89)" style="fill: none; stroke-dasharray: 2.96,1.28; stroke-dashoffset: 0; stroke: #b0b0b0; stroke-opacity: 0.4; stroke-width: 0.8"/>
     </g>
     <g id="line2d_22">
      <g>
       <use xlink:href="#meb2abfd972" x="44.66" y="300.84579" style="stroke: #000000; stroke-width: 0.8"/>
      </g>
     </g>
     <g id="text_12">
      <!-- 10 -->
      <g transform="translate(24.935 304.645008) scale(0.1 -0.1)">
       <use xlink:href="#DejaVuSans-31"/>
       <use xlink:href="#DejaVuSans-30" transform="translate(63.623047 0)"/>
      </g>
     </g>
    </g>
    <g id="ytick_3">
     <g id="line2d_23">
      <path d="M 44.66 255.710011 
L 709.2 255.710011 
" clip-path="url(#p5348a0ac89)" style="fill: none; stroke-dasharray: 2.96,1.28; stroke-dashoffset: 0; stroke: #b0b0b0; stroke-opacity: 0.4; stroke-width: 0.8"/>
     </g>
     <g id="line2d_24">
      <g>
       <use xlink:href="#meb2abfd972" x="44.66" y="255.710011" style="stroke: #000000; stroke-width: 0.8"/>
      </g>
     </g>
     <g id="text_13">
      <!-- 12 -->
      <g transform="translate(24.935 259.50923) scale(0.1 -0.1)">
       <defs>
        <path id="DejaVuSans-32" d="M 1228 531 
L 3431 531 
L 3431 0 
L 469 0 
L 469 531 
Q 828 903 1448 1529 
Q 2069 2156 2228 2338 
Q 2531 2678 2651 2914 
Q 2772 3150 2772 3378 
Q 2772 3750 2511 3984 
Q 2250 4219 1831 4219 
Q 1534 4219 1204 4116 
Q 875 4013 500 3803 
L 500 4441 
Q 881 4594 1212 4672 
Q 1544 4750 1819 4750 
Q 2544 4750 2975 4387 
Q 3406 4025 3406 3419 
Q 3406 3131 3298 2873 
Q 3191 2616 2906 2266 
Q 2828 2175 2409 1742 
Q 1991 1309 1228 531 
z
" transform="scale(0.015625)"/>
       </defs>
       <use xlink:href="#DejaVuSans-31"/>
       <use xlink:href="#DejaVuSans-32" transform="translate(63.623047 0)"/>
      </g>
     </g>
    </g>
    <g id="ytick_4">
     <g id="line2d_25">
      <path d="M 44.66 210.574232 
L 709.2 210.574232 
" clip-path="url(#p5348a0ac89)" style="fill: none; stroke-dasharray: 2.96,1.28; stroke-dashoffset: 0; stroke: #b0b0b0; stroke-opacity: 0.4; stroke-width: 0.8"/>
     </g>
     <g id="line2d_26">
      <g>
       <use xlink:href="#meb2abfd972" x="44.66" y="210.574232" style="stroke: #000000; stroke-width: 0.8"/>
      </g>
     </g>
     <g id="text_14">
      <!-- 14 -->
      <g transform="translate(24.935 214.373451) scale(0.1 -0.1)">
       <defs>
        <path id="DejaVuSans-34" d="M 2419 4116 
L 825 1625 
L 2419 1625 
L 2419 4116 
z
M 2253 4666 
L 3047 4666 
L 3047 1625 
L 3713 1625 
L 3713 1100 
L 3047 1100 
L 3047 0 
L 2419 0 
L 2419 1100 
L 313 1100 
L 313 1709 
L 2253 4666 
z
" transform="scale(0.015625)"/>
       </defs>
       <use xlink:href="#DejaVuSans-31"/>
       <use xlink:href="#DejaVuSans-34" transform="translate(63.623047 0)"/>
      </g>
     </g>
    </g>
    <g id="ytick_5">
     <g id="line2d_27">
      <path d="M 44.66 165.438454 
L 709.2 165.438454 
" clip-path="url(#p5348a0ac89)" style="fill: none; stroke-dasharray: 2.96,1.28; stroke-dashoffset: 0; stroke: #b0b0b0; stroke-opacity: 0.4; stroke-width: 0.8"/>
     </g>
     <g id="line2d_28">
      <g>
       <use xlink:href="#meb2abfd972" x="44.66" y="165.438454" style="stroke: #000000; stroke-width: 0.8"/>
      </g>
     </g>
     <g id="text_15">
      <!-- 16 -->
      <g transform="translate(24.935 169.237672) scale(0.1 -0.1)">
       <use xlink:href="#DejaVuSans-31"/>
       <use xlink:href="#DejaVuSans-36" transform="translate(63.623047 0)"/>
      </g>
     </g>
    </g>
    <g id="ytick_6">
     <g id="line2d_29">
      <path d="M 44.66 120.302675 
L 709.2 120.302675 
" clip-path="url(#p5348a0ac89)" style="fill: none; stroke-dasharray: 2.96,1.28; stroke-dashoffset: 0; stroke: #b0b0b0; stroke-opacity: 0.4; stroke-width: 0.8"/>
     </g>
     <g id="line2d_30">
      <g>
       <use xlink:href="#meb2abfd972" x="44.66" y="120.302675" style="stroke: #000000; stroke-width: 0.8"/>
      </g>
     </g>
     <g id="text_16">
      <!-- 18 -->
      <g transform="translate(24.935 124.101894) scale(0.1 -0.1)">
       <use xlink:href="#DejaVuSans-31"/>
       <use xlink:href="#DejaVuSans-38" transform="translate(63.623047 0)"/>
      </g>
     </g>
    </g>
    <g id="ytick_7">
     <g id="line2d_31">
      <path d="M 44.66 75.166897 
L 709.2 75.166897 
" clip-path="url(#p5348a0ac89)" style="fill: none; stroke-dasharray: 2.96,1.28; stroke-dashoffset: 0; stroke: #b0b0b0; stroke-opacity: 0.4; stroke-width: 0.8"/>
     </g>
     <g id="line2d_32">
      <g>
       <use xlink:href="#meb2abfd972" x="44.66" y="75.166897" style="stroke: #000000; stroke-width: 0.8"/>
      </g>
     </g>
     <g id="text_17">
      <!-- 20 -->
      <g transform="translate(24.935 78.966115) scale(0.1 -0.1)">
       <use xlink:href="#DejaVuSans-32"/>
       <use xlink:href="#DejaVuSans-30" transform="translate(63.623047 0)"/>
      </g>
     </g>
    </g>
    <g id="ytick_8">
     <g id="line2d_33">
      <path d="M 44.66 30.031118 
L 709.2 30.031118 
" clip-path="url(#p5348a0ac89)" style="fill: none; stroke-dasharray: 2.96,1.28; stroke-dashoffset: 0; stroke: #b0b0b0; stroke-opacity: 0.4; stroke-width: 0.8"/>
     </g>
     <g id="line2d_34">
      <g>
       <use xlink:href="#meb2abfd972" x="44.66" y="30.031118" style="stroke: #000000; stroke-width: 0.8"/>
      </g>
     </g>
     <g id="text_18">
      <!-- 22 -->
      <g transform="translate(24.935 33.830337) scale(0.1 -0.1)">
       <use xlink:href="#DejaVuSans-32"/>
       <use xlink:href="#DejaVuSans-32" transform="translate(63.623047 0)"/>
      </g>
     </g>
    </g>
    <g id="text_19">
     <!-- Amplitudine -->
     <g transform="translate(18.855313 239.000469) rotate(-90) scale(0.1 -0.1)">
      <defs>
       <path id="DejaVuSans-41" d="M 2188 4044 
L 1331 1722 
L 3047 1722 
L 2188 4044 
z
M 1831 4666 
L 2547 4666 
L 4325 0 
L 3669 0 
L 3244 1197 
L 1141 1197 
L 716 0 
L 50 0 
L 1831 4666 
z
" transform="scale(0.015625)"/>
       <path id="DejaVuSans-6c" d="M 603 4863 
L 1178 4863 
L 1178 0 
L 603 0 
L 603 4863 
z
" transform="scale(0.015625)"/>
       <path id="DejaVuSans-74" d="M 1172 4494 
L 1172 3500 
L 2356 3500 
L 2356 3053 
L 1172 3053 
L 1172 1153 
Q 1172 725 1289 603 
Q 1406 481 1766 481 
L 2356 481 
L 2356 0 
L 1766 0 
Q 1100 0 847 248 
Q 594 497 594 1153 
L 594 3053 
L 172 3053 
L 172 3500 
L 594 3500 
L 594 4494 
L 1172 4494 
z
" transform="scale(0.015625)"/>
       <path id="DejaVuSans-75" d="M 544 1381 
L 544 3500 
L 1119 3500 
L 1119 1403 
Q 1119 906 1312 657 
Q 1506 409 1894 409 
Q 2359 409 2629 706 
Q 2900 1003 2900 1516 
L 2900 3500 
L 3475 3500 
L 3475 0 
L 2900 0 
L 2900 538 
Q 2691 219 2414 64 
Q 2138 -91 1772 -91 
Q 1169 -91 856 284 
Q 544 659 544 1381 
z
M 1991 3584 
L 1991 3584 
z
" transform="scale(0.015625)"/>
       <path id="DejaVuSans-64" d="M 2906 2969 
L 2906 4863 
L 3481 4863 
L 3481 0 
L 2906 0 
L 2906 525 
Q 2725 213 2448 61 
Q 2172 -91 1784 -91 
Q 1150 -91 751 415 
Q 353 922 353 1747 
Q 353 2572 751 3078 
Q 1150 3584 1784 3584 
Q 2172 3584 2448 3432 
Q 2725 3281 2906 2969 
z
M 947 1747 
Q 947 1113 1208 752 
Q 1469 391 1925 391 
Q 2381 391 2643 752 
Q 2906 1113 2906 1747 
Q 2906 2381 2643 2742 
Q 2381 3103 1925 3103 
Q 1469 3103 1208 2742 
Q 947 2381 947 1747 
z
" transform="scale(0.015625)"/>
       <path id="DejaVuSans-6e" d="M 3513 2113 
L 3513 0 
L 2938 0 
L 2938 2094 
Q 2938 2591 2744 2837 
Q 2550 3084 2163 3084 
Q 1697 3084 1428 2787 
Q 1159 2491 1159 1978 
L 1159 0 
L 581 0 
L 581 3500 
L 1159 3500 
L 1159 2956 
Q 1366 3272 1645 3428 
Q 1925 3584 2291 3584 
Q 2894 3584 3203 3211 
Q 3513 2838 3513 2113 
z
" transform="scale(0.015625)"/>
       <path id="DejaVuSans-65" d="M 3597 1894 
L 3597 1613 
L 953 1613 
Q 991 1019 1311 708 
Q 1631 397 2203 397 
Q 2534 397 2845 478 
Q 3156 559 3463 722 
L 3463 178 
Q 3153 47 2828 -22 
Q 2503 -91 2169 -91 
Q 1331 -91 842 396 
Q 353 884 353 1716 
Q 353 2575 817 3079 
Q 1281 3584 2069 3584 
Q 2775 3584 3186 3129 
Q 3597 2675 3597 1894 
z
M 3022 2063 
Q 3016 2534 2758 2815 
Q 2500 3097 2075 3097 
Q 1594 3097 1305 2825 
Q 1016 2553 972 2059 
L 3022 2063 
z
" transform="scale(0.015625)"/>
      </defs>
      <use xlink:href="#DejaVuSans-41"/>
      <use xlink:href="#DejaVuSans-6d" transform="translate(68.408203 0)"/>
      <use xlink:href="#DejaVuSans-70" transform="translate(165.820312 0)"/>
      <use xlink:href="#DejaVuSans-6c" transform="translate(229.296875 0)"/>
      <use xlink:href="#DejaVuSans-69" transform="translate(257.080078 0)"/>
      <use xlink:href="#DejaVuSans-74" transform="translate(284.863281 0)"/>
      <use xlink:href="#DejaVuSans-75" transform="translate(324.072266 0)"/>
      <use xlink:href="#DejaVuSans-64" transform="translate(387.451172 0)"/>
      <use xlink:href="#DejaVuSans-69" transform="translate(450.927734 0)"/>
      <use xlink:href="#DejaVuSans-6e" transform="translate(478.710938 0)"/>
      <use xlink:href="#DejaVuSans-65" transform="translate(542.089844 0)"/>
     </g>
    </g>
   </g>
   <g id="line2d_35">
    <path d="M 74.866364 365.286002 
L 76.380467 364.079143 
L 77.894571 364.169412 
L 79.408674 351.707944 
L 80.922777 355.441741 
L 82.436881 363.862858 
L 83.950984 357.663332 
L 85.465088 345.068574 
L 86.979191 347.889351 
L 88.493295 343.670265 
L 90.007398 347.401396 
L 91.521501 358.282305 
L 93.035605 350.115184 
L 94.549708 349.262962 
L 96.063812 347.674027 
L 97.577915 361.494893 
L 99.092019 353.043209 
L 100.606122 346.943075 
L 103.634329 348.089467 
L 105.148432 352.423308 
L 106.662536 352.869115 
L 108.176639 357.645605 
L 109.690743 346.824439 
L 111.204846 337.481357 
L 112.71895 354.891639 
L 114.233053 349.210989 
L 115.747157 341.763425 
L 117.26126 345.274919 
L 120.289467 334.899047 
L 121.80357 330.588894 
L 123.317674 330.159095 
L 124.831777 340.99843 
L 126.345881 338.29363 
L 127.859984 329.242208 
L 129.374087 339.542835 
L 130.888191 333.961887 
L 132.402294 334.14134 
L 133.916398 331.478501 
L 135.430501 331.005316 
L 136.944605 336.918359 
L 138.458708 338.61052 
L 139.972812 340.902262 
L 141.486915 341.060963 
L 143.001018 347.388272 
L 144.515122 342.63807 
L 146.029225 349.219798 
L 147.543329 349.880542 
L 149.057432 344.650943 
L 150.571536 350.079968 
L 152.085639 353.606433 
L 153.599743 345.100467 
L 155.113846 346.081656 
L 156.627949 346.070174 
L 158.142053 339.36972 
L 159.656156 349.506888 
L 161.17026 344.244728 
L 162.684363 335.503415 
L 164.198467 338.763256 
L 165.71257 333.487885 
L 167.226674 341.528856 
L 168.740777 327.921174 
L 170.25488 328.115216 
L 171.768984 326.096674 
L 173.283087 332.581743 
L 174.797191 322.676527 
L 176.311294 338.797685 
L 177.825398 337.721799 
L 179.339501 330.896946 
L 180.853604 334.434731 
L 182.367708 339.704829 
L 183.881811 339.033019 
L 185.395915 336.235607 
L 186.910018 342.320352 
L 188.424122 340.017817 
L 189.938225 346.203326 
L 191.452329 333.231102 
L 194.480535 341.467278 
L 195.994639 322.950623 
L 197.508742 340.051623 
L 199.022846 329.917818 
L 200.536949 333.90372 
L 202.051053 325.416025 
L 203.565156 325.051793 
L 205.07926 312.409651 
L 206.593363 314.093111 
L 208.107466 321.150055 
L 209.62157 312.748323 
L 211.135673 321.358891 
L 212.649777 319.698629 
L 215.677984 310.807853 
L 217.192087 314.70839 
L 218.70619 307.156095 
L 220.220294 313.004817 
L 221.734397 301.816288 
L 223.248501 314.139244 
L 224.762604 311.054524 
L 226.276708 306.382454 
L 227.790811 308.34087 
L 229.304915 306.168784 
L 230.819018 305.697737 
L 232.333121 305.819976 
L 233.847225 301.02882 
L 235.361328 307.421667 
L 236.875432 306.855151 
L 238.389535 297.619784 
L 239.903639 299.258567 
L 241.417742 299.609304 
L 242.931846 303.149794 
L 244.445949 296.085241 
L 245.960052 290.169113 
L 247.474156 287.144002 
L 248.988259 279.1514 
L 250.502363 279.259934 
L 252.016466 274.480374 
L 253.53057 275.996233 
L 255.044673 281.453357 
L 256.558776 281.879554 
L 258.07288 274.319522 
L 259.586983 273.390022 
L 261.101087 270.100416 
L 262.61519 269.930541 
L 264.129294 281.816434 
L 265.643397 270.804053 
L 267.157501 278.86216 
L 268.671604 269.534754 
L 270.185707 282.178891 
L 271.699811 266.356211 
L 273.213914 271.014193 
L 274.728018 271.281106 
L 276.242121 278.748661 
L 277.756225 276.308497 
L 279.270328 285.104101 
L 280.784432 281.723825 
L 282.298535 274.933738 
L 283.812638 275.250568 
L 285.326742 279.652023 
L 286.840845 268.0192 
L 288.354949 264.605101 
L 289.869052 264.376908 
L 291.383156 274.420316 
L 292.897259 267.311341 
L 294.411362 269.597654 
L 295.925466 268.418403 
L 297.439569 261.6846 
L 298.953673 269.710508 
L 300.467776 261.382219 
L 301.98188 264.39629 
L 303.495983 266.353902 
L 305.010087 272.035825 
L 306.52419 267.366515 
L 308.038293 270.688843 
L 309.552397 277.476326 
L 311.0665 273.592847 
L 312.580604 278.585752 
L 314.094707 269.591162 
L 315.608811 275.941237 
L 317.122914 269.846857 
L 318.637018 273.958023 
L 320.151121 273.926175 
L 321.665224 269.201986 
L 323.179328 280.225073 
L 324.693431 274.299051 
L 326.207535 269.477303 
L 327.721638 274.74443 
L 329.235742 275.368464 
L 330.749845 270.946162 
L 332.263949 263.273674 
L 333.778052 257.75342 
L 335.292155 257.739532 
L 336.806259 259.853643 
L 338.320362 257.69976 
L 339.834466 264.872134 
L 341.348569 250.828117 
L 342.862673 251.987989 
L 344.376776 248.145394 
L 345.890879 252.644354 
L 347.404983 252.061471 
L 348.919086 254.751608 
L 350.43319 254.53277 
L 351.947293 245.082159 
L 353.461397 257.435323 
L 354.9755 241.347675 
L 356.489604 257.587824 
L 358.003707 253.622986 
L 359.51781 246.892312 
L 361.031914 247.856292 
L 362.546017 257.307492 
L 364.060121 248.93635 
L 365.574224 254.655571 
L 367.088328 244.744071 
L 368.602431 247.110009 
L 370.116535 247.267763 
L 371.630638 237.906725 
L 373.144741 236.573163 
L 374.658845 237.707603 
L 376.172948 236.940086 
L 377.687052 230.471215 
L 379.201155 233.24268 
L 380.715259 221.237517 
L 382.229362 222.923044 
L 383.743465 210.323291 
L 385.257569 222.176698 
L 386.771672 223.093652 
L 388.285776 215.142937 
L 389.799879 212.508182 
L 391.313983 216.52653 
L 392.828086 210.231594 
L 394.34219 215.792595 
L 395.856293 214.961677 
L 397.370396 212.528561 
L 398.8845 218.272416 
L 400.398603 221.148531 
L 401.912707 212.970024 
L 403.42681 209.403258 
L 404.940914 214.585852 
L 406.455017 214.144293 
L 407.969121 214.260993 
L 409.483224 206.316982 
L 410.997327 213.076374 
L 412.511431 203.982471 
L 414.025534 203.261455 
L 415.539638 206.950873 
L 417.053741 204.681112 
L 418.567845 203.117998 
L 420.081948 203.4071 
L 421.596051 190.152811 
L 423.110155 193.627284 
L 424.624258 191.441339 
L 426.138362 189.956834 
L 427.652465 191.107009 
L 429.166569 186.169835 
L 430.680672 191.312163 
L 432.194776 188.064378 
L 433.708879 193.676607 
L 435.222982 194.098846 
L 436.737086 203.559953 
L 438.251189 192.109619 
L 439.765293 195.562833 
L 441.279396 189.849664 
L 442.7935 182.353636 
L 444.307603 205.700731 
L 445.821707 196.389614 
L 447.33581 198.138991 
L 448.849913 203.706266 
L 450.364017 206.443415 
L 451.87812 200.463694 
L 453.392224 200.624976 
L 454.906327 200.521795 
L 456.420431 193.545058 
L 457.934534 203.41719 
L 459.448638 190.218286 
L 460.962741 183.921393 
L 462.476844 195.410007 
L 463.990948 178.501863 
L 465.505051 191.046959 
L 467.019155 188.379379 
L 468.533258 183.715052 
L 470.047362 184.454569 
L 471.561465 179.638437 
L 473.075568 185.511697 
L 474.589672 183.304879 
L 476.103775 185.289849 
L 477.617879 182.407445 
L 479.131982 177.791881 
L 480.646086 178.842008 
L 482.160189 184.514278 
L 483.674293 185.344513 
L 485.188396 179.410559 
L 486.702499 183.202419 
L 488.216603 182.114253 
L 489.730706 191.654125 
L 491.24481 180.299459 
L 492.758913 181.651028 
L 494.273017 184.746946 
L 495.78712 184.589069 
L 497.301224 175.942066 
L 498.815327 186.213566 
L 500.32943 177.637922 
L 501.843534 172.139297 
L 503.357637 178.058421 
L 504.871741 176.335817 
L 506.385844 176.405244 
L 507.899948 163.486811 
L 509.414051 174.161974 
L 510.928154 162.793326 
L 512.442258 159.288007 
L 513.956361 150.96796 
L 515.470465 145.269909 
L 516.984568 149.904601 
L 518.498672 148.818646 
L 520.012775 152.645503 
L 521.526879 142.008992 
L 523.040982 143.86655 
L 524.555085 146.915724 
L 526.069189 148.225911 
L 527.583292 155.405338 
L 529.097396 161.769437 
L 530.611499 133.105453 
L 532.125603 147.558965 
L 533.639706 146.34147 
L 535.15381 144.044323 
L 536.667913 150.499211 
L 538.182016 138.788031 
L 539.69612 135.432801 
L 541.210223 138.282164 
L 542.724327 145.110858 
L 544.23843 130.859832 
L 545.752534 135.313151 
L 547.266637 133.295906 
L 548.78074 135.633335 
L 550.294844 125.003687 
L 551.808947 122.948145 
L 553.323051 122.739371 
L 554.837154 113.324698 
L 556.351258 114.110339 
L 557.865361 114.252483 
L 559.379465 102.222894 
L 560.893568 122.625152 
L 562.407671 110.100052 
L 563.921775 107.026749 
L 565.435878 107.723409 
L 566.949982 106.702339 
L 568.464085 111.46721 
L 569.978189 106.720495 
L 571.492292 117.590206 
L 573.006396 115.969507 
L 574.520499 120.155496 
L 576.034602 120.683229 
L 577.548706 115.390421 
L 579.062809 109.457567 
L 580.576913 115.837858 
L 582.091016 116.271869 
L 583.60512 113.197802 
L 585.119223 107.275421 
L 586.633326 105.166322 
L 588.14743 100.30259 
L 589.661533 105.184774 
L 591.175637 107.986331 
L 592.68974 94.218008 
L 594.203844 94.814342 
L 595.717947 101.838968 
L 597.232051 98.866347 
L 598.746154 100.437457 
L 600.260257 88.467186 
L 601.774361 91.62252 
L 603.288464 105.513794 
L 604.802568 87.264853 
L 606.316671 96.150529 
L 607.830775 94.11526 
L 609.344878 98.967637 
L 610.858982 97.719602 
L 612.373085 99.5345 
L 613.887188 94.160975 
L 615.401292 104.198281 
L 616.915395 105.840512 
L 618.429499 101.100966 
L 619.943602 101.573963 
L 621.457706 100.166804 
L 622.971809 101.97411 
L 624.485913 105.718188 
L 626.000016 101.237817 
L 627.514119 104.35406 
L 629.028223 99.231684 
L 630.542326 97.577785 
L 632.05643 93.686941 
L 633.570533 93.035708 
L 635.084637 95.860454 
L 636.59874 91.731523 
L 638.112843 88.956167 
L 639.626947 84.579276 
L 641.14105 87.011111 
L 642.655154 85.418641 
L 644.169257 79.357367 
L 645.683361 79.63186 
L 647.197464 81.1625 
L 648.711568 78.435567 
L 650.225671 72.313516 
L 651.739774 73.742486 
L 653.253878 79.601414 
L 654.767981 78.486568 
L 656.282085 64.161701 
L 657.796188 67.688218 
L 659.310292 77.464643 
L 660.824395 67.956947 
L 662.338499 73.264097 
L 663.852602 74.233782 
L 665.366705 76.971501 
L 666.880809 67.357835 
L 668.394912 81.465176 
L 669.909016 68.945305 
L 671.423119 67.094801 
L 672.937223 56.143699 
L 674.451326 65.052621 
L 675.965429 59.492741 
L 677.479533 55.047865 
L 678.993636 44.074545 
L 678.993636 44.074545 
" clip-path="url(#p5348a0ac89)" style="fill: none; stroke: #2ca02c; stroke-width: 2; stroke-linecap: square"/>
   </g>
   <g id="line2d_36">
    <path d="M 74.866364 373.565455 
L 77.894571 367.228003 
L 79.408674 363.013648 
L 80.922777 360.128711 
L 82.436881 356.410653 
L 83.950984 356.385776 
L 85.465088 357.266152 
L 86.979191 351.554577 
L 90.007398 346.409144 
L 91.521501 346.407185 
L 93.035605 349.732686 
L 94.549708 351.545316 
L 97.577915 350.216057 
L 99.092019 354.351844 
L 100.606122 354.743468 
L 102.120226 351.38425 
L 103.634329 351.274352 
L 105.148432 350.054127 
L 106.662536 349.092924 
L 108.176639 349.341091 
L 111.204846 350.699881 
L 112.71895 345.272368 
L 114.233053 348.222651 
L 117.26126 345.016379 
L 118.775363 344.739361 
L 120.289467 342.282694 
L 121.80357 338.90896 
L 123.317674 332.708694 
L 124.831777 329.393161 
L 126.345881 332.979413 
L 127.859984 334.601018 
L 129.374087 334.290671 
L 130.888191 334.373809 
L 132.402294 333.624058 
L 133.916398 335.683405 
L 135.430501 334.404849 
L 136.944605 332.365111 
L 138.458708 334.475193 
L 143.001018 338.40572 
L 144.515122 341.006839 
L 146.029225 344.725932 
L 147.543329 346.310414 
L 149.057432 348.086162 
L 150.571536 347.51203 
L 152.085639 348.472056 
L 153.599743 349.843127 
L 155.113846 347.31967 
L 156.627949 345.878138 
L 158.142053 343.755809 
L 159.656156 342.368852 
L 161.17026 342.598772 
L 162.684363 342.449065 
L 164.198467 339.414668 
L 165.71257 337.560633 
L 167.226674 334.82402 
L 168.740777 336.840244 
L 170.25488 332.140366 
L 171.768984 329.337784 
L 173.283087 328.152512 
L 174.797191 327.772718 
L 176.311294 325.815638 
L 177.825398 329.120831 
L 180.853604 335.108664 
L 182.367708 334.301279 
L 183.881811 337.510052 
L 185.395915 337.643637 
L 186.910018 339.529314 
L 188.424122 339.061448 
L 189.938225 341.345094 
L 191.452329 340.772389 
L 192.966432 338.864973 
L 194.480535 336.282689 
L 195.994639 336.897821 
L 197.508742 331.858253 
L 199.022846 333.169517 
L 200.536949 330.143349 
L 202.051053 329.761056 
L 203.565156 328.715002 
L 206.593363 320.125157 
L 208.107466 315.25032 
L 211.135673 315.435274 
L 212.649777 313.84838 
L 214.16388 318.136832 
L 215.677984 315.768612 
L 217.192087 315.404362 
L 218.70619 313.091306 
L 220.220294 312.987354 
L 221.734397 312.03814 
L 223.248501 307.673236 
L 224.762604 309.240981 
L 226.276708 307.55903 
L 227.790811 307.236414 
L 229.304915 306.545429 
L 230.819018 306.602507 
L 232.333121 305.760761 
L 233.847225 307.212943 
L 235.361328 302.35062 
L 236.875432 305.02001 
L 238.389535 303.643057 
L 239.903639 302.48742 
L 241.417742 299.212593 
L 242.931846 297.971698 
L 244.445949 299.798261 
L 245.960052 298.555577 
L 247.474156 293.843205 
L 248.988259 290.393214 
L 250.502363 284.451826 
L 252.016466 280.340169 
L 253.53057 275.652305 
L 255.044673 272.862196 
L 256.558776 275.579425 
L 258.07288 277.354691 
L 259.586983 276.454107 
L 261.101087 274.583214 
L 262.61519 273.300056 
L 264.129294 273.244358 
L 265.643397 275.582171 
L 267.157501 274.442895 
L 268.671604 275.427604 
L 270.185707 273.129375 
L 271.699811 275.423154 
L 273.213914 272.296841 
L 274.728018 270.228409 
L 276.242121 270.45934 
L 277.756225 274.109929 
L 279.270328 273.70437 
L 280.784432 278.5741 
L 282.298535 277.579476 
L 283.812638 279.884521 
L 285.326742 275.937937 
L 286.840845 279.106344 
L 288.354949 272.411162 
L 289.869052 269.716848 
L 291.383156 263.962179 
L 292.897259 266.534762 
L 294.411362 263.860846 
L 295.925466 265.172506 
L 297.439569 265.280195 
L 298.953673 264.933508 
L 300.467776 266.502312 
L 301.98188 265.409533 
L 303.495983 263.213929 
L 305.010087 264.825539 
L 306.52419 266.81518 
L 308.038293 268.091567 
L 309.552397 266.831044 
L 311.0665 270.802614 
L 312.580604 273.97853 
L 314.094707 275.536237 
L 315.608811 274.750612 
L 318.637018 272.636754 
L 320.151121 271.12789 
L 321.665224 271.310108 
L 323.179328 268.636265 
L 324.693431 271.724559 
L 326.207535 273.276092 
L 327.721638 270.238527 
L 329.235742 272.090348 
L 330.749845 271.837788 
L 332.263949 273.358299 
L 335.292155 262.454375 
L 336.806259 258.940163 
L 338.320362 256.279262 
L 339.834466 255.420445 
L 341.348569 256.767257 
L 342.862673 254.178222 
L 344.376776 253.364545 
L 345.890879 250.496432 
L 347.404983 249.803609 
L 348.919086 250.487903 
L 350.43319 252.553135 
L 351.947293 253.373168 
L 353.461397 250.912893 
L 354.9755 250.660899 
L 356.489604 248.308575 
L 358.003707 249.508663 
L 359.51781 252.529385 
L 361.031914 250.346876 
L 362.546017 249.24652 
L 364.060121 249.934039 
L 365.574224 249.237102 
L 367.088328 251.805312 
L 368.602431 246.728815 
L 370.116535 249.194335 
L 371.630638 245.270715 
L 373.144741 242.830867 
L 374.658845 237.248752 
L 376.172948 235.826306 
L 377.687052 234.078103 
L 379.201155 233.419658 
L 380.715259 229.006365 
L 383.743465 223.213748 
L 385.257569 217.590519 
L 386.771672 216.953202 
L 388.285776 217.754547 
L 389.799879 216.846977 
L 391.313983 214.530914 
L 392.828086 214.611999 
L 394.34219 211.739492 
L 395.856293 214.437952 
L 397.370396 212.628901 
L 398.8845 214.730541 
L 400.398603 214.771803 
L 401.912707 218.028208 
L 403.42681 215.40292 
L 404.940914 212.436427 
L 406.455017 211.832707 
L 407.969121 214.015779 
L 409.483224 212.411045 
L 410.997327 208.964535 
L 412.511431 208.75986 
L 415.539638 203.598197 
L 417.053741 202.987528 
L 418.567845 202.225199 
L 420.081948 202.241381 
L 421.596051 202.795348 
L 423.110155 196.285115 
L 424.624258 193.999433 
L 426.138362 190.228814 
L 427.652465 190.285563 
L 430.680672 186.468458 
L 432.194776 187.35131 
L 433.708879 187.198839 
L 435.222982 188.101461 
L 436.737086 191.6959 
L 438.251189 196.057253 
L 439.765293 197.225112 
L 441.279396 196.827158 
L 442.7935 193.360218 
L 444.307603 188.7602 
L 445.821707 192.273978 
L 447.33581 194.160271 
L 448.849913 194.308573 
L 450.364017 197.903768 
L 451.87812 199.643312 
L 453.392224 202.421143 
L 454.906327 199.919367 
L 456.420431 200.353774 
L 457.934534 199.112511 
L 459.448638 197.679045 
L 460.962741 194.887302 
L 462.476844 186.462329 
L 463.990948 186.728648 
L 465.505051 182.234286 
L 467.019155 184.234992 
L 468.533258 183.177684 
L 470.047362 183.158327 
L 471.561465 184.671476 
L 473.075568 180.712184 
L 474.589672 182.691067 
L 476.103775 182.558071 
L 477.617879 182.096659 
L 479.131982 184.552056 
L 480.646086 179.501443 
L 482.160189 179.140457 
L 483.674293 179.406477 
L 485.188396 180.780671 
L 486.702499 180.604334 
L 488.216603 180.731964 
L 489.730706 181.452768 
L 491.24481 184.035501 
L 494.273017 181.536657 
L 497.301224 183.10666 
L 498.815327 179.626133 
L 500.32943 179.747512 
L 501.843534 177.101302 
L 503.357637 176.090419 
L 504.871741 173.688593 
L 506.385844 174.011161 
L 507.899948 172.758515 
L 509.414051 169.399641 
L 510.928154 168.878336 
L 512.442258 166.761669 
L 513.956361 160.916067 
L 515.470465 156.306865 
L 516.984568 149.164433 
L 518.498672 146.540075 
L 521.526879 145.69201 
L 523.040982 144.413056 
L 524.555085 141.840656 
L 526.069189 145.75328 
L 527.583292 145.501653 
L 529.097396 149.895296 
L 530.611499 155.388174 
L 532.125603 149.425849 
L 533.639706 148.151566 
L 535.15381 144.662468 
L 536.667913 144.041218 
L 538.182016 143.953914 
L 539.69612 141.526878 
L 541.210223 138.408085 
L 542.724327 136.493339 
L 544.23843 135.436821 
L 545.752534 135.111758 
L 547.266637 131.264042 
L 548.78074 133.852775 
L 550.294844 134.131852 
L 551.808947 128.407519 
L 553.323051 124.117828 
L 554.837154 121.737194 
L 556.351258 118.481095 
L 557.865361 114.053815 
L 559.379465 112.51508 
L 560.893568 104.775385 
L 562.407671 110.816407 
L 563.921775 109.620095 
L 565.435878 109.140252 
L 566.949982 106.80216 
L 568.464085 106.879203 
L 569.978189 109.381974 
L 571.492292 107.695422 
L 573.006396 109.801333 
L 574.520499 114.234794 
L 576.034602 114.63187 
L 577.548706 119.138643 
L 579.062809 116.330134 
L 580.576913 113.961455 
L 582.091016 114.175333 
L 583.60512 113.67673 
L 585.119223 112.497631 
L 586.633326 107.175685 
L 588.14743 105.171273 
L 589.661533 100.378647 
L 591.175637 99.874954 
L 592.68974 100.528352 
L 594.203844 98.106539 
L 595.717947 95.222693 
L 597.232051 96.847275 
L 598.746154 96.373362 
L 600.260257 96.822394 
L 601.774361 92.64084 
L 603.288464 92.445365 
L 604.802568 96.473329 
L 606.316671 92.744192 
L 607.830775 92.565898 
L 609.344878 91.177993 
L 610.858982 94.531498 
L 612.373085 96.921201 
L 613.887188 95.346883 
L 615.401292 94.720578 
L 616.915395 98.35615 
L 618.429499 100.801514 
L 619.943602 102.725981 
L 621.457706 98.757364 
L 622.971809 100.063577 
L 624.485913 99.687968 
L 626.000016 101.476118 
L 627.514119 98.599097 
L 629.028223 100.815627 
L 630.542326 98.665693 
L 632.05643 97.801164 
L 633.570533 94.153636 
L 635.084637 91.082726 
L 636.59874 91.493261 
L 638.112843 90.827983 
L 641.14105 85.308987 
L 642.655154 83.275842 
L 644.169257 83.512615 
L 645.683361 80.501641 
L 647.197464 79.071502 
L 648.711568 78.588186 
L 650.225671 77.741879 
L 651.739774 74.663545 
L 653.253878 71.864131 
L 654.767981 73.861829 
L 656.282085 75.407863 
L 657.796188 71.203931 
L 659.310292 67.826 
L 660.824395 69.630158 
L 662.338499 69.336178 
L 665.366705 69.820052 
L 666.880809 72.448847 
L 668.394912 71.565515 
L 669.909016 73.443642 
L 671.423119 71.539776 
L 672.937223 69.126082 
L 674.451326 63.265755 
L 675.965429 62.289779 
L 677.479533 57.175901 
L 678.993636 54.549074 
L 678.993636 54.549074 
" clip-path="url(#p5348a0ac89)" style="fill: none; stroke-dasharray: 7.4,3.2; stroke-dashoffset: 0; stroke: #d62728; stroke-opacity: 0.7; stroke-width: 2"/>
   </g>
   <g id="patch_3">
    <path d="M 44.66 390.04 
L 44.66 27.6 
" style="fill: none; stroke: #000000; stroke-width: 0.8; stroke-linejoin: miter; stroke-linecap: square"/>
   </g>
   <g id="patch_4">
    <path d="M 709.2 390.04 
L 709.2 27.6 
" style="fill: none; stroke: #000000; stroke-width: 0.8; stroke-linejoin: miter; stroke-linecap: square"/>
   </g>
   <g id="patch_5">
    <path d="M 44.66 390.04 
L 709.2 390.04 
" style="fill: none; stroke: #000000; stroke-width: 0.8; stroke-linejoin: miter; stroke-linecap: square"/>
   </g>
   <g id="patch_6">
    <path d="M 44.66 27.6 
L 709.2 27.6 
" style="fill: none; stroke: #000000; stroke-width: 0.8; stroke-linejoin: miter; stroke-linecap: square"/>
   </g>
   <g id="text_20">
    <!-- AR prediction (p=15, m=400) -->
    <g transform="translate(272.537031 21.6) scale(0.14 -0.14)">
     <defs>
      <path id="DejaVuSans-52" d="M 2841 2188 
Q 3044 2119 3236 1894 
Q 3428 1669 3622 1275 
L 4263 0 
L 3584 0 
L 2988 1197 
Q 2756 1666 2539 1819 
Q 2322 1972 1947 1972 
L 1259 1972 
L 1259 0 
L 628 0 
L 628 4666 
L 2053 4666 
Q 2853 4666 3247 4331 
Q 3641 3997 3641 3322 
Q 3641 2881 3436 2590 
Q 3231 2300 2841 2188 
z
M 1259 4147 
L 1259 2491 
L 2053 2491 
Q 2509 2491 2742 2702 
Q 2975 2913 2975 3322 
Q 2975 3731 2742 3939 
Q 2509 4147 2053 4147 
L 1259 4147 
z
" transform="scale(0.015625)"/>
      <path id="DejaVuSans-20" transform="scale(0.015625)"/>
      <path id="DejaVuSans-72" d="M 2631 2963 
Q 2534 3019 2420 3045 
Q 2306 3072 2169 3072 
Q 1681 3072 1420 2755 
Q 1159 2438 1159 1844 
L 1159 0 
L 581 0 
L 581 3500 
L 1159 3500 
L 1159 2956 
Q 1341 3275 1631 3429 
Q 1922 3584 2338 3584 
Q 2397 3584 2469 3576 
Q 2541 3569 2628 3553 
L 2631 2963 
z
" transform="scale(0.015625)"/>
      <path id="DejaVuSans-63" d="M 3122 3366 
L 3122 2828 
Q 2878 2963 2633 3030 
Q 2388 3097 2138 3097 
Q 1578 3097 1268 2742 
Q 959 2388 959 1747 
Q 959 1106 1268 751 
Q 1578 397 2138 397 
Q 2388 397 2633 464 
Q 2878 531 3122 666 
L 3122 134 
Q 2881 22 2623 -34 
Q 2366 -91 2075 -91 
Q 1284 -91 818 406 
Q 353 903 353 1747 
Q 353 2603 823 3093 
Q 1294 3584 2113 3584 
Q 2378 3584 2631 3529 
Q 2884 3475 3122 3366 
z
" transform="scale(0.015625)"/>
      <path id="DejaVuSans-6f" d="M 1959 3097 
Q 1497 3097 1228 2736 
Q 959 2375 959 1747 
Q 959 1119 1226 758 
Q 1494 397 1959 397 
Q 2419 397 2687 759 
Q 2956 1122 2956 1747 
Q 2956 2369 2687 2733 
Q 2419 3097 1959 3097 
z
M 1959 3584 
Q 2709 3584 3137 3096 
Q 3566 2609 3566 1747 
Q 3566 888 3137 398 
Q 2709 -91 1959 -91 
Q 1206 -91 779 398 
Q 353 888 353 1747 
Q 353 2609 779 3096 
Q 1206 3584 1959 3584 
z
" transform="scale(0.015625)"/>
      <path id="DejaVuSans-28" d="M 1984 4856 
Q 1566 4138 1362 3434 
Q 1159 2731 1159 2009 
Q 1159 1288 1364 580 
Q 1569 -128 1984 -844 
L 1484 -844 
Q 1016 -109 783 600 
Q 550 1309 550 2009 
Q 550 2706 781 3412 
Q 1013 4119 1484 4856 
L 1984 4856 
z
" transform="scale(0.015625)"/>
      <path id="DejaVuSans-3d" d="M 678 2906 
L 4684 2906 
L 4684 2381 
L 678 2381 
L 678 2906 
z
M 678 1631 
L 4684 1631 
L 4684 1100 
L 678 1100 
L 678 1631 
z
" transform="scale(0.015625)"/>
      <path id="DejaVuSans-2c" d="M 750 794 
L 1409 794 
L 1409 256 
L 897 -744 
L 494 -744 
L 750 256 
L 750 794 
z
" transform="scale(0.015625)"/>
      <path id="DejaVuSans-29" d="M 513 4856 
L 1013 4856 
Q 1481 4119 1714 3412 
Q 1947 2706 1947 2009 
Q 1947 1309 1714 600 
Q 1481 -109 1013 -844 
L 513 -844 
Q 928 -128 1133 580 
Q 1338 1288 1338 2009 
Q 1338 2731 1133 3434 
Q 928 4138 513 4856 
z
" transform="scale(0.015625)"/>
     </defs>
     <use xlink:href="#DejaVuSans-41"/>
     <use xlink:href="#DejaVuSans-52" transform="translate(68.408203 0)"/>
     <use xlink:href="#DejaVuSans-20" transform="translate(137.890625 0)"/>
     <use xlink:href="#DejaVuSans-70" transform="translate(169.677734 0)"/>
     <use xlink:href="#DejaVuSans-72" transform="translate(233.154297 0)"/>
     <use xlink:href="#DejaVuSans-65" transform="translate(272.017578 0)"/>
     <use xlink:href="#DejaVuSans-64" transform="translate(333.541016 0)"/>
     <use xlink:href="#DejaVuSans-69" transform="translate(397.017578 0)"/>
     <use xlink:href="#DejaVuSans-63" transform="translate(424.800781 0)"/>
     <use xlink:href="#DejaVuSans-74" transform="translate(479.78125 0)"/>
     <use xlink:href="#DejaVuSans-69" transform="translate(518.990234 0)"/>
     <use xlink:href="#DejaVuSans-6f" transform="translate(546.773438 0)"/>
     <use xlink:href="#DejaVuSans-6e" transform="translate(607.955078 0)"/>
     <use xlink:href="#DejaVuSans-20" transform="translate(671.333984 0)"/>
     <use xlink:href="#DejaVuSans-28" transform="translate(703.121094 0)"/>
     <use xlink:href="#DejaVuSans-70" transform="translate(742.134766 0)"/>
     <use xlink:href="#DejaVuSans-3d" transform="translate(805.611328 0)"/>
     <use xlink:href="#DejaVuSans-31" transform="translate(889.400391 0)"/>
     <use xlink:href="#DejaVuSans-35" transform="translate(953.023438 0)"/>
     <use xlink:href="#DejaVuSans-2c" transform="translate(1016.646484 0)"/>
     <use xlink:href="#DejaVuSans-20" transform="translate(1048.433594 0)"/>
     <use xlink:href="#DejaVuSans-6d" transform="translate(1080.220703 0)"/>
     <use xlink:href="#DejaVuSans-3d" transform="translate(1177.632812 0)"/>
     <use xlink:href="#DejaVuSans-34" transform="translate(1261.421875 0)"/>
     <use xlink:href="#DejaVuSans-30" transform="translate(1325.044922 0)"/>
     <use xlink:href="#DejaVuSans-30" transform="translate(1388.667969 0)"/>
     <use xlink:href="#DejaVuSans-29" transform="translate(1452.291016 0)"/>
    </g>
   </g>
   <g id="legend_1">
    <g id="patch_7">
     <path d="M 51.66 64.95625 
L 150.794375 64.95625 
Q 152.794375 64.95625 152.794375 62.95625 
L 152.794375 34.6 
Q 152.794375 32.6 150.794375 32.6 
L 51.66 32.6 
Q 49.66 32.6 49.66 34.6 
L 49.66 62.95625 
Q 49.66 64.95625 51.66 64.95625 
z
" style="fill: #ffffff; opacity: 0.8; stroke: #cccccc; stroke-linejoin: miter"/>
    </g>
    <g id="line2d_37">
     <path d="M 53.66 40.698438 
L 63.66 40.698438 
L 73.66 40.698438 
" style="fill: none; stroke: #2ca02c; stroke-width: 2; stroke-linecap: square"/>
    </g>
    <g id="text_21">
     <!-- Time Series -->
     <g transform="translate(81.66 44.198438) scale(0.1 -0.1)">
      <defs>
       <path id="DejaVuSans-53" d="M 3425 4513 
L 3425 3897 
Q 3066 4069 2747 4153 
Q 2428 4238 2131 4238 
Q 1616 4238 1336 4038 
Q 1056 3838 1056 3469 
Q 1056 3159 1242 3001 
Q 1428 2844 1947 2747 
L 2328 2669 
Q 3034 2534 3370 2195 
Q 3706 1856 3706 1288 
Q 3706 609 3251 259 
Q 2797 -91 1919 -91 
Q 1588 -91 1214 -16 
Q 841 59 441 206 
L 441 856 
Q 825 641 1194 531 
Q 1563 422 1919 422 
Q 2459 422 2753 634 
Q 3047 847 3047 1241 
Q 3047 1584 2836 1778 
Q 2625 1972 2144 2069 
L 1759 2144 
Q 1053 2284 737 2584 
Q 422 2884 422 3419 
Q 422 4038 858 4394 
Q 1294 4750 2059 4750 
Q 2388 4750 2728 4690 
Q 3069 4631 3425 4513 
z
" transform="scale(0.015625)"/>
       <path id="DejaVuSans-73" d="M 2834 3397 
L 2834 2853 
Q 2591 2978 2328 3040 
Q 2066 3103 1784 3103 
Q 1356 3103 1142 2972 
Q 928 2841 928 2578 
Q 928 2378 1081 2264 
Q 1234 2150 1697 2047 
L 1894 2003 
Q 2506 1872 2764 1633 
Q 3022 1394 3022 966 
Q 3022 478 2636 193 
Q 2250 -91 1575 -91 
Q 1294 -91 989 -36 
Q 684 19 347 128 
L 347 722 
Q 666 556 975 473 
Q 1284 391 1588 391 
Q 1994 391 2212 530 
Q 2431 669 2431 922 
Q 2431 1156 2273 1281 
Q 2116 1406 1581 1522 
L 1381 1569 
Q 847 1681 609 1914 
Q 372 2147 372 2553 
Q 372 3047 722 3315 
Q 1072 3584 1716 3584 
Q 2034 3584 2315 3537 
Q 2597 3491 2834 3397 
z
" transform="scale(0.015625)"/>
      </defs>
      <use xlink:href="#DejaVuSans-54"/>
      <use xlink:href="#DejaVuSans-69" transform="translate(57.958984 0)"/>
      <use xlink:href="#DejaVuSans-6d" transform="translate(85.742188 0)"/>
      <use xlink:href="#DejaVuSans-65" transform="translate(183.154297 0)"/>
      <use xlink:href="#DejaVuSans-20" transform="translate(244.677734 0)"/>
      <use xlink:href="#DejaVuSans-53" transform="translate(276.464844 0)"/>
      <use xlink:href="#DejaVuSans-65" transform="translate(339.941406 0)"/>
      <use xlink:href="#DejaVuSans-72" transform="translate(401.464844 0)"/>
      <use xlink:href="#DejaVuSans-69" transform="translate(442.578125 0)"/>
      <use xlink:href="#DejaVuSans-65" transform="translate(470.361328 0)"/>
      <use xlink:href="#DejaVuSans-73" transform="translate(531.884766 0)"/>
     </g>
    </g>
    <g id="line2d_38">
     <path d="M 53.66 55.376563 
L 63.66 55.376563 
L 73.66 55.376563 
" style="fill: none; stroke-dasharray: 7.4,3.2; stroke-dashoffset: 0; stroke: #d62728; stroke-opacity: 0.7; stroke-width: 2"/>
    </g>
    <g id="text_22">
     <!-- AR prediction -->
     <g transform="translate(81.66 58.876563) scale(0.1 -0.1)">
      <use xlink:href="#DejaVuSans-41"/>
      <use xlink:href="#DejaVuSans-52" transform="translate(68.408203 0)"/>
      <use xlink:href="#DejaVuSans-20" transform="translate(137.890625 0)"/>
      <use xlink:href="#DejaVuSans-70" transform="translate(169.677734 0)"/>
      <use xlink:href="#DejaVuSans-72" transform="translate(233.154297 0)"/>
      <use xlink:href="#DejaVuSans-65" transform="translate(272.017578 0)"/>
      <use xlink:href="#DejaVuSans-64" transform="translate(333.541016 0)"/>
      <use xlink:href="#DejaVuSans-69" transform="translate(397.017578 0)"/>
      <use xlink:href="#DejaVuSans-63" transform="translate(424.800781 0)"/>
      <use xlink:href="#DejaVuSans-74" transform="translate(479.78125 0)"/>
      <use xlink:href="#DejaVuSans-69" transform="translate(518.990234 0)"/>
      <use xlink:href="#DejaVuSans-6f" transform="translate(546.773438 0)"/>
      <use xlink:href="#DejaVuSans-6e" transform="translate(607.955078 0)"/>
     </g>
    </g>
   </g>
  </g>
 </g>
 <defs>
  <clipPath id="p5348a0ac89">
   <rect x="44.66" y="27.6" width="664.54" height="362.44"/>
  </clipPath>
 </defs>
</svg>
