<?xml version="1.0" encoding="utf-8" standalone="no"?>
<!DOCTYPE svg PUBLIC "-//W3C//DTD SVG 1.1//EN"
  "http://www.w3.org/Graphics/SVG/1.1/DTD/svg11.dtd">
<svg xmlns:xlink="http://www.w3.org/1999/xlink" width="460.8pt" height="345.6pt" viewBox="0 0 460.8 345.6" xmlns="http://www.w3.org/2000/svg" version="1.1">
 <metadata>
  <rdf:RDF xmlns:dc="http://purl.org/dc/elements/1.1/" xmlns:cc="http://creativecommons.org/ns#" xmlns:rdf="http://www.w3.org/1999/02/22-rdf-syntax-ns#">
   <cc:Work>
    <dc:type rdf:resource="http://purl.org/dc/dcmitype/StillImage"/>
    <dc:date>2025-12-27T13:38:29.320417</dc:date>
    <dc:format>image/svg+xml</dc:format>
    <dc:creator>
     <cc:Agent>
      <dc:title>Matplotlib v3.10.8, https://matplotlib.org/</dc:title>
     </cc:Agent>
    </dc:creator>
   </cc:Work>
  </rdf:RDF>
 </metadata>
 <defs>
  <style type="text/css">*{stroke-linejoin: round; stroke-linecap: butt}</style>
 </defs>
 <g id="figure_1">
  <g id="patch_1">
   <path d="M 0 345.6 
L 460.8 345.6 
L 460.8 0 
L 0 0 
z
" style="fill: #ffffff"/>
  </g>
  <g id="axes_1">
   <g id="patch_2">
    <path d="M 30.49 317.72 
L 450 317.72 
L 450 34.56 
L 30.49 34.56 
z
" style="fill: #ffffff"/>
   </g>
   <g id="matplotlib.axis_1">
    <g id="xtick_1">
     <g id="line2d_1">
      <defs>
       <path id="m9c11e1976d" d="M 0 0 
L 0 3.5 
" style="stroke: #000000; stroke-width: 0.8"/>
      </defs>
      <g>
       <use xlink:href="#m9c11e1976d" x="49.558636" y="317.72" style="stroke: #000000; stroke-width: 0.8"/>
      </g>
     </g>
     <g id="text_1">
      <!-- 0 -->
      <g transform="translate(46.377386 332.318437) scale(0.1 -0.1)">
       <defs>
        <path id="DejaVuSans-30" d="M 2034 4250 
Q 1547 4250 1301 3770 
Q 1056 3291 1056 2328 
Q 1056 1369 1301 889 
Q 1547 409 2034 409 
Q 2525 409 2770 889 
Q 3016 1369 3016 2328 
Q 3016 3291 2770 3770 
Q 2525 4250 2034 4250 
z
M 2034 4750 
Q 2819 4750 3233 4129 
Q 3647 3509 3647 2328 
Q 3647 1150 3233 529 
Q 2819 -91 2034 -91 
Q 1250 -91 836 529 
Q 422 1150 422 2328 
Q 422 3509 836 4129 
Q 1250 4750 2034 4750 
z
" transform="scale(0.015625)"/>
       </defs>
       <use xlink:href="#DejaVuSans-30"/>
      </g>
     </g>
    </g>
    <g id="xtick_2">
     <g id="line2d_2">
      <g>
       <use xlink:href="#m9c11e1976d" x="125.833182" y="317.72" style="stroke: #000000; stroke-width: 0.8"/>
      </g>
     </g>
     <g id="text_2">
      <!-- 1 -->
      <g transform="translate(122.651932 332.318437) scale(0.1 -0.1)">
       <defs>
        <path id="DejaVuSans-31" d="M 794 531 
L 1825 531 
L 1825 4091 
L 703 3866 
L 703 4441 
L 1819 4666 
L 2450 4666 
L 2450 531 
L 3481 531 
L 3481 0 
L 794 0 
L 794 531 
z
" transform="scale(0.015625)"/>
       </defs>
       <use xlink:href="#DejaVuSans-31"/>
      </g>
     </g>
    </g>
    <g id="xtick_3">
     <g id="line2d_3">
      <g>
       <use xlink:href="#m9c11e1976d" x="202.107727" y="317.72" style="stroke: #000000; stroke-width: 0.8"/>
      </g>
     </g>
     <g id="text_3">
      <!-- 2 -->
      <g transform="translate(198.926477 332.318437) scale(0.1 -0.1)">
       <defs>
        <path id="DejaVuSans-32" d="M 1228 531 
L 3431 531 
L 3431 0 
L 469 0 
L 469 531 
Q 828 903 1448 1529 
Q 2069 2156 2228 2338 
Q 2531 2678 2651 2914 
Q 2772 3150 2772 3378 
Q 2772 3750 2511 3984 
Q 2250 4219 1831 4219 
Q 1534 4219 1204 4116 
Q 875 4013 500 3803 
L 500 4441 
Q 881 4594 1212 4672 
Q 1544 4750 1819 4750 
Q 2544 4750 2975 4387 
Q 3406 4025 3406 3419 
Q 3406 3131 3298 2873 
Q 3191 2616 2906 2266 
Q 2828 2175 2409 1742 
Q 1991 1309 1228 531 
z
" transform="scale(0.015625)"/>
       </defs>
       <use xlink:href="#DejaVuSans-32"/>
      </g>
     </g>
    </g>
    <g id="xtick_4">
     <g id="line2d_4">
      <g>
       <use xlink:href="#m9c11e1976d" x="278.382273" y="317.72" style="stroke: #000000; stroke-width: 0.8"/>
      </g>
     </g>
     <g id="text_4">
      <!-- 3 -->
      <g transform="translate(275.201023 332.318437) scale(0.1 -0.1)">
       <defs>
        <path id="DejaVuSans-33" d="M 2597 2516 
Q 3050 2419 3304 2112 
Q 3559 1806 3559 1356 
Q 3559 666 3084 287 
Q 2609 -91 1734 -91 
Q 1441 -91 1130 -33 
Q 819 25 488 141 
L 488 750 
Q 750 597 1062 519 
Q 1375 441 1716 441 
Q 2309 441 2620 675 
Q 2931 909 2931 1356 
Q 2931 1769 2642 2001 
Q 2353 2234 1838 2234 
L 1294 2234 
L 1294 2753 
L 1863 2753 
Q 2328 2753 2575 2939 
Q 2822 3125 2822 3475 
Q 2822 3834 2567 4026 
Q 2313 4219 1838 4219 
Q 1578 4219 1281 4162 
Q 984 4106 628 3988 
L 628 4550 
Q 988 4650 1302 4700 
Q 1616 4750 1894 4750 
Q 2613 4750 3031 4423 
Q 3450 4097 3450 3541 
Q 3450 3153 3228 2886 
Q 3006 2619 2597 2516 
z
" transform="scale(0.015625)"/>
       </defs>
       <use xlink:href="#DejaVuSans-33"/>
      </g>
     </g>
    </g>
    <g id="xtick_5">
     <g id="line2d_5">
      <g>
       <use xlink:href="#m9c11e1976d" x="354.656818" y="317.72" style="stroke: #000000; stroke-width: 0.8"/>
      </g>
     </g>
     <g id="text_5">
      <!-- 4 -->
      <g transform="translate(351.475568 332.318437) scale(0.1 -0.1)">
       <defs>
        <path id="DejaVuSans-34" d="M 2419 4116 
L 825 1625 
L 2419 1625 
L 2419 4116 
z
M 2253 4666 
L 3047 4666 
L 3047 1625 
L 3713 1625 
L 3713 1100 
L 3047 1100 
L 3047 0 
L 2419 0 
L 2419 1100 
L 313 1100 
L 313 1709 
L 2253 4666 
z
" transform="scale(0.015625)"/>
       </defs>
       <use xlink:href="#DejaVuSans-34"/>
      </g>
     </g>
    </g>
    <g id="xtick_6">
     <g id="line2d_6">
      <g>
       <use xlink:href="#m9c11e1976d" x="430.931364" y="317.72" style="stroke: #000000; stroke-width: 0.8"/>
      </g>
     </g>
     <g id="text_6">
      <!-- 5 -->
      <g transform="translate(427.750114 332.318437) scale(0.1 -0.1)">
       <defs>
        <path id="DejaVuSans-35" d="M 691 4666 
L 3169 4666 
L 3169 4134 
L 1269 4134 
L 1269 2991 
Q 1406 3038 1543 3061 
Q 1681 3084 1819 3084 
Q 2600 3084 3056 2656 
Q 3513 2228 3513 1497 
Q 3513 744 3044 326 
Q 2575 -91 1722 -91 
Q 1428 -91 1123 -41 
Q 819 9 494 109 
L 494 744 
Q 775 591 1075 516 
Q 1375 441 1709 441 
Q 2250 441 2565 725 
Q 2881 1009 2881 1497 
Q 2881 1984 2565 2268 
Q 2250 2553 1709 2553 
Q 1456 2553 1204 2497 
Q 953 2441 691 2322 
L 691 4666 
z
" transform="scale(0.015625)"/>
       </defs>
       <use xlink:href="#DejaVuSans-35"/>
      </g>
     </g>
    </g>
   </g>
   <g id="matplotlib.axis_2">
    <g id="ytick_1">
     <g id="line2d_7">
      <defs>
       <path id="m3ae5b22052" d="M 0 0 
L -3.5 0 
" style="stroke: #000000; stroke-width: 0.8"/>
      </defs>
      <g>
       <use xlink:href="#m3ae5b22052" x="30.49" y="270.686584" style="stroke: #000000; stroke-width: 0.8"/>
      </g>
     </g>
     <g id="text_7">
      <!-- 0 -->
      <g transform="translate(17.1275 274.485803) scale(0.1 -0.1)">
       <use xlink:href="#DejaVuSans-30"/>
      </g>
     </g>
    </g>
    <g id="ytick_2">
     <g id="line2d_8">
      <g>
       <use xlink:href="#m3ae5b22052" x="30.49" y="217.801826" style="stroke: #000000; stroke-width: 0.8"/>
      </g>
     </g>
     <g id="text_8">
      <!-- 5 -->
      <g transform="translate(17.1275 221.601045) scale(0.1 -0.1)">
       <use xlink:href="#DejaVuSans-35"/>
      </g>
     </g>
    </g>
    <g id="ytick_3">
     <g id="line2d_9">
      <g>
       <use xlink:href="#m3ae5b22052" x="30.49" y="164.917068" style="stroke: #000000; stroke-width: 0.8"/>
      </g>
     </g>
     <g id="text_9">
      <!-- 10 -->
      <g transform="translate(10.765 168.716287) scale(0.1 -0.1)">
       <use xlink:href="#DejaVuSans-31"/>
       <use xlink:href="#DejaVuSans-30" transform="translate(63.623047 0)"/>
      </g>
     </g>
    </g>
    <g id="ytick_4">
     <g id="line2d_10">
      <g>
       <use xlink:href="#m3ae5b22052" x="30.49" y="112.03231" style="stroke: #000000; stroke-width: 0.8"/>
      </g>
     </g>
     <g id="text_10">
      <!-- 15 -->
      <g transform="translate(10.765 115.831529) scale(0.1 -0.1)">
       <use xlink:href="#DejaVuSans-31"/>
       <use xlink:href="#DejaVuSans-35" transform="translate(63.623047 0)"/>
      </g>
     </g>
    </g>
    <g id="ytick_5">
     <g id="line2d_11">
      <g>
       <use xlink:href="#m3ae5b22052" x="30.49" y="59.147552" style="stroke: #000000; stroke-width: 0.8"/>
      </g>
     </g>
     <g id="text_11">
      <!-- 20 -->
      <g transform="translate(10.765 62.946771) scale(0.1 -0.1)">
       <use xlink:href="#DejaVuSans-32"/>
       <use xlink:href="#DejaVuSans-30" transform="translate(63.623047 0)"/>
      </g>
     </g>
    </g>
   </g>
   <g id="line2d_12">
    <path d="M 49.558636 261.966915 
L 49.940391 262.13533 
L 50.7039 256.00022 
L 51.085654 258.376163 
L 51.467409 256.163451 
L 51.849163 256.290065 
L 52.230918 252.393067 
L 52.612672 253.272768 
L 52.994427 255.292316 
L 53.376181 256.433857 
L 53.757936 254.778828 
L 54.13969 257.362814 
L 54.521445 254.079267 
L 54.903199 259.197405 
L 55.284954 254.702115 
L 55.666708 260.946952 
L 56.048463 256.672604 
L 56.430217 260.687958 
L 56.811972 262.306609 
L 57.57548 258.174046 
L 57.957235 257.401357 
L 58.338989 260.799185 
L 58.720744 261.000195 
L 59.102498 258.614985 
L 59.484253 258.089528 
L 59.866007 256.578654 
L 60.247762 257.11533 
L 61.011271 254.454581 
L 61.393025 255.710444 
L 61.77478 250.080201 
L 62.156534 255.806278 
L 62.538289 251.604633 
L 62.920043 261.061021 
L 63.301798 250.369214 
L 64.065307 260.179738 
L 64.447061 254.707976 
L 64.828816 258.762274 
L 65.21057 257.069489 
L 65.592325 257.691076 
L 65.974079 261.629236 
L 66.355834 259.56858 
L 66.737588 259.121022 
L 67.119343 262.297028 
L 67.501097 263.022818 
L 67.882851 265.917492 
L 68.264606 266.491697 
L 68.64636 263.217667 
L 69.028115 266.840266 
L 69.409869 266.600056 
L 69.791624 266.164511 
L 70.173378 263.000276 
L 70.555133 265.380303 
L 70.936887 264.72546 
L 71.318642 268.050641 
L 71.700396 267.00471 
L 72.082151 262.628873 
L 72.463905 262.162726 
L 72.84566 263.2036 
L 73.227414 266.925126 
L 73.609169 258.202583 
L 73.990923 264.841169 
L 74.372678 266.671535 
L 74.754432 264.67344 
L 75.136187 261.783707 
L 75.517941 262.948369 
L 75.899696 266.471408 
L 76.28145 266.900678 
L 76.663205 265.067003 
L 77.044959 268.604414 
L 77.426714 267.625753 
L 77.808468 271.258098 
L 78.190222 269.480646 
L 78.571977 273.410831 
L 78.953731 269.577983 
L 79.335486 272.852719 
L 79.71724 271.181502 
L 80.098995 274.135717 
L 80.480749 271.347336 
L 80.862504 272.018451 
L 81.244258 269.513595 
L 81.626013 266.000885 
L 82.007767 269.685483 
L 82.389522 267.383788 
L 82.771276 263.965137 
L 83.534785 265.504823 
L 83.91654 260.739378 
L 84.298294 261.057471 
L 84.680049 260.22725 
L 85.061803 259.049221 
L 85.443558 260.423746 
L 85.825312 260.805625 
L 86.207067 263.31869 
L 86.588821 264.540089 
L 86.970576 266.155875 
L 87.35233 263.917996 
L 87.734085 262.922007 
L 88.115839 264.020084 
L 88.879348 261.657393 
L 89.261102 264.672344 
L 89.642857 266.35813 
L 90.024611 266.8267 
L 90.406366 266.107689 
L 90.78812 259.171748 
L 91.169875 264.215713 
L 91.551629 263.44488 
L 91.933384 262.157877 
L 92.315138 258.138958 
L 92.696893 262.571433 
L 93.078647 257.910387 
L 93.460402 257.840994 
L 93.842156 256.939622 
L 94.223911 251.117176 
L 94.605665 255.137284 
L 94.98742 252.901975 
L 95.369174 253.33626 
L 95.750929 252.851441 
L 96.132683 253.420055 
L 96.514438 255.247594 
L 96.896192 254.114238 
L 97.277947 253.885655 
L 97.659701 255.155332 
L 98.041456 254.005059 
L 98.42321 262.289426 
L 98.804965 257.212127 
L 99.186719 261.214678 
L 99.568473 257.807292 
L 99.950228 261.528404 
L 100.331982 262.164502 
L 100.713737 260.869065 
L 101.095491 261.003018 
L 101.477246 259.447887 
L 101.859 261.33805 
L 102.240755 261.188312 
L 103.004264 263.946469 
L 103.386018 256.934411 
L 103.767773 261.677463 
L 104.149527 260.019056 
L 104.531282 262.644056 
L 104.913036 264.295325 
L 105.294791 259.329332 
L 105.676545 259.907448 
L 106.0583 256.985101 
L 106.440054 259.474697 
L 106.821809 258.868026 
L 107.203563 260.533749 
L 107.585318 259.653028 
L 107.967072 261.229269 
L 108.348827 260.847914 
L 108.730581 264.527582 
L 109.112336 264.199479 
L 109.49409 260.463779 
L 109.875844 265.571195 
L 110.257599 267.44823 
L 110.639353 267.513467 
L 111.021108 269.42447 
L 111.402862 265.299492 
L 111.784617 269.561199 
L 112.166371 269.009307 
L 112.548126 271.173414 
L 112.92988 272.388908 
L 113.311635 270.356467 
L 113.693389 266.108696 
L 114.075144 269.088353 
L 114.456898 269.737849 
L 114.838653 268.021751 
L 115.220407 262.260346 
L 116.365671 265.355894 
L 116.747425 262.788589 
L 117.12918 263.981988 
L 117.510934 267.466701 
L 117.892689 263.08799 
L 118.274443 259.997167 
L 118.656198 261.999773 
L 119.037952 263.342162 
L 119.419707 265.679509 
L 119.801461 263.660323 
L 120.183215 262.428367 
L 120.946724 268.561574 
L 121.328479 264.372746 
L 121.710233 268.742328 
L 122.091988 263.278143 
L 122.473742 263.589649 
L 122.855497 264.615292 
L 123.237251 262.9332 
L 123.619006 267.851159 
L 124.00076 263.755286 
L 124.382515 265.904143 
L 124.764269 260.691118 
L 125.146024 263.645939 
L 125.527778 256.331109 
L 125.909533 256.505173 
L 126.291287 259.79005 
L 126.673042 251.778086 
L 127.054796 253.123837 
L 127.436551 255.530431 
L 127.818305 255.093637 
L 128.20006 256.197074 
L 128.581814 255.267537 
L 128.963569 252.143874 
L 129.345323 252.691294 
L 129.727078 256.201526 
L 130.108832 253.27716 
L 130.490586 254.765235 
L 130.872341 252.849456 
L 131.254095 253.240514 
L 131.63585 252.629669 
L 132.017604 253.338897 
L 132.399359 256.893443 
L 132.781113 257.100304 
L 133.162868 259.522207 
L 133.544622 257.800542 
L 133.926377 258.98796 
L 134.308131 257.504324 
L 134.689886 258.935514 
L 135.07164 256.247338 
L 135.835149 252.623421 
L 136.216904 254.910519 
L 136.598658 250.759777 
L 136.980413 254.362441 
L 137.362167 249.536921 
L 137.743922 251.477478 
L 138.507431 245.916913 
L 138.889185 252.355037 
L 139.27094 251.923346 
L 139.652694 253.896599 
L 140.034449 253.540449 
L 140.416203 251.11233 
L 140.797958 251.692115 
L 141.179712 253.804587 
L 141.561466 251.19869 
L 141.943221 259.035747 
L 142.324975 255.698436 
L 142.70673 256.615237 
L 143.088484 259.854298 
L 143.470239 256.277219 
L 143.851993 259.82326 
L 144.233748 259.670742 
L 144.615502 261.210669 
L 144.997257 260.388842 
L 145.379011 259.201722 
L 145.760766 262.96488 
L 146.14252 257.086618 
L 146.524275 257.236741 
L 146.906029 260.686696 
L 147.669538 253.185724 
L 148.051293 261.071921 
L 148.433047 260.479909 
L 148.814802 259.31441 
L 149.196556 260.42935 
L 149.578311 257.874044 
L 149.960065 257.646995 
L 150.34182 256.599411 
L 150.723574 252.814043 
L 151.105329 252.297489 
L 151.487083 258.103458 
L 151.868837 258.134287 
L 152.250592 260.380668 
L 152.632346 259.424262 
L 153.014101 259.158828 
L 153.395855 264.480092 
L 154.159364 259.5913 
L 154.541119 263.359856 
L 154.922873 261.55869 
L 155.304628 264.865362 
L 155.686382 262.448309 
L 156.068137 264.24545 
L 156.831646 258.150039 
L 157.2134 261.224661 
L 157.595155 259.059895 
L 157.976909 260.146773 
L 158.358664 259.306734 
L 158.740418 255.229678 
L 159.503927 253.296144 
L 159.885682 251.10699 
L 160.267436 257.654388 
L 160.649191 249.057867 
L 161.4127 256.398341 
L 161.794454 250.547859 
L 162.176208 249.565656 
L 162.557963 253.645532 
L 162.939717 253.948742 
L 163.703226 252.063673 
L 164.084981 257.248939 
L 164.466735 248.906577 
L 164.84849 251.471804 
L 165.230244 251.894573 
L 165.611999 253.127295 
L 165.993753 256.107666 
L 166.375508 249.57543 
L 166.757262 253.474477 
L 167.139017 248.897624 
L 167.520771 253.86546 
L 167.902526 250.979608 
L 168.28428 250.495172 
L 168.666035 248.547644 
L 169.047789 250.616094 
L 169.429544 246.404521 
L 169.811298 246.603771 
L 170.193053 243.531506 
L 170.574807 243.626029 
L 170.956562 243.970914 
L 171.338316 244.886848 
L 171.720071 240.042468 
L 172.101825 241.582301 
L 172.483579 243.801096 
L 172.865334 242.399075 
L 173.247088 241.648327 
L 173.628843 245.054432 
L 174.010597 246.548245 
L 174.392352 243.729116 
L 174.774106 242.997988 
L 175.155861 244.142607 
L 175.537615 242.209785 
L 175.91937 246.627069 
L 176.682879 247.273053 
L 177.064633 244.343717 
L 177.446388 246.292264 
L 177.828142 243.517036 
L 178.209897 244.566558 
L 178.591651 248.860121 
L 178.973406 246.487058 
L 179.35516 243.10712 
L 179.736915 243.377064 
L 180.118669 245.649658 
L 180.882178 245.3252 
L 181.263933 243.043451 
L 181.645687 242.775979 
L 182.027442 246.169864 
L 182.409196 238.969947 
L 182.79095 243.832331 
L 183.172705 242.121245 
L 183.554459 242.939965 
L 183.936214 246.436625 
L 184.699723 245.778766 
L 185.081477 243.798443 
L 185.463232 246.370632 
L 185.844986 247.771155 
L 186.226741 244.644413 
L 186.608495 249.2273 
L 186.99025 249.500764 
L 187.372004 247.704784 
L 187.753759 252.348956 
L 188.135513 249.11702 
L 188.517268 251.87962 
L 188.899022 250.351004 
L 189.280777 249.373625 
L 189.662531 252.182095 
L 190.044286 252.0164 
L 190.42604 247.40406 
L 190.807795 251.480381 
L 191.571304 249.436689 
L 191.953058 247.533023 
L 192.334813 246.586818 
L 192.716567 244.440915 
L 193.098322 238.583401 
L 193.480076 243.157384 
L 193.86183 244.932688 
L 194.243585 244.464863 
L 194.625339 242.536757 
L 195.007094 244.698261 
L 195.388848 242.27478 
L 195.770603 249.721512 
L 196.152357 245.043334 
L 196.534112 242.106588 
L 196.915866 248.130333 
L 197.297621 246.828699 
L 197.679375 246.453391 
L 198.06113 244.96564 
L 198.442884 245.819824 
L 198.824639 244.339544 
L 199.206393 247.514128 
L 199.588148 249.092418 
L 200.351657 242.178893 
L 200.733411 245.355093 
L 201.115166 244.312439 
L 201.49692 240.482322 
L 201.878675 243.164872 
L 202.642184 235.570808 
L 203.023938 234.43984 
L 203.405693 232.126099 
L 203.787447 234.843946 
L 204.169201 232.225696 
L 204.550956 236.228087 
L 204.93271 231.46461 
L 205.314465 231.368329 
L 205.696219 230.638356 
L 206.077974 228.909816 
L 206.459728 229.91977 
L 206.841483 231.558648 
L 207.223237 232.510468 
L 207.604992 235.099418 
L 207.986746 232.318534 
L 208.368501 233.477964 
L 208.750255 236.262673 
L 209.13201 232.580157 
L 209.513764 231.991904 
L 209.895519 234.447893 
L 210.277273 230.816022 
L 211.040782 232.394371 
L 211.422537 232.646642 
L 211.804291 229.270051 
L 212.186046 231.635802 
L 212.5678 231.429251 
L 212.949555 228.940853 
L 213.331309 232.059455 
L 213.713064 230.130056 
L 214.094818 230.844004 
L 214.476572 226.088947 
L 214.858327 227.102199 
L 215.240081 223.966798 
L 215.621836 228.623717 
L 216.00359 226.873919 
L 216.385345 227.056907 
L 216.767099 232.103974 
L 217.148854 224.462267 
L 217.530608 226.760376 
L 217.912363 227.459167 
L 218.294117 229.262649 
L 218.675872 228.774792 
L 219.057626 229.053099 
L 219.439381 230.930022 
L 219.821135 228.573383 
L 220.20289 231.7509 
L 220.584644 231.812106 
L 220.966399 236.620443 
L 221.348153 233.126181 
L 221.729908 233.397188 
L 222.111662 235.96214 
L 222.493417 235.927868 
L 223.256926 234.90147 
L 223.63868 233.113973 
L 224.020435 232.751891 
L 224.402189 227.227433 
L 225.165698 232.170986 
L 225.547452 228.906377 
L 225.929207 228.523278 
L 226.310961 227.204412 
L 226.692716 229.772114 
L 227.07447 226.722437 
L 227.456225 227.379874 
L 228.219734 231.817681 
L 228.601488 232.034934 
L 228.983243 230.915615 
L 229.364997 231.2508 
L 229.746752 229.76034 
L 230.128506 234.946063 
L 230.510261 230.549907 
L 230.892015 237.202491 
L 231.27377 230.512771 
L 231.655524 235.840884 
L 232.037279 232.539691 
L 232.419033 233.146849 
L 233.182542 228.853423 
L 233.564297 232.037264 
L 233.946051 229.444874 
L 234.327806 228.059707 
L 234.70956 228.334821 
L 235.091314 227.0679 
L 235.473069 223.437296 
L 235.854823 227.661084 
L 236.236578 222.487578 
L 236.618332 223.507206 
L 237.000087 218.935433 
L 237.381841 221.035823 
L 237.763596 220.295086 
L 238.14535 222.852199 
L 238.527105 216.998599 
L 238.908859 221.375928 
L 239.290614 221.717981 
L 239.672368 219.771437 
L 240.054123 216.718902 
L 240.435877 220.49242 
L 241.199386 219.260875 
L 241.581141 219.626807 
L 241.962895 222.526855 
L 242.34465 227.169535 
L 242.726404 223.717989 
L 243.108159 218.314338 
L 243.489913 220.986507 
L 243.871668 218.568796 
L 244.253422 217.335503 
L 244.635177 217.876544 
L 245.016931 213.422846 
L 245.398686 213.00014 
L 245.78044 213.573332 
L 246.162194 213.611962 
L 246.543949 213.068901 
L 246.925703 208.228808 
L 247.307458 208.541072 
L 247.689212 205.995986 
L 248.070967 205.870154 
L 248.452721 208.149167 
L 248.834476 209.059451 
L 249.21623 203.177975 
L 249.597985 207.783736 
L 249.979739 208.274116 
L 250.361494 208.497516 
L 250.743248 207.277119 
L 251.125003 207.413043 
L 251.888512 212.18919 
L 252.270266 211.81555 
L 252.652021 212.528846 
L 253.033775 212.040277 
L 253.41553 212.744015 
L 253.797284 212.356451 
L 254.179039 212.526155 
L 254.560793 214.97634 
L 254.942548 210.161903 
L 255.324302 210.199013 
L 255.706057 211.061084 
L 256.087811 208.683368 
L 256.469565 212.492205 
L 256.85132 208.953093 
L 257.233074 206.54608 
L 257.614829 206.749385 
L 257.996583 204.998173 
L 258.378338 205.752085 
L 258.760092 208.349473 
L 259.141847 208.842346 
L 259.523601 203.352464 
L 259.905356 207.392485 
L 260.28711 206.567828 
L 260.668865 210.395899 
L 261.050619 208.307735 
L 261.432374 206.98111 
L 261.814128 209.253821 
L 262.195883 209.673056 
L 262.577637 215.019677 
L 262.959392 208.630052 
L 263.341146 211.938853 
L 264.104655 213.990064 
L 264.48641 209.665371 
L 264.868164 215.051306 
L 265.249919 214.271645 
L 265.631673 209.775743 
L 266.395182 214.893631 
L 266.776936 208.312719 
L 267.158691 211.256089 
L 267.540445 211.155837 
L 267.9222 209.904781 
L 268.303954 207.092879 
L 268.685709 207.425817 
L 269.067463 208.01883 
L 269.449218 205.549899 
L 269.830972 207.221964 
L 270.594481 200.994814 
L 270.976236 207.358099 
L 271.35799 200.302156 
L 271.739745 202.064976 
L 272.121499 202.303098 
L 272.885008 205.46832 
L 273.266763 203.153994 
L 273.648517 203.657459 
L 274.030272 203.440609 
L 274.412026 202.476197 
L 274.793781 204.181085 
L 275.175535 202.316809 
L 275.55729 206.664378 
L 275.939044 204.783869 
L 276.320799 201.428627 
L 276.702553 200.979763 
L 277.084307 202.321369 
L 277.466062 200.835156 
L 277.847816 200.313269 
L 278.229571 196.738094 
L 278.611325 195.879984 
L 278.99308 193.364276 
L 279.374834 192.400323 
L 279.756589 195.951908 
L 280.138343 194.180835 
L 280.520098 186.332965 
L 281.283607 191.589576 
L 281.665361 191.437542 
L 282.047116 189.205044 
L 282.42887 185.184376 
L 282.810625 187.766289 
L 283.192379 185.985148 
L 283.574134 188.324324 
L 283.955888 186.924519 
L 284.337643 189.191943 
L 284.719397 192.374712 
L 285.101152 191.763088 
L 285.482906 190.038103 
L 285.864661 190.673705 
L 286.246415 190.081217 
L 286.62817 189.854308 
L 287.391678 188.272536 
L 287.773433 185.413253 
L 288.155187 184.220797 
L 288.536942 188.675004 
L 288.918696 187.69832 
L 289.300451 181.111272 
L 289.682205 186.192503 
L 290.06396 179.986633 
L 290.445714 179.352721 
L 290.827469 182.68352 
L 291.209223 181.373061 
L 291.590978 181.056848 
L 291.972732 177.498807 
L 292.354487 180.078901 
L 292.736241 181.73514 
L 293.117996 176.640443 
L 293.49975 183.151201 
L 293.881505 182.825506 
L 294.263259 183.451299 
L 294.645014 182.638984 
L 295.026768 182.616532 
L 295.408523 188.630629 
L 295.790277 183.462681 
L 296.553786 186.440982 
L 296.935541 187.362163 
L 297.317295 190.247328 
L 297.69905 185.618317 
L 298.080804 182.906375 
L 298.462558 184.054701 
L 298.844313 188.249478 
L 299.607822 180.769361 
L 299.989576 182.45144 
L 300.371331 185.917316 
L 300.753085 181.478534 
L 301.13484 181.251302 
L 301.516594 181.347335 
L 301.898349 180.300767 
L 302.280103 180.374382 
L 302.661858 183.450801 
L 303.807121 175.308992 
L 304.188876 181.152644 
L 304.57063 181.013874 
L 304.952385 184.547176 
L 305.334139 182.559566 
L 305.715894 182.66879 
L 306.097648 183.035225 
L 306.479403 181.098362 
L 306.861157 187.711649 
L 307.624666 182.783116 
L 308.006421 185.533688 
L 308.388175 181.078136 
L 309.151684 182.345195 
L 309.533438 180.599436 
L 309.915193 177.58309 
L 310.296947 180.06379 
L 311.442211 171.423692 
L 311.823965 173.343121 
L 312.20572 172.824442 
L 312.587474 170.545752 
L 312.969229 172.487292 
L 313.350983 169.817849 
L 313.732738 168.165583 
L 314.114492 165.903967 
L 314.496247 174.442667 
L 314.878001 166.488309 
L 315.259756 165.059559 
L 315.64151 167.709542 
L 316.023265 167.007428 
L 316.405019 165.718358 
L 316.786774 166.496639 
L 317.168528 165.264394 
L 317.550283 169.126438 
L 317.932037 167.915134 
L 318.313792 167.090513 
L 318.695546 168.839456 
L 319.0773 164.524903 
L 319.459055 166.598124 
L 319.840809 166.362141 
L 320.222564 160.321942 
L 320.604318 163.197877 
L 320.986073 164.175568 
L 321.367827 159.599376 
L 321.749582 160.638407 
L 322.131336 158.463259 
L 322.513091 155.407025 
L 322.894845 155.716239 
L 323.2766 153.64685 
L 323.658354 153.222771 
L 324.040109 152.082864 
L 324.421863 153.385557 
L 324.803618 152.957446 
L 325.185372 151.803256 
L 325.567127 151.756306 
L 325.948881 151.112956 
L 326.330636 149.708896 
L 326.71239 150.052501 
L 327.094145 154.159285 
L 327.475899 155.48288 
L 327.857654 151.853982 
L 328.239408 156.205907 
L 328.621163 155.017419 
L 329.002917 150.379856 
L 329.384671 157.668668 
L 329.766426 153.506521 
L 330.14818 156.549234 
L 330.529935 153.551865 
L 330.911689 156.175306 
L 331.293444 156.578214 
L 331.675198 153.355067 
L 332.056953 153.613402 
L 332.820462 150.806771 
L 333.202216 150.994532 
L 333.583971 148.727782 
L 333.965725 148.865589 
L 334.34748 146.491925 
L 335.110989 148.209982 
L 335.492743 146.930719 
L 335.874498 148.465174 
L 336.256252 146.125818 
L 336.638007 145.21207 
L 337.019761 149.749974 
L 337.401516 152.288446 
L 337.78327 148.545746 
L 338.165025 151.937272 
L 338.546779 153.109214 
L 338.928534 152.531797 
L 339.310288 151.017674 
L 339.692042 155.197941 
L 340.073797 148.38009 
L 340.837306 154.059409 
L 341.21906 153.596293 
L 341.600815 152.146082 
L 341.982569 154.511237 
L 342.364324 149.946605 
L 342.746078 149.657705 
L 343.127833 152.504023 
L 343.509587 149.085974 
L 343.891342 148.536894 
L 344.273096 148.494341 
L 344.654851 147.565462 
L 345.036605 147.902226 
L 345.41836 146.952727 
L 345.800114 143.176728 
L 346.181869 144.863632 
L 346.563623 142.649987 
L 346.945378 144.128345 
L 347.327132 141.111136 
L 347.708887 143.291305 
L 348.090641 144.371286 
L 348.472396 140.543666 
L 348.85415 142.107087 
L 349.235905 144.957539 
L 349.617659 144.62568 
L 349.999414 142.151894 
L 350.381168 138.399941 
L 350.762922 142.297856 
L 351.144677 143.225891 
L 351.526431 141.117012 
L 351.908186 140.860594 
L 352.28994 137.141151 
L 352.671695 141.399906 
L 353.053449 140.599396 
L 353.435204 133.390653 
L 353.816958 138.914527 
L 354.198713 131.997665 
L 354.580467 132.8518 
L 355.725731 127.836857 
L 356.107485 129.46645 
L 356.48924 126.136387 
L 357.252749 127.648298 
L 357.634503 123.711851 
L 358.016258 123.90877 
L 358.398012 119.499522 
L 358.779767 123.475272 
L 359.161521 125.967549 
L 359.543276 123.395622 
L 359.92503 124.127354 
L 360.306785 127.621752 
L 360.688539 122.832544 
L 361.070293 123.7856 
L 361.452048 122.351589 
L 362.215557 126.333789 
L 362.979066 122.164367 
L 363.742575 121.593549 
L 364.124329 119.868385 
L 364.506084 125.351428 
L 364.887838 117.324024 
L 365.269593 116.852658 
L 365.651347 122.343343 
L 366.033102 115.929415 
L 366.414856 115.872901 
L 366.796611 115.608781 
L 367.178365 116.354849 
L 367.56012 115.238273 
L 367.941874 113.21593 
L 368.323629 110.151922 
L 368.705383 110.875706 
L 369.087138 113.73862 
L 369.468892 110.911792 
L 369.850647 109.847573 
L 370.232401 111.242432 
L 370.614156 111.974509 
L 370.99591 118.520468 
L 371.377664 116.762968 
L 371.759419 119.068043 
L 372.141173 114.766176 
L 372.522928 118.626292 
L 372.904682 118.84277 
L 373.286437 117.032161 
L 373.668191 120.001189 
L 374.049946 114.054605 
L 374.4317 118.641114 
L 374.813455 119.048965 
L 375.195209 116.915296 
L 375.958718 111.835057 
L 376.340473 115.163285 
L 376.722227 115.237433 
L 377.103982 106.826798 
L 377.485736 110.959223 
L 377.867491 111.720874 
L 378.249245 109.173089 
L 378.631 108.09579 
L 379.012754 110.884451 
L 379.394509 106.914723 
L 379.776263 111.125753 
L 380.158018 107.401102 
L 380.921527 110.986458 
L 381.303281 109.397988 
L 381.685035 111.873127 
L 382.06679 113.412433 
L 382.448544 111.445931 
L 383.212053 109.80083 
L 383.593808 115.26924 
L 383.975562 108.628273 
L 384.357317 109.124297 
L 384.739071 112.445802 
L 385.120826 107.587944 
L 385.50258 109.768662 
L 385.884335 104.325484 
L 386.266089 107.024293 
L 387.411353 102.571311 
L 387.793107 101.405248 
L 388.174862 99.138164 
L 388.938371 98.806873 
L 389.320125 99.650679 
L 389.70188 98.254498 
L 390.083634 93.152889 
L 390.465389 98.825398 
L 390.847143 90.831472 
L 391.228898 96.564192 
L 391.610652 93.714891 
L 391.992406 94.207685 
L 392.374161 93.415395 
L 392.755915 95.9064 
L 393.13767 92.928762 
L 393.519424 93.049542 
L 393.901179 93.96651 
L 394.282933 92.582463 
L 394.664688 94.15878 
L 395.046442 94.445185 
L 395.809951 89.618107 
L 396.191706 88.911012 
L 396.57346 88.957922 
L 397.336969 84.697699 
L 397.718724 84.540166 
L 398.100478 84.198893 
L 398.482233 80.70156 
L 398.863987 79.631806 
L 399.245742 83.49082 
L 399.627496 80.09459 
L 400.009251 79.463548 
L 400.391005 75.965275 
L 400.77276 74.1166 
L 401.154514 74.004272 
L 401.536269 73.695474 
L 401.918023 75.207342 
L 402.299778 78.283287 
L 402.681532 73.073471 
L 403.063286 75.523295 
L 403.445041 76.509615 
L 403.826795 75.869387 
L 404.20855 77.958383 
L 404.590304 76.612299 
L 404.972059 76.382678 
L 406.117322 78.520519 
L 406.499077 77.729688 
L 406.880831 76.561103 
L 407.262586 72.753496 
L 407.64434 75.449329 
L 408.026095 74.289097 
L 408.407849 67.248831 
L 408.789604 74.915551 
L 409.171358 67.506088 
L 409.553113 69.308717 
L 409.934867 67.852393 
L 410.316622 71.466852 
L 410.698376 69.643182 
L 411.080131 69.996384 
L 411.461885 67.604071 
L 411.84364 72.240485 
L 412.225394 66.122418 
L 412.607149 72.000236 
L 412.988903 67.975024 
L 413.370657 71.919594 
L 413.752412 64.756096 
L 414.134166 67.607651 
L 414.515921 71.504008 
L 414.897675 67.755108 
L 415.27943 72.473965 
L 415.661184 75.457531 
L 416.042939 71.379138 
L 416.424693 73.152061 
L 417.188202 71.159813 
L 417.569957 72.812909 
L 417.951711 71.109 
L 418.333466 71.002802 
L 418.71522 72.386936 
L 419.096975 69.023287 
L 419.478729 71.173421 
L 419.860484 65.700172 
L 420.242238 65.798747 
L 420.623993 70.238323 
L 421.005747 62.427702 
L 421.387502 62.496988 
L 421.769256 64.299047 
L 422.151011 64.31235 
L 422.532765 61.880909 
L 422.91452 62.541052 
L 423.296274 57.559661 
L 423.678028 55.59999 
L 424.059783 58.998004 
L 424.441537 58.506587 
L 424.823292 59.545531 
L 425.205046 58.17494 
L 425.586801 60.207267 
L 425.968555 60.287751 
L 426.35031 64.989767 
L 427.113819 57.275229 
L 427.495573 61.219139 
L 427.877328 51.90048 
L 428.259082 55.578648 
L 428.640837 56.576964 
L 429.022591 53.227273 
L 429.404346 55.223968 
L 429.7861 52.630113 
L 430.167855 55.26726 
L 430.549609 47.430909 
L 430.931364 48.462456 
L 430.931364 48.462456 
" clip-path="url(#pd0a550a6e2)" style="fill: none; stroke: #1f77b4; stroke-width: 1.5; stroke-linecap: square"/>
   </g>
   <g id="line2d_13">
    <path d="M 49.558636 260.109632 
L 57.57548 261.10448 
L 65.592325 261.865638 
L 73.609169 262.393107 
L 81.244258 262.678197 
L 88.879348 262.751324 
L 96.514438 262.612488 
L 104.149527 262.26169 
L 112.166371 261.665227 
L 120.183215 260.835075 
L 128.20006 259.771234 
L 136.216904 258.473704 
L 144.233748 256.942485 
L 152.250592 255.177577 
L 160.267436 253.178981 
L 168.28428 250.946695 
L 176.301124 248.48072 
L 184.317968 245.781057 
L 192.334813 242.847704 
L 200.351657 239.680663 
L 208.368501 236.279933 
L 216.385345 232.645513 
L 224.783943 228.587381 
L 233.182542 224.272773 
L 241.581141 219.70169 
L 249.979739 214.874133 
L 258.378338 209.790101 
L 266.776936 204.449593 
L 275.175535 198.852611 
L 283.955888 192.726993 
L 292.736241 186.321055 
L 301.516594 179.634797 
L 310.296947 172.668217 
L 319.0773 165.421317 
L 327.857654 157.894096 
L 337.019761 149.740737 
L 346.181869 141.282151 
L 355.343976 132.51834 
L 364.506084 123.449302 
L 373.668191 114.075037 
L 383.212053 103.985611 
L 392.755915 93.564992 
L 402.299778 82.813182 
L 411.84364 71.73018 
L 421.387502 60.315986 
L 430.931364 48.5706 
L 430.931364 48.5706 
" clip-path="url(#pd0a550a6e2)" style="fill: none; stroke-dasharray: 5.55,2.4; stroke-dashoffset: 0; stroke: #ff0000; stroke-opacity: 0.5; stroke-width: 1.5"/>
   </g>
   <g id="line2d_14">
    <path d="M 49.558636 270.686584 
L 50.7039 267.74818 
L 51.467409 266.22195 
L 52.230918 265.261084 
L 52.612672 265.02068 
L 52.994427 264.940738 
L 53.376181 265.012437 
L 54.13969 265.54217 
L 55.284954 266.911912 
L 56.430217 268.22055 
L 57.193726 268.676964 
L 57.57548 268.722873 
L 57.957235 268.636517 
L 58.720744 268.078153 
L 59.484253 267.093957 
L 61.77478 263.717603 
L 62.156534 263.420271 
L 62.538289 263.268526 
L 62.920043 263.277219 
L 63.301798 263.454241 
L 63.683552 263.800103 
L 64.447061 264.963524 
L 65.21057 266.63055 
L 67.501097 272.238199 
L 68.264606 273.474739 
L 69.028115 274.12428 
L 69.409869 274.222003 
L 69.791624 274.179226 
L 70.555133 273.744418 
L 72.84566 271.665065 
L 73.227414 271.520601 
L 73.609169 271.496954 
L 73.990923 271.605644 
L 74.372678 271.851127 
L 75.136187 272.733798 
L 75.899696 274.038524 
L 77.808468 277.709751 
L 78.571977 278.67017 
L 78.953731 278.933371 
L 79.335486 279.030891 
L 79.71724 278.955647 
L 80.098995 278.707986 
L 80.862504 277.73356 
L 81.626013 276.250099 
L 83.91654 271.167279 
L 84.680049 270.079186 
L 85.443558 269.547886 
L 85.825312 269.494233 
L 86.588821 269.755004 
L 87.35233 270.361237 
L 88.879348 271.66314 
L 89.642857 271.878954 
L 90.024611 271.798 
L 90.406366 271.575696 
L 91.169875 270.703374 
L 91.933384 269.326837 
L 94.605665 263.516133 
L 95.369174 262.602124 
L 95.750929 262.388559 
L 96.132683 262.34808 
L 96.514438 262.479537 
L 96.896192 262.774392 
L 97.659701 263.786071 
L 98.804965 265.963282 
L 99.950228 268.158699 
L 100.713737 269.228844 
L 101.477246 269.800168 
L 101.859 269.881802 
L 102.240755 269.832852 
L 103.004264 269.400995 
L 105.676545 267.174854 
L 106.0583 267.159051 
L 106.440054 267.286293 
L 106.821809 267.56512 
L 107.585318 268.575245 
L 108.348827 270.112754 
L 111.402862 277.179216 
L 112.166371 277.96793 
L 112.548126 278.111006 
L 112.92988 278.086749 
L 113.311635 277.904487 
L 114.075144 277.13663 
L 115.220407 275.375229 
L 116.365671 273.646281 
L 117.12918 272.900557 
L 117.510934 272.70874 
L 117.892689 272.648994 
L 118.274443 272.720828 
L 119.037952 273.221429 
L 120.183215 274.56022 
L 121.328479 275.903337 
L 122.091988 276.386544 
L 122.473742 276.428957 
L 122.855497 276.317399 
L 123.237251 276.044482 
L 124.00076 275.021824 
L 124.764269 273.44739 
L 127.818305 266.098296 
L 128.581814 265.199986 
L 128.963569 264.992034 
L 129.345323 264.943353 
L 129.727078 265.04371 
L 130.490586 265.61803 
L 131.63585 267.010572 
L 132.781113 268.28562 
L 133.544622 268.696527 
L 133.926377 268.716257 
L 134.308131 268.603331 
L 135.07164 267.996455 
L 135.835149 266.978687 
L 137.743922 264.046319 
L 138.507431 263.377705 
L 138.889185 263.257073 
L 139.27094 263.299033 
L 139.652694 263.510021 
L 140.034449 263.889057 
L 140.797958 265.110689 
L 141.943221 267.781901 
L 143.470239 271.60277 
L 144.233748 273.046214 
L 144.997257 273.938017 
L 145.379011 274.155643 
L 145.760766 274.224247 
L 146.14252 274.155164 
L 146.906029 273.680927 
L 149.196556 271.627284 
L 149.578311 271.505739 
L 149.960065 271.507858 
L 150.34182 271.643783 
L 151.105329 272.321727 
L 151.868837 273.477047 
L 154.541119 278.349612 
L 155.304628 278.966462 
L 155.686382 279.029761 
L 156.068137 278.919766 
L 156.449891 278.638319 
L 157.2134 277.604924 
L 157.976909 276.081953 
L 160.267436 271.035688 
L 161.030945 270.000154 
L 161.4127 269.691247 
L 161.794454 269.526224 
L 162.176208 269.499419 
L 162.939717 269.803493 
L 164.084981 270.796201 
L 164.84849 271.463008 
L 165.611999 271.848384 
L 165.993753 271.873695 
L 166.375508 271.765041 
L 166.757262 271.513902 
L 167.520771 270.586366 
L 168.28428 269.16719 
L 170.956562 263.398009 
L 171.720071 262.545761 
L 172.101825 262.366545 
L 172.483579 262.360785 
L 172.865334 262.525836 
L 173.628843 263.321627 
L 174.392352 264.597209 
L 176.682879 268.854602 
L 177.446388 269.636631 
L 177.828142 269.827329 
L 178.209897 269.882144 
L 178.591651 269.808409 
L 179.35516 269.33821 
L 181.645687 267.280392 
L 182.027442 267.160894 
L 182.409196 267.172681 
L 182.79095 267.329784 
L 183.172705 267.639318 
L 183.936214 268.707495 
L 184.699723 270.289354 
L 187.372004 276.688462 
L 188.135513 277.731392 
L 188.517268 278.010136 
L 188.899022 278.119346 
L 189.280777 278.062514 
L 189.662531 277.850384 
L 190.42604 277.035836 
L 191.571304 275.249284 
L 192.716567 273.552513 
L 193.480076 272.85185 
L 193.86183 272.686135 
L 194.243585 272.652979 
L 194.625339 272.750427 
L 195.388848 273.293798 
L 196.534112 274.659228 
L 197.679375 275.971927 
L 198.442884 276.406751 
L 198.824639 276.419303 
L 199.206393 276.275833 
L 199.588148 275.970401 
L 200.351657 274.886826 
L 201.115166 273.266091 
L 203.787447 266.626795 
L 204.550956 265.483292 
L 204.93271 265.145403 
L 205.314465 264.969782 
L 205.696219 264.951951 
L 206.077974 265.080285 
L 206.841483 265.697178 
L 209.513764 268.588261 
L 209.895519 268.710956 
L 210.277273 268.704312 
L 210.659028 268.564913 
L 211.422537 267.910568 
L 212.186046 266.861218 
L 214.094818 263.95735 
L 214.858327 263.341122 
L 215.240081 263.252147 
L 215.621836 263.327632 
L 216.00359 263.572547 
L 216.767099 264.553413 
L 217.530608 266.089574 
L 220.584644 273.162008 
L 221.348153 273.993772 
L 221.729908 274.181023 
L 222.111662 274.220963 
L 222.493417 274.12629 
L 223.256926 273.614686 
L 225.165698 271.802498 
L 225.929207 271.495846 
L 226.310961 271.524137 
L 226.692716 271.687418 
L 227.456225 272.417778 
L 228.219734 273.613203 
L 230.892015 278.438336 
L 231.27377 278.794578 
L 231.655524 278.992822 
L 232.037279 279.021674 
L 232.419033 278.877002 
L 232.800788 278.562141 
L 233.564297 277.471324 
L 234.70956 275.027843 
L 236.236578 271.588717 
L 237.000087 270.350008 
L 237.763596 269.646809 
L 238.14535 269.510113 
L 238.527105 269.509646 
L 239.290614 269.855284 
L 240.435877 270.868846 
L 241.199386 271.517884 
L 241.962895 271.863522 
L 242.34465 271.863055 
L 242.726404 271.726359 
L 243.108159 271.446332 
L 243.871668 270.464355 
L 244.635177 269.004347 
L 247.307458 263.285415 
L 248.070967 262.496166 
L 248.452721 262.351494 
L 248.834476 262.380346 
L 249.21623 262.57859 
L 249.979739 263.430974 
L 250.743248 264.742606 
L 252.652021 268.40695 
L 253.41553 269.385942 
L 254.179039 269.849031 
L 254.560793 269.877322 
L 255.324302 269.57067 
L 256.087811 268.911692 
L 257.614829 267.457114 
L 258.378338 267.152205 
L 258.760092 267.192145 
L 259.141847 267.379396 
L 259.523601 267.71963 
L 260.28711 268.844967 
L 261.050619 270.469267 
L 263.722901 276.819755 
L 264.48641 277.800621 
L 264.868164 278.045536 
L 265.249919 278.121021 
L 265.631673 278.032046 
L 266.013428 277.790748 
L 266.776936 276.931567 
L 269.449218 273.076513 
L 270.212727 272.668856 
L 270.594481 272.662211 
L 270.976236 272.784907 
L 271.739745 273.369531 
L 272.885008 274.758014 
L 274.030272 276.036548 
L 274.793781 276.421217 
L 275.175535 276.403386 
L 275.55729 276.227765 
L 275.939044 275.889876 
L 276.702553 274.746373 
L 277.466062 273.081325 
L 280.138343 266.486342 
L 280.901852 265.402767 
L 281.283607 265.097335 
L 281.665361 264.953865 
L 282.047116 264.966417 
L 282.42887 265.121999 
L 283.192379 265.779378 
L 285.482906 268.403839 
L 286.246415 268.720189 
L 286.62817 268.687033 
L 287.009924 268.521318 
L 287.773433 267.820655 
L 288.536942 266.741789 
L 290.06396 264.337332 
L 290.827469 263.522784 
L 291.209223 263.310654 
L 291.590978 263.253822 
L 291.972732 263.363032 
L 292.354487 263.641776 
L 293.117996 264.684706 
L 293.881505 266.266639 
L 296.553786 272.665673 
L 297.317295 273.73385 
L 297.69905 274.043384 
L 298.080804 274.200487 
L 298.462558 274.212274 
L 299.226067 273.862208 
L 300.371331 272.775601 
L 301.516594 271.752849 
L 302.280103 271.491024 
L 302.661858 271.545839 
L 303.043612 271.736537 
L 303.807121 272.518566 
L 304.57063 273.752317 
L 306.861157 278.051541 
L 307.624666 278.847332 
L 308.006421 279.012383 
L 308.388175 279.006623 
L 308.769929 278.827407 
L 309.151684 278.47956 
L 309.915193 277.332966 
L 311.060456 274.847156 
L 312.587474 271.443966 
L 313.350983 270.254179 
L 314.114492 269.608127 
L 314.496247 269.499473 
L 314.878001 269.524784 
L 315.64151 269.91016 
L 317.932037 271.774996 
L 318.313792 271.873749 
L 318.695546 271.846944 
L 319.0773 271.681921 
L 319.840809 270.921882 
L 320.604318 269.635676 
L 321.749582 267.071126 
L 322.894845 264.481645 
L 323.658354 263.178522 
L 324.421863 262.453402 
L 324.803618 262.343407 
L 325.185372 262.406706 
L 325.567127 262.637686 
L 326.330636 263.544977 
L 327.475899 265.652326 
L 329.002917 268.525227 
L 329.766426 269.456653 
L 330.14818 269.729385 
L 330.529935 269.86531 
L 330.911689 269.867429 
L 331.675198 269.517434 
L 332.820462 268.437631 
L 333.965725 267.406926 
L 334.729234 267.148921 
L 335.110989 267.217525 
L 335.492743 267.435151 
L 336.256252 268.326954 
L 337.019761 269.770398 
L 338.165025 272.595817 
L 339.310288 275.457069 
L 340.073797 276.945414 
L 340.837306 277.863147 
L 341.21906 278.074135 
L 341.600815 278.116095 
L 341.982569 277.995463 
L 342.746078 277.326849 
L 343.509587 276.246852 
L 345.036605 273.844656 
L 345.800114 273.012982 
L 346.563623 272.656911 
L 346.945378 272.67664 
L 347.708887 273.087548 
L 348.472396 273.882877 
L 349.999414 275.755138 
L 350.762922 276.329458 
L 351.144677 276.429815 
L 351.526431 276.381134 
L 351.908186 276.173182 
L 352.28994 275.802954 
L 353.053449 274.600624 
L 353.816958 272.893334 
L 356.107485 267.079247 
L 356.870994 265.763 
L 357.634503 265.055769 
L 358.016258 264.944211 
L 358.398012 264.986624 
L 359.161521 265.469831 
L 360.306785 266.812948 
L 361.452048 268.151739 
L 362.215557 268.65234 
L 362.597311 268.724174 
L 362.979066 268.664428 
L 363.36082 268.472611 
L 364.124329 267.726887 
L 365.269593 265.997939 
L 366.414856 264.236538 
L 367.178365 263.468681 
L 367.56012 263.286419 
L 367.941874 263.262162 
L 368.323629 263.405238 
L 368.705383 263.71765 
L 369.468892 264.821468 
L 370.232401 266.447048 
L 372.904682 272.797923 
L 373.668191 273.808048 
L 374.049946 274.086875 
L 374.4317 274.214117 
L 374.813455 274.198314 
L 375.576964 273.804921 
L 376.722227 272.695963 
L 377.485736 271.972173 
L 378.249245 271.540316 
L 378.631 271.491366 
L 379.012754 271.573 
L 379.394509 271.791118 
L 380.158018 272.623954 
L 380.921527 273.894168 
L 383.212053 278.156026 
L 383.975562 278.893631 
L 384.357317 279.025088 
L 384.739071 278.984609 
L 385.120826 278.771044 
L 385.884335 277.857035 
L 386.647844 276.415384 
L 389.320125 270.669794 
L 390.083634 269.797472 
L 390.465389 269.575168 
L 390.847143 269.494214 
L 391.228898 269.544687 
L 391.992406 269.967897 
L 394.282933 271.803964 
L 394.664688 271.878935 
L 395.046442 271.825282 
L 395.428197 271.631703 
L 396.191706 270.815251 
L 396.955215 269.48307 
L 398.482233 265.987141 
L 399.627496 263.639608 
L 400.391005 262.665182 
L 400.77276 262.417521 
L 401.154514 262.342277 
L 401.536269 262.439797 
L 401.918023 262.702998 
L 402.681532 263.663416 
L 403.826795 265.80764 
L 404.972059 268.029102 
L 405.735568 269.14263 
L 406.499077 269.767524 
L 406.880831 269.876214 
L 407.262586 269.852567 
L 408.026095 269.460807 
L 409.171358 268.357853 
L 409.934867 267.62875 
L 410.698376 267.193942 
L 411.080131 267.151165 
L 411.461885 267.248888 
L 411.84364 267.49706 
L 412.607149 268.448355 
L 413.370657 269.939695 
L 414.897675 273.787811 
L 416.042939 276.409644 
L 416.806448 277.573065 
L 417.188202 277.918927 
L 417.569957 278.095949 
L 417.951711 278.104642 
L 418.333466 277.952897 
L 419.096975 277.233711 
L 420.242238 275.501351 
L 421.387502 273.743725 
L 422.151011 272.954297 
L 422.532765 272.736651 
L 422.91452 272.650295 
L 423.296274 272.696204 
L 424.059783 273.152618 
L 424.823292 273.976167 
L 426.35031 275.830998 
L 427.113819 276.360731 
L 427.495573 276.43243 
L 427.877328 276.352488 
L 428.259082 276.112084 
L 429.022591 275.151218 
L 429.7861 273.624988 
L 430.931364 270.686584 
L 430.931364 270.686584 
" clip-path="url(#pd0a550a6e2)" style="fill: none; stroke: #008000; stroke-opacity: 0.5; stroke-width: 1.5; stroke-linecap: square"/>
   </g>
   <g id="line2d_15">
    <path d="M 49.558636 279.972997 
L 49.940391 285.678042 
L 50.322145 276.934191 
L 50.7039 264.049396 
L 51.085654 279.797497 
L 51.467409 271.988523 
L 51.849163 275.163858 
L 52.230918 257.443352 
L 52.612672 262.799057 
L 52.994427 273.054338 
L 53.376181 278.164034 
L 53.757936 268.61353 
L 54.13969 279.689069 
L 54.521445 260.990847 
L 54.903199 284.015894 
L 55.284954 258.850104 
L 55.666708 287.425221 
L 56.048463 263.603101 
L 56.430217 281.573211 
L 56.811972 288.028043 
L 57.57548 265.852974 
L 57.957235 262.213584 
L 58.338989 280.085877 
L 58.720744 282.592095 
L 59.102498 272.709816 
L 59.484253 272.56284 
L 59.866007 267.793662 
L 60.247762 273.41625 
L 60.629516 268.897766 
L 61.011271 265.797923 
L 61.393025 274.494036 
L 61.77478 248.27086 
L 62.156534 278.20933 
L 62.538289 257.783902 
L 62.920043 304.849091 
L 63.301798 250.334322 
L 64.065307 294.785404 
L 64.447061 263.985722 
L 64.828816 280.182538 
L 65.21057 267.140743 
L 65.592325 265.319906 
L 65.974079 279.897938 
L 66.355834 264.471566 
L 66.737588 257.272712 
L 67.119343 268.516655 
L 67.501097 267.980487 
L 67.882851 278.881953 
L 68.264606 278.867166 
L 68.64636 260.356631 
L 69.028115 277.097879 
L 69.791624 273.190548 
L 70.173378 258.079767 
L 70.555133 271.200323 
L 70.936887 269.521176 
L 71.318642 287.964897 
L 71.700396 284.615013 
L 72.082151 264.515893 
L 72.463905 263.711021 
L 72.84566 270.047477 
L 73.227414 289.275689 
L 73.609169 245.682117 
L 73.990923 278.235152 
L 74.372678 286.065774 
L 74.754432 274.087101 
L 75.136187 257.033638 
L 75.517941 259.719764 
L 75.899696 273.779471 
L 76.28145 272.090657 
L 76.663205 258.963985 
L 77.044959 272.736649 
L 77.426714 264.142403 
L 77.808468 278.980554 
L 78.190222 267.297517 
L 78.571977 284.81018 
L 78.953731 264.267934 
L 79.335486 280.094664 
L 79.71724 272.058099 
L 80.098995 288.013432 
L 80.480749 276.081664 
L 80.862504 282.199078 
L 81.244258 273.082287 
L 81.626013 259.438994 
L 82.007767 282.141543 
L 82.389522 275.105157 
L 82.771276 262.504306 
L 83.534785 278.581172 
L 83.91654 258.340489 
L 84.298294 262.952859 
L 84.680049 261.173154 
L 85.061803 256.952005 
L 85.443558 264.77557 
L 85.825312 266.938919 
L 86.207067 279.117734 
L 86.588821 284.286718 
L 86.970576 290.992975 
L 87.35233 278.13502 
L 87.734085 271.344369 
L 88.115839 275.042896 
L 88.879348 260.334146 
L 89.261102 274.591735 
L 89.642857 282.780488 
L 90.024611 285.542945 
L 90.406366 283.076897 
L 90.78812 250.249371 
L 91.169875 278.021555 
L 91.551629 277.360991 
L 91.933384 274.668578 
L 92.315138 258.744203 
L 92.696893 285.359562 
L 93.078647 266.628505 
L 93.460402 270.806206 
L 93.842156 270.602736 
L 94.223911 245.407893 
L 94.605665 268.889911 
L 94.98742 260.430955 
L 95.369174 264.556047 
L 95.750929 263.254362 
L 96.132683 266.357053 
L 96.514438 274.897347 
L 96.896192 267.818822 
L 97.277947 264.527334 
L 97.659701 268.098904 
L 98.041456 259.076866 
L 98.42321 296.887914 
L 98.804965 267.716203 
L 99.186719 283.939 
L 99.568473 263.272939 
L 99.950228 278.56373 
L 100.331982 278.878023 
L 100.713737 270.09171 
L 101.095491 269.087122 
L 101.477246 260.315199 
L 101.859 269.454816 
L 102.240755 269.050494 
L 103.004264 285.207762 
L 103.386018 251.951069 
L 103.767773 277.699473 
L 104.149527 271.513585 
L 104.531282 286.655585 
L 104.913036 296.680132 
L 105.294791 273.220399 
L 105.676545 276.951997 
L 106.0583 262.545395 
L 106.440054 274.485933 
L 106.821809 270.18986 
L 107.203563 276.494105 
L 107.585318 269.335031 
L 107.967072 273.795977 
L 108.348827 267.903295 
L 108.730581 281.877556 
L 109.112336 275.524745 
L 109.49409 252.011198 
L 109.875844 272.763745 
L 110.257599 277.587864 
L 110.639353 273.741051 
L 111.021108 279.659636 
L 111.402862 256.060378 
L 111.784617 275.153266 
L 112.166371 271.000251 
L 112.548126 281.276569 
L 112.92988 287.649132 
L 113.311635 278.574695 
L 113.693389 259.135471 
L 114.075144 276.434277 
L 114.456898 282.547548 
L 114.838653 277.144493 
L 115.220407 251.662421 
L 116.365671 276.369918 
L 116.747425 265.876825 
L 117.12918 273.632267 
L 117.510934 292.220523 
L 118.274443 255.231566 
L 118.656198 264.479771 
L 119.037952 269.88329 
L 119.419707 279.821616 
L 119.801461 267.666428 
L 120.183215 259.284862 
L 120.946724 285.664335 
L 121.328479 262.979525 
L 121.710233 283.556413 
L 122.091988 255.562625 
L 122.473742 257.148136 
L 122.855497 263.076834 
L 123.237251 256.276309 
L 123.619006 283.285669 
L 124.00076 265.998672 
L 124.382515 280.635765 
L 124.764269 259.059242 
L 125.146024 278.78555 
L 125.527778 247.473589 
L 125.909533 253.748156 
L 126.291287 275.544426 
L 126.673042 240.651326 
L 127.054796 252.178535 
L 127.436551 268.495838 
L 127.818305 269.960247 
L 128.20006 278.397632 
L 128.581814 275.883526 
L 128.963569 261.590065 
L 129.345323 264.858308 
L 129.727078 282.198078 
L 130.108832 266.70692 
L 130.490586 272.733748 
L 130.872341 261.334189 
L 131.254095 261.215358 
L 131.63585 255.996168 
L 132.017604 257.45 
L 132.399359 273.359427 
L 132.781113 272.900913 
L 133.162868 284.007713 
L 133.544622 274.978681 
L 133.926377 281.136655 
L 134.308131 274.605288 
L 134.689886 283.301798 
L 135.07164 272.007056 
L 135.835149 259.639225 
L 136.216904 274.432643 
L 136.598658 257.159034 
L 136.980413 278.610421 
L 137.362167 257.712263 
L 137.743922 270.275 
L 138.507431 246.515251 
L 138.889185 279.663009 
L 139.27094 277.651381 
L 139.652694 286.821984 
L 140.034449 283.507981 
L 140.416203 269.038475 
L 140.797958 268.889951 
L 141.179712 275.795134 
L 141.561466 258.634216 
L 141.943221 293.369628 
L 142.324975 272.083645 
L 142.70673 272.092738 
L 143.088484 283.908753 
L 143.470239 261.99983 
L 143.851993 276.204025 
L 144.233748 272.529716 
L 144.615502 278.018385 
L 145.379011 265.826586 
L 145.760766 284.701024 
L 146.14252 256.059453 
L 146.524275 258.16164 
L 146.906029 277.247607 
L 147.669538 244.296882 
L 148.051293 286.129895 
L 148.433047 285.440423 
L 148.814802 281.599979 
L 149.196556 288.742444 
L 149.578311 277.0018 
L 149.960065 276.28678 
L 150.34182 270.802694 
L 150.723574 250.94831 
L 151.105329 246.778241 
L 151.487083 273.618428 
L 151.868837 271.071104 
L 152.250592 279.209202 
L 152.632346 271.083786 
L 153.014101 266.322918 
L 153.395855 289.573413 
L 154.159364 259.32046 
L 154.541119 276.018748 
L 154.922873 265.548826 
L 155.304628 281.395193 
L 155.686382 269.463994 
L 156.068137 279.472881 
L 156.831646 253.575781 
L 157.2134 272.378661 
L 157.595155 265.605642 
L 157.976909 275.574335 
L 158.358664 276.235213 
L 158.740418 260.869269 
L 159.122173 260.454612 
L 159.503927 261.030101 
L 159.885682 254.569739 
L 160.267436 291.318101 
L 160.649191 251.76251 
L 161.4127 293.28302 
L 161.794454 265.36868 
L 162.176208 261.10729 
L 162.557963 281.531151 
L 162.939717 282.541497 
L 163.703226 271.021729 
L 164.084981 295.657532 
L 164.466735 252.706398 
L 164.84849 264.503463 
L 165.230244 265.947146 
L 165.611999 271.930278 
L 165.993753 287.247678 
L 166.375508 255.674509 
L 166.757262 276.972834 
L 167.139017 256.613178 
L 167.520771 284.668167 
L 167.902526 274.080071 
L 168.28428 276.02594 
L 168.666035 271.056677 
L 169.047789 286.418857 
L 169.429544 270.468448 
L 169.811298 276.488122 
L 170.193053 265.895177 
L 170.956562 276.230684 
L 171.338316 283.911551 
L 171.720071 262.010719 
L 172.483579 282.900365 
L 172.865334 275.65479 
L 173.247088 270.864061 
L 173.628843 286.140145 
L 174.010597 291.251529 
L 174.392352 274.333774 
L 174.774106 267.548337 
L 175.155861 270.001085 
L 175.537615 257.095587 
L 175.91937 276.133361 
L 176.682879 274.42444 
L 177.064633 258.119803 
L 177.446388 266.850863 
L 177.828142 252.645466 
L 178.209897 258.245875 
L 178.591651 280.711895 
L 178.973406 270.419211 
L 179.35516 255.564893 
L 179.736915 259.305491 
L 180.118669 273.258403 
L 180.882178 276.775977 
L 181.263933 267.596682 
L 181.645687 268.062888 
L 182.027442 286.283181 
L 182.409196 250.880682 
L 182.79095 275.065764 
L 183.172705 265.623986 
L 183.554459 268.072756 
L 183.936214 283.190596 
L 184.699723 273.3332 
L 185.081477 259.466646 
L 185.463232 268.10652 
L 185.844986 270.799597 
L 186.226741 250.941742 
L 186.608495 269.889351 
L 186.99025 267.709127 
L 187.372004 255.745391 
L 187.753759 276.66628 
L 188.135513 258.980804 
L 188.517268 272.09851 
L 188.899022 264.610441 
L 189.280777 260.711423 
L 189.662531 276.520787 
L 190.044286 278.151254 
L 190.42604 258.124034 
L 190.807795 281.975873 
L 191.189549 280.200865 
L 191.571304 279.370834 
L 191.953058 273.664291 
L 192.334813 272.534132 
L 192.716567 265.050558 
L 193.098322 238.531874 
L 193.480076 263.599288 
L 193.86183 274.039893 
L 194.243585 272.604709 
L 194.625339 263.217744 
L 195.007094 273.674219 
L 195.388848 260.68058 
L 195.770603 296.62199 
L 196.152357 271.656363 
L 196.534112 255.266694 
L 196.915866 283.709872 
L 197.297621 275.720499 
L 197.679375 272.715281 
L 198.06113 264.644969 
L 198.442884 268.905285 
L 198.824639 262.211079 
L 199.206393 279.573951 
L 199.588148 289.76782 
L 200.351657 262.176524 
L 200.733411 282.608202 
L 201.115166 282.516986 
L 201.49692 268.922834 
L 201.878675 288.16932 
L 202.642184 262.014026 
L 203.023938 261.99423 
L 203.405693 255.661522 
L 203.787447 273.946149 
L 204.169201 264.893366 
L 204.550956 288.201112 
L 204.93271 266.885521 
L 205.314465 268.097215 
L 205.696219 265.354153 
L 206.077974 256.890077 
L 206.459728 261.481119 
L 206.841483 268.698312 
L 207.223237 272.102741 
L 207.604992 283.471424 
L 207.986746 267.932983 
L 208.368501 272.200863 
L 208.750255 284.853864 
L 209.13201 265.567104 
L 209.513764 262.26253 
L 209.895519 274.775791 
L 210.277273 257.499098 
L 211.422537 273.185138 
L 211.804291 259.593616 
L 212.186046 275.100414 
L 212.5678 277.99215 
L 212.949555 269.56456 
L 213.331309 289.096547 
L 213.713064 283.14702 
L 214.094818 290.013951 
L 214.476572 268.991902 
L 214.858327 276.145887 
L 215.240081 261.797639 
L 215.621836 285.591342 
L 216.00359 276.506962 
L 216.385345 276.254378 
L 216.767099 299.539223 
L 217.148854 258.681033 
L 217.530608 266.937344 
L 217.912363 266.752558 
L 218.294117 271.805768 
L 218.675872 265.287387 
L 219.057626 262.659063 
L 219.439381 268.25259 
L 219.821135 253.064122 
L 220.20289 266.069491 
L 220.584644 264.127463 
L 220.966399 286.635122 
L 221.348153 268.388923 
L 221.729908 269.736631 
L 222.111662 283.293264 
L 222.493417 284.529495 
L 222.875171 283.634371 
L 223.256926 283.831927 
L 223.63868 277.656262 
L 224.020435 278.766731 
L 224.402189 254.062263 
L 225.165698 283.977814 
L 225.547452 269.653696 
L 225.929207 269.186029 
L 226.310961 263.410959 
L 226.692716 276.396438 
L 227.07447 260.615036 
L 227.456225 262.718125 
L 228.219734 280.875328 
L 228.601488 279.335194 
L 228.983243 270.893387 
L 229.364997 269.666965 
L 229.746752 259.4242 
L 230.128506 282.842486 
L 230.510261 258.790956 
L 230.892015 290.565678 
L 231.27377 256.331035 
L 231.655524 282.978198 
L 232.037279 267.328435 
L 232.419033 272.090697 
L 233.182542 256.58399 
L 233.564297 276.596399 
L 233.946051 268.323055 
L 234.327806 266.539285 
L 234.70956 273.350674 
L 235.091314 272.575735 
L 235.473069 259.934114 
L 235.854823 286.350032 
L 236.236578 265.412633 
L 236.618332 274.942546 
L 237.000087 255.912611 
L 237.381841 269.567984 
L 237.763596 268.304642 
L 238.14535 282.816546 
L 238.527105 254.596381 
L 238.908859 276.922318 
L 239.290614 278.564063 
L 239.672368 268.381415 
L 240.054123 252.433041 
L 240.435877 270.536761 
L 241.199386 263.259303 
L 241.581141 265.036347 
L 241.962895 279.997072 
L 242.34465 304.284805 
L 242.726404 288.785205 
L 243.108159 264.244384 
L 243.489913 280.801043 
L 243.871668 272.589113 
L 244.253422 270.907414 
L 244.635177 278.60104 
L 245.016931 261.693114 
L 245.398686 265.159875 
L 245.78044 273.659683 
L 246.162194 279.368144 
L 246.543949 281.879683 
L 246.925703 262.457908 
L 247.307458 268.207819 
L 247.689212 258.963426 
L 248.070967 261.020315 
L 248.452721 274.253131 
L 248.834476 279.777335 
L 249.21623 250.49843 
L 249.597985 272.868371 
L 249.979739 273.964546 
L 250.361494 273.148576 
L 250.743248 264.679335 
L 251.125003 262.716866 
L 251.888512 281.162684 
L 252.270266 276.832355 
L 252.652021 278.307454 
L 253.033775 274.268595 
L 253.41553 276.78336 
L 253.797284 274.497991 
L 254.179039 275.684247 
L 254.560793 288.950498 
L 254.942548 266.527506 
L 255.324302 268.918647 
L 255.706057 275.883744 
L 256.087811 266.967435 
L 256.469565 289.151997 
L 256.85132 274.605178 
L 257.233074 265.565096 
L 257.614829 269.266441 
L 257.996583 262.742194 
L 258.378338 268.168402 
L 258.760092 282.141571 
L 259.141847 284.858263 
L 259.523601 256.898917 
L 259.905356 275.835253 
L 260.28711 269.73946 
L 260.668865 286.278449 
L 261.432374 262.585738 
L 261.814128 270.226184 
L 262.195883 268.54531 
L 262.577637 291.621562 
L 262.959392 256.307342 
L 263.341146 269.935055 
L 264.104655 276.242751 
L 264.48641 253.785602 
L 264.868164 280.719024 
L 265.249919 277.67427 
L 265.631673 256.873257 
L 266.395182 288.019032 
L 266.776936 258.777299 
L 267.158691 277.56255 
L 267.540445 281.376499 
L 267.9222 279.517151 
L 268.303954 269.768968 
L 269.067463 282.157759 
L 269.449218 273.003662 
L 269.830972 283.968043 
L 270.594481 256.095992 
L 270.976236 288.569658 
L 271.35799 253.355862 
L 271.739745 261.7303 
L 272.121499 262.090193 
L 272.885008 275.648552 
L 273.266763 262.956575 
L 273.648517 264.58025 
L 274.030272 262.985121 
L 274.412026 258.17595 
L 274.793781 267.355932 
L 275.175535 259.423565 
L 275.55729 283.342027 
L 275.939044 276.934088 
L 276.320799 263.95178 
L 276.702553 266.249341 
L 277.084307 278.16147 
L 277.466062 276.480415 
L 277.847816 280.025333 
L 278.229571 268.547925 
L 278.611325 270.728451 
L 278.99308 264.518852 
L 279.374834 265.796027 
L 279.756589 289.221805 
L 280.138343 285.468219 
L 280.520098 250.653985 
L 281.283607 283.475779 
L 281.665361 284.777859 
L 282.047116 274.900163 
L 282.42887 255.369115 
L 282.810625 268.235323 
L 283.192379 258.794432 
L 283.574134 269.607904 
L 283.955888 261.537429 
L 284.337643 271.778 
L 284.719397 286.731802 
L 285.101152 283.001424 
L 285.482906 274.125557 
L 285.864661 277.583107 
L 286.246415 275.510124 
L 286.62817 275.920702 
L 287.391678 273.071698 
L 287.773433 262.201256 
L 288.155187 260.147298 
L 288.536942 286.686887 
L 288.918696 286.288232 
L 289.300451 257.895053 
L 289.682205 287.734429 
L 290.06396 260.864195 
L 290.445714 261.423291 
L 290.827469 281.235701 
L 291.209223 277.155199 
L 291.590978 277.272085 
L 291.972732 260.352269 
L 292.354487 273.278113 
L 292.736241 280.759486 
L 293.117996 253.717301 
L 293.49975 284.023829 
L 293.881505 279.589681 
L 294.263259 279.498989 
L 294.645014 271.965732 
L 295.026768 268.301703 
L 295.408523 294.914183 
L 295.790277 265.877864 
L 296.553786 275.7539 
L 296.935541 278.778607 
L 297.317295 292.349162 
L 297.69905 269.112623 
L 298.080804 256.226229 
L 298.462558 263.370409 
L 298.844313 286.405915 
L 299.607822 254.675759 
L 299.989576 266.421975 
L 300.371331 287.21401 
L 300.753085 268.447293 
L 301.13484 270.544558 
L 301.516594 273.917947 
L 301.898349 271.11089 
L 302.280103 273.33562 
L 302.661858 289.934262 
L 303.807121 248.849369 
L 304.188876 276.719405 
L 304.57063 274.210123 
L 304.952385 289.723531 
L 305.334139 277.444933 
L 305.715894 275.626845 
L 306.097648 275.240665 
L 306.479403 263.650983 
L 306.861157 295.28177 
L 307.624666 269.707647 
L 308.006421 284.162978 
L 308.388175 263.444388 
L 309.151684 275.483685 
L 309.533438 270.815216 
L 309.915193 260.485416 
L 310.296947 278.209618 
L 311.060456 261.813679 
L 311.442211 252.849364 
L 311.823965 268.457368 
L 312.20572 271.628574 
L 312.587474 265.604698 
L 312.969229 280.160384 
L 313.350983 271.041103 
L 313.732738 266.321798 
L 314.114492 257.839533 
L 314.496247 302.649062 
L 314.878001 264.326132 
L 315.259756 258.040527 
L 315.64151 271.664195 
L 316.023265 268.173768 
L 316.405019 261.543613 
L 316.786774 265.204301 
L 317.168528 258.927929 
L 317.550283 278.394402 
L 317.932037 272.907883 
L 318.313792 269.890272 
L 318.695546 280.370923 
L 319.0773 261.227832 
L 319.459055 274.74568 
L 319.840809 277.43128 
L 320.222564 251.764803 
L 320.604318 271.268653 
L 320.986073 281.76062 
L 321.367827 264.826289 
L 321.749582 276.155419 
L 322.131336 271.433015 
L 322.513091 262.152218 
L 322.894845 269.377195 
L 323.2766 264.230954 
L 323.658354 266.695526 
L 324.040109 264.853356 
L 324.421863 274.415706 
L 324.803618 274.469429 
L 325.185372 270.028931 
L 325.567127 270.288887 
L 325.948881 266.795033 
L 326.330636 258.822529 
L 326.71239 259.038037 
L 327.094145 277.665958 
L 327.475899 282.1363 
L 327.857654 261.771598 
L 328.239408 281.406623 
L 328.621163 273.594461 
L 329.002917 248.934561 
L 329.384671 284.423643 
L 329.766426 263.265593 
L 330.14818 278.796897 
L 330.529935 264.814467 
L 330.911689 279.607773 
L 331.293444 283.919377 
L 331.675198 270.637887 
L 332.056953 275.188391 
L 332.438707 270.883044 
L 332.820462 268.387301 
L 333.202216 272.986372 
L 333.583971 265.127136 
L 333.965725 268.950635 
L 334.34748 259.73746 
L 335.110989 271.759169 
L 335.492743 265.99321 
L 335.874498 273.532297 
L 336.256252 260.954619 
L 336.638007 254.809524 
L 337.019761 275.313697 
L 337.401516 285.328496 
L 337.78327 263.586967 
L 338.165025 277.32625 
L 338.546779 279.948393 
L 338.928534 273.978592 
L 339.310288 263.649002 
L 339.692042 282.270923 
L 340.073797 246.517276 
L 340.837306 273.833719 
L 341.21906 272.22143 
L 341.600815 266.521455 
L 341.982569 280.713914 
L 342.364324 261.005507 
L 342.746078 263.324334 
L 343.127833 281.841326 
L 343.509587 269.411274 
L 343.891342 271.539983 
L 344.273096 276.24867 
L 344.654851 276.408849 
L 345.036605 282.626522 
L 345.41836 282.006113 
L 345.800114 266.734802 
L 346.181869 278.177725 
L 346.563623 269.469454 
L 346.945378 278.560567 
L 347.327132 264.537551 
L 347.708887 275.924725 
L 348.090641 281.326146 
L 348.472396 261.824379 
L 348.85415 269.054112 
L 349.235905 282.651644 
L 349.617659 280.43376 
L 349.999414 267.764999 
L 350.381168 249.117819 
L 350.762922 269.2695 
L 351.144677 275.23501 
L 351.526431 266.763788 
L 351.908186 268.353879 
L 352.28994 253.44287 
L 352.671695 279.214769 
L 353.053449 280.423825 
L 353.435204 250.232967 
L 353.816958 284.224617 
L 354.198713 256.38615 
L 354.580467 267.613127 
L 354.962222 265.7572 
L 355.343976 264.944681 
L 355.725731 262.942112 
L 356.107485 277.184295 
L 356.48924 266.037707 
L 357.252749 282.446929 
L 357.634503 266.001443 
L 358.016258 269.418636 
L 358.398012 249.037784 
L 358.779767 269.886384 
L 359.161521 282.724755 
L 359.543276 269.777757 
L 359.92503 273.032622 
L 360.306785 289.944364 
L 360.688539 265.445742 
L 361.070293 269.826274 
L 361.452048 262.587613 
L 362.215557 283.800866 
L 362.597311 273.324898 
L 362.979066 266.709176 
L 363.36082 267.88893 
L 363.742575 270.226124 
L 364.124329 265.66063 
L 364.506084 297.596157 
L 364.887838 262.312408 
L 365.269593 264.994242 
L 365.651347 297.510717 
L 366.033102 270.361903 
L 366.414856 274.693815 
L 366.796611 277.527733 
L 367.178365 284.816989 
L 367.56012 282.086471 
L 367.941874 274.039733 
L 368.323629 259.950665 
L 368.705383 263.95652 
L 369.087138 277.84123 
L 369.468892 262.523807 
L 369.850647 255.362663 
L 370.232401 259.965648 
L 370.614156 260.871961 
L 370.99591 290.629498 
L 371.377664 278.824532 
L 371.759419 287.460493 
L 372.141173 263.355262 
L 372.522928 280.503408 
L 372.904682 280.004318 
L 373.286437 270.039879 
L 373.668191 284.710023 
L 374.049946 255.569058 
L 374.4317 279.854137 
L 374.813455 283.963798 
L 375.195209 276.007042 
L 375.576964 264.698436 
L 375.958718 257.501319 
L 376.340473 278.045929 
L 376.722227 282.41458 
L 377.103982 244.29162 
L 377.485736 268.659707 
L 377.867491 275.806521 
L 378.249245 265.916147 
L 378.631 262.792286 
L 379.012754 278.347949 
L 379.394509 259.431905 
L 379.776263 280.746863 
L 380.158018 261.753938 
L 380.921527 277.394567 
L 381.303281 267.778442 
L 381.685035 278.324833 
L 382.06679 284.2021 
L 382.448544 272.730059 
L 383.212053 262.415469 
L 383.593808 289.596102 
L 383.975562 256.971971 
L 384.357317 260.852433 
L 384.739071 279.722632 
L 385.120826 258.564097 
L 385.50258 273.435 
L 385.884335 250.955642 
L 386.266089 269.855411 
L 387.029598 265.972391 
L 387.411353 266.440472 
L 387.793107 267.22977 
L 388.174862 262.398075 
L 388.938371 272.771815 
L 389.320125 282.251085 
L 389.70188 279.894475 
L 390.083634 258.315843 
L 390.465389 289.889928 
L 390.847143 252.427736 
L 391.228898 282.94429 
L 391.610652 269.979055 
L 391.992406 273.264297 
L 392.374161 269.799039 
L 392.755915 282.576536 
L 393.13767 267.997267 
L 393.519424 269.057534 
L 393.901179 274.399923 
L 394.282933 268.677203 
L 394.664688 278.313102 
L 395.046442 282.145206 
L 395.809951 264.937893 
L 396.191706 265.93584 
L 396.57346 271.359613 
L 397.336969 262.03079 
L 398.100478 272.744117 
L 398.482233 261.923354 
L 398.863987 263.053255 
L 399.245742 288.472997 
L 399.627496 277.109049 
L 400.009251 278.930685 
L 400.391005 265.669771 
L 400.77276 259.836262 
L 401.154514 261.82505 
L 401.536269 261.970315 
L 401.918023 270.393156 
L 402.299778 285.881424 
L 402.681532 259.288673 
L 403.063286 270.471621 
L 403.445041 273.96498 
L 403.826795 269.117453 
L 404.20855 277.877435 
L 404.590304 269.590449 
L 404.972059 267.170757 
L 405.353813 269.715642 
L 406.117322 277.013269 
L 406.499077 274.043007 
L 406.880831 269.870578 
L 407.262586 253.167381 
L 407.64434 269.588121 
L 408.026095 267.245335 
L 408.407849 235.901459 
L 408.789604 278.35201 
L 409.171358 245.526657 
L 409.553113 258.705105 
L 409.934867 255.371339 
L 410.316622 277.022139 
L 410.698376 270.977569 
L 411.080131 275.200558 
L 411.461885 264.996124 
L 411.84364 289.185731 
L 412.225394 258.839595 
L 412.607149 287.732753 
L 412.988903 266.429961 
L 413.370657 284.388171 
L 413.752412 246.340376 
L 414.134166 258.048158 
L 414.515921 274.82323 
L 414.897675 253.387633 
L 415.27943 274.480127 
L 415.661184 287.252353 
L 416.042939 265.223288 
L 416.424693 273.089899 
L 417.188202 263.428764 
L 417.569957 273.097273 
L 417.951711 266.82505 
L 418.333466 269.346223 
L 418.71522 280.049639 
L 419.096975 267.639395 
L 419.478729 283.292127 
L 419.860484 261.171402 
L 420.242238 267.0906 
L 420.623993 294.728852 
L 421.005747 260.967392 
L 421.387502 266.305893 
L 421.769256 279.877019 
L 422.151011 283.967056 
L 422.532765 275.220661 
L 422.91452 281.278385 
L 423.296274 258.469767 
L 423.678028 250.142626 
L 424.059783 268.043125 
L 424.441537 266.033535 
L 424.823292 271.337326 
L 425.205046 264.400051 
L 425.586801 274.44239 
L 425.968555 274.85452 
L 426.35031 298.664755 
L 427.113819 262.149508 
L 427.495573 283.867589 
L 427.877328 240.033677 
L 428.259082 261.988864 
L 428.640837 271.357366 
L 429.022591 259.768915 
L 429.404346 275.630015 
L 429.7861 269.157465 
L 430.167855 289.331892 
L 430.549609 257.480922 
L 430.931364 270.145861 
L 430.931364 270.145861 
" clip-path="url(#pd0a550a6e2)" style="fill: none; stroke: #800080; stroke-opacity: 0.3; stroke-width: 1.5; stroke-linecap: square"/>
   </g>
   <g id="patch_3">
    <path d="M 30.49 317.72 
L 30.49 34.56 
" style="fill: none; stroke: #000000; stroke-width: 0.8; stroke-linejoin: miter; stroke-linecap: square"/>
   </g>
   <g id="patch_4">
    <path d="M 450 317.72 
L 450 34.56 
" style="fill: none; stroke: #000000; stroke-width: 0.8; stroke-linejoin: miter; stroke-linecap: square"/>
   </g>
   <g id="patch_5">
    <path d="M 30.49 317.72 
L 450 317.72 
" style="fill: none; stroke: #000000; stroke-width: 0.8; stroke-linejoin: miter; stroke-linecap: square"/>
   </g>
   <g id="patch_6">
    <path d="M 30.49 34.56 
L 450 34.56 
" style="fill: none; stroke: #000000; stroke-width: 0.8; stroke-linejoin: miter; stroke-linecap: square"/>
   </g>
   <g id="legend_1">
    <g id="patch_7">
     <path d="M 37.49 101.2725 
L 114.318125 101.2725 
Q 116.318125 101.2725 116.318125 99.2725 
L 116.318125 41.56 
Q 116.318125 39.56 114.318125 39.56 
L 37.49 39.56 
Q 35.49 39.56 35.49 41.56 
L 35.49 99.2725 
Q 35.49 101.2725 37.49 101.2725 
z
" style="fill: #ffffff; opacity: 0.8; stroke: #cccccc; stroke-linejoin: miter"/>
    </g>
    <g id="line2d_16">
     <path d="M 39.49 47.658437 
L 49.49 47.658437 
L 59.49 47.658437 
" style="fill: none; stroke: #1f77b4; stroke-width: 1.5; stroke-linecap: square"/>
    </g>
    <g id="text_12">
     <!-- series -->
     <g transform="translate(67.49 51.158437) scale(0.1 -0.1)">
      <defs>
       <path id="DejaVuSans-73" d="M 2834 3397 
L 2834 2853 
Q 2591 2978 2328 3040 
Q 2066 3103 1784 3103 
Q 1356 3103 1142 2972 
Q 928 2841 928 2578 
Q 928 2378 1081 2264 
Q 1234 2150 1697 2047 
L 1894 2003 
Q 2506 1872 2764 1633 
Q 3022 1394 3022 966 
Q 3022 478 2636 193 
Q 2250 -91 1575 -91 
Q 1294 -91 989 -36 
Q 684 19 347 128 
L 347 722 
Q 666 556 975 473 
Q 1284 391 1588 391 
Q 1994 391 2212 530 
Q 2431 669 2431 922 
Q 2431 1156 2273 1281 
Q 2116 1406 1581 1522 
L 1381 1569 
Q 847 1681 609 1914 
Q 372 2147 372 2553 
Q 372 3047 722 3315 
Q 1072 3584 1716 3584 
Q 2034 3584 2315 3537 
Q 2597 3491 2834 3397 
z
" transform="scale(0.015625)"/>
       <path id="DejaVuSans-65" d="M 3597 1894 
L 3597 1613 
L 953 1613 
Q 991 1019 1311 708 
Q 1631 397 2203 397 
Q 2534 397 2845 478 
Q 3156 559 3463 722 
L 3463 178 
Q 3153 47 2828 -22 
Q 2503 -91 2169 -91 
Q 1331 -91 842 396 
Q 353 884 353 1716 
Q 353 2575 817 3079 
Q 1281 3584 2069 3584 
Q 2775 3584 3186 3129 
Q 3597 2675 3597 1894 
z
M 3022 2063 
Q 3016 2534 2758 2815 
Q 2500 3097 2075 3097 
Q 1594 3097 1305 2825 
Q 1016 2553 972 2059 
L 3022 2063 
z
" transform="scale(0.015625)"/>
       <path id="DejaVuSans-72" d="M 2631 2963 
Q 2534 3019 2420 3045 
Q 2306 3072 2169 3072 
Q 1681 3072 1420 2755 
Q 1159 2438 1159 1844 
L 1159 0 
L 581 0 
L 581 3500 
L 1159 3500 
L 1159 2956 
Q 1341 3275 1631 3429 
Q 1922 3584 2338 3584 
Q 2397 3584 2469 3576 
Q 2541 3569 2628 3553 
L 2631 2963 
z
" transform="scale(0.015625)"/>
       <path id="DejaVuSans-69" d="M 603 3500 
L 1178 3500 
L 1178 0 
L 603 0 
L 603 3500 
z
M 603 4863 
L 1178 4863 
L 1178 4134 
L 603 4134 
L 603 4863 
z
" transform="scale(0.015625)"/>
      </defs>
      <use xlink:href="#DejaVuSans-73"/>
      <use xlink:href="#DejaVuSans-65" transform="translate(52.099609 0)"/>
      <use xlink:href="#DejaVuSans-72" transform="translate(113.623047 0)"/>
      <use xlink:href="#DejaVuSans-69" transform="translate(154.736328 0)"/>
      <use xlink:href="#DejaVuSans-65" transform="translate(182.519531 0)"/>
      <use xlink:href="#DejaVuSans-73" transform="translate(244.042969 0)"/>
     </g>
    </g>
    <g id="line2d_17">
     <path d="M 39.49 62.336563 
L 49.49 62.336563 
L 59.49 62.336563 
" style="fill: none; stroke-dasharray: 5.55,2.4; stroke-dashoffset: 0; stroke: #ff0000; stroke-opacity: 0.5; stroke-width: 1.5"/>
    </g>
    <g id="text_13">
     <!-- trend -->
     <g transform="translate(67.49 65.836563) scale(0.1 -0.1)">
      <defs>
       <path id="DejaVuSans-74" d="M 1172 4494 
L 1172 3500 
L 2356 3500 
L 2356 3053 
L 1172 3053 
L 1172 1153 
Q 1172 725 1289 603 
Q 1406 481 1766 481 
L 2356 481 
L 2356 0 
L 1766 0 
Q 1100 0 847 248 
Q 594 497 594 1153 
L 594 3053 
L 172 3053 
L 172 3500 
L 594 3500 
L 594 4494 
L 1172 4494 
z
" transform="scale(0.015625)"/>
       <path id="DejaVuSans-6e" d="M 3513 2113 
L 3513 0 
L 2938 0 
L 2938 2094 
Q 2938 2591 2744 2837 
Q 2550 3084 2163 3084 
Q 1697 3084 1428 2787 
Q 1159 2491 1159 1978 
L 1159 0 
L 581 0 
L 581 3500 
L 1159 3500 
L 1159 2956 
Q 1366 3272 1645 3428 
Q 1925 3584 2291 3584 
Q 2894 3584 3203 3211 
Q 3513 2838 3513 2113 
z
" transform="scale(0.015625)"/>
       <path id="DejaVuSans-64" d="M 2906 2969 
L 2906 4863 
L 3481 4863 
L 3481 0 
L 2906 0 
L 2906 525 
Q 2725 213 2448 61 
Q 2172 -91 1784 -91 
Q 1150 -91 751 415 
Q 353 922 353 1747 
Q 353 2572 751 3078 
Q 1150 3584 1784 3584 
Q 2172 3584 2448 3432 
Q 2725 3281 2906 2969 
z
M 947 1747 
Q 947 1113 1208 752 
Q 1469 391 1925 391 
Q 2381 391 2643 752 
Q 2906 1113 2906 1747 
Q 2906 2381 2643 2742 
Q 2381 3103 1925 3103 
Q 1469 3103 1208 2742 
Q 947 2381 947 1747 
z
" transform="scale(0.015625)"/>
      </defs>
      <use xlink:href="#DejaVuSans-74"/>
      <use xlink:href="#DejaVuSans-72" transform="translate(39.208984 0)"/>
      <use xlink:href="#DejaVuSans-65" transform="translate(78.072266 0)"/>
      <use xlink:href="#DejaVuSans-6e" transform="translate(139.595703 0)"/>
      <use xlink:href="#DejaVuSans-64" transform="translate(202.974609 0)"/>
     </g>
    </g>
    <g id="line2d_18">
     <path d="M 39.49 77.014687 
L 49.49 77.014687 
L 59.49 77.014687 
" style="fill: none; stroke: #008000; stroke-opacity: 0.5; stroke-width: 1.5; stroke-linecap: square"/>
    </g>
    <g id="text_14">
     <!-- season -->
     <g transform="translate(67.49 80.514687) scale(0.1 -0.1)">
      <defs>
       <path id="DejaVuSans-61" d="M 2194 1759 
Q 1497 1759 1228 1600 
Q 959 1441 959 1056 
Q 959 750 1161 570 
Q 1363 391 1709 391 
Q 2188 391 2477 730 
Q 2766 1069 2766 1631 
L 2766 1759 
L 2194 1759 
z
M 3341 1997 
L 3341 0 
L 2766 0 
L 2766 531 
Q 2569 213 2275 61 
Q 1981 -91 1556 -91 
Q 1019 -91 701 211 
Q 384 513 384 1019 
Q 384 1609 779 1909 
Q 1175 2209 1959 2209 
L 2766 2209 
L 2766 2266 
Q 2766 2663 2505 2880 
Q 2244 3097 1772 3097 
Q 1472 3097 1187 3025 
Q 903 2953 641 2809 
L 641 3341 
Q 956 3463 1253 3523 
Q 1550 3584 1831 3584 
Q 2591 3584 2966 3190 
Q 3341 2797 3341 1997 
z
" transform="scale(0.015625)"/>
       <path id="DejaVuSans-6f" d="M 1959 3097 
Q 1497 3097 1228 2736 
Q 959 2375 959 1747 
Q 959 1119 1226 758 
Q 1494 397 1959 397 
Q 2419 397 2687 759 
Q 2956 1122 2956 1747 
Q 2956 2369 2687 2733 
Q 2419 3097 1959 3097 
z
M 1959 3584 
Q 2709 3584 3137 3096 
Q 3566 2609 3566 1747 
Q 3566 888 3137 398 
Q 2709 -91 1959 -91 
Q 1206 -91 779 398 
Q 353 888 353 1747 
Q 353 2609 779 3096 
Q 1206 3584 1959 3584 
z
" transform="scale(0.015625)"/>
      </defs>
      <use xlink:href="#DejaVuSans-73"/>
      <use xlink:href="#DejaVuSans-65" transform="translate(52.099609 0)"/>
      <use xlink:href="#DejaVuSans-61" transform="translate(113.623047 0)"/>
      <use xlink:href="#DejaVuSans-73" transform="translate(174.902344 0)"/>
      <use xlink:href="#DejaVuSans-6f" transform="translate(227.001953 0)"/>
      <use xlink:href="#DejaVuSans-6e" transform="translate(288.183594 0)"/>
     </g>
    </g>
    <g id="line2d_19">
     <path d="M 39.49 91.692813 
L 49.49 91.692813 
L 59.49 91.692813 
" style="fill: none; stroke: #800080; stroke-opacity: 0.3; stroke-width: 1.5; stroke-linecap: square"/>
    </g>
    <g id="text_15">
     <!-- residuals -->
     <g transform="translate(67.49 95.192813) scale(0.1 -0.1)">
      <defs>
       <path id="DejaVuSans-75" d="M 544 1381 
L 544 3500 
L 1119 3500 
L 1119 1403 
Q 1119 906 1312 657 
Q 1506 409 1894 409 
Q 2359 409 2629 706 
Q 2900 1003 2900 1516 
L 2900 3500 
L 3475 3500 
L 3475 0 
L 2900 0 
L 2900 538 
Q 2691 219 2414 64 
Q 2138 -91 1772 -91 
Q 1169 -91 856 284 
Q 544 659 544 1381 
z
M 1991 3584 
L 1991 3584 
z
" transform="scale(0.015625)"/>
       <path id="DejaVuSans-6c" d="M 603 4863 
L 1178 4863 
L 1178 0 
L 603 0 
L 603 4863 
z
" transform="scale(0.015625)"/>
      </defs>
      <use xlink:href="#DejaVuSans-72"/>
      <use xlink:href="#DejaVuSans-65" transform="translate(38.863281 0)"/>
      <use xlink:href="#DejaVuSans-73" transform="translate(100.386719 0)"/>
      <use xlink:href="#DejaVuSans-69" transform="translate(152.486328 0)"/>
      <use xlink:href="#DejaVuSans-64" transform="translate(180.269531 0)"/>
      <use xlink:href="#DejaVuSans-75" transform="translate(243.746094 0)"/>
      <use xlink:href="#DejaVuSans-61" transform="translate(307.125 0)"/>
      <use xlink:href="#DejaVuSans-6c" transform="translate(368.404297 0)"/>
      <use xlink:href="#DejaVuSans-73" transform="translate(396.1875 0)"/>
     </g>
    </g>
   </g>
  </g>
  <g id="text_16">
   <!-- Seria de timp -->
   <g transform="translate(190.101562 16.030125) scale(0.12 -0.12)">
    <defs>
     <path id="DejaVuSans-53" d="M 3425 4513 
L 3425 3897 
Q 3066 4069 2747 4153 
Q 2428 4238 2131 4238 
Q 1616 4238 1336 4038 
Q 1056 3838 1056 3469 
Q 1056 3159 1242 3001 
Q 1428 2844 1947 2747 
L 2328 2669 
Q 3034 2534 3370 2195 
Q 3706 1856 3706 1288 
Q 3706 609 3251 259 
Q 2797 -91 1919 -91 
Q 1588 -91 1214 -16 
Q 841 59 441 206 
L 441 856 
Q 825 641 1194 531 
Q 1563 422 1919 422 
Q 2459 422 2753 634 
Q 3047 847 3047 1241 
Q 3047 1584 2836 1778 
Q 2625 1972 2144 2069 
L 1759 2144 
Q 1053 2284 737 2584 
Q 422 2884 422 3419 
Q 422 4038 858 4394 
Q 1294 4750 2059 4750 
Q 2388 4750 2728 4690 
Q 3069 4631 3425 4513 
z
" transform="scale(0.015625)"/>
     <path id="DejaVuSans-20" transform="scale(0.015625)"/>
     <path id="DejaVuSans-6d" d="M 3328 2828 
Q 3544 3216 3844 3400 
Q 4144 3584 4550 3584 
Q 5097 3584 5394 3201 
Q 5691 2819 5691 2113 
L 5691 0 
L 5113 0 
L 5113 2094 
Q 5113 2597 4934 2840 
Q 4756 3084 4391 3084 
Q 3944 3084 3684 2787 
Q 3425 2491 3425 1978 
L 3425 0 
L 2847 0 
L 2847 2094 
Q 2847 2600 2669 2842 
Q 2491 3084 2119 3084 
Q 1678 3084 1418 2786 
Q 1159 2488 1159 1978 
L 1159 0 
L 581 0 
L 581 3500 
L 1159 3500 
L 1159 2956 
Q 1356 3278 1631 3431 
Q 1906 3584 2284 3584 
Q 2666 3584 2933 3390 
Q 3200 3197 3328 2828 
z
" transform="scale(0.015625)"/>
     <path id="DejaVuSans-70" d="M 1159 525 
L 1159 -1331 
L 581 -1331 
L 581 3500 
L 1159 3500 
L 1159 2969 
Q 1341 3281 1617 3432 
Q 1894 3584 2278 3584 
Q 2916 3584 3314 3078 
Q 3713 2572 3713 1747 
Q 3713 922 3314 415 
Q 2916 -91 2278 -91 
Q 1894 -91 1617 61 
Q 1341 213 1159 525 
z
M 3116 1747 
Q 3116 2381 2855 2742 
Q 2594 3103 2138 3103 
Q 1681 3103 1420 2742 
Q 1159 2381 1159 1747 
Q 1159 1113 1420 752 
Q 1681 391 2138 391 
Q 2594 391 2855 752 
Q 3116 1113 3116 1747 
z
" transform="scale(0.015625)"/>
    </defs>
    <use xlink:href="#DejaVuSans-53"/>
    <use xlink:href="#DejaVuSans-65" transform="translate(63.476562 0)"/>
    <use xlink:href="#DejaVuSans-72" transform="translate(125 0)"/>
    <use xlink:href="#DejaVuSans-69" transform="translate(166.113281 0)"/>
    <use xlink:href="#DejaVuSans-61" transform="translate(193.896484 0)"/>
    <use xlink:href="#DejaVuSans-20" transform="translate(255.175781 0)"/>
    <use xlink:href="#DejaVuSans-64" transform="translate(286.962891 0)"/>
    <use xlink:href="#DejaVuSans-65" transform="translate(350.439453 0)"/>
    <use xlink:href="#DejaVuSans-20" transform="translate(411.962891 0)"/>
    <use xlink:href="#DejaVuSans-74" transform="translate(443.75 0)"/>
    <use xlink:href="#DejaVuSans-69" transform="translate(482.958984 0)"/>
    <use xlink:href="#DejaVuSans-6d" transform="translate(510.742188 0)"/>
    <use xlink:href="#DejaVuSans-70" transform="translate(608.154297 0)"/>
   </g>
  </g>
 </g>
 <defs>
  <clipPath id="pd0a550a6e2">
   <rect x="30.49" y="34.56" width="419.51" height="283.16"/>
  </clipPath>
 </defs>
</svg>
