<?xml version="1.0" encoding="utf-8" standalone="no"?>
<!DOCTYPE svg PUBLIC "-//W3C//DTD SVG 1.1//EN"
  "http://www.w3.org/Graphics/SVG/1.1/DTD/svg11.dtd">
<svg xmlns:xlink="http://www.w3.org/1999/xlink" width="864pt" height="432pt" viewBox="0 0 864 432" xmlns="http://www.w3.org/2000/svg" version="1.1">
 <metadata>
  <rdf:RDF xmlns:dc="http://purl.org/dc/elements/1.1/" xmlns:cc="http://creativecommons.org/ns#" xmlns:rdf="http://www.w3.org/1999/02/22-rdf-syntax-ns#">
   <cc:Work>
    <dc:type rdf:resource="http://purl.org/dc/dcmitype/StillImage"/>
    <dc:date>2025-12-28T20:29:00.812070</dc:date>
    <dc:format>image/svg+xml</dc:format>
    <dc:creator>
     <cc:Agent>
      <dc:title>Matplotlib v3.10.8, https://matplotlib.org/</dc:title>
     </cc:Agent>
    </dc:creator>
   </cc:Work>
  </rdf:RDF>
 </metadata>
 <defs>
  <style type="text/css">*{stroke-linejoin: round; stroke-linecap: butt}</style>
 </defs>
 <g id="figure_1">
  <g id="patch_1">
   <path d="M 0 432 
L 864 432 
L 864 0 
L 0 0 
z
" style="fill: #ffffff"/>
  </g>
  <g id="axes_1">
   <g id="patch_2">
    <path d="M 32.47 404.12 
L 853.2 404.12 
L 853.2 26.88 
L 32.47 26.88 
z
" style="fill: #ffffff"/>
   </g>
   <g id="matplotlib.axis_1">
    <g id="xtick_1">
     <g id="line2d_1">
      <path d="M 69.775909 404.12 
L 69.775909 26.88 
" clip-path="url(#pdb3be3d4fc)" style="fill: none; stroke: #b0b0b0; stroke-width: 0.8; stroke-linecap: square"/>
     </g>
     <g id="line2d_2">
      <defs>
       <path id="mfa53b5e44d" d="M 0 0 
L 0 3.5 
" style="stroke: #000000; stroke-width: 0.8"/>
      </defs>
      <g>
       <use xlink:href="#mfa53b5e44d" x="69.775909" y="404.12" style="stroke: #000000; stroke-width: 0.8"/>
      </g>
     </g>
     <g id="text_1">
      <!-- 0 -->
      <g transform="translate(66.594659 418.718437) scale(0.1 -0.1)">
       <defs>
        <path id="DejaVuSans-30" d="M 2034 4250 
Q 1547 4250 1301 3770 
Q 1056 3291 1056 2328 
Q 1056 1369 1301 889 
Q 1547 409 2034 409 
Q 2525 409 2770 889 
Q 3016 1369 3016 2328 
Q 3016 3291 2770 3770 
Q 2525 4250 2034 4250 
z
M 2034 4750 
Q 2819 4750 3233 4129 
Q 3647 3509 3647 2328 
Q 3647 1150 3233 529 
Q 2819 -91 2034 -91 
Q 1250 -91 836 529 
Q 422 1150 422 2328 
Q 422 3509 836 4129 
Q 1250 4750 2034 4750 
z
" transform="scale(0.015625)"/>
       </defs>
       <use xlink:href="#DejaVuSans-30"/>
      </g>
     </g>
    </g>
    <g id="xtick_2">
     <g id="line2d_3">
      <path d="M 163.274428 404.12 
L 163.274428 26.88 
" clip-path="url(#pdb3be3d4fc)" style="fill: none; stroke: #b0b0b0; stroke-width: 0.8; stroke-linecap: square"/>
     </g>
     <g id="line2d_4">
      <g>
       <use xlink:href="#mfa53b5e44d" x="163.274428" y="404.12" style="stroke: #000000; stroke-width: 0.8"/>
      </g>
     </g>
     <g id="text_2">
      <!-- 50 -->
      <g transform="translate(156.911928 418.718437) scale(0.1 -0.1)">
       <defs>
        <path id="DejaVuSans-35" d="M 691 4666 
L 3169 4666 
L 3169 4134 
L 1269 4134 
L 1269 2991 
Q 1406 3038 1543 3061 
Q 1681 3084 1819 3084 
Q 2600 3084 3056 2656 
Q 3513 2228 3513 1497 
Q 3513 744 3044 326 
Q 2575 -91 1722 -91 
Q 1428 -91 1123 -41 
Q 819 9 494 109 
L 494 744 
Q 775 591 1075 516 
Q 1375 441 1709 441 
Q 2250 441 2565 725 
Q 2881 1009 2881 1497 
Q 2881 1984 2565 2268 
Q 2250 2553 1709 2553 
Q 1456 2553 1204 2497 
Q 953 2441 691 2322 
L 691 4666 
z
" transform="scale(0.015625)"/>
       </defs>
       <use xlink:href="#DejaVuSans-35"/>
       <use xlink:href="#DejaVuSans-30" transform="translate(63.623047 0)"/>
      </g>
     </g>
    </g>
    <g id="xtick_3">
     <g id="line2d_5">
      <path d="M 256.772947 404.12 
L 256.772947 26.88 
" clip-path="url(#pdb3be3d4fc)" style="fill: none; stroke: #b0b0b0; stroke-width: 0.8; stroke-linecap: square"/>
     </g>
     <g id="line2d_6">
      <g>
       <use xlink:href="#mfa53b5e44d" x="256.772947" y="404.12" style="stroke: #000000; stroke-width: 0.8"/>
      </g>
     </g>
     <g id="text_3">
      <!-- 100 -->
      <g transform="translate(247.229197 418.718437) scale(0.1 -0.1)">
       <defs>
        <path id="DejaVuSans-31" d="M 794 531 
L 1825 531 
L 1825 4091 
L 703 3866 
L 703 4441 
L 1819 4666 
L 2450 4666 
L 2450 531 
L 3481 531 
L 3481 0 
L 794 0 
L 794 531 
z
" transform="scale(0.015625)"/>
       </defs>
       <use xlink:href="#DejaVuSans-31"/>
       <use xlink:href="#DejaVuSans-30" transform="translate(63.623047 0)"/>
       <use xlink:href="#DejaVuSans-30" transform="translate(127.246094 0)"/>
      </g>
     </g>
    </g>
    <g id="xtick_4">
     <g id="line2d_7">
      <path d="M 350.271466 404.12 
L 350.271466 26.88 
" clip-path="url(#pdb3be3d4fc)" style="fill: none; stroke: #b0b0b0; stroke-width: 0.8; stroke-linecap: square"/>
     </g>
     <g id="line2d_8">
      <g>
       <use xlink:href="#mfa53b5e44d" x="350.271466" y="404.12" style="stroke: #000000; stroke-width: 0.8"/>
      </g>
     </g>
     <g id="text_4">
      <!-- 150 -->
      <g transform="translate(340.727716 418.718437) scale(0.1 -0.1)">
       <use xlink:href="#DejaVuSans-31"/>
       <use xlink:href="#DejaVuSans-35" transform="translate(63.623047 0)"/>
       <use xlink:href="#DejaVuSans-30" transform="translate(127.246094 0)"/>
      </g>
     </g>
    </g>
    <g id="xtick_5">
     <g id="line2d_9">
      <path d="M 443.769985 404.12 
L 443.769985 26.88 
" clip-path="url(#pdb3be3d4fc)" style="fill: none; stroke: #b0b0b0; stroke-width: 0.8; stroke-linecap: square"/>
     </g>
     <g id="line2d_10">
      <g>
       <use xlink:href="#mfa53b5e44d" x="443.769985" y="404.12" style="stroke: #000000; stroke-width: 0.8"/>
      </g>
     </g>
     <g id="text_5">
      <!-- 200 -->
      <g transform="translate(434.226235 418.718437) scale(0.1 -0.1)">
       <defs>
        <path id="DejaVuSans-32" d="M 1228 531 
L 3431 531 
L 3431 0 
L 469 0 
L 469 531 
Q 828 903 1448 1529 
Q 2069 2156 2228 2338 
Q 2531 2678 2651 2914 
Q 2772 3150 2772 3378 
Q 2772 3750 2511 3984 
Q 2250 4219 1831 4219 
Q 1534 4219 1204 4116 
Q 875 4013 500 3803 
L 500 4441 
Q 881 4594 1212 4672 
Q 1544 4750 1819 4750 
Q 2544 4750 2975 4387 
Q 3406 4025 3406 3419 
Q 3406 3131 3298 2873 
Q 3191 2616 2906 2266 
Q 2828 2175 2409 1742 
Q 1991 1309 1228 531 
z
" transform="scale(0.015625)"/>
       </defs>
       <use xlink:href="#DejaVuSans-32"/>
       <use xlink:href="#DejaVuSans-30" transform="translate(63.623047 0)"/>
       <use xlink:href="#DejaVuSans-30" transform="translate(127.246094 0)"/>
      </g>
     </g>
    </g>
    <g id="xtick_6">
     <g id="line2d_11">
      <path d="M 537.268504 404.12 
L 537.268504 26.88 
" clip-path="url(#pdb3be3d4fc)" style="fill: none; stroke: #b0b0b0; stroke-width: 0.8; stroke-linecap: square"/>
     </g>
     <g id="line2d_12">
      <g>
       <use xlink:href="#mfa53b5e44d" x="537.268504" y="404.12" style="stroke: #000000; stroke-width: 0.8"/>
      </g>
     </g>
     <g id="text_6">
      <!-- 250 -->
      <g transform="translate(527.724754 418.718437) scale(0.1 -0.1)">
       <use xlink:href="#DejaVuSans-32"/>
       <use xlink:href="#DejaVuSans-35" transform="translate(63.623047 0)"/>
       <use xlink:href="#DejaVuSans-30" transform="translate(127.246094 0)"/>
      </g>
     </g>
    </g>
    <g id="xtick_7">
     <g id="line2d_13">
      <path d="M 630.767023 404.12 
L 630.767023 26.88 
" clip-path="url(#pdb3be3d4fc)" style="fill: none; stroke: #b0b0b0; stroke-width: 0.8; stroke-linecap: square"/>
     </g>
     <g id="line2d_14">
      <g>
       <use xlink:href="#mfa53b5e44d" x="630.767023" y="404.12" style="stroke: #000000; stroke-width: 0.8"/>
      </g>
     </g>
     <g id="text_7">
      <!-- 300 -->
      <g transform="translate(621.223273 418.718437) scale(0.1 -0.1)">
       <defs>
        <path id="DejaVuSans-33" d="M 2597 2516 
Q 3050 2419 3304 2112 
Q 3559 1806 3559 1356 
Q 3559 666 3084 287 
Q 2609 -91 1734 -91 
Q 1441 -91 1130 -33 
Q 819 25 488 141 
L 488 750 
Q 750 597 1062 519 
Q 1375 441 1716 441 
Q 2309 441 2620 675 
Q 2931 909 2931 1356 
Q 2931 1769 2642 2001 
Q 2353 2234 1838 2234 
L 1294 2234 
L 1294 2753 
L 1863 2753 
Q 2328 2753 2575 2939 
Q 2822 3125 2822 3475 
Q 2822 3834 2567 4026 
Q 2313 4219 1838 4219 
Q 1578 4219 1281 4162 
Q 984 4106 628 3988 
L 628 4550 
Q 988 4650 1302 4700 
Q 1616 4750 1894 4750 
Q 2613 4750 3031 4423 
Q 3450 4097 3450 3541 
Q 3450 3153 3228 2886 
Q 3006 2619 2597 2516 
z
" transform="scale(0.015625)"/>
       </defs>
       <use xlink:href="#DejaVuSans-33"/>
       <use xlink:href="#DejaVuSans-30" transform="translate(63.623047 0)"/>
       <use xlink:href="#DejaVuSans-30" transform="translate(127.246094 0)"/>
      </g>
     </g>
    </g>
    <g id="xtick_8">
     <g id="line2d_15">
      <path d="M 724.265542 404.12 
L 724.265542 26.88 
" clip-path="url(#pdb3be3d4fc)" style="fill: none; stroke: #b0b0b0; stroke-width: 0.8; stroke-linecap: square"/>
     </g>
     <g id="line2d_16">
      <g>
       <use xlink:href="#mfa53b5e44d" x="724.265542" y="404.12" style="stroke: #000000; stroke-width: 0.8"/>
      </g>
     </g>
     <g id="text_8">
      <!-- 350 -->
      <g transform="translate(714.721792 418.718437) scale(0.1 -0.1)">
       <use xlink:href="#DejaVuSans-33"/>
       <use xlink:href="#DejaVuSans-35" transform="translate(63.623047 0)"/>
       <use xlink:href="#DejaVuSans-30" transform="translate(127.246094 0)"/>
      </g>
     </g>
    </g>
    <g id="xtick_9">
     <g id="line2d_17">
      <path d="M 817.764061 404.12 
L 817.764061 26.88 
" clip-path="url(#pdb3be3d4fc)" style="fill: none; stroke: #b0b0b0; stroke-width: 0.8; stroke-linecap: square"/>
     </g>
     <g id="line2d_18">
      <g>
       <use xlink:href="#mfa53b5e44d" x="817.764061" y="404.12" style="stroke: #000000; stroke-width: 0.8"/>
      </g>
     </g>
     <g id="text_9">
      <!-- 400 -->
      <g transform="translate(808.220311 418.718437) scale(0.1 -0.1)">
       <defs>
        <path id="DejaVuSans-34" d="M 2419 4116 
L 825 1625 
L 2419 1625 
L 2419 4116 
z
M 2253 4666 
L 3047 4666 
L 3047 1625 
L 3713 1625 
L 3713 1100 
L 3047 1100 
L 3047 0 
L 2419 0 
L 2419 1100 
L 313 1100 
L 313 1709 
L 2253 4666 
z
" transform="scale(0.015625)"/>
       </defs>
       <use xlink:href="#DejaVuSans-34"/>
       <use xlink:href="#DejaVuSans-30" transform="translate(63.623047 0)"/>
       <use xlink:href="#DejaVuSans-30" transform="translate(127.246094 0)"/>
      </g>
     </g>
    </g>
   </g>
   <g id="matplotlib.axis_2">
    <g id="ytick_1">
     <g id="line2d_19">
      <path d="M 32.47 372.921063 
L 853.2 372.921063 
" clip-path="url(#pdb3be3d4fc)" style="fill: none; stroke: #b0b0b0; stroke-width: 0.8; stroke-linecap: square"/>
     </g>
     <g id="line2d_20">
      <defs>
       <path id="meac26c0a8d" d="M 0 0 
L -3.5 0 
" style="stroke: #000000; stroke-width: 0.8"/>
      </defs>
      <g>
       <use xlink:href="#meac26c0a8d" x="32.47" y="372.921063" style="stroke: #000000; stroke-width: 0.8"/>
      </g>
     </g>
     <g id="text_10">
      <!-- −4 -->
      <g transform="translate(10.727812 376.720282) scale(0.1 -0.1)">
       <defs>
        <path id="DejaVuSans-2212" d="M 678 2272 
L 4684 2272 
L 4684 1741 
L 678 1741 
L 678 2272 
z
" transform="scale(0.015625)"/>
       </defs>
       <use xlink:href="#DejaVuSans-2212"/>
       <use xlink:href="#DejaVuSans-34" transform="translate(83.789062 0)"/>
      </g>
     </g>
    </g>
    <g id="ytick_2">
     <g id="line2d_21">
      <path d="M 32.47 321.481329 
L 853.2 321.481329 
" clip-path="url(#pdb3be3d4fc)" style="fill: none; stroke: #b0b0b0; stroke-width: 0.8; stroke-linecap: square"/>
     </g>
     <g id="line2d_22">
      <g>
       <use xlink:href="#meac26c0a8d" x="32.47" y="321.481329" style="stroke: #000000; stroke-width: 0.8"/>
      </g>
     </g>
     <g id="text_11">
      <!-- −2 -->
      <g transform="translate(10.727812 325.280548) scale(0.1 -0.1)">
       <use xlink:href="#DejaVuSans-2212"/>
       <use xlink:href="#DejaVuSans-32" transform="translate(83.789062 0)"/>
      </g>
     </g>
    </g>
    <g id="ytick_3">
     <g id="line2d_23">
      <path d="M 32.47 270.041595 
L 853.2 270.041595 
" clip-path="url(#pdb3be3d4fc)" style="fill: none; stroke: #b0b0b0; stroke-width: 0.8; stroke-linecap: square"/>
     </g>
     <g id="line2d_24">
      <g>
       <use xlink:href="#meac26c0a8d" x="32.47" y="270.041595" style="stroke: #000000; stroke-width: 0.8"/>
      </g>
     </g>
     <g id="text_12">
      <!-- 0 -->
      <g transform="translate(19.1075 273.840814) scale(0.1 -0.1)">
       <use xlink:href="#DejaVuSans-30"/>
      </g>
     </g>
    </g>
    <g id="ytick_4">
     <g id="line2d_25">
      <path d="M 32.47 218.601861 
L 853.2 218.601861 
" clip-path="url(#pdb3be3d4fc)" style="fill: none; stroke: #b0b0b0; stroke-width: 0.8; stroke-linecap: square"/>
     </g>
     <g id="line2d_26">
      <g>
       <use xlink:href="#meac26c0a8d" x="32.47" y="218.601861" style="stroke: #000000; stroke-width: 0.8"/>
      </g>
     </g>
     <g id="text_13">
      <!-- 2 -->
      <g transform="translate(19.1075 222.40108) scale(0.1 -0.1)">
       <use xlink:href="#DejaVuSans-32"/>
      </g>
     </g>
    </g>
    <g id="ytick_5">
     <g id="line2d_27">
      <path d="M 32.47 167.162127 
L 853.2 167.162127 
" clip-path="url(#pdb3be3d4fc)" style="fill: none; stroke: #b0b0b0; stroke-width: 0.8; stroke-linecap: square"/>
     </g>
     <g id="line2d_28">
      <g>
       <use xlink:href="#meac26c0a8d" x="32.47" y="167.162127" style="stroke: #000000; stroke-width: 0.8"/>
      </g>
     </g>
     <g id="text_14">
      <!-- 4 -->
      <g transform="translate(19.1075 170.961346) scale(0.1 -0.1)">
       <use xlink:href="#DejaVuSans-34"/>
      </g>
     </g>
    </g>
    <g id="ytick_6">
     <g id="line2d_29">
      <path d="M 32.47 115.722393 
L 853.2 115.722393 
" clip-path="url(#pdb3be3d4fc)" style="fill: none; stroke: #b0b0b0; stroke-width: 0.8; stroke-linecap: square"/>
     </g>
     <g id="line2d_30">
      <g>
       <use xlink:href="#meac26c0a8d" x="32.47" y="115.722393" style="stroke: #000000; stroke-width: 0.8"/>
      </g>
     </g>
     <g id="text_15">
      <!-- 6 -->
      <g transform="translate(19.1075 119.521612) scale(0.1 -0.1)">
       <defs>
        <path id="DejaVuSans-36" d="M 2113 2584 
Q 1688 2584 1439 2293 
Q 1191 2003 1191 1497 
Q 1191 994 1439 701 
Q 1688 409 2113 409 
Q 2538 409 2786 701 
Q 3034 994 3034 1497 
Q 3034 2003 2786 2293 
Q 2538 2584 2113 2584 
z
M 3366 4563 
L 3366 3988 
Q 3128 4100 2886 4159 
Q 2644 4219 2406 4219 
Q 1781 4219 1451 3797 
Q 1122 3375 1075 2522 
Q 1259 2794 1537 2939 
Q 1816 3084 2150 3084 
Q 2853 3084 3261 2657 
Q 3669 2231 3669 1497 
Q 3669 778 3244 343 
Q 2819 -91 2113 -91 
Q 1303 -91 875 529 
Q 447 1150 447 2328 
Q 447 3434 972 4092 
Q 1497 4750 2381 4750 
Q 2619 4750 2861 4703 
Q 3103 4656 3366 4563 
z
" transform="scale(0.015625)"/>
       </defs>
       <use xlink:href="#DejaVuSans-36"/>
      </g>
     </g>
    </g>
    <g id="ytick_7">
     <g id="line2d_31">
      <path d="M 32.47 64.282659 
L 853.2 64.282659 
" clip-path="url(#pdb3be3d4fc)" style="fill: none; stroke: #b0b0b0; stroke-width: 0.8; stroke-linecap: square"/>
     </g>
     <g id="line2d_32">
      <g>
       <use xlink:href="#meac26c0a8d" x="32.47" y="64.282659" style="stroke: #000000; stroke-width: 0.8"/>
      </g>
     </g>
     <g id="text_16">
      <!-- 8 -->
      <g transform="translate(19.1075 68.081878) scale(0.1 -0.1)">
       <defs>
        <path id="DejaVuSans-38" d="M 2034 2216 
Q 1584 2216 1326 1975 
Q 1069 1734 1069 1313 
Q 1069 891 1326 650 
Q 1584 409 2034 409 
Q 2484 409 2743 651 
Q 3003 894 3003 1313 
Q 3003 1734 2745 1975 
Q 2488 2216 2034 2216 
z
M 1403 2484 
Q 997 2584 770 2862 
Q 544 3141 544 3541 
Q 544 4100 942 4425 
Q 1341 4750 2034 4750 
Q 2731 4750 3128 4425 
Q 3525 4100 3525 3541 
Q 3525 3141 3298 2862 
Q 3072 2584 2669 2484 
Q 3125 2378 3379 2068 
Q 3634 1759 3634 1313 
Q 3634 634 3220 271 
Q 2806 -91 2034 -91 
Q 1263 -91 848 271 
Q 434 634 434 1313 
Q 434 1759 690 2068 
Q 947 2378 1403 2484 
z
M 1172 3481 
Q 1172 3119 1398 2916 
Q 1625 2713 2034 2713 
Q 2441 2713 2670 2916 
Q 2900 3119 2900 3481 
Q 2900 3844 2670 4047 
Q 2441 4250 2034 4250 
Q 1625 4250 1398 4047 
Q 1172 3844 1172 3481 
z
" transform="scale(0.015625)"/>
       </defs>
       <use xlink:href="#DejaVuSans-38"/>
      </g>
     </g>
    </g>
   </g>
   <g id="line2d_33">
    <path d="M 69.775909 356.372328 
L 71.645879 356.241584 
L 73.51585 344.562907 
L 75.38582 343.887756 
L 77.255791 353.691597 
L 79.125761 347.599556 
L 80.995731 352.690067 
L 82.865702 341.639976 
L 84.735672 340.450975 
L 86.605643 357.205233 
L 88.475613 364.194815 
L 90.345583 356.690659 
L 92.215554 356.121482 
L 94.085524 350.03038 
L 95.955494 358.409238 
L 97.825465 338.304657 
L 99.695435 352.475982 
L 101.565406 349.851028 
L 103.435376 349.260833 
L 107.175317 348.756912 
L 109.045287 347.868042 
L 110.915257 347.285148 
L 112.785228 367.6733 
L 114.655198 370.168414 
L 116.525169 371.939409 
L 118.395139 375.137256 
L 120.265109 367.372893 
L 122.13508 368.953413 
L 124.00505 360.776673 
L 125.875021 368.562287 
L 127.744991 364.300227 
L 129.614961 368.561082 
L 131.484932 364.14044 
L 133.354902 369.007369 
L 135.224872 370.181856 
L 137.094843 377.3994 
L 138.964813 386.972727 
L 140.834784 369.444293 
L 142.704754 377.614734 
L 144.574724 375.744257 
L 146.444695 383.732345 
L 148.314665 369.092133 
L 150.184635 375.65847 
L 152.054606 369.810801 
L 153.924576 359.758191 
L 155.794547 360.537217 
L 157.664517 354.65116 
L 159.534487 364.396481 
L 161.404458 359.07396 
L 163.274428 357.631983 
L 165.144398 368.10816 
L 167.014369 365.912827 
L 168.884339 368.55514 
L 170.75431 366.208369 
L 172.62428 369.441996 
L 174.49425 364.019556 
L 176.364221 349.142155 
L 178.234191 354.373704 
L 180.104162 345.948795 
L 181.974132 334.292448 
L 183.844102 335.419658 
L 185.714073 346.266445 
L 187.584043 338.604545 
L 191.323984 355.694616 
L 193.193954 357.018212 
L 195.063925 356.528773 
L 196.933895 344.706134 
L 198.803865 361.296594 
L 200.673836 351.450209 
L 202.543806 350.971505 
L 204.413776 352.932129 
L 206.283747 346.868219 
L 208.153717 350.976375 
L 210.023688 358.894781 
L 211.893658 351.453519 
L 213.763628 364.429023 
L 215.633599 362.982927 
L 217.503569 369.909444 
L 219.37354 373.840249 
L 221.24351 379.6896 
L 223.11348 370.782218 
L 224.983451 369.53476 
L 226.853421 370.043531 
L 228.723391 371.506912 
L 230.593362 375.059136 
L 232.463332 365.783723 
L 234.333303 369.189185 
L 236.203273 370.80451 
L 238.073243 371.482698 
L 239.943214 360.857058 
L 241.813184 365.960382 
L 243.683154 359.768299 
L 245.553125 372.833963 
L 247.423095 367.51262 
L 249.293066 368.540183 
L 251.163036 371.566541 
L 253.033006 364.967349 
L 254.902977 347.361111 
L 256.772947 354.695757 
L 258.642918 351.007803 
L 260.512888 346.81062 
L 262.382858 340.3766 
L 264.252829 334.364057 
L 266.122799 337.436511 
L 267.992769 343.751985 
L 269.86274 340.119218 
L 271.73271 353.740245 
L 273.602681 338.328132 
L 275.472651 343.252807 
L 277.342621 346.7086 
L 279.212592 337.934465 
L 281.082562 336.451622 
L 282.952532 338.9489 
L 284.822503 340.862468 
L 286.692473 332.99141 
L 288.562444 339.612017 
L 290.432414 332.998666 
L 292.302384 331.204877 
L 294.172355 338.429587 
L 296.042325 340.920038 
L 297.912296 352.466531 
L 299.782266 349.092366 
L 301.652236 343.365333 
L 303.522207 358.399408 
L 305.392177 354.633547 
L 307.262147 363.725632 
L 309.132118 352.434899 
L 311.002088 345.697556 
L 312.872059 355.044806 
L 314.742029 343.620158 
L 316.611999 340.679395 
L 318.48197 344.70151 
L 320.35194 347.430776 
L 322.22191 344.770693 
L 324.091881 362.604837 
L 325.961851 364.442148 
L 327.831822 357.102048 
L 329.701792 367.47346 
L 331.571762 355.575712 
L 333.441733 358.195585 
L 335.311703 354.022052 
L 337.181674 346.322233 
L 339.051644 337.577827 
L 340.921614 344.094397 
L 342.791585 332.432848 
L 344.661555 337.29406 
L 346.531525 334.358889 
L 348.401496 332.668175 
L 350.271466 325.990133 
L 352.141437 339.185354 
L 354.011407 332.59303 
L 355.881377 339.453718 
L 357.751348 332.337096 
L 359.621318 333.265957 
L 361.491288 336.680557 
L 363.361259 329.780484 
L 365.231229 316.273123 
L 367.1012 309.216359 
L 368.97117 306.89133 
L 370.84114 314.249118 
L 372.711111 314.389374 
L 374.581081 317.87807 
L 376.451051 326.796037 
L 378.321022 314.093305 
L 380.190992 330.434771 
L 382.060963 329.798904 
L 383.930933 327.783099 
L 385.800903 316.27697 
L 387.670874 320.710835 
L 389.540844 320.507665 
L 391.410815 309.689387 
L 393.280785 311.279173 
L 395.150755 317.643184 
L 397.020726 320.147231 
L 398.890696 313.662259 
L 400.760666 318.19007 
L 404.500607 331.692222 
L 406.370578 331.140866 
L 408.240548 327.944762 
L 410.110518 327.256778 
L 411.980489 332.515707 
L 413.850459 327.24771 
L 415.720429 320.348444 
L 417.5904 319.905897 
L 419.46037 322.122747 
L 421.330341 312.62603 
L 423.200311 319.407385 
L 425.070281 314.949804 
L 426.940252 313.368771 
L 428.810222 322.167203 
L 430.680193 320.684561 
L 432.550163 315.799539 
L 434.420133 313.563163 
L 436.290104 319.514686 
L 438.160074 321.197351 
L 440.030044 313.889318 
L 441.900015 307.8403 
L 443.769985 312.148678 
L 445.639956 294.370332 
L 447.509926 293.145131 
L 449.379896 285.409191 
L 451.249867 293.404472 
L 453.119837 284.3681 
L 454.989807 287.643225 
L 456.859778 293.598906 
L 458.729748 289.274002 
L 460.599719 289.991002 
L 462.469689 296.596149 
L 464.339659 286.623171 
L 466.20963 291.890967 
L 468.0796 283.300889 
L 469.949571 286.478257 
L 473.689511 270.718786 
L 475.559482 272.513804 
L 477.429452 270.35319 
L 479.299422 285.508398 
L 481.169393 290.705368 
L 483.039363 290.140651 
L 484.909334 289.145928 
L 486.779304 293.627906 
L 488.649274 281.836475 
L 492.389215 294.355417 
L 494.259185 284.091384 
L 496.129156 284.156096 
L 497.999126 281.440068 
L 499.869097 280.741457 
L 501.739067 286.335978 
L 503.609037 284.979203 
L 505.479008 281.945326 
L 507.348978 287.663994 
L 509.218949 280.510659 
L 511.088919 295.828618 
L 512.958889 280.264261 
L 514.82886 287.719272 
L 516.69883 285.052323 
L 518.5688 283.057772 
L 520.438771 296.953905 
L 522.308741 266.083159 
L 524.178712 272.763641 
L 526.048682 265.008221 
L 527.918652 264.335446 
L 531.658593 261.160547 
L 533.528563 256.612745 
L 535.398534 252.582358 
L 537.268504 266.175172 
L 539.138475 259.34285 
L 541.008445 259.15559 
L 542.878415 256.629497 
L 544.748386 258.146323 
L 546.618356 244.701585 
L 548.488326 233.303304 
L 550.358297 242.383771 
L 552.228267 233.656435 
L 554.098238 239.682906 
L 555.968208 223.139364 
L 557.838178 228.430709 
L 559.708149 216.94021 
L 561.578119 229.419303 
L 563.44809 231.052061 
L 565.31806 239.818869 
L 567.18803 234.595324 
L 569.058001 227.939119 
L 570.927971 245.997531 
L 572.797941 246.193367 
L 574.667912 235.848143 
L 576.537882 232.927024 
L 580.277823 222.315861 
L 582.147793 227.468579 
L 584.017764 220.535295 
L 585.887734 224.286647 
L 587.757704 223.812736 
L 589.627675 227.905917 
L 591.497645 236.027514 
L 593.367616 239.547521 
L 595.237586 238.444857 
L 597.107556 244.290224 
L 598.977527 239.830403 
L 600.847497 235.729464 
L 602.717468 229.611437 
L 604.587438 240.660245 
L 608.327379 223.581897 
L 610.197349 223.54417 
L 612.067319 218.901258 
L 613.93729 221.764608 
L 615.80726 219.775007 
L 617.677231 216.146332 
L 619.547201 223.296459 
L 621.417171 227.843811 
L 623.287142 217.198836 
L 625.157112 207.968906 
L 627.027082 211.511318 
L 628.897053 203.230445 
L 630.767023 202.888939 
L 632.636994 196.324376 
L 634.506964 185.465847 
L 636.376934 189.997534 
L 638.246905 175.009065 
L 640.116875 175.273236 
L 641.986846 182.910552 
L 643.856816 182.039795 
L 645.726786 178.85449 
L 647.596757 190.122886 
L 649.466727 186.220742 
L 651.336697 182.718725 
L 653.206668 179.867595 
L 655.076638 178.590891 
L 656.946609 170.657063 
L 658.816579 171.297858 
L 660.686549 158.537061 
L 662.55652 157.710082 
L 664.42649 144.74227 
L 666.29646 161.186004 
L 668.166431 166.135658 
L 670.036401 159.567759 
L 671.906372 171.497424 
L 673.776342 180.344339 
L 675.646312 180.686632 
L 677.516283 179.876041 
L 679.386253 158.779522 
L 681.256224 163.593886 
L 683.126194 165.418352 
L 684.996164 174.36864 
L 686.866135 166.767512 
L 688.736105 164.634248 
L 690.606075 159.730292 
L 692.476046 156.233636 
L 694.346016 166.401178 
L 696.215987 166.992901 
L 698.085957 163.90985 
L 699.955927 167.051604 
L 701.825898 163.95203 
L 703.695868 163.502576 
L 705.565838 155.324055 
L 707.435809 149.846336 
L 709.305779 156.034761 
L 711.17575 144.58981 
L 714.91569 128.715886 
L 716.785661 135.393288 
L 718.655631 136.623571 
L 720.525602 129.349602 
L 722.395572 128.258555 
L 724.265542 131.34557 
L 726.135513 122.959707 
L 728.005483 124.789526 
L 729.875453 122.480284 
L 731.745424 119.194773 
L 733.615394 116.487513 
L 735.485365 111.260613 
L 737.355335 108.473094 
L 739.225305 110.586203 
L 741.095276 101.378453 
L 742.965246 96.367106 
L 744.835216 83.313865 
L 746.705187 90.56225 
L 748.575157 94.504256 
L 750.445128 101.446404 
L 752.315098 101.582237 
L 754.185068 104.808411 
L 756.055039 101.928868 
L 757.925009 92.417769 
L 759.794979 101.700684 
L 761.66495 105.841514 
L 763.53492 92.932242 
L 765.404891 86.751315 
L 767.274861 86.527952 
L 769.144831 86.128537 
L 771.014802 102.324041 
L 772.884772 79.072458 
L 774.754743 90.728484 
L 776.624713 90.009781 
L 778.494683 100.155137 
L 780.364654 98.482103 
L 782.234624 88.407223 
L 784.104594 106.160557 
L 785.974565 95.38961 
L 787.844535 78.712008 
L 789.714506 76.168501 
L 791.584476 70.644845 
L 793.454446 76.50881 
L 795.324417 76.698263 
L 797.194387 68.042459 
L 799.064357 67.904823 
L 800.934328 70.564186 
L 802.804298 74.151902 
L 804.674269 77.292783 
L 806.544239 77.061993 
L 810.28418 52.865549 
L 812.15415 67.308335 
L 814.024121 56.230926 
L 815.894091 44.027273 
L 815.894091 44.027273 
" clip-path="url(#pdb3be3d4fc)" style="fill: none; stroke: #008000; stroke-width: 1.5; stroke-linecap: square"/>
   </g>
   <g id="line2d_34">
    <path d="M 75.38582 350.402246 
L 77.255791 344.225332 
L 79.125761 348.789677 
L 80.995731 350.645576 
L 82.865702 350.144811 
L 84.735672 347.165021 
L 86.605643 341.045475 
L 88.475613 348.828104 
L 90.345583 360.700024 
L 92.215554 360.442737 
L 94.085524 356.406071 
L 95.955494 353.075931 
L 97.825465 354.219809 
L 99.695435 348.356947 
L 101.565406 345.39032 
L 103.435376 351.163505 
L 105.305346 349.55593 
L 107.175317 349.162025 
L 109.045287 348.910064 
L 110.915257 348.312477 
L 112.785228 347.576595 
L 114.655198 357.479224 
L 116.525169 368.920857 
L 118.395139 371.053912 
L 120.265109 373.538333 
L 122.13508 371.255074 
L 125.875021 364.865043 
L 127.744991 364.66948 
L 129.614961 366.431257 
L 133.354902 366.350761 
L 135.224872 366.573904 
L 137.094843 369.594612 
L 138.964813 373.790628 
L 140.834784 382.186064 
L 142.704754 378.20851 
L 144.574724 373.529513 
L 148.314665 379.738301 
L 150.184635 376.412239 
L 152.054606 372.375302 
L 153.924576 372.734635 
L 155.794547 364.784496 
L 157.664517 360.147704 
L 159.534487 357.594188 
L 161.404458 359.52382 
L 163.274428 361.735221 
L 165.144398 358.352972 
L 167.014369 362.870072 
L 168.884339 367.010494 
L 172.62428 367.381754 
L 174.49425 367.825182 
L 176.364221 366.730776 
L 178.234191 356.580855 
L 180.104162 351.757929 
L 181.974132 350.161249 
L 183.844102 340.120622 
L 185.714073 334.856053 
L 187.584043 340.843052 
L 189.454013 342.435495 
L 191.323984 342.961551 
L 193.193954 351.506587 
L 195.063925 356.356414 
L 196.933895 356.773492 
L 198.803865 350.617454 
L 200.673836 353.001364 
L 202.543806 356.373402 
L 204.413776 351.210857 
L 206.283747 351.951817 
L 208.153717 349.900174 
L 210.023688 348.922297 
L 211.893658 354.935578 
L 213.763628 355.17415 
L 215.633599 357.941271 
L 217.503569 363.705975 
L 219.37354 366.446185 
L 221.24351 371.874846 
L 223.11348 376.764924 
L 224.983451 375.235909 
L 226.853421 370.158489 
L 228.723391 369.789146 
L 230.593362 370.775222 
L 232.463332 373.283024 
L 236.203273 367.486454 
L 238.073243 369.996848 
L 239.943214 371.143604 
L 241.813184 366.169878 
L 243.683154 363.40872 
L 245.553125 362.86434 
L 247.423095 366.301131 
L 249.293066 370.173292 
L 251.163036 368.026402 
L 253.033006 370.053362 
L 254.902977 368.266945 
L 256.772947 356.16423 
L 258.642918 351.028434 
L 260.512888 352.85178 
L 262.382858 348.909211 
L 264.252829 343.59361 
L 266.122799 337.370329 
L 267.992769 335.900284 
L 269.86274 340.594248 
L 271.73271 341.935601 
L 273.602681 346.929732 
L 275.472651 346.034189 
L 277.342621 340.79047 
L 279.212592 344.980704 
L 281.082562 342.321533 
L 282.952532 337.193043 
L 284.822503 337.700261 
L 286.692473 339.905684 
L 288.562444 336.926939 
L 290.432414 336.301713 
L 292.302384 336.305341 
L 294.172355 332.101772 
L 296.042325 334.817232 
L 297.912296 339.674812 
L 299.782266 346.693284 
L 301.652236 350.779449 
L 303.522207 346.22885 
L 305.392177 350.882371 
L 307.262147 356.516477 
L 309.132118 359.179589 
L 311.002088 358.080266 
L 312.872059 349.066228 
L 314.742029 350.371181 
L 316.611999 349.332482 
L 318.48197 342.149777 
L 320.35194 342.690453 
L 322.22191 346.066143 
L 324.091881 346.100735 
L 325.961851 353.687765 
L 327.831822 363.523492 
L 329.701792 360.772098 
L 331.571762 362.287754 
L 333.441733 361.524586 
L 335.311703 356.885648 
L 337.181674 356.108818 
L 339.051644 350.172143 
L 340.921614 341.95003 
L 342.791585 340.836112 
L 344.661555 338.263623 
L 346.531525 334.863454 
L 348.401496 335.826474 
L 350.271466 333.513532 
L 352.141437 329.329154 
L 355.881377 335.889192 
L 357.751348 336.023374 
L 359.621318 335.895407 
L 361.491288 332.801526 
L 363.361259 334.973257 
L 365.231229 333.230521 
L 368.97117 312.744741 
L 370.84114 308.053845 
L 372.711111 310.570224 
L 374.581081 314.319246 
L 376.451051 316.133722 
L 378.321022 322.337054 
L 380.190992 320.444671 
L 382.060963 322.264038 
L 383.930933 330.116838 
L 385.800903 328.791001 
L 387.670874 322.030034 
L 389.540844 318.493903 
L 391.410815 320.60925 
L 393.280785 315.098526 
L 395.150755 310.48428 
L 397.020726 314.461179 
L 398.890696 318.895207 
L 400.760666 316.904745 
L 402.630637 315.926165 
L 404.500607 321.665322 
L 406.370578 328.416398 
L 408.240548 331.416544 
L 411.980489 327.60077 
L 413.850459 329.886242 
L 415.720429 329.881709 
L 417.5904 323.798077 
L 419.46037 320.12717 
L 421.330341 321.014322 
L 423.200311 317.374388 
L 425.070281 316.016707 
L 426.940252 317.178594 
L 428.810222 314.159288 
L 432.550163 321.425882 
L 434.420133 318.24205 
L 436.290104 314.681351 
L 438.160074 316.538925 
L 440.030044 320.356019 
L 441.900015 317.543335 
L 443.769985 310.864809 
L 445.639956 309.994489 
L 447.509926 303.259505 
L 449.379896 293.757731 
L 451.249867 289.277161 
L 453.119837 289.406831 
L 454.989807 288.886286 
L 456.859778 286.005662 
L 458.729748 290.621065 
L 460.599719 291.436454 
L 462.469689 289.632502 
L 464.339659 293.293575 
L 466.20963 291.60966 
L 468.0796 289.257069 
L 469.949571 287.595928 
L 471.819541 284.889573 
L 473.689511 282.469972 
L 475.559482 274.590236 
L 477.429452 271.616295 
L 479.299422 271.433497 
L 481.169393 277.930794 
L 483.039363 288.106883 
L 484.909334 290.42301 
L 486.779304 289.643289 
L 488.649274 291.386917 
L 490.519245 287.732191 
L 492.389215 284.906287 
L 494.259185 291.165758 
L 496.129156 289.223401 
L 497.999126 284.12374 
L 499.869097 282.798082 
L 501.739067 281.090763 
L 503.609037 283.538717 
L 505.479008 285.65759 
L 507.348978 283.462265 
L 509.218949 284.80466 
L 511.088919 284.087327 
L 512.958889 288.169639 
L 514.82886 288.04644 
L 516.69883 283.991767 
L 518.5688 286.385797 
L 520.438771 284.055047 
L 522.308741 290.005839 
L 524.178712 281.518532 
L 526.048682 269.4234 
L 527.918652 268.885931 
L 529.788623 264.671833 
L 531.658593 263.524222 
L 533.528563 261.936773 
L 535.398534 258.886646 
L 537.268504 254.597552 
L 539.138475 259.378765 
L 541.008445 262.759011 
L 542.878415 259.24922 
L 544.748386 257.892543 
L 546.618356 257.38791 
L 548.488326 251.423954 
L 550.358297 239.002444 
L 552.228267 237.843537 
L 554.098238 238.020103 
L 555.968208 236.66967 
L 557.838178 231.411135 
L 559.708149 225.785037 
L 561.578119 222.68546 
L 563.44809 223.179756 
L 565.31806 230.235682 
L 567.18803 235.435465 
L 569.058001 237.207096 
L 570.927971 231.267221 
L 572.797941 236.968325 
L 574.667912 246.095449 
L 576.537882 241.020755 
L 578.407853 234.387584 
L 580.277823 230.224821 
L 582.147793 224.91924 
L 584.017764 224.89222 
L 585.887734 224.001937 
L 587.757704 222.410971 
L 589.627675 224.049692 
L 591.497645 225.859327 
L 595.237586 237.787518 
L 597.107556 238.996189 
L 598.977527 241.36754 
L 600.847497 242.060314 
L 602.717468 237.779934 
L 604.587438 232.670451 
L 606.457408 235.135841 
L 608.327379 236.274453 
L 610.197349 227.735279 
L 612.067319 223.563034 
L 613.93729 221.222714 
L 615.80726 220.332933 
L 617.677231 220.769808 
L 619.547201 217.96067 
L 621.417171 219.721396 
L 623.287142 225.570135 
L 625.157112 222.521324 
L 627.027082 212.583871 
L 628.897053 209.740112 
L 630.767023 207.370881 
L 632.636994 203.059692 
L 634.506964 199.606657 
L 636.376934 190.895112 
L 638.246905 187.73169 
L 640.116875 182.503299 
L 641.986846 175.141151 
L 643.856816 179.091894 
L 645.726786 182.475174 
L 647.596757 180.447142 
L 649.466727 184.488688 
L 651.336697 188.171814 
L 653.206668 184.469733 
L 655.076638 181.29316 
L 656.946609 179.229243 
L 658.816579 174.623977 
L 660.686549 170.97746 
L 662.55652 164.917459 
L 666.29646 151.226176 
L 668.166431 152.964137 
L 670.036401 163.660831 
L 671.906372 162.851708 
L 673.776342 165.532592 
L 675.646312 175.920882 
L 677.516283 180.515485 
L 679.386253 180.281336 
L 681.256224 169.327782 
L 683.126194 161.186704 
L 684.996164 164.506119 
L 686.866135 169.893496 
L 688.736105 170.568076 
L 690.606075 165.70088 
L 692.476046 162.18227 
L 694.346016 157.981964 
L 696.215987 161.317407 
L 698.085957 166.697039 
L 699.955927 165.451375 
L 703.695868 165.501817 
L 705.565838 163.727303 
L 707.435809 159.413316 
L 709.305779 152.585196 
L 711.17575 152.940548 
L 713.04572 150.312285 
L 714.91569 140.58134 
L 716.785661 132.644378 
L 718.655631 132.054587 
L 720.525602 136.00843 
L 722.395572 132.986587 
L 724.265542 128.804079 
L 726.135513 129.802062 
L 728.005483 127.152638 
L 729.875453 123.874616 
L 731.745424 123.634905 
L 735.485365 117.841143 
L 739.225305 109.866853 
L 741.095276 109.529649 
L 742.965246 105.982328 
L 744.835216 98.87278 
L 746.705187 89.840485 
L 748.575157 86.938057 
L 752.315098 97.97533 
L 754.185068 101.51432 
L 756.055039 103.195324 
L 757.925009 103.36864 
L 759.794979 97.173318 
L 761.66495 97.059227 
L 763.53492 103.771099 
L 765.404891 99.386878 
L 767.274861 89.841779 
L 769.144831 86.639634 
L 771.014802 86.328245 
L 772.884772 94.226289 
L 774.754743 90.698249 
L 776.624713 84.900471 
L 778.494683 90.369133 
L 780.364654 95.082459 
L 782.234624 99.31862 
L 784.104594 93.444663 
L 785.974565 97.28389 
L 787.844535 100.775083 
L 789.714506 87.050809 
L 791.584476 77.440255 
L 793.454446 73.406673 
L 795.324417 73.576828 
L 797.194387 76.603537 
L 800.934328 67.973641 
L 802.804298 69.234504 
L 804.674269 72.358044 
L 806.544239 75.722343 
L 808.414209 77.177388 
L 810.28418 71.14813 
L 812.15415 59.049908 
L 814.024121 60.086942 
L 815.894091 61.769631 
L 815.894091 61.769631 
" clip-path="url(#pdb3be3d4fc)" style="fill: none; stroke: #ff0000; stroke-width: 1.5; stroke-linecap: square"/>
   </g>
   <g id="line2d_35">
    <path d="M 75.38582 348.230189 
L 77.255791 344.228132 
L 79.125761 349.924129 
L 80.995731 349.195271 
L 82.865702 351.391922 
L 84.735672 344.805511 
L 86.605643 341.221888 
L 90.345583 361.581185 
L 94.085524 356.931329 
L 95.955494 351.483916 
L 97.825465 355.862328 
L 99.695435 343.870174 
L 101.565406 348.947606 
L 103.435376 348.974108 
L 105.305346 350.545758 
L 107.175317 348.163312 
L 109.045287 349.63082 
L 110.915257 347.13045 
L 112.785228 348.240696 
L 114.655198 360.198196 
L 116.525169 369.58944 
L 118.395139 371.340791 
L 120.265109 374.827936 
L 122.13508 369.214721 
L 124.00505 369.170432 
L 125.875021 362.302997 
L 127.744991 366.811577 
L 129.614961 364.269901 
L 131.484932 368.276375 
L 133.354902 364.285281 
L 135.224872 368.581104 
L 137.094843 368.37726 
L 138.964813 376.218542 
L 140.834784 382.616951 
L 142.704754 376.072934 
L 144.574724 374.705096 
L 146.444695 376.256809 
L 148.314665 380.602403 
L 150.184635 373.920302 
L 152.054606 373.692521 
L 153.924576 371.103002 
L 155.794547 362.966606 
L 157.664517 360.214169 
L 159.534487 355.883021 
L 161.404458 361.366007 
L 165.144398 358.739985 
L 167.014369 364.208206 
L 168.884339 366.540474 
L 170.75431 367.730746 
L 172.62428 367.005194 
L 174.49425 368.279034 
L 176.364221 365.563008 
L 178.234191 353.86752 
L 180.104162 352.80428 
L 181.974132 347.580574 
L 183.844102 338.35851 
L 185.714073 334.597803 
L 187.584043 342.500261 
L 189.454013 340.306434 
L 191.323984 345.453273 
L 193.193954 352.088161 
L 195.063925 357.16027 
L 196.933895 356.372179 
L 198.803865 349.009665 
L 200.673836 355.73987 
L 202.543806 353.905346 
L 204.413776 351.646574 
L 206.283747 351.924712 
L 208.153717 348.644962 
L 210.023688 349.664655 
L 211.893658 356.017549 
L 213.763628 353.606178 
L 215.633599 360.815573 
L 217.503569 362.626865 
L 219.37354 368.431731 
L 221.24351 371.931637 
L 223.11348 378.422858 
L 224.983451 372.986449 
L 228.723391 368.801553 
L 230.593362 371.476761 
L 232.463332 373.059646 
L 234.333303 369.24957 
L 236.203273 367.731855 
L 238.073243 370.286292 
L 239.943214 370.698546 
L 241.813184 364.548806 
L 243.683154 364.164891 
L 245.553125 361.31218 
L 247.423095 368.71189 
L 249.293066 368.545654 
L 251.163036 368.853114 
L 253.033006 370.094759 
L 254.902977 367.167314 
L 256.772947 352.725154 
L 258.642918 352.745366 
L 262.382858 348.762302 
L 264.252829 341.669053 
L 266.122799 336.760098 
L 267.992769 335.55644 
L 269.86274 341.907987 
L 271.73271 340.48768 
L 273.602681 350.358425 
L 275.472651 341.94927 
L 277.342621 343.371379 
L 279.212592 343.814873 
L 281.082562 341.765011 
L 282.952532 335.983894 
L 284.822503 338.909539 
L 286.692473 338.892928 
L 288.562444 336.441883 
L 290.432414 336.717401 
L 292.302384 335.436075 
L 294.172355 331.230527 
L 296.042325 336.5804 
L 297.912296 339.08836 
L 299.782266 349.65184 
L 301.652236 349.198892 
L 303.522207 346.469204 
L 305.392177 352.799012 
L 307.262147 355.908071 
L 309.132118 360.725941 
L 311.002088 356.129043 
L 312.872059 347.96915 
L 314.742029 351.991019 
L 316.611999 346.270629 
L 318.48197 342.38957 
L 320.35194 342.569588 
L 322.22191 346.671959 
L 324.091881 345.062311 
L 325.961851 357.62328 
L 327.831822 362.69053 
L 329.701792 360.646267 
L 331.571762 363.756842 
L 333.441733 359.356207 
L 335.311703 357.347879 
L 337.181674 355.092995 
L 339.051644 348.501219 
L 340.921614 340.392623 
L 342.791585 341.648566 
L 344.661555 335.49748 
L 346.531525 336.145248 
L 348.401496 334.479887 
L 350.271466 333.570541 
L 352.141437 327.575103 
L 354.011407 335.436193 
L 355.881377 333.467693 
L 357.751348 338.478678 
L 359.621318 333.369199 
L 361.491288 334.202685 
L 363.361259 334.231437 
L 365.231229 332.795879 
L 367.1012 319.687289 
L 368.97117 312.398387 
L 370.84114 306.087205 
L 372.711111 312.505981 
L 374.581081 312.902451 
L 376.451051 318.064799 
L 378.321022 322.822329 
L 380.190992 319.033248 
L 382.060963 324.929133 
L 383.930933 329.884548 
L 385.800903 328.313588 
L 387.670874 320.392247 
L 389.540844 319.067609 
L 391.410815 320.155293 
L 393.280785 312.877664 
L 395.150755 311.151533 
L 397.020726 314.873818 
L 398.890696 319.377386 
L 400.760666 315.544201 
L 402.630637 317.303769 
L 404.500607 322.202843 
L 406.370578 329.897822 
L 408.240548 330.992328 
L 410.110518 329.620657 
L 411.980489 327.077531 
L 413.850459 331.066099 
L 415.720429 328.193838 
L 417.5904 323.207114 
L 419.46037 319.454874 
L 421.330341 321.515828 
L 423.200311 314.897911 
L 425.070281 318.014906 
L 426.940252 315.143111 
L 428.810222 314.797339 
L 430.680193 318.45237 
L 432.550163 321.547954 
L 434.420133 316.911789 
L 436.290104 314.972706 
L 438.160074 316.777608 
L 440.030044 320.921202 
L 443.769985 310.521535 
L 445.639956 310.004947 
L 447.509926 299.995408 
L 451.249867 287.386931 
L 453.119837 290.677302 
L 454.989807 286.628542 
L 456.859778 287.159434 
L 458.729748 291.064426 
L 460.599719 290.810797 
L 462.469689 289.780053 
L 464.339659 294.578127 
L 466.20963 289.307039 
L 468.0796 290.968022 
L 469.949571 285.060411 
L 471.819541 286.296874 
L 473.689511 279.866595 
L 475.559482 274.10366 
L 477.429452 270.962491 
L 479.299422 271.363569 
L 481.169393 280.026121 
L 483.039363 289.248463 
L 484.909334 290.232106 
L 486.779304 290.241246 
L 488.649274 291.775329 
L 490.519245 285.742191 
L 492.389215 286.085943 
L 494.259185 291.934167 
L 496.129156 287.122035 
L 497.999126 284.768147 
L 499.869097 281.660942 
L 501.739067 281.189041 
L 503.609037 284.08019 
L 505.479008 285.507626 
L 507.348978 282.813678 
L 509.218949 286.148744 
L 511.088919 282.157927 
L 512.958889 291.70345 
L 514.82886 283.982023 
L 516.69883 286.976809 
L 518.5688 284.214434 
L 520.438771 284.98168 
L 522.308741 291.346301 
L 524.178712 276.41024 
L 526.048682 270.986606 
L 527.918652 266.673448 
L 529.788623 264.396729 
L 533.528563 261.529279 
L 535.398534 257.998977 
L 537.268504 253.831688 
L 539.138475 261.798201 
L 541.008445 260.860912 
L 542.878415 260.06003 
L 544.748386 256.919938 
L 546.618356 258.047685 
L 548.488326 248.283169 
L 550.358297 237.709253 
L 552.228267 238.693927 
L 554.098238 236.094214 
L 555.968208 237.860726 
L 557.838178 228.120293 
L 559.708149 227.306717 
L 561.578119 219.626219 
L 563.44809 226.197371 
L 565.31806 229.28386 
L 567.18803 238.146583 
L 569.058001 235.400181 
L 570.927971 231.421246 
L 572.797941 239.425494 
L 574.667912 246.23455 
L 576.537882 239.030673 
L 578.407853 234.863797 
L 580.277823 228.245278 
L 582.147793 224.50801 
L 584.017764 225.022594 
L 585.887734 222.980501 
L 587.757704 222.881495 
L 589.627675 224.100137 
L 591.497645 226.370951 
L 593.367616 233.709403 
L 595.237586 238.130934 
L 597.107556 239.380191 
L 598.977527 242.390024 
L 600.847497 241.342416 
L 602.717468 237.123324 
L 604.587438 231.623626 
L 606.457408 237.022326 
L 608.327379 234.104047 
L 610.197349 226.873707 
L 612.067319 223.292811 
L 613.93729 220.166225 
L 615.80726 220.713675 
L 617.677231 220.2539 
L 619.547201 217.366622 
L 621.417171 221.126583 
L 623.287142 226.039934 
L 625.157112 220.788389 
L 627.027082 211.282034 
L 628.897053 210.280084 
L 630.767023 205.226007 
L 632.636994 203.374953 
L 634.506964 197.883215 
L 636.376934 189.260781 
L 638.246905 188.274327 
L 640.116875 179.377131 
L 641.986846 175.54888 
L 643.856816 179.946778 
L 645.726786 182.172999 
L 647.596757 180.130573 
L 649.466727 186.822074 
L 651.336697 186.991713 
L 653.206668 184.570899 
L 655.076638 180.536254 
L 656.946609 179.245886 
L 658.816579 172.727883 
L 660.686549 171.594291 
L 662.55652 161.82914 
L 664.42649 158.76866 
L 666.29646 147.765225 
L 668.166431 156.973164 
L 670.036401 162.847665 
L 671.906372 163.164526 
L 673.776342 167.256034 
L 675.646312 178.146811 
L 677.516283 179.958485 
L 679.386253 181.474823 
L 681.256224 164.696748 
L 683.126194 163.536509 
L 684.996164 162.81632 
L 686.866135 172.792907 
L 688.736105 167.795596 
L 690.606075 167.325377 
L 692.476046 159.692607 
L 694.346016 158.847593 
L 696.215987 161.613323 
L 698.085957 167.89704 
L 699.955927 163.944232 
L 701.825898 167.618661 
L 703.695868 163.504106 
L 705.565838 165.190249 
L 707.435809 156.489151 
L 709.305779 153.162351 
L 711.17575 152.532836 
L 713.04572 149.172804 
L 714.91569 138.350393 
L 716.785661 132.187609 
L 718.655631 132.061051 
L 720.525602 136.767593 
L 722.395572 130.953956 
L 724.265542 129.878927 
L 726.135513 129.298029 
L 729.875453 123.728485 
L 731.745424 123.731819 
L 733.615394 119.670336 
L 735.485365 118.082052 
L 737.355335 112.26344 
L 739.225305 110.079565 
L 741.095276 109.193458 
L 742.965246 104.80346 
L 744.835216 97.733717 
L 746.705187 87.793354 
L 748.575157 87.998784 
L 750.445128 92.956494 
L 752.315098 99.26776 
L 754.185068 101.873638 
L 756.055039 104.15765 
L 757.925009 102.995321 
L 759.794979 95.697492 
L 761.66495 99.045188 
L 763.53492 103.943802 
L 765.404891 97.449263 
L 767.274861 89.187563 
L 769.144831 86.494119 
L 771.014802 85.94349 
L 772.884772 97.376594 
L 774.754743 85.934069 
L 776.624713 88.774135 
L 778.494683 88.649151 
L 780.364654 98.280516 
L 782.234624 97.894605 
L 784.104594 93.292844 
L 785.974565 99.830809 
L 787.844535 99.072877 
L 789.714506 84.108687 
L 791.584476 77.863107 
L 793.454446 71.139676 
L 795.324417 75.380542 
L 797.194387 75.584191 
L 799.064357 71.948407 
L 800.934328 67.505759 
L 802.804298 70.336572 
L 804.674269 72.266018 
L 806.544239 77.196117 
L 808.414209 76.660317 
L 810.28418 69.966238 
L 812.15415 56.494989 
L 814.024121 63.383349 
L 815.894091 58.168666 
L 815.894091 58.168666 
" clip-path="url(#pdb3be3d4fc)" style="fill: none; stroke-dasharray: 5.55,2.4; stroke-dashoffset: 0; stroke: #0000ff; stroke-width: 1.5"/>
   </g>
   <g id="patch_3">
    <path d="M 32.47 404.12 
L 32.47 26.88 
" style="fill: none; stroke: #000000; stroke-width: 0.8; stroke-linejoin: miter; stroke-linecap: square"/>
   </g>
   <g id="patch_4">
    <path d="M 853.2 404.12 
L 853.2 26.88 
" style="fill: none; stroke: #000000; stroke-width: 0.8; stroke-linejoin: miter; stroke-linecap: square"/>
   </g>
   <g id="patch_5">
    <path d="M 32.47 404.12 
L 853.2 404.12 
" style="fill: none; stroke: #000000; stroke-width: 0.8; stroke-linejoin: miter; stroke-linecap: square"/>
   </g>
   <g id="patch_6">
    <path d="M 32.47 26.88 
L 853.2 26.88 
" style="fill: none; stroke: #000000; stroke-width: 0.8; stroke-linejoin: miter; stroke-linecap: square"/>
   </g>
   <g id="text_17">
    <!-- Manual ARMA vs statsmodels ARIMA -->
    <g transform="translate(333.407188 20.88) scale(0.12 -0.12)">
     <defs>
      <path id="DejaVuSans-4d" d="M 628 4666 
L 1569 4666 
L 2759 1491 
L 3956 4666 
L 4897 4666 
L 4897 0 
L 4281 0 
L 4281 4097 
L 3078 897 
L 2444 897 
L 1241 4097 
L 1241 0 
L 628 0 
L 628 4666 
z
" transform="scale(0.015625)"/>
      <path id="DejaVuSans-61" d="M 2194 1759 
Q 1497 1759 1228 1600 
Q 959 1441 959 1056 
Q 959 750 1161 570 
Q 1363 391 1709 391 
Q 2188 391 2477 730 
Q 2766 1069 2766 1631 
L 2766 1759 
L 2194 1759 
z
M 3341 1997 
L 3341 0 
L 2766 0 
L 2766 531 
Q 2569 213 2275 61 
Q 1981 -91 1556 -91 
Q 1019 -91 701 211 
Q 384 513 384 1019 
Q 384 1609 779 1909 
Q 1175 2209 1959 2209 
L 2766 2209 
L 2766 2266 
Q 2766 2663 2505 2880 
Q 2244 3097 1772 3097 
Q 1472 3097 1187 3025 
Q 903 2953 641 2809 
L 641 3341 
Q 956 3463 1253 3523 
Q 1550 3584 1831 3584 
Q 2591 3584 2966 3190 
Q 3341 2797 3341 1997 
z
" transform="scale(0.015625)"/>
      <path id="DejaVuSans-6e" d="M 3513 2113 
L 3513 0 
L 2938 0 
L 2938 2094 
Q 2938 2591 2744 2837 
Q 2550 3084 2163 3084 
Q 1697 3084 1428 2787 
Q 1159 2491 1159 1978 
L 1159 0 
L 581 0 
L 581 3500 
L 1159 3500 
L 1159 2956 
Q 1366 3272 1645 3428 
Q 1925 3584 2291 3584 
Q 2894 3584 3203 3211 
Q 3513 2838 3513 2113 
z
" transform="scale(0.015625)"/>
      <path id="DejaVuSans-75" d="M 544 1381 
L 544 3500 
L 1119 3500 
L 1119 1403 
Q 1119 906 1312 657 
Q 1506 409 1894 409 
Q 2359 409 2629 706 
Q 2900 1003 2900 1516 
L 2900 3500 
L 3475 3500 
L 3475 0 
L 2900 0 
L 2900 538 
Q 2691 219 2414 64 
Q 2138 -91 1772 -91 
Q 1169 -91 856 284 
Q 544 659 544 1381 
z
M 1991 3584 
L 1991 3584 
z
" transform="scale(0.015625)"/>
      <path id="DejaVuSans-6c" d="M 603 4863 
L 1178 4863 
L 1178 0 
L 603 0 
L 603 4863 
z
" transform="scale(0.015625)"/>
      <path id="DejaVuSans-20" transform="scale(0.015625)"/>
      <path id="DejaVuSans-41" d="M 2188 4044 
L 1331 1722 
L 3047 1722 
L 2188 4044 
z
M 1831 4666 
L 2547 4666 
L 4325 0 
L 3669 0 
L 3244 1197 
L 1141 1197 
L 716 0 
L 50 0 
L 1831 4666 
z
" transform="scale(0.015625)"/>
      <path id="DejaVuSans-52" d="M 2841 2188 
Q 3044 2119 3236 1894 
Q 3428 1669 3622 1275 
L 4263 0 
L 3584 0 
L 2988 1197 
Q 2756 1666 2539 1819 
Q 2322 1972 1947 1972 
L 1259 1972 
L 1259 0 
L 628 0 
L 628 4666 
L 2053 4666 
Q 2853 4666 3247 4331 
Q 3641 3997 3641 3322 
Q 3641 2881 3436 2590 
Q 3231 2300 2841 2188 
z
M 1259 4147 
L 1259 2491 
L 2053 2491 
Q 2509 2491 2742 2702 
Q 2975 2913 2975 3322 
Q 2975 3731 2742 3939 
Q 2509 4147 2053 4147 
L 1259 4147 
z
" transform="scale(0.015625)"/>
      <path id="DejaVuSans-76" d="M 191 3500 
L 800 3500 
L 1894 563 
L 2988 3500 
L 3597 3500 
L 2284 0 
L 1503 0 
L 191 3500 
z
" transform="scale(0.015625)"/>
      <path id="DejaVuSans-73" d="M 2834 3397 
L 2834 2853 
Q 2591 2978 2328 3040 
Q 2066 3103 1784 3103 
Q 1356 3103 1142 2972 
Q 928 2841 928 2578 
Q 928 2378 1081 2264 
Q 1234 2150 1697 2047 
L 1894 2003 
Q 2506 1872 2764 1633 
Q 3022 1394 3022 966 
Q 3022 478 2636 193 
Q 2250 -91 1575 -91 
Q 1294 -91 989 -36 
Q 684 19 347 128 
L 347 722 
Q 666 556 975 473 
Q 1284 391 1588 391 
Q 1994 391 2212 530 
Q 2431 669 2431 922 
Q 2431 1156 2273 1281 
Q 2116 1406 1581 1522 
L 1381 1569 
Q 847 1681 609 1914 
Q 372 2147 372 2553 
Q 372 3047 722 3315 
Q 1072 3584 1716 3584 
Q 2034 3584 2315 3537 
Q 2597 3491 2834 3397 
z
" transform="scale(0.015625)"/>
      <path id="DejaVuSans-74" d="M 1172 4494 
L 1172 3500 
L 2356 3500 
L 2356 3053 
L 1172 3053 
L 1172 1153 
Q 1172 725 1289 603 
Q 1406 481 1766 481 
L 2356 481 
L 2356 0 
L 1766 0 
Q 1100 0 847 248 
Q 594 497 594 1153 
L 594 3053 
L 172 3053 
L 172 3500 
L 594 3500 
L 594 4494 
L 1172 4494 
z
" transform="scale(0.015625)"/>
      <path id="DejaVuSans-6d" d="M 3328 2828 
Q 3544 3216 3844 3400 
Q 4144 3584 4550 3584 
Q 5097 3584 5394 3201 
Q 5691 2819 5691 2113 
L 5691 0 
L 5113 0 
L 5113 2094 
Q 5113 2597 4934 2840 
Q 4756 3084 4391 3084 
Q 3944 3084 3684 2787 
Q 3425 2491 3425 1978 
L 3425 0 
L 2847 0 
L 2847 2094 
Q 2847 2600 2669 2842 
Q 2491 3084 2119 3084 
Q 1678 3084 1418 2786 
Q 1159 2488 1159 1978 
L 1159 0 
L 581 0 
L 581 3500 
L 1159 3500 
L 1159 2956 
Q 1356 3278 1631 3431 
Q 1906 3584 2284 3584 
Q 2666 3584 2933 3390 
Q 3200 3197 3328 2828 
z
" transform="scale(0.015625)"/>
      <path id="DejaVuSans-6f" d="M 1959 3097 
Q 1497 3097 1228 2736 
Q 959 2375 959 1747 
Q 959 1119 1226 758 
Q 1494 397 1959 397 
Q 2419 397 2687 759 
Q 2956 1122 2956 1747 
Q 2956 2369 2687 2733 
Q 2419 3097 1959 3097 
z
M 1959 3584 
Q 2709 3584 3137 3096 
Q 3566 2609 3566 1747 
Q 3566 888 3137 398 
Q 2709 -91 1959 -91 
Q 1206 -91 779 398 
Q 353 888 353 1747 
Q 353 2609 779 3096 
Q 1206 3584 1959 3584 
z
" transform="scale(0.015625)"/>
      <path id="DejaVuSans-64" d="M 2906 2969 
L 2906 4863 
L 3481 4863 
L 3481 0 
L 2906 0 
L 2906 525 
Q 2725 213 2448 61 
Q 2172 -91 1784 -91 
Q 1150 -91 751 415 
Q 353 922 353 1747 
Q 353 2572 751 3078 
Q 1150 3584 1784 3584 
Q 2172 3584 2448 3432 
Q 2725 3281 2906 2969 
z
M 947 1747 
Q 947 1113 1208 752 
Q 1469 391 1925 391 
Q 2381 391 2643 752 
Q 2906 1113 2906 1747 
Q 2906 2381 2643 2742 
Q 2381 3103 1925 3103 
Q 1469 3103 1208 2742 
Q 947 2381 947 1747 
z
" transform="scale(0.015625)"/>
      <path id="DejaVuSans-65" d="M 3597 1894 
L 3597 1613 
L 953 1613 
Q 991 1019 1311 708 
Q 1631 397 2203 397 
Q 2534 397 2845 478 
Q 3156 559 3463 722 
L 3463 178 
Q 3153 47 2828 -22 
Q 2503 -91 2169 -91 
Q 1331 -91 842 396 
Q 353 884 353 1716 
Q 353 2575 817 3079 
Q 1281 3584 2069 3584 
Q 2775 3584 3186 3129 
Q 3597 2675 3597 1894 
z
M 3022 2063 
Q 3016 2534 2758 2815 
Q 2500 3097 2075 3097 
Q 1594 3097 1305 2825 
Q 1016 2553 972 2059 
L 3022 2063 
z
" transform="scale(0.015625)"/>
      <path id="DejaVuSans-49" d="M 628 4666 
L 1259 4666 
L 1259 0 
L 628 0 
L 628 4666 
z
" transform="scale(0.015625)"/>
     </defs>
     <use xlink:href="#DejaVuSans-4d"/>
     <use xlink:href="#DejaVuSans-61" transform="translate(86.279297 0)"/>
     <use xlink:href="#DejaVuSans-6e" transform="translate(147.558594 0)"/>
     <use xlink:href="#DejaVuSans-75" transform="translate(210.9375 0)"/>
     <use xlink:href="#DejaVuSans-61" transform="translate(274.316406 0)"/>
     <use xlink:href="#DejaVuSans-6c" transform="translate(335.595703 0)"/>
     <use xlink:href="#DejaVuSans-20" transform="translate(363.378906 0)"/>
     <use xlink:href="#DejaVuSans-41" transform="translate(395.166016 0)"/>
     <use xlink:href="#DejaVuSans-52" transform="translate(463.574219 0)"/>
     <use xlink:href="#DejaVuSans-4d" transform="translate(533.056641 0)"/>
     <use xlink:href="#DejaVuSans-41" transform="translate(619.335938 0)"/>
     <use xlink:href="#DejaVuSans-20" transform="translate(687.744141 0)"/>
     <use xlink:href="#DejaVuSans-76" transform="translate(719.53125 0)"/>
     <use xlink:href="#DejaVuSans-73" transform="translate(778.710938 0)"/>
     <use xlink:href="#DejaVuSans-20" transform="translate(830.810547 0)"/>
     <use xlink:href="#DejaVuSans-73" transform="translate(862.597656 0)"/>
     <use xlink:href="#DejaVuSans-74" transform="translate(914.697266 0)"/>
     <use xlink:href="#DejaVuSans-61" transform="translate(953.90625 0)"/>
     <use xlink:href="#DejaVuSans-74" transform="translate(1015.185547 0)"/>
     <use xlink:href="#DejaVuSans-73" transform="translate(1054.394531 0)"/>
     <use xlink:href="#DejaVuSans-6d" transform="translate(1106.494141 0)"/>
     <use xlink:href="#DejaVuSans-6f" transform="translate(1203.90625 0)"/>
     <use xlink:href="#DejaVuSans-64" transform="translate(1265.087891 0)"/>
     <use xlink:href="#DejaVuSans-65" transform="translate(1328.564453 0)"/>
     <use xlink:href="#DejaVuSans-6c" transform="translate(1390.087891 0)"/>
     <use xlink:href="#DejaVuSans-73" transform="translate(1417.871094 0)"/>
     <use xlink:href="#DejaVuSans-20" transform="translate(1469.970703 0)"/>
     <use xlink:href="#DejaVuSans-41" transform="translate(1501.757812 0)"/>
     <use xlink:href="#DejaVuSans-52" transform="translate(1570.166016 0)"/>
     <use xlink:href="#DejaVuSans-49" transform="translate(1639.648438 0)"/>
     <use xlink:href="#DejaVuSans-4d" transform="translate(1669.140625 0)"/>
     <use xlink:href="#DejaVuSans-41" transform="translate(1755.419922 0)"/>
    </g>
   </g>
   <g id="legend_1">
    <g id="patch_7">
     <path d="M 39.47 78.914375 
L 227.110625 78.914375 
Q 229.110625 78.914375 229.110625 76.914375 
L 229.110625 33.88 
Q 229.110625 31.88 227.110625 31.88 
L 39.47 31.88 
Q 37.47 31.88 37.47 33.88 
L 37.47 76.914375 
Q 37.47 78.914375 39.47 78.914375 
z
" style="fill: #ffffff; opacity: 0.8; stroke: #cccccc; stroke-linejoin: miter"/>
    </g>
    <g id="line2d_36">
     <path d="M 41.47 39.978437 
L 51.47 39.978437 
L 61.47 39.978437 
" style="fill: none; stroke: #008000; stroke-width: 1.5; stroke-linecap: square"/>
    </g>
    <g id="text_18">
     <!-- Serie centrata -->
     <g transform="translate(69.47 43.478437) scale(0.1 -0.1)">
      <defs>
       <path id="DejaVuSans-53" d="M 3425 4513 
L 3425 3897 
Q 3066 4069 2747 4153 
Q 2428 4238 2131 4238 
Q 1616 4238 1336 4038 
Q 1056 3838 1056 3469 
Q 1056 3159 1242 3001 
Q 1428 2844 1947 2747 
L 2328 2669 
Q 3034 2534 3370 2195 
Q 3706 1856 3706 1288 
Q 3706 609 3251 259 
Q 2797 -91 1919 -91 
Q 1588 -91 1214 -16 
Q 841 59 441 206 
L 441 856 
Q 825 641 1194 531 
Q 1563 422 1919 422 
Q 2459 422 2753 634 
Q 3047 847 3047 1241 
Q 3047 1584 2836 1778 
Q 2625 1972 2144 2069 
L 1759 2144 
Q 1053 2284 737 2584 
Q 422 2884 422 3419 
Q 422 4038 858 4394 
Q 1294 4750 2059 4750 
Q 2388 4750 2728 4690 
Q 3069 4631 3425 4513 
z
" transform="scale(0.015625)"/>
       <path id="DejaVuSans-72" d="M 2631 2963 
Q 2534 3019 2420 3045 
Q 2306 3072 2169 3072 
Q 1681 3072 1420 2755 
Q 1159 2438 1159 1844 
L 1159 0 
L 581 0 
L 581 3500 
L 1159 3500 
L 1159 2956 
Q 1341 3275 1631 3429 
Q 1922 3584 2338 3584 
Q 2397 3584 2469 3576 
Q 2541 3569 2628 3553 
L 2631 2963 
z
" transform="scale(0.015625)"/>
       <path id="DejaVuSans-69" d="M 603 3500 
L 1178 3500 
L 1178 0 
L 603 0 
L 603 3500 
z
M 603 4863 
L 1178 4863 
L 1178 4134 
L 603 4134 
L 603 4863 
z
" transform="scale(0.015625)"/>
       <path id="DejaVuSans-63" d="M 3122 3366 
L 3122 2828 
Q 2878 2963 2633 3030 
Q 2388 3097 2138 3097 
Q 1578 3097 1268 2742 
Q 959 2388 959 1747 
Q 959 1106 1268 751 
Q 1578 397 2138 397 
Q 2388 397 2633 464 
Q 2878 531 3122 666 
L 3122 134 
Q 2881 22 2623 -34 
Q 2366 -91 2075 -91 
Q 1284 -91 818 406 
Q 353 903 353 1747 
Q 353 2603 823 3093 
Q 1294 3584 2113 3584 
Q 2378 3584 2631 3529 
Q 2884 3475 3122 3366 
z
" transform="scale(0.015625)"/>
      </defs>
      <use xlink:href="#DejaVuSans-53"/>
      <use xlink:href="#DejaVuSans-65" transform="translate(63.476562 0)"/>
      <use xlink:href="#DejaVuSans-72" transform="translate(125 0)"/>
      <use xlink:href="#DejaVuSans-69" transform="translate(166.113281 0)"/>
      <use xlink:href="#DejaVuSans-65" transform="translate(193.896484 0)"/>
      <use xlink:href="#DejaVuSans-20" transform="translate(255.419922 0)"/>
      <use xlink:href="#DejaVuSans-63" transform="translate(287.207031 0)"/>
      <use xlink:href="#DejaVuSans-65" transform="translate(342.1875 0)"/>
      <use xlink:href="#DejaVuSans-6e" transform="translate(403.710938 0)"/>
      <use xlink:href="#DejaVuSans-74" transform="translate(467.089844 0)"/>
      <use xlink:href="#DejaVuSans-72" transform="translate(506.298828 0)"/>
      <use xlink:href="#DejaVuSans-61" transform="translate(547.412109 0)"/>
      <use xlink:href="#DejaVuSans-74" transform="translate(608.691406 0)"/>
      <use xlink:href="#DejaVuSans-61" transform="translate(647.900391 0)"/>
     </g>
    </g>
    <g id="line2d_37">
     <path d="M 41.47 54.656563 
L 51.47 54.656563 
L 61.47 54.656563 
" style="fill: none; stroke: #ff0000; stroke-width: 1.5; stroke-linecap: square"/>
    </g>
    <g id="text_19">
     <!-- ARMA (p=2, q=3) -->
     <g transform="translate(69.47 58.156563) scale(0.1 -0.1)">
      <defs>
       <path id="DejaVuSans-28" d="M 1984 4856 
Q 1566 4138 1362 3434 
Q 1159 2731 1159 2009 
Q 1159 1288 1364 580 
Q 1569 -128 1984 -844 
L 1484 -844 
Q 1016 -109 783 600 
Q 550 1309 550 2009 
Q 550 2706 781 3412 
Q 1013 4119 1484 4856 
L 1984 4856 
z
" transform="scale(0.015625)"/>
       <path id="DejaVuSans-70" d="M 1159 525 
L 1159 -1331 
L 581 -1331 
L 581 3500 
L 1159 3500 
L 1159 2969 
Q 1341 3281 1617 3432 
Q 1894 3584 2278 3584 
Q 2916 3584 3314 3078 
Q 3713 2572 3713 1747 
Q 3713 922 3314 415 
Q 2916 -91 2278 -91 
Q 1894 -91 1617 61 
Q 1341 213 1159 525 
z
M 3116 1747 
Q 3116 2381 2855 2742 
Q 2594 3103 2138 3103 
Q 1681 3103 1420 2742 
Q 1159 2381 1159 1747 
Q 1159 1113 1420 752 
Q 1681 391 2138 391 
Q 2594 391 2855 752 
Q 3116 1113 3116 1747 
z
" transform="scale(0.015625)"/>
       <path id="DejaVuSans-3d" d="M 678 2906 
L 4684 2906 
L 4684 2381 
L 678 2381 
L 678 2906 
z
M 678 1631 
L 4684 1631 
L 4684 1100 
L 678 1100 
L 678 1631 
z
" transform="scale(0.015625)"/>
       <path id="DejaVuSans-2c" d="M 750 794 
L 1409 794 
L 1409 256 
L 897 -744 
L 494 -744 
L 750 256 
L 750 794 
z
" transform="scale(0.015625)"/>
       <path id="DejaVuSans-71" d="M 947 1747 
Q 947 1113 1208 752 
Q 1469 391 1925 391 
Q 2381 391 2643 752 
Q 2906 1113 2906 1747 
Q 2906 2381 2643 2742 
Q 2381 3103 1925 3103 
Q 1469 3103 1208 2742 
Q 947 2381 947 1747 
z
M 2906 525 
Q 2725 213 2448 61 
Q 2172 -91 1784 -91 
Q 1150 -91 751 415 
Q 353 922 353 1747 
Q 353 2572 751 3078 
Q 1150 3584 1784 3584 
Q 2172 3584 2448 3432 
Q 2725 3281 2906 2969 
L 2906 3500 
L 3481 3500 
L 3481 -1331 
L 2906 -1331 
L 2906 525 
z
" transform="scale(0.015625)"/>
       <path id="DejaVuSans-29" d="M 513 4856 
L 1013 4856 
Q 1481 4119 1714 3412 
Q 1947 2706 1947 2009 
Q 1947 1309 1714 600 
Q 1481 -109 1013 -844 
L 513 -844 
Q 928 -128 1133 580 
Q 1338 1288 1338 2009 
Q 1338 2731 1133 3434 
Q 928 4138 513 4856 
z
" transform="scale(0.015625)"/>
      </defs>
      <use xlink:href="#DejaVuSans-41"/>
      <use xlink:href="#DejaVuSans-52" transform="translate(68.408203 0)"/>
      <use xlink:href="#DejaVuSans-4d" transform="translate(137.890625 0)"/>
      <use xlink:href="#DejaVuSans-41" transform="translate(224.169922 0)"/>
      <use xlink:href="#DejaVuSans-20" transform="translate(292.578125 0)"/>
      <use xlink:href="#DejaVuSans-28" transform="translate(324.365234 0)"/>
      <use xlink:href="#DejaVuSans-70" transform="translate(363.378906 0)"/>
      <use xlink:href="#DejaVuSans-3d" transform="translate(426.855469 0)"/>
      <use xlink:href="#DejaVuSans-32" transform="translate(510.644531 0)"/>
      <use xlink:href="#DejaVuSans-2c" transform="translate(574.267578 0)"/>
      <use xlink:href="#DejaVuSans-20" transform="translate(606.054688 0)"/>
      <use xlink:href="#DejaVuSans-71" transform="translate(637.841797 0)"/>
      <use xlink:href="#DejaVuSans-3d" transform="translate(701.318359 0)"/>
      <use xlink:href="#DejaVuSans-33" transform="translate(785.107422 0)"/>
      <use xlink:href="#DejaVuSans-29" transform="translate(848.730469 0)"/>
     </g>
    </g>
    <g id="line2d_38">
     <path d="M 41.47 69.334687 
L 51.47 69.334687 
L 61.47 69.334687 
" style="fill: none; stroke-dasharray: 5.55,2.4; stroke-dashoffset: 0; stroke: #0000ff; stroke-width: 1.5"/>
    </g>
    <g id="text_20">
     <!-- ARIMA statsmodels (p=2, q=3) -->
     <g transform="translate(69.47 72.834687) scale(0.1 -0.1)">
      <use xlink:href="#DejaVuSans-41"/>
      <use xlink:href="#DejaVuSans-52" transform="translate(68.408203 0)"/>
      <use xlink:href="#DejaVuSans-49" transform="translate(137.890625 0)"/>
      <use xlink:href="#DejaVuSans-4d" transform="translate(167.382812 0)"/>
      <use xlink:href="#DejaVuSans-41" transform="translate(253.662109 0)"/>
      <use xlink:href="#DejaVuSans-20" transform="translate(322.070312 0)"/>
      <use xlink:href="#DejaVuSans-73" transform="translate(353.857422 0)"/>
      <use xlink:href="#DejaVuSans-74" transform="translate(405.957031 0)"/>
      <use xlink:href="#DejaVuSans-61" transform="translate(445.166016 0)"/>
      <use xlink:href="#DejaVuSans-74" transform="translate(506.445312 0)"/>
      <use xlink:href="#DejaVuSans-73" transform="translate(545.654297 0)"/>
      <use xlink:href="#DejaVuSans-6d" transform="translate(597.753906 0)"/>
      <use xlink:href="#DejaVuSans-6f" transform="translate(695.166016 0)"/>
      <use xlink:href="#DejaVuSans-64" transform="translate(756.347656 0)"/>
      <use xlink:href="#DejaVuSans-65" transform="translate(819.824219 0)"/>
      <use xlink:href="#DejaVuSans-6c" transform="translate(881.347656 0)"/>
      <use xlink:href="#DejaVuSans-73" transform="translate(909.130859 0)"/>
      <use xlink:href="#DejaVuSans-20" transform="translate(961.230469 0)"/>
      <use xlink:href="#DejaVuSans-28" transform="translate(993.017578 0)"/>
      <use xlink:href="#DejaVuSans-70" transform="translate(1032.03125 0)"/>
      <use xlink:href="#DejaVuSans-3d" transform="translate(1095.507812 0)"/>
      <use xlink:href="#DejaVuSans-32" transform="translate(1179.296875 0)"/>
      <use xlink:href="#DejaVuSans-2c" transform="translate(1242.919922 0)"/>
      <use xlink:href="#DejaVuSans-20" transform="translate(1274.707031 0)"/>
      <use xlink:href="#DejaVuSans-71" transform="translate(1306.494141 0)"/>
      <use xlink:href="#DejaVuSans-3d" transform="translate(1369.970703 0)"/>
      <use xlink:href="#DejaVuSans-33" transform="translate(1453.759766 0)"/>
      <use xlink:href="#DejaVuSans-29" transform="translate(1517.382812 0)"/>
     </g>
    </g>
   </g>
  </g>
 </g>
 <defs>
  <clipPath id="pdb3be3d4fc">
   <rect x="32.47" y="26.88" width="820.73" height="377.24"/>
  </clipPath>
 </defs>
</svg>
