<?xml version="1.0" encoding="utf-8" standalone="no"?>
<!DOCTYPE svg PUBLIC "-//W3C//DTD SVG 1.1//EN"
  "http://www.w3.org/Graphics/SVG/1.1/DTD/svg11.dtd">
<svg xmlns:xlink="http://www.w3.org/1999/xlink" width="1008pt" height="792pt" viewBox="0 0 1008 792" xmlns="http://www.w3.org/2000/svg" version="1.1">
 <metadata>
  <rdf:RDF xmlns:dc="http://purl.org/dc/elements/1.1/" xmlns:cc="http://creativecommons.org/ns#" xmlns:rdf="http://www.w3.org/1999/02/22-rdf-syntax-ns#">
   <cc:Work>
    <dc:type rdf:resource="http://purl.org/dc/dcmitype/StillImage"/>
    <dc:date>2025-11-06T09:40:45.096278</dc:date>
    <dc:format>image/svg+xml</dc:format>
    <dc:creator>
     <cc:Agent>
      <dc:title>Matplotlib v3.6.3, https://matplotlib.org/</dc:title>
     </cc:Agent>
    </dc:creator>
   </cc:Work>
  </rdf:RDF>
 </metadata>
 <defs>
  <style type="text/css">*{stroke-linejoin: round; stroke-linecap: butt}</style>
 </defs>
 <g id="figure_1">
  <g id="patch_1">
   <path d="M 0 792 
L 1008 792 
L 1008 0 
L 0 0 
z
" style="fill: #ffffff"/>
  </g>
  <g id="axes_1">
   <g id="patch_2">
    <path d="M 33.73 113.12 
L 997.2 113.12 
L 997.2 25.44 
L 33.73 25.44 
z
" style="fill: #ffffff"/>
   </g>
   <g id="matplotlib.axis_1">
    <g id="xtick_1">
     <g id="line2d_1">
      <defs>
       <path id="m73e70629c0" d="M 0 0 
L 0 3.5 
" style="stroke: #000000; stroke-width: 0.8"/>
      </defs>
      <g>
       <use xlink:href="#m73e70629c0" x="77.524091" y="113.12" style="stroke: #000000; stroke-width: 0.8"/>
      </g>
     </g>
     <g id="text_1">
      <!-- 0.00 -->
      <g transform="translate(66.391278 127.718438) scale(0.1 -0.1)">
       <defs>
        <path id="DejaVuSans-30" d="M 2034 4250 
Q 1547 4250 1301 3770 
Q 1056 3291 1056 2328 
Q 1056 1369 1301 889 
Q 1547 409 2034 409 
Q 2525 409 2770 889 
Q 3016 1369 3016 2328 
Q 3016 3291 2770 3770 
Q 2525 4250 2034 4250 
z
M 2034 4750 
Q 2819 4750 3233 4129 
Q 3647 3509 3647 2328 
Q 3647 1150 3233 529 
Q 2819 -91 2034 -91 
Q 1250 -91 836 529 
Q 422 1150 422 2328 
Q 422 3509 836 4129 
Q 1250 4750 2034 4750 
z
" transform="scale(0.015625)"/>
        <path id="DejaVuSans-2e" d="M 684 794 
L 1344 794 
L 1344 0 
L 684 0 
L 684 794 
z
" transform="scale(0.015625)"/>
       </defs>
       <use xlink:href="#DejaVuSans-30"/>
       <use xlink:href="#DejaVuSans-2e" x="63.623047"/>
       <use xlink:href="#DejaVuSans-30" x="95.410156"/>
       <use xlink:href="#DejaVuSans-30" x="159.033203"/>
      </g>
     </g>
    </g>
    <g id="xtick_2">
     <g id="line2d_2">
      <g>
       <use xlink:href="#m73e70629c0" x="252.700455" y="113.12" style="stroke: #000000; stroke-width: 0.8"/>
      </g>
     </g>
     <g id="text_2">
      <!-- 0.02 -->
      <g transform="translate(241.567642 127.718438) scale(0.1 -0.1)">
       <defs>
        <path id="DejaVuSans-32" d="M 1228 531 
L 3431 531 
L 3431 0 
L 469 0 
L 469 531 
Q 828 903 1448 1529 
Q 2069 2156 2228 2338 
Q 2531 2678 2651 2914 
Q 2772 3150 2772 3378 
Q 2772 3750 2511 3984 
Q 2250 4219 1831 4219 
Q 1534 4219 1204 4116 
Q 875 4013 500 3803 
L 500 4441 
Q 881 4594 1212 4672 
Q 1544 4750 1819 4750 
Q 2544 4750 2975 4387 
Q 3406 4025 3406 3419 
Q 3406 3131 3298 2873 
Q 3191 2616 2906 2266 
Q 2828 2175 2409 1742 
Q 1991 1309 1228 531 
z
" transform="scale(0.015625)"/>
       </defs>
       <use xlink:href="#DejaVuSans-30"/>
       <use xlink:href="#DejaVuSans-2e" x="63.623047"/>
       <use xlink:href="#DejaVuSans-30" x="95.410156"/>
       <use xlink:href="#DejaVuSans-32" x="159.033203"/>
      </g>
     </g>
    </g>
    <g id="xtick_3">
     <g id="line2d_3">
      <g>
       <use xlink:href="#m73e70629c0" x="427.876818" y="113.12" style="stroke: #000000; stroke-width: 0.8"/>
      </g>
     </g>
     <g id="text_3">
      <!-- 0.04 -->
      <g transform="translate(416.744006 127.718438) scale(0.1 -0.1)">
       <defs>
        <path id="DejaVuSans-34" d="M 2419 4116 
L 825 1625 
L 2419 1625 
L 2419 4116 
z
M 2253 4666 
L 3047 4666 
L 3047 1625 
L 3713 1625 
L 3713 1100 
L 3047 1100 
L 3047 0 
L 2419 0 
L 2419 1100 
L 313 1100 
L 313 1709 
L 2253 4666 
z
" transform="scale(0.015625)"/>
       </defs>
       <use xlink:href="#DejaVuSans-30"/>
       <use xlink:href="#DejaVuSans-2e" x="63.623047"/>
       <use xlink:href="#DejaVuSans-30" x="95.410156"/>
       <use xlink:href="#DejaVuSans-34" x="159.033203"/>
      </g>
     </g>
    </g>
    <g id="xtick_4">
     <g id="line2d_4">
      <g>
       <use xlink:href="#m73e70629c0" x="603.053182" y="113.12" style="stroke: #000000; stroke-width: 0.8"/>
      </g>
     </g>
     <g id="text_4">
      <!-- 0.06 -->
      <g transform="translate(591.920369 127.718438) scale(0.1 -0.1)">
       <defs>
        <path id="DejaVuSans-36" d="M 2113 2584 
Q 1688 2584 1439 2293 
Q 1191 2003 1191 1497 
Q 1191 994 1439 701 
Q 1688 409 2113 409 
Q 2538 409 2786 701 
Q 3034 994 3034 1497 
Q 3034 2003 2786 2293 
Q 2538 2584 2113 2584 
z
M 3366 4563 
L 3366 3988 
Q 3128 4100 2886 4159 
Q 2644 4219 2406 4219 
Q 1781 4219 1451 3797 
Q 1122 3375 1075 2522 
Q 1259 2794 1537 2939 
Q 1816 3084 2150 3084 
Q 2853 3084 3261 2657 
Q 3669 2231 3669 1497 
Q 3669 778 3244 343 
Q 2819 -91 2113 -91 
Q 1303 -91 875 529 
Q 447 1150 447 2328 
Q 447 3434 972 4092 
Q 1497 4750 2381 4750 
Q 2619 4750 2861 4703 
Q 3103 4656 3366 4563 
z
" transform="scale(0.015625)"/>
       </defs>
       <use xlink:href="#DejaVuSans-30"/>
       <use xlink:href="#DejaVuSans-2e" x="63.623047"/>
       <use xlink:href="#DejaVuSans-30" x="95.410156"/>
       <use xlink:href="#DejaVuSans-36" x="159.033203"/>
      </g>
     </g>
    </g>
    <g id="xtick_5">
     <g id="line2d_5">
      <g>
       <use xlink:href="#m73e70629c0" x="778.229545" y="113.12" style="stroke: #000000; stroke-width: 0.8"/>
      </g>
     </g>
     <g id="text_5">
      <!-- 0.08 -->
      <g transform="translate(767.096733 127.718438) scale(0.1 -0.1)">
       <defs>
        <path id="DejaVuSans-38" d="M 2034 2216 
Q 1584 2216 1326 1975 
Q 1069 1734 1069 1313 
Q 1069 891 1326 650 
Q 1584 409 2034 409 
Q 2484 409 2743 651 
Q 3003 894 3003 1313 
Q 3003 1734 2745 1975 
Q 2488 2216 2034 2216 
z
M 1403 2484 
Q 997 2584 770 2862 
Q 544 3141 544 3541 
Q 544 4100 942 4425 
Q 1341 4750 2034 4750 
Q 2731 4750 3128 4425 
Q 3525 4100 3525 3541 
Q 3525 3141 3298 2862 
Q 3072 2584 2669 2484 
Q 3125 2378 3379 2068 
Q 3634 1759 3634 1313 
Q 3634 634 3220 271 
Q 2806 -91 2034 -91 
Q 1263 -91 848 271 
Q 434 634 434 1313 
Q 434 1759 690 2068 
Q 947 2378 1403 2484 
z
M 1172 3481 
Q 1172 3119 1398 2916 
Q 1625 2713 2034 2713 
Q 2441 2713 2670 2916 
Q 2900 3119 2900 3481 
Q 2900 3844 2670 4047 
Q 2441 4250 2034 4250 
Q 1625 4250 1398 4047 
Q 1172 3844 1172 3481 
z
" transform="scale(0.015625)"/>
       </defs>
       <use xlink:href="#DejaVuSans-30"/>
       <use xlink:href="#DejaVuSans-2e" x="63.623047"/>
       <use xlink:href="#DejaVuSans-30" x="95.410156"/>
       <use xlink:href="#DejaVuSans-38" x="159.033203"/>
      </g>
     </g>
    </g>
    <g id="xtick_6">
     <g id="line2d_6">
      <g>
       <use xlink:href="#m73e70629c0" x="953.405909" y="113.12" style="stroke: #000000; stroke-width: 0.8"/>
      </g>
     </g>
     <g id="text_6">
      <!-- 0.10 -->
      <g transform="translate(942.273097 127.718438) scale(0.1 -0.1)">
       <defs>
        <path id="DejaVuSans-31" d="M 794 531 
L 1825 531 
L 1825 4091 
L 703 3866 
L 703 4441 
L 1819 4666 
L 2450 4666 
L 2450 531 
L 3481 531 
L 3481 0 
L 794 0 
L 794 531 
z
" transform="scale(0.015625)"/>
       </defs>
       <use xlink:href="#DejaVuSans-30"/>
       <use xlink:href="#DejaVuSans-2e" x="63.623047"/>
       <use xlink:href="#DejaVuSans-31" x="95.410156"/>
       <use xlink:href="#DejaVuSans-30" x="159.033203"/>
      </g>
     </g>
    </g>
   </g>
   <g id="matplotlib.axis_2">
    <g id="ytick_1">
     <g id="line2d_7">
      <defs>
       <path id="m67e085c070" d="M 0 0 
L -3.5 0 
" style="stroke: #000000; stroke-width: 0.8"/>
      </defs>
      <g>
       <use xlink:href="#m67e085c070" x="33.73" y="109.135302" style="stroke: #000000; stroke-width: 0.8"/>
      </g>
     </g>
     <g id="text_7">
      <!-- −1 -->
      <g transform="translate(11.987813 112.93452) scale(0.1 -0.1)">
       <defs>
        <path id="DejaVuSans-2212" d="M 678 2272 
L 4684 2272 
L 4684 1741 
L 678 1741 
L 678 2272 
z
" transform="scale(0.015625)"/>
       </defs>
       <use xlink:href="#DejaVuSans-2212"/>
       <use xlink:href="#DejaVuSans-31" x="83.789062"/>
      </g>
     </g>
    </g>
    <g id="ytick_2">
     <g id="line2d_8">
      <g>
       <use xlink:href="#m67e085c070" x="33.73" y="69.28" style="stroke: #000000; stroke-width: 0.8"/>
      </g>
     </g>
     <g id="text_8">
      <!-- 0 -->
      <g transform="translate(20.3675 73.079219) scale(0.1 -0.1)">
       <use xlink:href="#DejaVuSans-30"/>
      </g>
     </g>
    </g>
    <g id="ytick_3">
     <g id="line2d_9">
      <g>
       <use xlink:href="#m67e085c070" x="33.73" y="29.424698" style="stroke: #000000; stroke-width: 0.8"/>
      </g>
     </g>
     <g id="text_9">
      <!-- 1 -->
      <g transform="translate(20.3675 33.223917) scale(0.1 -0.1)">
       <use xlink:href="#DejaVuSans-31"/>
      </g>
     </g>
    </g>
   </g>
   <g id="line2d_10">
    <path d="M 77.524091 69.28 
L 94.698244 59.558745 
L 105.002736 53.97135 
L 111.872398 50.424714 
L 118.742059 47.06109 
L 125.61172 43.913127 
L 132.481381 41.01138 
L 139.351043 38.384012 
L 146.220704 36.056526 
L 153.090365 34.051512 
L 159.960027 32.388432 
L 166.829688 31.083428 
L 173.699349 30.149166 
L 180.569011 29.594714 
L 187.438672 29.425455 
L 194.308333 29.64303 
L 201.177995 30.245328 
L 208.047656 31.226504 
L 214.917317 32.577033 
L 221.786979 34.283807 
L 228.65664 36.33026 
L 235.526301 38.696529 
L 242.395963 41.359646 
L 249.265624 44.293763 
L 256.135285 47.4704 
L 263.004947 50.858725 
L 273.309439 56.265701 
L 283.61393 61.956608 
L 321.397068 83.218456 
L 331.70156 88.566436 
L 338.571221 91.904847 
L 345.440882 95.023658 
L 352.310544 97.892596 
L 359.180205 100.483816 
L 366.049866 102.772166 
L 372.919528 104.735436 
L 379.789189 106.35457 
L 386.65885 107.613851 
L 393.528512 108.501058 
L 400.398173 109.007578 
L 407.267834 109.128496 
L 414.137496 108.862638 
L 421.007157 108.212584 
L 427.876818 107.184644 
L 434.74648 105.788795 
L 441.616141 104.038586 
L 448.485802 101.951004 
L 455.355463 99.546312 
L 462.225125 96.84785 
L 469.094786 93.88181 
L 475.964447 90.67698 
L 482.834109 87.264468 
L 493.138601 81.829222 
L 503.443093 76.120193 
L 537.791399 56.730778 
L 548.095891 51.295532 
L 554.965553 47.88302 
L 561.835214 44.67819 
L 568.704875 41.71215 
L 575.574537 39.013688 
L 582.444198 36.608996 
L 589.313859 34.521414 
L 596.18352 32.771205 
L 603.053182 31.375356 
L 609.922843 30.347416 
L 616.792504 29.697362 
L 623.662166 29.431504 
L 630.531827 29.552422 
L 637.401488 30.058942 
L 644.27115 30.946149 
L 651.140811 32.20543 
L 658.010472 33.824564 
L 664.880134 35.787834 
L 671.749795 38.076184 
L 678.619456 40.667404 
L 685.489118 43.536342 
L 692.358779 46.655153 
L 699.22844 49.993564 
L 709.532932 55.341544 
L 719.837424 60.993617 
L 737.011578 70.752713 
L 750.7509 78.524343 
L 761.055392 84.13415 
L 767.925053 87.701275 
L 774.794715 91.0896 
L 781.664376 94.266237 
L 788.534037 97.200354 
L 795.403699 99.863471 
L 802.27336 102.22974 
L 809.143021 104.276193 
L 816.012683 105.982967 
L 822.882344 107.333496 
L 829.752005 108.314672 
L 836.621667 108.91697 
L 843.491328 109.134545 
L 850.360989 108.965286 
L 857.230651 108.410834 
L 864.100312 107.476572 
L 870.969973 106.171568 
L 877.839635 104.508488 
L 884.709296 102.503474 
L 891.578957 100.175988 
L 898.448619 97.54862 
L 905.31828 94.646873 
L 912.187941 91.49891 
L 919.057602 88.135286 
L 929.362094 82.7574 
L 939.666586 77.08548 
L 953.405909 69.28 
L 953.405909 69.28 
" clip-path="url(#pcd33ae3c3c)" style="fill: none; stroke: #ff0000; stroke-width: 1.5; stroke-linecap: square"/>
   </g>
   <g id="line2d_11">
    <path d="M 77.524091 69.28 
L 84.393752 55.8026 
L 87.828583 49.565342 
L 91.263414 43.913127 
L 94.698244 39.013688 
L 98.133075 35.012418 
L 101.567906 32.028056 
L 105.002736 30.149166 
L 108.437567 29.431504 
L 111.872398 29.896367 
L 115.307228 31.529961 
L 118.742059 34.283807 
L 122.176889 38.076184 
L 125.61172 42.794551 
L 129.046551 48.298887 
L 132.481381 54.42585 
L 135.916212 60.993617 
L 146.220704 81.362241 
L 149.655535 87.701275 
L 153.090365 93.493648 
L 156.525196 98.567468 
L 159.960027 102.772166 
L 163.394857 105.982967 
L 166.829688 108.104588 
L 170.264519 109.074068 
L 173.699349 108.862638 
L 177.13418 107.476572 
L 180.569011 104.957003 
L 184.003841 101.378699 
L 187.438672 96.84785 
L 190.873503 91.49891 
L 194.308333 85.490612 
L 197.743164 79.001255 
L 208.047656 58.60942 
L 211.482487 52.177269 
L 214.917317 46.25265 
L 218.352148 41.01138 
L 221.786979 36.608996 
L 225.221809 33.176142 
L 228.65664 30.814688 
L 232.091471 29.594714 
L 235.526301 29.552422 
L 238.961132 30.689066 
L 242.395963 32.970918 
L 245.830793 36.33026 
L 249.265624 40.667404 
L 252.700455 45.853641 
L 256.135285 51.735069 
L 259.570116 58.137151 
L 273.309439 85.040827 
L 276.744269 91.0896 
L 280.1791 96.491162 
L 283.61393 101.085217 
L 287.048761 104.735436 
L 290.483592 107.333496 
L 293.918422 108.802298 
L 297.353253 109.098255 
L 300.788084 108.212584 
L 304.222914 106.171568 
L 307.657745 103.035775 
L 311.092576 98.898261 
L 314.527406 93.88181 
L 317.962237 88.135286 
L 321.397068 81.829222 
L 328.266729 68.298067 
L 335.13639 54.882604 
L 338.571221 48.717939 
L 342.006052 43.163465 
L 345.440882 38.384012 
L 348.875713 34.521414 
L 352.310544 31.690296 
L 355.745374 29.974672 
L 359.180205 29.425455 
L 362.615036 30.058942 
L 366.049866 31.856336 
L 369.484697 34.764296 
L 372.919528 38.696529 
L 376.354358 43.536342 
L 379.789189 49.140112 
L 383.22402 55.341544 
L 390.093681 68.788996 
L 396.963342 82.294299 
L 400.398173 88.566436 
L 403.833004 94.266237 
L 407.267834 99.224559 
L 410.702665 103.29426 
L 414.137496 106.35457 
L 417.572326 108.314672 
L 421.007157 109.116399 
L 424.441988 108.73596 
L 427.876818 107.184644 
L 431.311649 104.508488 
L 434.74648 100.786908 
L 438.18131 96.130343 
L 441.616141 90.67698 
L 445.050971 84.58865 
L 448.485802 78.046028 
L 458.790294 57.666574 
L 462.225125 51.295532 
L 465.659955 45.458189 
L 469.094786 40.327771 
L 472.529617 36.056526 
L 475.964447 32.771205 
L 479.399278 30.569302 
L 482.834109 29.516159 
L 486.268939 29.64303 
L 489.70377 30.946149 
L 493.138601 33.386845 
L 496.573431 36.89269 
L 500.008262 41.359646 
L 503.443093 46.655153 
L 506.877923 52.622064 
L 510.312754 59.083309 
L 524.052077 85.937936 
L 527.486907 91.904847 
L 530.921738 97.200354 
L 534.356569 101.66731 
L 537.791399 105.173155 
L 541.22623 107.613851 
L 544.661061 108.91697 
L 548.095891 109.043841 
L 551.530722 107.990698 
L 554.965553 105.788795 
L 558.400383 102.503474 
L 561.835214 98.232229 
L 565.270045 93.101811 
L 568.704875 87.264468 
L 572.139706 80.893426 
L 585.879029 53.97135 
L 589.313859 47.88302 
L 592.74869 42.429657 
L 596.18352 37.773092 
L 599.618351 34.051512 
L 603.053182 31.375356 
L 606.488012 29.82404 
L 609.922843 29.443601 
L 613.357674 30.245328 
L 616.792504 32.20543 
L 620.227335 35.26574 
L 623.662166 39.335441 
L 627.096996 44.293763 
L 630.531827 49.993564 
L 633.966658 56.265701 
L 640.836319 69.771004 
L 647.70598 83.218456 
L 651.140811 89.419888 
L 654.575642 95.023658 
L 658.010472 99.863471 
L 661.445303 103.795704 
L 664.880134 106.703664 
L 668.314964 108.501058 
L 671.749795 109.134545 
L 675.184626 108.585328 
L 678.619456 106.869704 
L 682.054287 104.038586 
L 685.489118 100.175988 
L 688.923948 95.396535 
L 692.358779 89.842061 
L 695.79361 83.677396 
L 702.663271 70.261933 
L 709.532932 56.730778 
L 712.967763 50.424714 
L 716.402594 44.67819 
L 719.837424 39.661739 
L 723.272255 35.524225 
L 726.707086 32.388432 
L 730.141916 30.347416 
L 733.576747 29.461745 
L 737.011578 29.757702 
L 740.446408 31.226504 
L 743.881239 33.824564 
L 747.31607 37.474783 
L 750.7509 42.068838 
L 754.185731 47.4704 
L 757.620561 53.519173 
L 761.055392 60.035657 
L 771.359884 80.422849 
L 774.794715 86.824931 
L 778.229545 92.706359 
L 781.664376 97.892596 
L 785.099207 102.22974 
L 788.534037 105.589082 
L 791.968868 107.870934 
L 795.403699 109.007578 
L 798.838529 108.965286 
L 802.27336 107.745312 
L 805.708191 105.383858 
L 809.143021 101.951004 
L 812.577852 97.54862 
L 816.012683 92.30735 
L 819.447513 86.382731 
L 822.882344 79.95058 
L 836.621667 53.069388 
L 840.056497 47.06109 
L 843.491328 41.71215 
L 846.926159 37.181301 
L 850.360989 33.602997 
L 853.79582 31.083428 
L 857.230651 29.697362 
L 860.665481 29.485932 
L 864.100312 30.455412 
L 867.535143 32.577033 
L 870.969973 35.787834 
L 874.404804 39.992532 
L 877.839635 45.066352 
L 881.274465 50.858725 
L 884.709296 57.197759 
L 891.578957 70.752713 
L 898.448619 84.13415 
L 901.883449 90.261113 
L 905.31828 95.765449 
L 908.753111 100.483816 
L 912.187941 104.276193 
L 915.622772 107.030039 
L 919.057602 108.663633 
L 922.492433 109.128496 
L 925.927264 108.410834 
L 929.362094 106.531944 
L 932.796925 103.547582 
L 936.231756 99.546312 
L 939.666586 94.646873 
L 943.101417 88.994658 
L 946.536248 82.7574 
L 953.405909 69.28 
L 953.405909 69.28 
" clip-path="url(#pcd33ae3c3c)" style="fill: none; stroke: #008000; stroke-width: 1.5; stroke-linecap: square"/>
   </g>
   <g id="line2d_12">
    <path d="M 77.524091 69.28 
L 80.958922 59.558745 
L 84.393752 50.424714 
L 87.828583 42.429657 
L 91.263414 36.056526 
L 94.698244 31.690296 
L 98.133075 29.594714 
L 101.567906 29.896367 
L 105.002736 32.577033 
L 108.437567 37.474783 
L 111.872398 44.293763 
L 115.307228 52.622064 
L 118.742059 61.956608 
L 125.61172 81.362241 
L 129.046551 90.261113 
L 132.481381 97.892596 
L 135.916212 103.795704 
L 139.351043 107.613851 
L 142.785873 109.116399 
L 146.220704 108.212584 
L 149.655535 104.957003 
L 153.090365 99.546312 
L 156.525196 92.30735 
L 159.960027 83.677396 
L 170.264519 54.882604 
L 173.699349 46.25265 
L 177.13418 39.013688 
L 180.569011 33.602997 
L 184.003841 30.347416 
L 187.438672 29.443601 
L 190.873503 30.946149 
L 194.308333 34.764296 
L 197.743164 40.667404 
L 201.177995 48.298887 
L 204.612825 57.197759 
L 214.917317 85.937936 
L 218.352148 94.266237 
L 221.786979 101.085217 
L 225.221809 105.982967 
L 228.65664 108.663633 
L 232.091471 108.965286 
L 235.526301 106.869704 
L 238.961132 102.503474 
L 242.395963 96.130343 
L 245.830793 88.135286 
L 249.265624 79.001255 
L 256.135285 59.558745 
L 259.570116 50.424714 
L 263.004947 42.429657 
L 266.439777 36.056526 
L 269.874608 31.690296 
L 273.309439 29.594714 
L 276.744269 29.896367 
L 280.1791 32.577033 
L 283.61393 37.474783 
L 287.048761 44.293763 
L 290.483592 52.622064 
L 293.918422 61.956608 
L 300.788084 81.362241 
L 304.222914 90.261113 
L 307.657745 97.892596 
L 311.092576 103.795704 
L 314.527406 107.613851 
L 317.962237 109.116399 
L 321.397068 108.212584 
L 324.831898 104.957003 
L 328.266729 99.546312 
L 331.70156 92.30735 
L 335.13639 83.677396 
L 345.440882 54.882604 
L 348.875713 46.25265 
L 352.310544 39.013688 
L 355.745374 33.602997 
L 359.180205 30.347416 
L 362.615036 29.443601 
L 366.049866 30.946149 
L 369.484697 34.764296 
L 372.919528 40.667404 
L 376.354358 48.298887 
L 379.789189 57.197759 
L 390.093681 85.937936 
L 393.528512 94.266237 
L 396.963342 101.085217 
L 400.398173 105.982967 
L 403.833004 108.663633 
L 407.267834 108.965286 
L 410.702665 106.869704 
L 414.137496 102.503474 
L 417.572326 96.130343 
L 421.007157 88.135286 
L 424.441988 79.001255 
L 431.311649 59.558745 
L 434.74648 50.424714 
L 438.18131 42.429657 
L 441.616141 36.056526 
L 445.050971 31.690296 
L 448.485802 29.594714 
L 451.920633 29.896367 
L 455.355463 32.577033 
L 458.790294 37.474783 
L 462.225125 44.293763 
L 465.659955 52.622064 
L 469.094786 61.956608 
L 475.964447 81.362241 
L 479.399278 90.261113 
L 482.834109 97.892596 
L 486.268939 103.795704 
L 489.70377 107.613851 
L 493.138601 109.116399 
L 496.573431 108.212584 
L 500.008262 104.957003 
L 503.443093 99.546312 
L 506.877923 92.30735 
L 510.312754 83.677396 
L 520.617246 54.882604 
L 524.052077 46.25265 
L 527.486907 39.013688 
L 530.921738 33.602997 
L 534.356569 30.347416 
L 537.791399 29.443601 
L 541.22623 30.946149 
L 544.661061 34.764296 
L 548.095891 40.667404 
L 551.530722 48.298887 
L 554.965553 57.197759 
L 565.270045 85.937936 
L 568.704875 94.266237 
L 572.139706 101.085217 
L 575.574537 105.982967 
L 579.009367 108.663633 
L 582.444198 108.965286 
L 585.879029 106.869704 
L 589.313859 102.503474 
L 592.74869 96.130343 
L 596.18352 88.135286 
L 599.618351 79.001255 
L 606.488012 59.558745 
L 609.922843 50.424714 
L 613.357674 42.429657 
L 616.792504 36.056526 
L 620.227335 31.690296 
L 623.662166 29.594714 
L 627.096996 29.896367 
L 630.531827 32.577033 
L 633.966658 37.474783 
L 637.401488 44.293763 
L 640.836319 52.622064 
L 644.27115 61.956608 
L 651.140811 81.362241 
L 654.575642 90.261113 
L 658.010472 97.892596 
L 661.445303 103.795704 
L 664.880134 107.613851 
L 668.314964 109.116399 
L 671.749795 108.212584 
L 675.184626 104.957003 
L 678.619456 99.546312 
L 682.054287 92.30735 
L 685.489118 83.677396 
L 695.79361 54.882604 
L 699.22844 46.25265 
L 702.663271 39.013688 
L 706.098102 33.602997 
L 709.532932 30.347416 
L 712.967763 29.443601 
L 716.402594 30.946149 
L 719.837424 34.764296 
L 723.272255 40.667404 
L 726.707086 48.298887 
L 730.141916 57.197759 
L 740.446408 85.937936 
L 743.881239 94.266237 
L 747.31607 101.085217 
L 750.7509 105.982967 
L 754.185731 108.663633 
L 757.620561 108.965286 
L 761.055392 106.869704 
L 764.490223 102.503474 
L 767.925053 96.130343 
L 771.359884 88.135286 
L 774.794715 79.001255 
L 781.664376 59.558745 
L 785.099207 50.424714 
L 788.534037 42.429657 
L 791.968868 36.056526 
L 795.403699 31.690296 
L 798.838529 29.594714 
L 802.27336 29.896367 
L 805.708191 32.577033 
L 809.143021 37.474783 
L 812.577852 44.293763 
L 816.012683 52.622064 
L 819.447513 61.956608 
L 826.317175 81.362241 
L 829.752005 90.261113 
L 833.186836 97.892596 
L 836.621667 103.795704 
L 840.056497 107.613851 
L 843.491328 109.116399 
L 846.926159 108.212584 
L 850.360989 104.957003 
L 853.79582 99.546312 
L 857.230651 92.30735 
L 860.665481 83.677396 
L 870.969973 54.882604 
L 874.404804 46.25265 
L 877.839635 39.013688 
L 881.274465 33.602997 
L 884.709296 30.347416 
L 888.144127 29.443601 
L 891.578957 30.946149 
L 895.013788 34.764296 
L 898.448619 40.667404 
L 901.883449 48.298887 
L 905.31828 57.197759 
L 915.622772 85.937936 
L 919.057602 94.266237 
L 922.492433 101.085217 
L 925.927264 105.982967 
L 929.362094 108.663633 
L 932.796925 108.965286 
L 936.231756 106.869704 
L 939.666586 102.503474 
L 943.101417 96.130343 
L 946.536248 88.135286 
L 949.971078 79.001255 
L 953.405909 69.28 
L 953.405909 69.28 
" clip-path="url(#pcd33ae3c3c)" style="fill: none; stroke: #0000ff; stroke-width: 1.5; stroke-linecap: square"/>
   </g>
   <g id="patch_3">
    <path d="M 33.73 113.12 
L 33.73 25.44 
" style="fill: none; stroke: #000000; stroke-width: 0.8; stroke-linejoin: miter; stroke-linecap: square"/>
   </g>
   <g id="patch_4">
    <path d="M 997.2 113.12 
L 997.2 25.44 
" style="fill: none; stroke: #000000; stroke-width: 0.8; stroke-linejoin: miter; stroke-linecap: square"/>
   </g>
   <g id="patch_5">
    <path d="M 33.73 113.12 
L 997.2 113.12 
" style="fill: none; stroke: #000000; stroke-width: 0.8; stroke-linejoin: miter; stroke-linecap: square"/>
   </g>
   <g id="patch_6">
    <path d="M 33.73 25.44 
L 997.2 25.44 
" style="fill: none; stroke: #000000; stroke-width: 0.8; stroke-linejoin: miter; stroke-linecap: square"/>
   </g>
   <g id="text_10">
    <!-- Composing freqs sines -->
    <g transform="translate(447.57875 19.44) scale(0.12 -0.12)">
     <defs>
      <path id="DejaVuSans-43" d="M 4122 4306 
L 4122 3641 
Q 3803 3938 3442 4084 
Q 3081 4231 2675 4231 
Q 1875 4231 1450 3742 
Q 1025 3253 1025 2328 
Q 1025 1406 1450 917 
Q 1875 428 2675 428 
Q 3081 428 3442 575 
Q 3803 722 4122 1019 
L 4122 359 
Q 3791 134 3420 21 
Q 3050 -91 2638 -91 
Q 1578 -91 968 557 
Q 359 1206 359 2328 
Q 359 3453 968 4101 
Q 1578 4750 2638 4750 
Q 3056 4750 3426 4639 
Q 3797 4528 4122 4306 
z
" transform="scale(0.015625)"/>
      <path id="DejaVuSans-6f" d="M 1959 3097 
Q 1497 3097 1228 2736 
Q 959 2375 959 1747 
Q 959 1119 1226 758 
Q 1494 397 1959 397 
Q 2419 397 2687 759 
Q 2956 1122 2956 1747 
Q 2956 2369 2687 2733 
Q 2419 3097 1959 3097 
z
M 1959 3584 
Q 2709 3584 3137 3096 
Q 3566 2609 3566 1747 
Q 3566 888 3137 398 
Q 2709 -91 1959 -91 
Q 1206 -91 779 398 
Q 353 888 353 1747 
Q 353 2609 779 3096 
Q 1206 3584 1959 3584 
z
" transform="scale(0.015625)"/>
      <path id="DejaVuSans-6d" d="M 3328 2828 
Q 3544 3216 3844 3400 
Q 4144 3584 4550 3584 
Q 5097 3584 5394 3201 
Q 5691 2819 5691 2113 
L 5691 0 
L 5113 0 
L 5113 2094 
Q 5113 2597 4934 2840 
Q 4756 3084 4391 3084 
Q 3944 3084 3684 2787 
Q 3425 2491 3425 1978 
L 3425 0 
L 2847 0 
L 2847 2094 
Q 2847 2600 2669 2842 
Q 2491 3084 2119 3084 
Q 1678 3084 1418 2786 
Q 1159 2488 1159 1978 
L 1159 0 
L 581 0 
L 581 3500 
L 1159 3500 
L 1159 2956 
Q 1356 3278 1631 3431 
Q 1906 3584 2284 3584 
Q 2666 3584 2933 3390 
Q 3200 3197 3328 2828 
z
" transform="scale(0.015625)"/>
      <path id="DejaVuSans-70" d="M 1159 525 
L 1159 -1331 
L 581 -1331 
L 581 3500 
L 1159 3500 
L 1159 2969 
Q 1341 3281 1617 3432 
Q 1894 3584 2278 3584 
Q 2916 3584 3314 3078 
Q 3713 2572 3713 1747 
Q 3713 922 3314 415 
Q 2916 -91 2278 -91 
Q 1894 -91 1617 61 
Q 1341 213 1159 525 
z
M 3116 1747 
Q 3116 2381 2855 2742 
Q 2594 3103 2138 3103 
Q 1681 3103 1420 2742 
Q 1159 2381 1159 1747 
Q 1159 1113 1420 752 
Q 1681 391 2138 391 
Q 2594 391 2855 752 
Q 3116 1113 3116 1747 
z
" transform="scale(0.015625)"/>
      <path id="DejaVuSans-73" d="M 2834 3397 
L 2834 2853 
Q 2591 2978 2328 3040 
Q 2066 3103 1784 3103 
Q 1356 3103 1142 2972 
Q 928 2841 928 2578 
Q 928 2378 1081 2264 
Q 1234 2150 1697 2047 
L 1894 2003 
Q 2506 1872 2764 1633 
Q 3022 1394 3022 966 
Q 3022 478 2636 193 
Q 2250 -91 1575 -91 
Q 1294 -91 989 -36 
Q 684 19 347 128 
L 347 722 
Q 666 556 975 473 
Q 1284 391 1588 391 
Q 1994 391 2212 530 
Q 2431 669 2431 922 
Q 2431 1156 2273 1281 
Q 2116 1406 1581 1522 
L 1381 1569 
Q 847 1681 609 1914 
Q 372 2147 372 2553 
Q 372 3047 722 3315 
Q 1072 3584 1716 3584 
Q 2034 3584 2315 3537 
Q 2597 3491 2834 3397 
z
" transform="scale(0.015625)"/>
      <path id="DejaVuSans-69" d="M 603 3500 
L 1178 3500 
L 1178 0 
L 603 0 
L 603 3500 
z
M 603 4863 
L 1178 4863 
L 1178 4134 
L 603 4134 
L 603 4863 
z
" transform="scale(0.015625)"/>
      <path id="DejaVuSans-6e" d="M 3513 2113 
L 3513 0 
L 2938 0 
L 2938 2094 
Q 2938 2591 2744 2837 
Q 2550 3084 2163 3084 
Q 1697 3084 1428 2787 
Q 1159 2491 1159 1978 
L 1159 0 
L 581 0 
L 581 3500 
L 1159 3500 
L 1159 2956 
Q 1366 3272 1645 3428 
Q 1925 3584 2291 3584 
Q 2894 3584 3203 3211 
Q 3513 2838 3513 2113 
z
" transform="scale(0.015625)"/>
      <path id="DejaVuSans-67" d="M 2906 1791 
Q 2906 2416 2648 2759 
Q 2391 3103 1925 3103 
Q 1463 3103 1205 2759 
Q 947 2416 947 1791 
Q 947 1169 1205 825 
Q 1463 481 1925 481 
Q 2391 481 2648 825 
Q 2906 1169 2906 1791 
z
M 3481 434 
Q 3481 -459 3084 -895 
Q 2688 -1331 1869 -1331 
Q 1566 -1331 1297 -1286 
Q 1028 -1241 775 -1147 
L 775 -588 
Q 1028 -725 1275 -790 
Q 1522 -856 1778 -856 
Q 2344 -856 2625 -561 
Q 2906 -266 2906 331 
L 2906 616 
Q 2728 306 2450 153 
Q 2172 0 1784 0 
Q 1141 0 747 490 
Q 353 981 353 1791 
Q 353 2603 747 3093 
Q 1141 3584 1784 3584 
Q 2172 3584 2450 3431 
Q 2728 3278 2906 2969 
L 2906 3500 
L 3481 3500 
L 3481 434 
z
" transform="scale(0.015625)"/>
      <path id="DejaVuSans-20" transform="scale(0.015625)"/>
      <path id="DejaVuSans-66" d="M 2375 4863 
L 2375 4384 
L 1825 4384 
Q 1516 4384 1395 4259 
Q 1275 4134 1275 3809 
L 1275 3500 
L 2222 3500 
L 2222 3053 
L 1275 3053 
L 1275 0 
L 697 0 
L 697 3053 
L 147 3053 
L 147 3500 
L 697 3500 
L 697 3744 
Q 697 4328 969 4595 
Q 1241 4863 1831 4863 
L 2375 4863 
z
" transform="scale(0.015625)"/>
      <path id="DejaVuSans-72" d="M 2631 2963 
Q 2534 3019 2420 3045 
Q 2306 3072 2169 3072 
Q 1681 3072 1420 2755 
Q 1159 2438 1159 1844 
L 1159 0 
L 581 0 
L 581 3500 
L 1159 3500 
L 1159 2956 
Q 1341 3275 1631 3429 
Q 1922 3584 2338 3584 
Q 2397 3584 2469 3576 
Q 2541 3569 2628 3553 
L 2631 2963 
z
" transform="scale(0.015625)"/>
      <path id="DejaVuSans-65" d="M 3597 1894 
L 3597 1613 
L 953 1613 
Q 991 1019 1311 708 
Q 1631 397 2203 397 
Q 2534 397 2845 478 
Q 3156 559 3463 722 
L 3463 178 
Q 3153 47 2828 -22 
Q 2503 -91 2169 -91 
Q 1331 -91 842 396 
Q 353 884 353 1716 
Q 353 2575 817 3079 
Q 1281 3584 2069 3584 
Q 2775 3584 3186 3129 
Q 3597 2675 3597 1894 
z
M 3022 2063 
Q 3016 2534 2758 2815 
Q 2500 3097 2075 3097 
Q 1594 3097 1305 2825 
Q 1016 2553 972 2059 
L 3022 2063 
z
" transform="scale(0.015625)"/>
      <path id="DejaVuSans-71" d="M 947 1747 
Q 947 1113 1208 752 
Q 1469 391 1925 391 
Q 2381 391 2643 752 
Q 2906 1113 2906 1747 
Q 2906 2381 2643 2742 
Q 2381 3103 1925 3103 
Q 1469 3103 1208 2742 
Q 947 2381 947 1747 
z
M 2906 525 
Q 2725 213 2448 61 
Q 2172 -91 1784 -91 
Q 1150 -91 751 415 
Q 353 922 353 1747 
Q 353 2572 751 3078 
Q 1150 3584 1784 3584 
Q 2172 3584 2448 3432 
Q 2725 3281 2906 2969 
L 2906 3500 
L 3481 3500 
L 3481 -1331 
L 2906 -1331 
L 2906 525 
z
" transform="scale(0.015625)"/>
     </defs>
     <use xlink:href="#DejaVuSans-43"/>
     <use xlink:href="#DejaVuSans-6f" x="69.824219"/>
     <use xlink:href="#DejaVuSans-6d" x="131.005859"/>
     <use xlink:href="#DejaVuSans-70" x="228.417969"/>
     <use xlink:href="#DejaVuSans-6f" x="291.894531"/>
     <use xlink:href="#DejaVuSans-73" x="353.076172"/>
     <use xlink:href="#DejaVuSans-69" x="405.175781"/>
     <use xlink:href="#DejaVuSans-6e" x="432.958984"/>
     <use xlink:href="#DejaVuSans-67" x="496.337891"/>
     <use xlink:href="#DejaVuSans-20" x="559.814453"/>
     <use xlink:href="#DejaVuSans-66" x="591.601562"/>
     <use xlink:href="#DejaVuSans-72" x="626.806641"/>
     <use xlink:href="#DejaVuSans-65" x="665.669922"/>
     <use xlink:href="#DejaVuSans-71" x="727.193359"/>
     <use xlink:href="#DejaVuSans-73" x="790.669922"/>
     <use xlink:href="#DejaVuSans-20" x="842.769531"/>
     <use xlink:href="#DejaVuSans-73" x="874.556641"/>
     <use xlink:href="#DejaVuSans-69" x="926.65625"/>
     <use xlink:href="#DejaVuSans-6e" x="954.439453"/>
     <use xlink:href="#DejaVuSans-65" x="1017.818359"/>
     <use xlink:href="#DejaVuSans-73" x="1079.341797"/>
    </g>
   </g>
  </g>
  <g id="axes_2">
   <g id="patch_7">
    <path d="M 33.73 243.32 
L 997.2 243.32 
L 997.2 155.64 
L 33.73 155.64 
z
" style="fill: #ffffff"/>
   </g>
   <g id="matplotlib.axis_3">
    <g id="xtick_7">
     <g id="line2d_13">
      <g>
       <use xlink:href="#m73e70629c0" x="77.524091" y="243.32" style="stroke: #000000; stroke-width: 0.8"/>
      </g>
     </g>
     <g id="text_11">
      <!-- 0.00 -->
      <g transform="translate(66.391278 257.918438) scale(0.1 -0.1)">
       <use xlink:href="#DejaVuSans-30"/>
       <use xlink:href="#DejaVuSans-2e" x="63.623047"/>
       <use xlink:href="#DejaVuSans-30" x="95.410156"/>
       <use xlink:href="#DejaVuSans-30" x="159.033203"/>
      </g>
     </g>
    </g>
    <g id="xtick_8">
     <g id="line2d_14">
      <g>
       <use xlink:href="#m73e70629c0" x="252.700455" y="243.32" style="stroke: #000000; stroke-width: 0.8"/>
      </g>
     </g>
     <g id="text_12">
      <!-- 0.02 -->
      <g transform="translate(241.567642 257.918438) scale(0.1 -0.1)">
       <use xlink:href="#DejaVuSans-30"/>
       <use xlink:href="#DejaVuSans-2e" x="63.623047"/>
       <use xlink:href="#DejaVuSans-30" x="95.410156"/>
       <use xlink:href="#DejaVuSans-32" x="159.033203"/>
      </g>
     </g>
    </g>
    <g id="xtick_9">
     <g id="line2d_15">
      <g>
       <use xlink:href="#m73e70629c0" x="427.876818" y="243.32" style="stroke: #000000; stroke-width: 0.8"/>
      </g>
     </g>
     <g id="text_13">
      <!-- 0.04 -->
      <g transform="translate(416.744006 257.918438) scale(0.1 -0.1)">
       <use xlink:href="#DejaVuSans-30"/>
       <use xlink:href="#DejaVuSans-2e" x="63.623047"/>
       <use xlink:href="#DejaVuSans-30" x="95.410156"/>
       <use xlink:href="#DejaVuSans-34" x="159.033203"/>
      </g>
     </g>
    </g>
    <g id="xtick_10">
     <g id="line2d_16">
      <g>
       <use xlink:href="#m73e70629c0" x="603.053182" y="243.32" style="stroke: #000000; stroke-width: 0.8"/>
      </g>
     </g>
     <g id="text_14">
      <!-- 0.06 -->
      <g transform="translate(591.920369 257.918438) scale(0.1 -0.1)">
       <use xlink:href="#DejaVuSans-30"/>
       <use xlink:href="#DejaVuSans-2e" x="63.623047"/>
       <use xlink:href="#DejaVuSans-30" x="95.410156"/>
       <use xlink:href="#DejaVuSans-36" x="159.033203"/>
      </g>
     </g>
    </g>
    <g id="xtick_11">
     <g id="line2d_17">
      <g>
       <use xlink:href="#m73e70629c0" x="778.229545" y="243.32" style="stroke: #000000; stroke-width: 0.8"/>
      </g>
     </g>
     <g id="text_15">
      <!-- 0.08 -->
      <g transform="translate(767.096733 257.918438) scale(0.1 -0.1)">
       <use xlink:href="#DejaVuSans-30"/>
       <use xlink:href="#DejaVuSans-2e" x="63.623047"/>
       <use xlink:href="#DejaVuSans-30" x="95.410156"/>
       <use xlink:href="#DejaVuSans-38" x="159.033203"/>
      </g>
     </g>
    </g>
    <g id="xtick_12">
     <g id="line2d_18">
      <g>
       <use xlink:href="#m73e70629c0" x="953.405909" y="243.32" style="stroke: #000000; stroke-width: 0.8"/>
      </g>
     </g>
     <g id="text_16">
      <!-- 0.10 -->
      <g transform="translate(942.273097 257.918438) scale(0.1 -0.1)">
       <use xlink:href="#DejaVuSans-30"/>
       <use xlink:href="#DejaVuSans-2e" x="63.623047"/>
       <use xlink:href="#DejaVuSans-31" x="95.410156"/>
       <use xlink:href="#DejaVuSans-30" x="159.033203"/>
      </g>
     </g>
    </g>
   </g>
   <g id="matplotlib.axis_4">
    <g id="ytick_4">
     <g id="line2d_19">
      <g>
       <use xlink:href="#m67e085c070" x="33.73" y="228.005568" style="stroke: #000000; stroke-width: 0.8"/>
      </g>
     </g>
     <g id="text_17">
      <!-- −2 -->
      <g transform="translate(11.987813 231.804786) scale(0.1 -0.1)">
       <use xlink:href="#DejaVuSans-2212"/>
       <use xlink:href="#DejaVuSans-32" x="83.789062"/>
      </g>
     </g>
    </g>
    <g id="ytick_5">
     <g id="line2d_20">
      <g>
       <use xlink:href="#m67e085c070" x="33.73" y="199.48" style="stroke: #000000; stroke-width: 0.8"/>
      </g>
     </g>
     <g id="text_18">
      <!-- 0 -->
      <g transform="translate(20.3675 203.279219) scale(0.1 -0.1)">
       <use xlink:href="#DejaVuSans-30"/>
      </g>
     </g>
    </g>
    <g id="ytick_6">
     <g id="line2d_21">
      <g>
       <use xlink:href="#m67e085c070" x="33.73" y="170.954432" style="stroke: #000000; stroke-width: 0.8"/>
      </g>
     </g>
     <g id="text_19">
      <!-- 2 -->
      <g transform="translate(20.3675 174.753651) scale(0.1 -0.1)">
       <use xlink:href="#DejaVuSans-32"/>
      </g>
     </g>
    </g>
   </g>
   <g id="line2d_22">
    <path d="M 77.524091 199.48 
L 80.958922 192.850667 
L 84.393752 186.505829 
L 87.828583 180.715123 
L 91.263414 175.719313 
L 94.698244 171.717875 
L 98.133075 168.85889 
L 101.567906 167.231796 
L 105.002736 166.863384 
L 108.437567 167.71725 
L 111.872398 169.6967 
L 115.307228 172.650912 
L 118.742059 176.383986 
L 122.176889 180.66633 
L 132.481381 194.287329 
L 135.916212 198.26722 
L 139.351043 201.614713 
L 142.785873 204.176022 
L 146.220704 205.846887 
L 149.655535 206.576695 
L 153.090365 206.369412 
L 156.525196 205.281321 
L 159.960027 203.415788 
L 163.394857 200.915398 
L 166.829688 197.952015 
L 177.13418 188.198082 
L 180.569011 185.278059 
L 184.003841 182.784871 
L 187.438672 180.827013 
L 190.873503 179.47217 
L 194.308333 178.744613 
L 197.743164 178.625476 
L 201.177995 179.055845 
L 204.612825 179.942425 
L 208.047656 181.16537 
L 218.352148 185.460479 
L 221.786979 186.646283 
L 225.221809 187.521915 
L 228.65664 188.017104 
L 232.091471 188.098053 
L 235.526301 187.770204 
L 238.961132 187.078244 
L 242.395963 186.103362 
L 252.700455 182.713092 
L 256.135285 181.917535 
L 259.570116 181.537399 
L 263.004947 181.700695 
L 266.439777 182.507261 
L 269.874608 184.020443 
L 273.309439 186.260943 
L 276.744269 189.203258 
L 280.1791 192.775004 
L 283.61393 196.85922 
L 290.483592 205.908209 
L 293.918422 210.475803 
L 297.353253 214.783269 
L 300.788084 218.614407 
L 304.222914 221.768773 
L 307.657745 224.073973 
L 311.092576 225.396647 
L 314.527406 225.651447 
L 317.962237 224.807451 
L 321.397068 222.891567 
L 324.831898 219.988688 
L 328.266729 216.238531 
L 331.70156 211.829286 
L 338.571221 201.970926 
L 342.006052 197.046296 
L 345.440882 192.483854 
L 348.875713 188.538384 
L 352.310544 185.436187 
L 355.745374 183.362596 
L 359.180205 182.451638 
L 362.615036 182.778427 
L 366.049866 184.354747 
L 369.484697 187.128067 
L 372.919528 190.984079 
L 376.354358 195.752599 
L 379.789189 201.216515 
L 386.65885 213.198311 
L 390.093681 219.159494 
L 393.528512 224.732058 
L 396.963342 229.662912 
L 400.398173 233.733677 
L 403.833004 236.771688 
L 407.267834 238.658374 
L 410.702665 239.334545 
L 414.137496 238.802357 
L 417.572326 237.123853 
L 421.007157 234.416227 
L 424.441988 230.844119 
L 427.876818 226.609427 
L 431.311649 221.93926 
L 438.18131 212.24752 
L 441.616141 207.686574 
L 445.050971 203.586391 
L 448.485802 200.106887 
L 451.920633 197.363786 
L 455.355463 195.423823 
L 458.790294 194.302989 
L 462.225125 193.96787 
L 465.659955 194.339922 
L 469.094786 195.302361 
L 472.529617 196.709203 
L 479.399278 200.190386 
L 482.834109 201.925366 
L 486.268939 203.448479 
L 489.70377 204.632312 
L 493.138601 205.382063 
L 496.573431 205.640937 
L 500.008262 205.392874 
L 503.443093 204.662466 
L 506.877923 203.512114 
L 510.312754 202.036624 
L 520.617246 196.923376 
L 524.052077 195.447886 
L 527.486907 194.297534 
L 530.921738 193.567126 
L 534.356569 193.319063 
L 537.791399 193.577937 
L 541.22623 194.327688 
L 544.661061 195.511521 
L 548.095891 197.034634 
L 558.400383 202.250797 
L 561.835214 203.657639 
L 565.270045 204.620078 
L 568.704875 204.99213 
L 572.139706 204.657011 
L 575.574537 203.536177 
L 579.009367 201.596214 
L 582.444198 198.853113 
L 585.879029 195.373609 
L 589.313859 191.273426 
L 592.74869 186.71248 
L 603.053182 172.350573 
L 606.488012 168.115881 
L 609.922843 164.543773 
L 613.357674 161.836147 
L 616.792504 160.157643 
L 620.227335 159.625455 
L 623.662166 160.301626 
L 627.096996 162.188312 
L 630.531827 165.226323 
L 633.966658 169.297088 
L 637.401488 174.227942 
L 640.836319 179.800506 
L 651.140811 197.743485 
L 654.575642 203.207401 
L 658.010472 207.975921 
L 661.445303 211.831933 
L 664.880134 214.605253 
L 668.314964 216.181573 
L 671.749795 216.508362 
L 675.184626 215.597404 
L 678.619456 213.523813 
L 682.054287 210.421616 
L 685.489118 206.476146 
L 688.923948 201.913704 
L 699.22844 187.130714 
L 702.663271 182.721469 
L 706.098102 178.971312 
L 709.532932 176.068433 
L 712.967763 174.152549 
L 716.402594 173.308553 
L 719.837424 173.563353 
L 723.272255 174.886027 
L 726.707086 177.191227 
L 730.141916 180.345593 
L 733.576747 184.176731 
L 737.011578 188.484197 
L 747.31607 202.10078 
L 750.7509 206.184996 
L 754.185731 209.756742 
L 757.620561 212.699057 
L 761.055392 214.939557 
L 764.490223 216.452739 
L 767.925053 217.259305 
L 771.359884 217.422601 
L 774.794715 217.042465 
L 778.229545 216.246908 
L 785.099207 214.002093 
L 788.534037 212.856638 
L 791.968868 211.881756 
L 795.403699 211.189796 
L 798.838529 210.861947 
L 802.27336 210.942896 
L 805.708191 211.438085 
L 809.143021 212.313717 
L 812.577852 213.499521 
L 826.317175 219.017575 
L 829.752005 219.904155 
L 833.186836 220.334524 
L 836.621667 220.215387 
L 840.056497 219.48783 
L 843.491328 218.132987 
L 846.926159 216.175129 
L 850.360989 213.681941 
L 853.79582 210.761918 
L 867.535143 198.044602 
L 870.969973 195.544212 
L 874.404804 193.678679 
L 877.839635 192.590588 
L 881.274465 192.383305 
L 884.709296 193.113113 
L 888.144127 194.783978 
L 891.578957 197.345287 
L 895.013788 200.69278 
L 898.448619 204.672671 
L 901.883449 209.088775 
L 908.753111 218.29367 
L 912.187941 222.576014 
L 915.622772 226.309088 
L 919.057602 229.2633 
L 922.492433 231.24275 
L 925.927264 232.096616 
L 929.362094 231.728204 
L 932.796925 230.10111 
L 936.231756 227.242125 
L 939.666586 223.240687 
L 943.101417 218.244877 
L 946.536248 212.454171 
L 949.971078 206.109333 
L 953.405909 199.48 
L 953.405909 199.48 
" clip-path="url(#p3a265bdc02)" style="fill: none; stroke: #0000ff; stroke-width: 1.5; stroke-linecap: square"/>
   </g>
   <g id="patch_8">
    <path d="M 33.73 243.32 
L 33.73 155.64 
" style="fill: none; stroke: #000000; stroke-width: 0.8; stroke-linejoin: miter; stroke-linecap: square"/>
   </g>
   <g id="patch_9">
    <path d="M 997.2 243.32 
L 997.2 155.64 
" style="fill: none; stroke: #000000; stroke-width: 0.8; stroke-linejoin: miter; stroke-linecap: square"/>
   </g>
   <g id="patch_10">
    <path d="M 33.73 243.32 
L 997.2 243.32 
" style="fill: none; stroke: #000000; stroke-width: 0.8; stroke-linejoin: miter; stroke-linecap: square"/>
   </g>
   <g id="patch_11">
    <path d="M 33.73 155.64 
L 997.2 155.64 
" style="fill: none; stroke: #000000; stroke-width: 0.8; stroke-linejoin: miter; stroke-linecap: square"/>
   </g>
   <g id="text_20">
    <!-- Resulting wave -->
    <g transform="translate(469.914688 149.64) scale(0.12 -0.12)">
     <defs>
      <path id="DejaVuSans-52" d="M 2841 2188 
Q 3044 2119 3236 1894 
Q 3428 1669 3622 1275 
L 4263 0 
L 3584 0 
L 2988 1197 
Q 2756 1666 2539 1819 
Q 2322 1972 1947 1972 
L 1259 1972 
L 1259 0 
L 628 0 
L 628 4666 
L 2053 4666 
Q 2853 4666 3247 4331 
Q 3641 3997 3641 3322 
Q 3641 2881 3436 2590 
Q 3231 2300 2841 2188 
z
M 1259 4147 
L 1259 2491 
L 2053 2491 
Q 2509 2491 2742 2702 
Q 2975 2913 2975 3322 
Q 2975 3731 2742 3939 
Q 2509 4147 2053 4147 
L 1259 4147 
z
" transform="scale(0.015625)"/>
      <path id="DejaVuSans-75" d="M 544 1381 
L 544 3500 
L 1119 3500 
L 1119 1403 
Q 1119 906 1312 657 
Q 1506 409 1894 409 
Q 2359 409 2629 706 
Q 2900 1003 2900 1516 
L 2900 3500 
L 3475 3500 
L 3475 0 
L 2900 0 
L 2900 538 
Q 2691 219 2414 64 
Q 2138 -91 1772 -91 
Q 1169 -91 856 284 
Q 544 659 544 1381 
z
M 1991 3584 
L 1991 3584 
z
" transform="scale(0.015625)"/>
      <path id="DejaVuSans-6c" d="M 603 4863 
L 1178 4863 
L 1178 0 
L 603 0 
L 603 4863 
z
" transform="scale(0.015625)"/>
      <path id="DejaVuSans-74" d="M 1172 4494 
L 1172 3500 
L 2356 3500 
L 2356 3053 
L 1172 3053 
L 1172 1153 
Q 1172 725 1289 603 
Q 1406 481 1766 481 
L 2356 481 
L 2356 0 
L 1766 0 
Q 1100 0 847 248 
Q 594 497 594 1153 
L 594 3053 
L 172 3053 
L 172 3500 
L 594 3500 
L 594 4494 
L 1172 4494 
z
" transform="scale(0.015625)"/>
      <path id="DejaVuSans-77" d="M 269 3500 
L 844 3500 
L 1563 769 
L 2278 3500 
L 2956 3500 
L 3675 769 
L 4391 3500 
L 4966 3500 
L 4050 0 
L 3372 0 
L 2619 2869 
L 1863 0 
L 1184 0 
L 269 3500 
z
" transform="scale(0.015625)"/>
      <path id="DejaVuSans-61" d="M 2194 1759 
Q 1497 1759 1228 1600 
Q 959 1441 959 1056 
Q 959 750 1161 570 
Q 1363 391 1709 391 
Q 2188 391 2477 730 
Q 2766 1069 2766 1631 
L 2766 1759 
L 2194 1759 
z
M 3341 1997 
L 3341 0 
L 2766 0 
L 2766 531 
Q 2569 213 2275 61 
Q 1981 -91 1556 -91 
Q 1019 -91 701 211 
Q 384 513 384 1019 
Q 384 1609 779 1909 
Q 1175 2209 1959 2209 
L 2766 2209 
L 2766 2266 
Q 2766 2663 2505 2880 
Q 2244 3097 1772 3097 
Q 1472 3097 1187 3025 
Q 903 2953 641 2809 
L 641 3341 
Q 956 3463 1253 3523 
Q 1550 3584 1831 3584 
Q 2591 3584 2966 3190 
Q 3341 2797 3341 1997 
z
" transform="scale(0.015625)"/>
      <path id="DejaVuSans-76" d="M 191 3500 
L 800 3500 
L 1894 563 
L 2988 3500 
L 3597 3500 
L 2284 0 
L 1503 0 
L 191 3500 
z
" transform="scale(0.015625)"/>
     </defs>
     <use xlink:href="#DejaVuSans-52"/>
     <use xlink:href="#DejaVuSans-65" x="64.982422"/>
     <use xlink:href="#DejaVuSans-73" x="126.505859"/>
     <use xlink:href="#DejaVuSans-75" x="178.605469"/>
     <use xlink:href="#DejaVuSans-6c" x="241.984375"/>
     <use xlink:href="#DejaVuSans-74" x="269.767578"/>
     <use xlink:href="#DejaVuSans-69" x="308.976562"/>
     <use xlink:href="#DejaVuSans-6e" x="336.759766"/>
     <use xlink:href="#DejaVuSans-67" x="400.138672"/>
     <use xlink:href="#DejaVuSans-20" x="463.615234"/>
     <use xlink:href="#DejaVuSans-77" x="495.402344"/>
     <use xlink:href="#DejaVuSans-61" x="577.189453"/>
     <use xlink:href="#DejaVuSans-76" x="638.46875"/>
     <use xlink:href="#DejaVuSans-65" x="697.648438"/>
    </g>
   </g>
  </g>
  <g id="axes_3">
   <g id="patch_12">
    <path d="M 33.73 373.52 
L 997.2 373.52 
L 997.2 285.84 
L 33.73 285.84 
z
" style="fill: #ffffff"/>
   </g>
   <g id="matplotlib.axis_5">
    <g id="xtick_13">
     <g id="line2d_23">
      <g>
       <use xlink:href="#m73e70629c0" x="77.524091" y="373.52" style="stroke: #000000; stroke-width: 0.8"/>
      </g>
     </g>
     <g id="text_21">
      <!-- 0 -->
      <g transform="translate(74.342841 388.118437) scale(0.1 -0.1)">
       <use xlink:href="#DejaVuSans-30"/>
      </g>
     </g>
    </g>
    <g id="xtick_14">
     <g id="line2d_24">
      <g>
       <use xlink:href="#m73e70629c0" x="215.458236" y="373.52" style="stroke: #000000; stroke-width: 0.8"/>
      </g>
     </g>
     <g id="text_22">
      <!-- 200 -->
      <g transform="translate(205.914486 388.118437) scale(0.1 -0.1)">
       <use xlink:href="#DejaVuSans-32"/>
       <use xlink:href="#DejaVuSans-30" x="63.623047"/>
       <use xlink:href="#DejaVuSans-30" x="127.246094"/>
      </g>
     </g>
    </g>
    <g id="xtick_15">
     <g id="line2d_25">
      <g>
       <use xlink:href="#m73e70629c0" x="353.39238" y="373.52" style="stroke: #000000; stroke-width: 0.8"/>
      </g>
     </g>
     <g id="text_23">
      <!-- 400 -->
      <g transform="translate(343.84863 388.118437) scale(0.1 -0.1)">
       <use xlink:href="#DejaVuSans-34"/>
       <use xlink:href="#DejaVuSans-30" x="63.623047"/>
       <use xlink:href="#DejaVuSans-30" x="127.246094"/>
      </g>
     </g>
    </g>
    <g id="xtick_16">
     <g id="line2d_26">
      <g>
       <use xlink:href="#m73e70629c0" x="491.326525" y="373.52" style="stroke: #000000; stroke-width: 0.8"/>
      </g>
     </g>
     <g id="text_24">
      <!-- 600 -->
      <g transform="translate(481.782775 388.118437) scale(0.1 -0.1)">
       <use xlink:href="#DejaVuSans-36"/>
       <use xlink:href="#DejaVuSans-30" x="63.623047"/>
       <use xlink:href="#DejaVuSans-30" x="127.246094"/>
      </g>
     </g>
    </g>
    <g id="xtick_17">
     <g id="line2d_27">
      <g>
       <use xlink:href="#m73e70629c0" x="629.260669" y="373.52" style="stroke: #000000; stroke-width: 0.8"/>
      </g>
     </g>
     <g id="text_25">
      <!-- 800 -->
      <g transform="translate(619.716919 388.118437) scale(0.1 -0.1)">
       <use xlink:href="#DejaVuSans-38"/>
       <use xlink:href="#DejaVuSans-30" x="63.623047"/>
       <use xlink:href="#DejaVuSans-30" x="127.246094"/>
      </g>
     </g>
    </g>
    <g id="xtick_18">
     <g id="line2d_28">
      <g>
       <use xlink:href="#m73e70629c0" x="767.194814" y="373.52" style="stroke: #000000; stroke-width: 0.8"/>
      </g>
     </g>
     <g id="text_26">
      <!-- 1000 -->
      <g transform="translate(754.469814 388.118437) scale(0.1 -0.1)">
       <use xlink:href="#DejaVuSans-31"/>
       <use xlink:href="#DejaVuSans-30" x="63.623047"/>
       <use xlink:href="#DejaVuSans-30" x="127.246094"/>
       <use xlink:href="#DejaVuSans-30" x="190.869141"/>
      </g>
     </g>
    </g>
    <g id="xtick_19">
     <g id="line2d_29">
      <g>
       <use xlink:href="#m73e70629c0" x="905.128958" y="373.52" style="stroke: #000000; stroke-width: 0.8"/>
      </g>
     </g>
     <g id="text_27">
      <!-- 1200 -->
      <g transform="translate(892.403958 388.118437) scale(0.1 -0.1)">
       <use xlink:href="#DejaVuSans-31"/>
       <use xlink:href="#DejaVuSans-32" x="63.623047"/>
       <use xlink:href="#DejaVuSans-30" x="127.246094"/>
       <use xlink:href="#DejaVuSans-30" x="190.869141"/>
      </g>
     </g>
    </g>
   </g>
   <g id="matplotlib.axis_6">
    <g id="ytick_7">
     <g id="line2d_30">
      <g>
       <use xlink:href="#m67e085c070" x="33.73" y="369.534545" style="stroke: #000000; stroke-width: 0.8"/>
      </g>
     </g>
     <g id="text_28">
      <!-- 0.0 -->
      <g transform="translate(10.826875 373.333764) scale(0.1 -0.1)">
       <use xlink:href="#DejaVuSans-30"/>
       <use xlink:href="#DejaVuSans-2e" x="63.623047"/>
       <use xlink:href="#DejaVuSans-30" x="95.410156"/>
      </g>
     </g>
    </g>
    <g id="ytick_8">
     <g id="line2d_31">
      <g>
       <use xlink:href="#m67e085c070" x="33.73" y="329.874868" style="stroke: #000000; stroke-width: 0.8"/>
      </g>
     </g>
     <g id="text_29">
      <!-- 0.5 -->
      <g transform="translate(10.826875 333.674087) scale(0.1 -0.1)">
       <defs>
        <path id="DejaVuSans-35" d="M 691 4666 
L 3169 4666 
L 3169 4134 
L 1269 4134 
L 1269 2991 
Q 1406 3038 1543 3061 
Q 1681 3084 1819 3084 
Q 2600 3084 3056 2656 
Q 3513 2228 3513 1497 
Q 3513 744 3044 326 
Q 2575 -91 1722 -91 
Q 1428 -91 1123 -41 
Q 819 9 494 109 
L 494 744 
Q 775 591 1075 516 
Q 1375 441 1709 441 
Q 2250 441 2565 725 
Q 2881 1009 2881 1497 
Q 2881 1984 2565 2268 
Q 2250 2553 1709 2553 
Q 1456 2553 1204 2497 
Q 953 2441 691 2322 
L 691 4666 
z
" transform="scale(0.015625)"/>
       </defs>
       <use xlink:href="#DejaVuSans-30"/>
       <use xlink:href="#DejaVuSans-2e" x="63.623047"/>
       <use xlink:href="#DejaVuSans-35" x="95.410156"/>
      </g>
     </g>
    </g>
    <g id="ytick_9">
     <g id="line2d_32">
      <g>
       <use xlink:href="#m67e085c070" x="33.73" y="290.215191" style="stroke: #000000; stroke-width: 0.8"/>
      </g>
     </g>
     <g id="text_30">
      <!-- 1.0 -->
      <g transform="translate(10.826875 294.01441) scale(0.1 -0.1)">
       <use xlink:href="#DejaVuSans-31"/>
       <use xlink:href="#DejaVuSans-2e" x="63.623047"/>
       <use xlink:href="#DejaVuSans-30" x="95.410156"/>
      </g>
     </g>
    </g>
   </g>
   <g id="line2d_33">
    <path d="M 77.524091 369.534545 
L 84.420798 368.972365 
L 91.317505 290.059124 
L 98.214213 369.308388 
L 105.11092 369.137649 
L 112.007627 368.531472 
L 118.904334 367.245467 
L 125.801042 289.825455 
L 132.697749 368.334923 
L 139.594456 368.098211 
L 146.491163 291.562449 
L 153.38787 365.369394 
L 160.284578 367.149517 
L 167.181285 367.777328 
L 174.077992 368.1119 
L 187.871407 368.474282 
L 208.561528 368.74435 
L 249.941772 368.992103 
L 325.805551 369.176417 
L 491.326525 369.314844 
L 905.128958 369.388246 
L 953.405909 369.388955 
L 953.405909 369.388955 
" clip-path="url(#p06720b750a)" style="fill: none; stroke: #ff0000; stroke-width: 1.5; stroke-linecap: square"/>
   </g>
   <g id="patch_13">
    <path d="M 33.73 373.52 
L 33.73 285.84 
" style="fill: none; stroke: #000000; stroke-width: 0.8; stroke-linejoin: miter; stroke-linecap: square"/>
   </g>
   <g id="patch_14">
    <path d="M 997.2 373.52 
L 997.2 285.84 
" style="fill: none; stroke: #000000; stroke-width: 0.8; stroke-linejoin: miter; stroke-linecap: square"/>
   </g>
   <g id="patch_15">
    <path d="M 33.73 373.52 
L 997.2 373.52 
" style="fill: none; stroke: #000000; stroke-width: 0.8; stroke-linejoin: miter; stroke-linecap: square"/>
   </g>
   <g id="patch_16">
    <path d="M 33.73 285.84 
L 997.2 285.84 
" style="fill: none; stroke: #000000; stroke-width: 0.8; stroke-linejoin: miter; stroke-linecap: square"/>
   </g>
   <g id="text_31">
    <!-- DFT vectorized result -->
    <g transform="translate(451.700938 279.84) scale(0.12 -0.12)">
     <defs>
      <path id="DejaVuSans-44" d="M 1259 4147 
L 1259 519 
L 2022 519 
Q 2988 519 3436 956 
Q 3884 1394 3884 2338 
Q 3884 3275 3436 3711 
Q 2988 4147 2022 4147 
L 1259 4147 
z
M 628 4666 
L 1925 4666 
Q 3281 4666 3915 4102 
Q 4550 3538 4550 2338 
Q 4550 1131 3912 565 
Q 3275 0 1925 0 
L 628 0 
L 628 4666 
z
" transform="scale(0.015625)"/>
      <path id="DejaVuSans-46" d="M 628 4666 
L 3309 4666 
L 3309 4134 
L 1259 4134 
L 1259 2759 
L 3109 2759 
L 3109 2228 
L 1259 2228 
L 1259 0 
L 628 0 
L 628 4666 
z
" transform="scale(0.015625)"/>
      <path id="DejaVuSans-54" d="M -19 4666 
L 3928 4666 
L 3928 4134 
L 2272 4134 
L 2272 0 
L 1638 0 
L 1638 4134 
L -19 4134 
L -19 4666 
z
" transform="scale(0.015625)"/>
      <path id="DejaVuSans-63" d="M 3122 3366 
L 3122 2828 
Q 2878 2963 2633 3030 
Q 2388 3097 2138 3097 
Q 1578 3097 1268 2742 
Q 959 2388 959 1747 
Q 959 1106 1268 751 
Q 1578 397 2138 397 
Q 2388 397 2633 464 
Q 2878 531 3122 666 
L 3122 134 
Q 2881 22 2623 -34 
Q 2366 -91 2075 -91 
Q 1284 -91 818 406 
Q 353 903 353 1747 
Q 353 2603 823 3093 
Q 1294 3584 2113 3584 
Q 2378 3584 2631 3529 
Q 2884 3475 3122 3366 
z
" transform="scale(0.015625)"/>
      <path id="DejaVuSans-7a" d="M 353 3500 
L 3084 3500 
L 3084 2975 
L 922 459 
L 3084 459 
L 3084 0 
L 275 0 
L 275 525 
L 2438 3041 
L 353 3041 
L 353 3500 
z
" transform="scale(0.015625)"/>
      <path id="DejaVuSans-64" d="M 2906 2969 
L 2906 4863 
L 3481 4863 
L 3481 0 
L 2906 0 
L 2906 525 
Q 2725 213 2448 61 
Q 2172 -91 1784 -91 
Q 1150 -91 751 415 
Q 353 922 353 1747 
Q 353 2572 751 3078 
Q 1150 3584 1784 3584 
Q 2172 3584 2448 3432 
Q 2725 3281 2906 2969 
z
M 947 1747 
Q 947 1113 1208 752 
Q 1469 391 1925 391 
Q 2381 391 2643 752 
Q 2906 1113 2906 1747 
Q 2906 2381 2643 2742 
Q 2381 3103 1925 3103 
Q 1469 3103 1208 2742 
Q 947 2381 947 1747 
z
" transform="scale(0.015625)"/>
     </defs>
     <use xlink:href="#DejaVuSans-44"/>
     <use xlink:href="#DejaVuSans-46" x="77.001953"/>
     <use xlink:href="#DejaVuSans-54" x="132.771484"/>
     <use xlink:href="#DejaVuSans-20" x="193.855469"/>
     <use xlink:href="#DejaVuSans-76" x="225.642578"/>
     <use xlink:href="#DejaVuSans-65" x="284.822266"/>
     <use xlink:href="#DejaVuSans-63" x="346.345703"/>
     <use xlink:href="#DejaVuSans-74" x="401.326172"/>
     <use xlink:href="#DejaVuSans-6f" x="440.535156"/>
     <use xlink:href="#DejaVuSans-72" x="501.716797"/>
     <use xlink:href="#DejaVuSans-69" x="542.830078"/>
     <use xlink:href="#DejaVuSans-7a" x="570.613281"/>
     <use xlink:href="#DejaVuSans-65" x="623.103516"/>
     <use xlink:href="#DejaVuSans-64" x="684.626953"/>
     <use xlink:href="#DejaVuSans-20" x="748.103516"/>
     <use xlink:href="#DejaVuSans-72" x="779.890625"/>
     <use xlink:href="#DejaVuSans-65" x="818.753906"/>
     <use xlink:href="#DejaVuSans-73" x="880.277344"/>
     <use xlink:href="#DejaVuSans-75" x="932.376953"/>
     <use xlink:href="#DejaVuSans-6c" x="995.755859"/>
     <use xlink:href="#DejaVuSans-74" x="1023.539062"/>
    </g>
   </g>
  </g>
  <g id="axes_4">
   <g id="patch_17">
    <path d="M 33.73 503.72 
L 997.2 503.72 
L 997.2 416.04 
L 33.73 416.04 
z
" style="fill: #ffffff"/>
   </g>
   <g id="matplotlib.axis_7">
    <g id="xtick_20">
     <g id="line2d_34">
      <g>
       <use xlink:href="#m73e70629c0" x="77.524091" y="503.72" style="stroke: #000000; stroke-width: 0.8"/>
      </g>
     </g>
     <g id="text_32">
      <!-- 0 -->
      <g transform="translate(74.342841 518.318438) scale(0.1 -0.1)">
       <use xlink:href="#DejaVuSans-30"/>
      </g>
     </g>
    </g>
    <g id="xtick_21">
     <g id="line2d_35">
      <g>
       <use xlink:href="#m73e70629c0" x="215.458236" y="503.72" style="stroke: #000000; stroke-width: 0.8"/>
      </g>
     </g>
     <g id="text_33">
      <!-- 200 -->
      <g transform="translate(205.914486 518.318438) scale(0.1 -0.1)">
       <use xlink:href="#DejaVuSans-32"/>
       <use xlink:href="#DejaVuSans-30" x="63.623047"/>
       <use xlink:href="#DejaVuSans-30" x="127.246094"/>
      </g>
     </g>
    </g>
    <g id="xtick_22">
     <g id="line2d_36">
      <g>
       <use xlink:href="#m73e70629c0" x="353.39238" y="503.72" style="stroke: #000000; stroke-width: 0.8"/>
      </g>
     </g>
     <g id="text_34">
      <!-- 400 -->
      <g transform="translate(343.84863 518.318438) scale(0.1 -0.1)">
       <use xlink:href="#DejaVuSans-34"/>
       <use xlink:href="#DejaVuSans-30" x="63.623047"/>
       <use xlink:href="#DejaVuSans-30" x="127.246094"/>
      </g>
     </g>
    </g>
    <g id="xtick_23">
     <g id="line2d_37">
      <g>
       <use xlink:href="#m73e70629c0" x="491.326525" y="503.72" style="stroke: #000000; stroke-width: 0.8"/>
      </g>
     </g>
     <g id="text_35">
      <!-- 600 -->
      <g transform="translate(481.782775 518.318438) scale(0.1 -0.1)">
       <use xlink:href="#DejaVuSans-36"/>
       <use xlink:href="#DejaVuSans-30" x="63.623047"/>
       <use xlink:href="#DejaVuSans-30" x="127.246094"/>
      </g>
     </g>
    </g>
    <g id="xtick_24">
     <g id="line2d_38">
      <g>
       <use xlink:href="#m73e70629c0" x="629.260669" y="503.72" style="stroke: #000000; stroke-width: 0.8"/>
      </g>
     </g>
     <g id="text_36">
      <!-- 800 -->
      <g transform="translate(619.716919 518.318438) scale(0.1 -0.1)">
       <use xlink:href="#DejaVuSans-38"/>
       <use xlink:href="#DejaVuSans-30" x="63.623047"/>
       <use xlink:href="#DejaVuSans-30" x="127.246094"/>
      </g>
     </g>
    </g>
    <g id="xtick_25">
     <g id="line2d_39">
      <g>
       <use xlink:href="#m73e70629c0" x="767.194814" y="503.72" style="stroke: #000000; stroke-width: 0.8"/>
      </g>
     </g>
     <g id="text_37">
      <!-- 1000 -->
      <g transform="translate(754.469814 518.318438) scale(0.1 -0.1)">
       <use xlink:href="#DejaVuSans-31"/>
       <use xlink:href="#DejaVuSans-30" x="63.623047"/>
       <use xlink:href="#DejaVuSans-30" x="127.246094"/>
       <use xlink:href="#DejaVuSans-30" x="190.869141"/>
      </g>
     </g>
    </g>
    <g id="xtick_26">
     <g id="line2d_40">
      <g>
       <use xlink:href="#m73e70629c0" x="905.128958" y="503.72" style="stroke: #000000; stroke-width: 0.8"/>
      </g>
     </g>
     <g id="text_38">
      <!-- 1200 -->
      <g transform="translate(892.403958 518.318438) scale(0.1 -0.1)">
       <use xlink:href="#DejaVuSans-31"/>
       <use xlink:href="#DejaVuSans-32" x="63.623047"/>
       <use xlink:href="#DejaVuSans-30" x="127.246094"/>
       <use xlink:href="#DejaVuSans-30" x="190.869141"/>
      </g>
     </g>
    </g>
   </g>
   <g id="matplotlib.axis_8">
    <g id="ytick_10">
     <g id="line2d_41">
      <g>
       <use xlink:href="#m67e085c070" x="33.73" y="499.734545" style="stroke: #000000; stroke-width: 0.8"/>
      </g>
     </g>
     <g id="text_39">
      <!-- 0.0 -->
      <g transform="translate(10.826875 503.533764) scale(0.1 -0.1)">
       <use xlink:href="#DejaVuSans-30"/>
       <use xlink:href="#DejaVuSans-2e" x="63.623047"/>
       <use xlink:href="#DejaVuSans-30" x="95.410156"/>
      </g>
     </g>
    </g>
    <g id="ytick_11">
     <g id="line2d_42">
      <g>
       <use xlink:href="#m67e085c070" x="33.73" y="460.074868" style="stroke: #000000; stroke-width: 0.8"/>
      </g>
     </g>
     <g id="text_40">
      <!-- 0.5 -->
      <g transform="translate(10.826875 463.874087) scale(0.1 -0.1)">
       <use xlink:href="#DejaVuSans-30"/>
       <use xlink:href="#DejaVuSans-2e" x="63.623047"/>
       <use xlink:href="#DejaVuSans-35" x="95.410156"/>
      </g>
     </g>
    </g>
    <g id="ytick_12">
     <g id="line2d_43">
      <g>
       <use xlink:href="#m67e085c070" x="33.73" y="420.415191" style="stroke: #000000; stroke-width: 0.8"/>
      </g>
     </g>
     <g id="text_41">
      <!-- 1.0 -->
      <g transform="translate(10.826875 424.21441) scale(0.1 -0.1)">
       <use xlink:href="#DejaVuSans-31"/>
       <use xlink:href="#DejaVuSans-2e" x="63.623047"/>
       <use xlink:href="#DejaVuSans-30" x="95.410156"/>
      </g>
     </g>
    </g>
   </g>
   <g id="line2d_44">
    <path d="M 77.524091 499.734545 
L 84.420798 499.172365 
L 91.317505 420.259124 
L 98.214213 499.508388 
L 105.11092 499.337649 
L 112.007627 498.731472 
L 118.904334 497.445467 
L 125.801042 420.025455 
L 132.697749 498.534923 
L 139.594456 498.298211 
L 146.491163 421.762449 
L 153.38787 495.569394 
L 160.284578 497.349517 
L 167.181285 497.977328 
L 174.077992 498.3119 
L 187.871407 498.674282 
L 208.561528 498.94435 
L 249.941772 499.192103 
L 325.805551 499.376417 
L 491.326525 499.514844 
L 905.128958 499.588246 
L 953.405909 499.588955 
L 953.405909 499.588955 
" clip-path="url(#p2e11b3ad5d)" style="fill: none; stroke: #008000; stroke-width: 1.5; stroke-linecap: square"/>
   </g>
   <g id="patch_18">
    <path d="M 33.73 503.72 
L 33.73 416.04 
" style="fill: none; stroke: #000000; stroke-width: 0.8; stroke-linejoin: miter; stroke-linecap: square"/>
   </g>
   <g id="patch_19">
    <path d="M 997.2 503.72 
L 997.2 416.04 
" style="fill: none; stroke: #000000; stroke-width: 0.8; stroke-linejoin: miter; stroke-linecap: square"/>
   </g>
   <g id="patch_20">
    <path d="M 33.73 503.72 
L 997.2 503.72 
" style="fill: none; stroke: #000000; stroke-width: 0.8; stroke-linejoin: miter; stroke-linecap: square"/>
   </g>
   <g id="patch_21">
    <path d="M 33.73 416.04 
L 997.2 416.04 
" style="fill: none; stroke: #000000; stroke-width: 0.8; stroke-linejoin: miter; stroke-linecap: square"/>
   </g>
   <g id="text_42">
    <!-- DFT sequential result -->
    <g transform="translate(451.76375 410.04) scale(0.12 -0.12)">
     <use xlink:href="#DejaVuSans-44"/>
     <use xlink:href="#DejaVuSans-46" x="77.001953"/>
     <use xlink:href="#DejaVuSans-54" x="132.771484"/>
     <use xlink:href="#DejaVuSans-20" x="193.855469"/>
     <use xlink:href="#DejaVuSans-73" x="225.642578"/>
     <use xlink:href="#DejaVuSans-65" x="277.742188"/>
     <use xlink:href="#DejaVuSans-71" x="339.265625"/>
     <use xlink:href="#DejaVuSans-75" x="402.742188"/>
     <use xlink:href="#DejaVuSans-65" x="466.121094"/>
     <use xlink:href="#DejaVuSans-6e" x="527.644531"/>
     <use xlink:href="#DejaVuSans-74" x="591.023438"/>
     <use xlink:href="#DejaVuSans-69" x="630.232422"/>
     <use xlink:href="#DejaVuSans-61" x="658.015625"/>
     <use xlink:href="#DejaVuSans-6c" x="719.294922"/>
     <use xlink:href="#DejaVuSans-20" x="747.078125"/>
     <use xlink:href="#DejaVuSans-72" x="778.865234"/>
     <use xlink:href="#DejaVuSans-65" x="817.728516"/>
     <use xlink:href="#DejaVuSans-73" x="879.251953"/>
     <use xlink:href="#DejaVuSans-75" x="931.351562"/>
     <use xlink:href="#DejaVuSans-6c" x="994.730469"/>
     <use xlink:href="#DejaVuSans-74" x="1022.513672"/>
    </g>
   </g>
  </g>
  <g id="axes_5">
   <g id="patch_22">
    <path d="M 33.73 633.92 
L 997.2 633.92 
L 997.2 546.24 
L 33.73 546.24 
z
" style="fill: #ffffff"/>
   </g>
   <g id="matplotlib.axis_9">
    <g id="xtick_27">
     <g id="line2d_45">
      <g>
       <use xlink:href="#m73e70629c0" x="77.524091" y="633.92" style="stroke: #000000; stroke-width: 0.8"/>
      </g>
     </g>
     <g id="text_43">
      <!-- 0 -->
      <g transform="translate(74.342841 648.518437) scale(0.1 -0.1)">
       <use xlink:href="#DejaVuSans-30"/>
      </g>
     </g>
    </g>
    <g id="xtick_28">
     <g id="line2d_46">
      <g>
       <use xlink:href="#m73e70629c0" x="215.458236" y="633.92" style="stroke: #000000; stroke-width: 0.8"/>
      </g>
     </g>
     <g id="text_44">
      <!-- 200 -->
      <g transform="translate(205.914486 648.518437) scale(0.1 -0.1)">
       <use xlink:href="#DejaVuSans-32"/>
       <use xlink:href="#DejaVuSans-30" x="63.623047"/>
       <use xlink:href="#DejaVuSans-30" x="127.246094"/>
      </g>
     </g>
    </g>
    <g id="xtick_29">
     <g id="line2d_47">
      <g>
       <use xlink:href="#m73e70629c0" x="353.39238" y="633.92" style="stroke: #000000; stroke-width: 0.8"/>
      </g>
     </g>
     <g id="text_45">
      <!-- 400 -->
      <g transform="translate(343.84863 648.518437) scale(0.1 -0.1)">
       <use xlink:href="#DejaVuSans-34"/>
       <use xlink:href="#DejaVuSans-30" x="63.623047"/>
       <use xlink:href="#DejaVuSans-30" x="127.246094"/>
      </g>
     </g>
    </g>
    <g id="xtick_30">
     <g id="line2d_48">
      <g>
       <use xlink:href="#m73e70629c0" x="491.326525" y="633.92" style="stroke: #000000; stroke-width: 0.8"/>
      </g>
     </g>
     <g id="text_46">
      <!-- 600 -->
      <g transform="translate(481.782775 648.518437) scale(0.1 -0.1)">
       <use xlink:href="#DejaVuSans-36"/>
       <use xlink:href="#DejaVuSans-30" x="63.623047"/>
       <use xlink:href="#DejaVuSans-30" x="127.246094"/>
      </g>
     </g>
    </g>
    <g id="xtick_31">
     <g id="line2d_49">
      <g>
       <use xlink:href="#m73e70629c0" x="629.260669" y="633.92" style="stroke: #000000; stroke-width: 0.8"/>
      </g>
     </g>
     <g id="text_47">
      <!-- 800 -->
      <g transform="translate(619.716919 648.518437) scale(0.1 -0.1)">
       <use xlink:href="#DejaVuSans-38"/>
       <use xlink:href="#DejaVuSans-30" x="63.623047"/>
       <use xlink:href="#DejaVuSans-30" x="127.246094"/>
      </g>
     </g>
    </g>
    <g id="xtick_32">
     <g id="line2d_50">
      <g>
       <use xlink:href="#m73e70629c0" x="767.194814" y="633.92" style="stroke: #000000; stroke-width: 0.8"/>
      </g>
     </g>
     <g id="text_48">
      <!-- 1000 -->
      <g transform="translate(754.469814 648.518437) scale(0.1 -0.1)">
       <use xlink:href="#DejaVuSans-31"/>
       <use xlink:href="#DejaVuSans-30" x="63.623047"/>
       <use xlink:href="#DejaVuSans-30" x="127.246094"/>
       <use xlink:href="#DejaVuSans-30" x="190.869141"/>
      </g>
     </g>
    </g>
    <g id="xtick_33">
     <g id="line2d_51">
      <g>
       <use xlink:href="#m73e70629c0" x="905.128958" y="633.92" style="stroke: #000000; stroke-width: 0.8"/>
      </g>
     </g>
     <g id="text_49">
      <!-- 1200 -->
      <g transform="translate(892.403958 648.518437) scale(0.1 -0.1)">
       <use xlink:href="#DejaVuSans-31"/>
       <use xlink:href="#DejaVuSans-32" x="63.623047"/>
       <use xlink:href="#DejaVuSans-30" x="127.246094"/>
       <use xlink:href="#DejaVuSans-30" x="190.869141"/>
      </g>
     </g>
    </g>
   </g>
   <g id="matplotlib.axis_10">
    <g id="ytick_13">
     <g id="line2d_52">
      <g>
       <use xlink:href="#m67e085c070" x="33.73" y="629.934545" style="stroke: #000000; stroke-width: 0.8"/>
      </g>
     </g>
     <g id="text_50">
      <!-- 0.0 -->
      <g transform="translate(10.826875 633.733764) scale(0.1 -0.1)">
       <use xlink:href="#DejaVuSans-30"/>
       <use xlink:href="#DejaVuSans-2e" x="63.623047"/>
       <use xlink:href="#DejaVuSans-30" x="95.410156"/>
      </g>
     </g>
    </g>
    <g id="ytick_14">
     <g id="line2d_53">
      <g>
       <use xlink:href="#m67e085c070" x="33.73" y="590.274868" style="stroke: #000000; stroke-width: 0.8"/>
      </g>
     </g>
     <g id="text_51">
      <!-- 0.5 -->
      <g transform="translate(10.826875 594.074087) scale(0.1 -0.1)">
       <use xlink:href="#DejaVuSans-30"/>
       <use xlink:href="#DejaVuSans-2e" x="63.623047"/>
       <use xlink:href="#DejaVuSans-35" x="95.410156"/>
      </g>
     </g>
    </g>
    <g id="ytick_15">
     <g id="line2d_54">
      <g>
       <use xlink:href="#m67e085c070" x="33.73" y="550.615191" style="stroke: #000000; stroke-width: 0.8"/>
      </g>
     </g>
     <g id="text_52">
      <!-- 1.0 -->
      <g transform="translate(10.826875 554.41441) scale(0.1 -0.1)">
       <use xlink:href="#DejaVuSans-31"/>
       <use xlink:href="#DejaVuSans-2e" x="63.623047"/>
       <use xlink:href="#DejaVuSans-30" x="95.410156"/>
      </g>
     </g>
    </g>
   </g>
   <g id="line2d_55">
    <path d="M 77.524091 629.934545 
L 84.420798 629.372365 
L 91.317505 550.459124 
L 98.214213 629.708388 
L 105.11092 629.537649 
L 112.007627 628.931472 
L 118.904334 627.645467 
L 125.801042 550.225455 
L 132.697749 628.734923 
L 139.594456 628.498211 
L 146.491163 551.962449 
L 153.38787 625.769394 
L 160.284578 627.549517 
L 167.181285 628.177328 
L 174.077992 628.5119 
L 187.871407 628.874282 
L 208.561528 629.14435 
L 249.941772 629.392103 
L 325.805551 629.576417 
L 491.326525 629.714844 
L 905.128958 629.788246 
L 953.405909 629.788955 
L 953.405909 629.788955 
" clip-path="url(#pe35a6ea8ad)" style="fill: none; stroke: #000000; stroke-width: 1.5; stroke-linecap: square"/>
   </g>
   <g id="patch_23">
    <path d="M 33.73 633.92 
L 33.73 546.24 
" style="fill: none; stroke: #000000; stroke-width: 0.8; stroke-linejoin: miter; stroke-linecap: square"/>
   </g>
   <g id="patch_24">
    <path d="M 997.2 633.92 
L 997.2 546.24 
" style="fill: none; stroke: #000000; stroke-width: 0.8; stroke-linejoin: miter; stroke-linecap: square"/>
   </g>
   <g id="patch_25">
    <path d="M 33.73 633.92 
L 997.2 633.92 
" style="fill: none; stroke: #000000; stroke-width: 0.8; stroke-linejoin: miter; stroke-linecap: square"/>
   </g>
   <g id="patch_26">
    <path d="M 33.73 546.24 
L 997.2 546.24 
" style="fill: none; stroke: #000000; stroke-width: 0.8; stroke-linejoin: miter; stroke-linecap: square"/>
   </g>
   <g id="text_53">
    <!-- np.fft result -->
    <g transform="translate(480.5975 540.24) scale(0.12 -0.12)">
     <use xlink:href="#DejaVuSans-6e"/>
     <use xlink:href="#DejaVuSans-70" x="63.378906"/>
     <use xlink:href="#DejaVuSans-2e" x="126.855469"/>
     <use xlink:href="#DejaVuSans-66" x="158.642578"/>
     <use xlink:href="#DejaVuSans-66" x="193.847656"/>
     <use xlink:href="#DejaVuSans-74" x="227.302734"/>
     <use xlink:href="#DejaVuSans-20" x="266.511719"/>
     <use xlink:href="#DejaVuSans-72" x="298.298828"/>
     <use xlink:href="#DejaVuSans-65" x="337.162109"/>
     <use xlink:href="#DejaVuSans-73" x="398.685547"/>
     <use xlink:href="#DejaVuSans-75" x="450.785156"/>
     <use xlink:href="#DejaVuSans-6c" x="514.164062"/>
     <use xlink:href="#DejaVuSans-74" x="541.947266"/>
    </g>
   </g>
  </g>
  <g id="axes_6">
   <g id="patch_27">
    <path d="M 33.73 764.12 
L 997.2 764.12 
L 997.2 676.44 
L 33.73 676.44 
z
" style="fill: #ffffff"/>
   </g>
   <g id="matplotlib.axis_11">
    <g id="xtick_34">
     <g id="line2d_56">
      <g>
       <use xlink:href="#m73e70629c0" x="77.524091" y="764.12" style="stroke: #000000; stroke-width: 0.8"/>
      </g>
     </g>
     <g id="text_54">
      <!-- 0 -->
      <g transform="translate(74.342841 778.718437) scale(0.1 -0.1)">
       <use xlink:href="#DejaVuSans-30"/>
      </g>
     </g>
    </g>
    <g id="xtick_35">
     <g id="line2d_57">
      <g>
       <use xlink:href="#m73e70629c0" x="215.458236" y="764.12" style="stroke: #000000; stroke-width: 0.8"/>
      </g>
     </g>
     <g id="text_55">
      <!-- 200 -->
      <g transform="translate(205.914486 778.718437) scale(0.1 -0.1)">
       <use xlink:href="#DejaVuSans-32"/>
       <use xlink:href="#DejaVuSans-30" x="63.623047"/>
       <use xlink:href="#DejaVuSans-30" x="127.246094"/>
      </g>
     </g>
    </g>
    <g id="xtick_36">
     <g id="line2d_58">
      <g>
       <use xlink:href="#m73e70629c0" x="353.39238" y="764.12" style="stroke: #000000; stroke-width: 0.8"/>
      </g>
     </g>
     <g id="text_56">
      <!-- 400 -->
      <g transform="translate(343.84863 778.718437) scale(0.1 -0.1)">
       <use xlink:href="#DejaVuSans-34"/>
       <use xlink:href="#DejaVuSans-30" x="63.623047"/>
       <use xlink:href="#DejaVuSans-30" x="127.246094"/>
      </g>
     </g>
    </g>
    <g id="xtick_37">
     <g id="line2d_59">
      <g>
       <use xlink:href="#m73e70629c0" x="491.326525" y="764.12" style="stroke: #000000; stroke-width: 0.8"/>
      </g>
     </g>
     <g id="text_57">
      <!-- 600 -->
      <g transform="translate(481.782775 778.718437) scale(0.1 -0.1)">
       <use xlink:href="#DejaVuSans-36"/>
       <use xlink:href="#DejaVuSans-30" x="63.623047"/>
       <use xlink:href="#DejaVuSans-30" x="127.246094"/>
      </g>
     </g>
    </g>
    <g id="xtick_38">
     <g id="line2d_60">
      <g>
       <use xlink:href="#m73e70629c0" x="629.260669" y="764.12" style="stroke: #000000; stroke-width: 0.8"/>
      </g>
     </g>
     <g id="text_58">
      <!-- 800 -->
      <g transform="translate(619.716919 778.718437) scale(0.1 -0.1)">
       <use xlink:href="#DejaVuSans-38"/>
       <use xlink:href="#DejaVuSans-30" x="63.623047"/>
       <use xlink:href="#DejaVuSans-30" x="127.246094"/>
      </g>
     </g>
    </g>
    <g id="xtick_39">
     <g id="line2d_61">
      <g>
       <use xlink:href="#m73e70629c0" x="767.194814" y="764.12" style="stroke: #000000; stroke-width: 0.8"/>
      </g>
     </g>
     <g id="text_59">
      <!-- 1000 -->
      <g transform="translate(754.469814 778.718437) scale(0.1 -0.1)">
       <use xlink:href="#DejaVuSans-31"/>
       <use xlink:href="#DejaVuSans-30" x="63.623047"/>
       <use xlink:href="#DejaVuSans-30" x="127.246094"/>
       <use xlink:href="#DejaVuSans-30" x="190.869141"/>
      </g>
     </g>
    </g>
    <g id="xtick_40">
     <g id="line2d_62">
      <g>
       <use xlink:href="#m73e70629c0" x="905.128958" y="764.12" style="stroke: #000000; stroke-width: 0.8"/>
      </g>
     </g>
     <g id="text_60">
      <!-- 1200 -->
      <g transform="translate(892.403958 778.718437) scale(0.1 -0.1)">
       <use xlink:href="#DejaVuSans-31"/>
       <use xlink:href="#DejaVuSans-32" x="63.623047"/>
       <use xlink:href="#DejaVuSans-30" x="127.246094"/>
       <use xlink:href="#DejaVuSans-30" x="190.869141"/>
      </g>
     </g>
    </g>
   </g>
   <g id="matplotlib.axis_12">
    <g id="ytick_16">
     <g id="line2d_63">
      <g>
       <use xlink:href="#m67e085c070" x="33.73" y="760.134545" style="stroke: #000000; stroke-width: 0.8"/>
      </g>
     </g>
     <g id="text_61">
      <!-- 0.0 -->
      <g transform="translate(10.826875 763.933764) scale(0.1 -0.1)">
       <use xlink:href="#DejaVuSans-30"/>
       <use xlink:href="#DejaVuSans-2e" x="63.623047"/>
       <use xlink:href="#DejaVuSans-30" x="95.410156"/>
      </g>
     </g>
    </g>
    <g id="ytick_17">
     <g id="line2d_64">
      <g>
       <use xlink:href="#m67e085c070" x="33.73" y="720.474868" style="stroke: #000000; stroke-width: 0.8"/>
      </g>
     </g>
     <g id="text_62">
      <!-- 0.5 -->
      <g transform="translate(10.826875 724.274087) scale(0.1 -0.1)">
       <use xlink:href="#DejaVuSans-30"/>
       <use xlink:href="#DejaVuSans-2e" x="63.623047"/>
       <use xlink:href="#DejaVuSans-35" x="95.410156"/>
      </g>
     </g>
    </g>
    <g id="ytick_18">
     <g id="line2d_65">
      <g>
       <use xlink:href="#m67e085c070" x="33.73" y="680.815191" style="stroke: #000000; stroke-width: 0.8"/>
      </g>
     </g>
     <g id="text_63">
      <!-- 1.0 -->
      <g transform="translate(10.826875 684.61441) scale(0.1 -0.1)">
       <use xlink:href="#DejaVuSans-31"/>
       <use xlink:href="#DejaVuSans-2e" x="63.623047"/>
       <use xlink:href="#DejaVuSans-30" x="95.410156"/>
      </g>
     </g>
    </g>
   </g>
   <g id="line2d_66">
    <path d="M 77.524091 760.134545 
L 84.420798 759.572365 
L 91.317505 680.659124 
L 98.214213 759.908388 
L 105.11092 759.737649 
L 112.007627 759.131472 
L 118.904334 757.845467 
L 125.801042 680.425455 
L 132.697749 758.934923 
L 139.594456 758.698211 
L 146.491163 682.162449 
L 153.38787 755.969394 
L 160.284578 757.749517 
L 167.181285 758.377328 
L 174.077992 758.7119 
L 187.871407 759.074282 
L 208.561528 759.34435 
L 249.941772 759.592103 
L 325.805551 759.776417 
L 491.326525 759.914844 
L 905.128958 759.988246 
L 953.405909 759.988955 
L 953.405909 759.988955 
" clip-path="url(#p0b0fe1797a)" style="fill: none; stroke: #800080; stroke-width: 1.5; stroke-linecap: square"/>
   </g>
   <g id="patch_28">
    <path d="M 33.73 764.12 
L 33.73 676.44 
" style="fill: none; stroke: #000000; stroke-width: 0.8; stroke-linejoin: miter; stroke-linecap: square"/>
   </g>
   <g id="patch_29">
    <path d="M 997.2 764.12 
L 997.2 676.44 
" style="fill: none; stroke: #000000; stroke-width: 0.8; stroke-linejoin: miter; stroke-linecap: square"/>
   </g>
   <g id="patch_30">
    <path d="M 33.73 764.12 
L 997.2 764.12 
" style="fill: none; stroke: #000000; stroke-width: 0.8; stroke-linejoin: miter; stroke-linecap: square"/>
   </g>
   <g id="patch_31">
    <path d="M 33.73 676.44 
L 997.2 676.44 
" style="fill: none; stroke: #000000; stroke-width: 0.8; stroke-linejoin: miter; stroke-linecap: square"/>
   </g>
   <g id="text_64">
    <!-- my fft implementation result -->
    <g transform="translate(429.366875 670.44) scale(0.12 -0.12)">
     <defs>
      <path id="DejaVuSans-79" d="M 2059 -325 
Q 1816 -950 1584 -1140 
Q 1353 -1331 966 -1331 
L 506 -1331 
L 506 -850 
L 844 -850 
Q 1081 -850 1212 -737 
Q 1344 -625 1503 -206 
L 1606 56 
L 191 3500 
L 800 3500 
L 1894 763 
L 2988 3500 
L 3597 3500 
L 2059 -325 
z
" transform="scale(0.015625)"/>
     </defs>
     <use xlink:href="#DejaVuSans-6d"/>
     <use xlink:href="#DejaVuSans-79" x="97.412109"/>
     <use xlink:href="#DejaVuSans-20" x="156.591797"/>
     <use xlink:href="#DejaVuSans-66" x="188.378906"/>
     <use xlink:href="#DejaVuSans-66" x="223.583984"/>
     <use xlink:href="#DejaVuSans-74" x="257.039062"/>
     <use xlink:href="#DejaVuSans-20" x="296.248047"/>
     <use xlink:href="#DejaVuSans-69" x="328.035156"/>
     <use xlink:href="#DejaVuSans-6d" x="355.818359"/>
     <use xlink:href="#DejaVuSans-70" x="453.230469"/>
     <use xlink:href="#DejaVuSans-6c" x="516.707031"/>
     <use xlink:href="#DejaVuSans-65" x="544.490234"/>
     <use xlink:href="#DejaVuSans-6d" x="606.013672"/>
     <use xlink:href="#DejaVuSans-65" x="703.425781"/>
     <use xlink:href="#DejaVuSans-6e" x="764.949219"/>
     <use xlink:href="#DejaVuSans-74" x="828.328125"/>
     <use xlink:href="#DejaVuSans-61" x="867.537109"/>
     <use xlink:href="#DejaVuSans-74" x="928.816406"/>
     <use xlink:href="#DejaVuSans-69" x="968.025391"/>
     <use xlink:href="#DejaVuSans-6f" x="995.808594"/>
     <use xlink:href="#DejaVuSans-6e" x="1056.990234"/>
     <use xlink:href="#DejaVuSans-20" x="1120.369141"/>
     <use xlink:href="#DejaVuSans-72" x="1152.15625"/>
     <use xlink:href="#DejaVuSans-65" x="1191.019531"/>
     <use xlink:href="#DejaVuSans-73" x="1252.542969"/>
     <use xlink:href="#DejaVuSans-75" x="1304.642578"/>
     <use xlink:href="#DejaVuSans-6c" x="1368.021484"/>
     <use xlink:href="#DejaVuSans-74" x="1395.804688"/>
    </g>
   </g>
  </g>
 </g>
 <defs>
  <clipPath id="pcd33ae3c3c">
   <rect x="33.73" y="25.44" width="963.47" height="87.68"/>
  </clipPath>
  <clipPath id="p3a265bdc02">
   <rect x="33.73" y="155.64" width="963.47" height="87.68"/>
  </clipPath>
  <clipPath id="p06720b750a">
   <rect x="33.73" y="285.84" width="963.47" height="87.68"/>
  </clipPath>
  <clipPath id="p2e11b3ad5d">
   <rect x="33.73" y="416.04" width="963.47" height="87.68"/>
  </clipPath>
  <clipPath id="pe35a6ea8ad">
   <rect x="33.73" y="546.24" width="963.47" height="87.68"/>
  </clipPath>
  <clipPath id="p0b0fe1797a">
   <rect x="33.73" y="676.44" width="963.47" height="87.68"/>
  </clipPath>
 </defs>
</svg>
