<?xml version="1.0" encoding="utf-8" standalone="no"?>
<!DOCTYPE svg PUBLIC "-//W3C//DTD SVG 1.1//EN"
  "http://www.w3.org/Graphics/SVG/1.1/DTD/svg11.dtd">
<svg xmlns:xlink="http://www.w3.org/1999/xlink" width="460.8pt" height="345.6pt" viewBox="0 0 460.8 345.6" xmlns="http://www.w3.org/2000/svg" version="1.1">
 <metadata>
  <rdf:RDF xmlns:dc="http://purl.org/dc/elements/1.1/" xmlns:cc="http://creativecommons.org/ns#" xmlns:rdf="http://www.w3.org/1999/02/22-rdf-syntax-ns#">
   <cc:Work>
    <dc:type rdf:resource="http://purl.org/dc/dcmitype/StillImage"/>
    <dc:date>2025-11-01T01:25:28.733673</dc:date>
    <dc:format>image/svg+xml</dc:format>
    <dc:creator>
     <cc:Agent>
      <dc:title>Matplotlib v3.6.3, https://matplotlib.org/</dc:title>
     </cc:Agent>
    </dc:creator>
   </cc:Work>
  </rdf:RDF>
 </metadata>
 <defs>
  <style type="text/css">*{stroke-linejoin: round; stroke-linecap: butt}</style>
 </defs>
 <g id="figure_1">
  <g id="patch_1">
   <path d="M 0 345.6 
L 460.8 345.6 
L 460.8 0 
L 0 0 
z
" style="fill: #ffffff"/>
  </g>
  <g id="axes_1">
   <g id="patch_2">
    <path d="M 32.56 112.76 
L 450 112.76 
L 450 52.8 
L 32.56 52.8 
z
" style="fill: #ffffff"/>
   </g>
   <g id="matplotlib.axis_1">
    <g id="xtick_1">
     <g id="line2d_1">
      <defs>
       <path id="m2dac4a7ccb" d="M 0 0 
L 0 3.5 
" style="stroke: #000000; stroke-width: 0.8"/>
      </defs>
      <g>
       <use xlink:href="#m2dac4a7ccb" x="51.534545" y="112.76" style="stroke: #000000; stroke-width: 0.8"/>
      </g>
     </g>
     <g id="text_1">
      <!-- 0.00 -->
      <g transform="translate(40.401733 127.358437) scale(0.1 -0.1)">
       <defs>
        <path id="DejaVuSans-30" d="M 2034 4250 
Q 1547 4250 1301 3770 
Q 1056 3291 1056 2328 
Q 1056 1369 1301 889 
Q 1547 409 2034 409 
Q 2525 409 2770 889 
Q 3016 1369 3016 2328 
Q 3016 3291 2770 3770 
Q 2525 4250 2034 4250 
z
M 2034 4750 
Q 2819 4750 3233 4129 
Q 3647 3509 3647 2328 
Q 3647 1150 3233 529 
Q 2819 -91 2034 -91 
Q 1250 -91 836 529 
Q 422 1150 422 2328 
Q 422 3509 836 4129 
Q 1250 4750 2034 4750 
z
" transform="scale(0.015625)"/>
        <path id="DejaVuSans-2e" d="M 684 794 
L 1344 794 
L 1344 0 
L 684 0 
L 684 794 
z
" transform="scale(0.015625)"/>
       </defs>
       <use xlink:href="#DejaVuSans-30"/>
       <use xlink:href="#DejaVuSans-2e" x="63.623047"/>
       <use xlink:href="#DejaVuSans-30" x="95.410156"/>
       <use xlink:href="#DejaVuSans-30" x="159.033203"/>
      </g>
     </g>
    </g>
    <g id="xtick_2">
     <g id="line2d_2">
      <g>
       <use xlink:href="#m2dac4a7ccb" x="102.133333" y="112.76" style="stroke: #000000; stroke-width: 0.8"/>
      </g>
     </g>
     <g id="text_2">
      <!-- 0.01 -->
      <g transform="translate(91.000521 127.358437) scale(0.1 -0.1)">
       <defs>
        <path id="DejaVuSans-31" d="M 794 531 
L 1825 531 
L 1825 4091 
L 703 3866 
L 703 4441 
L 1819 4666 
L 2450 4666 
L 2450 531 
L 3481 531 
L 3481 0 
L 794 0 
L 794 531 
z
" transform="scale(0.015625)"/>
       </defs>
       <use xlink:href="#DejaVuSans-30"/>
       <use xlink:href="#DejaVuSans-2e" x="63.623047"/>
       <use xlink:href="#DejaVuSans-30" x="95.410156"/>
       <use xlink:href="#DejaVuSans-31" x="159.033203"/>
      </g>
     </g>
    </g>
    <g id="xtick_3">
     <g id="line2d_3">
      <g>
       <use xlink:href="#m2dac4a7ccb" x="152.732121" y="112.76" style="stroke: #000000; stroke-width: 0.8"/>
      </g>
     </g>
     <g id="text_3">
      <!-- 0.02 -->
      <g transform="translate(141.599309 127.358437) scale(0.1 -0.1)">
       <defs>
        <path id="DejaVuSans-32" d="M 1228 531 
L 3431 531 
L 3431 0 
L 469 0 
L 469 531 
Q 828 903 1448 1529 
Q 2069 2156 2228 2338 
Q 2531 2678 2651 2914 
Q 2772 3150 2772 3378 
Q 2772 3750 2511 3984 
Q 2250 4219 1831 4219 
Q 1534 4219 1204 4116 
Q 875 4013 500 3803 
L 500 4441 
Q 881 4594 1212 4672 
Q 1544 4750 1819 4750 
Q 2544 4750 2975 4387 
Q 3406 4025 3406 3419 
Q 3406 3131 3298 2873 
Q 3191 2616 2906 2266 
Q 2828 2175 2409 1742 
Q 1991 1309 1228 531 
z
" transform="scale(0.015625)"/>
       </defs>
       <use xlink:href="#DejaVuSans-30"/>
       <use xlink:href="#DejaVuSans-2e" x="63.623047"/>
       <use xlink:href="#DejaVuSans-30" x="95.410156"/>
       <use xlink:href="#DejaVuSans-32" x="159.033203"/>
      </g>
     </g>
    </g>
    <g id="xtick_4">
     <g id="line2d_4">
      <g>
       <use xlink:href="#m2dac4a7ccb" x="203.330909" y="112.76" style="stroke: #000000; stroke-width: 0.8"/>
      </g>
     </g>
     <g id="text_4">
      <!-- 0.03 -->
      <g transform="translate(192.198097 127.358437) scale(0.1 -0.1)">
       <defs>
        <path id="DejaVuSans-33" d="M 2597 2516 
Q 3050 2419 3304 2112 
Q 3559 1806 3559 1356 
Q 3559 666 3084 287 
Q 2609 -91 1734 -91 
Q 1441 -91 1130 -33 
Q 819 25 488 141 
L 488 750 
Q 750 597 1062 519 
Q 1375 441 1716 441 
Q 2309 441 2620 675 
Q 2931 909 2931 1356 
Q 2931 1769 2642 2001 
Q 2353 2234 1838 2234 
L 1294 2234 
L 1294 2753 
L 1863 2753 
Q 2328 2753 2575 2939 
Q 2822 3125 2822 3475 
Q 2822 3834 2567 4026 
Q 2313 4219 1838 4219 
Q 1578 4219 1281 4162 
Q 984 4106 628 3988 
L 628 4550 
Q 988 4650 1302 4700 
Q 1616 4750 1894 4750 
Q 2613 4750 3031 4423 
Q 3450 4097 3450 3541 
Q 3450 3153 3228 2886 
Q 3006 2619 2597 2516 
z
" transform="scale(0.015625)"/>
       </defs>
       <use xlink:href="#DejaVuSans-30"/>
       <use xlink:href="#DejaVuSans-2e" x="63.623047"/>
       <use xlink:href="#DejaVuSans-30" x="95.410156"/>
       <use xlink:href="#DejaVuSans-33" x="159.033203"/>
      </g>
     </g>
    </g>
    <g id="xtick_5">
     <g id="line2d_5">
      <g>
       <use xlink:href="#m2dac4a7ccb" x="253.929697" y="112.76" style="stroke: #000000; stroke-width: 0.8"/>
      </g>
     </g>
     <g id="text_5">
      <!-- 0.04 -->
      <g transform="translate(242.796884 127.358437) scale(0.1 -0.1)">
       <defs>
        <path id="DejaVuSans-34" d="M 2419 4116 
L 825 1625 
L 2419 1625 
L 2419 4116 
z
M 2253 4666 
L 3047 4666 
L 3047 1625 
L 3713 1625 
L 3713 1100 
L 3047 1100 
L 3047 0 
L 2419 0 
L 2419 1100 
L 313 1100 
L 313 1709 
L 2253 4666 
z
" transform="scale(0.015625)"/>
       </defs>
       <use xlink:href="#DejaVuSans-30"/>
       <use xlink:href="#DejaVuSans-2e" x="63.623047"/>
       <use xlink:href="#DejaVuSans-30" x="95.410156"/>
       <use xlink:href="#DejaVuSans-34" x="159.033203"/>
      </g>
     </g>
    </g>
    <g id="xtick_6">
     <g id="line2d_6">
      <g>
       <use xlink:href="#m2dac4a7ccb" x="304.528485" y="112.76" style="stroke: #000000; stroke-width: 0.8"/>
      </g>
     </g>
     <g id="text_6">
      <!-- 0.05 -->
      <g transform="translate(293.395672 127.358437) scale(0.1 -0.1)">
       <defs>
        <path id="DejaVuSans-35" d="M 691 4666 
L 3169 4666 
L 3169 4134 
L 1269 4134 
L 1269 2991 
Q 1406 3038 1543 3061 
Q 1681 3084 1819 3084 
Q 2600 3084 3056 2656 
Q 3513 2228 3513 1497 
Q 3513 744 3044 326 
Q 2575 -91 1722 -91 
Q 1428 -91 1123 -41 
Q 819 9 494 109 
L 494 744 
Q 775 591 1075 516 
Q 1375 441 1709 441 
Q 2250 441 2565 725 
Q 2881 1009 2881 1497 
Q 2881 1984 2565 2268 
Q 2250 2553 1709 2553 
Q 1456 2553 1204 2497 
Q 953 2441 691 2322 
L 691 4666 
z
" transform="scale(0.015625)"/>
       </defs>
       <use xlink:href="#DejaVuSans-30"/>
       <use xlink:href="#DejaVuSans-2e" x="63.623047"/>
       <use xlink:href="#DejaVuSans-30" x="95.410156"/>
       <use xlink:href="#DejaVuSans-35" x="159.033203"/>
      </g>
     </g>
    </g>
    <g id="xtick_7">
     <g id="line2d_7">
      <g>
       <use xlink:href="#m2dac4a7ccb" x="355.127273" y="112.76" style="stroke: #000000; stroke-width: 0.8"/>
      </g>
     </g>
     <g id="text_7">
      <!-- 0.06 -->
      <g transform="translate(343.99446 127.358437) scale(0.1 -0.1)">
       <defs>
        <path id="DejaVuSans-36" d="M 2113 2584 
Q 1688 2584 1439 2293 
Q 1191 2003 1191 1497 
Q 1191 994 1439 701 
Q 1688 409 2113 409 
Q 2538 409 2786 701 
Q 3034 994 3034 1497 
Q 3034 2003 2786 2293 
Q 2538 2584 2113 2584 
z
M 3366 4563 
L 3366 3988 
Q 3128 4100 2886 4159 
Q 2644 4219 2406 4219 
Q 1781 4219 1451 3797 
Q 1122 3375 1075 2522 
Q 1259 2794 1537 2939 
Q 1816 3084 2150 3084 
Q 2853 3084 3261 2657 
Q 3669 2231 3669 1497 
Q 3669 778 3244 343 
Q 2819 -91 2113 -91 
Q 1303 -91 875 529 
Q 447 1150 447 2328 
Q 447 3434 972 4092 
Q 1497 4750 2381 4750 
Q 2619 4750 2861 4703 
Q 3103 4656 3366 4563 
z
" transform="scale(0.015625)"/>
       </defs>
       <use xlink:href="#DejaVuSans-30"/>
       <use xlink:href="#DejaVuSans-2e" x="63.623047"/>
       <use xlink:href="#DejaVuSans-30" x="95.410156"/>
       <use xlink:href="#DejaVuSans-36" x="159.033203"/>
      </g>
     </g>
    </g>
    <g id="xtick_8">
     <g id="line2d_8">
      <g>
       <use xlink:href="#m2dac4a7ccb" x="405.726061" y="112.76" style="stroke: #000000; stroke-width: 0.8"/>
      </g>
     </g>
     <g id="text_8">
      <!-- 0.07 -->
      <g transform="translate(394.593248 127.358437) scale(0.1 -0.1)">
       <defs>
        <path id="DejaVuSans-37" d="M 525 4666 
L 3525 4666 
L 3525 4397 
L 1831 0 
L 1172 0 
L 2766 4134 
L 525 4134 
L 525 4666 
z
" transform="scale(0.015625)"/>
       </defs>
       <use xlink:href="#DejaVuSans-30"/>
       <use xlink:href="#DejaVuSans-2e" x="63.623047"/>
       <use xlink:href="#DejaVuSans-30" x="95.410156"/>
       <use xlink:href="#DejaVuSans-37" x="159.033203"/>
      </g>
     </g>
    </g>
   </g>
   <g id="matplotlib.axis_2">
    <g id="ytick_1">
     <g id="line2d_9">
      <defs>
       <path id="m99cd08aeb6" d="M 0 0 
L -3.5 0 
" style="stroke: #000000; stroke-width: 0.8"/>
      </defs>
      <g>
       <use xlink:href="#m99cd08aeb6" x="32.56" y="110.034545" style="stroke: #000000; stroke-width: 0.8"/>
      </g>
     </g>
     <g id="text_9">
      <!-- −2 -->
      <g transform="translate(10.817813 113.833764) scale(0.1 -0.1)">
       <defs>
        <path id="DejaVuSans-2212" d="M 678 2272 
L 4684 2272 
L 4684 1741 
L 678 1741 
L 678 2272 
z
" transform="scale(0.015625)"/>
       </defs>
       <use xlink:href="#DejaVuSans-2212"/>
       <use xlink:href="#DejaVuSans-32" x="83.789062"/>
      </g>
     </g>
    </g>
    <g id="ytick_2">
     <g id="line2d_10">
      <g>
       <use xlink:href="#m99cd08aeb6" x="32.56" y="82.778635" style="stroke: #000000; stroke-width: 0.8"/>
      </g>
     </g>
     <g id="text_10">
      <!-- 0 -->
      <g transform="translate(19.1975 86.577854) scale(0.1 -0.1)">
       <use xlink:href="#DejaVuSans-30"/>
      </g>
     </g>
    </g>
    <g id="ytick_3">
     <g id="line2d_11">
      <g>
       <use xlink:href="#m99cd08aeb6" x="32.56" y="55.522725" style="stroke: #000000; stroke-width: 0.8"/>
      </g>
     </g>
     <g id="text_11">
      <!-- 2 -->
      <g transform="translate(19.1975 59.321944) scale(0.1 -0.1)">
       <use xlink:href="#DejaVuSans-32"/>
      </g>
     </g>
    </g>
   </g>
   <g id="line2d_12">
    <path d="M 51.534545 59.174325 
L 52.294287 56.717441 
L 52.674158 55.982649 
L 53.054029 55.590925 
L 53.433899 55.547284 
L 53.81377 55.852284 
L 54.193641 56.502021 
L 54.573512 57.488176 
L 55.333253 60.415091 
L 56.092995 64.483618 
L 57.232607 72.259229 
L 61.031315 101.073653 
L 61.791057 105.14218 
L 62.550798 108.069095 
L 62.930669 109.05525 
L 63.31054 109.704987 
L 63.69041 110.009987 
L 64.070281 109.966346 
L 64.450152 109.574622 
L 64.830023 108.83983 
L 65.589764 106.382946 
L 66.349506 102.721112 
L 67.489118 95.392516 
L 69.008601 83.549947 
L 70.907955 68.818024 
L 72.047568 61.816987 
L 72.807309 58.441129 
L 73.567051 56.307648 
L 73.946921 55.743486 
L 74.326792 55.525455 
L 74.706663 55.656344 
L 75.086534 56.134478 
L 75.466405 56.953736 
L 76.226146 59.569434 
L 76.985888 63.369912 
L 78.1255 70.853548 
L 80.024854 85.857705 
L 81.544337 97.396107 
L 82.683949 104.224885 
L 83.443691 107.453642 
L 84.203433 109.422793 
L 84.583303 109.900927 
L 84.963174 110.031816 
L 85.343045 109.813784 
L 85.722916 109.249623 
L 86.102786 108.346555 
L 86.862528 105.574138 
L 87.62227 101.638059 
L 88.761882 94.005379 
L 91.041107 75.910744 
L 92.180719 67.516013 
L 93.320331 60.864962 
L 94.080073 57.785893 
L 94.459944 56.717441 
L 94.839814 55.982649 
L 95.219685 55.590925 
L 95.599556 55.547284 
L 95.979427 55.852284 
L 96.359297 56.502021 
L 96.739168 57.488176 
L 97.49891 60.415091 
L 98.258651 64.483618 
L 99.398264 72.259229 
L 103.196972 101.073653 
L 103.956713 105.14218 
L 104.716455 108.069095 
L 105.096325 109.05525 
L 105.476196 109.704987 
L 105.856067 110.009987 
L 106.235938 109.966346 
L 106.615809 109.574622 
L 106.995679 108.83983 
L 107.755421 106.382946 
L 108.515162 102.721112 
L 109.654775 95.392516 
L 111.174258 83.549947 
L 113.073612 68.818024 
L 114.213224 61.816987 
L 114.972966 58.441129 
L 115.732707 56.307648 
L 116.112578 55.743486 
L 116.492449 55.525455 
L 116.87232 55.656344 
L 117.25219 56.134478 
L 117.632061 56.953736 
L 118.391803 59.569434 
L 119.151544 63.369912 
L 120.291157 70.853548 
L 122.190511 85.857705 
L 123.709994 97.396107 
L 124.849606 104.224885 
L 125.609348 107.453642 
L 126.369089 109.422793 
L 126.74896 109.900927 
L 127.128831 110.031816 
L 127.508701 109.813784 
L 127.888572 109.249623 
L 128.268443 108.346555 
L 129.028185 105.574138 
L 129.787926 101.638059 
L 130.927538 94.005379 
L 133.206763 75.910744 
L 134.346375 67.516013 
L 135.485988 60.864962 
L 136.245729 57.785893 
L 136.6256 56.717441 
L 137.005471 55.982649 
L 137.385342 55.590925 
L 137.765212 55.547284 
L 138.145083 55.852284 
L 138.524954 56.502021 
L 138.904825 57.488176 
L 139.664566 60.415091 
L 140.424308 64.483618 
L 141.56392 72.259229 
L 145.362628 101.073653 
L 146.12237 105.14218 
L 146.882111 108.069095 
L 147.261982 109.05525 
L 147.641853 109.704987 
L 148.021724 110.009987 
L 148.401594 109.966346 
L 148.781465 109.574622 
L 149.161336 108.83983 
L 149.921077 106.382946 
L 150.680819 102.721112 
L 151.820431 95.392516 
L 153.339914 83.549947 
L 155.239268 68.818024 
L 156.378881 61.816987 
L 157.138622 58.441129 
L 157.898364 56.307648 
L 158.278235 55.743486 
L 158.658105 55.525455 
L 159.037976 55.656344 
L 159.417847 56.134478 
L 159.797718 56.953736 
L 160.557459 59.569434 
L 161.317201 63.369912 
L 162.456813 70.853548 
L 164.356167 85.857705 
L 165.87565 97.396107 
L 167.015263 104.224885 
L 167.775004 107.453642 
L 168.534746 109.422793 
L 168.914616 109.900927 
L 169.294487 110.031816 
L 169.674358 109.813784 
L 170.054229 109.249623 
L 170.4341 108.346555 
L 171.193841 105.574138 
L 171.953583 101.638059 
L 173.093195 94.005379 
L 175.37242 75.910744 
L 176.512032 67.516013 
L 177.651644 60.864962 
L 178.411386 57.785893 
L 178.791257 56.717441 
L 179.171127 55.982649 
L 179.550998 55.590925 
L 179.930869 55.547284 
L 180.31074 55.852284 
L 180.690611 56.502021 
L 181.070481 57.488176 
L 181.830223 60.415091 
L 182.589965 64.483618 
L 183.729577 72.259229 
L 187.528285 101.073653 
L 188.288026 105.14218 
L 189.047768 108.069095 
L 189.427639 109.05525 
L 189.807509 109.704987 
L 190.18738 110.009987 
L 190.567251 109.966346 
L 190.947122 109.574622 
L 191.326992 108.83983 
L 192.086734 106.382946 
L 192.846476 102.721112 
L 193.986088 95.392516 
L 195.505571 83.549947 
L 197.404925 68.818024 
L 198.544537 61.816987 
L 199.304279 58.441129 
L 200.06402 56.307648 
L 200.443891 55.743486 
L 200.823762 55.525455 
L 201.203633 55.656344 
L 201.583504 56.134478 
L 201.963374 56.953736 
L 202.723116 59.569434 
L 203.482857 63.369912 
L 204.62247 70.853548 
L 206.521824 85.857705 
L 208.041307 97.396107 
L 209.180919 104.224885 
L 209.940661 107.453642 
L 210.700402 109.422793 
L 211.080273 109.900927 
L 211.460144 110.031816 
L 211.840015 109.813784 
L 212.219885 109.249623 
L 212.599756 108.346555 
L 213.359498 105.574138 
L 214.119239 101.638059 
L 215.258852 94.005379 
L 217.538076 75.910744 
L 218.677689 67.516013 
L 219.817301 60.864962 
L 220.577042 57.785893 
L 220.956913 56.717441 
L 221.336784 55.982649 
L 221.716655 55.590925 
L 222.096526 55.547284 
L 222.476396 55.852284 
L 222.856267 56.502021 
L 223.236138 57.488176 
L 223.99588 60.415091 
L 224.755621 64.483618 
L 225.895233 72.259229 
L 229.693941 101.073653 
L 230.453683 105.14218 
L 231.213424 108.069095 
L 231.593295 109.05525 
L 231.973166 109.704987 
L 232.353037 110.009987 
L 232.732907 109.966346 
L 233.112778 109.574622 
L 233.492649 108.83983 
L 234.252391 106.382946 
L 235.012132 102.721112 
L 236.151744 95.392516 
L 237.671228 83.549947 
L 239.570581 68.818024 
L 240.710194 61.816987 
L 241.469935 58.441129 
L 242.229677 56.307648 
L 242.609548 55.743486 
L 242.989419 55.525455 
L 243.369289 55.656344 
L 243.74916 56.134478 
L 244.129031 56.953736 
L 244.888772 59.569434 
L 245.648514 63.369912 
L 246.788126 70.853548 
L 248.68748 85.857705 
L 250.206963 97.396107 
L 251.346576 104.224885 
L 252.106317 107.453642 
L 252.866059 109.422793 
L 253.24593 109.900927 
L 253.6258 110.031816 
L 254.005671 109.813784 
L 254.385542 109.249623 
L 254.765413 108.346555 
L 255.525154 105.574138 
L 256.284896 101.638059 
L 257.424508 94.005379 
L 259.703733 75.910744 
L 260.843345 67.516013 
L 261.982958 60.864962 
L 262.742699 57.785893 
L 263.12257 56.717441 
L 263.502441 55.982649 
L 263.882311 55.590925 
L 264.262182 55.547284 
L 264.642053 55.852284 
L 265.021924 56.502021 
L 265.401795 57.488176 
L 266.161536 60.415091 
L 266.921278 64.483618 
L 268.06089 72.259229 
L 271.859598 101.073653 
L 272.619339 105.14218 
L 273.379081 108.069095 
L 273.758952 109.05525 
L 274.138822 109.704987 
L 274.518693 110.009987 
L 274.898564 109.966346 
L 275.278435 109.574622 
L 275.658306 108.83983 
L 276.418047 106.382946 
L 277.177789 102.721112 
L 278.317401 95.392516 
L 279.836884 83.549947 
L 281.736238 68.818024 
L 282.87585 61.816987 
L 283.635592 58.441129 
L 284.395334 56.307648 
L 284.775204 55.743486 
L 285.155075 55.525455 
L 285.534946 55.656344 
L 285.914817 56.134478 
L 286.294687 56.953736 
L 287.054429 59.569434 
L 287.814171 63.369912 
L 288.953783 70.853548 
L 290.853137 85.857705 
L 292.37262 97.396107 
L 293.512232 104.224885 
L 294.271974 107.453642 
L 295.031715 109.422793 
L 295.411586 109.900927 
L 295.791457 110.031816 
L 296.171328 109.813784 
L 296.551198 109.249623 
L 296.931069 108.346555 
L 297.690811 105.574138 
L 298.450552 101.638059 
L 299.590165 94.005379 
L 301.869389 75.910744 
L 303.009002 67.516013 
L 304.148614 60.864962 
L 304.908356 57.785893 
L 305.288226 56.717441 
L 305.668097 55.982649 
L 306.047968 55.590925 
L 306.427839 55.547284 
L 306.80771 55.852284 
L 307.18758 56.502021 
L 307.567451 57.488176 
L 308.327193 60.415091 
L 309.086934 64.483618 
L 310.226547 72.259229 
L 314.025254 101.073653 
L 314.784996 105.14218 
L 315.544737 108.069095 
L 315.924608 109.05525 
L 316.304479 109.704987 
L 316.68435 110.009987 
L 317.064221 109.966346 
L 317.444091 109.574622 
L 317.823962 108.83983 
L 318.583704 106.382946 
L 319.343445 102.721112 
L 320.483058 95.392516 
L 322.002541 83.549947 
L 323.901895 68.818024 
L 325.041507 61.816987 
L 325.801249 58.441129 
L 326.56099 56.307648 
L 326.940861 55.743486 
L 327.320732 55.525455 
L 327.700602 55.656344 
L 328.080473 56.134478 
L 328.460344 56.953736 
L 329.220086 59.569434 
L 329.979827 63.369912 
L 331.119439 70.853548 
L 333.018793 85.857705 
L 334.538276 97.396107 
L 335.677889 104.224885 
L 336.43763 107.453642 
L 337.197372 109.422793 
L 337.577243 109.900927 
L 337.957113 110.031816 
L 338.336984 109.813784 
L 338.716855 109.249623 
L 339.096726 108.346555 
L 339.856467 105.574138 
L 340.616209 101.638059 
L 341.755821 94.005379 
L 344.035046 75.910744 
L 345.174658 67.516013 
L 346.314271 60.864962 
L 347.074012 57.785893 
L 347.453883 56.717441 
L 347.833754 55.982649 
L 348.213625 55.590925 
L 348.593495 55.547284 
L 348.973366 55.852284 
L 349.353237 56.502021 
L 349.733108 57.488176 
L 350.492849 60.415091 
L 351.252591 64.483618 
L 352.392203 72.259229 
L 356.190911 101.073653 
L 356.950652 105.14218 
L 357.710394 108.069095 
L 358.090265 109.05525 
L 358.470136 109.704987 
L 358.850006 110.009987 
L 359.229877 109.966346 
L 359.609748 109.574622 
L 359.989619 108.83983 
L 360.74936 106.382946 
L 361.509102 102.721112 
L 362.648714 95.392516 
L 364.168197 83.549947 
L 366.067551 68.818024 
L 367.207164 61.816987 
L 367.966905 58.441129 
L 368.726647 56.307648 
L 369.106517 55.743486 
L 369.486388 55.525455 
L 369.866259 55.656344 
L 370.24613 56.134478 
L 370.626001 56.953736 
L 371.385742 59.569434 
L 372.145484 63.369912 
L 373.285096 70.853548 
L 375.18445 85.857705 
L 376.703933 97.396107 
L 377.843545 104.224885 
L 378.603287 107.453642 
L 379.363028 109.422793 
L 379.742899 109.900927 
L 380.12277 110.031816 
L 380.502641 109.813784 
L 380.882512 109.249623 
L 381.262382 108.346555 
L 382.022124 105.574138 
L 382.781866 101.638059 
L 383.921478 94.005379 
L 386.200703 75.910744 
L 387.340315 67.516013 
L 388.479927 60.864962 
L 389.239669 57.785893 
L 389.61954 56.717441 
L 389.99941 55.982649 
L 390.379281 55.590925 
L 390.759152 55.547284 
L 391.139023 55.852284 
L 391.518893 56.502021 
L 391.898764 57.488176 
L 392.658506 60.415091 
L 393.418247 64.483618 
L 394.55786 72.259229 
L 398.356567 101.073653 
L 399.116309 105.14218 
L 399.876051 108.069095 
L 400.255921 109.05525 
L 400.635792 109.704987 
L 401.015663 110.009987 
L 401.395534 109.966346 
L 401.775404 109.574622 
L 402.155275 108.83983 
L 402.915017 106.382946 
L 403.674758 102.721112 
L 404.814371 95.392516 
L 406.333854 83.549947 
L 408.233208 68.818024 
L 409.37282 61.816987 
L 410.132562 58.441129 
L 410.892303 56.307648 
L 411.272174 55.743486 
L 411.652045 55.525455 
L 412.031916 55.656344 
L 412.411786 56.134478 
L 412.791657 56.953736 
L 413.551399 59.569434 
L 414.31114 63.369912 
L 415.450753 70.853548 
L 417.350106 85.857705 
L 418.86959 97.396107 
L 420.009202 104.224885 
L 420.768943 107.453642 
L 421.528685 109.422793 
L 421.908556 109.900927 
L 422.288427 110.031816 
L 422.668297 109.813784 
L 423.048168 109.249623 
L 423.428039 108.346555 
L 424.187781 105.574138 
L 424.947522 101.638059 
L 426.087134 94.005379 
L 428.366359 75.910744 
L 429.505971 67.516013 
L 430.645584 60.864962 
L 431.025455 59.174325 
L 431.025455 59.174325 
" clip-path="url(#paf2b3674ba)" style="fill: none; stroke: #0000ff; stroke-width: 1.5; stroke-linecap: square"/>
   </g>
   <g id="line2d_13">
    <path d="M 51.534545 69.15068 
L 53.054029 80.851709 
L 54.953382 95.733158 
L 56.092995 102.982025 
L 56.852736 106.57343 
L 57.612478 108.95016 
L 57.992349 109.642494 
L 58.372219 109.990891 
L 58.75209 109.990891 
L 59.131961 109.642494 
L 59.511832 108.95016 
L 59.891703 107.922754 
L 60.651444 104.919461 
L 61.411186 100.785926 
L 62.550798 92.941178 
L 66.349506 64.199555 
L 67.109247 60.196851 
L 67.868989 57.346899 
L 68.24886 56.402193 
L 68.628731 55.795183 
L 69.008601 55.533641 
L 69.388472 55.620915 
L 69.768343 56.055888 
L 70.148214 56.83299 
L 70.907955 59.369536 
L 71.667697 63.101065 
L 72.807309 70.507923 
L 74.706663 85.474171 
L 76.226146 97.069108 
L 77.365758 103.984708 
L 78.1255 107.287346 
L 78.885242 109.338867 
L 79.265112 109.860067 
L 79.644983 110.034545 
L 80.024854 109.860067 
L 80.404725 109.338867 
L 80.784596 108.477618 
L 81.544337 105.783291 
L 82.304079 101.914625 
L 83.443691 94.35571 
L 85.343045 79.316649 
L 86.862528 67.837093 
L 88.00214 61.096503 
L 88.761882 57.942274 
L 89.521623 56.055888 
L 89.901494 55.620915 
L 90.281365 55.533641 
L 90.661236 55.795183 
L 91.041107 56.402193 
L 91.420977 57.346899 
L 92.180719 60.196851 
L 92.94046 64.199555 
L 94.080073 71.904472 
L 98.258651 102.982025 
L 99.018393 106.57343 
L 99.778134 108.95016 
L 100.158005 109.642494 
L 100.537876 109.990891 
L 100.917747 109.990891 
L 101.297618 109.642494 
L 101.677488 108.95016 
L 102.057359 107.922754 
L 102.817101 104.919461 
L 103.576842 100.785926 
L 104.716455 92.941178 
L 108.515162 64.199555 
L 109.274904 60.196851 
L 110.034646 57.346899 
L 110.414516 56.402193 
L 110.794387 55.795183 
L 111.174258 55.533641 
L 111.554129 55.620915 
L 111.933999 56.055888 
L 112.31387 56.83299 
L 113.073612 59.369536 
L 113.833353 63.101065 
L 114.972966 70.507923 
L 116.87232 85.474171 
L 118.391803 97.069108 
L 119.531415 103.984708 
L 120.291157 107.287346 
L 121.050898 109.338867 
L 121.430769 109.860067 
L 121.81064 110.034545 
L 122.190511 109.860067 
L 122.570381 109.338867 
L 122.950252 108.477618 
L 123.709994 105.783291 
L 124.469735 101.914625 
L 125.609348 94.35571 
L 127.508701 79.316649 
L 129.028185 67.837093 
L 130.167797 61.096503 
L 130.927538 57.942274 
L 131.68728 56.055888 
L 132.067151 55.620915 
L 132.447022 55.533641 
L 132.826892 55.795183 
L 133.206763 56.402193 
L 133.586634 57.346899 
L 134.346375 60.196851 
L 135.106117 64.199555 
L 136.245729 71.904472 
L 140.424308 102.982025 
L 141.18405 106.57343 
L 141.943791 108.95016 
L 142.323662 109.642494 
L 142.703533 109.990891 
L 143.083403 109.990891 
L 143.463274 109.642494 
L 143.843145 108.95016 
L 144.223016 107.922754 
L 144.982757 104.919461 
L 145.742499 100.785926 
L 146.882111 92.941178 
L 150.680819 64.199555 
L 151.440561 60.196851 
L 152.200302 57.346899 
L 152.580173 56.402193 
L 152.960044 55.795183 
L 153.339914 55.533641 
L 153.719785 55.620915 
L 154.099656 56.055888 
L 154.479527 56.83299 
L 155.239268 59.369536 
L 155.99901 63.101065 
L 157.138622 70.507923 
L 159.037976 85.474171 
L 160.557459 97.069108 
L 161.697072 103.984708 
L 162.456813 107.287346 
L 163.216555 109.338867 
L 163.596426 109.860067 
L 163.976296 110.034545 
L 164.356167 109.860067 
L 164.736038 109.338867 
L 165.115909 108.477618 
L 165.87565 105.783291 
L 166.635392 101.914625 
L 167.775004 94.35571 
L 169.674358 79.316649 
L 171.193841 67.837093 
L 172.333453 61.096503 
L 173.093195 57.942274 
L 173.852937 56.055888 
L 174.232807 55.620915 
L 174.612678 55.533641 
L 174.992549 55.795183 
L 175.37242 56.402193 
L 175.75229 57.346899 
L 176.512032 60.196851 
L 177.271774 64.199555 
L 178.411386 71.904472 
L 182.589965 102.982025 
L 183.349706 106.57343 
L 184.109448 108.95016 
L 184.489318 109.642494 
L 184.869189 109.990891 
L 185.24906 109.990891 
L 185.628931 109.642494 
L 186.008802 108.95016 
L 186.388672 107.922754 
L 187.148414 104.919461 
L 187.908155 100.785926 
L 189.047768 92.941178 
L 192.846476 64.199555 
L 193.606217 60.196851 
L 194.365959 57.346899 
L 194.745829 56.402193 
L 195.1257 55.795183 
L 195.505571 55.533641 
L 195.885442 55.620915 
L 196.265313 56.055888 
L 196.645183 56.83299 
L 197.404925 59.369536 
L 198.164666 63.101065 
L 199.304279 70.507923 
L 201.203633 85.474171 
L 202.723116 97.069108 
L 203.862728 103.984708 
L 204.62247 107.287346 
L 205.382211 109.338867 
L 205.762082 109.860067 
L 206.141953 110.034545 
L 206.521824 109.860067 
L 206.901694 109.338867 
L 207.281565 108.477618 
L 208.041307 105.783291 
L 208.801048 101.914625 
L 209.940661 94.35571 
L 211.840015 79.316649 
L 213.359498 67.837093 
L 214.49911 61.096503 
L 215.258852 57.942274 
L 216.018593 56.055888 
L 216.398464 55.620915 
L 216.778335 55.533641 
L 217.158205 55.795183 
L 217.538076 56.402193 
L 217.917947 57.346899 
L 218.677689 60.196851 
L 219.43743 64.199555 
L 220.577042 71.904472 
L 224.755621 102.982025 
L 225.515363 106.57343 
L 226.275104 108.95016 
L 226.654975 109.642494 
L 227.034846 109.990891 
L 227.414717 109.990891 
L 227.794587 109.642494 
L 228.174458 108.95016 
L 228.554329 107.922754 
L 229.31407 104.919461 
L 230.073812 100.785926 
L 231.213424 92.941178 
L 235.012132 64.199555 
L 235.771874 60.196851 
L 236.531615 57.346899 
L 236.911486 56.402193 
L 237.291357 55.795183 
L 237.671228 55.533641 
L 238.051098 55.620915 
L 238.430969 56.055888 
L 238.81084 56.83299 
L 239.570581 59.369536 
L 240.330323 63.101065 
L 241.469935 70.507923 
L 243.369289 85.474171 
L 244.888772 97.069108 
L 246.028385 103.984708 
L 246.788126 107.287346 
L 247.547868 109.338867 
L 247.927739 109.860067 
L 248.307609 110.034545 
L 248.68748 109.860067 
L 249.067351 109.338867 
L 249.447222 108.477618 
L 250.206963 105.783291 
L 250.966705 101.914625 
L 252.106317 94.35571 
L 254.005671 79.316649 
L 255.525154 67.837093 
L 256.664767 61.096503 
L 257.424508 57.942274 
L 258.18425 56.055888 
L 258.56412 55.620915 
L 258.943991 55.533641 
L 259.323862 55.795183 
L 259.703733 56.402193 
L 260.083604 57.346899 
L 260.843345 60.196851 
L 261.603087 64.199555 
L 262.742699 71.904472 
L 266.921278 102.982025 
L 267.681019 106.57343 
L 268.440761 108.95016 
L 268.820632 109.642494 
L 269.200502 109.990891 
L 269.580373 109.990891 
L 269.960244 109.642494 
L 270.340115 108.95016 
L 270.719985 107.922754 
L 271.479727 104.919461 
L 272.239469 100.785926 
L 273.379081 92.941178 
L 277.177789 64.199555 
L 277.93753 60.196851 
L 278.697272 57.346899 
L 279.077143 56.402193 
L 279.457013 55.795183 
L 279.836884 55.533641 
L 280.216755 55.620915 
L 280.596626 56.055888 
L 280.976496 56.83299 
L 281.736238 59.369536 
L 282.49598 63.101065 
L 283.635592 70.507923 
L 285.534946 85.474171 
L 287.054429 97.069108 
L 288.194041 103.984708 
L 288.953783 107.287346 
L 289.713524 109.338867 
L 290.093395 109.860067 
L 290.473266 110.034545 
L 290.853137 109.860067 
L 291.233008 109.338867 
L 291.612878 108.477618 
L 292.37262 105.783291 
L 293.132361 101.914625 
L 294.271974 94.35571 
L 296.171328 79.316649 
L 297.690811 67.837093 
L 298.830423 61.096503 
L 299.590165 57.942274 
L 300.349906 56.055888 
L 300.729777 55.620915 
L 301.109648 55.533641 
L 301.489519 55.795183 
L 301.869389 56.402193 
L 302.24926 57.346899 
L 303.009002 60.196851 
L 303.768743 64.199555 
L 304.908356 71.904472 
L 309.086934 102.982025 
L 309.846676 106.57343 
L 310.606417 108.95016 
L 310.986288 109.642494 
L 311.366159 109.990891 
L 311.74603 109.990891 
L 312.1259 109.642494 
L 312.505771 108.95016 
L 312.885642 107.922754 
L 313.645384 104.919461 
L 314.405125 100.785926 
L 315.544737 92.941178 
L 319.343445 64.199555 
L 320.103187 60.196851 
L 320.862928 57.346899 
L 321.242799 56.402193 
L 321.62267 55.795183 
L 322.002541 55.533641 
L 322.382412 55.620915 
L 322.762282 56.055888 
L 323.142153 56.83299 
L 323.901895 59.369536 
L 324.661636 63.101065 
L 325.801249 70.507923 
L 327.700602 85.474171 
L 329.220086 97.069108 
L 330.359698 103.984708 
L 331.119439 107.287346 
L 331.879181 109.338867 
L 332.259052 109.860067 
L 332.638923 110.034545 
L 333.018793 109.860067 
L 333.398664 109.338867 
L 333.778535 108.477618 
L 334.538276 105.783291 
L 335.298018 101.914625 
L 336.43763 94.35571 
L 338.336984 79.316649 
L 339.856467 67.837093 
L 340.99608 61.096503 
L 341.755821 57.942274 
L 342.515563 56.055888 
L 342.895434 55.620915 
L 343.275304 55.533641 
L 343.655175 55.795183 
L 344.035046 56.402193 
L 344.414917 57.346899 
L 345.174658 60.196851 
L 345.9344 64.199555 
L 347.074012 71.904472 
L 351.252591 102.982025 
L 352.012332 106.57343 
L 352.772074 108.95016 
L 353.151945 109.642494 
L 353.531815 109.990891 
L 353.911686 109.990891 
L 354.291557 109.642494 
L 354.671428 108.95016 
L 355.051299 107.922754 
L 355.81104 104.919461 
L 356.570782 100.785926 
L 357.710394 92.941178 
L 361.509102 64.199555 
L 362.268843 60.196851 
L 363.028585 57.346899 
L 363.408456 56.402193 
L 363.788327 55.795183 
L 364.168197 55.533641 
L 364.548068 55.620915 
L 364.927939 56.055888 
L 365.30781 56.83299 
L 366.067551 59.369536 
L 366.827293 63.101065 
L 367.966905 70.507923 
L 369.866259 85.474171 
L 371.385742 97.069108 
L 372.525354 103.984708 
L 373.285096 107.287346 
L 374.044838 109.338867 
L 374.424708 109.860067 
L 374.804579 110.034545 
L 375.18445 109.860067 
L 375.564321 109.338867 
L 375.944191 108.477618 
L 376.703933 105.783291 
L 377.463675 101.914625 
L 378.603287 94.35571 
L 380.502641 79.316649 
L 382.022124 67.837093 
L 383.161736 61.096503 
L 383.921478 57.942274 
L 384.681219 56.055888 
L 385.06109 55.620915 
L 385.440961 55.533641 
L 385.820832 55.795183 
L 386.200703 56.402193 
L 386.580573 57.346899 
L 387.340315 60.196851 
L 388.100056 64.199555 
L 389.239669 71.904472 
L 393.418247 102.982025 
L 394.177989 106.57343 
L 394.93773 108.95016 
L 395.317601 109.642494 
L 395.697472 109.990891 
L 396.077343 109.990891 
L 396.457214 109.642494 
L 396.837084 108.95016 
L 397.216955 107.922754 
L 397.976697 104.919461 
L 398.736438 100.785926 
L 399.876051 92.941178 
L 403.674758 64.199555 
L 404.4345 60.196851 
L 405.194242 57.346899 
L 405.574112 56.402193 
L 405.953983 55.795183 
L 406.333854 55.533641 
L 406.713725 55.620915 
L 407.093595 56.055888 
L 407.473466 56.83299 
L 408.233208 59.369536 
L 408.992949 63.101065 
L 410.132562 70.507923 
L 412.031916 85.474171 
L 413.551399 97.069108 
L 414.691011 103.984708 
L 415.450753 107.287346 
L 416.210494 109.338867 
L 416.590365 109.860067 
L 416.970236 110.034545 
L 417.350106 109.860067 
L 417.729977 109.338867 
L 418.109848 108.477618 
L 418.86959 105.783291 
L 419.629331 101.914625 
L 420.768943 94.35571 
L 422.668297 79.316649 
L 424.187781 67.837093 
L 425.327393 61.096503 
L 426.087134 57.942274 
L 426.846876 56.055888 
L 427.226747 55.620915 
L 427.606618 55.533641 
L 427.986488 55.795183 
L 428.366359 56.402193 
L 428.74623 57.346899 
L 429.505971 60.196851 
L 430.265713 64.199555 
L 431.025455 69.15068 
L 431.025455 69.15068 
" clip-path="url(#paf2b3674ba)" style="fill: none; stroke: #ff0000; stroke-width: 1.5; stroke-linecap: square"/>
   </g>
   <g id="patch_3">
    <path d="M 32.56 112.76 
L 32.56 52.8 
" style="fill: none; stroke: #000000; stroke-width: 0.8; stroke-linejoin: miter; stroke-linecap: square"/>
   </g>
   <g id="patch_4">
    <path d="M 450 112.76 
L 450 52.8 
" style="fill: none; stroke: #000000; stroke-width: 0.8; stroke-linejoin: miter; stroke-linecap: square"/>
   </g>
   <g id="patch_5">
    <path d="M 32.56 112.76 
L 450 112.76 
" style="fill: none; stroke: #000000; stroke-width: 0.8; stroke-linejoin: miter; stroke-linecap: square"/>
   </g>
   <g id="patch_6">
    <path d="M 32.56 52.8 
L 450 52.8 
" style="fill: none; stroke: #000000; stroke-width: 0.8; stroke-linejoin: miter; stroke-linecap: square"/>
   </g>
   <g id="text_12">
    <!-- Cosine and sine amp:2; freq:240; phi:pi/3 -->
    <g transform="translate(116.778125 46.8) scale(0.12 -0.12)">
     <defs>
      <path id="DejaVuSans-43" d="M 4122 4306 
L 4122 3641 
Q 3803 3938 3442 4084 
Q 3081 4231 2675 4231 
Q 1875 4231 1450 3742 
Q 1025 3253 1025 2328 
Q 1025 1406 1450 917 
Q 1875 428 2675 428 
Q 3081 428 3442 575 
Q 3803 722 4122 1019 
L 4122 359 
Q 3791 134 3420 21 
Q 3050 -91 2638 -91 
Q 1578 -91 968 557 
Q 359 1206 359 2328 
Q 359 3453 968 4101 
Q 1578 4750 2638 4750 
Q 3056 4750 3426 4639 
Q 3797 4528 4122 4306 
z
" transform="scale(0.015625)"/>
      <path id="DejaVuSans-6f" d="M 1959 3097 
Q 1497 3097 1228 2736 
Q 959 2375 959 1747 
Q 959 1119 1226 758 
Q 1494 397 1959 397 
Q 2419 397 2687 759 
Q 2956 1122 2956 1747 
Q 2956 2369 2687 2733 
Q 2419 3097 1959 3097 
z
M 1959 3584 
Q 2709 3584 3137 3096 
Q 3566 2609 3566 1747 
Q 3566 888 3137 398 
Q 2709 -91 1959 -91 
Q 1206 -91 779 398 
Q 353 888 353 1747 
Q 353 2609 779 3096 
Q 1206 3584 1959 3584 
z
" transform="scale(0.015625)"/>
      <path id="DejaVuSans-73" d="M 2834 3397 
L 2834 2853 
Q 2591 2978 2328 3040 
Q 2066 3103 1784 3103 
Q 1356 3103 1142 2972 
Q 928 2841 928 2578 
Q 928 2378 1081 2264 
Q 1234 2150 1697 2047 
L 1894 2003 
Q 2506 1872 2764 1633 
Q 3022 1394 3022 966 
Q 3022 478 2636 193 
Q 2250 -91 1575 -91 
Q 1294 -91 989 -36 
Q 684 19 347 128 
L 347 722 
Q 666 556 975 473 
Q 1284 391 1588 391 
Q 1994 391 2212 530 
Q 2431 669 2431 922 
Q 2431 1156 2273 1281 
Q 2116 1406 1581 1522 
L 1381 1569 
Q 847 1681 609 1914 
Q 372 2147 372 2553 
Q 372 3047 722 3315 
Q 1072 3584 1716 3584 
Q 2034 3584 2315 3537 
Q 2597 3491 2834 3397 
z
" transform="scale(0.015625)"/>
      <path id="DejaVuSans-69" d="M 603 3500 
L 1178 3500 
L 1178 0 
L 603 0 
L 603 3500 
z
M 603 4863 
L 1178 4863 
L 1178 4134 
L 603 4134 
L 603 4863 
z
" transform="scale(0.015625)"/>
      <path id="DejaVuSans-6e" d="M 3513 2113 
L 3513 0 
L 2938 0 
L 2938 2094 
Q 2938 2591 2744 2837 
Q 2550 3084 2163 3084 
Q 1697 3084 1428 2787 
Q 1159 2491 1159 1978 
L 1159 0 
L 581 0 
L 581 3500 
L 1159 3500 
L 1159 2956 
Q 1366 3272 1645 3428 
Q 1925 3584 2291 3584 
Q 2894 3584 3203 3211 
Q 3513 2838 3513 2113 
z
" transform="scale(0.015625)"/>
      <path id="DejaVuSans-65" d="M 3597 1894 
L 3597 1613 
L 953 1613 
Q 991 1019 1311 708 
Q 1631 397 2203 397 
Q 2534 397 2845 478 
Q 3156 559 3463 722 
L 3463 178 
Q 3153 47 2828 -22 
Q 2503 -91 2169 -91 
Q 1331 -91 842 396 
Q 353 884 353 1716 
Q 353 2575 817 3079 
Q 1281 3584 2069 3584 
Q 2775 3584 3186 3129 
Q 3597 2675 3597 1894 
z
M 3022 2063 
Q 3016 2534 2758 2815 
Q 2500 3097 2075 3097 
Q 1594 3097 1305 2825 
Q 1016 2553 972 2059 
L 3022 2063 
z
" transform="scale(0.015625)"/>
      <path id="DejaVuSans-20" transform="scale(0.015625)"/>
      <path id="DejaVuSans-61" d="M 2194 1759 
Q 1497 1759 1228 1600 
Q 959 1441 959 1056 
Q 959 750 1161 570 
Q 1363 391 1709 391 
Q 2188 391 2477 730 
Q 2766 1069 2766 1631 
L 2766 1759 
L 2194 1759 
z
M 3341 1997 
L 3341 0 
L 2766 0 
L 2766 531 
Q 2569 213 2275 61 
Q 1981 -91 1556 -91 
Q 1019 -91 701 211 
Q 384 513 384 1019 
Q 384 1609 779 1909 
Q 1175 2209 1959 2209 
L 2766 2209 
L 2766 2266 
Q 2766 2663 2505 2880 
Q 2244 3097 1772 3097 
Q 1472 3097 1187 3025 
Q 903 2953 641 2809 
L 641 3341 
Q 956 3463 1253 3523 
Q 1550 3584 1831 3584 
Q 2591 3584 2966 3190 
Q 3341 2797 3341 1997 
z
" transform="scale(0.015625)"/>
      <path id="DejaVuSans-64" d="M 2906 2969 
L 2906 4863 
L 3481 4863 
L 3481 0 
L 2906 0 
L 2906 525 
Q 2725 213 2448 61 
Q 2172 -91 1784 -91 
Q 1150 -91 751 415 
Q 353 922 353 1747 
Q 353 2572 751 3078 
Q 1150 3584 1784 3584 
Q 2172 3584 2448 3432 
Q 2725 3281 2906 2969 
z
M 947 1747 
Q 947 1113 1208 752 
Q 1469 391 1925 391 
Q 2381 391 2643 752 
Q 2906 1113 2906 1747 
Q 2906 2381 2643 2742 
Q 2381 3103 1925 3103 
Q 1469 3103 1208 2742 
Q 947 2381 947 1747 
z
" transform="scale(0.015625)"/>
      <path id="DejaVuSans-6d" d="M 3328 2828 
Q 3544 3216 3844 3400 
Q 4144 3584 4550 3584 
Q 5097 3584 5394 3201 
Q 5691 2819 5691 2113 
L 5691 0 
L 5113 0 
L 5113 2094 
Q 5113 2597 4934 2840 
Q 4756 3084 4391 3084 
Q 3944 3084 3684 2787 
Q 3425 2491 3425 1978 
L 3425 0 
L 2847 0 
L 2847 2094 
Q 2847 2600 2669 2842 
Q 2491 3084 2119 3084 
Q 1678 3084 1418 2786 
Q 1159 2488 1159 1978 
L 1159 0 
L 581 0 
L 581 3500 
L 1159 3500 
L 1159 2956 
Q 1356 3278 1631 3431 
Q 1906 3584 2284 3584 
Q 2666 3584 2933 3390 
Q 3200 3197 3328 2828 
z
" transform="scale(0.015625)"/>
      <path id="DejaVuSans-70" d="M 1159 525 
L 1159 -1331 
L 581 -1331 
L 581 3500 
L 1159 3500 
L 1159 2969 
Q 1341 3281 1617 3432 
Q 1894 3584 2278 3584 
Q 2916 3584 3314 3078 
Q 3713 2572 3713 1747 
Q 3713 922 3314 415 
Q 2916 -91 2278 -91 
Q 1894 -91 1617 61 
Q 1341 213 1159 525 
z
M 3116 1747 
Q 3116 2381 2855 2742 
Q 2594 3103 2138 3103 
Q 1681 3103 1420 2742 
Q 1159 2381 1159 1747 
Q 1159 1113 1420 752 
Q 1681 391 2138 391 
Q 2594 391 2855 752 
Q 3116 1113 3116 1747 
z
" transform="scale(0.015625)"/>
      <path id="DejaVuSans-3a" d="M 750 794 
L 1409 794 
L 1409 0 
L 750 0 
L 750 794 
z
M 750 3309 
L 1409 3309 
L 1409 2516 
L 750 2516 
L 750 3309 
z
" transform="scale(0.015625)"/>
      <path id="DejaVuSans-3b" d="M 750 3309 
L 1409 3309 
L 1409 2516 
L 750 2516 
L 750 3309 
z
M 750 794 
L 1409 794 
L 1409 256 
L 897 -744 
L 494 -744 
L 750 256 
L 750 794 
z
" transform="scale(0.015625)"/>
      <path id="DejaVuSans-66" d="M 2375 4863 
L 2375 4384 
L 1825 4384 
Q 1516 4384 1395 4259 
Q 1275 4134 1275 3809 
L 1275 3500 
L 2222 3500 
L 2222 3053 
L 1275 3053 
L 1275 0 
L 697 0 
L 697 3053 
L 147 3053 
L 147 3500 
L 697 3500 
L 697 3744 
Q 697 4328 969 4595 
Q 1241 4863 1831 4863 
L 2375 4863 
z
" transform="scale(0.015625)"/>
      <path id="DejaVuSans-72" d="M 2631 2963 
Q 2534 3019 2420 3045 
Q 2306 3072 2169 3072 
Q 1681 3072 1420 2755 
Q 1159 2438 1159 1844 
L 1159 0 
L 581 0 
L 581 3500 
L 1159 3500 
L 1159 2956 
Q 1341 3275 1631 3429 
Q 1922 3584 2338 3584 
Q 2397 3584 2469 3576 
Q 2541 3569 2628 3553 
L 2631 2963 
z
" transform="scale(0.015625)"/>
      <path id="DejaVuSans-71" d="M 947 1747 
Q 947 1113 1208 752 
Q 1469 391 1925 391 
Q 2381 391 2643 752 
Q 2906 1113 2906 1747 
Q 2906 2381 2643 2742 
Q 2381 3103 1925 3103 
Q 1469 3103 1208 2742 
Q 947 2381 947 1747 
z
M 2906 525 
Q 2725 213 2448 61 
Q 2172 -91 1784 -91 
Q 1150 -91 751 415 
Q 353 922 353 1747 
Q 353 2572 751 3078 
Q 1150 3584 1784 3584 
Q 2172 3584 2448 3432 
Q 2725 3281 2906 2969 
L 2906 3500 
L 3481 3500 
L 3481 -1331 
L 2906 -1331 
L 2906 525 
z
" transform="scale(0.015625)"/>
      <path id="DejaVuSans-68" d="M 3513 2113 
L 3513 0 
L 2938 0 
L 2938 2094 
Q 2938 2591 2744 2837 
Q 2550 3084 2163 3084 
Q 1697 3084 1428 2787 
Q 1159 2491 1159 1978 
L 1159 0 
L 581 0 
L 581 4863 
L 1159 4863 
L 1159 2956 
Q 1366 3272 1645 3428 
Q 1925 3584 2291 3584 
Q 2894 3584 3203 3211 
Q 3513 2838 3513 2113 
z
" transform="scale(0.015625)"/>
      <path id="DejaVuSans-2f" d="M 1625 4666 
L 2156 4666 
L 531 -594 
L 0 -594 
L 1625 4666 
z
" transform="scale(0.015625)"/>
     </defs>
     <use xlink:href="#DejaVuSans-43"/>
     <use xlink:href="#DejaVuSans-6f" x="69.824219"/>
     <use xlink:href="#DejaVuSans-73" x="131.005859"/>
     <use xlink:href="#DejaVuSans-69" x="183.105469"/>
     <use xlink:href="#DejaVuSans-6e" x="210.888672"/>
     <use xlink:href="#DejaVuSans-65" x="274.267578"/>
     <use xlink:href="#DejaVuSans-20" x="335.791016"/>
     <use xlink:href="#DejaVuSans-61" x="367.578125"/>
     <use xlink:href="#DejaVuSans-6e" x="428.857422"/>
     <use xlink:href="#DejaVuSans-64" x="492.236328"/>
     <use xlink:href="#DejaVuSans-20" x="555.712891"/>
     <use xlink:href="#DejaVuSans-73" x="587.5"/>
     <use xlink:href="#DejaVuSans-69" x="639.599609"/>
     <use xlink:href="#DejaVuSans-6e" x="667.382812"/>
     <use xlink:href="#DejaVuSans-65" x="730.761719"/>
     <use xlink:href="#DejaVuSans-20" x="792.285156"/>
     <use xlink:href="#DejaVuSans-61" x="824.072266"/>
     <use xlink:href="#DejaVuSans-6d" x="885.351562"/>
     <use xlink:href="#DejaVuSans-70" x="982.763672"/>
     <use xlink:href="#DejaVuSans-3a" x="1046.240234"/>
     <use xlink:href="#DejaVuSans-32" x="1079.931641"/>
     <use xlink:href="#DejaVuSans-3b" x="1143.554688"/>
     <use xlink:href="#DejaVuSans-20" x="1177.246094"/>
     <use xlink:href="#DejaVuSans-66" x="1209.033203"/>
     <use xlink:href="#DejaVuSans-72" x="1244.238281"/>
     <use xlink:href="#DejaVuSans-65" x="1283.101562"/>
     <use xlink:href="#DejaVuSans-71" x="1344.625"/>
     <use xlink:href="#DejaVuSans-3a" x="1408.101562"/>
     <use xlink:href="#DejaVuSans-32" x="1441.792969"/>
     <use xlink:href="#DejaVuSans-34" x="1505.416016"/>
     <use xlink:href="#DejaVuSans-30" x="1569.039062"/>
     <use xlink:href="#DejaVuSans-3b" x="1632.662109"/>
     <use xlink:href="#DejaVuSans-20" x="1666.353516"/>
     <use xlink:href="#DejaVuSans-70" x="1698.140625"/>
     <use xlink:href="#DejaVuSans-68" x="1761.617188"/>
     <use xlink:href="#DejaVuSans-69" x="1824.996094"/>
     <use xlink:href="#DejaVuSans-3a" x="1852.779297"/>
     <use xlink:href="#DejaVuSans-70" x="1886.470703"/>
     <use xlink:href="#DejaVuSans-69" x="1949.947266"/>
     <use xlink:href="#DejaVuSans-2f" x="1977.730469"/>
     <use xlink:href="#DejaVuSans-33" x="2011.421875"/>
    </g>
   </g>
  </g>
  <g id="axes_2">
   <g id="patch_7">
    <path d="M 32.56 215.24 
L 450 215.24 
L 450 155.28 
L 32.56 155.28 
z
" style="fill: #ffffff"/>
   </g>
   <g id="matplotlib.axis_3">
    <g id="xtick_9">
     <g id="line2d_14">
      <g>
       <use xlink:href="#m2dac4a7ccb" x="51.534545" y="215.24" style="stroke: #000000; stroke-width: 0.8"/>
      </g>
     </g>
     <g id="text_13">
      <!-- 0.00 -->
      <g transform="translate(40.401733 229.838437) scale(0.1 -0.1)">
       <use xlink:href="#DejaVuSans-30"/>
       <use xlink:href="#DejaVuSans-2e" x="63.623047"/>
       <use xlink:href="#DejaVuSans-30" x="95.410156"/>
       <use xlink:href="#DejaVuSans-30" x="159.033203"/>
      </g>
     </g>
    </g>
    <g id="xtick_10">
     <g id="line2d_15">
      <g>
       <use xlink:href="#m2dac4a7ccb" x="102.133333" y="215.24" style="stroke: #000000; stroke-width: 0.8"/>
      </g>
     </g>
     <g id="text_14">
      <!-- 0.01 -->
      <g transform="translate(91.000521 229.838437) scale(0.1 -0.1)">
       <use xlink:href="#DejaVuSans-30"/>
       <use xlink:href="#DejaVuSans-2e" x="63.623047"/>
       <use xlink:href="#DejaVuSans-30" x="95.410156"/>
       <use xlink:href="#DejaVuSans-31" x="159.033203"/>
      </g>
     </g>
    </g>
    <g id="xtick_11">
     <g id="line2d_16">
      <g>
       <use xlink:href="#m2dac4a7ccb" x="152.732121" y="215.24" style="stroke: #000000; stroke-width: 0.8"/>
      </g>
     </g>
     <g id="text_15">
      <!-- 0.02 -->
      <g transform="translate(141.599309 229.838437) scale(0.1 -0.1)">
       <use xlink:href="#DejaVuSans-30"/>
       <use xlink:href="#DejaVuSans-2e" x="63.623047"/>
       <use xlink:href="#DejaVuSans-30" x="95.410156"/>
       <use xlink:href="#DejaVuSans-32" x="159.033203"/>
      </g>
     </g>
    </g>
    <g id="xtick_12">
     <g id="line2d_17">
      <g>
       <use xlink:href="#m2dac4a7ccb" x="203.330909" y="215.24" style="stroke: #000000; stroke-width: 0.8"/>
      </g>
     </g>
     <g id="text_16">
      <!-- 0.03 -->
      <g transform="translate(192.198097 229.838437) scale(0.1 -0.1)">
       <use xlink:href="#DejaVuSans-30"/>
       <use xlink:href="#DejaVuSans-2e" x="63.623047"/>
       <use xlink:href="#DejaVuSans-30" x="95.410156"/>
       <use xlink:href="#DejaVuSans-33" x="159.033203"/>
      </g>
     </g>
    </g>
    <g id="xtick_13">
     <g id="line2d_18">
      <g>
       <use xlink:href="#m2dac4a7ccb" x="253.929697" y="215.24" style="stroke: #000000; stroke-width: 0.8"/>
      </g>
     </g>
     <g id="text_17">
      <!-- 0.04 -->
      <g transform="translate(242.796884 229.838437) scale(0.1 -0.1)">
       <use xlink:href="#DejaVuSans-30"/>
       <use xlink:href="#DejaVuSans-2e" x="63.623047"/>
       <use xlink:href="#DejaVuSans-30" x="95.410156"/>
       <use xlink:href="#DejaVuSans-34" x="159.033203"/>
      </g>
     </g>
    </g>
    <g id="xtick_14">
     <g id="line2d_19">
      <g>
       <use xlink:href="#m2dac4a7ccb" x="304.528485" y="215.24" style="stroke: #000000; stroke-width: 0.8"/>
      </g>
     </g>
     <g id="text_18">
      <!-- 0.05 -->
      <g transform="translate(293.395672 229.838437) scale(0.1 -0.1)">
       <use xlink:href="#DejaVuSans-30"/>
       <use xlink:href="#DejaVuSans-2e" x="63.623047"/>
       <use xlink:href="#DejaVuSans-30" x="95.410156"/>
       <use xlink:href="#DejaVuSans-35" x="159.033203"/>
      </g>
     </g>
    </g>
    <g id="xtick_15">
     <g id="line2d_20">
      <g>
       <use xlink:href="#m2dac4a7ccb" x="355.127273" y="215.24" style="stroke: #000000; stroke-width: 0.8"/>
      </g>
     </g>
     <g id="text_19">
      <!-- 0.06 -->
      <g transform="translate(343.99446 229.838437) scale(0.1 -0.1)">
       <use xlink:href="#DejaVuSans-30"/>
       <use xlink:href="#DejaVuSans-2e" x="63.623047"/>
       <use xlink:href="#DejaVuSans-30" x="95.410156"/>
       <use xlink:href="#DejaVuSans-36" x="159.033203"/>
      </g>
     </g>
    </g>
    <g id="xtick_16">
     <g id="line2d_21">
      <g>
       <use xlink:href="#m2dac4a7ccb" x="405.726061" y="215.24" style="stroke: #000000; stroke-width: 0.8"/>
      </g>
     </g>
     <g id="text_20">
      <!-- 0.07 -->
      <g transform="translate(394.593248 229.838437) scale(0.1 -0.1)">
       <use xlink:href="#DejaVuSans-30"/>
       <use xlink:href="#DejaVuSans-2e" x="63.623047"/>
       <use xlink:href="#DejaVuSans-30" x="95.410156"/>
       <use xlink:href="#DejaVuSans-37" x="159.033203"/>
      </g>
     </g>
    </g>
   </g>
   <g id="matplotlib.axis_4">
    <g id="ytick_4">
     <g id="line2d_22">
      <g>
       <use xlink:href="#m99cd08aeb6" x="32.56" y="212.517275" style="stroke: #000000; stroke-width: 0.8"/>
      </g>
     </g>
     <g id="text_21">
      <!-- −2 -->
      <g transform="translate(10.817813 216.316493) scale(0.1 -0.1)">
       <use xlink:href="#DejaVuSans-2212"/>
       <use xlink:href="#DejaVuSans-32" x="83.789062"/>
      </g>
     </g>
    </g>
    <g id="ytick_5">
     <g id="line2d_23">
      <g>
       <use xlink:href="#m99cd08aeb6" x="32.56" y="185.26" style="stroke: #000000; stroke-width: 0.8"/>
      </g>
     </g>
     <g id="text_22">
      <!-- 0 -->
      <g transform="translate(19.1975 189.059219) scale(0.1 -0.1)">
       <use xlink:href="#DejaVuSans-30"/>
      </g>
     </g>
    </g>
    <g id="ytick_6">
     <g id="line2d_24">
      <g>
       <use xlink:href="#m99cd08aeb6" x="32.56" y="158.002725" style="stroke: #000000; stroke-width: 0.8"/>
      </g>
     </g>
     <g id="text_23">
      <!-- 2 -->
      <g transform="translate(19.1975 161.801944) scale(0.1 -0.1)">
       <use xlink:href="#DejaVuSans-32"/>
      </g>
     </g>
    </g>
   </g>
   <g id="line2d_25">
    <path d="M 51.534545 161.654508 
L 52.294287 159.197501 
L 52.674158 158.462672 
L 53.054029 158.070929 
L 53.433899 158.027285 
L 53.81377 158.3323 
L 54.193641 158.98207 
L 54.573512 159.968274 
L 55.333253 162.895336 
L 56.092995 166.964066 
L 57.232607 174.740067 
L 61.031315 203.555934 
L 61.791057 207.624664 
L 62.550798 210.551726 
L 62.930669 211.53793 
L 63.31054 212.1877 
L 63.69041 212.492715 
L 64.070281 212.449071 
L 64.450152 212.057328 
L 64.830023 211.322499 
L 65.589764 208.865492 
L 66.349506 205.203475 
L 67.489118 197.874512 
L 69.008601 186.03135 
L 70.907955 171.29869 
L 72.047568 164.297302 
L 72.807309 160.921275 
L 73.567051 158.787687 
L 73.946921 158.223497 
L 74.326792 158.005455 
L 74.706663 158.13635 
L 75.086534 158.614508 
L 75.466405 159.433807 
L 76.226146 162.049636 
L 76.985888 165.850305 
L 78.1255 173.334315 
L 80.024854 188.339224 
L 81.544337 199.878203 
L 82.683949 206.707324 
L 83.443691 209.936242 
L 84.203433 211.905492 
L 84.583303 212.38365 
L 84.963174 212.514545 
L 85.343045 212.296503 
L 85.722916 211.732313 
L 86.102786 210.8292 
L 86.862528 208.056644 
L 87.62227 204.120368 
L 88.761882 196.487305 
L 91.041107 178.391765 
L 92.180719 169.996613 
L 93.320331 163.345229 
L 94.080073 160.266006 
L 94.459944 159.197501 
L 94.839814 158.462672 
L 95.219685 158.070929 
L 95.599556 158.027285 
L 95.979427 158.3323 
L 96.359297 158.98207 
L 96.739168 159.968274 
L 97.49891 162.895336 
L 98.258651 166.964066 
L 99.398264 174.740067 
L 103.196972 203.555934 
L 103.956713 207.624664 
L 104.716455 210.551726 
L 105.096325 211.53793 
L 105.476196 212.1877 
L 105.856067 212.492715 
L 106.235938 212.449071 
L 106.615809 212.057328 
L 106.995679 211.322499 
L 107.755421 208.865492 
L 108.515162 205.203475 
L 109.654775 197.874512 
L 111.174258 186.03135 
L 113.073612 171.29869 
L 114.213224 164.297302 
L 114.972966 160.921275 
L 115.732707 158.787687 
L 116.112578 158.223497 
L 116.492449 158.005455 
L 116.87232 158.13635 
L 117.25219 158.614508 
L 117.632061 159.433807 
L 118.391803 162.049636 
L 119.151544 165.850305 
L 120.291157 173.334315 
L 122.190511 188.339224 
L 123.709994 199.878203 
L 124.849606 206.707324 
L 125.609348 209.936242 
L 126.369089 211.905492 
L 126.74896 212.38365 
L 127.128831 212.514545 
L 127.508701 212.296503 
L 127.888572 211.732313 
L 128.268443 210.8292 
L 129.028185 208.056644 
L 129.787926 204.120368 
L 130.927538 196.487305 
L 133.206763 178.391765 
L 134.346375 169.996613 
L 135.485988 163.345229 
L 136.245729 160.266006 
L 136.6256 159.197501 
L 137.005471 158.462672 
L 137.385342 158.070929 
L 137.765212 158.027285 
L 138.145083 158.3323 
L 138.524954 158.98207 
L 138.904825 159.968274 
L 139.664566 162.895336 
L 140.424308 166.964066 
L 141.56392 174.740067 
L 145.362628 203.555934 
L 146.12237 207.624664 
L 146.882111 210.551726 
L 147.261982 211.53793 
L 147.641853 212.1877 
L 148.021724 212.492715 
L 148.401594 212.449071 
L 148.781465 212.057328 
L 149.161336 211.322499 
L 149.921077 208.865492 
L 150.680819 205.203475 
L 151.820431 197.874512 
L 153.339914 186.03135 
L 155.239268 171.29869 
L 156.378881 164.297302 
L 157.138622 160.921275 
L 157.898364 158.787687 
L 158.278235 158.223497 
L 158.658105 158.005455 
L 159.037976 158.13635 
L 159.417847 158.614508 
L 159.797718 159.433807 
L 160.557459 162.049636 
L 161.317201 165.850305 
L 162.456813 173.334315 
L 164.356167 188.339224 
L 165.87565 199.878203 
L 167.015263 206.707324 
L 167.775004 209.936242 
L 168.534746 211.905492 
L 168.914616 212.38365 
L 169.294487 212.514545 
L 169.674358 212.296503 
L 170.054229 211.732313 
L 170.4341 210.8292 
L 171.193841 208.056644 
L 171.953583 204.120368 
L 173.093195 196.487305 
L 175.37242 178.391765 
L 176.512032 169.996613 
L 177.651644 163.345229 
L 178.411386 160.266006 
L 178.791257 159.197501 
L 179.171127 158.462672 
L 179.550998 158.070929 
L 179.930869 158.027285 
L 180.31074 158.3323 
L 180.690611 158.98207 
L 181.070481 159.968274 
L 181.830223 162.895336 
L 182.589965 166.964066 
L 183.729577 174.740067 
L 187.528285 203.555934 
L 188.288026 207.624664 
L 189.047768 210.551726 
L 189.427639 211.53793 
L 189.807509 212.1877 
L 190.18738 212.492715 
L 190.567251 212.449071 
L 190.947122 212.057328 
L 191.326992 211.322499 
L 192.086734 208.865492 
L 192.846476 205.203475 
L 193.986088 197.874512 
L 195.505571 186.03135 
L 197.404925 171.29869 
L 198.544537 164.297302 
L 199.304279 160.921275 
L 200.06402 158.787687 
L 200.443891 158.223497 
L 200.823762 158.005455 
L 201.203633 158.13635 
L 201.583504 158.614508 
L 201.963374 159.433807 
L 202.723116 162.049636 
L 203.482857 165.850305 
L 204.62247 173.334315 
L 206.521824 188.339224 
L 208.041307 199.878203 
L 209.180919 206.707324 
L 209.940661 209.936242 
L 210.700402 211.905492 
L 211.080273 212.38365 
L 211.460144 212.514545 
L 211.840015 212.296503 
L 212.219885 211.732313 
L 212.599756 210.8292 
L 213.359498 208.056644 
L 214.119239 204.120368 
L 215.258852 196.487305 
L 217.538076 178.391765 
L 218.677689 169.996613 
L 219.817301 163.345229 
L 220.577042 160.266006 
L 220.956913 159.197501 
L 221.336784 158.462672 
L 221.716655 158.070929 
L 222.096526 158.027285 
L 222.476396 158.3323 
L 222.856267 158.98207 
L 223.236138 159.968274 
L 223.99588 162.895336 
L 224.755621 166.964066 
L 225.895233 174.740067 
L 229.693941 203.555934 
L 230.453683 207.624664 
L 231.213424 210.551726 
L 231.593295 211.53793 
L 231.973166 212.1877 
L 232.353037 212.492715 
L 232.732907 212.449071 
L 233.112778 212.057328 
L 233.492649 211.322499 
L 234.252391 208.865492 
L 235.012132 205.203475 
L 236.151744 197.874512 
L 237.671228 186.03135 
L 239.570581 171.29869 
L 240.710194 164.297302 
L 241.469935 160.921275 
L 242.229677 158.787687 
L 242.609548 158.223497 
L 242.989419 158.005455 
L 243.369289 158.13635 
L 243.74916 158.614508 
L 244.129031 159.433807 
L 244.888772 162.049636 
L 245.648514 165.850305 
L 246.788126 173.334315 
L 248.68748 188.339224 
L 250.206963 199.878203 
L 251.346576 206.707324 
L 252.106317 209.936242 
L 252.866059 211.905492 
L 253.24593 212.38365 
L 253.6258 212.514545 
L 254.005671 212.296503 
L 254.385542 211.732313 
L 254.765413 210.8292 
L 255.525154 208.056644 
L 256.284896 204.120368 
L 257.424508 196.487305 
L 259.703733 178.391765 
L 260.843345 169.996613 
L 261.982958 163.345229 
L 262.742699 160.266006 
L 263.12257 159.197501 
L 263.502441 158.462672 
L 263.882311 158.070929 
L 264.262182 158.027285 
L 264.642053 158.3323 
L 265.021924 158.98207 
L 265.401795 159.968274 
L 266.161536 162.895336 
L 266.921278 166.964066 
L 268.06089 174.740067 
L 271.859598 203.555934 
L 272.619339 207.624664 
L 273.379081 210.551726 
L 273.758952 211.53793 
L 274.138822 212.1877 
L 274.518693 212.492715 
L 274.898564 212.449071 
L 275.278435 212.057328 
L 275.658306 211.322499 
L 276.418047 208.865492 
L 277.177789 205.203475 
L 278.317401 197.874512 
L 279.836884 186.03135 
L 281.736238 171.29869 
L 282.87585 164.297302 
L 283.635592 160.921275 
L 284.395334 158.787687 
L 284.775204 158.223497 
L 285.155075 158.005455 
L 285.534946 158.13635 
L 285.914817 158.614508 
L 286.294687 159.433807 
L 287.054429 162.049636 
L 287.814171 165.850305 
L 288.953783 173.334315 
L 290.853137 188.339224 
L 292.37262 199.878203 
L 293.512232 206.707324 
L 294.271974 209.936242 
L 295.031715 211.905492 
L 295.411586 212.38365 
L 295.791457 212.514545 
L 296.171328 212.296503 
L 296.551198 211.732313 
L 296.931069 210.8292 
L 297.690811 208.056644 
L 298.450552 204.120368 
L 299.590165 196.487305 
L 301.869389 178.391765 
L 303.009002 169.996613 
L 304.148614 163.345229 
L 304.908356 160.266006 
L 305.288226 159.197501 
L 305.668097 158.462672 
L 306.047968 158.070929 
L 306.427839 158.027285 
L 306.80771 158.3323 
L 307.18758 158.98207 
L 307.567451 159.968274 
L 308.327193 162.895336 
L 309.086934 166.964066 
L 310.226547 174.740067 
L 314.025254 203.555934 
L 314.784996 207.624664 
L 315.544737 210.551726 
L 315.924608 211.53793 
L 316.304479 212.1877 
L 316.68435 212.492715 
L 317.064221 212.449071 
L 317.444091 212.057328 
L 317.823962 211.322499 
L 318.583704 208.865492 
L 319.343445 205.203475 
L 320.483058 197.874512 
L 322.002541 186.03135 
L 323.901895 171.29869 
L 325.041507 164.297302 
L 325.801249 160.921275 
L 326.56099 158.787687 
L 326.940861 158.223497 
L 327.320732 158.005455 
L 327.700602 158.13635 
L 328.080473 158.614508 
L 328.460344 159.433807 
L 329.220086 162.049636 
L 329.979827 165.850305 
L 331.119439 173.334315 
L 333.018793 188.339224 
L 334.538276 199.878203 
L 335.677889 206.707324 
L 336.43763 209.936242 
L 337.197372 211.905492 
L 337.577243 212.38365 
L 337.957113 212.514545 
L 338.336984 212.296503 
L 338.716855 211.732313 
L 339.096726 210.8292 
L 339.856467 208.056644 
L 340.616209 204.120368 
L 341.755821 196.487305 
L 344.035046 178.391765 
L 345.174658 169.996613 
L 346.314271 163.345229 
L 347.074012 160.266006 
L 347.453883 159.197501 
L 347.833754 158.462672 
L 348.213625 158.070929 
L 348.593495 158.027285 
L 348.973366 158.3323 
L 349.353237 158.98207 
L 349.733108 159.968274 
L 350.492849 162.895336 
L 351.252591 166.964066 
L 352.392203 174.740067 
L 356.190911 203.555934 
L 356.950652 207.624664 
L 357.710394 210.551726 
L 358.090265 211.53793 
L 358.470136 212.1877 
L 358.850006 212.492715 
L 359.229877 212.449071 
L 359.609748 212.057328 
L 359.989619 211.322499 
L 360.74936 208.865492 
L 361.509102 205.203475 
L 362.648714 197.874512 
L 364.168197 186.03135 
L 366.067551 171.29869 
L 367.207164 164.297302 
L 367.966905 160.921275 
L 368.726647 158.787687 
L 369.106517 158.223497 
L 369.486388 158.005455 
L 369.866259 158.13635 
L 370.24613 158.614508 
L 370.626001 159.433807 
L 371.385742 162.049636 
L 372.145484 165.850305 
L 373.285096 173.334315 
L 375.18445 188.339224 
L 376.703933 199.878203 
L 377.843545 206.707324 
L 378.603287 209.936242 
L 379.363028 211.905492 
L 379.742899 212.38365 
L 380.12277 212.514545 
L 380.502641 212.296503 
L 380.882512 211.732313 
L 381.262382 210.8292 
L 382.022124 208.056644 
L 382.781866 204.120368 
L 383.921478 196.487305 
L 386.200703 178.391765 
L 387.340315 169.996613 
L 388.479927 163.345229 
L 389.239669 160.266006 
L 389.61954 159.197501 
L 389.99941 158.462672 
L 390.379281 158.070929 
L 390.759152 158.027285 
L 391.139023 158.3323 
L 391.518893 158.98207 
L 391.898764 159.968274 
L 392.658506 162.895336 
L 393.418247 166.964066 
L 394.55786 174.740067 
L 398.356567 203.555934 
L 399.116309 207.624664 
L 399.876051 210.551726 
L 400.255921 211.53793 
L 400.635792 212.1877 
L 401.015663 212.492715 
L 401.395534 212.449071 
L 401.775404 212.057328 
L 402.155275 211.322499 
L 402.915017 208.865492 
L 403.674758 205.203475 
L 404.814371 197.874512 
L 406.333854 186.03135 
L 408.233208 171.29869 
L 409.37282 164.297302 
L 410.132562 160.921275 
L 410.892303 158.787687 
L 411.272174 158.223497 
L 411.652045 158.005455 
L 412.031916 158.13635 
L 412.411786 158.614508 
L 412.791657 159.433807 
L 413.551399 162.049636 
L 414.31114 165.850305 
L 415.450753 173.334315 
L 417.350106 188.339224 
L 418.86959 199.878203 
L 420.009202 206.707324 
L 420.768943 209.936242 
L 421.528685 211.905492 
L 421.908556 212.38365 
L 422.288427 212.514545 
L 422.668297 212.296503 
L 423.048168 211.732313 
L 423.428039 210.8292 
L 424.187781 208.056644 
L 424.947522 204.120368 
L 426.087134 196.487305 
L 428.366359 178.391765 
L 429.505971 169.996613 
L 430.645584 163.345229 
L 431.025455 161.654508 
L 431.025455 161.654508 
" clip-path="url(#p8efb08e0f4)" style="fill: none; stroke: #0000ff; stroke-width: 1.5; stroke-linecap: square"/>
   </g>
   <g id="patch_8">
    <path d="M 32.56 215.24 
L 32.56 155.28 
" style="fill: none; stroke: #000000; stroke-width: 0.8; stroke-linejoin: miter; stroke-linecap: square"/>
   </g>
   <g id="patch_9">
    <path d="M 450 215.24 
L 450 155.28 
" style="fill: none; stroke: #000000; stroke-width: 0.8; stroke-linejoin: miter; stroke-linecap: square"/>
   </g>
   <g id="patch_10">
    <path d="M 32.56 215.24 
L 450 215.24 
" style="fill: none; stroke: #000000; stroke-width: 0.8; stroke-linejoin: miter; stroke-linecap: square"/>
   </g>
   <g id="patch_11">
    <path d="M 32.56 155.28 
L 450 155.28 
" style="fill: none; stroke: #000000; stroke-width: 0.8; stroke-linejoin: miter; stroke-linecap: square"/>
   </g>
   <g id="text_24">
    <!-- Sine amp:2; freq:240; phi:pi/3 -->
    <g transform="translate(151.344688 149.28) scale(0.12 -0.12)">
     <defs>
      <path id="DejaVuSans-53" d="M 3425 4513 
L 3425 3897 
Q 3066 4069 2747 4153 
Q 2428 4238 2131 4238 
Q 1616 4238 1336 4038 
Q 1056 3838 1056 3469 
Q 1056 3159 1242 3001 
Q 1428 2844 1947 2747 
L 2328 2669 
Q 3034 2534 3370 2195 
Q 3706 1856 3706 1288 
Q 3706 609 3251 259 
Q 2797 -91 1919 -91 
Q 1588 -91 1214 -16 
Q 841 59 441 206 
L 441 856 
Q 825 641 1194 531 
Q 1563 422 1919 422 
Q 2459 422 2753 634 
Q 3047 847 3047 1241 
Q 3047 1584 2836 1778 
Q 2625 1972 2144 2069 
L 1759 2144 
Q 1053 2284 737 2584 
Q 422 2884 422 3419 
Q 422 4038 858 4394 
Q 1294 4750 2059 4750 
Q 2388 4750 2728 4690 
Q 3069 4631 3425 4513 
z
" transform="scale(0.015625)"/>
     </defs>
     <use xlink:href="#DejaVuSans-53"/>
     <use xlink:href="#DejaVuSans-69" x="63.476562"/>
     <use xlink:href="#DejaVuSans-6e" x="91.259766"/>
     <use xlink:href="#DejaVuSans-65" x="154.638672"/>
     <use xlink:href="#DejaVuSans-20" x="216.162109"/>
     <use xlink:href="#DejaVuSans-61" x="247.949219"/>
     <use xlink:href="#DejaVuSans-6d" x="309.228516"/>
     <use xlink:href="#DejaVuSans-70" x="406.640625"/>
     <use xlink:href="#DejaVuSans-3a" x="470.117188"/>
     <use xlink:href="#DejaVuSans-32" x="503.808594"/>
     <use xlink:href="#DejaVuSans-3b" x="567.431641"/>
     <use xlink:href="#DejaVuSans-20" x="601.123047"/>
     <use xlink:href="#DejaVuSans-66" x="632.910156"/>
     <use xlink:href="#DejaVuSans-72" x="668.115234"/>
     <use xlink:href="#DejaVuSans-65" x="706.978516"/>
     <use xlink:href="#DejaVuSans-71" x="768.501953"/>
     <use xlink:href="#DejaVuSans-3a" x="831.978516"/>
     <use xlink:href="#DejaVuSans-32" x="865.669922"/>
     <use xlink:href="#DejaVuSans-34" x="929.292969"/>
     <use xlink:href="#DejaVuSans-30" x="992.916016"/>
     <use xlink:href="#DejaVuSans-3b" x="1056.539062"/>
     <use xlink:href="#DejaVuSans-20" x="1090.230469"/>
     <use xlink:href="#DejaVuSans-70" x="1122.017578"/>
     <use xlink:href="#DejaVuSans-68" x="1185.494141"/>
     <use xlink:href="#DejaVuSans-69" x="1248.873047"/>
     <use xlink:href="#DejaVuSans-3a" x="1276.65625"/>
     <use xlink:href="#DejaVuSans-70" x="1310.347656"/>
     <use xlink:href="#DejaVuSans-69" x="1373.824219"/>
     <use xlink:href="#DejaVuSans-2f" x="1401.607422"/>
     <use xlink:href="#DejaVuSans-33" x="1435.298828"/>
    </g>
   </g>
  </g>
  <g id="axes_3">
   <g id="patch_12">
    <path d="M 32.56 317.72 
L 450 317.72 
L 450 257.76 
L 32.56 257.76 
z
" style="fill: #ffffff"/>
   </g>
   <g id="matplotlib.axis_5">
    <g id="xtick_17">
     <g id="line2d_26">
      <g>
       <use xlink:href="#m2dac4a7ccb" x="51.534545" y="317.72" style="stroke: #000000; stroke-width: 0.8"/>
      </g>
     </g>
     <g id="text_25">
      <!-- 0.00 -->
      <g transform="translate(40.401733 332.318438) scale(0.1 -0.1)">
       <use xlink:href="#DejaVuSans-30"/>
       <use xlink:href="#DejaVuSans-2e" x="63.623047"/>
       <use xlink:href="#DejaVuSans-30" x="95.410156"/>
       <use xlink:href="#DejaVuSans-30" x="159.033203"/>
      </g>
     </g>
    </g>
    <g id="xtick_18">
     <g id="line2d_27">
      <g>
       <use xlink:href="#m2dac4a7ccb" x="102.133333" y="317.72" style="stroke: #000000; stroke-width: 0.8"/>
      </g>
     </g>
     <g id="text_26">
      <!-- 0.01 -->
      <g transform="translate(91.000521 332.318438) scale(0.1 -0.1)">
       <use xlink:href="#DejaVuSans-30"/>
       <use xlink:href="#DejaVuSans-2e" x="63.623047"/>
       <use xlink:href="#DejaVuSans-30" x="95.410156"/>
       <use xlink:href="#DejaVuSans-31" x="159.033203"/>
      </g>
     </g>
    </g>
    <g id="xtick_19">
     <g id="line2d_28">
      <g>
       <use xlink:href="#m2dac4a7ccb" x="152.732121" y="317.72" style="stroke: #000000; stroke-width: 0.8"/>
      </g>
     </g>
     <g id="text_27">
      <!-- 0.02 -->
      <g transform="translate(141.599309 332.318438) scale(0.1 -0.1)">
       <use xlink:href="#DejaVuSans-30"/>
       <use xlink:href="#DejaVuSans-2e" x="63.623047"/>
       <use xlink:href="#DejaVuSans-30" x="95.410156"/>
       <use xlink:href="#DejaVuSans-32" x="159.033203"/>
      </g>
     </g>
    </g>
    <g id="xtick_20">
     <g id="line2d_29">
      <g>
       <use xlink:href="#m2dac4a7ccb" x="203.330909" y="317.72" style="stroke: #000000; stroke-width: 0.8"/>
      </g>
     </g>
     <g id="text_28">
      <!-- 0.03 -->
      <g transform="translate(192.198097 332.318438) scale(0.1 -0.1)">
       <use xlink:href="#DejaVuSans-30"/>
       <use xlink:href="#DejaVuSans-2e" x="63.623047"/>
       <use xlink:href="#DejaVuSans-30" x="95.410156"/>
       <use xlink:href="#DejaVuSans-33" x="159.033203"/>
      </g>
     </g>
    </g>
    <g id="xtick_21">
     <g id="line2d_30">
      <g>
       <use xlink:href="#m2dac4a7ccb" x="253.929697" y="317.72" style="stroke: #000000; stroke-width: 0.8"/>
      </g>
     </g>
     <g id="text_29">
      <!-- 0.04 -->
      <g transform="translate(242.796884 332.318438) scale(0.1 -0.1)">
       <use xlink:href="#DejaVuSans-30"/>
       <use xlink:href="#DejaVuSans-2e" x="63.623047"/>
       <use xlink:href="#DejaVuSans-30" x="95.410156"/>
       <use xlink:href="#DejaVuSans-34" x="159.033203"/>
      </g>
     </g>
    </g>
    <g id="xtick_22">
     <g id="line2d_31">
      <g>
       <use xlink:href="#m2dac4a7ccb" x="304.528485" y="317.72" style="stroke: #000000; stroke-width: 0.8"/>
      </g>
     </g>
     <g id="text_30">
      <!-- 0.05 -->
      <g transform="translate(293.395672 332.318438) scale(0.1 -0.1)">
       <use xlink:href="#DejaVuSans-30"/>
       <use xlink:href="#DejaVuSans-2e" x="63.623047"/>
       <use xlink:href="#DejaVuSans-30" x="95.410156"/>
       <use xlink:href="#DejaVuSans-35" x="159.033203"/>
      </g>
     </g>
    </g>
    <g id="xtick_23">
     <g id="line2d_32">
      <g>
       <use xlink:href="#m2dac4a7ccb" x="355.127273" y="317.72" style="stroke: #000000; stroke-width: 0.8"/>
      </g>
     </g>
     <g id="text_31">
      <!-- 0.06 -->
      <g transform="translate(343.99446 332.318438) scale(0.1 -0.1)">
       <use xlink:href="#DejaVuSans-30"/>
       <use xlink:href="#DejaVuSans-2e" x="63.623047"/>
       <use xlink:href="#DejaVuSans-30" x="95.410156"/>
       <use xlink:href="#DejaVuSans-36" x="159.033203"/>
      </g>
     </g>
    </g>
    <g id="xtick_24">
     <g id="line2d_33">
      <g>
       <use xlink:href="#m2dac4a7ccb" x="405.726061" y="317.72" style="stroke: #000000; stroke-width: 0.8"/>
      </g>
     </g>
     <g id="text_32">
      <!-- 0.07 -->
      <g transform="translate(394.593248 332.318438) scale(0.1 -0.1)">
       <use xlink:href="#DejaVuSans-30"/>
       <use xlink:href="#DejaVuSans-2e" x="63.623047"/>
       <use xlink:href="#DejaVuSans-30" x="95.410156"/>
       <use xlink:href="#DejaVuSans-37" x="159.033203"/>
      </g>
     </g>
    </g>
   </g>
   <g id="matplotlib.axis_6">
    <g id="ytick_7">
     <g id="line2d_34">
      <g>
       <use xlink:href="#m99cd08aeb6" x="32.56" y="314.994545" style="stroke: #000000; stroke-width: 0.8"/>
      </g>
     </g>
     <g id="text_33">
      <!-- −2 -->
      <g transform="translate(10.817813 318.793764) scale(0.1 -0.1)">
       <use xlink:href="#DejaVuSans-2212"/>
       <use xlink:href="#DejaVuSans-32" x="83.789062"/>
      </g>
     </g>
    </g>
    <g id="ytick_8">
     <g id="line2d_35">
      <g>
       <use xlink:href="#m99cd08aeb6" x="32.56" y="287.734541" style="stroke: #000000; stroke-width: 0.8"/>
      </g>
     </g>
     <g id="text_34">
      <!-- 0 -->
      <g transform="translate(19.1975 291.53376) scale(0.1 -0.1)">
       <use xlink:href="#DejaVuSans-30"/>
      </g>
     </g>
    </g>
    <g id="ytick_9">
     <g id="line2d_36">
      <g>
       <use xlink:href="#m99cd08aeb6" x="32.56" y="260.474537" style="stroke: #000000; stroke-width: 0.8"/>
      </g>
     </g>
     <g id="text_35">
      <!-- 2 -->
      <g transform="translate(19.1975 264.273756) scale(0.1 -0.1)">
       <use xlink:href="#DejaVuSans-32"/>
      </g>
     </g>
    </g>
   </g>
   <g id="line2d_37">
    <path d="M 51.534545 274.104539 
L 53.054029 285.807325 
L 54.953382 300.691009 
L 56.092995 307.940966 
L 56.852736 311.53291 
L 57.612478 313.909998 
L 57.992349 314.602435 
L 58.372219 314.950884 
L 58.75209 314.950884 
L 59.131961 314.602435 
L 59.511832 313.909998 
L 59.891703 312.882437 
L 60.651444 309.878693 
L 61.411186 305.744537 
L 62.550798 297.89861 
L 66.349506 269.15267 
L 67.109247 265.149365 
L 67.868989 262.298985 
L 68.24886 261.354137 
L 68.628731 260.747036 
L 69.008601 260.485455 
L 69.388472 260.572742 
L 69.768343 261.00778 
L 70.148214 261.784999 
L 70.907955 264.321925 
L 71.667697 268.054015 
L 72.807309 275.461985 
L 74.706663 290.430482 
L 76.226146 302.02716 
L 77.365758 308.943799 
L 78.1255 312.246934 
L 78.885242 314.298763 
L 79.265112 314.820041 
L 79.644983 314.994545 
L 80.024854 314.820041 
L 80.404725 314.298763 
L 80.784596 313.437384 
L 81.544337 310.742652 
L 82.304079 306.873405 
L 83.443691 299.313355 
L 85.343045 284.272035 
L 86.862528 272.790754 
L 88.00214 266.049152 
L 88.761882 262.894449 
L 89.521623 261.00778 
L 89.901494 260.572742 
L 90.281365 260.485455 
L 90.661236 260.747036 
L 91.041107 261.354137 
L 91.420977 262.298985 
L 92.180719 265.149365 
L 92.94046 269.15267 
L 94.080073 276.858744 
L 98.258651 307.940966 
L 99.018393 311.53291 
L 99.778134 313.909998 
L 100.158005 314.602435 
L 100.537876 314.950884 
L 100.917747 314.950884 
L 101.297618 314.602435 
L 101.677488 313.909998 
L 102.057359 312.882437 
L 102.817101 309.878693 
L 103.576842 305.744537 
L 104.716455 297.89861 
L 108.515162 269.15267 
L 109.274904 265.149365 
L 110.034646 262.298985 
L 110.414516 261.354137 
L 110.794387 260.747036 
L 111.174258 260.485455 
L 111.554129 260.572742 
L 111.933999 261.00778 
L 112.31387 261.784999 
L 113.073612 264.321925 
L 113.833353 268.054015 
L 114.972966 275.461985 
L 116.87232 290.430482 
L 118.391803 302.02716 
L 119.531415 308.943799 
L 120.291157 312.246934 
L 121.050898 314.298763 
L 121.430769 314.820041 
L 121.81064 314.994545 
L 122.190511 314.820041 
L 122.570381 314.298763 
L 122.950252 313.437384 
L 123.709994 310.742652 
L 124.469735 306.873405 
L 125.609348 299.313355 
L 127.508701 284.272035 
L 129.028185 272.790754 
L 130.167797 266.049152 
L 130.927538 262.894449 
L 131.68728 261.00778 
L 132.067151 260.572742 
L 132.447022 260.485455 
L 132.826892 260.747036 
L 133.206763 261.354137 
L 133.586634 262.298985 
L 134.346375 265.149365 
L 135.106117 269.15267 
L 136.245729 276.858744 
L 140.424308 307.940966 
L 141.18405 311.53291 
L 141.943791 313.909998 
L 142.323662 314.602435 
L 142.703533 314.950884 
L 143.083403 314.950884 
L 143.463274 314.602435 
L 143.843145 313.909998 
L 144.223016 312.882437 
L 144.982757 309.878693 
L 145.742499 305.744537 
L 146.882111 297.89861 
L 150.680819 269.15267 
L 151.440561 265.149365 
L 152.200302 262.298985 
L 152.580173 261.354137 
L 152.960044 260.747036 
L 153.339914 260.485455 
L 153.719785 260.572742 
L 154.099656 261.00778 
L 154.479527 261.784999 
L 155.239268 264.321925 
L 155.99901 268.054015 
L 157.138622 275.461985 
L 159.037976 290.430482 
L 160.557459 302.02716 
L 161.697072 308.943799 
L 162.456813 312.246934 
L 163.216555 314.298763 
L 163.596426 314.820041 
L 163.976296 314.994545 
L 164.356167 314.820041 
L 164.736038 314.298763 
L 165.115909 313.437384 
L 165.87565 310.742652 
L 166.635392 306.873405 
L 167.775004 299.313355 
L 169.674358 284.272035 
L 171.193841 272.790754 
L 172.333453 266.049152 
L 173.093195 262.894449 
L 173.852937 261.00778 
L 174.232807 260.572742 
L 174.612678 260.485455 
L 174.992549 260.747036 
L 175.37242 261.354137 
L 175.75229 262.298985 
L 176.512032 265.149365 
L 177.271774 269.15267 
L 178.411386 276.858744 
L 182.589965 307.940966 
L 183.349706 311.53291 
L 184.109448 313.909998 
L 184.489318 314.602435 
L 184.869189 314.950884 
L 185.24906 314.950884 
L 185.628931 314.602435 
L 186.008802 313.909998 
L 186.388672 312.882437 
L 187.148414 309.878693 
L 187.908155 305.744537 
L 189.047768 297.89861 
L 192.846476 269.15267 
L 193.606217 265.149365 
L 194.365959 262.298985 
L 194.745829 261.354137 
L 195.1257 260.747036 
L 195.505571 260.485455 
L 195.885442 260.572742 
L 196.265313 261.00778 
L 196.645183 261.784999 
L 197.404925 264.321925 
L 198.164666 268.054015 
L 199.304279 275.461985 
L 201.203633 290.430482 
L 202.723116 302.02716 
L 203.862728 308.943799 
L 204.62247 312.246934 
L 205.382211 314.298763 
L 205.762082 314.820041 
L 206.141953 314.994545 
L 206.521824 314.820041 
L 206.901694 314.298763 
L 207.281565 313.437384 
L 208.041307 310.742652 
L 208.801048 306.873405 
L 209.940661 299.313355 
L 211.840015 284.272035 
L 213.359498 272.790754 
L 214.49911 266.049152 
L 215.258852 262.894449 
L 216.018593 261.00778 
L 216.398464 260.572742 
L 216.778335 260.485455 
L 217.158205 260.747036 
L 217.538076 261.354137 
L 217.917947 262.298985 
L 218.677689 265.149365 
L 219.43743 269.15267 
L 220.577042 276.858744 
L 224.755621 307.940966 
L 225.515363 311.53291 
L 226.275104 313.909998 
L 226.654975 314.602435 
L 227.034846 314.950884 
L 227.414717 314.950884 
L 227.794587 314.602435 
L 228.174458 313.909998 
L 228.554329 312.882437 
L 229.31407 309.878693 
L 230.073812 305.744537 
L 231.213424 297.89861 
L 235.012132 269.15267 
L 235.771874 265.149365 
L 236.531615 262.298985 
L 236.911486 261.354137 
L 237.291357 260.747036 
L 237.671228 260.485455 
L 238.051098 260.572742 
L 238.430969 261.00778 
L 238.81084 261.784999 
L 239.570581 264.321925 
L 240.330323 268.054015 
L 241.469935 275.461985 
L 243.369289 290.430482 
L 244.888772 302.02716 
L 246.028385 308.943799 
L 246.788126 312.246934 
L 247.547868 314.298763 
L 247.927739 314.820041 
L 248.307609 314.994545 
L 248.68748 314.820041 
L 249.067351 314.298763 
L 249.447222 313.437384 
L 250.206963 310.742652 
L 250.966705 306.873405 
L 252.106317 299.313355 
L 254.005671 284.272035 
L 255.525154 272.790754 
L 256.664767 266.049152 
L 257.424508 262.894449 
L 258.18425 261.00778 
L 258.56412 260.572742 
L 258.943991 260.485455 
L 259.323862 260.747036 
L 259.703733 261.354137 
L 260.083604 262.298985 
L 260.843345 265.149365 
L 261.603087 269.15267 
L 262.742699 276.858744 
L 266.921278 307.940966 
L 267.681019 311.53291 
L 268.440761 313.909998 
L 268.820632 314.602435 
L 269.200502 314.950884 
L 269.580373 314.950884 
L 269.960244 314.602435 
L 270.340115 313.909998 
L 270.719985 312.882437 
L 271.479727 309.878693 
L 272.239469 305.744537 
L 273.379081 297.89861 
L 277.177789 269.15267 
L 277.93753 265.149365 
L 278.697272 262.298985 
L 279.077143 261.354137 
L 279.457013 260.747036 
L 279.836884 260.485455 
L 280.216755 260.572742 
L 280.596626 261.00778 
L 280.976496 261.784999 
L 281.736238 264.321925 
L 282.49598 268.054015 
L 283.635592 275.461985 
L 285.534946 290.430482 
L 287.054429 302.02716 
L 288.194041 308.943799 
L 288.953783 312.246934 
L 289.713524 314.298763 
L 290.093395 314.820041 
L 290.473266 314.994545 
L 290.853137 314.820041 
L 291.233008 314.298763 
L 291.612878 313.437384 
L 292.37262 310.742652 
L 293.132361 306.873405 
L 294.271974 299.313355 
L 296.171328 284.272035 
L 297.690811 272.790754 
L 298.830423 266.049152 
L 299.590165 262.894449 
L 300.349906 261.00778 
L 300.729777 260.572742 
L 301.109648 260.485455 
L 301.489519 260.747036 
L 301.869389 261.354137 
L 302.24926 262.298985 
L 303.009002 265.149365 
L 303.768743 269.15267 
L 304.908356 276.858744 
L 309.086934 307.940966 
L 309.846676 311.53291 
L 310.606417 313.909998 
L 310.986288 314.602435 
L 311.366159 314.950884 
L 311.74603 314.950884 
L 312.1259 314.602435 
L 312.505771 313.909998 
L 312.885642 312.882437 
L 313.645384 309.878693 
L 314.405125 305.744537 
L 315.544737 297.89861 
L 319.343445 269.15267 
L 320.103187 265.149365 
L 320.862928 262.298985 
L 321.242799 261.354137 
L 321.62267 260.747036 
L 322.002541 260.485455 
L 322.382412 260.572742 
L 322.762282 261.00778 
L 323.142153 261.784999 
L 323.901895 264.321925 
L 324.661636 268.054015 
L 325.801249 275.461985 
L 327.700602 290.430482 
L 329.220086 302.02716 
L 330.359698 308.943799 
L 331.119439 312.246934 
L 331.879181 314.298763 
L 332.259052 314.820041 
L 332.638923 314.994545 
L 333.018793 314.820041 
L 333.398664 314.298763 
L 333.778535 313.437384 
L 334.538276 310.742652 
L 335.298018 306.873405 
L 336.43763 299.313355 
L 338.336984 284.272035 
L 339.856467 272.790754 
L 340.99608 266.049152 
L 341.755821 262.894449 
L 342.515563 261.00778 
L 342.895434 260.572742 
L 343.275304 260.485455 
L 343.655175 260.747036 
L 344.035046 261.354137 
L 344.414917 262.298985 
L 345.174658 265.149365 
L 345.9344 269.15267 
L 347.074012 276.858744 
L 351.252591 307.940966 
L 352.012332 311.53291 
L 352.772074 313.909998 
L 353.151945 314.602435 
L 353.531815 314.950884 
L 353.911686 314.950884 
L 354.291557 314.602435 
L 354.671428 313.909998 
L 355.051299 312.882437 
L 355.81104 309.878693 
L 356.570782 305.744537 
L 357.710394 297.89861 
L 361.509102 269.15267 
L 362.268843 265.149365 
L 363.028585 262.298985 
L 363.408456 261.354137 
L 363.788327 260.747036 
L 364.168197 260.485455 
L 364.548068 260.572742 
L 364.927939 261.00778 
L 365.30781 261.784999 
L 366.067551 264.321925 
L 366.827293 268.054015 
L 367.966905 275.461985 
L 369.866259 290.430482 
L 371.385742 302.02716 
L 372.525354 308.943799 
L 373.285096 312.246934 
L 374.044838 314.298763 
L 374.424708 314.820041 
L 374.804579 314.994545 
L 375.18445 314.820041 
L 375.564321 314.298763 
L 375.944191 313.437384 
L 376.703933 310.742652 
L 377.463675 306.873405 
L 378.603287 299.313355 
L 380.502641 284.272035 
L 382.022124 272.790754 
L 383.161736 266.049152 
L 383.921478 262.894449 
L 384.681219 261.00778 
L 385.06109 260.572742 
L 385.440961 260.485455 
L 385.820832 260.747036 
L 386.200703 261.354137 
L 386.580573 262.298985 
L 387.340315 265.149365 
L 388.100056 269.15267 
L 389.239669 276.858744 
L 393.418247 307.940966 
L 394.177989 311.53291 
L 394.93773 313.909998 
L 395.317601 314.602435 
L 395.697472 314.950884 
L 396.077343 314.950884 
L 396.457214 314.602435 
L 396.837084 313.909998 
L 397.216955 312.882437 
L 397.976697 309.878693 
L 398.736438 305.744537 
L 399.876051 297.89861 
L 403.674758 269.15267 
L 404.4345 265.149365 
L 405.194242 262.298985 
L 405.574112 261.354137 
L 405.953983 260.747036 
L 406.333854 260.485455 
L 406.713725 260.572742 
L 407.093595 261.00778 
L 407.473466 261.784999 
L 408.233208 264.321925 
L 408.992949 268.054015 
L 410.132562 275.461985 
L 412.031916 290.430482 
L 413.551399 302.02716 
L 414.691011 308.943799 
L 415.450753 312.246934 
L 416.210494 314.298763 
L 416.590365 314.820041 
L 416.970236 314.994545 
L 417.350106 314.820041 
L 417.729977 314.298763 
L 418.109848 313.437384 
L 418.86959 310.742652 
L 419.629331 306.873405 
L 420.768943 299.313355 
L 422.668297 284.272035 
L 424.187781 272.790754 
L 425.327393 266.049152 
L 426.087134 262.894449 
L 426.846876 261.00778 
L 427.226747 260.572742 
L 427.606618 260.485455 
L 427.986488 260.747036 
L 428.366359 261.354137 
L 428.74623 262.298985 
L 429.505971 265.149365 
L 430.265713 269.15267 
L 431.025455 274.104539 
L 431.025455 274.104539 
" clip-path="url(#p09df177a1a)" style="fill: none; stroke: #ff0000; stroke-width: 1.5; stroke-linecap: square"/>
   </g>
   <g id="patch_13">
    <path d="M 32.56 317.72 
L 32.56 257.76 
" style="fill: none; stroke: #000000; stroke-width: 0.8; stroke-linejoin: miter; stroke-linecap: square"/>
   </g>
   <g id="patch_14">
    <path d="M 450 317.72 
L 450 257.76 
" style="fill: none; stroke: #000000; stroke-width: 0.8; stroke-linejoin: miter; stroke-linecap: square"/>
   </g>
   <g id="patch_15">
    <path d="M 32.56 317.72 
L 450 317.72 
" style="fill: none; stroke: #000000; stroke-width: 0.8; stroke-linejoin: miter; stroke-linecap: square"/>
   </g>
   <g id="patch_16">
    <path d="M 32.56 257.76 
L 450 257.76 
" style="fill: none; stroke: #000000; stroke-width: 0.8; stroke-linejoin: miter; stroke-linecap: square"/>
   </g>
   <g id="text_36">
    <!-- Cosine amp:2; freq:240; phi:pi/3-pi/2 -->
    <g transform="translate(130.687813 251.76) scale(0.12 -0.12)">
     <defs>
      <path id="DejaVuSans-2d" d="M 313 2009 
L 1997 2009 
L 1997 1497 
L 313 1497 
L 313 2009 
z
" transform="scale(0.015625)"/>
     </defs>
     <use xlink:href="#DejaVuSans-43"/>
     <use xlink:href="#DejaVuSans-6f" x="69.824219"/>
     <use xlink:href="#DejaVuSans-73" x="131.005859"/>
     <use xlink:href="#DejaVuSans-69" x="183.105469"/>
     <use xlink:href="#DejaVuSans-6e" x="210.888672"/>
     <use xlink:href="#DejaVuSans-65" x="274.267578"/>
     <use xlink:href="#DejaVuSans-20" x="335.791016"/>
     <use xlink:href="#DejaVuSans-61" x="367.578125"/>
     <use xlink:href="#DejaVuSans-6d" x="428.857422"/>
     <use xlink:href="#DejaVuSans-70" x="526.269531"/>
     <use xlink:href="#DejaVuSans-3a" x="589.746094"/>
     <use xlink:href="#DejaVuSans-32" x="623.4375"/>
     <use xlink:href="#DejaVuSans-3b" x="687.060547"/>
     <use xlink:href="#DejaVuSans-20" x="720.751953"/>
     <use xlink:href="#DejaVuSans-66" x="752.539062"/>
     <use xlink:href="#DejaVuSans-72" x="787.744141"/>
     <use xlink:href="#DejaVuSans-65" x="826.607422"/>
     <use xlink:href="#DejaVuSans-71" x="888.130859"/>
     <use xlink:href="#DejaVuSans-3a" x="951.607422"/>
     <use xlink:href="#DejaVuSans-32" x="985.298828"/>
     <use xlink:href="#DejaVuSans-34" x="1048.921875"/>
     <use xlink:href="#DejaVuSans-30" x="1112.544922"/>
     <use xlink:href="#DejaVuSans-3b" x="1176.167969"/>
     <use xlink:href="#DejaVuSans-20" x="1209.859375"/>
     <use xlink:href="#DejaVuSans-70" x="1241.646484"/>
     <use xlink:href="#DejaVuSans-68" x="1305.123047"/>
     <use xlink:href="#DejaVuSans-69" x="1368.501953"/>
     <use xlink:href="#DejaVuSans-3a" x="1396.285156"/>
     <use xlink:href="#DejaVuSans-70" x="1429.976562"/>
     <use xlink:href="#DejaVuSans-69" x="1493.453125"/>
     <use xlink:href="#DejaVuSans-2f" x="1521.236328"/>
     <use xlink:href="#DejaVuSans-33" x="1554.927734"/>
     <use xlink:href="#DejaVuSans-2d" x="1618.550781"/>
     <use xlink:href="#DejaVuSans-70" x="1654.634766"/>
     <use xlink:href="#DejaVuSans-69" x="1718.111328"/>
     <use xlink:href="#DejaVuSans-2f" x="1745.894531"/>
     <use xlink:href="#DejaVuSans-32" x="1779.585938"/>
    </g>
   </g>
  </g>
  <g id="text_37">
   <!-- Signals read from saved audio wav files. -->
   <g transform="translate(68.72875 19.0695) scale(0.16 -0.16)">
    <defs>
     <path id="DejaVuSans-67" d="M 2906 1791 
Q 2906 2416 2648 2759 
Q 2391 3103 1925 3103 
Q 1463 3103 1205 2759 
Q 947 2416 947 1791 
Q 947 1169 1205 825 
Q 1463 481 1925 481 
Q 2391 481 2648 825 
Q 2906 1169 2906 1791 
z
M 3481 434 
Q 3481 -459 3084 -895 
Q 2688 -1331 1869 -1331 
Q 1566 -1331 1297 -1286 
Q 1028 -1241 775 -1147 
L 775 -588 
Q 1028 -725 1275 -790 
Q 1522 -856 1778 -856 
Q 2344 -856 2625 -561 
Q 2906 -266 2906 331 
L 2906 616 
Q 2728 306 2450 153 
Q 2172 0 1784 0 
Q 1141 0 747 490 
Q 353 981 353 1791 
Q 353 2603 747 3093 
Q 1141 3584 1784 3584 
Q 2172 3584 2450 3431 
Q 2728 3278 2906 2969 
L 2906 3500 
L 3481 3500 
L 3481 434 
z
" transform="scale(0.015625)"/>
     <path id="DejaVuSans-6c" d="M 603 4863 
L 1178 4863 
L 1178 0 
L 603 0 
L 603 4863 
z
" transform="scale(0.015625)"/>
     <path id="DejaVuSans-76" d="M 191 3500 
L 800 3500 
L 1894 563 
L 2988 3500 
L 3597 3500 
L 2284 0 
L 1503 0 
L 191 3500 
z
" transform="scale(0.015625)"/>
     <path id="DejaVuSans-75" d="M 544 1381 
L 544 3500 
L 1119 3500 
L 1119 1403 
Q 1119 906 1312 657 
Q 1506 409 1894 409 
Q 2359 409 2629 706 
Q 2900 1003 2900 1516 
L 2900 3500 
L 3475 3500 
L 3475 0 
L 2900 0 
L 2900 538 
Q 2691 219 2414 64 
Q 2138 -91 1772 -91 
Q 1169 -91 856 284 
Q 544 659 544 1381 
z
M 1991 3584 
L 1991 3584 
z
" transform="scale(0.015625)"/>
     <path id="DejaVuSans-77" d="M 269 3500 
L 844 3500 
L 1563 769 
L 2278 3500 
L 2956 3500 
L 3675 769 
L 4391 3500 
L 4966 3500 
L 4050 0 
L 3372 0 
L 2619 2869 
L 1863 0 
L 1184 0 
L 269 3500 
z
" transform="scale(0.015625)"/>
    </defs>
    <use xlink:href="#DejaVuSans-53"/>
    <use xlink:href="#DejaVuSans-69" x="63.476562"/>
    <use xlink:href="#DejaVuSans-67" x="91.259766"/>
    <use xlink:href="#DejaVuSans-6e" x="154.736328"/>
    <use xlink:href="#DejaVuSans-61" x="218.115234"/>
    <use xlink:href="#DejaVuSans-6c" x="279.394531"/>
    <use xlink:href="#DejaVuSans-73" x="307.177734"/>
    <use xlink:href="#DejaVuSans-20" x="359.277344"/>
    <use xlink:href="#DejaVuSans-72" x="391.064453"/>
    <use xlink:href="#DejaVuSans-65" x="429.927734"/>
    <use xlink:href="#DejaVuSans-61" x="491.451172"/>
    <use xlink:href="#DejaVuSans-64" x="552.730469"/>
    <use xlink:href="#DejaVuSans-20" x="616.207031"/>
    <use xlink:href="#DejaVuSans-66" x="647.994141"/>
    <use xlink:href="#DejaVuSans-72" x="683.199219"/>
    <use xlink:href="#DejaVuSans-6f" x="722.0625"/>
    <use xlink:href="#DejaVuSans-6d" x="783.244141"/>
    <use xlink:href="#DejaVuSans-20" x="880.65625"/>
    <use xlink:href="#DejaVuSans-73" x="912.443359"/>
    <use xlink:href="#DejaVuSans-61" x="964.542969"/>
    <use xlink:href="#DejaVuSans-76" x="1025.822266"/>
    <use xlink:href="#DejaVuSans-65" x="1085.001953"/>
    <use xlink:href="#DejaVuSans-64" x="1146.525391"/>
    <use xlink:href="#DejaVuSans-20" x="1210.001953"/>
    <use xlink:href="#DejaVuSans-61" x="1241.789062"/>
    <use xlink:href="#DejaVuSans-75" x="1303.068359"/>
    <use xlink:href="#DejaVuSans-64" x="1366.447266"/>
    <use xlink:href="#DejaVuSans-69" x="1429.923828"/>
    <use xlink:href="#DejaVuSans-6f" x="1457.707031"/>
    <use xlink:href="#DejaVuSans-20" x="1518.888672"/>
    <use xlink:href="#DejaVuSans-77" x="1550.675781"/>
    <use xlink:href="#DejaVuSans-61" x="1632.462891"/>
    <use xlink:href="#DejaVuSans-76" x="1693.742188"/>
    <use xlink:href="#DejaVuSans-20" x="1752.921875"/>
    <use xlink:href="#DejaVuSans-66" x="1784.708984"/>
    <use xlink:href="#DejaVuSans-69" x="1819.914062"/>
    <use xlink:href="#DejaVuSans-6c" x="1847.697266"/>
    <use xlink:href="#DejaVuSans-65" x="1875.480469"/>
    <use xlink:href="#DejaVuSans-73" x="1937.003906"/>
    <use xlink:href="#DejaVuSans-2e" x="1989.103516"/>
   </g>
  </g>
 </g>
 <defs>
  <clipPath id="paf2b3674ba">
   <rect x="32.56" y="52.8" width="417.44" height="59.96"/>
  </clipPath>
  <clipPath id="p8efb08e0f4">
   <rect x="32.56" y="155.28" width="417.44" height="59.96"/>
  </clipPath>
  <clipPath id="p09df177a1a">
   <rect x="32.56" y="257.76" width="417.44" height="59.96"/>
  </clipPath>
 </defs>
</svg>
