<?xml version="1.0" encoding="utf-8" standalone="no"?>
<!DOCTYPE svg PUBLIC "-//W3C//DTD SVG 1.1//EN"
  "http://www.w3.org/Graphics/SVG/1.1/DTD/svg11.dtd">
<svg xmlns:xlink="http://www.w3.org/1999/xlink" width="720pt" height="576pt" viewBox="0 0 720 576" xmlns="http://www.w3.org/2000/svg" version="1.1">
 <metadata>
  <rdf:RDF xmlns:dc="http://purl.org/dc/elements/1.1/" xmlns:cc="http://creativecommons.org/ns#" xmlns:rdf="http://www.w3.org/1999/02/22-rdf-syntax-ns#">
   <cc:Work>
    <dc:type rdf:resource="http://purl.org/dc/dcmitype/StillImage"/>
    <dc:date>2025-11-01T01:36:19.613260</dc:date>
    <dc:format>image/svg+xml</dc:format>
    <dc:creator>
     <cc:Agent>
      <dc:title>Matplotlib v3.6.3, https://matplotlib.org/</dc:title>
     </cc:Agent>
    </dc:creator>
   </cc:Work>
  </rdf:RDF>
 </metadata>
 <defs>
  <style type="text/css">*{stroke-linejoin: round; stroke-linecap: butt}</style>
 </defs>
 <g id="figure_1">
  <g id="patch_1">
   <path d="M 0 576 
L 720 576 
L 720 0 
L 0 0 
z
" style="fill: #ffffff"/>
  </g>
  <g id="axes_1">
   <g id="patch_2">
    <path d="M 33.73 131.66 
L 709.2 131.66 
L 709.2 52.8 
L 33.73 52.8 
z
" style="fill: #ffffff"/>
   </g>
   <g id="matplotlib.axis_1">
    <g id="xtick_1">
     <g id="line2d_1">
      <defs>
       <path id="mbd686d2ba3" d="M 0 0 
L 0 3.5 
" style="stroke: #000000; stroke-width: 0.8"/>
      </defs>
      <g>
       <use xlink:href="#mbd686d2ba3" x="64.433182" y="131.66" style="stroke: #000000; stroke-width: 0.8"/>
      </g>
     </g>
     <g id="text_1">
      <!-- 0.0 -->
      <g transform="translate(56.481619 146.258437) scale(0.1 -0.1)">
       <defs>
        <path id="DejaVuSans-30" d="M 2034 4250 
Q 1547 4250 1301 3770 
Q 1056 3291 1056 2328 
Q 1056 1369 1301 889 
Q 1547 409 2034 409 
Q 2525 409 2770 889 
Q 3016 1369 3016 2328 
Q 3016 3291 2770 3770 
Q 2525 4250 2034 4250 
z
M 2034 4750 
Q 2819 4750 3233 4129 
Q 3647 3509 3647 2328 
Q 3647 1150 3233 529 
Q 2819 -91 2034 -91 
Q 1250 -91 836 529 
Q 422 1150 422 2328 
Q 422 3509 836 4129 
Q 1250 4750 2034 4750 
z
" transform="scale(0.015625)"/>
        <path id="DejaVuSans-2e" d="M 684 794 
L 1344 794 
L 1344 0 
L 684 0 
L 684 794 
z
" transform="scale(0.015625)"/>
       </defs>
       <use xlink:href="#DejaVuSans-30"/>
       <use xlink:href="#DejaVuSans-2e" x="63.623047"/>
       <use xlink:href="#DejaVuSans-30" x="95.410156"/>
      </g>
     </g>
    </g>
    <g id="xtick_2">
     <g id="line2d_2">
      <g>
       <use xlink:href="#mbd686d2ba3" x="199.900412" y="131.66" style="stroke: #000000; stroke-width: 0.8"/>
      </g>
     </g>
     <g id="text_2">
      <!-- 0.5 -->
      <g transform="translate(191.94885 146.258437) scale(0.1 -0.1)">
       <defs>
        <path id="DejaVuSans-35" d="M 691 4666 
L 3169 4666 
L 3169 4134 
L 1269 4134 
L 1269 2991 
Q 1406 3038 1543 3061 
Q 1681 3084 1819 3084 
Q 2600 3084 3056 2656 
Q 3513 2228 3513 1497 
Q 3513 744 3044 326 
Q 2575 -91 1722 -91 
Q 1428 -91 1123 -41 
Q 819 9 494 109 
L 494 744 
Q 775 591 1075 516 
Q 1375 441 1709 441 
Q 2250 441 2565 725 
Q 2881 1009 2881 1497 
Q 2881 1984 2565 2268 
Q 2250 2553 1709 2553 
Q 1456 2553 1204 2497 
Q 953 2441 691 2322 
L 691 4666 
z
" transform="scale(0.015625)"/>
       </defs>
       <use xlink:href="#DejaVuSans-30"/>
       <use xlink:href="#DejaVuSans-2e" x="63.623047"/>
       <use xlink:href="#DejaVuSans-35" x="95.410156"/>
      </g>
     </g>
    </g>
    <g id="xtick_3">
     <g id="line2d_3">
      <g>
       <use xlink:href="#mbd686d2ba3" x="335.367642" y="131.66" style="stroke: #000000; stroke-width: 0.8"/>
      </g>
     </g>
     <g id="text_3">
      <!-- 1.0 -->
      <g transform="translate(327.41608 146.258437) scale(0.1 -0.1)">
       <defs>
        <path id="DejaVuSans-31" d="M 794 531 
L 1825 531 
L 1825 4091 
L 703 3866 
L 703 4441 
L 1819 4666 
L 2450 4666 
L 2450 531 
L 3481 531 
L 3481 0 
L 794 0 
L 794 531 
z
" transform="scale(0.015625)"/>
       </defs>
       <use xlink:href="#DejaVuSans-31"/>
       <use xlink:href="#DejaVuSans-2e" x="63.623047"/>
       <use xlink:href="#DejaVuSans-30" x="95.410156"/>
      </g>
     </g>
    </g>
    <g id="xtick_4">
     <g id="line2d_4">
      <g>
       <use xlink:href="#mbd686d2ba3" x="470.834873" y="131.66" style="stroke: #000000; stroke-width: 0.8"/>
      </g>
     </g>
     <g id="text_4">
      <!-- 1.5 -->
      <g transform="translate(462.88331 146.258437) scale(0.1 -0.1)">
       <use xlink:href="#DejaVuSans-31"/>
       <use xlink:href="#DejaVuSans-2e" x="63.623047"/>
       <use xlink:href="#DejaVuSans-35" x="95.410156"/>
      </g>
     </g>
    </g>
    <g id="xtick_5">
     <g id="line2d_5">
      <g>
       <use xlink:href="#mbd686d2ba3" x="606.302103" y="131.66" style="stroke: #000000; stroke-width: 0.8"/>
      </g>
     </g>
     <g id="text_5">
      <!-- 2.0 -->
      <g transform="translate(598.35054 146.258437) scale(0.1 -0.1)">
       <defs>
        <path id="DejaVuSans-32" d="M 1228 531 
L 3431 531 
L 3431 0 
L 469 0 
L 469 531 
Q 828 903 1448 1529 
Q 2069 2156 2228 2338 
Q 2531 2678 2651 2914 
Q 2772 3150 2772 3378 
Q 2772 3750 2511 3984 
Q 2250 4219 1831 4219 
Q 1534 4219 1204 4116 
Q 875 4013 500 3803 
L 500 4441 
Q 881 4594 1212 4672 
Q 1544 4750 1819 4750 
Q 2544 4750 2975 4387 
Q 3406 4025 3406 3419 
Q 3406 3131 3298 2873 
Q 3191 2616 2906 2266 
Q 2828 2175 2409 1742 
Q 1991 1309 1228 531 
z
" transform="scale(0.015625)"/>
       </defs>
       <use xlink:href="#DejaVuSans-32"/>
       <use xlink:href="#DejaVuSans-2e" x="63.623047"/>
       <use xlink:href="#DejaVuSans-30" x="95.410156"/>
      </g>
     </g>
    </g>
    <g id="text_6">
     <!-- 1e−5 -->
     <g transform="translate(681.942188 158.936562) scale(0.1 -0.1)">
      <defs>
       <path id="DejaVuSans-65" d="M 3597 1894 
L 3597 1613 
L 953 1613 
Q 991 1019 1311 708 
Q 1631 397 2203 397 
Q 2534 397 2845 478 
Q 3156 559 3463 722 
L 3463 178 
Q 3153 47 2828 -22 
Q 2503 -91 2169 -91 
Q 1331 -91 842 396 
Q 353 884 353 1716 
Q 353 2575 817 3079 
Q 1281 3584 2069 3584 
Q 2775 3584 3186 3129 
Q 3597 2675 3597 1894 
z
M 3022 2063 
Q 3016 2534 2758 2815 
Q 2500 3097 2075 3097 
Q 1594 3097 1305 2825 
Q 1016 2553 972 2059 
L 3022 2063 
z
" transform="scale(0.015625)"/>
       <path id="DejaVuSans-2212" d="M 678 2272 
L 4684 2272 
L 4684 1741 
L 678 1741 
L 678 2272 
z
" transform="scale(0.015625)"/>
      </defs>
      <use xlink:href="#DejaVuSans-31"/>
      <use xlink:href="#DejaVuSans-65" x="63.623047"/>
      <use xlink:href="#DejaVuSans-2212" x="125.146484"/>
      <use xlink:href="#DejaVuSans-35" x="208.935547"/>
     </g>
    </g>
   </g>
   <g id="matplotlib.axis_2">
    <g id="ytick_1">
     <g id="line2d_6">
      <defs>
       <path id="mff7b803468" d="M 0 0 
L -3.5 0 
" style="stroke: #000000; stroke-width: 0.8"/>
      </defs>
      <g>
       <use xlink:href="#mff7b803468" x="33.73" y="128.075682" style="stroke: #000000; stroke-width: 0.8"/>
      </g>
     </g>
     <g id="text_7">
      <!-- −1 -->
      <g transform="translate(11.987812 131.874901) scale(0.1 -0.1)">
       <use xlink:href="#DejaVuSans-2212"/>
       <use xlink:href="#DejaVuSans-31" x="83.789062"/>
      </g>
     </g>
    </g>
    <g id="ytick_2">
     <g id="line2d_7">
      <g>
       <use xlink:href="#mff7b803468" x="33.73" y="92.23" style="stroke: #000000; stroke-width: 0.8"/>
      </g>
     </g>
     <g id="text_8">
      <!-- 0 -->
      <g transform="translate(20.3675 96.029219) scale(0.1 -0.1)">
       <use xlink:href="#DejaVuSans-30"/>
      </g>
     </g>
    </g>
    <g id="ytick_3">
     <g id="line2d_8">
      <g>
       <use xlink:href="#mff7b803468" x="33.73" y="56.384318" style="stroke: #000000; stroke-width: 0.8"/>
      </g>
     </g>
     <g id="text_9">
      <!-- 1 -->
      <g transform="translate(20.3675 60.183537) scale(0.1 -0.1)">
       <use xlink:href="#DejaVuSans-31"/>
      </g>
     </g>
    </g>
   </g>
   <g id="line2d_9">
    <path d="M 64.433182 92.23 
L 66.890665 76.447469 
L 68.426592 68.036552 
L 69.655334 62.685019 
L 70.57689 59.662304 
L 71.191261 58.170433 
L 71.805632 57.120571 
L 72.420003 56.526342 
L 73.034373 56.39546 
L 73.648744 56.729621 
L 74.263115 57.52449 
L 74.877486 58.769751 
L 75.491857 60.449243 
L 76.413413 63.733516 
L 77.334969 67.848744 
L 78.563711 74.417845 
L 80.406823 85.879764 
L 84.093048 109.597163 
L 85.32179 116.234414 
L 86.550531 121.629634 
L 87.472088 124.69019 
L 88.086458 126.209102 
L 88.700829 127.28705 
L 89.3152 127.910043 
L 89.929571 128.069997 
L 90.543942 127.764837 
L 91.158313 126.998521 
L 91.772683 125.780996 
L 92.387054 124.128062 
L 93.30861 120.88067 
L 94.230167 116.797825 
L 95.458908 110.2633 
L 96.994835 100.827504 
L 101.295431 73.321382 
L 102.524173 66.928457 
L 103.445729 62.977205 
L 104.367285 59.878964 
L 104.981656 58.333087 
L 105.596027 57.227109 
L 106.210398 56.575382 
L 106.824769 56.386365 
L 107.131954 56.466374 
L 107.746325 56.974132 
L 108.360696 57.939425 
L 108.975066 59.349724 
L 109.896623 62.258004 
L 110.818179 66.040266 
L 112.046921 72.248905 
L 113.582848 81.420558 
L 118.805 114.278677 
L 120.033741 120.09536 
L 120.955297 123.525469 
L 121.876854 126.043003 
L 122.491224 127.176956 
L 123.105595 127.857383 
L 123.719966 128.075455 
L 124.027152 128.009987 
L 124.641522 127.531105 
L 125.255893 126.594103 
L 125.870264 125.211139 
L 126.79182 122.341302 
L 127.713376 118.593421 
L 128.942118 112.422592 
L 130.478045 103.282636 
L 135.700197 70.383217 
L 136.928939 64.525976 
L 137.850495 61.059839 
L 138.772051 58.502622 
L 139.386422 57.340753 
L 140.000793 56.63166 
L 140.615164 56.384545 
L 140.922349 56.435468 
L 141.53672 56.885448 
L 142.151091 57.794113 
L 142.765462 59.149672 
L 143.687018 61.98092 
L 144.608574 65.69423 
L 145.837316 71.826936 
L 147.373243 80.934731 
L 152.90258 115.466189 
L 154.131322 121.033401 
L 155.052878 124.243748 
L 155.974434 126.520575 
L 156.588805 127.485868 
L 157.203176 127.993626 
L 157.510361 128.073635 
L 157.817547 128.03726 
L 158.431918 127.616204 
L 159.046288 126.735923 
L 159.660659 125.407839 
L 160.582215 122.615323 
L 161.503772 118.936772 
L 162.732513 112.8425 
L 164.26844 103.767329 
L 169.797778 69.18884 
L 171.026519 63.57933 
L 171.948076 60.331938 
L 172.869632 58.014692 
L 173.484003 57.021159 
L 174.098374 56.48455 
L 174.405559 56.390003 
L 174.712744 56.411829 
L 175.327115 56.803939 
L 175.941486 57.655792 
L 176.555857 58.956334 
L 177.477413 61.709976 
L 178.398969 65.353581 
L 179.627711 71.40911 
L 181.163638 80.451197 
L 186.692975 115.074962 
L 187.921717 120.726484 
L 188.843273 124.010757 
L 189.764829 126.368304 
L 190.3792 127.390027 
L 190.993571 127.95546 
L 191.607942 128.057265 
L 192.222313 127.69412 
L 192.836684 126.870738 
L 193.451054 125.597804 
L 194.065425 123.891839 
L 194.986981 120.570853 
L 195.908538 116.423448 
L 197.137279 109.820105 
L 198.980392 98.328759 
L 202.666617 74.639895 
L 203.895358 68.036552 
L 205.1241 62.685019 
L 206.045656 59.662304 
L 206.660027 58.170433 
L 207.274398 57.120571 
L 207.888769 56.526342 
L 208.50314 56.39546 
L 209.11751 56.729621 
L 209.731881 57.52449 
L 210.346252 58.769751 
L 210.960623 60.449243 
L 211.882179 63.733516 
L 212.803735 67.848744 
L 214.032477 74.417845 
L 215.875589 85.879764 
L 219.561814 109.597163 
L 220.790556 116.234414 
L 222.019298 121.629634 
L 222.940854 124.69019 
L 223.555225 126.209102 
L 224.169595 127.28705 
L 224.783966 127.910043 
L 225.398337 128.069997 
L 226.012708 127.764837 
L 226.627079 126.998521 
L 227.24145 125.780996 
L 227.85582 124.128062 
L 228.777377 120.88067 
L 229.698933 116.797825 
L 230.927675 110.2633 
L 232.463602 100.827504 
L 236.764197 73.321382 
L 237.992939 66.928457 
L 238.914495 62.977205 
L 239.836051 59.878964 
L 240.450422 58.333087 
L 241.064793 57.227109 
L 241.679164 56.575382 
L 242.293535 56.386365 
L 242.60072 56.466374 
L 243.215091 56.974132 
L 243.829462 57.939425 
L 244.443833 59.349724 
L 245.365389 62.258004 
L 246.286945 66.040266 
L 247.515687 72.248905 
L 249.051614 81.420558 
L 254.273766 114.278677 
L 255.502507 120.09536 
L 256.424064 123.525469 
L 257.34562 126.043003 
L 257.959991 127.176956 
L 258.574361 127.857383 
L 259.188732 128.075455 
L 259.495918 128.009987 
L 260.110289 127.531105 
L 260.724659 126.594103 
L 261.33903 125.211139 
L 262.260586 122.341302 
L 263.182143 118.593421 
L 264.410884 112.422592 
L 265.946811 103.282636 
L 271.168963 70.383217 
L 272.397705 64.525976 
L 273.319261 61.059839 
L 274.240817 58.502622 
L 274.855188 57.340753 
L 275.469559 56.63166 
L 276.08393 56.384545 
L 276.391115 56.435468 
L 277.005486 56.885448 
L 277.619857 57.794113 
L 278.234228 59.149672 
L 279.155784 61.98092 
L 280.07734 65.69423 
L 281.306082 71.826936 
L 282.842009 80.934731 
L 288.371346 115.466189 
L 289.600088 121.033401 
L 290.521644 124.243748 
L 291.4432 126.520575 
L 292.057571 127.485868 
L 292.671942 127.993626 
L 292.979128 128.073635 
L 293.286313 128.03726 
L 293.900684 127.616204 
L 294.515055 126.735923 
L 295.129425 125.407839 
L 296.050982 122.615323 
L 296.972538 118.936772 
L 298.20128 112.8425 
L 299.737207 103.767329 
L 305.266544 69.18884 
L 306.495286 63.57933 
L 307.416842 60.331938 
L 308.338398 58.014692 
L 308.952769 57.021159 
L 309.56714 56.48455 
L 309.874325 56.390003 
L 310.181511 56.411829 
L 310.795881 56.803939 
L 311.410252 57.655792 
L 312.024623 58.956334 
L 312.946179 61.709976 
L 313.867735 65.353581 
L 315.096477 71.40911 
L 316.632404 80.451197 
L 322.161742 115.074962 
L 323.390483 120.726484 
L 324.312039 124.010757 
L 325.233596 126.368304 
L 325.847966 127.390027 
L 326.462337 127.95546 
L 327.076708 128.057265 
L 327.691079 127.69412 
L 328.30545 126.870738 
L 328.919821 125.597804 
L 329.534191 123.891839 
L 330.455748 120.570853 
L 331.377304 116.423448 
L 332.606046 109.820105 
L 334.449158 98.328759 
L 338.135383 74.639895 
L 339.364125 68.036552 
L 340.592866 62.685019 
L 341.514422 59.662304 
L 342.128793 58.170433 
L 342.743164 57.120571 
L 343.357535 56.526342 
L 343.971906 56.39546 
L 344.586277 56.729621 
L 345.200647 57.52449 
L 345.815018 58.769751 
L 346.429389 60.449243 
L 347.350945 63.733516 
L 348.272501 67.848744 
L 349.501243 74.417845 
L 351.344356 85.879764 
L 355.030581 109.597163 
L 356.259322 116.234414 
L 357.488064 121.629634 
L 358.40962 124.69019 
L 359.023991 126.209102 
L 359.638362 127.28705 
L 360.252733 127.910043 
L 360.867103 128.069997 
L 361.481474 127.764837 
L 362.095845 126.998521 
L 362.710216 125.780996 
L 363.324587 124.128062 
L 364.246143 120.88067 
L 365.167699 116.797825 
L 366.396441 110.2633 
L 367.932368 100.827504 
L 372.232964 73.321382 
L 373.461705 66.928457 
L 374.383261 62.977205 
L 375.304818 59.878964 
L 375.919188 58.333087 
L 376.533559 57.227109 
L 377.14793 56.575382 
L 377.762301 56.386365 
L 378.069486 56.466374 
L 378.683857 56.974132 
L 379.298228 57.939425 
L 379.912599 59.349724 
L 380.834155 62.258004 
L 381.755711 66.040266 
L 382.984453 72.248905 
L 384.52038 81.420558 
L 389.742532 114.278677 
L 390.971274 120.09536 
L 391.89283 123.525469 
L 392.814386 126.043003 
L 393.428757 127.176956 
L 394.043128 127.857383 
L 394.657499 128.075455 
L 394.964684 128.009987 
L 395.579055 127.531105 
L 396.193426 126.594103 
L 396.807796 125.211139 
L 397.729353 122.341302 
L 398.650909 118.593421 
L 399.879651 112.422592 
L 401.415578 103.282636 
L 406.63773 70.383217 
L 407.866471 64.525976 
L 408.788027 61.059839 
L 409.709584 58.502622 
L 410.323954 57.340753 
L 410.938325 56.63166 
L 411.552696 56.384545 
L 411.859882 56.435468 
L 412.474252 56.885448 
L 413.088623 57.794113 
L 413.702994 59.149672 
L 414.62455 61.98092 
L 415.546106 65.69423 
L 416.774848 71.826936 
L 418.310775 80.934731 
L 423.840113 115.466189 
L 425.068854 121.033401 
L 425.99041 124.243748 
L 426.911967 126.520575 
L 427.526337 127.485868 
L 428.140708 127.993626 
L 428.447894 128.073635 
L 428.755079 128.03726 
L 429.36945 127.616204 
L 429.983821 126.735923 
L 430.598192 125.407839 
L 431.519748 122.615323 
L 432.441304 118.936772 
L 433.670046 112.8425 
L 435.205973 103.767329 
L 440.73531 69.18884 
L 441.964052 63.57933 
L 442.885608 60.331938 
L 443.807164 58.014692 
L 444.421535 57.021159 
L 445.035906 56.48455 
L 445.343091 56.390003 
L 445.650277 56.411829 
L 446.264648 56.803939 
L 446.879018 57.655792 
L 447.493389 58.956334 
L 448.414945 61.709976 
L 449.336502 65.353581 
L 450.565243 71.40911 
L 452.10117 80.451197 
L 457.630508 115.074962 
L 458.859249 120.726484 
L 459.780806 124.010757 
L 460.702362 126.368304 
L 461.316733 127.390027 
L 461.931104 127.95546 
L 462.545474 128.057265 
L 463.159845 127.69412 
L 463.774216 126.870738 
L 464.388587 125.597804 
L 465.002958 123.891839 
L 465.924514 120.570853 
L 466.84607 116.423448 
L 468.074812 109.820105 
L 469.917924 98.328759 
L 473.604149 74.639895 
L 474.832891 68.036552 
L 476.061632 62.685019 
L 476.983189 59.662304 
L 477.597559 58.170433 
L 478.21193 57.120571 
L 478.826301 56.526342 
L 479.440672 56.39546 
L 480.055043 56.729621 
L 480.669414 57.52449 
L 481.283784 58.769751 
L 481.898155 60.449243 
L 482.819711 63.733516 
L 483.741268 67.848744 
L 484.970009 74.417845 
L 486.813122 85.879764 
L 490.499347 109.597163 
L 491.728088 116.234414 
L 492.95683 121.629634 
L 493.878386 124.69019 
L 494.492757 126.209102 
L 495.107128 127.28705 
L 495.721499 127.910043 
L 496.33587 128.069997 
L 496.95024 127.764837 
L 497.564611 126.998521 
L 498.178982 125.780996 
L 498.793353 124.128062 
L 499.714909 120.88067 
L 500.636465 116.797825 
L 501.865207 110.2633 
L 503.401134 100.827504 
L 507.70173 73.321382 
L 508.930471 66.928457 
L 509.852028 62.977205 
L 510.773584 59.878964 
L 511.387955 58.333087 
L 512.002325 57.227109 
L 512.616696 56.575382 
L 513.231067 56.386365 
L 513.538253 56.466374 
L 514.152623 56.974132 
L 514.766994 57.939425 
L 515.381365 59.349724 
L 516.302921 62.258004 
L 517.224477 66.040266 
L 518.453219 72.248905 
L 519.989146 81.420558 
L 525.211298 114.278677 
L 526.44004 120.09536 
L 527.361596 123.525469 
L 528.283152 126.043003 
L 528.897523 127.176956 
L 529.511894 127.857383 
L 530.126265 128.075455 
L 530.43345 128.009987 
L 531.047821 127.531105 
L 531.662192 126.594103 
L 532.276563 125.211139 
L 533.198119 122.341302 
L 534.119675 118.593421 
L 535.348417 112.422592 
L 536.884344 103.282636 
L 542.106496 70.383217 
L 543.335237 64.525976 
L 544.256794 61.059839 
L 545.17835 58.502622 
L 545.792721 57.340753 
L 546.407092 56.63166 
L 547.021462 56.384545 
L 547.328648 56.435468 
L 547.943019 56.885448 
L 548.557389 57.794113 
L 549.17176 59.149672 
L 550.093316 61.98092 
L 551.014873 65.69423 
L 552.243614 71.826936 
L 553.779541 80.934731 
L 559.308879 115.466189 
L 560.53762 121.033401 
L 561.459177 124.243748 
L 562.380733 126.520575 
L 562.995104 127.485868 
L 563.609475 127.993626 
L 563.91666 128.073635 
L 564.223845 128.03726 
L 564.838216 127.616204 
L 565.452587 126.735923 
L 566.066958 125.407839 
L 566.988514 122.615323 
L 567.91007 118.936772 
L 569.138812 112.8425 
L 570.674739 103.767329 
L 576.204076 69.18884 
L 577.432818 63.57933 
L 578.354374 60.331938 
L 579.27593 58.014692 
L 579.890301 57.021159 
L 580.504672 56.48455 
L 580.811858 56.390003 
L 581.119043 56.411829 
L 581.733414 56.803939 
L 582.347785 57.655792 
L 582.962155 58.956334 
L 583.883712 61.709976 
L 584.805268 65.353581 
L 586.03401 71.40911 
L 587.569937 80.451197 
L 593.099274 115.074962 
L 594.328016 120.726484 
L 595.249572 124.010757 
L 596.171128 126.368304 
L 596.785499 127.390027 
L 597.39987 127.95546 
L 598.014241 128.057265 
L 598.628611 127.69412 
L 599.242982 126.870738 
L 599.857353 125.597804 
L 600.471724 123.891839 
L 601.39328 120.570853 
L 602.314836 116.423448 
L 603.543578 109.820105 
L 605.38669 98.328759 
L 609.072915 74.639895 
L 610.301657 68.036552 
L 611.530399 62.685019 
L 612.451955 59.662304 
L 613.066326 58.170433 
L 613.680696 57.120571 
L 614.295067 56.526342 
L 614.909438 56.39546 
L 615.523809 56.729621 
L 616.13818 57.52449 
L 616.752551 58.769751 
L 617.366921 60.449243 
L 618.288478 63.733516 
L 619.210034 67.848744 
L 620.438776 74.417845 
L 622.281888 85.879764 
L 625.968113 109.597163 
L 627.196855 116.234414 
L 628.425596 121.629634 
L 629.347152 124.69019 
L 629.961523 126.209102 
L 630.575894 127.28705 
L 631.190265 127.910043 
L 631.804636 128.069997 
L 632.419007 127.764837 
L 633.033377 126.998521 
L 633.647748 125.780996 
L 634.262119 124.128062 
L 635.183675 120.88067 
L 636.105231 116.797825 
L 637.333973 110.2633 
L 638.8699 100.827504 
L 643.170496 73.321382 
L 644.399238 66.928457 
L 645.320794 62.977205 
L 646.24235 59.878964 
L 646.856721 58.333087 
L 647.471092 57.227109 
L 648.085463 56.575382 
L 648.699833 56.386365 
L 649.007019 56.466374 
L 649.62139 56.974132 
L 650.23576 57.939425 
L 650.850131 59.349724 
L 651.771687 62.258004 
L 652.693244 66.040266 
L 653.921985 72.248905 
L 655.457912 81.420558 
L 660.680064 114.278677 
L 661.908806 120.09536 
L 662.830362 123.525469 
L 663.751918 126.043003 
L 664.366289 127.176956 
L 664.98066 127.857383 
L 665.595031 128.075455 
L 665.902216 128.009987 
L 666.516587 127.531105 
L 667.130958 126.594103 
L 667.745329 125.211139 
L 668.666885 122.341302 
L 669.588441 118.593421 
L 670.817183 112.422592 
L 672.35311 103.282636 
L 677.575262 70.383217 
L 678.496818 65.866579 
L 678.496818 65.866579 
" clip-path="url(#pf5b1c06471)" style="fill: none; stroke: #1f77b4; stroke-width: 1.5; stroke-linecap: square"/>
   </g>
   <g id="patch_3">
    <path d="M 33.73 131.66 
L 33.73 52.8 
" style="fill: none; stroke: #000000; stroke-width: 0.8; stroke-linejoin: miter; stroke-linecap: square"/>
   </g>
   <g id="patch_4">
    <path d="M 709.2 131.66 
L 709.2 52.8 
" style="fill: none; stroke: #000000; stroke-width: 0.8; stroke-linejoin: miter; stroke-linecap: square"/>
   </g>
   <g id="patch_5">
    <path d="M 33.73 131.66 
L 709.2 131.66 
" style="fill: none; stroke: #000000; stroke-width: 0.8; stroke-linejoin: miter; stroke-linecap: square"/>
   </g>
   <g id="patch_6">
    <path d="M 33.73 52.8 
L 709.2 52.8 
" style="fill: none; stroke: #000000; stroke-width: 0.8; stroke-linejoin: miter; stroke-linecap: square"/>
   </g>
   <g id="text_10">
    <!-- a.wav -->
    <g transform="translate(353.74625 46.8) scale(0.12 -0.12)">
     <defs>
      <path id="DejaVuSans-61" d="M 2194 1759 
Q 1497 1759 1228 1600 
Q 959 1441 959 1056 
Q 959 750 1161 570 
Q 1363 391 1709 391 
Q 2188 391 2477 730 
Q 2766 1069 2766 1631 
L 2766 1759 
L 2194 1759 
z
M 3341 1997 
L 3341 0 
L 2766 0 
L 2766 531 
Q 2569 213 2275 61 
Q 1981 -91 1556 -91 
Q 1019 -91 701 211 
Q 384 513 384 1019 
Q 384 1609 779 1909 
Q 1175 2209 1959 2209 
L 2766 2209 
L 2766 2266 
Q 2766 2663 2505 2880 
Q 2244 3097 1772 3097 
Q 1472 3097 1187 3025 
Q 903 2953 641 2809 
L 641 3341 
Q 956 3463 1253 3523 
Q 1550 3584 1831 3584 
Q 2591 3584 2966 3190 
Q 3341 2797 3341 1997 
z
" transform="scale(0.015625)"/>
      <path id="DejaVuSans-77" d="M 269 3500 
L 844 3500 
L 1563 769 
L 2278 3500 
L 2956 3500 
L 3675 769 
L 4391 3500 
L 4966 3500 
L 4050 0 
L 3372 0 
L 2619 2869 
L 1863 0 
L 1184 0 
L 269 3500 
z
" transform="scale(0.015625)"/>
      <path id="DejaVuSans-76" d="M 191 3500 
L 800 3500 
L 1894 563 
L 2988 3500 
L 3597 3500 
L 2284 0 
L 1503 0 
L 191 3500 
z
" transform="scale(0.015625)"/>
     </defs>
     <use xlink:href="#DejaVuSans-61"/>
     <use xlink:href="#DejaVuSans-2e" x="61.279297"/>
     <use xlink:href="#DejaVuSans-77" x="93.066406"/>
     <use xlink:href="#DejaVuSans-61" x="174.853516"/>
     <use xlink:href="#DejaVuSans-76" x="236.132812"/>
    </g>
   </g>
  </g>
  <g id="axes_2">
   <g id="patch_7">
    <path d="M 33.73 266.12 
L 709.2 266.12 
L 709.2 187.26 
L 33.73 187.26 
z
" style="fill: #ffffff"/>
   </g>
   <g id="matplotlib.axis_3">
    <g id="xtick_6">
     <g id="line2d_10">
      <g>
       <use xlink:href="#mbd686d2ba3" x="64.433182" y="266.12" style="stroke: #000000; stroke-width: 0.8"/>
      </g>
     </g>
     <g id="text_11">
      <!-- 0.0 -->
      <g transform="translate(56.481619 280.718437) scale(0.1 -0.1)">
       <use xlink:href="#DejaVuSans-30"/>
       <use xlink:href="#DejaVuSans-2e" x="63.623047"/>
       <use xlink:href="#DejaVuSans-30" x="95.410156"/>
      </g>
     </g>
    </g>
    <g id="xtick_7">
     <g id="line2d_11">
      <g>
       <use xlink:href="#mbd686d2ba3" x="199.900412" y="266.12" style="stroke: #000000; stroke-width: 0.8"/>
      </g>
     </g>
     <g id="text_12">
      <!-- 0.5 -->
      <g transform="translate(191.94885 280.718437) scale(0.1 -0.1)">
       <use xlink:href="#DejaVuSans-30"/>
       <use xlink:href="#DejaVuSans-2e" x="63.623047"/>
       <use xlink:href="#DejaVuSans-35" x="95.410156"/>
      </g>
     </g>
    </g>
    <g id="xtick_8">
     <g id="line2d_12">
      <g>
       <use xlink:href="#mbd686d2ba3" x="335.367642" y="266.12" style="stroke: #000000; stroke-width: 0.8"/>
      </g>
     </g>
     <g id="text_13">
      <!-- 1.0 -->
      <g transform="translate(327.41608 280.718437) scale(0.1 -0.1)">
       <use xlink:href="#DejaVuSans-31"/>
       <use xlink:href="#DejaVuSans-2e" x="63.623047"/>
       <use xlink:href="#DejaVuSans-30" x="95.410156"/>
      </g>
     </g>
    </g>
    <g id="xtick_9">
     <g id="line2d_13">
      <g>
       <use xlink:href="#mbd686d2ba3" x="470.834873" y="266.12" style="stroke: #000000; stroke-width: 0.8"/>
      </g>
     </g>
     <g id="text_14">
      <!-- 1.5 -->
      <g transform="translate(462.88331 280.718437) scale(0.1 -0.1)">
       <use xlink:href="#DejaVuSans-31"/>
       <use xlink:href="#DejaVuSans-2e" x="63.623047"/>
       <use xlink:href="#DejaVuSans-35" x="95.410156"/>
      </g>
     </g>
    </g>
    <g id="xtick_10">
     <g id="line2d_14">
      <g>
       <use xlink:href="#mbd686d2ba3" x="606.302103" y="266.12" style="stroke: #000000; stroke-width: 0.8"/>
      </g>
     </g>
     <g id="text_15">
      <!-- 2.0 -->
      <g transform="translate(598.35054 280.718437) scale(0.1 -0.1)">
       <use xlink:href="#DejaVuSans-32"/>
       <use xlink:href="#DejaVuSans-2e" x="63.623047"/>
       <use xlink:href="#DejaVuSans-30" x="95.410156"/>
      </g>
     </g>
    </g>
    <g id="text_16">
     <!-- 1e−5 -->
     <g transform="translate(681.942188 293.396562) scale(0.1 -0.1)">
      <use xlink:href="#DejaVuSans-31"/>
      <use xlink:href="#DejaVuSans-65" x="63.623047"/>
      <use xlink:href="#DejaVuSans-2212" x="125.146484"/>
      <use xlink:href="#DejaVuSans-35" x="208.935547"/>
     </g>
    </g>
   </g>
   <g id="matplotlib.axis_4">
    <g id="ytick_4">
     <g id="line2d_15">
      <g>
       <use xlink:href="#mff7b803468" x="33.73" y="262.535682" style="stroke: #000000; stroke-width: 0.8"/>
      </g>
     </g>
     <g id="text_17">
      <!-- −1 -->
      <g transform="translate(11.987812 266.334901) scale(0.1 -0.1)">
       <use xlink:href="#DejaVuSans-2212"/>
       <use xlink:href="#DejaVuSans-31" x="83.789062"/>
      </g>
     </g>
    </g>
    <g id="ytick_5">
     <g id="line2d_16">
      <g>
       <use xlink:href="#mff7b803468" x="33.73" y="226.69" style="stroke: #000000; stroke-width: 0.8"/>
      </g>
     </g>
     <g id="text_18">
      <!-- 0 -->
      <g transform="translate(20.3675 230.489219) scale(0.1 -0.1)">
       <use xlink:href="#DejaVuSans-30"/>
      </g>
     </g>
    </g>
    <g id="ytick_6">
     <g id="line2d_17">
      <g>
       <use xlink:href="#mff7b803468" x="33.73" y="190.844318" style="stroke: #000000; stroke-width: 0.8"/>
      </g>
     </g>
     <g id="text_19">
      <!-- 1 -->
      <g transform="translate(20.3675 194.643537) scale(0.1 -0.1)">
       <use xlink:href="#DejaVuSans-31"/>
      </g>
     </g>
    </g>
   </g>
   <g id="line2d_18">
    <path d="M 64.433182 226.69 
L 65.969109 207.349436 
L 66.890665 198.349147 
L 67.505036 194.122304 
L 68.119407 191.580571 
L 68.426592 190.986342 
L 68.733778 190.85546 
L 69.040963 191.189621 
L 69.348148 191.98449 
L 69.962519 194.909243 
L 70.57689 199.478388 
L 71.498446 208.877845 
L 72.727188 224.393359 
L 74.5703 247.51089 
L 75.491857 256.089634 
L 76.106227 259.963666 
L 76.720598 262.116061 
L 77.027784 262.508171 
L 77.334969 262.43545 
L 77.642154 261.898841 
L 77.94934 260.905308 
L 78.563711 257.604806 
L 79.178082 252.704718 
L 80.099638 242.929461 
L 81.635565 223.120923 
L 82.864306 207.781382 
L 83.785863 198.664717 
L 84.400234 194.338964 
L 85.014604 191.687109 
L 85.32179 191.035382 
L 85.628975 190.846365 
L 85.936161 191.122509 
L 86.243346 191.860232 
L 86.857717 194.676252 
L 87.472088 199.148719 
L 88.393644 208.43647 
L 89.622386 223.883945 
L 91.465498 247.093064 
L 92.387054 255.794472 
L 93.001425 259.770328 
L 93.615796 262.034552 
L 93.922981 262.484532 
L 94.230167 262.469987 
L 94.537352 261.991105 
L 94.844537 261.054103 
L 95.458908 257.860161 
L 96.073279 253.053421 
L 96.994835 243.383095 
L 98.530762 223.629444 
L 100.066689 204.843217 
L 100.988246 196.578698 
L 101.602617 192.962622 
L 101.909802 191.800753 
L 102.216987 191.09166 
L 102.524173 190.844545 
L 102.831358 191.062617 
L 103.138544 191.743044 
L 103.445729 192.876997 
L 104.0601 196.44092 
L 104.674471 201.569983 
L 105.596027 211.598842 
L 108.975066 252.879734 
L 109.589437 257.733271 
L 110.203808 260.980575 
L 110.510993 261.945868 
L 110.818179 262.453626 
L 111.125364 262.49726 
L 111.43255 262.076204 
L 111.739735 261.195923 
L 112.354106 258.109189 
L 112.968477 253.396772 
L 113.890033 243.83334 
L 115.42596 224.138587 
L 116.961887 205.25032 
L 117.883443 196.858831 
L 118.497814 193.139004 
L 119.112185 191.155163 
L 119.41937 190.850003 
L 119.726556 191.009957 
L 120.033741 191.63295 
L 120.340927 192.710898 
L 120.955297 196.169976 
L 121.569668 201.208214 
L 122.491224 211.137141 
L 124.334337 235.039384 
L 125.563079 249.534962 
L 126.484635 257.474772 
L 127.099006 260.828304 
L 127.406191 261.850027 
L 127.713376 262.41546 
L 128.020562 262.517265 
L 128.327747 262.15412 
L 128.634933 261.330738 
L 129.249304 258.351839 
L 129.863674 253.734701 
L 130.785231 244.280105 
L 132.321158 224.648248 
L 133.857085 205.661776 
L 134.778641 197.145019 
L 135.393012 193.322196 
L 136.007383 191.22588 
L 136.314568 190.862735 
L 136.621753 190.96454 
L 136.928939 191.529973 
L 137.236124 192.551696 
L 137.850495 195.905228 
L 138.464866 200.851617 
L 139.386422 210.678598 
L 141.229535 234.541887 
L 142.458276 249.139098 
L 143.379832 257.210024 
L 143.994203 260.669102 
L 144.301389 261.74705 
L 144.608574 262.370043 
L 144.915759 262.529997 
L 145.222945 262.224837 
L 145.53013 261.458521 
L 146.144501 258.588062 
L 146.758872 254.067141 
L 147.680428 244.7233 
L 148.90917 229.241413 
L 150.752282 206.0775 
L 151.673839 197.437205 
L 152.288209 193.512161 
L 152.90258 191.303796 
L 153.209766 190.88274 
L 153.516951 190.926374 
L 153.824136 191.434132 
L 154.131322 192.399425 
L 154.745693 195.646729 
L 155.360063 200.500266 
L 156.28162 210.223304 
L 157.817547 230.004901 
L 159.353474 248.738677 
L 160.27503 256.93908 
L 160.889401 260.503003 
L 161.196586 261.636956 
L 161.503772 262.317383 
L 161.810957 262.535455 
L 162.118142 262.28834 
L 162.425328 261.579247 
L 162.732513 260.417378 
L 163.346884 256.801302 
L 163.961255 251.627215 
L 164.882811 241.549153 
L 168.261851 200.326579 
L 168.876222 195.519839 
L 169.490592 192.325897 
L 169.797778 191.388895 
L 170.104963 190.910013 
L 170.412149 190.895468 
L 170.719334 191.345448 
L 171.026519 192.254113 
L 171.64089 195.394531 
L 172.255261 200.15423 
L 173.176817 209.771353 
L 174.712744 229.496055 
L 176.248671 248.333781 
L 177.170228 256.661996 
L 177.784598 260.330041 
L 178.091784 261.519768 
L 178.398969 262.257491 
L 178.706155 262.533635 
L 179.01334 262.344618 
L 179.320525 261.692891 
L 179.627711 260.586913 
L 180.242082 257.075323 
L 180.856453 251.991543 
L 181.778009 242.012397 
L 185.157048 200.675282 
L 185.771419 195.775194 
L 186.38579 192.474692 
L 186.692975 191.481159 
L 187.000161 190.94455 
L 187.307346 190.871829 
L 187.614532 191.263939 
L 187.921717 192.115792 
L 188.536088 195.148686 
L 189.150459 199.813581 
L 190.072015 209.322837 
L 191.607942 228.986641 
L 193.143869 247.924491 
L 194.065425 256.378828 
L 194.679796 260.150249 
L 195.294167 262.190379 
L 195.601352 262.52454 
L 195.908538 262.393658 
L 196.215723 261.799429 
L 196.522908 260.749567 
L 197.137279 257.343175 
L 197.75165 252.350735 
L 198.673206 242.472531 
L 200.516319 218.589159 
L 201.74506 204.042395 
L 202.666617 196.036825 
L 203.280988 192.630433 
L 203.588173 191.580571 
L 203.895358 190.986342 
L 204.202544 190.85546 
L 204.509729 191.189621 
L 204.816915 191.98449 
L 205.431285 194.909243 
L 206.045656 199.478388 
L 206.967212 208.877845 
L 208.195954 224.393359 
L 210.039067 247.51089 
L 210.960623 256.089634 
L 211.574994 259.963666 
L 212.189364 262.116061 
L 212.49655 262.508171 
L 212.803735 262.43545 
L 213.110921 261.898841 
L 213.418106 260.905308 
L 214.032477 257.604806 
L 214.646848 252.704718 
L 215.568404 242.929461 
L 217.104331 223.120923 
L 218.333073 207.781382 
L 219.254629 198.664717 
L 219.869 194.338964 
L 220.483371 191.687109 
L 220.790556 191.035382 
L 221.097741 190.846365 
L 221.404927 191.122509 
L 221.712112 191.860232 
L 222.326483 194.676252 
L 222.940854 199.148719 
L 223.86241 208.43647 
L 225.091152 223.883945 
L 226.934264 247.093064 
L 227.85582 255.794472 
L 228.470191 259.770328 
L 229.084562 262.034552 
L 229.391747 262.484532 
L 229.698933 262.469987 
L 230.006118 261.991105 
L 230.313304 261.054103 
L 230.927675 257.860161 
L 231.542045 253.053421 
L 232.463602 243.383095 
L 233.999529 223.629444 
L 235.535456 204.843217 
L 236.457012 196.578698 
L 237.071383 192.962622 
L 237.378568 191.800753 
L 237.685754 191.09166 
L 237.992939 190.844545 
L 238.300124 191.062617 
L 238.60731 191.743044 
L 238.914495 192.876997 
L 239.528866 196.44092 
L 240.143237 201.569983 
L 241.064793 211.598842 
L 244.443833 252.879734 
L 245.058203 257.733271 
L 245.672574 260.980575 
L 245.97976 261.945868 
L 246.286945 262.453626 
L 246.59413 262.49726 
L 246.901316 262.076204 
L 247.208501 261.195923 
L 247.822872 258.109189 
L 248.437243 253.396772 
L 249.358799 243.83334 
L 250.894726 224.138587 
L 252.430653 205.25032 
L 253.35221 196.858831 
L 253.96658 193.139004 
L 254.580951 191.155163 
L 254.888137 190.850003 
L 255.195322 191.009957 
L 255.502507 191.63295 
L 255.809693 192.710898 
L 256.424064 196.169976 
L 257.038434 201.208214 
L 257.959991 211.137141 
L 259.803103 235.039384 
L 261.031845 249.534962 
L 261.953401 257.474772 
L 262.567772 260.828304 
L 262.874957 261.850027 
L 263.182143 262.41546 
L 263.489328 262.517265 
L 263.796513 262.15412 
L 264.103699 261.330738 
L 264.71807 258.351839 
L 265.332441 253.734701 
L 266.253997 244.280105 
L 267.789924 224.648248 
L 269.325851 205.661776 
L 270.247407 197.145019 
L 270.861778 193.322196 
L 271.476149 191.22588 
L 271.783334 190.862735 
L 272.09052 190.96454 
L 272.397705 191.529973 
L 272.70489 192.551696 
L 273.319261 195.905228 
L 273.933632 200.851617 
L 274.855188 210.678598 
L 276.698301 234.541887 
L 277.927042 249.139098 
L 278.848599 257.210024 
L 279.462969 260.669102 
L 279.770155 261.74705 
L 280.07734 262.370043 
L 280.384526 262.529997 
L 280.691711 262.224837 
L 280.998896 261.458521 
L 281.613267 258.588062 
L 282.227638 254.067141 
L 283.149194 244.7233 
L 284.377936 229.241413 
L 286.221048 206.0775 
L 287.142605 197.437205 
L 287.756976 193.512161 
L 288.371346 191.303796 
L 288.678532 190.88274 
L 288.985717 190.926374 
L 289.292903 191.434132 
L 289.600088 192.399425 
L 290.214459 195.646729 
L 290.82883 200.500266 
L 291.750386 210.223304 
L 293.286313 230.004901 
L 294.82224 248.738677 
L 295.743796 256.93908 
L 296.358167 260.503003 
L 296.665352 261.636956 
L 296.972538 262.317383 
L 297.279723 262.535455 
L 297.586909 262.28834 
L 297.894094 261.579247 
L 298.20128 260.417378 
L 298.81565 256.801302 
L 299.430021 251.627215 
L 300.351577 241.549153 
L 303.730617 200.326579 
L 304.344988 195.519839 
L 304.959359 192.325897 
L 305.266544 191.388895 
L 305.573729 190.910013 
L 305.880915 190.895468 
L 306.1881 191.345448 
L 306.495286 192.254113 
L 307.109656 195.394531 
L 307.724027 200.15423 
L 308.645583 209.771353 
L 310.181511 229.496055 
L 311.717438 248.333781 
L 312.638994 256.661996 
L 313.253365 260.330041 
L 313.56055 261.519768 
L 313.867735 262.257491 
L 314.174921 262.533635 
L 314.482106 262.344618 
L 314.789292 261.692891 
L 315.096477 260.586913 
L 315.710848 257.075323 
L 316.325219 251.991543 
L 317.246775 242.012397 
L 320.625814 200.675282 
L 321.240185 195.775194 
L 321.854556 192.474692 
L 322.161742 191.481159 
L 322.468927 190.94455 
L 322.776112 190.871829 
L 323.083298 191.263939 
L 323.390483 192.115792 
L 324.004854 195.148686 
L 324.619225 199.813581 
L 325.540781 209.322837 
L 327.076708 228.986641 
L 328.612635 247.924491 
L 329.534191 256.378828 
L 330.148562 260.150249 
L 330.762933 262.190379 
L 331.070118 262.52454 
L 331.377304 262.393658 
L 331.684489 261.799429 
L 331.991675 260.749567 
L 332.606046 257.343175 
L 333.220416 252.350735 
L 334.141973 242.472531 
L 335.985085 218.589159 
L 337.213827 204.042395 
L 338.135383 196.036825 
L 338.749754 192.630433 
L 339.056939 191.580571 
L 339.364125 190.986342 
L 339.67131 190.85546 
L 339.978495 191.189621 
L 340.285681 191.98449 
L 340.900052 194.909243 
L 341.514422 199.478388 
L 342.435979 208.877845 
L 343.66472 224.393359 
L 345.507833 247.51089 
L 346.429389 256.089634 
L 347.04376 259.963666 
L 347.658131 262.116061 
L 347.965316 262.508171 
L 348.272501 262.43545 
L 348.579687 261.898841 
L 348.886872 260.905308 
L 349.501243 257.604806 
L 350.115614 252.704718 
L 351.03717 242.929461 
L 352.573097 223.120923 
L 353.801839 207.781382 
L 354.723395 198.664717 
L 355.337766 194.338964 
L 355.952137 191.687109 
L 356.259322 191.035382 
L 356.566508 190.846365 
L 356.873693 191.122509 
L 357.180878 191.860232 
L 357.795249 194.676252 
L 358.40962 199.148719 
L 359.331176 208.43647 
L 360.559918 223.883945 
L 362.40303 247.093064 
L 363.324587 255.794472 
L 363.938957 259.770328 
L 364.553328 262.034552 
L 364.860514 262.484532 
L 365.167699 262.469987 
L 365.474884 261.991105 
L 365.78207 261.054103 
L 366.396441 257.860161 
L 367.010812 253.053421 
L 367.932368 243.383095 
L 369.468295 223.629444 
L 371.004222 204.843217 
L 371.925778 196.578698 
L 372.540149 192.962622 
L 372.847334 191.800753 
L 373.15452 191.09166 
L 373.461705 190.844545 
L 373.768891 191.062617 
L 374.076076 191.743044 
L 374.383261 192.876997 
L 374.997632 196.44092 
L 375.612003 201.569983 
L 376.533559 211.598842 
L 379.912599 252.879734 
L 380.52697 257.733271 
L 381.14134 260.980575 
L 381.448526 261.945868 
L 381.755711 262.453626 
L 382.062897 262.49726 
L 382.370082 262.076204 
L 382.677267 261.195923 
L 383.291638 258.109189 
L 383.906009 253.396772 
L 384.827565 243.83334 
L 386.363492 224.138587 
L 387.899419 205.25032 
L 388.820976 196.858831 
L 389.435347 193.139004 
L 390.049717 191.155163 
L 390.356903 190.850003 
L 390.664088 191.009957 
L 390.971274 191.63295 
L 391.278459 192.710898 
L 391.89283 196.169976 
L 392.507201 201.208214 
L 393.428757 211.137141 
L 395.271869 235.039384 
L 396.500611 249.534962 
L 397.422167 257.474772 
L 398.036538 260.828304 
L 398.343723 261.850027 
L 398.650909 262.41546 
L 398.958094 262.517265 
L 399.26528 262.15412 
L 399.572465 261.330738 
L 400.186836 258.351839 
L 400.801207 253.734701 
L 401.722763 244.280105 
L 403.25869 224.648248 
L 404.794617 205.661776 
L 405.716173 197.145019 
L 406.330544 193.322196 
L 406.944915 191.22588 
L 407.2521 190.862735 
L 407.559286 190.96454 
L 407.866471 191.529973 
L 408.173657 192.551696 
L 408.788027 195.905228 
L 409.402398 200.851617 
L 410.323954 210.678598 
L 412.167067 234.541887 
L 413.395809 249.139098 
L 414.317365 257.210024 
L 414.931736 260.669102 
L 415.238921 261.74705 
L 415.546106 262.370043 
L 415.853292 262.529997 
L 416.160477 262.224837 
L 416.467663 261.458521 
L 417.082034 258.588062 
L 417.696404 254.067141 
L 418.617961 244.7233 
L 419.846702 229.241413 
L 421.689815 206.0775 
L 422.611371 197.437205 
L 423.225742 193.512161 
L 423.840113 191.303796 
L 424.147298 190.88274 
L 424.454483 190.926374 
L 424.761669 191.434132 
L 425.068854 192.399425 
L 425.683225 195.646729 
L 426.297596 200.500266 
L 427.219152 210.223304 
L 428.755079 230.004901 
L 430.291006 248.738677 
L 431.212562 256.93908 
L 431.826933 260.503003 
L 432.134119 261.636956 
L 432.441304 262.317383 
L 432.748489 262.535455 
L 433.055675 262.28834 
L 433.36286 261.579247 
L 433.670046 260.417378 
L 434.284417 256.801302 
L 434.898787 251.627215 
L 435.820344 241.549153 
L 439.199383 200.326579 
L 439.813754 195.519839 
L 440.428125 192.325897 
L 440.73531 191.388895 
L 441.042496 190.910013 
L 441.349681 190.895468 
L 441.656866 191.345448 
L 441.964052 192.254113 
L 442.578423 195.394531 
L 443.192793 200.15423 
L 444.11435 209.771353 
L 445.650277 229.496055 
L 447.186204 248.333781 
L 448.10776 256.661996 
L 448.722131 260.330041 
L 449.029316 261.519768 
L 449.336502 262.257491 
L 449.643687 262.533635 
L 449.950872 262.344618 
L 450.258058 261.692891 
L 450.565243 260.586913 
L 451.179614 257.075323 
L 451.793985 251.991543 
L 452.715541 242.012397 
L 456.094581 200.675282 
L 456.708952 195.775194 
L 457.323322 192.474692 
L 457.630508 191.481159 
L 457.937693 190.94455 
L 458.244879 190.871829 
L 458.552064 191.263939 
L 458.859249 192.115792 
L 459.47362 195.148686 
L 460.087991 199.813581 
L 461.009547 209.322837 
L 462.545474 228.986641 
L 464.081401 247.924491 
L 465.002958 256.378828 
L 465.617328 260.150249 
L 466.231699 262.190379 
L 466.538885 262.52454 
L 466.84607 262.393658 
L 467.153255 261.799429 
L 467.460441 260.749567 
L 468.074812 257.343175 
L 468.689183 252.350735 
L 469.610739 242.472531 
L 471.453851 218.589159 
L 472.682593 204.042395 
L 473.604149 196.036825 
L 474.21852 192.630433 
L 474.525705 191.580571 
L 474.832891 190.986342 
L 475.140076 190.85546 
L 475.447262 191.189621 
L 475.754447 191.98449 
L 476.368818 194.909243 
L 476.983189 199.478388 
L 477.904745 208.877845 
L 479.133487 224.393359 
L 480.976599 247.51089 
L 481.898155 256.089634 
L 482.512526 259.963666 
L 483.126897 262.116061 
L 483.434082 262.508171 
L 483.741268 262.43545 
L 484.048453 261.898841 
L 484.355639 260.905308 
L 484.970009 257.604806 
L 485.58438 252.704718 
L 486.505936 242.929461 
L 488.041863 223.120923 
L 489.270605 207.781382 
L 490.192161 198.664717 
L 490.806532 194.338964 
L 491.420903 191.687109 
L 491.728088 191.035382 
L 492.035274 190.846365 
L 492.342459 191.122509 
L 492.649645 191.860232 
L 493.264015 194.676252 
L 493.878386 199.148719 
L 494.799942 208.43647 
L 496.028684 223.883945 
L 497.871797 247.093064 
L 498.793353 255.794472 
L 499.407724 259.770328 
L 500.022094 262.034552 
L 500.32928 262.484532 
L 500.636465 262.469987 
L 500.943651 261.991105 
L 501.250836 261.054103 
L 501.865207 257.860161 
L 502.479578 253.053421 
L 503.401134 243.383095 
L 504.937061 223.629444 
L 506.472988 204.843217 
L 507.394544 196.578698 
L 508.008915 192.962622 
L 508.316101 191.800753 
L 508.623286 191.09166 
L 508.930471 190.844545 
L 509.237657 191.062617 
L 509.544842 191.743044 
L 509.852028 192.876997 
L 510.466398 196.44092 
L 511.080769 201.569983 
L 512.002325 211.598842 
L 515.381365 252.879734 
L 515.995736 257.733271 
L 516.610107 260.980575 
L 516.917292 261.945868 
L 517.224477 262.453626 
L 517.531663 262.49726 
L 517.838848 262.076204 
L 518.146034 261.195923 
L 518.760405 258.109189 
L 519.374775 253.396772 
L 520.296332 243.83334 
L 521.832259 224.138587 
L 523.368186 205.25032 
L 524.289742 196.858831 
L 524.904113 193.139004 
L 525.518484 191.155163 
L 525.825669 190.850003 
L 526.132854 191.009957 
L 526.44004 191.63295 
L 526.747225 192.710898 
L 527.361596 196.169976 
L 527.975967 201.208214 
L 528.897523 211.137141 
L 530.740636 235.039384 
L 531.969377 249.534962 
L 532.890933 257.474772 
L 533.505304 260.828304 
L 533.81249 261.850027 
L 534.119675 262.41546 
L 534.42686 262.517265 
L 534.734046 262.15412 
L 535.041231 261.330738 
L 535.655602 258.351839 
L 536.269973 253.734701 
L 537.191529 244.280105 
L 538.727456 224.648248 
L 540.263383 205.661776 
L 541.18494 197.145019 
L 541.79931 193.322196 
L 542.413681 191.22588 
L 542.720867 190.862735 
L 543.028052 190.96454 
L 543.335237 191.529973 
L 543.642423 192.551696 
L 544.256794 195.905228 
L 544.871164 200.851617 
L 545.792721 210.678598 
L 547.635833 234.541887 
L 548.864575 249.139098 
L 549.786131 257.210024 
L 550.400502 260.669102 
L 550.707687 261.74705 
L 551.014873 262.370043 
L 551.322058 262.529997 
L 551.629243 262.224837 
L 551.936429 261.458521 
L 552.5508 258.588062 
L 553.165171 254.067141 
L 554.086727 244.7233 
L 555.315468 229.241413 
L 557.158581 206.0775 
L 558.080137 197.437205 
L 558.694508 193.512161 
L 559.308879 191.303796 
L 559.616064 190.88274 
L 559.92325 190.926374 
L 560.230435 191.434132 
L 560.53762 192.399425 
L 561.151991 195.646729 
L 561.766362 200.500266 
L 562.687918 210.223304 
L 564.223845 230.004901 
L 565.759772 248.738677 
L 566.681329 256.93908 
L 567.295699 260.503003 
L 567.602885 261.636956 
L 567.91007 262.317383 
L 568.217256 262.535455 
L 568.524441 262.28834 
L 568.831626 261.579247 
L 569.138812 260.417378 
L 569.753183 256.801302 
L 570.367554 251.627215 
L 571.28911 241.549153 
L 574.668149 200.326579 
L 575.28252 195.519839 
L 575.896891 192.325897 
L 576.204076 191.388895 
L 576.511262 190.910013 
L 576.818447 190.895468 
L 577.125633 191.345448 
L 577.432818 192.254113 
L 578.047189 195.394531 
L 578.66156 200.15423 
L 579.583116 209.771353 
L 581.119043 229.496055 
L 582.65497 248.333781 
L 583.576526 256.661996 
L 584.190897 260.330041 
L 584.498082 261.519768 
L 584.805268 262.257491 
L 585.112453 262.533635 
L 585.419639 262.344618 
L 585.726824 261.692891 
L 586.03401 260.586913 
L 586.64838 257.075323 
L 587.262751 251.991543 
L 588.184307 242.012397 
L 591.563347 200.675282 
L 592.177718 195.775194 
L 592.792089 192.474692 
L 593.099274 191.481159 
L 593.406459 190.94455 
L 593.713645 190.871829 
L 594.02083 191.263939 
L 594.328016 192.115792 
L 594.942386 195.148686 
L 595.556757 199.813581 
L 596.478313 209.322837 
L 598.014241 228.986641 
L 599.550168 247.924491 
L 600.471724 256.378828 
L 601.086095 260.150249 
L 601.700465 262.190379 
L 602.007651 262.52454 
L 602.314836 262.393658 
L 602.622022 261.799429 
L 602.929207 260.749567 
L 603.543578 257.343175 
L 604.157949 252.350735 
L 605.079505 242.472531 
L 606.922617 218.589159 
L 608.151359 204.042395 
L 609.072915 196.036825 
L 609.687286 192.630433 
L 609.994472 191.580571 
L 610.301657 190.986342 
L 610.608842 190.85546 
L 610.916028 191.189621 
L 611.223213 191.98449 
L 611.837584 194.909243 
L 612.451955 199.478388 
L 613.373511 208.877845 
L 614.602253 224.393359 
L 616.445365 247.51089 
L 617.366921 256.089634 
L 617.981292 259.963666 
L 618.595663 262.116061 
L 618.902848 262.508171 
L 619.210034 262.43545 
L 619.517219 261.898841 
L 619.824405 260.905308 
L 620.438776 257.604806 
L 621.053146 252.704718 
L 621.974703 242.929461 
L 623.51063 223.120923 
L 624.739371 207.781382 
L 625.660928 198.664717 
L 626.275298 194.338964 
L 626.889669 191.687109 
L 627.196855 191.035382 
L 627.50404 190.846365 
L 627.811225 191.122509 
L 628.118411 191.860232 
L 628.732782 194.676252 
L 629.347152 199.148719 
L 630.268709 208.43647 
L 631.49745 223.883945 
L 633.340563 247.093064 
L 634.262119 255.794472 
L 634.87649 259.770328 
L 635.490861 262.034552 
L 635.798046 262.484532 
L 636.105231 262.469987 
L 636.412417 261.991105 
L 636.719602 261.054103 
L 637.333973 257.860161 
L 637.948344 253.053421 
L 638.8699 243.383095 
L 640.405827 223.629444 
L 641.941754 204.843217 
L 642.863311 196.578698 
L 643.477681 192.962622 
L 643.784867 191.800753 
L 644.092052 191.09166 
L 644.399238 190.844545 
L 644.706423 191.062617 
L 645.013608 191.743044 
L 645.320794 192.876997 
L 645.935165 196.44092 
L 646.549535 201.569983 
L 647.471092 211.598842 
L 650.850131 252.879734 
L 651.464502 257.733271 
L 652.078873 260.980575 
L 652.386058 261.945868 
L 652.693244 262.453626 
L 653.000429 262.49726 
L 653.307614 262.076204 
L 653.6148 261.195923 
L 654.229171 258.109189 
L 654.843542 253.396772 
L 655.765098 243.83334 
L 657.301025 224.138587 
L 658.836952 205.25032 
L 659.758508 196.858831 
L 660.372879 193.139004 
L 660.98725 191.155163 
L 661.294435 190.850003 
L 661.601621 191.009957 
L 661.908806 191.63295 
L 662.215991 192.710898 
L 662.830362 196.169976 
L 663.444733 201.208214 
L 664.366289 211.137141 
L 666.209402 235.039384 
L 667.438143 249.534962 
L 668.3597 257.474772 
L 668.97407 260.828304 
L 669.281256 261.850027 
L 669.588441 262.41546 
L 669.895627 262.517265 
L 670.202812 262.15412 
L 670.509997 261.330738 
L 671.124368 258.351839 
L 671.738739 253.734701 
L 672.660295 244.280105 
L 674.196222 224.648248 
L 675.732149 205.661776 
L 676.653706 197.145019 
L 677.268077 193.322196 
L 677.882447 191.22588 
L 678.189633 190.862735 
L 678.496818 190.96454 
L 678.496818 190.96454 
" clip-path="url(#p2ebef4b4bd)" style="fill: none; stroke: #1f77b4; stroke-width: 1.5; stroke-linecap: square"/>
   </g>
   <g id="patch_8">
    <path d="M 33.73 266.12 
L 33.73 187.26 
" style="fill: none; stroke: #000000; stroke-width: 0.8; stroke-linejoin: miter; stroke-linecap: square"/>
   </g>
   <g id="patch_9">
    <path d="M 709.2 266.12 
L 709.2 187.26 
" style="fill: none; stroke: #000000; stroke-width: 0.8; stroke-linejoin: miter; stroke-linecap: square"/>
   </g>
   <g id="patch_10">
    <path d="M 33.73 266.12 
L 709.2 266.12 
" style="fill: none; stroke: #000000; stroke-width: 0.8; stroke-linejoin: miter; stroke-linecap: square"/>
   </g>
   <g id="patch_11">
    <path d="M 33.73 187.26 
L 709.2 187.26 
" style="fill: none; stroke: #000000; stroke-width: 0.8; stroke-linejoin: miter; stroke-linecap: square"/>
   </g>
   <g id="text_20">
    <!-- b.wav -->
    <g transform="translate(353.614063 181.26) scale(0.12 -0.12)">
     <defs>
      <path id="DejaVuSans-62" d="M 3116 1747 
Q 3116 2381 2855 2742 
Q 2594 3103 2138 3103 
Q 1681 3103 1420 2742 
Q 1159 2381 1159 1747 
Q 1159 1113 1420 752 
Q 1681 391 2138 391 
Q 2594 391 2855 752 
Q 3116 1113 3116 1747 
z
M 1159 2969 
Q 1341 3281 1617 3432 
Q 1894 3584 2278 3584 
Q 2916 3584 3314 3078 
Q 3713 2572 3713 1747 
Q 3713 922 3314 415 
Q 2916 -91 2278 -91 
Q 1894 -91 1617 61 
Q 1341 213 1159 525 
L 1159 0 
L 581 0 
L 581 4863 
L 1159 4863 
L 1159 2969 
z
" transform="scale(0.015625)"/>
     </defs>
     <use xlink:href="#DejaVuSans-62"/>
     <use xlink:href="#DejaVuSans-2e" x="63.476562"/>
     <use xlink:href="#DejaVuSans-77" x="95.263672"/>
     <use xlink:href="#DejaVuSans-61" x="177.050781"/>
     <use xlink:href="#DejaVuSans-76" x="238.330078"/>
    </g>
   </g>
  </g>
  <g id="axes_3">
   <g id="patch_12">
    <path d="M 33.73 400.58 
L 709.2 400.58 
L 709.2 321.72 
L 33.73 321.72 
z
" style="fill: #ffffff"/>
   </g>
   <g id="matplotlib.axis_5">
    <g id="xtick_11">
     <g id="line2d_19">
      <g>
       <use xlink:href="#mbd686d2ba3" x="64.433182" y="400.58" style="stroke: #000000; stroke-width: 0.8"/>
      </g>
     </g>
     <g id="text_21">
      <!-- 0.0 -->
      <g transform="translate(56.481619 415.178437) scale(0.1 -0.1)">
       <use xlink:href="#DejaVuSans-30"/>
       <use xlink:href="#DejaVuSans-2e" x="63.623047"/>
       <use xlink:href="#DejaVuSans-30" x="95.410156"/>
      </g>
     </g>
    </g>
    <g id="xtick_12">
     <g id="line2d_20">
      <g>
       <use xlink:href="#mbd686d2ba3" x="199.900412" y="400.58" style="stroke: #000000; stroke-width: 0.8"/>
      </g>
     </g>
     <g id="text_22">
      <!-- 0.5 -->
      <g transform="translate(191.94885 415.178437) scale(0.1 -0.1)">
       <use xlink:href="#DejaVuSans-30"/>
       <use xlink:href="#DejaVuSans-2e" x="63.623047"/>
       <use xlink:href="#DejaVuSans-35" x="95.410156"/>
      </g>
     </g>
    </g>
    <g id="xtick_13">
     <g id="line2d_21">
      <g>
       <use xlink:href="#mbd686d2ba3" x="335.367642" y="400.58" style="stroke: #000000; stroke-width: 0.8"/>
      </g>
     </g>
     <g id="text_23">
      <!-- 1.0 -->
      <g transform="translate(327.41608 415.178437) scale(0.1 -0.1)">
       <use xlink:href="#DejaVuSans-31"/>
       <use xlink:href="#DejaVuSans-2e" x="63.623047"/>
       <use xlink:href="#DejaVuSans-30" x="95.410156"/>
      </g>
     </g>
    </g>
    <g id="xtick_14">
     <g id="line2d_22">
      <g>
       <use xlink:href="#mbd686d2ba3" x="470.834873" y="400.58" style="stroke: #000000; stroke-width: 0.8"/>
      </g>
     </g>
     <g id="text_24">
      <!-- 1.5 -->
      <g transform="translate(462.88331 415.178437) scale(0.1 -0.1)">
       <use xlink:href="#DejaVuSans-31"/>
       <use xlink:href="#DejaVuSans-2e" x="63.623047"/>
       <use xlink:href="#DejaVuSans-35" x="95.410156"/>
      </g>
     </g>
    </g>
    <g id="xtick_15">
     <g id="line2d_23">
      <g>
       <use xlink:href="#mbd686d2ba3" x="606.302103" y="400.58" style="stroke: #000000; stroke-width: 0.8"/>
      </g>
     </g>
     <g id="text_25">
      <!-- 2.0 -->
      <g transform="translate(598.35054 415.178437) scale(0.1 -0.1)">
       <use xlink:href="#DejaVuSans-32"/>
       <use xlink:href="#DejaVuSans-2e" x="63.623047"/>
       <use xlink:href="#DejaVuSans-30" x="95.410156"/>
      </g>
     </g>
    </g>
    <g id="text_26">
     <!-- 1e−5 -->
     <g transform="translate(681.942188 427.856562) scale(0.1 -0.1)">
      <use xlink:href="#DejaVuSans-31"/>
      <use xlink:href="#DejaVuSans-65" x="63.623047"/>
      <use xlink:href="#DejaVuSans-2212" x="125.146484"/>
      <use xlink:href="#DejaVuSans-35" x="208.935547"/>
     </g>
    </g>
   </g>
   <g id="matplotlib.axis_6">
    <g id="ytick_7">
     <g id="line2d_24">
      <g>
       <use xlink:href="#mff7b803468" x="33.73" y="396.995455" style="stroke: #000000; stroke-width: 0.8"/>
      </g>
     </g>
     <g id="text_27">
      <!-- 0.0 -->
      <g transform="translate(10.826875 400.794673) scale(0.1 -0.1)">
       <use xlink:href="#DejaVuSans-30"/>
       <use xlink:href="#DejaVuSans-2e" x="63.623047"/>
       <use xlink:href="#DejaVuSans-30" x="95.410156"/>
      </g>
     </g>
    </g>
    <g id="ytick_8">
     <g id="line2d_25">
      <g>
       <use xlink:href="#mff7b803468" x="33.73" y="361.068533" style="stroke: #000000; stroke-width: 0.8"/>
      </g>
     </g>
     <g id="text_28">
      <!-- 0.5 -->
      <g transform="translate(10.826875 364.867752) scale(0.1 -0.1)">
       <use xlink:href="#DejaVuSans-30"/>
       <use xlink:href="#DejaVuSans-2e" x="63.623047"/>
       <use xlink:href="#DejaVuSans-35" x="95.410156"/>
      </g>
     </g>
    </g>
    <g id="ytick_9">
     <g id="line2d_26">
      <g>
       <use xlink:href="#mff7b803468" x="33.73" y="325.141612" style="stroke: #000000; stroke-width: 0.8"/>
      </g>
     </g>
     <g id="text_29">
      <!-- 1.0 -->
      <g transform="translate(10.826875 328.94083) scale(0.1 -0.1)">
       <use xlink:href="#DejaVuSans-31"/>
       <use xlink:href="#DejaVuSans-2e" x="63.623047"/>
       <use xlink:href="#DejaVuSans-30" x="95.410156"/>
      </g>
     </g>
    </g>
   </g>
   <g id="line2d_27">
    <path d="M 64.433182 396.995455 
L 98.223577 325.304545 
L 98.530762 396.506653 
L 132.013972 325.467479 
L 132.321158 396.669587 
L 165.804367 325.630413 
L 166.111553 396.832521 
L 199.594763 325.793347 
L 199.901948 396.995455 
L 233.692343 325.304545 
L 233.999529 396.506653 
L 267.482738 325.467479 
L 267.789924 396.669587 
L 301.273134 325.630413 
L 301.580319 396.832521 
L 335.063529 325.793347 
L 335.370714 396.995455 
L 369.161109 325.304545 
L 369.468295 396.506653 
L 402.951505 325.467479 
L 403.25869 396.669587 
L 436.7419 325.630413 
L 437.049085 396.832521 
L 470.532295 325.793347 
L 470.83948 396.995455 
L 504.629876 325.304545 
L 504.937061 396.506653 
L 538.420271 325.467479 
L 538.727456 396.669587 
L 572.210666 325.630413 
L 572.517851 396.832521 
L 606.001061 325.793347 
L 606.308247 396.995455 
L 640.098642 325.304545 
L 640.405827 396.506653 
L 673.889037 325.467479 
L 674.196222 396.669587 
L 678.496818 387.545289 
L 678.496818 387.545289 
" clip-path="url(#p8a47f99f2c)" style="fill: none; stroke: #1f77b4; stroke-width: 1.5; stroke-linecap: square"/>
   </g>
   <g id="patch_13">
    <path d="M 33.73 400.58 
L 33.73 321.72 
" style="fill: none; stroke: #000000; stroke-width: 0.8; stroke-linejoin: miter; stroke-linecap: square"/>
   </g>
   <g id="patch_14">
    <path d="M 709.2 400.58 
L 709.2 321.72 
" style="fill: none; stroke: #000000; stroke-width: 0.8; stroke-linejoin: miter; stroke-linecap: square"/>
   </g>
   <g id="patch_15">
    <path d="M 33.73 400.58 
L 709.2 400.58 
" style="fill: none; stroke: #000000; stroke-width: 0.8; stroke-linejoin: miter; stroke-linecap: square"/>
   </g>
   <g id="patch_16">
    <path d="M 33.73 321.72 
L 709.2 321.72 
" style="fill: none; stroke: #000000; stroke-width: 0.8; stroke-linejoin: miter; stroke-linecap: square"/>
   </g>
   <g id="text_30">
    <!-- c.wav -->
    <g transform="translate(354.124063 315.72) scale(0.12 -0.12)">
     <defs>
      <path id="DejaVuSans-63" d="M 3122 3366 
L 3122 2828 
Q 2878 2963 2633 3030 
Q 2388 3097 2138 3097 
Q 1578 3097 1268 2742 
Q 959 2388 959 1747 
Q 959 1106 1268 751 
Q 1578 397 2138 397 
Q 2388 397 2633 464 
Q 2878 531 3122 666 
L 3122 134 
Q 2881 22 2623 -34 
Q 2366 -91 2075 -91 
Q 1284 -91 818 406 
Q 353 903 353 1747 
Q 353 2603 823 3093 
Q 1294 3584 2113 3584 
Q 2378 3584 2631 3529 
Q 2884 3475 3122 3366 
z
" transform="scale(0.015625)"/>
     </defs>
     <use xlink:href="#DejaVuSans-63"/>
     <use xlink:href="#DejaVuSans-2e" x="54.980469"/>
     <use xlink:href="#DejaVuSans-77" x="86.767578"/>
     <use xlink:href="#DejaVuSans-61" x="168.554688"/>
     <use xlink:href="#DejaVuSans-76" x="229.833984"/>
    </g>
   </g>
  </g>
  <g id="axes_4">
   <g id="patch_17">
    <path d="M 33.73 535.04 
L 709.2 535.04 
L 709.2 456.18 
L 33.73 456.18 
z
" style="fill: #ffffff"/>
   </g>
   <g id="matplotlib.axis_7">
    <g id="xtick_16">
     <g id="line2d_28">
      <g>
       <use xlink:href="#mbd686d2ba3" x="64.433182" y="535.04" style="stroke: #000000; stroke-width: 0.8"/>
      </g>
     </g>
     <g id="text_31">
      <!-- 0.0 -->
      <g transform="translate(56.481619 549.638438) scale(0.1 -0.1)">
       <use xlink:href="#DejaVuSans-30"/>
       <use xlink:href="#DejaVuSans-2e" x="63.623047"/>
       <use xlink:href="#DejaVuSans-30" x="95.410156"/>
      </g>
     </g>
    </g>
    <g id="xtick_17">
     <g id="line2d_29">
      <g>
       <use xlink:href="#mbd686d2ba3" x="199.900412" y="535.04" style="stroke: #000000; stroke-width: 0.8"/>
      </g>
     </g>
     <g id="text_32">
      <!-- 0.5 -->
      <g transform="translate(191.94885 549.638438) scale(0.1 -0.1)">
       <use xlink:href="#DejaVuSans-30"/>
       <use xlink:href="#DejaVuSans-2e" x="63.623047"/>
       <use xlink:href="#DejaVuSans-35" x="95.410156"/>
      </g>
     </g>
    </g>
    <g id="xtick_18">
     <g id="line2d_30">
      <g>
       <use xlink:href="#mbd686d2ba3" x="335.367642" y="535.04" style="stroke: #000000; stroke-width: 0.8"/>
      </g>
     </g>
     <g id="text_33">
      <!-- 1.0 -->
      <g transform="translate(327.41608 549.638438) scale(0.1 -0.1)">
       <use xlink:href="#DejaVuSans-31"/>
       <use xlink:href="#DejaVuSans-2e" x="63.623047"/>
       <use xlink:href="#DejaVuSans-30" x="95.410156"/>
      </g>
     </g>
    </g>
    <g id="xtick_19">
     <g id="line2d_31">
      <g>
       <use xlink:href="#mbd686d2ba3" x="470.834873" y="535.04" style="stroke: #000000; stroke-width: 0.8"/>
      </g>
     </g>
     <g id="text_34">
      <!-- 1.5 -->
      <g transform="translate(462.88331 549.638438) scale(0.1 -0.1)">
       <use xlink:href="#DejaVuSans-31"/>
       <use xlink:href="#DejaVuSans-2e" x="63.623047"/>
       <use xlink:href="#DejaVuSans-35" x="95.410156"/>
      </g>
     </g>
    </g>
    <g id="xtick_20">
     <g id="line2d_32">
      <g>
       <use xlink:href="#mbd686d2ba3" x="606.302103" y="535.04" style="stroke: #000000; stroke-width: 0.8"/>
      </g>
     </g>
     <g id="text_35">
      <!-- 2.0 -->
      <g transform="translate(598.35054 549.638438) scale(0.1 -0.1)">
       <use xlink:href="#DejaVuSans-32"/>
       <use xlink:href="#DejaVuSans-2e" x="63.623047"/>
       <use xlink:href="#DejaVuSans-30" x="95.410156"/>
      </g>
     </g>
    </g>
    <g id="text_36">
     <!-- 1e−5 -->
     <g transform="translate(681.942188 562.316563) scale(0.1 -0.1)">
      <use xlink:href="#DejaVuSans-31"/>
      <use xlink:href="#DejaVuSans-65" x="63.623047"/>
      <use xlink:href="#DejaVuSans-2212" x="125.146484"/>
      <use xlink:href="#DejaVuSans-35" x="208.935547"/>
     </g>
    </g>
   </g>
   <g id="matplotlib.axis_8">
    <g id="ytick_10">
     <g id="line2d_33">
      <g>
       <use xlink:href="#mff7b803468" x="33.73" y="531.455455" style="stroke: #000000; stroke-width: 0.8"/>
      </g>
     </g>
     <g id="text_37">
      <!-- −1 -->
      <g transform="translate(11.987812 535.254673) scale(0.1 -0.1)">
       <use xlink:href="#DejaVuSans-2212"/>
       <use xlink:href="#DejaVuSans-31" x="83.789062"/>
      </g>
     </g>
    </g>
    <g id="ytick_11">
     <g id="line2d_34">
      <g>
       <use xlink:href="#mff7b803468" x="33.73" y="495.61" style="stroke: #000000; stroke-width: 0.8"/>
      </g>
     </g>
     <g id="text_38">
      <!-- 0 -->
      <g transform="translate(20.3675 499.409219) scale(0.1 -0.1)">
       <use xlink:href="#DejaVuSans-30"/>
      </g>
     </g>
    </g>
    <g id="ytick_12">
     <g id="line2d_35">
      <g>
       <use xlink:href="#mff7b803468" x="33.73" y="459.764545" style="stroke: #000000; stroke-width: 0.8"/>
      </g>
     </g>
     <g id="text_39">
      <!-- 1 -->
      <g transform="translate(20.3675 463.563764) scale(0.1 -0.1)">
       <use xlink:href="#DejaVuSans-31"/>
      </g>
     </g>
    </g>
   </g>
   <g id="line2d_36">
    <path d="M 64.433182 459.764545 
L 72.727188 459.764545 
L 73.034373 531.455455 
L 81.328379 531.455455 
L 81.635565 459.764545 
L 89.622386 459.764545 
L 89.929571 531.455455 
L 98.223577 531.455455 
L 98.530762 459.764545 
L 106.517583 459.764545 
L 106.824769 531.455455 
L 115.118775 531.455455 
L 115.42596 459.764545 
L 123.412781 459.764545 
L 123.719966 531.455455 
L 132.013972 531.455455 
L 132.321158 459.764545 
L 140.615164 459.764545 
L 140.922349 531.455455 
L 148.90917 531.455455 
L 149.216355 459.764545 
L 157.510361 459.764545 
L 157.817547 531.455455 
L 165.804367 531.455455 
L 166.111553 459.764545 
L 174.405559 459.764545 
L 174.712744 531.455455 
L 182.699565 531.455455 
L 183.00675 459.764545 
L 191.300757 459.764545 
L 191.607942 531.455455 
L 199.594763 531.455455 
L 199.901948 459.764545 
L 208.195954 459.764545 
L 208.50314 531.455455 
L 216.797146 531.455455 
L 217.104331 459.764545 
L 225.091152 459.764545 
L 225.398337 531.455455 
L 233.692343 531.455455 
L 233.999529 459.764545 
L 241.986349 459.764545 
L 242.293535 531.455455 
L 250.587541 531.455455 
L 250.894726 459.764545 
L 258.881547 459.764545 
L 259.188732 531.455455 
L 267.482738 531.455455 
L 267.789924 459.764545 
L 276.08393 459.764545 
L 276.391115 531.455455 
L 284.377936 531.455455 
L 284.685121 459.764545 
L 292.979128 459.764545 
L 293.286313 531.455455 
L 301.273134 531.455455 
L 301.580319 459.764545 
L 309.874325 459.764545 
L 310.181511 531.455455 
L 318.168331 531.455455 
L 318.475517 459.764545 
L 326.769523 459.764545 
L 327.076708 531.455455 
L 335.063529 531.455455 
L 335.370714 459.764545 
L 343.66472 459.764545 
L 343.971906 531.455455 
L 352.265912 531.455455 
L 352.573097 459.764545 
L 360.559918 459.764545 
L 360.867103 531.455455 
L 369.161109 531.455455 
L 369.468295 459.764545 
L 377.455116 459.764545 
L 377.762301 531.455455 
L 386.056307 531.455455 
L 386.363492 459.764545 
L 394.350313 459.764545 
L 394.657499 531.455455 
L 402.951505 531.455455 
L 403.25869 459.764545 
L 411.552696 459.764545 
L 411.859882 531.455455 
L 419.846702 531.455455 
L 420.153888 459.764545 
L 428.447894 459.764545 
L 428.755079 531.455455 
L 436.7419 531.455455 
L 437.049085 459.764545 
L 445.343091 459.764545 
L 445.650277 531.455455 
L 453.637097 531.455455 
L 453.944283 459.764545 
L 462.238289 459.764545 
L 462.545474 531.455455 
L 470.532295 531.455455 
L 470.83948 459.764545 
L 479.133487 459.764545 
L 479.440672 531.455455 
L 487.734678 531.455455 
L 488.041863 459.764545 
L 496.028684 459.764545 
L 496.33587 531.455455 
L 504.629876 531.455455 
L 504.937061 459.764545 
L 512.923882 459.764545 
L 513.231067 531.455455 
L 521.525073 531.455455 
L 521.832259 459.764545 
L 529.819079 459.764545 
L 530.126265 531.455455 
L 538.420271 531.455455 
L 538.727456 459.764545 
L 547.021462 459.764545 
L 547.328648 531.455455 
L 555.315468 531.455455 
L 555.622654 459.764545 
L 563.91666 459.764545 
L 564.223845 531.455455 
L 572.210666 531.455455 
L 572.517851 459.764545 
L 580.811858 459.764545 
L 581.119043 531.455455 
L 589.105864 531.455455 
L 589.413049 459.764545 
L 597.707055 459.764545 
L 598.014241 531.455455 
L 606.001061 531.455455 
L 606.308247 459.764545 
L 614.602253 459.764545 
L 614.909438 531.455455 
L 623.203444 531.455455 
L 623.51063 459.764545 
L 631.49745 459.764545 
L 631.804636 531.455455 
L 640.098642 531.455455 
L 640.405827 459.764545 
L 648.392648 459.764545 
L 648.699833 531.455455 
L 656.993839 531.455455 
L 657.301025 459.764545 
L 665.287846 459.764545 
L 665.595031 531.455455 
L 673.889037 531.455455 
L 674.196222 459.764545 
L 678.496818 459.764545 
L 678.496818 459.764545 
" clip-path="url(#p036425e717)" style="fill: none; stroke: #1f77b4; stroke-width: 1.5; stroke-linecap: square"/>
   </g>
   <g id="patch_18">
    <path d="M 33.73 535.04 
L 33.73 456.18 
" style="fill: none; stroke: #000000; stroke-width: 0.8; stroke-linejoin: miter; stroke-linecap: square"/>
   </g>
   <g id="patch_19">
    <path d="M 709.2 535.04 
L 709.2 456.18 
" style="fill: none; stroke: #000000; stroke-width: 0.8; stroke-linejoin: miter; stroke-linecap: square"/>
   </g>
   <g id="patch_20">
    <path d="M 33.73 535.04 
L 709.2 535.04 
" style="fill: none; stroke: #000000; stroke-width: 0.8; stroke-linejoin: miter; stroke-linecap: square"/>
   </g>
   <g id="patch_21">
    <path d="M 33.73 456.18 
L 709.2 456.18 
" style="fill: none; stroke: #000000; stroke-width: 0.8; stroke-linejoin: miter; stroke-linecap: square"/>
   </g>
   <g id="text_40">
    <!-- d.wav -->
    <g transform="translate(353.614063 450.18) scale(0.12 -0.12)">
     <defs>
      <path id="DejaVuSans-64" d="M 2906 2969 
L 2906 4863 
L 3481 4863 
L 3481 0 
L 2906 0 
L 2906 525 
Q 2725 213 2448 61 
Q 2172 -91 1784 -91 
Q 1150 -91 751 415 
Q 353 922 353 1747 
Q 353 2572 751 3078 
Q 1150 3584 1784 3584 
Q 2172 3584 2448 3432 
Q 2725 3281 2906 2969 
z
M 947 1747 
Q 947 1113 1208 752 
Q 1469 391 1925 391 
Q 2381 391 2643 752 
Q 2906 1113 2906 1747 
Q 2906 2381 2643 2742 
Q 2381 3103 1925 3103 
Q 1469 3103 1208 2742 
Q 947 2381 947 1747 
z
" transform="scale(0.015625)"/>
     </defs>
     <use xlink:href="#DejaVuSans-64"/>
     <use xlink:href="#DejaVuSans-2e" x="63.476562"/>
     <use xlink:href="#DejaVuSans-77" x="95.263672"/>
     <use xlink:href="#DejaVuSans-61" x="177.050781"/>
     <use xlink:href="#DejaVuSans-76" x="238.330078"/>
    </g>
   </g>
  </g>
  <g id="text_41">
   <!-- Signals read from saved audio wav files -->
   <g transform="translate(200.87125 23.6775) scale(0.16 -0.16)">
    <defs>
     <path id="DejaVuSans-53" d="M 3425 4513 
L 3425 3897 
Q 3066 4069 2747 4153 
Q 2428 4238 2131 4238 
Q 1616 4238 1336 4038 
Q 1056 3838 1056 3469 
Q 1056 3159 1242 3001 
Q 1428 2844 1947 2747 
L 2328 2669 
Q 3034 2534 3370 2195 
Q 3706 1856 3706 1288 
Q 3706 609 3251 259 
Q 2797 -91 1919 -91 
Q 1588 -91 1214 -16 
Q 841 59 441 206 
L 441 856 
Q 825 641 1194 531 
Q 1563 422 1919 422 
Q 2459 422 2753 634 
Q 3047 847 3047 1241 
Q 3047 1584 2836 1778 
Q 2625 1972 2144 2069 
L 1759 2144 
Q 1053 2284 737 2584 
Q 422 2884 422 3419 
Q 422 4038 858 4394 
Q 1294 4750 2059 4750 
Q 2388 4750 2728 4690 
Q 3069 4631 3425 4513 
z
" transform="scale(0.015625)"/>
     <path id="DejaVuSans-69" d="M 603 3500 
L 1178 3500 
L 1178 0 
L 603 0 
L 603 3500 
z
M 603 4863 
L 1178 4863 
L 1178 4134 
L 603 4134 
L 603 4863 
z
" transform="scale(0.015625)"/>
     <path id="DejaVuSans-67" d="M 2906 1791 
Q 2906 2416 2648 2759 
Q 2391 3103 1925 3103 
Q 1463 3103 1205 2759 
Q 947 2416 947 1791 
Q 947 1169 1205 825 
Q 1463 481 1925 481 
Q 2391 481 2648 825 
Q 2906 1169 2906 1791 
z
M 3481 434 
Q 3481 -459 3084 -895 
Q 2688 -1331 1869 -1331 
Q 1566 -1331 1297 -1286 
Q 1028 -1241 775 -1147 
L 775 -588 
Q 1028 -725 1275 -790 
Q 1522 -856 1778 -856 
Q 2344 -856 2625 -561 
Q 2906 -266 2906 331 
L 2906 616 
Q 2728 306 2450 153 
Q 2172 0 1784 0 
Q 1141 0 747 490 
Q 353 981 353 1791 
Q 353 2603 747 3093 
Q 1141 3584 1784 3584 
Q 2172 3584 2450 3431 
Q 2728 3278 2906 2969 
L 2906 3500 
L 3481 3500 
L 3481 434 
z
" transform="scale(0.015625)"/>
     <path id="DejaVuSans-6e" d="M 3513 2113 
L 3513 0 
L 2938 0 
L 2938 2094 
Q 2938 2591 2744 2837 
Q 2550 3084 2163 3084 
Q 1697 3084 1428 2787 
Q 1159 2491 1159 1978 
L 1159 0 
L 581 0 
L 581 3500 
L 1159 3500 
L 1159 2956 
Q 1366 3272 1645 3428 
Q 1925 3584 2291 3584 
Q 2894 3584 3203 3211 
Q 3513 2838 3513 2113 
z
" transform="scale(0.015625)"/>
     <path id="DejaVuSans-6c" d="M 603 4863 
L 1178 4863 
L 1178 0 
L 603 0 
L 603 4863 
z
" transform="scale(0.015625)"/>
     <path id="DejaVuSans-73" d="M 2834 3397 
L 2834 2853 
Q 2591 2978 2328 3040 
Q 2066 3103 1784 3103 
Q 1356 3103 1142 2972 
Q 928 2841 928 2578 
Q 928 2378 1081 2264 
Q 1234 2150 1697 2047 
L 1894 2003 
Q 2506 1872 2764 1633 
Q 3022 1394 3022 966 
Q 3022 478 2636 193 
Q 2250 -91 1575 -91 
Q 1294 -91 989 -36 
Q 684 19 347 128 
L 347 722 
Q 666 556 975 473 
Q 1284 391 1588 391 
Q 1994 391 2212 530 
Q 2431 669 2431 922 
Q 2431 1156 2273 1281 
Q 2116 1406 1581 1522 
L 1381 1569 
Q 847 1681 609 1914 
Q 372 2147 372 2553 
Q 372 3047 722 3315 
Q 1072 3584 1716 3584 
Q 2034 3584 2315 3537 
Q 2597 3491 2834 3397 
z
" transform="scale(0.015625)"/>
     <path id="DejaVuSans-20" transform="scale(0.015625)"/>
     <path id="DejaVuSans-72" d="M 2631 2963 
Q 2534 3019 2420 3045 
Q 2306 3072 2169 3072 
Q 1681 3072 1420 2755 
Q 1159 2438 1159 1844 
L 1159 0 
L 581 0 
L 581 3500 
L 1159 3500 
L 1159 2956 
Q 1341 3275 1631 3429 
Q 1922 3584 2338 3584 
Q 2397 3584 2469 3576 
Q 2541 3569 2628 3553 
L 2631 2963 
z
" transform="scale(0.015625)"/>
     <path id="DejaVuSans-66" d="M 2375 4863 
L 2375 4384 
L 1825 4384 
Q 1516 4384 1395 4259 
Q 1275 4134 1275 3809 
L 1275 3500 
L 2222 3500 
L 2222 3053 
L 1275 3053 
L 1275 0 
L 697 0 
L 697 3053 
L 147 3053 
L 147 3500 
L 697 3500 
L 697 3744 
Q 697 4328 969 4595 
Q 1241 4863 1831 4863 
L 2375 4863 
z
" transform="scale(0.015625)"/>
     <path id="DejaVuSans-6f" d="M 1959 3097 
Q 1497 3097 1228 2736 
Q 959 2375 959 1747 
Q 959 1119 1226 758 
Q 1494 397 1959 397 
Q 2419 397 2687 759 
Q 2956 1122 2956 1747 
Q 2956 2369 2687 2733 
Q 2419 3097 1959 3097 
z
M 1959 3584 
Q 2709 3584 3137 3096 
Q 3566 2609 3566 1747 
Q 3566 888 3137 398 
Q 2709 -91 1959 -91 
Q 1206 -91 779 398 
Q 353 888 353 1747 
Q 353 2609 779 3096 
Q 1206 3584 1959 3584 
z
" transform="scale(0.015625)"/>
     <path id="DejaVuSans-6d" d="M 3328 2828 
Q 3544 3216 3844 3400 
Q 4144 3584 4550 3584 
Q 5097 3584 5394 3201 
Q 5691 2819 5691 2113 
L 5691 0 
L 5113 0 
L 5113 2094 
Q 5113 2597 4934 2840 
Q 4756 3084 4391 3084 
Q 3944 3084 3684 2787 
Q 3425 2491 3425 1978 
L 3425 0 
L 2847 0 
L 2847 2094 
Q 2847 2600 2669 2842 
Q 2491 3084 2119 3084 
Q 1678 3084 1418 2786 
Q 1159 2488 1159 1978 
L 1159 0 
L 581 0 
L 581 3500 
L 1159 3500 
L 1159 2956 
Q 1356 3278 1631 3431 
Q 1906 3584 2284 3584 
Q 2666 3584 2933 3390 
Q 3200 3197 3328 2828 
z
" transform="scale(0.015625)"/>
     <path id="DejaVuSans-75" d="M 544 1381 
L 544 3500 
L 1119 3500 
L 1119 1403 
Q 1119 906 1312 657 
Q 1506 409 1894 409 
Q 2359 409 2629 706 
Q 2900 1003 2900 1516 
L 2900 3500 
L 3475 3500 
L 3475 0 
L 2900 0 
L 2900 538 
Q 2691 219 2414 64 
Q 2138 -91 1772 -91 
Q 1169 -91 856 284 
Q 544 659 544 1381 
z
M 1991 3584 
L 1991 3584 
z
" transform="scale(0.015625)"/>
    </defs>
    <use xlink:href="#DejaVuSans-53"/>
    <use xlink:href="#DejaVuSans-69" x="63.476562"/>
    <use xlink:href="#DejaVuSans-67" x="91.259766"/>
    <use xlink:href="#DejaVuSans-6e" x="154.736328"/>
    <use xlink:href="#DejaVuSans-61" x="218.115234"/>
    <use xlink:href="#DejaVuSans-6c" x="279.394531"/>
    <use xlink:href="#DejaVuSans-73" x="307.177734"/>
    <use xlink:href="#DejaVuSans-20" x="359.277344"/>
    <use xlink:href="#DejaVuSans-72" x="391.064453"/>
    <use xlink:href="#DejaVuSans-65" x="429.927734"/>
    <use xlink:href="#DejaVuSans-61" x="491.451172"/>
    <use xlink:href="#DejaVuSans-64" x="552.730469"/>
    <use xlink:href="#DejaVuSans-20" x="616.207031"/>
    <use xlink:href="#DejaVuSans-66" x="647.994141"/>
    <use xlink:href="#DejaVuSans-72" x="683.199219"/>
    <use xlink:href="#DejaVuSans-6f" x="722.0625"/>
    <use xlink:href="#DejaVuSans-6d" x="783.244141"/>
    <use xlink:href="#DejaVuSans-20" x="880.65625"/>
    <use xlink:href="#DejaVuSans-73" x="912.443359"/>
    <use xlink:href="#DejaVuSans-61" x="964.542969"/>
    <use xlink:href="#DejaVuSans-76" x="1025.822266"/>
    <use xlink:href="#DejaVuSans-65" x="1085.001953"/>
    <use xlink:href="#DejaVuSans-64" x="1146.525391"/>
    <use xlink:href="#DejaVuSans-20" x="1210.001953"/>
    <use xlink:href="#DejaVuSans-61" x="1241.789062"/>
    <use xlink:href="#DejaVuSans-75" x="1303.068359"/>
    <use xlink:href="#DejaVuSans-64" x="1366.447266"/>
    <use xlink:href="#DejaVuSans-69" x="1429.923828"/>
    <use xlink:href="#DejaVuSans-6f" x="1457.707031"/>
    <use xlink:href="#DejaVuSans-20" x="1518.888672"/>
    <use xlink:href="#DejaVuSans-77" x="1550.675781"/>
    <use xlink:href="#DejaVuSans-61" x="1632.462891"/>
    <use xlink:href="#DejaVuSans-76" x="1693.742188"/>
    <use xlink:href="#DejaVuSans-20" x="1752.921875"/>
    <use xlink:href="#DejaVuSans-66" x="1784.708984"/>
    <use xlink:href="#DejaVuSans-69" x="1819.914062"/>
    <use xlink:href="#DejaVuSans-6c" x="1847.697266"/>
    <use xlink:href="#DejaVuSans-65" x="1875.480469"/>
    <use xlink:href="#DejaVuSans-73" x="1937.003906"/>
   </g>
  </g>
 </g>
 <defs>
  <clipPath id="pf5b1c06471">
   <rect x="33.73" y="52.8" width="675.47" height="78.86"/>
  </clipPath>
  <clipPath id="p2ebef4b4bd">
   <rect x="33.73" y="187.26" width="675.47" height="78.86"/>
  </clipPath>
  <clipPath id="p8a47f99f2c">
   <rect x="33.73" y="321.72" width="675.47" height="78.86"/>
  </clipPath>
  <clipPath id="p036425e717">
   <rect x="33.73" y="456.18" width="675.47" height="78.86"/>
  </clipPath>
 </defs>
</svg>
