<?xml version="1.0" encoding="utf-8" standalone="no"?>
<!DOCTYPE svg PUBLIC "-//W3C//DTD SVG 1.1//EN"
  "http://www.w3.org/Graphics/SVG/1.1/DTD/svg11.dtd">
<svg xmlns:xlink="http://www.w3.org/1999/xlink" width="720pt" height="432pt" viewBox="0 0 720 432" xmlns="http://www.w3.org/2000/svg" version="1.1">
 <metadata>
  <rdf:RDF xmlns:dc="http://purl.org/dc/elements/1.1/" xmlns:cc="http://creativecommons.org/ns#" xmlns:rdf="http://www.w3.org/1999/02/22-rdf-syntax-ns#">
   <cc:Work>
    <dc:type rdf:resource="http://purl.org/dc/dcmitype/StillImage"/>
    <dc:date>2025-11-01T01:56:46.266272</dc:date>
    <dc:format>image/svg+xml</dc:format>
    <dc:creator>
     <cc:Agent>
      <dc:title>Matplotlib v3.6.3, https://matplotlib.org/</dc:title>
     </cc:Agent>
    </dc:creator>
   </cc:Work>
  </rdf:RDF>
 </metadata>
 <defs>
  <style type="text/css">*{stroke-linejoin: round; stroke-linecap: butt}</style>
 </defs>
 <g id="figure_1">
  <g id="patch_1">
   <path d="M 0 432 
L 720 432 
L 720 0 
L 0 0 
z
" style="fill: #ffffff"/>
  </g>
  <g id="axes_1">
   <g id="patch_2">
    <path d="M 32.56 141.56 
L 709.2 141.56 
L 709.2 52.8 
L 32.56 52.8 
z
" style="fill: #ffffff"/>
   </g>
   <g id="matplotlib.axis_1">
    <g id="xtick_1">
     <g id="line2d_1">
      <defs>
       <path id="m0dd2c2c470" d="M 0 0 
L 0 3.5 
" style="stroke: #000000; stroke-width: 0.8"/>
      </defs>
      <g>
       <use xlink:href="#m0dd2c2c470" x="63.316364" y="141.56" style="stroke: #000000; stroke-width: 0.8"/>
      </g>
     </g>
     <g id="text_1">
      <!-- 0.000 -->
      <g transform="translate(49.002301 156.158437) scale(0.1 -0.1)">
       <defs>
        <path id="DejaVuSans-30" d="M 2034 4250 
Q 1547 4250 1301 3770 
Q 1056 3291 1056 2328 
Q 1056 1369 1301 889 
Q 1547 409 2034 409 
Q 2525 409 2770 889 
Q 3016 1369 3016 2328 
Q 3016 3291 2770 3770 
Q 2525 4250 2034 4250 
z
M 2034 4750 
Q 2819 4750 3233 4129 
Q 3647 3509 3647 2328 
Q 3647 1150 3233 529 
Q 2819 -91 2034 -91 
Q 1250 -91 836 529 
Q 422 1150 422 2328 
Q 422 3509 836 4129 
Q 1250 4750 2034 4750 
z
" transform="scale(0.015625)"/>
        <path id="DejaVuSans-2e" d="M 684 794 
L 1344 794 
L 1344 0 
L 684 0 
L 684 794 
z
" transform="scale(0.015625)"/>
       </defs>
       <use xlink:href="#DejaVuSans-30"/>
       <use xlink:href="#DejaVuSans-2e" x="63.623047"/>
       <use xlink:href="#DejaVuSans-30" x="95.410156"/>
       <use xlink:href="#DejaVuSans-30" x="159.033203"/>
       <use xlink:href="#DejaVuSans-30" x="222.65625"/>
      </g>
     </g>
    </g>
    <g id="xtick_2">
     <g id="line2d_2">
      <g>
       <use xlink:href="#m0dd2c2c470" x="186.960037" y="141.56" style="stroke: #000000; stroke-width: 0.8"/>
      </g>
     </g>
     <g id="text_2">
      <!-- 0.002 -->
      <g transform="translate(172.645974 156.158437) scale(0.1 -0.1)">
       <defs>
        <path id="DejaVuSans-32" d="M 1228 531 
L 3431 531 
L 3431 0 
L 469 0 
L 469 531 
Q 828 903 1448 1529 
Q 2069 2156 2228 2338 
Q 2531 2678 2651 2914 
Q 2772 3150 2772 3378 
Q 2772 3750 2511 3984 
Q 2250 4219 1831 4219 
Q 1534 4219 1204 4116 
Q 875 4013 500 3803 
L 500 4441 
Q 881 4594 1212 4672 
Q 1544 4750 1819 4750 
Q 2544 4750 2975 4387 
Q 3406 4025 3406 3419 
Q 3406 3131 3298 2873 
Q 3191 2616 2906 2266 
Q 2828 2175 2409 1742 
Q 1991 1309 1228 531 
z
" transform="scale(0.015625)"/>
       </defs>
       <use xlink:href="#DejaVuSans-30"/>
       <use xlink:href="#DejaVuSans-2e" x="63.623047"/>
       <use xlink:href="#DejaVuSans-30" x="95.410156"/>
       <use xlink:href="#DejaVuSans-30" x="159.033203"/>
       <use xlink:href="#DejaVuSans-32" x="222.65625"/>
      </g>
     </g>
    </g>
    <g id="xtick_3">
     <g id="line2d_3">
      <g>
       <use xlink:href="#m0dd2c2c470" x="310.603709" y="141.56" style="stroke: #000000; stroke-width: 0.8"/>
      </g>
     </g>
     <g id="text_3">
      <!-- 0.004 -->
      <g transform="translate(296.289647 156.158437) scale(0.1 -0.1)">
       <defs>
        <path id="DejaVuSans-34" d="M 2419 4116 
L 825 1625 
L 2419 1625 
L 2419 4116 
z
M 2253 4666 
L 3047 4666 
L 3047 1625 
L 3713 1625 
L 3713 1100 
L 3047 1100 
L 3047 0 
L 2419 0 
L 2419 1100 
L 313 1100 
L 313 1709 
L 2253 4666 
z
" transform="scale(0.015625)"/>
       </defs>
       <use xlink:href="#DejaVuSans-30"/>
       <use xlink:href="#DejaVuSans-2e" x="63.623047"/>
       <use xlink:href="#DejaVuSans-30" x="95.410156"/>
       <use xlink:href="#DejaVuSans-30" x="159.033203"/>
       <use xlink:href="#DejaVuSans-34" x="222.65625"/>
      </g>
     </g>
    </g>
    <g id="xtick_4">
     <g id="line2d_4">
      <g>
       <use xlink:href="#m0dd2c2c470" x="434.247382" y="141.56" style="stroke: #000000; stroke-width: 0.8"/>
      </g>
     </g>
     <g id="text_4">
      <!-- 0.006 -->
      <g transform="translate(419.93332 156.158437) scale(0.1 -0.1)">
       <defs>
        <path id="DejaVuSans-36" d="M 2113 2584 
Q 1688 2584 1439 2293 
Q 1191 2003 1191 1497 
Q 1191 994 1439 701 
Q 1688 409 2113 409 
Q 2538 409 2786 701 
Q 3034 994 3034 1497 
Q 3034 2003 2786 2293 
Q 2538 2584 2113 2584 
z
M 3366 4563 
L 3366 3988 
Q 3128 4100 2886 4159 
Q 2644 4219 2406 4219 
Q 1781 4219 1451 3797 
Q 1122 3375 1075 2522 
Q 1259 2794 1537 2939 
Q 1816 3084 2150 3084 
Q 2853 3084 3261 2657 
Q 3669 2231 3669 1497 
Q 3669 778 3244 343 
Q 2819 -91 2113 -91 
Q 1303 -91 875 529 
Q 447 1150 447 2328 
Q 447 3434 972 4092 
Q 1497 4750 2381 4750 
Q 2619 4750 2861 4703 
Q 3103 4656 3366 4563 
z
" transform="scale(0.015625)"/>
       </defs>
       <use xlink:href="#DejaVuSans-30"/>
       <use xlink:href="#DejaVuSans-2e" x="63.623047"/>
       <use xlink:href="#DejaVuSans-30" x="95.410156"/>
       <use xlink:href="#DejaVuSans-30" x="159.033203"/>
       <use xlink:href="#DejaVuSans-36" x="222.65625"/>
      </g>
     </g>
    </g>
    <g id="xtick_5">
     <g id="line2d_5">
      <g>
       <use xlink:href="#m0dd2c2c470" x="557.891055" y="141.56" style="stroke: #000000; stroke-width: 0.8"/>
      </g>
     </g>
     <g id="text_5">
      <!-- 0.008 -->
      <g transform="translate(543.576993 156.158437) scale(0.1 -0.1)">
       <defs>
        <path id="DejaVuSans-38" d="M 2034 2216 
Q 1584 2216 1326 1975 
Q 1069 1734 1069 1313 
Q 1069 891 1326 650 
Q 1584 409 2034 409 
Q 2484 409 2743 651 
Q 3003 894 3003 1313 
Q 3003 1734 2745 1975 
Q 2488 2216 2034 2216 
z
M 1403 2484 
Q 997 2584 770 2862 
Q 544 3141 544 3541 
Q 544 4100 942 4425 
Q 1341 4750 2034 4750 
Q 2731 4750 3128 4425 
Q 3525 4100 3525 3541 
Q 3525 3141 3298 2862 
Q 3072 2584 2669 2484 
Q 3125 2378 3379 2068 
Q 3634 1759 3634 1313 
Q 3634 634 3220 271 
Q 2806 -91 2034 -91 
Q 1263 -91 848 271 
Q 434 634 434 1313 
Q 434 1759 690 2068 
Q 947 2378 1403 2484 
z
M 1172 3481 
Q 1172 3119 1398 2916 
Q 1625 2713 2034 2713 
Q 2441 2713 2670 2916 
Q 2900 3119 2900 3481 
Q 2900 3844 2670 4047 
Q 2441 4250 2034 4250 
Q 1625 4250 1398 4047 
Q 1172 3844 1172 3481 
z
" transform="scale(0.015625)"/>
       </defs>
       <use xlink:href="#DejaVuSans-30"/>
       <use xlink:href="#DejaVuSans-2e" x="63.623047"/>
       <use xlink:href="#DejaVuSans-30" x="95.410156"/>
       <use xlink:href="#DejaVuSans-30" x="159.033203"/>
       <use xlink:href="#DejaVuSans-38" x="222.65625"/>
      </g>
     </g>
    </g>
    <g id="xtick_6">
     <g id="line2d_6">
      <g>
       <use xlink:href="#m0dd2c2c470" x="681.534728" y="141.56" style="stroke: #000000; stroke-width: 0.8"/>
      </g>
     </g>
     <g id="text_6">
      <!-- 0.010 -->
      <g transform="translate(667.220666 156.158437) scale(0.1 -0.1)">
       <defs>
        <path id="DejaVuSans-31" d="M 794 531 
L 1825 531 
L 1825 4091 
L 703 3866 
L 703 4441 
L 1819 4666 
L 2450 4666 
L 2450 531 
L 3481 531 
L 3481 0 
L 794 0 
L 794 531 
z
" transform="scale(0.015625)"/>
       </defs>
       <use xlink:href="#DejaVuSans-30"/>
       <use xlink:href="#DejaVuSans-2e" x="63.623047"/>
       <use xlink:href="#DejaVuSans-30" x="95.410156"/>
       <use xlink:href="#DejaVuSans-31" x="159.033203"/>
       <use xlink:href="#DejaVuSans-30" x="222.65625"/>
      </g>
     </g>
    </g>
   </g>
   <g id="matplotlib.axis_2">
    <g id="ytick_1">
     <g id="line2d_7">
      <defs>
       <path id="me35bb0b29d" d="M 0 0 
L -3.5 0 
" style="stroke: #000000; stroke-width: 0.8"/>
      </defs>
      <g>
       <use xlink:href="#me35bb0b29d" x="32.56" y="137.605224" style="stroke: #000000; stroke-width: 0.8"/>
      </g>
     </g>
     <g id="text_7">
      <!-- −1 -->
      <g transform="translate(10.817812 141.404443) scale(0.1 -0.1)">
       <defs>
        <path id="DejaVuSans-2212" d="M 678 2272 
L 4684 2272 
L 4684 1741 
L 678 1741 
L 678 2272 
z
" transform="scale(0.015625)"/>
       </defs>
       <use xlink:href="#DejaVuSans-2212"/>
       <use xlink:href="#DejaVuSans-31" x="83.789062"/>
      </g>
     </g>
    </g>
    <g id="ytick_2">
     <g id="line2d_8">
      <g>
       <use xlink:href="#me35bb0b29d" x="32.56" y="97.18" style="stroke: #000000; stroke-width: 0.8"/>
      </g>
     </g>
     <g id="text_8">
      <!-- 0 -->
      <g transform="translate(19.1975 100.979219) scale(0.1 -0.1)">
       <use xlink:href="#DejaVuSans-30"/>
      </g>
     </g>
    </g>
    <g id="ytick_3">
     <g id="line2d_9">
      <g>
       <use xlink:href="#me35bb0b29d" x="32.56" y="56.754776" style="stroke: #000000; stroke-width: 0.8"/>
      </g>
     </g>
     <g id="text_9">
      <!-- 1 -->
      <g transform="translate(19.1975 60.553994) scale(0.1 -0.1)">
       <use xlink:href="#DejaVuSans-31"/>
      </g>
     </g>
    </g>
   </g>
   <g id="line2d_10">
    <path d="M 63.316364 97.18 
L 69.498547 87.126655 
L 72.589639 82.298482 
L 75.680731 77.705 
L 78.771823 73.418649 
L 81.862915 69.50703 
L 84.954006 66.031829 
L 88.045098 63.047854 
L 91.13619 60.602163 
L 94.227282 58.733327 
L 97.318374 57.470817 
L 100.409466 56.834545 
L 103.500557 56.834545 
L 106.591649 57.470817 
L 109.682741 58.733327 
L 112.773833 60.602163 
L 115.864925 63.047854 
L 118.956016 66.031829 
L 122.047108 69.50703 
L 125.1382 73.418649 
L 128.229292 77.705 
L 131.320384 82.298482 
L 137.502567 92.113376 
L 146.775843 107.233345 
L 149.866935 112.061518 
L 152.958026 116.655 
L 156.049118 120.941351 
L 159.14021 124.85297 
L 162.231302 128.328171 
L 165.322394 131.312146 
L 168.413486 133.757837 
L 171.504577 135.626673 
L 174.595669 136.889183 
L 177.686761 137.525455 
L 180.777853 137.525455 
L 183.868945 136.889183 
L 186.960037 135.626673 
L 190.051128 133.757837 
L 193.14222 131.312146 
L 196.233312 128.328171 
L 199.324404 124.85297 
L 202.415496 120.941351 
L 205.506587 116.655 
L 208.597679 112.061518 
L 214.779863 102.246624 
L 224.053138 87.126655 
L 227.14423 82.298482 
L 230.235322 77.705 
L 233.326414 73.418649 
L 236.417506 69.50703 
L 239.508598 66.031829 
L 242.599689 63.047854 
L 245.690781 60.602163 
L 248.781873 58.733327 
L 251.872965 57.470817 
L 254.964057 56.834545 
L 258.055148 56.834545 
L 261.14624 57.470817 
L 264.237332 58.733327 
L 267.328424 60.602163 
L 270.419516 63.047854 
L 273.510608 66.031829 
L 276.601699 69.50703 
L 279.692791 73.418649 
L 282.783883 77.705 
L 285.874975 82.298482 
L 292.057159 92.113376 
L 301.330434 107.233345 
L 304.421526 112.061518 
L 307.512618 116.655 
L 310.603709 120.941351 
L 313.694801 124.85297 
L 316.785893 128.328171 
L 319.876985 131.312146 
L 322.968077 133.757837 
L 326.059169 135.626673 
L 329.15026 136.889183 
L 332.241352 137.525455 
L 335.332444 137.525455 
L 338.423536 136.889183 
L 341.514628 135.626673 
L 344.60572 133.757837 
L 347.696811 131.312146 
L 350.787903 128.328171 
L 353.878995 124.85297 
L 356.970087 120.941351 
L 360.061179 116.655 
L 363.15227 112.061518 
L 369.334454 102.246624 
L 378.60773 87.126655 
L 381.698821 82.298482 
L 384.789913 77.705 
L 387.881005 73.418649 
L 390.972097 69.50703 
L 394.063189 66.031829 
L 397.15428 63.047854 
L 400.245372 60.602163 
L 403.336464 58.733327 
L 406.427556 57.470817 
L 409.518648 56.834545 
L 412.60974 56.834545 
L 415.700831 57.470817 
L 418.791923 58.733327 
L 421.883015 60.602163 
L 424.974107 63.047854 
L 428.065199 66.031829 
L 431.156291 69.50703 
L 434.247382 73.418649 
L 437.338474 77.705 
L 440.429566 82.298482 
L 446.61175 92.113376 
L 455.885025 107.233345 
L 458.976117 112.061518 
L 462.067209 116.655 
L 465.158301 120.941351 
L 468.249392 124.85297 
L 471.340484 128.328171 
L 474.431576 131.312146 
L 477.522668 133.757837 
L 480.61376 135.626673 
L 483.704852 136.889183 
L 486.795943 137.525455 
L 489.887035 137.525455 
L 492.978127 136.889183 
L 496.069219 135.626673 
L 499.160311 133.757837 
L 502.251402 131.312146 
L 505.342494 128.328171 
L 508.433586 124.85297 
L 511.524678 120.941351 
L 514.61577 116.655 
L 517.706862 112.061518 
L 523.889045 102.246624 
L 533.162321 87.126655 
L 536.253413 82.298482 
L 539.344504 77.705 
L 542.435596 73.418649 
L 545.526688 69.50703 
L 548.61778 66.031829 
L 551.708872 63.047854 
L 554.799963 60.602163 
L 557.891055 58.733327 
L 560.982147 57.470817 
L 564.073239 56.834545 
L 567.164331 56.834545 
L 570.255423 57.470817 
L 573.346514 58.733327 
L 576.437606 60.602163 
L 579.528698 63.047854 
L 582.61979 66.031829 
L 585.710882 69.50703 
L 588.801974 73.418649 
L 591.893065 77.705 
L 594.984157 82.298482 
L 601.166341 92.113376 
L 610.439616 107.233345 
L 613.530708 112.061518 
L 616.6218 116.655 
L 619.712892 120.941351 
L 622.803984 124.85297 
L 625.895075 128.328171 
L 628.986167 131.312146 
L 632.077259 133.757837 
L 635.168351 135.626673 
L 638.259443 136.889183 
L 641.350534 137.525455 
L 644.441626 137.525455 
L 647.532718 136.889183 
L 650.62381 135.626673 
L 653.714902 133.757837 
L 656.805994 131.312146 
L 659.897085 128.328171 
L 662.988177 124.85297 
L 666.079269 120.941351 
L 669.170361 116.655 
L 672.261453 112.061518 
L 678.443636 102.246624 
L 678.443636 102.246624 
" clip-path="url(#p39db5ffa3b)" style="fill: none; stroke: #ff0000; stroke-width: 1.5; stroke-linecap: square"/>
   </g>
   <g id="patch_3">
    <path d="M 32.56 141.56 
L 32.56 52.8 
" style="fill: none; stroke: #000000; stroke-width: 0.8; stroke-linejoin: miter; stroke-linecap: square"/>
   </g>
   <g id="patch_4">
    <path d="M 709.2 141.56 
L 709.2 52.8 
" style="fill: none; stroke: #000000; stroke-width: 0.8; stroke-linejoin: miter; stroke-linecap: square"/>
   </g>
   <g id="patch_5">
    <path d="M 32.56 141.56 
L 709.2 141.56 
" style="fill: none; stroke: #000000; stroke-width: 0.8; stroke-linejoin: miter; stroke-linecap: square"/>
   </g>
   <g id="patch_6">
    <path d="M 32.56 52.8 
L 709.2 52.8 
" style="fill: none; stroke: #000000; stroke-width: 0.8; stroke-linejoin: miter; stroke-linecap: square"/>
   </g>
   <g id="text_10">
    <!-- Sine 400Hz -->
    <g transform="translate(336.889063 46.8) scale(0.12 -0.12)">
     <defs>
      <path id="DejaVuSans-53" d="M 3425 4513 
L 3425 3897 
Q 3066 4069 2747 4153 
Q 2428 4238 2131 4238 
Q 1616 4238 1336 4038 
Q 1056 3838 1056 3469 
Q 1056 3159 1242 3001 
Q 1428 2844 1947 2747 
L 2328 2669 
Q 3034 2534 3370 2195 
Q 3706 1856 3706 1288 
Q 3706 609 3251 259 
Q 2797 -91 1919 -91 
Q 1588 -91 1214 -16 
Q 841 59 441 206 
L 441 856 
Q 825 641 1194 531 
Q 1563 422 1919 422 
Q 2459 422 2753 634 
Q 3047 847 3047 1241 
Q 3047 1584 2836 1778 
Q 2625 1972 2144 2069 
L 1759 2144 
Q 1053 2284 737 2584 
Q 422 2884 422 3419 
Q 422 4038 858 4394 
Q 1294 4750 2059 4750 
Q 2388 4750 2728 4690 
Q 3069 4631 3425 4513 
z
" transform="scale(0.015625)"/>
      <path id="DejaVuSans-69" d="M 603 3500 
L 1178 3500 
L 1178 0 
L 603 0 
L 603 3500 
z
M 603 4863 
L 1178 4863 
L 1178 4134 
L 603 4134 
L 603 4863 
z
" transform="scale(0.015625)"/>
      <path id="DejaVuSans-6e" d="M 3513 2113 
L 3513 0 
L 2938 0 
L 2938 2094 
Q 2938 2591 2744 2837 
Q 2550 3084 2163 3084 
Q 1697 3084 1428 2787 
Q 1159 2491 1159 1978 
L 1159 0 
L 581 0 
L 581 3500 
L 1159 3500 
L 1159 2956 
Q 1366 3272 1645 3428 
Q 1925 3584 2291 3584 
Q 2894 3584 3203 3211 
Q 3513 2838 3513 2113 
z
" transform="scale(0.015625)"/>
      <path id="DejaVuSans-65" d="M 3597 1894 
L 3597 1613 
L 953 1613 
Q 991 1019 1311 708 
Q 1631 397 2203 397 
Q 2534 397 2845 478 
Q 3156 559 3463 722 
L 3463 178 
Q 3153 47 2828 -22 
Q 2503 -91 2169 -91 
Q 1331 -91 842 396 
Q 353 884 353 1716 
Q 353 2575 817 3079 
Q 1281 3584 2069 3584 
Q 2775 3584 3186 3129 
Q 3597 2675 3597 1894 
z
M 3022 2063 
Q 3016 2534 2758 2815 
Q 2500 3097 2075 3097 
Q 1594 3097 1305 2825 
Q 1016 2553 972 2059 
L 3022 2063 
z
" transform="scale(0.015625)"/>
      <path id="DejaVuSans-20" transform="scale(0.015625)"/>
      <path id="DejaVuSans-48" d="M 628 4666 
L 1259 4666 
L 1259 2753 
L 3553 2753 
L 3553 4666 
L 4184 4666 
L 4184 0 
L 3553 0 
L 3553 2222 
L 1259 2222 
L 1259 0 
L 628 0 
L 628 4666 
z
" transform="scale(0.015625)"/>
      <path id="DejaVuSans-7a" d="M 353 3500 
L 3084 3500 
L 3084 2975 
L 922 459 
L 3084 459 
L 3084 0 
L 275 0 
L 275 525 
L 2438 3041 
L 353 3041 
L 353 3500 
z
" transform="scale(0.015625)"/>
     </defs>
     <use xlink:href="#DejaVuSans-53"/>
     <use xlink:href="#DejaVuSans-69" x="63.476562"/>
     <use xlink:href="#DejaVuSans-6e" x="91.259766"/>
     <use xlink:href="#DejaVuSans-65" x="154.638672"/>
     <use xlink:href="#DejaVuSans-20" x="216.162109"/>
     <use xlink:href="#DejaVuSans-34" x="247.949219"/>
     <use xlink:href="#DejaVuSans-30" x="311.572266"/>
     <use xlink:href="#DejaVuSans-30" x="375.195312"/>
     <use xlink:href="#DejaVuSans-48" x="438.818359"/>
     <use xlink:href="#DejaVuSans-7a" x="514.013672"/>
    </g>
   </g>
  </g>
  <g id="axes_2">
   <g id="patch_7">
    <path d="M 32.56 272.84 
L 709.2 272.84 
L 709.2 184.08 
L 32.56 184.08 
z
" style="fill: #ffffff"/>
   </g>
   <g id="matplotlib.axis_3">
    <g id="xtick_7">
     <g id="line2d_11">
      <g>
       <use xlink:href="#m0dd2c2c470" x="63.316364" y="272.84" style="stroke: #000000; stroke-width: 0.8"/>
      </g>
     </g>
     <g id="text_11">
      <!-- 0.000 -->
      <g transform="translate(49.002301 287.438437) scale(0.1 -0.1)">
       <use xlink:href="#DejaVuSans-30"/>
       <use xlink:href="#DejaVuSans-2e" x="63.623047"/>
       <use xlink:href="#DejaVuSans-30" x="95.410156"/>
       <use xlink:href="#DejaVuSans-30" x="159.033203"/>
       <use xlink:href="#DejaVuSans-30" x="222.65625"/>
      </g>
     </g>
    </g>
    <g id="xtick_8">
     <g id="line2d_12">
      <g>
       <use xlink:href="#m0dd2c2c470" x="186.960037" y="272.84" style="stroke: #000000; stroke-width: 0.8"/>
      </g>
     </g>
     <g id="text_12">
      <!-- 0.002 -->
      <g transform="translate(172.645974 287.438437) scale(0.1 -0.1)">
       <use xlink:href="#DejaVuSans-30"/>
       <use xlink:href="#DejaVuSans-2e" x="63.623047"/>
       <use xlink:href="#DejaVuSans-30" x="95.410156"/>
       <use xlink:href="#DejaVuSans-30" x="159.033203"/>
       <use xlink:href="#DejaVuSans-32" x="222.65625"/>
      </g>
     </g>
    </g>
    <g id="xtick_9">
     <g id="line2d_13">
      <g>
       <use xlink:href="#m0dd2c2c470" x="310.603709" y="272.84" style="stroke: #000000; stroke-width: 0.8"/>
      </g>
     </g>
     <g id="text_13">
      <!-- 0.004 -->
      <g transform="translate(296.289647 287.438437) scale(0.1 -0.1)">
       <use xlink:href="#DejaVuSans-30"/>
       <use xlink:href="#DejaVuSans-2e" x="63.623047"/>
       <use xlink:href="#DejaVuSans-30" x="95.410156"/>
       <use xlink:href="#DejaVuSans-30" x="159.033203"/>
       <use xlink:href="#DejaVuSans-34" x="222.65625"/>
      </g>
     </g>
    </g>
    <g id="xtick_10">
     <g id="line2d_14">
      <g>
       <use xlink:href="#m0dd2c2c470" x="434.247382" y="272.84" style="stroke: #000000; stroke-width: 0.8"/>
      </g>
     </g>
     <g id="text_14">
      <!-- 0.006 -->
      <g transform="translate(419.93332 287.438437) scale(0.1 -0.1)">
       <use xlink:href="#DejaVuSans-30"/>
       <use xlink:href="#DejaVuSans-2e" x="63.623047"/>
       <use xlink:href="#DejaVuSans-30" x="95.410156"/>
       <use xlink:href="#DejaVuSans-30" x="159.033203"/>
       <use xlink:href="#DejaVuSans-36" x="222.65625"/>
      </g>
     </g>
    </g>
    <g id="xtick_11">
     <g id="line2d_15">
      <g>
       <use xlink:href="#m0dd2c2c470" x="557.891055" y="272.84" style="stroke: #000000; stroke-width: 0.8"/>
      </g>
     </g>
     <g id="text_15">
      <!-- 0.008 -->
      <g transform="translate(543.576993 287.438437) scale(0.1 -0.1)">
       <use xlink:href="#DejaVuSans-30"/>
       <use xlink:href="#DejaVuSans-2e" x="63.623047"/>
       <use xlink:href="#DejaVuSans-30" x="95.410156"/>
       <use xlink:href="#DejaVuSans-30" x="159.033203"/>
       <use xlink:href="#DejaVuSans-38" x="222.65625"/>
      </g>
     </g>
    </g>
    <g id="xtick_12">
     <g id="line2d_16">
      <g>
       <use xlink:href="#m0dd2c2c470" x="681.534728" y="272.84" style="stroke: #000000; stroke-width: 0.8"/>
      </g>
     </g>
     <g id="text_16">
      <!-- 0.010 -->
      <g transform="translate(667.220666 287.438437) scale(0.1 -0.1)">
       <use xlink:href="#DejaVuSans-30"/>
       <use xlink:href="#DejaVuSans-2e" x="63.623047"/>
       <use xlink:href="#DejaVuSans-30" x="95.410156"/>
       <use xlink:href="#DejaVuSans-31" x="159.033203"/>
       <use xlink:href="#DejaVuSans-30" x="222.65625"/>
      </g>
     </g>
    </g>
   </g>
   <g id="matplotlib.axis_4">
    <g id="ytick_4">
     <g id="line2d_17">
      <g>
       <use xlink:href="#me35bb0b29d" x="32.56" y="268.885224" style="stroke: #000000; stroke-width: 0.8"/>
      </g>
     </g>
     <g id="text_17">
      <!-- −1 -->
      <g transform="translate(10.817812 272.684443) scale(0.1 -0.1)">
       <use xlink:href="#DejaVuSans-2212"/>
       <use xlink:href="#DejaVuSans-31" x="83.789062"/>
      </g>
     </g>
    </g>
    <g id="ytick_5">
     <g id="line2d_18">
      <g>
       <use xlink:href="#me35bb0b29d" x="32.56" y="228.46" style="stroke: #000000; stroke-width: 0.8"/>
      </g>
     </g>
     <g id="text_18">
      <!-- 0 -->
      <g transform="translate(19.1975 232.259219) scale(0.1 -0.1)">
       <use xlink:href="#DejaVuSans-30"/>
      </g>
     </g>
    </g>
    <g id="ytick_6">
     <g id="line2d_19">
      <g>
       <use xlink:href="#me35bb0b29d" x="32.56" y="188.034776" style="stroke: #000000; stroke-width: 0.8"/>
      </g>
     </g>
     <g id="text_19">
      <!-- 1 -->
      <g transform="translate(19.1975 191.833994) scale(0.1 -0.1)">
       <use xlink:href="#DejaVuSans-31"/>
      </g>
     </g>
    </g>
   </g>
   <g id="line2d_20">
    <path d="M 63.316364 228.46 
L 66.407455 218.406655 
L 69.498547 208.985 
L 72.589639 200.78703 
L 75.680731 194.327854 
L 78.771823 190.013327 
L 81.862915 188.114545 
L 84.954006 188.750817 
L 88.045098 191.882163 
L 91.13619 197.311829 
L 94.227282 204.698649 
L 97.318374 213.578482 
L 106.591649 243.341518 
L 109.682741 252.221351 
L 112.773833 259.608171 
L 115.864925 265.037837 
L 118.956016 268.169183 
L 122.047108 268.805455 
L 125.1382 266.906673 
L 128.229292 262.592146 
L 131.320384 256.13297 
L 134.411476 247.935 
L 137.502567 238.513345 
L 143.684751 218.406655 
L 146.775843 208.985 
L 149.866935 200.78703 
L 152.958026 194.327854 
L 156.049118 190.013327 
L 159.14021 188.114545 
L 162.231302 188.750817 
L 165.322394 191.882163 
L 168.413486 197.311829 
L 171.504577 204.698649 
L 174.595669 213.578482 
L 183.868945 243.341518 
L 186.960037 252.221351 
L 190.051128 259.608171 
L 193.14222 265.037837 
L 196.233312 268.169183 
L 199.324404 268.805455 
L 202.415496 266.906673 
L 205.506587 262.592146 
L 208.597679 256.13297 
L 211.688771 247.935 
L 214.779863 238.513345 
L 220.962047 218.406655 
L 224.053138 208.985 
L 227.14423 200.78703 
L 230.235322 194.327854 
L 233.326414 190.013327 
L 236.417506 188.114545 
L 239.508598 188.750817 
L 242.599689 191.882163 
L 245.690781 197.311829 
L 248.781873 204.698649 
L 251.872965 213.578482 
L 261.14624 243.341518 
L 264.237332 252.221351 
L 267.328424 259.608171 
L 270.419516 265.037837 
L 273.510608 268.169183 
L 276.601699 268.805455 
L 279.692791 266.906673 
L 282.783883 262.592146 
L 285.874975 256.13297 
L 288.966067 247.935 
L 292.057159 238.513345 
L 298.239342 218.406655 
L 301.330434 208.985 
L 304.421526 200.78703 
L 307.512618 194.327854 
L 310.603709 190.013327 
L 313.694801 188.114545 
L 316.785893 188.750817 
L 319.876985 191.882163 
L 322.968077 197.311829 
L 326.059169 204.698649 
L 329.15026 213.578482 
L 338.423536 243.341518 
L 341.514628 252.221351 
L 344.60572 259.608171 
L 347.696811 265.037837 
L 350.787903 268.169183 
L 353.878995 268.805455 
L 356.970087 266.906673 
L 360.061179 262.592146 
L 363.15227 256.13297 
L 366.243362 247.935 
L 369.334454 238.513345 
L 375.516638 218.406655 
L 378.60773 208.985 
L 381.698821 200.78703 
L 384.789913 194.327854 
L 387.881005 190.013327 
L 390.972097 188.114545 
L 394.063189 188.750817 
L 397.15428 191.882163 
L 400.245372 197.311829 
L 403.336464 204.698649 
L 406.427556 213.578482 
L 415.700831 243.341518 
L 418.791923 252.221351 
L 421.883015 259.608171 
L 424.974107 265.037837 
L 428.065199 268.169183 
L 431.156291 268.805455 
L 434.247382 266.906673 
L 437.338474 262.592146 
L 440.429566 256.13297 
L 443.520658 247.935 
L 446.61175 238.513345 
L 452.793933 218.406655 
L 455.885025 208.985 
L 458.976117 200.78703 
L 462.067209 194.327854 
L 465.158301 190.013327 
L 468.249392 188.114545 
L 471.340484 188.750817 
L 474.431576 191.882163 
L 477.522668 197.311829 
L 480.61376 204.698649 
L 483.704852 213.578482 
L 492.978127 243.341518 
L 496.069219 252.221351 
L 499.160311 259.608171 
L 502.251402 265.037837 
L 505.342494 268.169183 
L 508.433586 268.805455 
L 511.524678 266.906673 
L 514.61577 262.592146 
L 517.706862 256.13297 
L 520.797953 247.935 
L 523.889045 238.513345 
L 530.071229 218.406655 
L 533.162321 208.985 
L 536.253413 200.78703 
L 539.344504 194.327854 
L 542.435596 190.013327 
L 545.526688 188.114545 
L 548.61778 188.750817 
L 551.708872 191.882163 
L 554.799963 197.311829 
L 557.891055 204.698649 
L 560.982147 213.578482 
L 570.255423 243.341518 
L 573.346514 252.221351 
L 576.437606 259.608171 
L 579.528698 265.037837 
L 582.61979 268.169183 
L 585.710882 268.805455 
L 588.801974 266.906673 
L 591.893065 262.592146 
L 594.984157 256.13297 
L 598.075249 247.935 
L 601.166341 238.513345 
L 607.348524 218.406655 
L 610.439616 208.985 
L 613.530708 200.78703 
L 616.6218 194.327854 
L 619.712892 190.013327 
L 622.803984 188.114545 
L 625.895075 188.750817 
L 628.986167 191.882163 
L 632.077259 197.311829 
L 635.168351 204.698649 
L 638.259443 213.578482 
L 647.532718 243.341518 
L 650.62381 252.221351 
L 653.714902 259.608171 
L 656.805994 265.037837 
L 659.897085 268.169183 
L 662.988177 268.805455 
L 666.079269 266.906673 
L 669.170361 262.592146 
L 672.261453 256.13297 
L 675.352545 247.935 
L 678.443636 238.513345 
L 678.443636 238.513345 
" clip-path="url(#pa8fe225d88)" style="fill: none; stroke: #008000; stroke-width: 1.5; stroke-linecap: square"/>
   </g>
   <g id="patch_8">
    <path d="M 32.56 272.84 
L 32.56 184.08 
" style="fill: none; stroke: #000000; stroke-width: 0.8; stroke-linejoin: miter; stroke-linecap: square"/>
   </g>
   <g id="patch_9">
    <path d="M 709.2 272.84 
L 709.2 184.08 
" style="fill: none; stroke: #000000; stroke-width: 0.8; stroke-linejoin: miter; stroke-linecap: square"/>
   </g>
   <g id="patch_10">
    <path d="M 32.56 272.84 
L 709.2 272.84 
" style="fill: none; stroke: #000000; stroke-width: 0.8; stroke-linejoin: miter; stroke-linecap: square"/>
   </g>
   <g id="patch_11">
    <path d="M 32.56 184.08 
L 709.2 184.08 
" style="fill: none; stroke: #000000; stroke-width: 0.8; stroke-linejoin: miter; stroke-linecap: square"/>
   </g>
   <g id="text_20">
    <!-- Sine 800Hz -->
    <g transform="translate(336.889063 178.08) scale(0.12 -0.12)">
     <use xlink:href="#DejaVuSans-53"/>
     <use xlink:href="#DejaVuSans-69" x="63.476562"/>
     <use xlink:href="#DejaVuSans-6e" x="91.259766"/>
     <use xlink:href="#DejaVuSans-65" x="154.638672"/>
     <use xlink:href="#DejaVuSans-20" x="216.162109"/>
     <use xlink:href="#DejaVuSans-38" x="247.949219"/>
     <use xlink:href="#DejaVuSans-30" x="311.572266"/>
     <use xlink:href="#DejaVuSans-30" x="375.195312"/>
     <use xlink:href="#DejaVuSans-48" x="438.818359"/>
     <use xlink:href="#DejaVuSans-7a" x="514.013672"/>
    </g>
   </g>
  </g>
  <g id="axes_3">
   <g id="patch_12">
    <path d="M 32.56 404.12 
L 709.2 404.12 
L 709.2 315.36 
L 32.56 315.36 
z
" style="fill: #ffffff"/>
   </g>
   <g id="matplotlib.axis_5">
    <g id="xtick_13">
     <g id="line2d_21">
      <g>
       <use xlink:href="#m0dd2c2c470" x="63.316364" y="404.12" style="stroke: #000000; stroke-width: 0.8"/>
      </g>
     </g>
     <g id="text_21">
      <!-- 0.0000 -->
      <g transform="translate(45.821051 418.718437) scale(0.1 -0.1)">
       <use xlink:href="#DejaVuSans-30"/>
       <use xlink:href="#DejaVuSans-2e" x="63.623047"/>
       <use xlink:href="#DejaVuSans-30" x="95.410156"/>
       <use xlink:href="#DejaVuSans-30" x="159.033203"/>
       <use xlink:href="#DejaVuSans-30" x="222.65625"/>
       <use xlink:href="#DejaVuSans-30" x="286.279297"/>
      </g>
     </g>
    </g>
    <g id="xtick_14">
     <g id="line2d_22">
      <g>
       <use xlink:href="#m0dd2c2c470" x="140.399982" y="404.12" style="stroke: #000000; stroke-width: 0.8"/>
      </g>
     </g>
     <g id="text_22">
      <!-- 0.0025 -->
      <g transform="translate(122.904669 418.718437) scale(0.1 -0.1)">
       <defs>
        <path id="DejaVuSans-35" d="M 691 4666 
L 3169 4666 
L 3169 4134 
L 1269 4134 
L 1269 2991 
Q 1406 3038 1543 3061 
Q 1681 3084 1819 3084 
Q 2600 3084 3056 2656 
Q 3513 2228 3513 1497 
Q 3513 744 3044 326 
Q 2575 -91 1722 -91 
Q 1428 -91 1123 -41 
Q 819 9 494 109 
L 494 744 
Q 775 591 1075 516 
Q 1375 441 1709 441 
Q 2250 441 2565 725 
Q 2881 1009 2881 1497 
Q 2881 1984 2565 2268 
Q 2250 2553 1709 2553 
Q 1456 2553 1204 2497 
Q 953 2441 691 2322 
L 691 4666 
z
" transform="scale(0.015625)"/>
       </defs>
       <use xlink:href="#DejaVuSans-30"/>
       <use xlink:href="#DejaVuSans-2e" x="63.623047"/>
       <use xlink:href="#DejaVuSans-30" x="95.410156"/>
       <use xlink:href="#DejaVuSans-30" x="159.033203"/>
       <use xlink:href="#DejaVuSans-32" x="222.65625"/>
       <use xlink:href="#DejaVuSans-35" x="286.279297"/>
      </g>
     </g>
    </g>
    <g id="xtick_15">
     <g id="line2d_23">
      <g>
       <use xlink:href="#m0dd2c2c470" x="217.4836" y="404.12" style="stroke: #000000; stroke-width: 0.8"/>
      </g>
     </g>
     <g id="text_23">
      <!-- 0.0050 -->
      <g transform="translate(199.988287 418.718437) scale(0.1 -0.1)">
       <use xlink:href="#DejaVuSans-30"/>
       <use xlink:href="#DejaVuSans-2e" x="63.623047"/>
       <use xlink:href="#DejaVuSans-30" x="95.410156"/>
       <use xlink:href="#DejaVuSans-30" x="159.033203"/>
       <use xlink:href="#DejaVuSans-35" x="222.65625"/>
       <use xlink:href="#DejaVuSans-30" x="286.279297"/>
      </g>
     </g>
    </g>
    <g id="xtick_16">
     <g id="line2d_24">
      <g>
       <use xlink:href="#m0dd2c2c470" x="294.567218" y="404.12" style="stroke: #000000; stroke-width: 0.8"/>
      </g>
     </g>
     <g id="text_24">
      <!-- 0.0075 -->
      <g transform="translate(277.071906 418.718437) scale(0.1 -0.1)">
       <defs>
        <path id="DejaVuSans-37" d="M 525 4666 
L 3525 4666 
L 3525 4397 
L 1831 0 
L 1172 0 
L 2766 4134 
L 525 4134 
L 525 4666 
z
" transform="scale(0.015625)"/>
       </defs>
       <use xlink:href="#DejaVuSans-30"/>
       <use xlink:href="#DejaVuSans-2e" x="63.623047"/>
       <use xlink:href="#DejaVuSans-30" x="95.410156"/>
       <use xlink:href="#DejaVuSans-30" x="159.033203"/>
       <use xlink:href="#DejaVuSans-37" x="222.65625"/>
       <use xlink:href="#DejaVuSans-35" x="286.279297"/>
      </g>
     </g>
    </g>
    <g id="xtick_17">
     <g id="line2d_25">
      <g>
       <use xlink:href="#m0dd2c2c470" x="371.650836" y="404.12" style="stroke: #000000; stroke-width: 0.8"/>
      </g>
     </g>
     <g id="text_25">
      <!-- 0.0100 -->
      <g transform="translate(354.155524 418.718437) scale(0.1 -0.1)">
       <use xlink:href="#DejaVuSans-30"/>
       <use xlink:href="#DejaVuSans-2e" x="63.623047"/>
       <use xlink:href="#DejaVuSans-30" x="95.410156"/>
       <use xlink:href="#DejaVuSans-31" x="159.033203"/>
       <use xlink:href="#DejaVuSans-30" x="222.65625"/>
       <use xlink:href="#DejaVuSans-30" x="286.279297"/>
      </g>
     </g>
    </g>
    <g id="xtick_18">
     <g id="line2d_26">
      <g>
       <use xlink:href="#m0dd2c2c470" x="448.734454" y="404.12" style="stroke: #000000; stroke-width: 0.8"/>
      </g>
     </g>
     <g id="text_26">
      <!-- 0.0125 -->
      <g transform="translate(431.239142 418.718437) scale(0.1 -0.1)">
       <use xlink:href="#DejaVuSans-30"/>
       <use xlink:href="#DejaVuSans-2e" x="63.623047"/>
       <use xlink:href="#DejaVuSans-30" x="95.410156"/>
       <use xlink:href="#DejaVuSans-31" x="159.033203"/>
       <use xlink:href="#DejaVuSans-32" x="222.65625"/>
       <use xlink:href="#DejaVuSans-35" x="286.279297"/>
      </g>
     </g>
    </g>
    <g id="xtick_19">
     <g id="line2d_27">
      <g>
       <use xlink:href="#m0dd2c2c470" x="525.818072" y="404.12" style="stroke: #000000; stroke-width: 0.8"/>
      </g>
     </g>
     <g id="text_27">
      <!-- 0.0150 -->
      <g transform="translate(508.32276 418.718437) scale(0.1 -0.1)">
       <use xlink:href="#DejaVuSans-30"/>
       <use xlink:href="#DejaVuSans-2e" x="63.623047"/>
       <use xlink:href="#DejaVuSans-30" x="95.410156"/>
       <use xlink:href="#DejaVuSans-31" x="159.033203"/>
       <use xlink:href="#DejaVuSans-35" x="222.65625"/>
       <use xlink:href="#DejaVuSans-30" x="286.279297"/>
      </g>
     </g>
    </g>
    <g id="xtick_20">
     <g id="line2d_28">
      <g>
       <use xlink:href="#m0dd2c2c470" x="602.901691" y="404.12" style="stroke: #000000; stroke-width: 0.8"/>
      </g>
     </g>
     <g id="text_28">
      <!-- 0.0175 -->
      <g transform="translate(585.406378 418.718437) scale(0.1 -0.1)">
       <use xlink:href="#DejaVuSans-30"/>
       <use xlink:href="#DejaVuSans-2e" x="63.623047"/>
       <use xlink:href="#DejaVuSans-30" x="95.410156"/>
       <use xlink:href="#DejaVuSans-31" x="159.033203"/>
       <use xlink:href="#DejaVuSans-37" x="222.65625"/>
       <use xlink:href="#DejaVuSans-35" x="286.279297"/>
      </g>
     </g>
    </g>
    <g id="xtick_21">
     <g id="line2d_29">
      <g>
       <use xlink:href="#m0dd2c2c470" x="679.985309" y="404.12" style="stroke: #000000; stroke-width: 0.8"/>
      </g>
     </g>
     <g id="text_29">
      <!-- 0.0200 -->
      <g transform="translate(662.489996 418.718437) scale(0.1 -0.1)">
       <use xlink:href="#DejaVuSans-30"/>
       <use xlink:href="#DejaVuSans-2e" x="63.623047"/>
       <use xlink:href="#DejaVuSans-30" x="95.410156"/>
       <use xlink:href="#DejaVuSans-32" x="159.033203"/>
       <use xlink:href="#DejaVuSans-30" x="222.65625"/>
       <use xlink:href="#DejaVuSans-30" x="286.279297"/>
      </g>
     </g>
    </g>
   </g>
   <g id="matplotlib.axis_6">
    <g id="ytick_7">
     <g id="line2d_30">
      <g>
       <use xlink:href="#me35bb0b29d" x="32.56" y="400.165224" style="stroke: #000000; stroke-width: 0.8"/>
      </g>
     </g>
     <g id="text_30">
      <!-- −1 -->
      <g transform="translate(10.817812 403.964443) scale(0.1 -0.1)">
       <use xlink:href="#DejaVuSans-2212"/>
       <use xlink:href="#DejaVuSans-31" x="83.789062"/>
      </g>
     </g>
    </g>
    <g id="ytick_8">
     <g id="line2d_31">
      <g>
       <use xlink:href="#me35bb0b29d" x="32.56" y="359.74" style="stroke: #000000; stroke-width: 0.8"/>
      </g>
     </g>
     <g id="text_31">
      <!-- 0 -->
      <g transform="translate(19.1975 363.539219) scale(0.1 -0.1)">
       <use xlink:href="#DejaVuSans-30"/>
      </g>
     </g>
    </g>
    <g id="ytick_9">
     <g id="line2d_32">
      <g>
       <use xlink:href="#me35bb0b29d" x="32.56" y="319.314776" style="stroke: #000000; stroke-width: 0.8"/>
      </g>
     </g>
     <g id="text_32">
      <!-- 1 -->
      <g transform="translate(19.1975 323.113994) scale(0.1 -0.1)">
       <use xlink:href="#DejaVuSans-31"/>
      </g>
     </g>
    </g>
   </g>
   <g id="line2d_33">
    <path d="M 63.316364 359.74 
L 67.941381 344.858482 
L 71.024725 335.978649 
L 72.566398 332.06703 
L 74.10807 328.591829 
L 75.649743 325.607854 
L 77.191415 323.162163 
L 78.733087 321.293327 
L 80.27476 320.030817 
L 81.816432 319.394545 
L 83.358104 319.394545 
L 84.899777 320.030817 
L 86.441449 321.293327 
L 87.983121 323.162163 
L 89.524794 325.607854 
L 91.066466 328.591829 
L 92.608139 332.06703 
L 94.149811 335.978649 
L 97.233156 344.858482 
L 100.3165 354.673376 
L 106.48319 374.621518 
L 109.566535 383.501351 
L 111.108207 387.41297 
L 112.649879 390.888171 
L 114.191552 393.872146 
L 115.733224 396.317837 
L 117.274896 398.186673 
L 118.816569 399.449183 
L 120.358241 400.085455 
L 121.899913 400.085455 
L 123.441586 399.449183 
L 124.983258 398.186673 
L 126.524931 396.317837 
L 128.066603 393.872146 
L 129.608275 390.888171 
L 131.149948 387.41297 
L 132.69162 383.501351 
L 135.774965 374.621518 
L 138.858309 364.806624 
L 145.024999 344.858482 
L 148.108344 335.978649 
L 149.650016 332.06703 
L 151.191688 328.591829 
L 152.733361 325.607854 
L 154.275033 323.162163 
L 155.816705 321.293327 
L 157.358378 320.030817 
L 158.90005 319.394545 
L 160.441722 319.394545 
L 161.983395 320.030817 
L 163.525067 321.293327 
L 165.06674 323.162163 
L 166.608412 325.607854 
L 168.150084 328.591829 
L 169.691757 332.06703 
L 171.233429 335.978649 
L 174.316774 344.858482 
L 177.400118 354.673376 
L 183.566808 374.621518 
L 186.650153 383.501351 
L 188.191825 387.41297 
L 189.733497 390.888171 
L 191.27517 393.872146 
L 192.816842 396.317837 
L 194.358514 398.186673 
L 195.900187 399.449183 
L 197.441859 400.085455 
L 198.983532 400.085455 
L 200.525204 399.449183 
L 202.066876 398.186673 
L 203.608549 396.317837 
L 205.150221 393.872146 
L 206.691893 390.888171 
L 208.233566 387.41297 
L 209.775238 383.501351 
L 212.858583 374.621518 
L 215.941928 364.806624 
L 222.108617 344.858482 
L 225.191962 335.978649 
L 226.733634 332.06703 
L 228.275306 328.591829 
L 229.816979 325.607854 
L 231.358651 323.162163 
L 232.900324 321.293327 
L 234.441996 320.030817 
L 235.983668 319.394545 
L 237.525341 319.394545 
L 239.067013 320.030817 
L 240.608685 321.293327 
L 242.150358 323.162163 
L 243.69203 325.607854 
L 245.233702 328.591829 
L 246.775375 332.06703 
L 248.317047 335.978649 
L 251.400392 344.858482 
L 254.483737 354.673376 
L 260.650426 374.621518 
L 263.733771 383.501351 
L 265.275443 387.41297 
L 266.817116 390.888171 
L 268.358788 393.872146 
L 269.90046 396.317837 
L 271.442133 398.186673 
L 272.983805 399.449183 
L 274.525477 400.085455 
L 276.06715 400.085455 
L 277.608822 399.449183 
L 279.150494 398.186673 
L 280.692167 396.317837 
L 282.233839 393.872146 
L 283.775512 390.888171 
L 285.317184 387.41297 
L 286.858856 383.501351 
L 289.942201 374.621518 
L 293.025546 364.806624 
L 299.192235 344.858482 
L 302.27558 335.978649 
L 303.817252 332.06703 
L 305.358925 328.591829 
L 306.900597 325.607854 
L 308.442269 323.162163 
L 309.983942 321.293327 
L 311.525614 320.030817 
L 313.067286 319.394545 
L 314.608959 319.394545 
L 316.150631 320.030817 
L 317.692303 321.293327 
L 319.233976 323.162163 
L 320.775648 325.607854 
L 322.317321 328.591829 
L 323.858993 332.06703 
L 325.400665 335.978649 
L 328.48401 344.858482 
L 331.567355 354.673376 
L 337.734044 374.621518 
L 340.817389 383.501351 
L 342.359061 387.41297 
L 343.900734 390.888171 
L 345.442406 393.872146 
L 346.984078 396.317837 
L 348.525751 398.186673 
L 350.067423 399.449183 
L 351.609095 400.085455 
L 353.150768 400.085455 
L 354.69244 399.449183 
L 356.234113 398.186673 
L 357.775785 396.317837 
L 359.317457 393.872146 
L 360.85913 390.888171 
L 362.400802 387.41297 
L 363.942474 383.501351 
L 367.025819 374.621518 
L 370.109164 364.806624 
L 371.650836 359.74 
L 374.734181 340.265 
L 376.275853 332.06703 
L 377.817526 325.607854 
L 379.359198 321.293327 
L 380.90087 319.394545 
L 382.442543 320.030817 
L 383.984215 323.162163 
L 385.525887 328.591829 
L 387.06756 335.978649 
L 388.609232 344.858482 
L 394.775922 383.501351 
L 396.317594 390.888171 
L 397.859266 396.317837 
L 399.400939 399.449183 
L 400.942611 400.085455 
L 402.484283 398.186673 
L 404.025956 393.872146 
L 405.567628 387.41297 
L 407.109301 379.215 
L 410.192645 359.74 
L 413.27599 340.265 
L 414.817662 332.06703 
L 416.359335 325.607854 
L 417.901007 321.293327 
L 419.442679 319.394545 
L 420.984352 320.030817 
L 422.526024 323.162163 
L 424.067697 328.591829 
L 425.609369 335.978649 
L 427.151041 344.858482 
L 433.317731 383.501351 
L 434.859403 390.888171 
L 436.401075 396.317837 
L 437.942748 399.449183 
L 439.48442 400.085455 
L 441.026093 398.186673 
L 442.567765 393.872146 
L 444.109437 387.41297 
L 445.65111 379.215 
L 448.734454 359.74 
L 451.817799 340.265 
L 453.359471 332.06703 
L 454.901144 325.607854 
L 456.442816 321.293327 
L 457.984488 319.394545 
L 459.526161 320.030817 
L 461.067833 323.162163 
L 462.609506 328.591829 
L 464.151178 335.978649 
L 465.69285 344.858482 
L 471.85954 383.501351 
L 473.401212 390.888171 
L 474.942884 396.317837 
L 476.484557 399.449183 
L 478.026229 400.085455 
L 479.567902 398.186673 
L 481.109574 393.872146 
L 482.651246 387.41297 
L 484.192919 379.215 
L 487.276263 359.74 
L 490.359608 340.265 
L 491.90128 332.06703 
L 493.442953 325.607854 
L 494.984625 321.293327 
L 496.526298 319.394545 
L 498.06797 320.030817 
L 499.609642 323.162163 
L 501.151315 328.591829 
L 502.692987 335.978649 
L 504.234659 344.858482 
L 510.401349 383.501351 
L 511.943021 390.888171 
L 513.484694 396.317837 
L 515.026366 399.449183 
L 516.568038 400.085455 
L 518.109711 398.186673 
L 519.651383 393.872146 
L 521.193055 387.41297 
L 522.734728 379.215 
L 525.818072 359.74 
L 528.901417 340.265 
L 530.44309 332.06703 
L 531.984762 325.607854 
L 533.526434 321.293327 
L 535.068107 319.394545 
L 536.609779 320.030817 
L 538.151451 323.162163 
L 539.693124 328.591829 
L 541.234796 335.978649 
L 542.776468 344.858482 
L 548.943158 383.501351 
L 550.48483 390.888171 
L 552.026503 396.317837 
L 553.568175 399.449183 
L 555.109847 400.085455 
L 556.65152 398.186673 
L 558.193192 393.872146 
L 559.734864 387.41297 
L 561.276537 379.215 
L 564.359882 359.74 
L 567.443226 340.265 
L 568.984899 332.06703 
L 570.526571 325.607854 
L 572.068243 321.293327 
L 573.609916 319.394545 
L 575.151588 320.030817 
L 576.69326 323.162163 
L 578.234933 328.591829 
L 579.776605 335.978649 
L 581.318278 344.858482 
L 587.484967 383.501351 
L 589.026639 390.888171 
L 590.568312 396.317837 
L 592.109984 399.449183 
L 593.651656 400.085455 
L 595.193329 398.186673 
L 596.735001 393.872146 
L 598.276674 387.41297 
L 599.818346 379.215 
L 602.901691 359.74 
L 605.985035 340.265 
L 607.526708 332.06703 
L 609.06838 325.607854 
L 610.610052 321.293327 
L 612.151725 319.394545 
L 613.693397 320.030817 
L 615.235069 323.162163 
L 616.776742 328.591829 
L 618.318414 335.978649 
L 619.860087 344.858482 
L 626.026776 383.501351 
L 627.568448 390.888171 
L 629.110121 396.317837 
L 630.651793 399.449183 
L 632.193465 400.085455 
L 633.735138 398.186673 
L 635.27681 393.872146 
L 636.818483 387.41297 
L 638.360155 379.215 
L 641.4435 359.74 
L 644.526844 340.265 
L 646.068517 332.06703 
L 647.610189 325.607854 
L 649.151861 321.293327 
L 650.693534 319.394545 
L 652.235206 320.030817 
L 653.776879 323.162163 
L 655.318551 328.591829 
L 656.860223 335.978649 
L 658.401896 344.858482 
L 664.568585 383.501351 
L 666.110257 390.888171 
L 667.65193 396.317837 
L 669.193602 399.449183 
L 670.735275 400.085455 
L 672.276947 398.186673 
L 673.818619 393.872146 
L 675.360292 387.41297 
L 676.901964 379.215 
L 678.443636 369.793345 
L 678.443636 369.793345 
" clip-path="url(#p67f9b98b0b)" style="fill: none; stroke: #0000ff; stroke-width: 1.5; stroke-linecap: square"/>
   </g>
   <g id="patch_13">
    <path d="M 32.56 404.12 
L 32.56 315.36 
" style="fill: none; stroke: #000000; stroke-width: 0.8; stroke-linejoin: miter; stroke-linecap: square"/>
   </g>
   <g id="patch_14">
    <path d="M 709.2 404.12 
L 709.2 315.36 
" style="fill: none; stroke: #000000; stroke-width: 0.8; stroke-linejoin: miter; stroke-linecap: square"/>
   </g>
   <g id="patch_15">
    <path d="M 32.56 404.12 
L 709.2 404.12 
" style="fill: none; stroke: #000000; stroke-width: 0.8; stroke-linejoin: miter; stroke-linecap: square"/>
   </g>
   <g id="patch_16">
    <path d="M 32.56 315.36 
L 709.2 315.36 
" style="fill: none; stroke: #000000; stroke-width: 0.8; stroke-linejoin: miter; stroke-linecap: square"/>
   </g>
   <g id="text_33">
    <!-- Combined -->
    <g transform="translate(340.395312 309.36) scale(0.12 -0.12)">
     <defs>
      <path id="DejaVuSans-43" d="M 4122 4306 
L 4122 3641 
Q 3803 3938 3442 4084 
Q 3081 4231 2675 4231 
Q 1875 4231 1450 3742 
Q 1025 3253 1025 2328 
Q 1025 1406 1450 917 
Q 1875 428 2675 428 
Q 3081 428 3442 575 
Q 3803 722 4122 1019 
L 4122 359 
Q 3791 134 3420 21 
Q 3050 -91 2638 -91 
Q 1578 -91 968 557 
Q 359 1206 359 2328 
Q 359 3453 968 4101 
Q 1578 4750 2638 4750 
Q 3056 4750 3426 4639 
Q 3797 4528 4122 4306 
z
" transform="scale(0.015625)"/>
      <path id="DejaVuSans-6f" d="M 1959 3097 
Q 1497 3097 1228 2736 
Q 959 2375 959 1747 
Q 959 1119 1226 758 
Q 1494 397 1959 397 
Q 2419 397 2687 759 
Q 2956 1122 2956 1747 
Q 2956 2369 2687 2733 
Q 2419 3097 1959 3097 
z
M 1959 3584 
Q 2709 3584 3137 3096 
Q 3566 2609 3566 1747 
Q 3566 888 3137 398 
Q 2709 -91 1959 -91 
Q 1206 -91 779 398 
Q 353 888 353 1747 
Q 353 2609 779 3096 
Q 1206 3584 1959 3584 
z
" transform="scale(0.015625)"/>
      <path id="DejaVuSans-6d" d="M 3328 2828 
Q 3544 3216 3844 3400 
Q 4144 3584 4550 3584 
Q 5097 3584 5394 3201 
Q 5691 2819 5691 2113 
L 5691 0 
L 5113 0 
L 5113 2094 
Q 5113 2597 4934 2840 
Q 4756 3084 4391 3084 
Q 3944 3084 3684 2787 
Q 3425 2491 3425 1978 
L 3425 0 
L 2847 0 
L 2847 2094 
Q 2847 2600 2669 2842 
Q 2491 3084 2119 3084 
Q 1678 3084 1418 2786 
Q 1159 2488 1159 1978 
L 1159 0 
L 581 0 
L 581 3500 
L 1159 3500 
L 1159 2956 
Q 1356 3278 1631 3431 
Q 1906 3584 2284 3584 
Q 2666 3584 2933 3390 
Q 3200 3197 3328 2828 
z
" transform="scale(0.015625)"/>
      <path id="DejaVuSans-62" d="M 3116 1747 
Q 3116 2381 2855 2742 
Q 2594 3103 2138 3103 
Q 1681 3103 1420 2742 
Q 1159 2381 1159 1747 
Q 1159 1113 1420 752 
Q 1681 391 2138 391 
Q 2594 391 2855 752 
Q 3116 1113 3116 1747 
z
M 1159 2969 
Q 1341 3281 1617 3432 
Q 1894 3584 2278 3584 
Q 2916 3584 3314 3078 
Q 3713 2572 3713 1747 
Q 3713 922 3314 415 
Q 2916 -91 2278 -91 
Q 1894 -91 1617 61 
Q 1341 213 1159 525 
L 1159 0 
L 581 0 
L 581 4863 
L 1159 4863 
L 1159 2969 
z
" transform="scale(0.015625)"/>
      <path id="DejaVuSans-64" d="M 2906 2969 
L 2906 4863 
L 3481 4863 
L 3481 0 
L 2906 0 
L 2906 525 
Q 2725 213 2448 61 
Q 2172 -91 1784 -91 
Q 1150 -91 751 415 
Q 353 922 353 1747 
Q 353 2572 751 3078 
Q 1150 3584 1784 3584 
Q 2172 3584 2448 3432 
Q 2725 3281 2906 2969 
z
M 947 1747 
Q 947 1113 1208 752 
Q 1469 391 1925 391 
Q 2381 391 2643 752 
Q 2906 1113 2906 1747 
Q 2906 2381 2643 2742 
Q 2381 3103 1925 3103 
Q 1469 3103 1208 2742 
Q 947 2381 947 1747 
z
" transform="scale(0.015625)"/>
     </defs>
     <use xlink:href="#DejaVuSans-43"/>
     <use xlink:href="#DejaVuSans-6f" x="69.824219"/>
     <use xlink:href="#DejaVuSans-6d" x="131.005859"/>
     <use xlink:href="#DejaVuSans-62" x="228.417969"/>
     <use xlink:href="#DejaVuSans-69" x="291.894531"/>
     <use xlink:href="#DejaVuSans-6e" x="319.677734"/>
     <use xlink:href="#DejaVuSans-65" x="383.056641"/>
     <use xlink:href="#DejaVuSans-64" x="444.580078"/>
    </g>
   </g>
  </g>
  <g id="text_34">
   <!-- Concatenated Signals -->
   <g transform="translate(272.69375 20.7975) scale(0.16 -0.16)">
    <defs>
     <path id="DejaVuSans-63" d="M 3122 3366 
L 3122 2828 
Q 2878 2963 2633 3030 
Q 2388 3097 2138 3097 
Q 1578 3097 1268 2742 
Q 959 2388 959 1747 
Q 959 1106 1268 751 
Q 1578 397 2138 397 
Q 2388 397 2633 464 
Q 2878 531 3122 666 
L 3122 134 
Q 2881 22 2623 -34 
Q 2366 -91 2075 -91 
Q 1284 -91 818 406 
Q 353 903 353 1747 
Q 353 2603 823 3093 
Q 1294 3584 2113 3584 
Q 2378 3584 2631 3529 
Q 2884 3475 3122 3366 
z
" transform="scale(0.015625)"/>
     <path id="DejaVuSans-61" d="M 2194 1759 
Q 1497 1759 1228 1600 
Q 959 1441 959 1056 
Q 959 750 1161 570 
Q 1363 391 1709 391 
Q 2188 391 2477 730 
Q 2766 1069 2766 1631 
L 2766 1759 
L 2194 1759 
z
M 3341 1997 
L 3341 0 
L 2766 0 
L 2766 531 
Q 2569 213 2275 61 
Q 1981 -91 1556 -91 
Q 1019 -91 701 211 
Q 384 513 384 1019 
Q 384 1609 779 1909 
Q 1175 2209 1959 2209 
L 2766 2209 
L 2766 2266 
Q 2766 2663 2505 2880 
Q 2244 3097 1772 3097 
Q 1472 3097 1187 3025 
Q 903 2953 641 2809 
L 641 3341 
Q 956 3463 1253 3523 
Q 1550 3584 1831 3584 
Q 2591 3584 2966 3190 
Q 3341 2797 3341 1997 
z
" transform="scale(0.015625)"/>
     <path id="DejaVuSans-74" d="M 1172 4494 
L 1172 3500 
L 2356 3500 
L 2356 3053 
L 1172 3053 
L 1172 1153 
Q 1172 725 1289 603 
Q 1406 481 1766 481 
L 2356 481 
L 2356 0 
L 1766 0 
Q 1100 0 847 248 
Q 594 497 594 1153 
L 594 3053 
L 172 3053 
L 172 3500 
L 594 3500 
L 594 4494 
L 1172 4494 
z
" transform="scale(0.015625)"/>
     <path id="DejaVuSans-67" d="M 2906 1791 
Q 2906 2416 2648 2759 
Q 2391 3103 1925 3103 
Q 1463 3103 1205 2759 
Q 947 2416 947 1791 
Q 947 1169 1205 825 
Q 1463 481 1925 481 
Q 2391 481 2648 825 
Q 2906 1169 2906 1791 
z
M 3481 434 
Q 3481 -459 3084 -895 
Q 2688 -1331 1869 -1331 
Q 1566 -1331 1297 -1286 
Q 1028 -1241 775 -1147 
L 775 -588 
Q 1028 -725 1275 -790 
Q 1522 -856 1778 -856 
Q 2344 -856 2625 -561 
Q 2906 -266 2906 331 
L 2906 616 
Q 2728 306 2450 153 
Q 2172 0 1784 0 
Q 1141 0 747 490 
Q 353 981 353 1791 
Q 353 2603 747 3093 
Q 1141 3584 1784 3584 
Q 2172 3584 2450 3431 
Q 2728 3278 2906 2969 
L 2906 3500 
L 3481 3500 
L 3481 434 
z
" transform="scale(0.015625)"/>
     <path id="DejaVuSans-6c" d="M 603 4863 
L 1178 4863 
L 1178 0 
L 603 0 
L 603 4863 
z
" transform="scale(0.015625)"/>
     <path id="DejaVuSans-73" d="M 2834 3397 
L 2834 2853 
Q 2591 2978 2328 3040 
Q 2066 3103 1784 3103 
Q 1356 3103 1142 2972 
Q 928 2841 928 2578 
Q 928 2378 1081 2264 
Q 1234 2150 1697 2047 
L 1894 2003 
Q 2506 1872 2764 1633 
Q 3022 1394 3022 966 
Q 3022 478 2636 193 
Q 2250 -91 1575 -91 
Q 1294 -91 989 -36 
Q 684 19 347 128 
L 347 722 
Q 666 556 975 473 
Q 1284 391 1588 391 
Q 1994 391 2212 530 
Q 2431 669 2431 922 
Q 2431 1156 2273 1281 
Q 2116 1406 1581 1522 
L 1381 1569 
Q 847 1681 609 1914 
Q 372 2147 372 2553 
Q 372 3047 722 3315 
Q 1072 3584 1716 3584 
Q 2034 3584 2315 3537 
Q 2597 3491 2834 3397 
z
" transform="scale(0.015625)"/>
    </defs>
    <use xlink:href="#DejaVuSans-43"/>
    <use xlink:href="#DejaVuSans-6f" x="69.824219"/>
    <use xlink:href="#DejaVuSans-6e" x="131.005859"/>
    <use xlink:href="#DejaVuSans-63" x="194.384766"/>
    <use xlink:href="#DejaVuSans-61" x="249.365234"/>
    <use xlink:href="#DejaVuSans-74" x="310.644531"/>
    <use xlink:href="#DejaVuSans-65" x="349.853516"/>
    <use xlink:href="#DejaVuSans-6e" x="411.376953"/>
    <use xlink:href="#DejaVuSans-61" x="474.755859"/>
    <use xlink:href="#DejaVuSans-74" x="536.035156"/>
    <use xlink:href="#DejaVuSans-65" x="575.244141"/>
    <use xlink:href="#DejaVuSans-64" x="636.767578"/>
    <use xlink:href="#DejaVuSans-20" x="700.244141"/>
    <use xlink:href="#DejaVuSans-53" x="732.03125"/>
    <use xlink:href="#DejaVuSans-69" x="795.507812"/>
    <use xlink:href="#DejaVuSans-67" x="823.291016"/>
    <use xlink:href="#DejaVuSans-6e" x="886.767578"/>
    <use xlink:href="#DejaVuSans-61" x="950.146484"/>
    <use xlink:href="#DejaVuSans-6c" x="1011.425781"/>
    <use xlink:href="#DejaVuSans-73" x="1039.208984"/>
   </g>
  </g>
 </g>
 <defs>
  <clipPath id="p39db5ffa3b">
   <rect x="32.56" y="52.8" width="676.64" height="88.76"/>
  </clipPath>
  <clipPath id="pa8fe225d88">
   <rect x="32.56" y="184.08" width="676.64" height="88.76"/>
  </clipPath>
  <clipPath id="p67f9b98b0b">
   <rect x="32.56" y="315.36" width="676.64" height="88.76"/>
  </clipPath>
 </defs>
</svg>
