<?xml version="1.0" encoding="utf-8" standalone="no"?>
<!DOCTYPE svg PUBLIC "-//W3C//DTD SVG 1.1//EN"
  "http://www.w3.org/Graphics/SVG/1.1/DTD/svg11.dtd">
<svg xmlns:xlink="http://www.w3.org/1999/xlink" width="720pt" height="432pt" viewBox="0 0 720 432" xmlns="http://www.w3.org/2000/svg" version="1.1">
 <metadata>
  <rdf:RDF xmlns:dc="http://purl.org/dc/elements/1.1/" xmlns:cc="http://creativecommons.org/ns#" xmlns:rdf="http://www.w3.org/1999/02/22-rdf-syntax-ns#">
   <cc:Work>
    <dc:type rdf:resource="http://purl.org/dc/dcmitype/StillImage"/>
    <dc:date>2025-11-01T01:54:14.666043</dc:date>
    <dc:format>image/svg+xml</dc:format>
    <dc:creator>
     <cc:Agent>
      <dc:title>Matplotlib v3.6.3, https://matplotlib.org/</dc:title>
     </cc:Agent>
    </dc:creator>
   </cc:Work>
  </rdf:RDF>
 </metadata>
 <defs>
  <style type="text/css">*{stroke-linejoin: round; stroke-linecap: butt}</style>
 </defs>
 <g id="figure_1">
  <g id="patch_1">
   <path d="M 0 432 
L 720 432 
L 720 0 
L 0 0 
z
" style="fill: #ffffff"/>
  </g>
  <g id="axes_1">
   <g id="patch_2">
    <path d="M 32.56 141.56 
L 709.2 141.56 
L 709.2 52.8 
L 32.56 52.8 
z
" style="fill: #ffffff"/>
   </g>
   <g id="matplotlib.axis_1">
    <g id="xtick_1">
     <g id="line2d_1">
      <defs>
       <path id="m5d6d2a18d8" d="M 0 0 
L 0 3.5 
" style="stroke: #000000; stroke-width: 0.8"/>
      </defs>
      <g>
       <use xlink:href="#m5d6d2a18d8" x="63.316364" y="141.56" style="stroke: #000000; stroke-width: 0.8"/>
      </g>
     </g>
     <g id="text_1">
      <!-- 0.0000 -->
      <g transform="translate(45.821051 156.158437) scale(0.1 -0.1)">
       <defs>
        <path id="DejaVuSans-30" d="M 2034 4250 
Q 1547 4250 1301 3770 
Q 1056 3291 1056 2328 
Q 1056 1369 1301 889 
Q 1547 409 2034 409 
Q 2525 409 2770 889 
Q 3016 1369 3016 2328 
Q 3016 3291 2770 3770 
Q 2525 4250 2034 4250 
z
M 2034 4750 
Q 2819 4750 3233 4129 
Q 3647 3509 3647 2328 
Q 3647 1150 3233 529 
Q 2819 -91 2034 -91 
Q 1250 -91 836 529 
Q 422 1150 422 2328 
Q 422 3509 836 4129 
Q 1250 4750 2034 4750 
z
" transform="scale(0.015625)"/>
        <path id="DejaVuSans-2e" d="M 684 794 
L 1344 794 
L 1344 0 
L 684 0 
L 684 794 
z
" transform="scale(0.015625)"/>
       </defs>
       <use xlink:href="#DejaVuSans-30"/>
       <use xlink:href="#DejaVuSans-2e" x="63.623047"/>
       <use xlink:href="#DejaVuSans-30" x="95.410156"/>
       <use xlink:href="#DejaVuSans-30" x="159.033203"/>
       <use xlink:href="#DejaVuSans-30" x="222.65625"/>
       <use xlink:href="#DejaVuSans-30" x="286.279297"/>
      </g>
     </g>
    </g>
    <g id="xtick_2">
     <g id="line2d_2">
      <g>
       <use xlink:href="#m5d6d2a18d8" x="140.399982" y="141.56" style="stroke: #000000; stroke-width: 0.8"/>
      </g>
     </g>
     <g id="text_2">
      <!-- 0.0025 -->
      <g transform="translate(122.904669 156.158437) scale(0.1 -0.1)">
       <defs>
        <path id="DejaVuSans-32" d="M 1228 531 
L 3431 531 
L 3431 0 
L 469 0 
L 469 531 
Q 828 903 1448 1529 
Q 2069 2156 2228 2338 
Q 2531 2678 2651 2914 
Q 2772 3150 2772 3378 
Q 2772 3750 2511 3984 
Q 2250 4219 1831 4219 
Q 1534 4219 1204 4116 
Q 875 4013 500 3803 
L 500 4441 
Q 881 4594 1212 4672 
Q 1544 4750 1819 4750 
Q 2544 4750 2975 4387 
Q 3406 4025 3406 3419 
Q 3406 3131 3298 2873 
Q 3191 2616 2906 2266 
Q 2828 2175 2409 1742 
Q 1991 1309 1228 531 
z
" transform="scale(0.015625)"/>
        <path id="DejaVuSans-35" d="M 691 4666 
L 3169 4666 
L 3169 4134 
L 1269 4134 
L 1269 2991 
Q 1406 3038 1543 3061 
Q 1681 3084 1819 3084 
Q 2600 3084 3056 2656 
Q 3513 2228 3513 1497 
Q 3513 744 3044 326 
Q 2575 -91 1722 -91 
Q 1428 -91 1123 -41 
Q 819 9 494 109 
L 494 744 
Q 775 591 1075 516 
Q 1375 441 1709 441 
Q 2250 441 2565 725 
Q 2881 1009 2881 1497 
Q 2881 1984 2565 2268 
Q 2250 2553 1709 2553 
Q 1456 2553 1204 2497 
Q 953 2441 691 2322 
L 691 4666 
z
" transform="scale(0.015625)"/>
       </defs>
       <use xlink:href="#DejaVuSans-30"/>
       <use xlink:href="#DejaVuSans-2e" x="63.623047"/>
       <use xlink:href="#DejaVuSans-30" x="95.410156"/>
       <use xlink:href="#DejaVuSans-30" x="159.033203"/>
       <use xlink:href="#DejaVuSans-32" x="222.65625"/>
       <use xlink:href="#DejaVuSans-35" x="286.279297"/>
      </g>
     </g>
    </g>
    <g id="xtick_3">
     <g id="line2d_3">
      <g>
       <use xlink:href="#m5d6d2a18d8" x="217.4836" y="141.56" style="stroke: #000000; stroke-width: 0.8"/>
      </g>
     </g>
     <g id="text_3">
      <!-- 0.0050 -->
      <g transform="translate(199.988287 156.158437) scale(0.1 -0.1)">
       <use xlink:href="#DejaVuSans-30"/>
       <use xlink:href="#DejaVuSans-2e" x="63.623047"/>
       <use xlink:href="#DejaVuSans-30" x="95.410156"/>
       <use xlink:href="#DejaVuSans-30" x="159.033203"/>
       <use xlink:href="#DejaVuSans-35" x="222.65625"/>
       <use xlink:href="#DejaVuSans-30" x="286.279297"/>
      </g>
     </g>
    </g>
    <g id="xtick_4">
     <g id="line2d_4">
      <g>
       <use xlink:href="#m5d6d2a18d8" x="294.567218" y="141.56" style="stroke: #000000; stroke-width: 0.8"/>
      </g>
     </g>
     <g id="text_4">
      <!-- 0.0075 -->
      <g transform="translate(277.071906 156.158437) scale(0.1 -0.1)">
       <defs>
        <path id="DejaVuSans-37" d="M 525 4666 
L 3525 4666 
L 3525 4397 
L 1831 0 
L 1172 0 
L 2766 4134 
L 525 4134 
L 525 4666 
z
" transform="scale(0.015625)"/>
       </defs>
       <use xlink:href="#DejaVuSans-30"/>
       <use xlink:href="#DejaVuSans-2e" x="63.623047"/>
       <use xlink:href="#DejaVuSans-30" x="95.410156"/>
       <use xlink:href="#DejaVuSans-30" x="159.033203"/>
       <use xlink:href="#DejaVuSans-37" x="222.65625"/>
       <use xlink:href="#DejaVuSans-35" x="286.279297"/>
      </g>
     </g>
    </g>
    <g id="xtick_5">
     <g id="line2d_5">
      <g>
       <use xlink:href="#m5d6d2a18d8" x="371.650836" y="141.56" style="stroke: #000000; stroke-width: 0.8"/>
      </g>
     </g>
     <g id="text_5">
      <!-- 0.0100 -->
      <g transform="translate(354.155524 156.158437) scale(0.1 -0.1)">
       <defs>
        <path id="DejaVuSans-31" d="M 794 531 
L 1825 531 
L 1825 4091 
L 703 3866 
L 703 4441 
L 1819 4666 
L 2450 4666 
L 2450 531 
L 3481 531 
L 3481 0 
L 794 0 
L 794 531 
z
" transform="scale(0.015625)"/>
       </defs>
       <use xlink:href="#DejaVuSans-30"/>
       <use xlink:href="#DejaVuSans-2e" x="63.623047"/>
       <use xlink:href="#DejaVuSans-30" x="95.410156"/>
       <use xlink:href="#DejaVuSans-31" x="159.033203"/>
       <use xlink:href="#DejaVuSans-30" x="222.65625"/>
       <use xlink:href="#DejaVuSans-30" x="286.279297"/>
      </g>
     </g>
    </g>
    <g id="xtick_6">
     <g id="line2d_6">
      <g>
       <use xlink:href="#m5d6d2a18d8" x="448.734454" y="141.56" style="stroke: #000000; stroke-width: 0.8"/>
      </g>
     </g>
     <g id="text_6">
      <!-- 0.0125 -->
      <g transform="translate(431.239142 156.158437) scale(0.1 -0.1)">
       <use xlink:href="#DejaVuSans-30"/>
       <use xlink:href="#DejaVuSans-2e" x="63.623047"/>
       <use xlink:href="#DejaVuSans-30" x="95.410156"/>
       <use xlink:href="#DejaVuSans-31" x="159.033203"/>
       <use xlink:href="#DejaVuSans-32" x="222.65625"/>
       <use xlink:href="#DejaVuSans-35" x="286.279297"/>
      </g>
     </g>
    </g>
    <g id="xtick_7">
     <g id="line2d_7">
      <g>
       <use xlink:href="#m5d6d2a18d8" x="525.818072" y="141.56" style="stroke: #000000; stroke-width: 0.8"/>
      </g>
     </g>
     <g id="text_7">
      <!-- 0.0150 -->
      <g transform="translate(508.32276 156.158437) scale(0.1 -0.1)">
       <use xlink:href="#DejaVuSans-30"/>
       <use xlink:href="#DejaVuSans-2e" x="63.623047"/>
       <use xlink:href="#DejaVuSans-30" x="95.410156"/>
       <use xlink:href="#DejaVuSans-31" x="159.033203"/>
       <use xlink:href="#DejaVuSans-35" x="222.65625"/>
       <use xlink:href="#DejaVuSans-30" x="286.279297"/>
      </g>
     </g>
    </g>
    <g id="xtick_8">
     <g id="line2d_8">
      <g>
       <use xlink:href="#m5d6d2a18d8" x="602.901691" y="141.56" style="stroke: #000000; stroke-width: 0.8"/>
      </g>
     </g>
     <g id="text_8">
      <!-- 0.0175 -->
      <g transform="translate(585.406378 156.158437) scale(0.1 -0.1)">
       <use xlink:href="#DejaVuSans-30"/>
       <use xlink:href="#DejaVuSans-2e" x="63.623047"/>
       <use xlink:href="#DejaVuSans-30" x="95.410156"/>
       <use xlink:href="#DejaVuSans-31" x="159.033203"/>
       <use xlink:href="#DejaVuSans-37" x="222.65625"/>
       <use xlink:href="#DejaVuSans-35" x="286.279297"/>
      </g>
     </g>
    </g>
    <g id="xtick_9">
     <g id="line2d_9">
      <g>
       <use xlink:href="#m5d6d2a18d8" x="679.985309" y="141.56" style="stroke: #000000; stroke-width: 0.8"/>
      </g>
     </g>
     <g id="text_9">
      <!-- 0.0200 -->
      <g transform="translate(662.489996 156.158437) scale(0.1 -0.1)">
       <use xlink:href="#DejaVuSans-30"/>
       <use xlink:href="#DejaVuSans-2e" x="63.623047"/>
       <use xlink:href="#DejaVuSans-30" x="95.410156"/>
       <use xlink:href="#DejaVuSans-32" x="159.033203"/>
       <use xlink:href="#DejaVuSans-30" x="222.65625"/>
       <use xlink:href="#DejaVuSans-30" x="286.279297"/>
      </g>
     </g>
    </g>
   </g>
   <g id="matplotlib.axis_2">
    <g id="ytick_1">
     <g id="line2d_10">
      <defs>
       <path id="me4418cce74" d="M 0 0 
L -3.5 0 
" style="stroke: #000000; stroke-width: 0.8"/>
      </defs>
      <g>
       <use xlink:href="#me4418cce74" x="32.56" y="137.605224" style="stroke: #000000; stroke-width: 0.8"/>
      </g>
     </g>
     <g id="text_10">
      <!-- −1 -->
      <g transform="translate(10.817812 141.404443) scale(0.1 -0.1)">
       <defs>
        <path id="DejaVuSans-2212" d="M 678 2272 
L 4684 2272 
L 4684 1741 
L 678 1741 
L 678 2272 
z
" transform="scale(0.015625)"/>
       </defs>
       <use xlink:href="#DejaVuSans-2212"/>
       <use xlink:href="#DejaVuSans-31" x="83.789062"/>
      </g>
     </g>
    </g>
    <g id="ytick_2">
     <g id="line2d_11">
      <g>
       <use xlink:href="#me4418cce74" x="32.56" y="97.18" style="stroke: #000000; stroke-width: 0.8"/>
      </g>
     </g>
     <g id="text_11">
      <!-- 0 -->
      <g transform="translate(19.1975 100.979219) scale(0.1 -0.1)">
       <use xlink:href="#DejaVuSans-30"/>
      </g>
     </g>
    </g>
    <g id="ytick_3">
     <g id="line2d_12">
      <g>
       <use xlink:href="#me4418cce74" x="32.56" y="56.754776" style="stroke: #000000; stroke-width: 0.8"/>
      </g>
     </g>
     <g id="text_12">
      <!-- 1 -->
      <g transform="translate(19.1975 60.553994) scale(0.1 -0.1)">
       <use xlink:href="#DejaVuSans-31"/>
      </g>
     </g>
    </g>
   </g>
   <g id="line2d_13">
    <path d="M 63.316364 97.18 
L 67.941381 82.298482 
L 71.024725 73.418649 
L 72.566398 69.50703 
L 74.10807 66.031829 
L 75.649743 63.047854 
L 77.191415 60.602163 
L 78.733087 58.733327 
L 80.27476 57.470817 
L 81.816432 56.834545 
L 83.358104 56.834545 
L 84.899777 57.470817 
L 86.441449 58.733327 
L 87.983121 60.602163 
L 89.524794 63.047854 
L 91.066466 66.031829 
L 92.608139 69.50703 
L 94.149811 73.418649 
L 97.233156 82.298482 
L 100.3165 92.113376 
L 106.48319 112.061518 
L 109.566535 120.941351 
L 111.108207 124.85297 
L 112.649879 128.328171 
L 114.191552 131.312146 
L 115.733224 133.757837 
L 117.274896 135.626673 
L 118.816569 136.889183 
L 120.358241 137.525455 
L 121.899913 137.525455 
L 123.441586 136.889183 
L 124.983258 135.626673 
L 126.524931 133.757837 
L 128.066603 131.312146 
L 129.608275 128.328171 
L 131.149948 124.85297 
L 132.69162 120.941351 
L 135.774965 112.061518 
L 138.858309 102.246624 
L 145.024999 82.298482 
L 148.108344 73.418649 
L 149.650016 69.50703 
L 151.191688 66.031829 
L 152.733361 63.047854 
L 154.275033 60.602163 
L 155.816705 58.733327 
L 157.358378 57.470817 
L 158.90005 56.834545 
L 160.441722 56.834545 
L 161.983395 57.470817 
L 163.525067 58.733327 
L 165.06674 60.602163 
L 166.608412 63.047854 
L 168.150084 66.031829 
L 169.691757 69.50703 
L 171.233429 73.418649 
L 174.316774 82.298482 
L 177.400118 92.113376 
L 183.566808 112.061518 
L 186.650153 120.941351 
L 188.191825 124.85297 
L 189.733497 128.328171 
L 191.27517 131.312146 
L 192.816842 133.757837 
L 194.358514 135.626673 
L 195.900187 136.889183 
L 197.441859 137.525455 
L 198.983532 137.525455 
L 200.525204 136.889183 
L 202.066876 135.626673 
L 203.608549 133.757837 
L 205.150221 131.312146 
L 206.691893 128.328171 
L 208.233566 124.85297 
L 209.775238 120.941351 
L 212.858583 112.061518 
L 215.941928 102.246624 
L 222.108617 82.298482 
L 225.191962 73.418649 
L 226.733634 69.50703 
L 228.275306 66.031829 
L 229.816979 63.047854 
L 231.358651 60.602163 
L 232.900324 58.733327 
L 234.441996 57.470817 
L 235.983668 56.834545 
L 237.525341 56.834545 
L 239.067013 57.470817 
L 240.608685 58.733327 
L 242.150358 60.602163 
L 243.69203 63.047854 
L 245.233702 66.031829 
L 246.775375 69.50703 
L 248.317047 73.418649 
L 251.400392 82.298482 
L 254.483737 92.113376 
L 260.650426 112.061518 
L 263.733771 120.941351 
L 265.275443 124.85297 
L 266.817116 128.328171 
L 268.358788 131.312146 
L 269.90046 133.757837 
L 271.442133 135.626673 
L 272.983805 136.889183 
L 274.525477 137.525455 
L 276.06715 137.525455 
L 277.608822 136.889183 
L 279.150494 135.626673 
L 280.692167 133.757837 
L 282.233839 131.312146 
L 283.775512 128.328171 
L 285.317184 124.85297 
L 286.858856 120.941351 
L 289.942201 112.061518 
L 293.025546 102.246624 
L 299.192235 82.298482 
L 302.27558 73.418649 
L 303.817252 69.50703 
L 305.358925 66.031829 
L 306.900597 63.047854 
L 308.442269 60.602163 
L 309.983942 58.733327 
L 311.525614 57.470817 
L 313.067286 56.834545 
L 314.608959 56.834545 
L 316.150631 57.470817 
L 317.692303 58.733327 
L 319.233976 60.602163 
L 320.775648 63.047854 
L 322.317321 66.031829 
L 323.858993 69.50703 
L 325.400665 73.418649 
L 328.48401 82.298482 
L 331.567355 92.113376 
L 337.734044 112.061518 
L 340.817389 120.941351 
L 342.359061 124.85297 
L 343.900734 128.328171 
L 345.442406 131.312146 
L 346.984078 133.757837 
L 348.525751 135.626673 
L 350.067423 136.889183 
L 351.609095 137.525455 
L 353.150768 137.525455 
L 354.69244 136.889183 
L 356.234113 135.626673 
L 357.775785 133.757837 
L 359.317457 131.312146 
L 360.85913 128.328171 
L 362.400802 124.85297 
L 363.942474 120.941351 
L 367.025819 112.061518 
L 370.109164 102.246624 
L 376.275853 82.298482 
L 379.359198 73.418649 
L 380.90087 69.50703 
L 382.442543 66.031829 
L 383.984215 63.047854 
L 385.525887 60.602163 
L 387.06756 58.733327 
L 388.609232 57.470817 
L 390.150905 56.834545 
L 391.692577 56.834545 
L 393.234249 57.470817 
L 394.775922 58.733327 
L 396.317594 60.602163 
L 397.859266 63.047854 
L 399.400939 66.031829 
L 400.942611 69.50703 
L 402.484283 73.418649 
L 405.567628 82.298482 
L 408.650973 92.113376 
L 414.817662 112.061518 
L 417.901007 120.941351 
L 419.442679 124.85297 
L 420.984352 128.328171 
L 422.526024 131.312146 
L 424.067697 133.757837 
L 425.609369 135.626673 
L 427.151041 136.889183 
L 428.692714 137.525455 
L 430.234386 137.525455 
L 431.776058 136.889183 
L 433.317731 135.626673 
L 434.859403 133.757837 
L 436.401075 131.312146 
L 437.942748 128.328171 
L 439.48442 124.85297 
L 441.026093 120.941351 
L 444.109437 112.061518 
L 447.192782 102.246624 
L 453.359471 82.298482 
L 456.442816 73.418649 
L 457.984488 69.50703 
L 459.526161 66.031829 
L 461.067833 63.047854 
L 462.609506 60.602163 
L 464.151178 58.733327 
L 465.69285 57.470817 
L 467.234523 56.834545 
L 468.776195 56.834545 
L 470.317867 57.470817 
L 471.85954 58.733327 
L 473.401212 60.602163 
L 474.942884 63.047854 
L 476.484557 66.031829 
L 478.026229 69.50703 
L 479.567902 73.418649 
L 482.651246 82.298482 
L 485.734591 92.113376 
L 491.90128 112.061518 
L 494.984625 120.941351 
L 496.526298 124.85297 
L 498.06797 128.328171 
L 499.609642 131.312146 
L 501.151315 133.757837 
L 502.692987 135.626673 
L 504.234659 136.889183 
L 505.776332 137.525455 
L 507.318004 137.525455 
L 508.859676 136.889183 
L 510.401349 135.626673 
L 511.943021 133.757837 
L 513.484694 131.312146 
L 515.026366 128.328171 
L 516.568038 124.85297 
L 518.109711 120.941351 
L 521.193055 112.061518 
L 524.2764 102.246624 
L 530.44309 82.298482 
L 533.526434 73.418649 
L 535.068107 69.50703 
L 536.609779 66.031829 
L 538.151451 63.047854 
L 539.693124 60.602163 
L 541.234796 58.733327 
L 542.776468 57.470817 
L 544.318141 56.834545 
L 545.859813 56.834545 
L 547.401486 57.470817 
L 548.943158 58.733327 
L 550.48483 60.602163 
L 552.026503 63.047854 
L 553.568175 66.031829 
L 555.109847 69.50703 
L 556.65152 73.418649 
L 559.734864 82.298482 
L 562.818209 92.113376 
L 568.984899 112.061518 
L 572.068243 120.941351 
L 573.609916 124.85297 
L 575.151588 128.328171 
L 576.69326 131.312146 
L 578.234933 133.757837 
L 579.776605 135.626673 
L 581.318278 136.889183 
L 582.85995 137.525455 
L 584.401622 137.525455 
L 585.943295 136.889183 
L 587.484967 135.626673 
L 589.026639 133.757837 
L 590.568312 131.312146 
L 592.109984 128.328171 
L 593.651656 124.85297 
L 595.193329 120.941351 
L 598.276674 112.061518 
L 601.360018 102.246624 
L 607.526708 82.298482 
L 610.610052 73.418649 
L 612.151725 69.50703 
L 613.693397 66.031829 
L 615.235069 63.047854 
L 616.776742 60.602163 
L 618.318414 58.733327 
L 619.860087 57.470817 
L 621.401759 56.834545 
L 622.943431 56.834545 
L 624.485104 57.470817 
L 626.026776 58.733327 
L 627.568448 60.602163 
L 629.110121 63.047854 
L 630.651793 66.031829 
L 632.193465 69.50703 
L 633.735138 73.418649 
L 636.818483 82.298482 
L 639.901827 92.113376 
L 646.068517 112.061518 
L 649.151861 120.941351 
L 650.693534 124.85297 
L 652.235206 128.328171 
L 653.776879 131.312146 
L 655.318551 133.757837 
L 656.860223 135.626673 
L 658.401896 136.889183 
L 659.943568 137.525455 
L 661.48524 137.525455 
L 663.026913 136.889183 
L 664.568585 135.626673 
L 666.110257 133.757837 
L 667.65193 131.312146 
L 669.193602 128.328171 
L 670.735275 124.85297 
L 672.276947 120.941351 
L 675.360292 112.061518 
L 678.443636 102.246624 
L 678.443636 102.246624 
" clip-path="url(#p94c263bbf0)" style="fill: none; stroke: #ff0000; stroke-width: 1.5; stroke-linecap: square"/>
   </g>
   <g id="patch_3">
    <path d="M 32.56 141.56 
L 32.56 52.8 
" style="fill: none; stroke: #000000; stroke-width: 0.8; stroke-linejoin: miter; stroke-linecap: square"/>
   </g>
   <g id="patch_4">
    <path d="M 709.2 141.56 
L 709.2 52.8 
" style="fill: none; stroke: #000000; stroke-width: 0.8; stroke-linejoin: miter; stroke-linecap: square"/>
   </g>
   <g id="patch_5">
    <path d="M 32.56 141.56 
L 709.2 141.56 
" style="fill: none; stroke: #000000; stroke-width: 0.8; stroke-linejoin: miter; stroke-linecap: square"/>
   </g>
   <g id="patch_6">
    <path d="M 32.56 52.8 
L 709.2 52.8 
" style="fill: none; stroke: #000000; stroke-width: 0.8; stroke-linejoin: miter; stroke-linecap: square"/>
   </g>
   <g id="text_13">
    <!-- Sine 400Hz -->
    <g transform="translate(336.889063 46.8) scale(0.12 -0.12)">
     <defs>
      <path id="DejaVuSans-53" d="M 3425 4513 
L 3425 3897 
Q 3066 4069 2747 4153 
Q 2428 4238 2131 4238 
Q 1616 4238 1336 4038 
Q 1056 3838 1056 3469 
Q 1056 3159 1242 3001 
Q 1428 2844 1947 2747 
L 2328 2669 
Q 3034 2534 3370 2195 
Q 3706 1856 3706 1288 
Q 3706 609 3251 259 
Q 2797 -91 1919 -91 
Q 1588 -91 1214 -16 
Q 841 59 441 206 
L 441 856 
Q 825 641 1194 531 
Q 1563 422 1919 422 
Q 2459 422 2753 634 
Q 3047 847 3047 1241 
Q 3047 1584 2836 1778 
Q 2625 1972 2144 2069 
L 1759 2144 
Q 1053 2284 737 2584 
Q 422 2884 422 3419 
Q 422 4038 858 4394 
Q 1294 4750 2059 4750 
Q 2388 4750 2728 4690 
Q 3069 4631 3425 4513 
z
" transform="scale(0.015625)"/>
      <path id="DejaVuSans-69" d="M 603 3500 
L 1178 3500 
L 1178 0 
L 603 0 
L 603 3500 
z
M 603 4863 
L 1178 4863 
L 1178 4134 
L 603 4134 
L 603 4863 
z
" transform="scale(0.015625)"/>
      <path id="DejaVuSans-6e" d="M 3513 2113 
L 3513 0 
L 2938 0 
L 2938 2094 
Q 2938 2591 2744 2837 
Q 2550 3084 2163 3084 
Q 1697 3084 1428 2787 
Q 1159 2491 1159 1978 
L 1159 0 
L 581 0 
L 581 3500 
L 1159 3500 
L 1159 2956 
Q 1366 3272 1645 3428 
Q 1925 3584 2291 3584 
Q 2894 3584 3203 3211 
Q 3513 2838 3513 2113 
z
" transform="scale(0.015625)"/>
      <path id="DejaVuSans-65" d="M 3597 1894 
L 3597 1613 
L 953 1613 
Q 991 1019 1311 708 
Q 1631 397 2203 397 
Q 2534 397 2845 478 
Q 3156 559 3463 722 
L 3463 178 
Q 3153 47 2828 -22 
Q 2503 -91 2169 -91 
Q 1331 -91 842 396 
Q 353 884 353 1716 
Q 353 2575 817 3079 
Q 1281 3584 2069 3584 
Q 2775 3584 3186 3129 
Q 3597 2675 3597 1894 
z
M 3022 2063 
Q 3016 2534 2758 2815 
Q 2500 3097 2075 3097 
Q 1594 3097 1305 2825 
Q 1016 2553 972 2059 
L 3022 2063 
z
" transform="scale(0.015625)"/>
      <path id="DejaVuSans-20" transform="scale(0.015625)"/>
      <path id="DejaVuSans-34" d="M 2419 4116 
L 825 1625 
L 2419 1625 
L 2419 4116 
z
M 2253 4666 
L 3047 4666 
L 3047 1625 
L 3713 1625 
L 3713 1100 
L 3047 1100 
L 3047 0 
L 2419 0 
L 2419 1100 
L 313 1100 
L 313 1709 
L 2253 4666 
z
" transform="scale(0.015625)"/>
      <path id="DejaVuSans-48" d="M 628 4666 
L 1259 4666 
L 1259 2753 
L 3553 2753 
L 3553 4666 
L 4184 4666 
L 4184 0 
L 3553 0 
L 3553 2222 
L 1259 2222 
L 1259 0 
L 628 0 
L 628 4666 
z
" transform="scale(0.015625)"/>
      <path id="DejaVuSans-7a" d="M 353 3500 
L 3084 3500 
L 3084 2975 
L 922 459 
L 3084 459 
L 3084 0 
L 275 0 
L 275 525 
L 2438 3041 
L 353 3041 
L 353 3500 
z
" transform="scale(0.015625)"/>
     </defs>
     <use xlink:href="#DejaVuSans-53"/>
     <use xlink:href="#DejaVuSans-69" x="63.476562"/>
     <use xlink:href="#DejaVuSans-6e" x="91.259766"/>
     <use xlink:href="#DejaVuSans-65" x="154.638672"/>
     <use xlink:href="#DejaVuSans-20" x="216.162109"/>
     <use xlink:href="#DejaVuSans-34" x="247.949219"/>
     <use xlink:href="#DejaVuSans-30" x="311.572266"/>
     <use xlink:href="#DejaVuSans-30" x="375.195312"/>
     <use xlink:href="#DejaVuSans-48" x="438.818359"/>
     <use xlink:href="#DejaVuSans-7a" x="514.013672"/>
    </g>
   </g>
  </g>
  <g id="axes_2">
   <g id="patch_7">
    <path d="M 32.56 272.84 
L 709.2 272.84 
L 709.2 184.08 
L 32.56 184.08 
z
" style="fill: #ffffff"/>
   </g>
   <g id="matplotlib.axis_3">
    <g id="xtick_10">
     <g id="line2d_14">
      <g>
       <use xlink:href="#m5d6d2a18d8" x="63.316364" y="272.84" style="stroke: #000000; stroke-width: 0.8"/>
      </g>
     </g>
     <g id="text_14">
      <!-- 0.0000 -->
      <g transform="translate(45.821051 287.438437) scale(0.1 -0.1)">
       <use xlink:href="#DejaVuSans-30"/>
       <use xlink:href="#DejaVuSans-2e" x="63.623047"/>
       <use xlink:href="#DejaVuSans-30" x="95.410156"/>
       <use xlink:href="#DejaVuSans-30" x="159.033203"/>
       <use xlink:href="#DejaVuSans-30" x="222.65625"/>
       <use xlink:href="#DejaVuSans-30" x="286.279297"/>
      </g>
     </g>
    </g>
    <g id="xtick_11">
     <g id="line2d_15">
      <g>
       <use xlink:href="#m5d6d2a18d8" x="140.399982" y="272.84" style="stroke: #000000; stroke-width: 0.8"/>
      </g>
     </g>
     <g id="text_15">
      <!-- 0.0025 -->
      <g transform="translate(122.904669 287.438437) scale(0.1 -0.1)">
       <use xlink:href="#DejaVuSans-30"/>
       <use xlink:href="#DejaVuSans-2e" x="63.623047"/>
       <use xlink:href="#DejaVuSans-30" x="95.410156"/>
       <use xlink:href="#DejaVuSans-30" x="159.033203"/>
       <use xlink:href="#DejaVuSans-32" x="222.65625"/>
       <use xlink:href="#DejaVuSans-35" x="286.279297"/>
      </g>
     </g>
    </g>
    <g id="xtick_12">
     <g id="line2d_16">
      <g>
       <use xlink:href="#m5d6d2a18d8" x="217.4836" y="272.84" style="stroke: #000000; stroke-width: 0.8"/>
      </g>
     </g>
     <g id="text_16">
      <!-- 0.0050 -->
      <g transform="translate(199.988287 287.438437) scale(0.1 -0.1)">
       <use xlink:href="#DejaVuSans-30"/>
       <use xlink:href="#DejaVuSans-2e" x="63.623047"/>
       <use xlink:href="#DejaVuSans-30" x="95.410156"/>
       <use xlink:href="#DejaVuSans-30" x="159.033203"/>
       <use xlink:href="#DejaVuSans-35" x="222.65625"/>
       <use xlink:href="#DejaVuSans-30" x="286.279297"/>
      </g>
     </g>
    </g>
    <g id="xtick_13">
     <g id="line2d_17">
      <g>
       <use xlink:href="#m5d6d2a18d8" x="294.567218" y="272.84" style="stroke: #000000; stroke-width: 0.8"/>
      </g>
     </g>
     <g id="text_17">
      <!-- 0.0075 -->
      <g transform="translate(277.071906 287.438437) scale(0.1 -0.1)">
       <use xlink:href="#DejaVuSans-30"/>
       <use xlink:href="#DejaVuSans-2e" x="63.623047"/>
       <use xlink:href="#DejaVuSans-30" x="95.410156"/>
       <use xlink:href="#DejaVuSans-30" x="159.033203"/>
       <use xlink:href="#DejaVuSans-37" x="222.65625"/>
       <use xlink:href="#DejaVuSans-35" x="286.279297"/>
      </g>
     </g>
    </g>
    <g id="xtick_14">
     <g id="line2d_18">
      <g>
       <use xlink:href="#m5d6d2a18d8" x="371.650836" y="272.84" style="stroke: #000000; stroke-width: 0.8"/>
      </g>
     </g>
     <g id="text_18">
      <!-- 0.0100 -->
      <g transform="translate(354.155524 287.438437) scale(0.1 -0.1)">
       <use xlink:href="#DejaVuSans-30"/>
       <use xlink:href="#DejaVuSans-2e" x="63.623047"/>
       <use xlink:href="#DejaVuSans-30" x="95.410156"/>
       <use xlink:href="#DejaVuSans-31" x="159.033203"/>
       <use xlink:href="#DejaVuSans-30" x="222.65625"/>
       <use xlink:href="#DejaVuSans-30" x="286.279297"/>
      </g>
     </g>
    </g>
    <g id="xtick_15">
     <g id="line2d_19">
      <g>
       <use xlink:href="#m5d6d2a18d8" x="448.734454" y="272.84" style="stroke: #000000; stroke-width: 0.8"/>
      </g>
     </g>
     <g id="text_19">
      <!-- 0.0125 -->
      <g transform="translate(431.239142 287.438437) scale(0.1 -0.1)">
       <use xlink:href="#DejaVuSans-30"/>
       <use xlink:href="#DejaVuSans-2e" x="63.623047"/>
       <use xlink:href="#DejaVuSans-30" x="95.410156"/>
       <use xlink:href="#DejaVuSans-31" x="159.033203"/>
       <use xlink:href="#DejaVuSans-32" x="222.65625"/>
       <use xlink:href="#DejaVuSans-35" x="286.279297"/>
      </g>
     </g>
    </g>
    <g id="xtick_16">
     <g id="line2d_20">
      <g>
       <use xlink:href="#m5d6d2a18d8" x="525.818072" y="272.84" style="stroke: #000000; stroke-width: 0.8"/>
      </g>
     </g>
     <g id="text_20">
      <!-- 0.0150 -->
      <g transform="translate(508.32276 287.438437) scale(0.1 -0.1)">
       <use xlink:href="#DejaVuSans-30"/>
       <use xlink:href="#DejaVuSans-2e" x="63.623047"/>
       <use xlink:href="#DejaVuSans-30" x="95.410156"/>
       <use xlink:href="#DejaVuSans-31" x="159.033203"/>
       <use xlink:href="#DejaVuSans-35" x="222.65625"/>
       <use xlink:href="#DejaVuSans-30" x="286.279297"/>
      </g>
     </g>
    </g>
    <g id="xtick_17">
     <g id="line2d_21">
      <g>
       <use xlink:href="#m5d6d2a18d8" x="602.901691" y="272.84" style="stroke: #000000; stroke-width: 0.8"/>
      </g>
     </g>
     <g id="text_21">
      <!-- 0.0175 -->
      <g transform="translate(585.406378 287.438437) scale(0.1 -0.1)">
       <use xlink:href="#DejaVuSans-30"/>
       <use xlink:href="#DejaVuSans-2e" x="63.623047"/>
       <use xlink:href="#DejaVuSans-30" x="95.410156"/>
       <use xlink:href="#DejaVuSans-31" x="159.033203"/>
       <use xlink:href="#DejaVuSans-37" x="222.65625"/>
       <use xlink:href="#DejaVuSans-35" x="286.279297"/>
      </g>
     </g>
    </g>
    <g id="xtick_18">
     <g id="line2d_22">
      <g>
       <use xlink:href="#m5d6d2a18d8" x="679.985309" y="272.84" style="stroke: #000000; stroke-width: 0.8"/>
      </g>
     </g>
     <g id="text_22">
      <!-- 0.0200 -->
      <g transform="translate(662.489996 287.438437) scale(0.1 -0.1)">
       <use xlink:href="#DejaVuSans-30"/>
       <use xlink:href="#DejaVuSans-2e" x="63.623047"/>
       <use xlink:href="#DejaVuSans-30" x="95.410156"/>
       <use xlink:href="#DejaVuSans-32" x="159.033203"/>
       <use xlink:href="#DejaVuSans-30" x="222.65625"/>
       <use xlink:href="#DejaVuSans-30" x="286.279297"/>
      </g>
     </g>
    </g>
   </g>
   <g id="matplotlib.axis_4">
    <g id="ytick_4">
     <g id="line2d_23">
      <g>
       <use xlink:href="#me4418cce74" x="32.56" y="268.885224" style="stroke: #000000; stroke-width: 0.8"/>
      </g>
     </g>
     <g id="text_23">
      <!-- −1 -->
      <g transform="translate(10.817812 272.684443) scale(0.1 -0.1)">
       <use xlink:href="#DejaVuSans-2212"/>
       <use xlink:href="#DejaVuSans-31" x="83.789062"/>
      </g>
     </g>
    </g>
    <g id="ytick_5">
     <g id="line2d_24">
      <g>
       <use xlink:href="#me4418cce74" x="32.56" y="228.46" style="stroke: #000000; stroke-width: 0.8"/>
      </g>
     </g>
     <g id="text_24">
      <!-- 0 -->
      <g transform="translate(19.1975 232.259219) scale(0.1 -0.1)">
       <use xlink:href="#DejaVuSans-30"/>
      </g>
     </g>
    </g>
    <g id="ytick_6">
     <g id="line2d_25">
      <g>
       <use xlink:href="#me4418cce74" x="32.56" y="188.034776" style="stroke: #000000; stroke-width: 0.8"/>
      </g>
     </g>
     <g id="text_25">
      <!-- 1 -->
      <g transform="translate(19.1975 191.833994) scale(0.1 -0.1)">
       <use xlink:href="#DejaVuSans-31"/>
      </g>
     </g>
    </g>
   </g>
   <g id="line2d_26">
    <path d="M 63.316364 228.46 
L 66.399708 208.985 
L 67.941381 200.78703 
L 69.483053 194.327854 
L 71.024725 190.013327 
L 72.566398 188.114545 
L 74.10807 188.750817 
L 75.649743 191.882163 
L 77.191415 197.311829 
L 78.733087 204.698649 
L 80.27476 213.578482 
L 86.441449 252.221351 
L 87.983121 259.608171 
L 89.524794 265.037837 
L 91.066466 268.169183 
L 92.608139 268.805455 
L 94.149811 266.906673 
L 95.691483 262.592146 
L 97.233156 256.13297 
L 98.774828 247.935 
L 101.858173 228.46 
L 104.941517 208.985 
L 106.48319 200.78703 
L 108.024862 194.327854 
L 109.566535 190.013327 
L 111.108207 188.114545 
L 112.649879 188.750817 
L 114.191552 191.882163 
L 115.733224 197.311829 
L 117.274896 204.698649 
L 118.816569 213.578482 
L 124.983258 252.221351 
L 126.524931 259.608171 
L 128.066603 265.037837 
L 129.608275 268.169183 
L 131.149948 268.805455 
L 132.69162 266.906673 
L 134.233292 262.592146 
L 135.774965 256.13297 
L 137.316637 247.935 
L 140.399982 228.46 
L 143.483326 208.985 
L 145.024999 200.78703 
L 146.566671 194.327854 
L 148.108344 190.013327 
L 149.650016 188.114545 
L 151.191688 188.750817 
L 152.733361 191.882163 
L 154.275033 197.311829 
L 155.816705 204.698649 
L 157.358378 213.578482 
L 163.525067 252.221351 
L 165.06674 259.608171 
L 166.608412 265.037837 
L 168.150084 268.169183 
L 169.691757 268.805455 
L 171.233429 266.906673 
L 172.775101 262.592146 
L 174.316774 256.13297 
L 175.858446 247.935 
L 178.941791 228.46 
L 182.025136 208.985 
L 183.566808 200.78703 
L 185.10848 194.327854 
L 186.650153 190.013327 
L 188.191825 188.114545 
L 189.733497 188.750817 
L 191.27517 191.882163 
L 192.816842 197.311829 
L 194.358514 204.698649 
L 195.900187 213.578482 
L 202.066876 252.221351 
L 203.608549 259.608171 
L 205.150221 265.037837 
L 206.691893 268.169183 
L 208.233566 268.805455 
L 209.775238 266.906673 
L 211.31691 262.592146 
L 212.858583 256.13297 
L 214.400255 247.935 
L 217.4836 228.46 
L 220.566945 208.985 
L 222.108617 200.78703 
L 223.650289 194.327854 
L 225.191962 190.013327 
L 226.733634 188.114545 
L 228.275306 188.750817 
L 229.816979 191.882163 
L 231.358651 197.311829 
L 232.900324 204.698649 
L 234.441996 213.578482 
L 240.608685 252.221351 
L 242.150358 259.608171 
L 243.69203 265.037837 
L 245.233702 268.169183 
L 246.775375 268.805455 
L 248.317047 266.906673 
L 249.85872 262.592146 
L 251.400392 256.13297 
L 252.942064 247.935 
L 256.025409 228.46 
L 259.108754 208.985 
L 260.650426 200.78703 
L 262.192098 194.327854 
L 263.733771 190.013327 
L 265.275443 188.114545 
L 266.817116 188.750817 
L 268.358788 191.882163 
L 269.90046 197.311829 
L 271.442133 204.698649 
L 272.983805 213.578482 
L 279.150494 252.221351 
L 280.692167 259.608171 
L 282.233839 265.037837 
L 283.775512 268.169183 
L 285.317184 268.805455 
L 286.858856 266.906673 
L 288.400529 262.592146 
L 289.942201 256.13297 
L 291.483873 247.935 
L 294.567218 228.46 
L 297.650563 208.985 
L 299.192235 200.78703 
L 300.733907 194.327854 
L 302.27558 190.013327 
L 303.817252 188.114545 
L 305.358925 188.750817 
L 306.900597 191.882163 
L 308.442269 197.311829 
L 309.983942 204.698649 
L 311.525614 213.578482 
L 317.692303 252.221351 
L 319.233976 259.608171 
L 320.775648 265.037837 
L 322.317321 268.169183 
L 323.858993 268.805455 
L 325.400665 266.906673 
L 326.942338 262.592146 
L 328.48401 256.13297 
L 330.025682 247.935 
L 333.109027 228.46 
L 336.192372 208.985 
L 337.734044 200.78703 
L 339.275717 194.327854 
L 340.817389 190.013327 
L 342.359061 188.114545 
L 343.900734 188.750817 
L 345.442406 191.882163 
L 346.984078 197.311829 
L 348.525751 204.698649 
L 350.067423 213.578482 
L 356.234113 252.221351 
L 357.775785 259.608171 
L 359.317457 265.037837 
L 360.85913 268.169183 
L 362.400802 268.805455 
L 363.942474 266.906673 
L 365.484147 262.592146 
L 367.025819 256.13297 
L 368.567491 247.935 
L 371.650836 228.46 
L 374.734181 208.985 
L 376.275853 200.78703 
L 377.817526 194.327854 
L 379.359198 190.013327 
L 380.90087 188.114545 
L 382.442543 188.750817 
L 383.984215 191.882163 
L 385.525887 197.311829 
L 387.06756 204.698649 
L 388.609232 213.578482 
L 394.775922 252.221351 
L 396.317594 259.608171 
L 397.859266 265.037837 
L 399.400939 268.169183 
L 400.942611 268.805455 
L 402.484283 266.906673 
L 404.025956 262.592146 
L 405.567628 256.13297 
L 407.109301 247.935 
L 410.192645 228.46 
L 413.27599 208.985 
L 414.817662 200.78703 
L 416.359335 194.327854 
L 417.901007 190.013327 
L 419.442679 188.114545 
L 420.984352 188.750817 
L 422.526024 191.882163 
L 424.067697 197.311829 
L 425.609369 204.698649 
L 427.151041 213.578482 
L 433.317731 252.221351 
L 434.859403 259.608171 
L 436.401075 265.037837 
L 437.942748 268.169183 
L 439.48442 268.805455 
L 441.026093 266.906673 
L 442.567765 262.592146 
L 444.109437 256.13297 
L 445.65111 247.935 
L 448.734454 228.46 
L 451.817799 208.985 
L 453.359471 200.78703 
L 454.901144 194.327854 
L 456.442816 190.013327 
L 457.984488 188.114545 
L 459.526161 188.750817 
L 461.067833 191.882163 
L 462.609506 197.311829 
L 464.151178 204.698649 
L 465.69285 213.578482 
L 471.85954 252.221351 
L 473.401212 259.608171 
L 474.942884 265.037837 
L 476.484557 268.169183 
L 478.026229 268.805455 
L 479.567902 266.906673 
L 481.109574 262.592146 
L 482.651246 256.13297 
L 484.192919 247.935 
L 487.276263 228.46 
L 490.359608 208.985 
L 491.90128 200.78703 
L 493.442953 194.327854 
L 494.984625 190.013327 
L 496.526298 188.114545 
L 498.06797 188.750817 
L 499.609642 191.882163 
L 501.151315 197.311829 
L 502.692987 204.698649 
L 504.234659 213.578482 
L 510.401349 252.221351 
L 511.943021 259.608171 
L 513.484694 265.037837 
L 515.026366 268.169183 
L 516.568038 268.805455 
L 518.109711 266.906673 
L 519.651383 262.592146 
L 521.193055 256.13297 
L 522.734728 247.935 
L 525.818072 228.46 
L 528.901417 208.985 
L 530.44309 200.78703 
L 531.984762 194.327854 
L 533.526434 190.013327 
L 535.068107 188.114545 
L 536.609779 188.750817 
L 538.151451 191.882163 
L 539.693124 197.311829 
L 541.234796 204.698649 
L 542.776468 213.578482 
L 548.943158 252.221351 
L 550.48483 259.608171 
L 552.026503 265.037837 
L 553.568175 268.169183 
L 555.109847 268.805455 
L 556.65152 266.906673 
L 558.193192 262.592146 
L 559.734864 256.13297 
L 561.276537 247.935 
L 564.359882 228.46 
L 567.443226 208.985 
L 568.984899 200.78703 
L 570.526571 194.327854 
L 572.068243 190.013327 
L 573.609916 188.114545 
L 575.151588 188.750817 
L 576.69326 191.882163 
L 578.234933 197.311829 
L 579.776605 204.698649 
L 581.318278 213.578482 
L 587.484967 252.221351 
L 589.026639 259.608171 
L 590.568312 265.037837 
L 592.109984 268.169183 
L 593.651656 268.805455 
L 595.193329 266.906673 
L 596.735001 262.592146 
L 598.276674 256.13297 
L 599.818346 247.935 
L 602.901691 228.46 
L 605.985035 208.985 
L 607.526708 200.78703 
L 609.06838 194.327854 
L 610.610052 190.013327 
L 612.151725 188.114545 
L 613.693397 188.750817 
L 615.235069 191.882163 
L 616.776742 197.311829 
L 618.318414 204.698649 
L 619.860087 213.578482 
L 626.026776 252.221351 
L 627.568448 259.608171 
L 629.110121 265.037837 
L 630.651793 268.169183 
L 632.193465 268.805455 
L 633.735138 266.906673 
L 635.27681 262.592146 
L 636.818483 256.13297 
L 638.360155 247.935 
L 641.4435 228.46 
L 644.526844 208.985 
L 646.068517 200.78703 
L 647.610189 194.327854 
L 649.151861 190.013327 
L 650.693534 188.114545 
L 652.235206 188.750817 
L 653.776879 191.882163 
L 655.318551 197.311829 
L 656.860223 204.698649 
L 658.401896 213.578482 
L 664.568585 252.221351 
L 666.110257 259.608171 
L 667.65193 265.037837 
L 669.193602 268.169183 
L 670.735275 268.805455 
L 672.276947 266.906673 
L 673.818619 262.592146 
L 675.360292 256.13297 
L 676.901964 247.935 
L 678.443636 238.513345 
L 678.443636 238.513345 
" clip-path="url(#p21f69b3bfc)" style="fill: none; stroke: #008000; stroke-width: 1.5; stroke-linecap: square"/>
   </g>
   <g id="patch_8">
    <path d="M 32.56 272.84 
L 32.56 184.08 
" style="fill: none; stroke: #000000; stroke-width: 0.8; stroke-linejoin: miter; stroke-linecap: square"/>
   </g>
   <g id="patch_9">
    <path d="M 709.2 272.84 
L 709.2 184.08 
" style="fill: none; stroke: #000000; stroke-width: 0.8; stroke-linejoin: miter; stroke-linecap: square"/>
   </g>
   <g id="patch_10">
    <path d="M 32.56 272.84 
L 709.2 272.84 
" style="fill: none; stroke: #000000; stroke-width: 0.8; stroke-linejoin: miter; stroke-linecap: square"/>
   </g>
   <g id="patch_11">
    <path d="M 32.56 184.08 
L 709.2 184.08 
" style="fill: none; stroke: #000000; stroke-width: 0.8; stroke-linejoin: miter; stroke-linecap: square"/>
   </g>
   <g id="text_26">
    <!-- Sine 800Hz -->
    <g transform="translate(336.889063 178.08) scale(0.12 -0.12)">
     <defs>
      <path id="DejaVuSans-38" d="M 2034 2216 
Q 1584 2216 1326 1975 
Q 1069 1734 1069 1313 
Q 1069 891 1326 650 
Q 1584 409 2034 409 
Q 2484 409 2743 651 
Q 3003 894 3003 1313 
Q 3003 1734 2745 1975 
Q 2488 2216 2034 2216 
z
M 1403 2484 
Q 997 2584 770 2862 
Q 544 3141 544 3541 
Q 544 4100 942 4425 
Q 1341 4750 2034 4750 
Q 2731 4750 3128 4425 
Q 3525 4100 3525 3541 
Q 3525 3141 3298 2862 
Q 3072 2584 2669 2484 
Q 3125 2378 3379 2068 
Q 3634 1759 3634 1313 
Q 3634 634 3220 271 
Q 2806 -91 2034 -91 
Q 1263 -91 848 271 
Q 434 634 434 1313 
Q 434 1759 690 2068 
Q 947 2378 1403 2484 
z
M 1172 3481 
Q 1172 3119 1398 2916 
Q 1625 2713 2034 2713 
Q 2441 2713 2670 2916 
Q 2900 3119 2900 3481 
Q 2900 3844 2670 4047 
Q 2441 4250 2034 4250 
Q 1625 4250 1398 4047 
Q 1172 3844 1172 3481 
z
" transform="scale(0.015625)"/>
     </defs>
     <use xlink:href="#DejaVuSans-53"/>
     <use xlink:href="#DejaVuSans-69" x="63.476562"/>
     <use xlink:href="#DejaVuSans-6e" x="91.259766"/>
     <use xlink:href="#DejaVuSans-65" x="154.638672"/>
     <use xlink:href="#DejaVuSans-20" x="216.162109"/>
     <use xlink:href="#DejaVuSans-38" x="247.949219"/>
     <use xlink:href="#DejaVuSans-30" x="311.572266"/>
     <use xlink:href="#DejaVuSans-30" x="375.195312"/>
     <use xlink:href="#DejaVuSans-48" x="438.818359"/>
     <use xlink:href="#DejaVuSans-7a" x="514.013672"/>
    </g>
   </g>
  </g>
  <g id="axes_3">
   <g id="patch_12">
    <path d="M 32.56 404.12 
L 709.2 404.12 
L 709.2 315.36 
L 32.56 315.36 
z
" style="fill: #ffffff"/>
   </g>
   <g id="matplotlib.axis_5">
    <g id="xtick_19">
     <g id="line2d_27">
      <g>
       <use xlink:href="#m5d6d2a18d8" x="63.316364" y="404.12" style="stroke: #000000; stroke-width: 0.8"/>
      </g>
     </g>
     <g id="text_27">
      <!-- 0.000 -->
      <g transform="translate(49.002301 418.718437) scale(0.1 -0.1)">
       <use xlink:href="#DejaVuSans-30"/>
       <use xlink:href="#DejaVuSans-2e" x="63.623047"/>
       <use xlink:href="#DejaVuSans-30" x="95.410156"/>
       <use xlink:href="#DejaVuSans-30" x="159.033203"/>
       <use xlink:href="#DejaVuSans-30" x="222.65625"/>
      </g>
     </g>
    </g>
    <g id="xtick_20">
     <g id="line2d_28">
      <g>
       <use xlink:href="#m5d6d2a18d8" x="140.303507" y="404.12" style="stroke: #000000; stroke-width: 0.8"/>
      </g>
     </g>
     <g id="text_28">
      <!-- 0.005 -->
      <g transform="translate(125.989444 418.718437) scale(0.1 -0.1)">
       <use xlink:href="#DejaVuSans-30"/>
       <use xlink:href="#DejaVuSans-2e" x="63.623047"/>
       <use xlink:href="#DejaVuSans-30" x="95.410156"/>
       <use xlink:href="#DejaVuSans-30" x="159.033203"/>
       <use xlink:href="#DejaVuSans-35" x="222.65625"/>
      </g>
     </g>
    </g>
    <g id="xtick_21">
     <g id="line2d_29">
      <g>
       <use xlink:href="#m5d6d2a18d8" x="217.29065" y="404.12" style="stroke: #000000; stroke-width: 0.8"/>
      </g>
     </g>
     <g id="text_29">
      <!-- 0.010 -->
      <g transform="translate(202.976587 418.718437) scale(0.1 -0.1)">
       <use xlink:href="#DejaVuSans-30"/>
       <use xlink:href="#DejaVuSans-2e" x="63.623047"/>
       <use xlink:href="#DejaVuSans-30" x="95.410156"/>
       <use xlink:href="#DejaVuSans-31" x="159.033203"/>
       <use xlink:href="#DejaVuSans-30" x="222.65625"/>
      </g>
     </g>
    </g>
    <g id="xtick_22">
     <g id="line2d_30">
      <g>
       <use xlink:href="#m5d6d2a18d8" x="294.277793" y="404.12" style="stroke: #000000; stroke-width: 0.8"/>
      </g>
     </g>
     <g id="text_30">
      <!-- 0.015 -->
      <g transform="translate(279.96373 418.718437) scale(0.1 -0.1)">
       <use xlink:href="#DejaVuSans-30"/>
       <use xlink:href="#DejaVuSans-2e" x="63.623047"/>
       <use xlink:href="#DejaVuSans-30" x="95.410156"/>
       <use xlink:href="#DejaVuSans-31" x="159.033203"/>
       <use xlink:href="#DejaVuSans-35" x="222.65625"/>
      </g>
     </g>
    </g>
    <g id="xtick_23">
     <g id="line2d_31">
      <g>
       <use xlink:href="#m5d6d2a18d8" x="371.264936" y="404.12" style="stroke: #000000; stroke-width: 0.8"/>
      </g>
     </g>
     <g id="text_31">
      <!-- 0.020 -->
      <g transform="translate(356.950873 418.718437) scale(0.1 -0.1)">
       <use xlink:href="#DejaVuSans-30"/>
       <use xlink:href="#DejaVuSans-2e" x="63.623047"/>
       <use xlink:href="#DejaVuSans-30" x="95.410156"/>
       <use xlink:href="#DejaVuSans-32" x="159.033203"/>
       <use xlink:href="#DejaVuSans-30" x="222.65625"/>
      </g>
     </g>
    </g>
    <g id="xtick_24">
     <g id="line2d_32">
      <g>
       <use xlink:href="#m5d6d2a18d8" x="448.252079" y="404.12" style="stroke: #000000; stroke-width: 0.8"/>
      </g>
     </g>
     <g id="text_32">
      <!-- 0.025 -->
      <g transform="translate(433.938016 418.718437) scale(0.1 -0.1)">
       <use xlink:href="#DejaVuSans-30"/>
       <use xlink:href="#DejaVuSans-2e" x="63.623047"/>
       <use xlink:href="#DejaVuSans-30" x="95.410156"/>
       <use xlink:href="#DejaVuSans-32" x="159.033203"/>
       <use xlink:href="#DejaVuSans-35" x="222.65625"/>
      </g>
     </g>
    </g>
    <g id="xtick_25">
     <g id="line2d_33">
      <g>
       <use xlink:href="#m5d6d2a18d8" x="525.239222" y="404.12" style="stroke: #000000; stroke-width: 0.8"/>
      </g>
     </g>
     <g id="text_33">
      <!-- 0.030 -->
      <g transform="translate(510.925159 418.718437) scale(0.1 -0.1)">
       <defs>
        <path id="DejaVuSans-33" d="M 2597 2516 
Q 3050 2419 3304 2112 
Q 3559 1806 3559 1356 
Q 3559 666 3084 287 
Q 2609 -91 1734 -91 
Q 1441 -91 1130 -33 
Q 819 25 488 141 
L 488 750 
Q 750 597 1062 519 
Q 1375 441 1716 441 
Q 2309 441 2620 675 
Q 2931 909 2931 1356 
Q 2931 1769 2642 2001 
Q 2353 2234 1838 2234 
L 1294 2234 
L 1294 2753 
L 1863 2753 
Q 2328 2753 2575 2939 
Q 2822 3125 2822 3475 
Q 2822 3834 2567 4026 
Q 2313 4219 1838 4219 
Q 1578 4219 1281 4162 
Q 984 4106 628 3988 
L 628 4550 
Q 988 4650 1302 4700 
Q 1616 4750 1894 4750 
Q 2613 4750 3031 4423 
Q 3450 4097 3450 3541 
Q 3450 3153 3228 2886 
Q 3006 2619 2597 2516 
z
" transform="scale(0.015625)"/>
       </defs>
       <use xlink:href="#DejaVuSans-30"/>
       <use xlink:href="#DejaVuSans-2e" x="63.623047"/>
       <use xlink:href="#DejaVuSans-30" x="95.410156"/>
       <use xlink:href="#DejaVuSans-33" x="159.033203"/>
       <use xlink:href="#DejaVuSans-30" x="222.65625"/>
      </g>
     </g>
    </g>
    <g id="xtick_26">
     <g id="line2d_34">
      <g>
       <use xlink:href="#m5d6d2a18d8" x="602.226365" y="404.12" style="stroke: #000000; stroke-width: 0.8"/>
      </g>
     </g>
     <g id="text_34">
      <!-- 0.035 -->
      <g transform="translate(587.912302 418.718437) scale(0.1 -0.1)">
       <use xlink:href="#DejaVuSans-30"/>
       <use xlink:href="#DejaVuSans-2e" x="63.623047"/>
       <use xlink:href="#DejaVuSans-30" x="95.410156"/>
       <use xlink:href="#DejaVuSans-33" x="159.033203"/>
       <use xlink:href="#DejaVuSans-35" x="222.65625"/>
      </g>
     </g>
    </g>
    <g id="xtick_27">
     <g id="line2d_35">
      <g>
       <use xlink:href="#m5d6d2a18d8" x="679.213508" y="404.12" style="stroke: #000000; stroke-width: 0.8"/>
      </g>
     </g>
     <g id="text_35">
      <!-- 0.040 -->
      <g transform="translate(664.899445 418.718437) scale(0.1 -0.1)">
       <use xlink:href="#DejaVuSans-30"/>
       <use xlink:href="#DejaVuSans-2e" x="63.623047"/>
       <use xlink:href="#DejaVuSans-30" x="95.410156"/>
       <use xlink:href="#DejaVuSans-34" x="159.033203"/>
       <use xlink:href="#DejaVuSans-30" x="222.65625"/>
      </g>
     </g>
    </g>
   </g>
   <g id="matplotlib.axis_6">
    <g id="ytick_7">
     <g id="line2d_36">
      <g>
       <use xlink:href="#me4418cce74" x="32.56" y="400.165224" style="stroke: #000000; stroke-width: 0.8"/>
      </g>
     </g>
     <g id="text_36">
      <!-- −1 -->
      <g transform="translate(10.817812 403.964443) scale(0.1 -0.1)">
       <use xlink:href="#DejaVuSans-2212"/>
       <use xlink:href="#DejaVuSans-31" x="83.789062"/>
      </g>
     </g>
    </g>
    <g id="ytick_8">
     <g id="line2d_37">
      <g>
       <use xlink:href="#me4418cce74" x="32.56" y="359.74" style="stroke: #000000; stroke-width: 0.8"/>
      </g>
     </g>
     <g id="text_37">
      <!-- 0 -->
      <g transform="translate(19.1975 363.539219) scale(0.1 -0.1)">
       <use xlink:href="#DejaVuSans-30"/>
      </g>
     </g>
    </g>
    <g id="ytick_9">
     <g id="line2d_38">
      <g>
       <use xlink:href="#me4418cce74" x="32.56" y="319.314776" style="stroke: #000000; stroke-width: 0.8"/>
      </g>
     </g>
     <g id="text_38">
      <!-- 1 -->
      <g transform="translate(19.1975 323.113994) scale(0.1 -0.1)">
       <use xlink:href="#DejaVuSans-31"/>
      </g>
     </g>
    </g>
   </g>
   <g id="line2d_39">
    <path d="M 63.316364 359.74 
L 65.625978 344.858482 
L 67.165721 335.978649 
L 68.705464 328.591829 
L 69.475335 325.607854 
L 70.245207 323.162163 
L 71.015078 321.293327 
L 71.784949 320.030817 
L 72.554821 319.394545 
L 73.324692 319.394545 
L 74.094564 320.030817 
L 74.864435 321.293327 
L 75.634307 323.162163 
L 76.404178 325.607854 
L 77.174049 328.591829 
L 78.713792 335.978649 
L 80.253535 344.858482 
L 83.333021 364.806624 
L 85.642635 379.215 
L 87.182378 387.41297 
L 88.722121 393.872146 
L 89.491992 396.317837 
L 90.261864 398.186673 
L 91.031735 399.449183 
L 91.801607 400.085455 
L 92.571478 400.085455 
L 93.341349 399.449183 
L 94.111221 398.186673 
L 94.881092 396.317837 
L 95.650964 393.872146 
L 96.420835 390.888171 
L 97.960578 383.501351 
L 99.500321 374.621518 
L 102.579807 354.673376 
L 104.889421 340.265 
L 106.429164 332.06703 
L 107.968907 325.607854 
L 108.738778 323.162163 
L 109.508649 321.293327 
L 110.278521 320.030817 
L 111.048392 319.394545 
L 111.818264 319.394545 
L 112.588135 320.030817 
L 113.358007 321.293327 
L 114.127878 323.162163 
L 114.897749 325.607854 
L 115.667621 328.591829 
L 117.207364 335.978649 
L 118.747107 344.858482 
L 121.826592 364.806624 
L 124.136207 379.215 
L 125.675949 387.41297 
L 127.215692 393.872146 
L 127.985564 396.317837 
L 128.755435 398.186673 
L 129.525307 399.449183 
L 130.295178 400.085455 
L 131.065049 400.085455 
L 131.834921 399.449183 
L 132.604792 398.186673 
L 133.374664 396.317837 
L 134.144535 393.872146 
L 134.914407 390.888171 
L 136.45415 383.501351 
L 137.993892 374.621518 
L 141.073378 354.673376 
L 143.382992 340.265 
L 144.922735 332.06703 
L 146.462478 325.607854 
L 147.23235 323.162163 
L 148.002221 321.293327 
L 148.772092 320.030817 
L 149.541964 319.394545 
L 150.311835 319.394545 
L 151.081707 320.030817 
L 151.851578 321.293327 
L 152.62145 323.162163 
L 153.391321 325.607854 
L 154.161192 328.591829 
L 155.700935 335.978649 
L 157.240678 344.858482 
L 160.320164 364.806624 
L 162.629778 379.215 
L 164.169521 387.41297 
L 165.709264 393.872146 
L 166.479135 396.317837 
L 167.249007 398.186673 
L 168.018878 399.449183 
L 168.78875 400.085455 
L 169.558621 400.085455 
L 170.328492 399.449183 
L 171.098364 398.186673 
L 171.868235 396.317837 
L 172.638107 393.872146 
L 173.407978 390.888171 
L 174.947721 383.501351 
L 176.487464 374.621518 
L 179.56695 354.673376 
L 181.876564 340.265 
L 183.416307 332.06703 
L 184.95605 325.607854 
L 185.725921 323.162163 
L 186.495792 321.293327 
L 187.265664 320.030817 
L 188.035535 319.394545 
L 188.805407 319.394545 
L 189.575278 320.030817 
L 190.34515 321.293327 
L 191.115021 323.162163 
L 191.884892 325.607854 
L 192.654764 328.591829 
L 194.194507 335.978649 
L 195.73425 344.858482 
L 198.813735 364.806624 
L 201.12335 379.215 
L 202.663093 387.41297 
L 204.202835 393.872146 
L 204.972707 396.317837 
L 205.742578 398.186673 
L 206.51245 399.449183 
L 207.282321 400.085455 
L 208.052193 400.085455 
L 208.822064 399.449183 
L 209.591935 398.186673 
L 210.361807 396.317837 
L 211.131678 393.872146 
L 211.90155 390.888171 
L 213.441293 383.501351 
L 214.981035 374.621518 
L 218.060521 354.673376 
L 220.370135 340.265 
L 221.909878 332.06703 
L 223.449621 325.607854 
L 224.219493 323.162163 
L 224.989364 321.293327 
L 225.759235 320.030817 
L 226.529107 319.394545 
L 227.298978 319.394545 
L 228.06885 320.030817 
L 228.838721 321.293327 
L 229.608593 323.162163 
L 230.378464 325.607854 
L 231.148335 328.591829 
L 232.688078 335.978649 
L 234.227821 344.858482 
L 237.307307 364.806624 
L 239.616921 379.215 
L 241.156664 387.41297 
L 242.696407 393.872146 
L 243.466278 396.317837 
L 244.23615 398.186673 
L 245.006021 399.449183 
L 245.775893 400.085455 
L 246.545764 400.085455 
L 247.315635 399.449183 
L 248.085507 398.186673 
L 248.855378 396.317837 
L 249.62525 393.872146 
L 250.395121 390.888171 
L 251.934864 383.501351 
L 253.474607 374.621518 
L 256.554093 354.673376 
L 258.863707 340.265 
L 260.40345 332.06703 
L 261.943193 325.607854 
L 262.713064 323.162163 
L 263.482935 321.293327 
L 264.252807 320.030817 
L 265.022678 319.394545 
L 265.79255 319.394545 
L 266.562421 320.030817 
L 267.332293 321.293327 
L 268.102164 323.162163 
L 268.872035 325.607854 
L 269.641907 328.591829 
L 271.18165 335.978649 
L 272.721393 344.858482 
L 275.800878 364.806624 
L 278.110493 379.215 
L 279.650236 387.41297 
L 281.189978 393.872146 
L 281.95985 396.317837 
L 282.729721 398.186673 
L 283.499593 399.449183 
L 284.269464 400.085455 
L 285.039336 400.085455 
L 285.809207 399.449183 
L 286.579078 398.186673 
L 287.34895 396.317837 
L 288.118821 393.872146 
L 288.888693 390.888171 
L 290.428436 383.501351 
L 291.968178 374.621518 
L 295.047664 354.673376 
L 297.357278 340.265 
L 298.897021 332.06703 
L 300.436764 325.607854 
L 301.206636 323.162163 
L 301.976507 321.293327 
L 302.746378 320.030817 
L 303.51625 319.394545 
L 304.286121 319.394545 
L 305.055993 320.030817 
L 305.825864 321.293327 
L 306.595736 323.162163 
L 307.365607 325.607854 
L 308.135478 328.591829 
L 309.675221 335.978649 
L 311.214964 344.858482 
L 314.29445 364.806624 
L 316.604064 379.215 
L 318.143807 387.41297 
L 319.68355 393.872146 
L 320.453421 396.317837 
L 321.223293 398.186673 
L 321.993164 399.449183 
L 322.763036 400.085455 
L 323.532907 400.085455 
L 324.302778 399.449183 
L 325.07265 398.186673 
L 325.842521 396.317837 
L 326.612393 393.872146 
L 327.382264 390.888171 
L 328.922007 383.501351 
L 330.46175 374.621518 
L 333.541236 354.673376 
L 335.85085 340.265 
L 337.390593 332.06703 
L 338.930336 325.607854 
L 339.700207 323.162163 
L 340.470079 321.293327 
L 341.23995 320.030817 
L 342.009821 319.394545 
L 342.779693 319.394545 
L 343.549564 320.030817 
L 344.319436 321.293327 
L 345.089307 323.162163 
L 345.859179 325.607854 
L 346.62905 328.591829 
L 348.168793 335.978649 
L 349.708536 344.858482 
L 352.788021 364.806624 
L 355.097636 379.215 
L 356.637379 387.41297 
L 358.177121 393.872146 
L 358.946993 396.317837 
L 359.716864 398.186673 
L 360.486736 399.449183 
L 361.256607 400.085455 
L 362.026479 400.085455 
L 362.79635 399.449183 
L 363.566221 398.186673 
L 364.336093 396.317837 
L 365.105964 393.872146 
L 365.875836 390.888171 
L 367.415579 383.501351 
L 368.955321 374.621518 
L 372.034807 354.673376 
L 374.344421 340.265 
L 375.884164 332.06703 
L 377.423907 325.607854 
L 378.193779 323.162163 
L 378.96365 321.293327 
L 379.733521 320.030817 
L 380.503393 319.394545 
L 381.273264 319.394545 
L 382.043136 320.030817 
L 382.813007 321.293327 
L 383.582879 323.162163 
L 384.35275 325.607854 
L 385.122621 328.591829 
L 386.662364 335.978649 
L 388.202107 344.858482 
L 391.281593 364.806624 
L 393.591207 379.215 
L 395.13095 387.41297 
L 396.670693 393.872146 
L 397.440564 396.317837 
L 398.210436 398.186673 
L 398.980307 399.449183 
L 399.750179 400.085455 
L 400.52005 400.085455 
L 401.289921 399.449183 
L 402.059793 398.186673 
L 402.829664 396.317837 
L 403.599536 393.872146 
L 404.369407 390.888171 
L 405.90915 383.501351 
L 407.448893 374.621518 
L 410.528379 354.673376 
L 412.837993 340.265 
L 414.377736 332.06703 
L 415.917479 325.607854 
L 416.68735 323.162163 
L 417.457222 321.293327 
L 418.227093 320.030817 
L 418.996964 319.394545 
L 419.766836 319.394545 
L 420.536707 320.030817 
L 421.306579 321.293327 
L 422.07645 323.162163 
L 422.846322 325.607854 
L 423.616193 328.591829 
L 425.155936 335.978649 
L 426.695679 344.858482 
L 429.775164 364.806624 
L 432.084779 379.215 
L 433.624522 387.41297 
L 435.164264 393.872146 
L 435.934136 396.317837 
L 436.704007 398.186673 
L 437.473879 399.449183 
L 438.24375 400.085455 
L 439.013622 400.085455 
L 439.783493 399.449183 
L 440.553364 398.186673 
L 441.323236 396.317837 
L 442.093107 393.872146 
L 442.862979 390.888171 
L 444.402722 383.501351 
L 445.942464 374.621518 
L 449.02195 354.673376 
L 451.331564 340.265 
L 452.871307 332.06703 
L 454.41105 325.607854 
L 455.180922 323.162163 
L 455.950793 321.293327 
L 456.720664 320.030817 
L 457.490536 319.394545 
L 458.260407 319.394545 
L 459.030279 320.030817 
L 459.80015 321.293327 
L 460.570022 323.162163 
L 461.339893 325.607854 
L 462.109764 328.591829 
L 463.649507 335.978649 
L 465.18925 344.858482 
L 468.268736 364.806624 
L 470.57835 379.215 
L 472.118093 387.41297 
L 473.657836 393.872146 
L 474.427707 396.317837 
L 475.197579 398.186673 
L 475.96745 399.449183 
L 476.737322 400.085455 
L 477.507193 400.085455 
L 478.277065 399.449183 
L 479.046936 398.186673 
L 479.816807 396.317837 
L 480.586679 393.872146 
L 481.35655 390.888171 
L 482.896293 383.501351 
L 484.436036 374.621518 
L 487.515522 354.673376 
L 489.825136 340.265 
L 491.364879 332.06703 
L 492.904622 325.607854 
L 493.674493 323.162163 
L 494.444365 321.293327 
L 495.214236 320.030817 
L 495.984107 319.394545 
L 496.753979 319.394545 
L 497.52385 320.030817 
L 498.293722 321.293327 
L 499.063593 323.162163 
L 499.833465 325.607854 
L 500.603336 328.591829 
L 502.143079 335.978649 
L 503.682822 344.858482 
L 506.762307 364.806624 
L 509.071922 379.215 
L 510.611665 387.41297 
L 512.151407 393.872146 
L 512.921279 396.317837 
L 513.69115 398.186673 
L 514.461022 399.449183 
L 515.230893 400.085455 
L 516.000765 400.085455 
L 516.770636 399.449183 
L 517.540507 398.186673 
L 518.310379 396.317837 
L 519.08025 393.872146 
L 519.850122 390.888171 
L 521.389865 383.501351 
L 522.929607 374.621518 
L 526.009093 354.673376 
L 528.318707 340.265 
L 529.85845 332.06703 
L 531.398193 325.607854 
L 532.168065 323.162163 
L 532.937936 321.293327 
L 533.707807 320.030817 
L 534.477679 319.394545 
L 535.24755 319.394545 
L 536.017422 320.030817 
L 536.787293 321.293327 
L 537.557165 323.162163 
L 538.327036 325.607854 
L 539.096907 328.591829 
L 540.63665 335.978649 
L 542.176393 344.858482 
L 545.255879 364.806624 
L 547.565493 379.215 
L 549.105236 387.41297 
L 550.644979 393.872146 
L 551.41485 396.317837 
L 552.184722 398.186673 
L 552.954593 399.449183 
L 553.724465 400.085455 
L 554.494336 400.085455 
L 555.264208 399.449183 
L 556.034079 398.186673 
L 556.80395 396.317837 
L 557.573822 393.872146 
L 558.343693 390.888171 
L 559.883436 383.501351 
L 561.423179 374.621518 
L 564.502665 354.673376 
L 566.812279 340.265 
L 568.352022 332.06703 
L 569.891765 325.607854 
L 570.661636 323.162163 
L 571.431508 321.293327 
L 572.201379 320.030817 
L 572.97125 319.394545 
L 573.741122 319.394545 
L 574.510993 320.030817 
L 575.280865 321.293327 
L 576.050736 323.162163 
L 576.820608 325.607854 
L 577.590479 328.591829 
L 579.130222 335.978649 
L 580.669965 344.858482 
L 583.74945 364.806624 
L 586.059065 379.215 
L 587.598808 387.41297 
L 589.13855 393.872146 
L 589.908422 396.317837 
L 590.678293 398.186673 
L 591.448165 399.449183 
L 592.218036 400.085455 
L 592.987908 400.085455 
L 593.757779 399.449183 
L 594.52765 398.186673 
L 595.297522 396.317837 
L 596.067393 393.872146 
L 596.837265 390.888171 
L 598.377008 383.501351 
L 599.91675 374.621518 
L 602.996236 354.673376 
L 605.30585 340.265 
L 606.845593 332.06703 
L 608.385336 325.607854 
L 609.155208 323.162163 
L 609.925079 321.293327 
L 610.694951 320.030817 
L 611.464822 319.394545 
L 612.234693 319.394545 
L 613.004565 320.030817 
L 613.774436 321.293327 
L 614.544308 323.162163 
L 615.314179 325.607854 
L 616.084051 328.591829 
L 617.623793 335.978649 
L 619.163536 344.858482 
L 622.243022 364.806624 
L 624.552636 379.215 
L 626.092379 387.41297 
L 627.632122 393.872146 
L 628.401993 396.317837 
L 629.171865 398.186673 
L 629.941736 399.449183 
L 630.711608 400.085455 
L 631.481479 400.085455 
L 632.251351 399.449183 
L 633.021222 398.186673 
L 633.791093 396.317837 
L 634.560965 393.872146 
L 635.330836 390.888171 
L 636.870579 383.501351 
L 638.410322 374.621518 
L 641.489808 354.673376 
L 643.799422 340.265 
L 645.339165 332.06703 
L 646.878908 325.607854 
L 647.648779 323.162163 
L 648.418651 321.293327 
L 649.188522 320.030817 
L 649.958393 319.394545 
L 650.728265 319.394545 
L 651.498136 320.030817 
L 652.268008 321.293327 
L 653.037879 323.162163 
L 653.807751 325.607854 
L 654.577622 328.591829 
L 656.117365 335.978649 
L 657.657108 344.858482 
L 660.736593 364.806624 
L 663.046208 379.215 
L 664.585951 387.41297 
L 666.125693 393.872146 
L 666.895565 396.317837 
L 667.665436 398.186673 
L 668.435308 399.449183 
L 669.205179 400.085455 
L 669.975051 400.085455 
L 670.744922 399.449183 
L 671.514793 398.186673 
L 672.284665 396.317837 
L 673.054536 393.872146 
L 673.824408 390.888171 
L 675.364151 383.501351 
L 676.903894 374.621518 
L 678.443636 364.806624 
L 678.443636 364.806624 
" clip-path="url(#p77005aab97)" style="fill: none; stroke: #0000ff; stroke-width: 1.5; stroke-linecap: square"/>
   </g>
   <g id="patch_13">
    <path d="M 32.56 404.12 
L 32.56 315.36 
" style="fill: none; stroke: #000000; stroke-width: 0.8; stroke-linejoin: miter; stroke-linecap: square"/>
   </g>
   <g id="patch_14">
    <path d="M 709.2 404.12 
L 709.2 315.36 
" style="fill: none; stroke: #000000; stroke-width: 0.8; stroke-linejoin: miter; stroke-linecap: square"/>
   </g>
   <g id="patch_15">
    <path d="M 32.56 404.12 
L 709.2 404.12 
" style="fill: none; stroke: #000000; stroke-width: 0.8; stroke-linejoin: miter; stroke-linecap: square"/>
   </g>
   <g id="patch_16">
    <path d="M 32.56 315.36 
L 709.2 315.36 
" style="fill: none; stroke: #000000; stroke-width: 0.8; stroke-linejoin: miter; stroke-linecap: square"/>
   </g>
   <g id="text_39">
    <!-- Combined -->
    <g transform="translate(340.395312 309.36) scale(0.12 -0.12)">
     <defs>
      <path id="DejaVuSans-43" d="M 4122 4306 
L 4122 3641 
Q 3803 3938 3442 4084 
Q 3081 4231 2675 4231 
Q 1875 4231 1450 3742 
Q 1025 3253 1025 2328 
Q 1025 1406 1450 917 
Q 1875 428 2675 428 
Q 3081 428 3442 575 
Q 3803 722 4122 1019 
L 4122 359 
Q 3791 134 3420 21 
Q 3050 -91 2638 -91 
Q 1578 -91 968 557 
Q 359 1206 359 2328 
Q 359 3453 968 4101 
Q 1578 4750 2638 4750 
Q 3056 4750 3426 4639 
Q 3797 4528 4122 4306 
z
" transform="scale(0.015625)"/>
      <path id="DejaVuSans-6f" d="M 1959 3097 
Q 1497 3097 1228 2736 
Q 959 2375 959 1747 
Q 959 1119 1226 758 
Q 1494 397 1959 397 
Q 2419 397 2687 759 
Q 2956 1122 2956 1747 
Q 2956 2369 2687 2733 
Q 2419 3097 1959 3097 
z
M 1959 3584 
Q 2709 3584 3137 3096 
Q 3566 2609 3566 1747 
Q 3566 888 3137 398 
Q 2709 -91 1959 -91 
Q 1206 -91 779 398 
Q 353 888 353 1747 
Q 353 2609 779 3096 
Q 1206 3584 1959 3584 
z
" transform="scale(0.015625)"/>
      <path id="DejaVuSans-6d" d="M 3328 2828 
Q 3544 3216 3844 3400 
Q 4144 3584 4550 3584 
Q 5097 3584 5394 3201 
Q 5691 2819 5691 2113 
L 5691 0 
L 5113 0 
L 5113 2094 
Q 5113 2597 4934 2840 
Q 4756 3084 4391 3084 
Q 3944 3084 3684 2787 
Q 3425 2491 3425 1978 
L 3425 0 
L 2847 0 
L 2847 2094 
Q 2847 2600 2669 2842 
Q 2491 3084 2119 3084 
Q 1678 3084 1418 2786 
Q 1159 2488 1159 1978 
L 1159 0 
L 581 0 
L 581 3500 
L 1159 3500 
L 1159 2956 
Q 1356 3278 1631 3431 
Q 1906 3584 2284 3584 
Q 2666 3584 2933 3390 
Q 3200 3197 3328 2828 
z
" transform="scale(0.015625)"/>
      <path id="DejaVuSans-62" d="M 3116 1747 
Q 3116 2381 2855 2742 
Q 2594 3103 2138 3103 
Q 1681 3103 1420 2742 
Q 1159 2381 1159 1747 
Q 1159 1113 1420 752 
Q 1681 391 2138 391 
Q 2594 391 2855 752 
Q 3116 1113 3116 1747 
z
M 1159 2969 
Q 1341 3281 1617 3432 
Q 1894 3584 2278 3584 
Q 2916 3584 3314 3078 
Q 3713 2572 3713 1747 
Q 3713 922 3314 415 
Q 2916 -91 2278 -91 
Q 1894 -91 1617 61 
Q 1341 213 1159 525 
L 1159 0 
L 581 0 
L 581 4863 
L 1159 4863 
L 1159 2969 
z
" transform="scale(0.015625)"/>
      <path id="DejaVuSans-64" d="M 2906 2969 
L 2906 4863 
L 3481 4863 
L 3481 0 
L 2906 0 
L 2906 525 
Q 2725 213 2448 61 
Q 2172 -91 1784 -91 
Q 1150 -91 751 415 
Q 353 922 353 1747 
Q 353 2572 751 3078 
Q 1150 3584 1784 3584 
Q 2172 3584 2448 3432 
Q 2725 3281 2906 2969 
z
M 947 1747 
Q 947 1113 1208 752 
Q 1469 391 1925 391 
Q 2381 391 2643 752 
Q 2906 1113 2906 1747 
Q 2906 2381 2643 2742 
Q 2381 3103 1925 3103 
Q 1469 3103 1208 2742 
Q 947 2381 947 1747 
z
" transform="scale(0.015625)"/>
     </defs>
     <use xlink:href="#DejaVuSans-43"/>
     <use xlink:href="#DejaVuSans-6f" x="69.824219"/>
     <use xlink:href="#DejaVuSans-6d" x="131.005859"/>
     <use xlink:href="#DejaVuSans-62" x="228.417969"/>
     <use xlink:href="#DejaVuSans-69" x="291.894531"/>
     <use xlink:href="#DejaVuSans-6e" x="319.677734"/>
     <use xlink:href="#DejaVuSans-65" x="383.056641"/>
     <use xlink:href="#DejaVuSans-64" x="444.580078"/>
    </g>
   </g>
  </g>
  <g id="text_40">
   <!-- Concatenated Signals -->
   <g transform="translate(272.69375 20.7975) scale(0.16 -0.16)">
    <defs>
     <path id="DejaVuSans-63" d="M 3122 3366 
L 3122 2828 
Q 2878 2963 2633 3030 
Q 2388 3097 2138 3097 
Q 1578 3097 1268 2742 
Q 959 2388 959 1747 
Q 959 1106 1268 751 
Q 1578 397 2138 397 
Q 2388 397 2633 464 
Q 2878 531 3122 666 
L 3122 134 
Q 2881 22 2623 -34 
Q 2366 -91 2075 -91 
Q 1284 -91 818 406 
Q 353 903 353 1747 
Q 353 2603 823 3093 
Q 1294 3584 2113 3584 
Q 2378 3584 2631 3529 
Q 2884 3475 3122 3366 
z
" transform="scale(0.015625)"/>
     <path id="DejaVuSans-61" d="M 2194 1759 
Q 1497 1759 1228 1600 
Q 959 1441 959 1056 
Q 959 750 1161 570 
Q 1363 391 1709 391 
Q 2188 391 2477 730 
Q 2766 1069 2766 1631 
L 2766 1759 
L 2194 1759 
z
M 3341 1997 
L 3341 0 
L 2766 0 
L 2766 531 
Q 2569 213 2275 61 
Q 1981 -91 1556 -91 
Q 1019 -91 701 211 
Q 384 513 384 1019 
Q 384 1609 779 1909 
Q 1175 2209 1959 2209 
L 2766 2209 
L 2766 2266 
Q 2766 2663 2505 2880 
Q 2244 3097 1772 3097 
Q 1472 3097 1187 3025 
Q 903 2953 641 2809 
L 641 3341 
Q 956 3463 1253 3523 
Q 1550 3584 1831 3584 
Q 2591 3584 2966 3190 
Q 3341 2797 3341 1997 
z
" transform="scale(0.015625)"/>
     <path id="DejaVuSans-74" d="M 1172 4494 
L 1172 3500 
L 2356 3500 
L 2356 3053 
L 1172 3053 
L 1172 1153 
Q 1172 725 1289 603 
Q 1406 481 1766 481 
L 2356 481 
L 2356 0 
L 1766 0 
Q 1100 0 847 248 
Q 594 497 594 1153 
L 594 3053 
L 172 3053 
L 172 3500 
L 594 3500 
L 594 4494 
L 1172 4494 
z
" transform="scale(0.015625)"/>
     <path id="DejaVuSans-67" d="M 2906 1791 
Q 2906 2416 2648 2759 
Q 2391 3103 1925 3103 
Q 1463 3103 1205 2759 
Q 947 2416 947 1791 
Q 947 1169 1205 825 
Q 1463 481 1925 481 
Q 2391 481 2648 825 
Q 2906 1169 2906 1791 
z
M 3481 434 
Q 3481 -459 3084 -895 
Q 2688 -1331 1869 -1331 
Q 1566 -1331 1297 -1286 
Q 1028 -1241 775 -1147 
L 775 -588 
Q 1028 -725 1275 -790 
Q 1522 -856 1778 -856 
Q 2344 -856 2625 -561 
Q 2906 -266 2906 331 
L 2906 616 
Q 2728 306 2450 153 
Q 2172 0 1784 0 
Q 1141 0 747 490 
Q 353 981 353 1791 
Q 353 2603 747 3093 
Q 1141 3584 1784 3584 
Q 2172 3584 2450 3431 
Q 2728 3278 2906 2969 
L 2906 3500 
L 3481 3500 
L 3481 434 
z
" transform="scale(0.015625)"/>
     <path id="DejaVuSans-6c" d="M 603 4863 
L 1178 4863 
L 1178 0 
L 603 0 
L 603 4863 
z
" transform="scale(0.015625)"/>
     <path id="DejaVuSans-73" d="M 2834 3397 
L 2834 2853 
Q 2591 2978 2328 3040 
Q 2066 3103 1784 3103 
Q 1356 3103 1142 2972 
Q 928 2841 928 2578 
Q 928 2378 1081 2264 
Q 1234 2150 1697 2047 
L 1894 2003 
Q 2506 1872 2764 1633 
Q 3022 1394 3022 966 
Q 3022 478 2636 193 
Q 2250 -91 1575 -91 
Q 1294 -91 989 -36 
Q 684 19 347 128 
L 347 722 
Q 666 556 975 473 
Q 1284 391 1588 391 
Q 1994 391 2212 530 
Q 2431 669 2431 922 
Q 2431 1156 2273 1281 
Q 2116 1406 1581 1522 
L 1381 1569 
Q 847 1681 609 1914 
Q 372 2147 372 2553 
Q 372 3047 722 3315 
Q 1072 3584 1716 3584 
Q 2034 3584 2315 3537 
Q 2597 3491 2834 3397 
z
" transform="scale(0.015625)"/>
    </defs>
    <use xlink:href="#DejaVuSans-43"/>
    <use xlink:href="#DejaVuSans-6f" x="69.824219"/>
    <use xlink:href="#DejaVuSans-6e" x="131.005859"/>
    <use xlink:href="#DejaVuSans-63" x="194.384766"/>
    <use xlink:href="#DejaVuSans-61" x="249.365234"/>
    <use xlink:href="#DejaVuSans-74" x="310.644531"/>
    <use xlink:href="#DejaVuSans-65" x="349.853516"/>
    <use xlink:href="#DejaVuSans-6e" x="411.376953"/>
    <use xlink:href="#DejaVuSans-61" x="474.755859"/>
    <use xlink:href="#DejaVuSans-74" x="536.035156"/>
    <use xlink:href="#DejaVuSans-65" x="575.244141"/>
    <use xlink:href="#DejaVuSans-64" x="636.767578"/>
    <use xlink:href="#DejaVuSans-20" x="700.244141"/>
    <use xlink:href="#DejaVuSans-53" x="732.03125"/>
    <use xlink:href="#DejaVuSans-69" x="795.507812"/>
    <use xlink:href="#DejaVuSans-67" x="823.291016"/>
    <use xlink:href="#DejaVuSans-6e" x="886.767578"/>
    <use xlink:href="#DejaVuSans-61" x="950.146484"/>
    <use xlink:href="#DejaVuSans-6c" x="1011.425781"/>
    <use xlink:href="#DejaVuSans-73" x="1039.208984"/>
   </g>
  </g>
 </g>
 <defs>
  <clipPath id="p94c263bbf0">
   <rect x="32.56" y="52.8" width="676.64" height="88.76"/>
  </clipPath>
  <clipPath id="p21f69b3bfc">
   <rect x="32.56" y="184.08" width="676.64" height="88.76"/>
  </clipPath>
  <clipPath id="p77005aab97">
   <rect x="32.56" y="315.36" width="676.64" height="88.76"/>
  </clipPath>
 </defs>
</svg>
