<?xml version="1.0" encoding="utf-8" standalone="no"?>
<!DOCTYPE svg PUBLIC "-//W3C//DTD SVG 1.1//EN"
  "http://www.w3.org/Graphics/SVG/1.1/DTD/svg11.dtd">
<svg xmlns:xlink="http://www.w3.org/1999/xlink" width="648pt" height="504pt" viewBox="0 0 648 504" xmlns="http://www.w3.org/2000/svg" version="1.1">
 <metadata>
  <rdf:RDF xmlns:dc="http://purl.org/dc/elements/1.1/" xmlns:cc="http://creativecommons.org/ns#" xmlns:rdf="http://www.w3.org/1999/02/22-rdf-syntax-ns#">
   <cc:Work>
    <dc:type rdf:resource="http://purl.org/dc/dcmitype/StillImage"/>
    <dc:date>2025-11-02T12:47:45.927596</dc:date>
    <dc:format>image/svg+xml</dc:format>
    <dc:creator>
     <cc:Agent>
      <dc:title>Matplotlib v3.6.3, https://matplotlib.org/</dc:title>
     </cc:Agent>
    </dc:creator>
   </cc:Work>
  </rdf:RDF>
 </metadata>
 <defs>
  <style type="text/css">*{stroke-linejoin: round; stroke-linecap: butt}</style>
 </defs>
 <g id="figure_1">
  <g id="patch_1">
   <path d="M 0 504 
L 648 504 
L 648 0 
L 0 0 
z
" style="fill: #ffffff"/>
  </g>
  <g id="axes_1">
   <g id="patch_2">
    <path d="M 48.49 106.22 
L 637.2 106.22 
L 637.2 25.44 
L 48.49 25.44 
z
" style="fill: #ffffff"/>
   </g>
   <g id="matplotlib.axis_1">
    <g id="xtick_1">
     <g id="line2d_1">
      <defs>
       <path id="m6c3e89ed52" d="M 0 0 
L 0 3.5 
" style="stroke: #000000; stroke-width: 0.8"/>
      </defs>
      <g>
       <use xlink:href="#m6c3e89ed52" x="75.249545" y="106.22" style="stroke: #000000; stroke-width: 0.8"/>
      </g>
     </g>
     <g id="text_1">
      <!-- 0.000 -->
      <g transform="translate(60.935483 120.818437) scale(0.1 -0.1)">
       <defs>
        <path id="DejaVuSans-30" d="M 2034 4250 
Q 1547 4250 1301 3770 
Q 1056 3291 1056 2328 
Q 1056 1369 1301 889 
Q 1547 409 2034 409 
Q 2525 409 2770 889 
Q 3016 1369 3016 2328 
Q 3016 3291 2770 3770 
Q 2525 4250 2034 4250 
z
M 2034 4750 
Q 2819 4750 3233 4129 
Q 3647 3509 3647 2328 
Q 3647 1150 3233 529 
Q 2819 -91 2034 -91 
Q 1250 -91 836 529 
Q 422 1150 422 2328 
Q 422 3509 836 4129 
Q 1250 4750 2034 4750 
z
" transform="scale(0.015625)"/>
        <path id="DejaVuSans-2e" d="M 684 794 
L 1344 794 
L 1344 0 
L 684 0 
L 684 794 
z
" transform="scale(0.015625)"/>
       </defs>
       <use xlink:href="#DejaVuSans-30"/>
       <use xlink:href="#DejaVuSans-2e" x="63.623047"/>
       <use xlink:href="#DejaVuSans-30" x="95.410156"/>
       <use xlink:href="#DejaVuSans-30" x="159.033203"/>
       <use xlink:href="#DejaVuSans-30" x="222.65625"/>
      </g>
     </g>
    </g>
    <g id="xtick_2">
     <g id="line2d_2">
      <g>
       <use xlink:href="#m6c3e89ed52" x="146.608333" y="106.22" style="stroke: #000000; stroke-width: 0.8"/>
      </g>
     </g>
     <g id="text_2">
      <!-- 0.002 -->
      <g transform="translate(132.294271 120.818437) scale(0.1 -0.1)">
       <defs>
        <path id="DejaVuSans-32" d="M 1228 531 
L 3431 531 
L 3431 0 
L 469 0 
L 469 531 
Q 828 903 1448 1529 
Q 2069 2156 2228 2338 
Q 2531 2678 2651 2914 
Q 2772 3150 2772 3378 
Q 2772 3750 2511 3984 
Q 2250 4219 1831 4219 
Q 1534 4219 1204 4116 
Q 875 4013 500 3803 
L 500 4441 
Q 881 4594 1212 4672 
Q 1544 4750 1819 4750 
Q 2544 4750 2975 4387 
Q 3406 4025 3406 3419 
Q 3406 3131 3298 2873 
Q 3191 2616 2906 2266 
Q 2828 2175 2409 1742 
Q 1991 1309 1228 531 
z
" transform="scale(0.015625)"/>
       </defs>
       <use xlink:href="#DejaVuSans-30"/>
       <use xlink:href="#DejaVuSans-2e" x="63.623047"/>
       <use xlink:href="#DejaVuSans-30" x="95.410156"/>
       <use xlink:href="#DejaVuSans-30" x="159.033203"/>
       <use xlink:href="#DejaVuSans-32" x="222.65625"/>
      </g>
     </g>
    </g>
    <g id="xtick_3">
     <g id="line2d_3">
      <g>
       <use xlink:href="#m6c3e89ed52" x="217.967121" y="106.22" style="stroke: #000000; stroke-width: 0.8"/>
      </g>
     </g>
     <g id="text_3">
      <!-- 0.004 -->
      <g transform="translate(203.653059 120.818437) scale(0.1 -0.1)">
       <defs>
        <path id="DejaVuSans-34" d="M 2419 4116 
L 825 1625 
L 2419 1625 
L 2419 4116 
z
M 2253 4666 
L 3047 4666 
L 3047 1625 
L 3713 1625 
L 3713 1100 
L 3047 1100 
L 3047 0 
L 2419 0 
L 2419 1100 
L 313 1100 
L 313 1709 
L 2253 4666 
z
" transform="scale(0.015625)"/>
       </defs>
       <use xlink:href="#DejaVuSans-30"/>
       <use xlink:href="#DejaVuSans-2e" x="63.623047"/>
       <use xlink:href="#DejaVuSans-30" x="95.410156"/>
       <use xlink:href="#DejaVuSans-30" x="159.033203"/>
       <use xlink:href="#DejaVuSans-34" x="222.65625"/>
      </g>
     </g>
    </g>
    <g id="xtick_4">
     <g id="line2d_4">
      <g>
       <use xlink:href="#m6c3e89ed52" x="289.325909" y="106.22" style="stroke: #000000; stroke-width: 0.8"/>
      </g>
     </g>
     <g id="text_4">
      <!-- 0.006 -->
      <g transform="translate(275.011847 120.818437) scale(0.1 -0.1)">
       <defs>
        <path id="DejaVuSans-36" d="M 2113 2584 
Q 1688 2584 1439 2293 
Q 1191 2003 1191 1497 
Q 1191 994 1439 701 
Q 1688 409 2113 409 
Q 2538 409 2786 701 
Q 3034 994 3034 1497 
Q 3034 2003 2786 2293 
Q 2538 2584 2113 2584 
z
M 3366 4563 
L 3366 3988 
Q 3128 4100 2886 4159 
Q 2644 4219 2406 4219 
Q 1781 4219 1451 3797 
Q 1122 3375 1075 2522 
Q 1259 2794 1537 2939 
Q 1816 3084 2150 3084 
Q 2853 3084 3261 2657 
Q 3669 2231 3669 1497 
Q 3669 778 3244 343 
Q 2819 -91 2113 -91 
Q 1303 -91 875 529 
Q 447 1150 447 2328 
Q 447 3434 972 4092 
Q 1497 4750 2381 4750 
Q 2619 4750 2861 4703 
Q 3103 4656 3366 4563 
z
" transform="scale(0.015625)"/>
       </defs>
       <use xlink:href="#DejaVuSans-30"/>
       <use xlink:href="#DejaVuSans-2e" x="63.623047"/>
       <use xlink:href="#DejaVuSans-30" x="95.410156"/>
       <use xlink:href="#DejaVuSans-30" x="159.033203"/>
       <use xlink:href="#DejaVuSans-36" x="222.65625"/>
      </g>
     </g>
    </g>
    <g id="xtick_5">
     <g id="line2d_5">
      <g>
       <use xlink:href="#m6c3e89ed52" x="360.684697" y="106.22" style="stroke: #000000; stroke-width: 0.8"/>
      </g>
     </g>
     <g id="text_5">
      <!-- 0.008 -->
      <g transform="translate(346.370634 120.818437) scale(0.1 -0.1)">
       <defs>
        <path id="DejaVuSans-38" d="M 2034 2216 
Q 1584 2216 1326 1975 
Q 1069 1734 1069 1313 
Q 1069 891 1326 650 
Q 1584 409 2034 409 
Q 2484 409 2743 651 
Q 3003 894 3003 1313 
Q 3003 1734 2745 1975 
Q 2488 2216 2034 2216 
z
M 1403 2484 
Q 997 2584 770 2862 
Q 544 3141 544 3541 
Q 544 4100 942 4425 
Q 1341 4750 2034 4750 
Q 2731 4750 3128 4425 
Q 3525 4100 3525 3541 
Q 3525 3141 3298 2862 
Q 3072 2584 2669 2484 
Q 3125 2378 3379 2068 
Q 3634 1759 3634 1313 
Q 3634 634 3220 271 
Q 2806 -91 2034 -91 
Q 1263 -91 848 271 
Q 434 634 434 1313 
Q 434 1759 690 2068 
Q 947 2378 1403 2484 
z
M 1172 3481 
Q 1172 3119 1398 2916 
Q 1625 2713 2034 2713 
Q 2441 2713 2670 2916 
Q 2900 3119 2900 3481 
Q 2900 3844 2670 4047 
Q 2441 4250 2034 4250 
Q 1625 4250 1398 4047 
Q 1172 3844 1172 3481 
z
" transform="scale(0.015625)"/>
       </defs>
       <use xlink:href="#DejaVuSans-30"/>
       <use xlink:href="#DejaVuSans-2e" x="63.623047"/>
       <use xlink:href="#DejaVuSans-30" x="95.410156"/>
       <use xlink:href="#DejaVuSans-30" x="159.033203"/>
       <use xlink:href="#DejaVuSans-38" x="222.65625"/>
      </g>
     </g>
    </g>
    <g id="xtick_6">
     <g id="line2d_6">
      <g>
       <use xlink:href="#m6c3e89ed52" x="432.043485" y="106.22" style="stroke: #000000; stroke-width: 0.8"/>
      </g>
     </g>
     <g id="text_6">
      <!-- 0.010 -->
      <g transform="translate(417.729422 120.818437) scale(0.1 -0.1)">
       <defs>
        <path id="DejaVuSans-31" d="M 794 531 
L 1825 531 
L 1825 4091 
L 703 3866 
L 703 4441 
L 1819 4666 
L 2450 4666 
L 2450 531 
L 3481 531 
L 3481 0 
L 794 0 
L 794 531 
z
" transform="scale(0.015625)"/>
       </defs>
       <use xlink:href="#DejaVuSans-30"/>
       <use xlink:href="#DejaVuSans-2e" x="63.623047"/>
       <use xlink:href="#DejaVuSans-30" x="95.410156"/>
       <use xlink:href="#DejaVuSans-31" x="159.033203"/>
       <use xlink:href="#DejaVuSans-30" x="222.65625"/>
      </g>
     </g>
    </g>
    <g id="xtick_7">
     <g id="line2d_7">
      <g>
       <use xlink:href="#m6c3e89ed52" x="503.402273" y="106.22" style="stroke: #000000; stroke-width: 0.8"/>
      </g>
     </g>
     <g id="text_7">
      <!-- 0.012 -->
      <g transform="translate(489.08821 120.818437) scale(0.1 -0.1)">
       <use xlink:href="#DejaVuSans-30"/>
       <use xlink:href="#DejaVuSans-2e" x="63.623047"/>
       <use xlink:href="#DejaVuSans-30" x="95.410156"/>
       <use xlink:href="#DejaVuSans-31" x="159.033203"/>
       <use xlink:href="#DejaVuSans-32" x="222.65625"/>
      </g>
     </g>
    </g>
    <g id="xtick_8">
     <g id="line2d_8">
      <g>
       <use xlink:href="#m6c3e89ed52" x="574.761061" y="106.22" style="stroke: #000000; stroke-width: 0.8"/>
      </g>
     </g>
     <g id="text_8">
      <!-- 0.014 -->
      <g transform="translate(560.446998 120.818437) scale(0.1 -0.1)">
       <use xlink:href="#DejaVuSans-30"/>
       <use xlink:href="#DejaVuSans-2e" x="63.623047"/>
       <use xlink:href="#DejaVuSans-30" x="95.410156"/>
       <use xlink:href="#DejaVuSans-31" x="159.033203"/>
       <use xlink:href="#DejaVuSans-34" x="222.65625"/>
      </g>
     </g>
    </g>
   </g>
   <g id="matplotlib.axis_2">
    <g id="ytick_1">
     <g id="line2d_9">
      <defs>
       <path id="mbf2f574d63" d="M 0 0 
L -3.5 0 
" style="stroke: #000000; stroke-width: 0.8"/>
      </defs>
      <g>
       <use xlink:href="#mbf2f574d63" x="48.49" y="102.548182" style="stroke: #000000; stroke-width: 0.8"/>
      </g>
     </g>
     <g id="text_9">
      <!-- −1 -->
      <g transform="translate(26.747813 106.347401) scale(0.1 -0.1)">
       <defs>
        <path id="DejaVuSans-2212" d="M 678 2272 
L 4684 2272 
L 4684 1741 
L 678 1741 
L 678 2272 
z
" transform="scale(0.015625)"/>
       </defs>
       <use xlink:href="#DejaVuSans-2212"/>
       <use xlink:href="#DejaVuSans-31" x="83.789062"/>
      </g>
     </g>
    </g>
    <g id="ytick_2">
     <g id="line2d_10">
      <g>
       <use xlink:href="#mbf2f574d63" x="48.49" y="65.828545" style="stroke: #000000; stroke-width: 0.8"/>
      </g>
     </g>
     <g id="text_10">
      <!-- 0 -->
      <g transform="translate(35.1275 69.627763) scale(0.1 -0.1)">
       <use xlink:href="#DejaVuSans-30"/>
      </g>
     </g>
    </g>
    <g id="ytick_3">
     <g id="line2d_11">
      <g>
       <use xlink:href="#mbf2f574d63" x="48.49" y="29.108907" style="stroke: #000000; stroke-width: 0.8"/>
      </g>
     </g>
     <g id="text_11">
      <!-- 1 -->
      <g transform="translate(35.1275 32.908126) scale(0.1 -0.1)">
       <use xlink:href="#DejaVuSans-31"/>
      </g>
     </g>
    </g>
   </g>
   <g id="line2d_12">
    <path d="M 75.249545 65.828545 
L 81.684707 55.564114 
L 85.974814 49.127288 
L 89.192395 44.677694 
L 92.409975 40.651807 
L 94.555029 38.2435 
L 96.700083 36.081022 
L 98.845137 34.183644 
L 100.99019 32.568274 
L 103.135244 31.249308 
L 105.280298 30.2385 
L 107.425352 29.544859 
L 109.570405 29.174565 
L 111.715459 29.130919 
L 113.860513 29.414309 
L 116.005567 30.022211 
L 118.15062 30.949206 
L 120.295674 32.187034 
L 122.440728 33.724664 
L 124.585782 35.548392 
L 126.730835 37.641966 
L 128.875889 39.98673 
L 132.09347 43.928579 
L 135.31105 48.309141 
L 138.528631 53.040662 
L 142.818738 59.730692 
L 155.689061 80.120466 
L 158.906641 84.752664 
L 162.124222 89.005763 
L 165.341803 92.794562 
L 167.486856 95.024573 
L 169.63191 96.994398 
L 171.776964 98.686484 
L 173.922018 100.085751 
L 176.067071 101.17973 
L 178.212125 101.958672 
L 180.357179 102.415634 
L 182.502233 102.546544 
L 184.647286 102.350237 
L 186.79234 101.828461 
L 188.937394 100.985865 
L 191.082448 99.82996 
L 193.227501 98.371046 
L 195.372555 96.622125 
L 197.517609 94.598782 
L 199.662663 92.319048 
L 202.880243 88.463738 
L 206.097824 84.154985 
L 209.315404 79.479107 
L 213.605512 72.836242 
L 227.548361 50.794831 
L 230.765942 46.21568 
L 233.983522 42.029426 
L 237.201103 38.31993 
L 239.346157 36.148934 
L 241.491211 34.242433 
L 243.636264 32.617417 
L 245.781318 31.288366 
L 247.926372 30.267126 
L 250.071426 29.562797 
L 252.216479 29.181656 
L 254.361533 29.127099 
L 256.506587 29.399613 
L 258.651641 29.996769 
L 260.796694 30.913245 
L 262.941748 32.140874 
L 265.086802 33.668717 
L 267.231856 35.483157 
L 269.376909 37.568024 
L 271.521963 39.904739 
L 274.739544 43.835906 
L 277.957124 48.207643 
L 281.174705 52.932373 
L 285.464812 59.616738 
L 298.335135 80.013921 
L 301.552715 84.653514 
L 304.770296 88.915995 
L 307.987877 92.715973 
L 310.13293 94.954327 
L 312.277984 96.933121 
L 314.423038 98.634722 
L 316.568092 100.043966 
L 318.713145 101.148293 
L 320.858199 101.937864 
L 323.003253 102.40564 
L 325.148307 102.547454 
L 327.29336 102.362042 
L 329.438414 101.851056 
L 331.583468 101.019049 
L 333.728522 99.873437 
L 335.873575 98.424429 
L 338.018629 96.684937 
L 340.163683 94.670464 
L 342.308737 92.398961 
L 345.526317 88.554641 
L 348.743898 84.255058 
L 351.961478 79.586344 
L 356.251586 72.949672 
L 370.194435 50.900363 
L 373.412016 46.313497 
L 376.629596 42.117568 
L 379.847177 38.396632 
L 381.992231 36.217141 
L 384.137285 34.301536 
L 386.282338 32.666889 
L 388.427392 31.327767 
L 390.572446 30.296105 
L 392.7175 29.581095 
L 394.862553 29.18911 
L 397.007607 29.123643 
L 399.152661 29.385277 
L 401.297715 29.971682 
L 403.442768 30.87763 
L 405.587822 32.095049 
L 407.732876 33.613089 
L 409.877929 35.418222 
L 412.022983 37.494361 
L 414.168037 39.823005 
L 417.385618 43.743452 
L 420.603198 48.10632 
L 423.820779 52.824211 
L 428.110886 59.502845 
L 440.981209 79.907235 
L 444.198789 84.554177 
L 447.41637 88.825997 
L 450.633951 92.637118 
L 452.779004 94.883792 
L 454.924058 96.871536 
L 457.069112 98.582635 
L 459.214166 100.001841 
L 461.359219 101.116507 
L 463.504273 101.916698 
L 465.649327 102.395284 
L 467.794381 102.548 
L 469.939434 102.373485 
L 472.084488 101.873294 
L 474.229542 101.051884 
L 476.374596 99.916576 
L 478.519649 98.477488 
L 480.664703 96.747443 
L 482.809757 94.74186 
L 484.954811 92.478611 
L 488.172391 88.64532 
L 491.389972 84.354949 
L 494.607552 79.693446 
L 498.89766 73.063032 
L 512.840509 51.006042 
L 516.05809 46.411507 
L 519.27567 42.205945 
L 522.493251 38.473606 
L 524.638305 36.28564 
L 526.783359 34.360951 
L 528.928412 32.71669 
L 531.073466 31.36751 
L 533.21852 30.325435 
L 535.363574 29.599752 
L 537.508627 29.196927 
L 539.653681 29.12055 
L 541.798735 29.371303 
L 543.943788 29.94695 
L 546.088842 30.842361 
L 548.233896 32.049557 
L 550.37895 33.55778 
L 552.524003 35.353589 
L 554.669057 37.42098 
L 556.814111 39.741529 
L 560.031692 43.651216 
L 563.249272 48.005172 
L 566.466853 52.716178 
L 570.75696 59.389016 
L 583.627283 79.800409 
L 586.844863 84.454655 
L 590.062444 88.735772 
L 593.280025 92.557997 
L 595.425078 94.81297 
L 597.570132 96.809643 
L 599.715186 98.530223 
L 601.86024 99.959378 
L 604.005293 101.08437 
L 606.150347 101.895174 
L 608.295401 102.384565 
L 610.440455 102.548182 
L 610.440455 102.548182 
" clip-path="url(#pa509a52682)" style="fill: none; stroke: #ff0000; stroke-width: 1.5; stroke-linecap: square"/>
   </g>
   <g id="patch_3">
    <path d="M 48.49 106.22 
L 48.49 25.44 
" style="fill: none; stroke: #000000; stroke-width: 0.8; stroke-linejoin: miter; stroke-linecap: square"/>
   </g>
   <g id="patch_4">
    <path d="M 637.2 106.22 
L 637.2 25.44 
" style="fill: none; stroke: #000000; stroke-width: 0.8; stroke-linejoin: miter; stroke-linecap: square"/>
   </g>
   <g id="patch_5">
    <path d="M 48.49 106.22 
L 637.2 106.22 
" style="fill: none; stroke: #000000; stroke-width: 0.8; stroke-linejoin: miter; stroke-linecap: square"/>
   </g>
   <g id="patch_6">
    <path d="M 48.49 25.44 
L 637.2 25.44 
" style="fill: none; stroke: #000000; stroke-width: 0.8; stroke-linejoin: miter; stroke-linecap: square"/>
   </g>
   <g id="text_12">
    <!-- Sine (fs=500)/2 Hz -->
    <g transform="translate(286.160937 19.44) scale(0.12 -0.12)">
     <defs>
      <path id="DejaVuSans-53" d="M 3425 4513 
L 3425 3897 
Q 3066 4069 2747 4153 
Q 2428 4238 2131 4238 
Q 1616 4238 1336 4038 
Q 1056 3838 1056 3469 
Q 1056 3159 1242 3001 
Q 1428 2844 1947 2747 
L 2328 2669 
Q 3034 2534 3370 2195 
Q 3706 1856 3706 1288 
Q 3706 609 3251 259 
Q 2797 -91 1919 -91 
Q 1588 -91 1214 -16 
Q 841 59 441 206 
L 441 856 
Q 825 641 1194 531 
Q 1563 422 1919 422 
Q 2459 422 2753 634 
Q 3047 847 3047 1241 
Q 3047 1584 2836 1778 
Q 2625 1972 2144 2069 
L 1759 2144 
Q 1053 2284 737 2584 
Q 422 2884 422 3419 
Q 422 4038 858 4394 
Q 1294 4750 2059 4750 
Q 2388 4750 2728 4690 
Q 3069 4631 3425 4513 
z
" transform="scale(0.015625)"/>
      <path id="DejaVuSans-69" d="M 603 3500 
L 1178 3500 
L 1178 0 
L 603 0 
L 603 3500 
z
M 603 4863 
L 1178 4863 
L 1178 4134 
L 603 4134 
L 603 4863 
z
" transform="scale(0.015625)"/>
      <path id="DejaVuSans-6e" d="M 3513 2113 
L 3513 0 
L 2938 0 
L 2938 2094 
Q 2938 2591 2744 2837 
Q 2550 3084 2163 3084 
Q 1697 3084 1428 2787 
Q 1159 2491 1159 1978 
L 1159 0 
L 581 0 
L 581 3500 
L 1159 3500 
L 1159 2956 
Q 1366 3272 1645 3428 
Q 1925 3584 2291 3584 
Q 2894 3584 3203 3211 
Q 3513 2838 3513 2113 
z
" transform="scale(0.015625)"/>
      <path id="DejaVuSans-65" d="M 3597 1894 
L 3597 1613 
L 953 1613 
Q 991 1019 1311 708 
Q 1631 397 2203 397 
Q 2534 397 2845 478 
Q 3156 559 3463 722 
L 3463 178 
Q 3153 47 2828 -22 
Q 2503 -91 2169 -91 
Q 1331 -91 842 396 
Q 353 884 353 1716 
Q 353 2575 817 3079 
Q 1281 3584 2069 3584 
Q 2775 3584 3186 3129 
Q 3597 2675 3597 1894 
z
M 3022 2063 
Q 3016 2534 2758 2815 
Q 2500 3097 2075 3097 
Q 1594 3097 1305 2825 
Q 1016 2553 972 2059 
L 3022 2063 
z
" transform="scale(0.015625)"/>
      <path id="DejaVuSans-20" transform="scale(0.015625)"/>
      <path id="DejaVuSans-28" d="M 1984 4856 
Q 1566 4138 1362 3434 
Q 1159 2731 1159 2009 
Q 1159 1288 1364 580 
Q 1569 -128 1984 -844 
L 1484 -844 
Q 1016 -109 783 600 
Q 550 1309 550 2009 
Q 550 2706 781 3412 
Q 1013 4119 1484 4856 
L 1984 4856 
z
" transform="scale(0.015625)"/>
      <path id="DejaVuSans-66" d="M 2375 4863 
L 2375 4384 
L 1825 4384 
Q 1516 4384 1395 4259 
Q 1275 4134 1275 3809 
L 1275 3500 
L 2222 3500 
L 2222 3053 
L 1275 3053 
L 1275 0 
L 697 0 
L 697 3053 
L 147 3053 
L 147 3500 
L 697 3500 
L 697 3744 
Q 697 4328 969 4595 
Q 1241 4863 1831 4863 
L 2375 4863 
z
" transform="scale(0.015625)"/>
      <path id="DejaVuSans-73" d="M 2834 3397 
L 2834 2853 
Q 2591 2978 2328 3040 
Q 2066 3103 1784 3103 
Q 1356 3103 1142 2972 
Q 928 2841 928 2578 
Q 928 2378 1081 2264 
Q 1234 2150 1697 2047 
L 1894 2003 
Q 2506 1872 2764 1633 
Q 3022 1394 3022 966 
Q 3022 478 2636 193 
Q 2250 -91 1575 -91 
Q 1294 -91 989 -36 
Q 684 19 347 128 
L 347 722 
Q 666 556 975 473 
Q 1284 391 1588 391 
Q 1994 391 2212 530 
Q 2431 669 2431 922 
Q 2431 1156 2273 1281 
Q 2116 1406 1581 1522 
L 1381 1569 
Q 847 1681 609 1914 
Q 372 2147 372 2553 
Q 372 3047 722 3315 
Q 1072 3584 1716 3584 
Q 2034 3584 2315 3537 
Q 2597 3491 2834 3397 
z
" transform="scale(0.015625)"/>
      <path id="DejaVuSans-3d" d="M 678 2906 
L 4684 2906 
L 4684 2381 
L 678 2381 
L 678 2906 
z
M 678 1631 
L 4684 1631 
L 4684 1100 
L 678 1100 
L 678 1631 
z
" transform="scale(0.015625)"/>
      <path id="DejaVuSans-35" d="M 691 4666 
L 3169 4666 
L 3169 4134 
L 1269 4134 
L 1269 2991 
Q 1406 3038 1543 3061 
Q 1681 3084 1819 3084 
Q 2600 3084 3056 2656 
Q 3513 2228 3513 1497 
Q 3513 744 3044 326 
Q 2575 -91 1722 -91 
Q 1428 -91 1123 -41 
Q 819 9 494 109 
L 494 744 
Q 775 591 1075 516 
Q 1375 441 1709 441 
Q 2250 441 2565 725 
Q 2881 1009 2881 1497 
Q 2881 1984 2565 2268 
Q 2250 2553 1709 2553 
Q 1456 2553 1204 2497 
Q 953 2441 691 2322 
L 691 4666 
z
" transform="scale(0.015625)"/>
      <path id="DejaVuSans-29" d="M 513 4856 
L 1013 4856 
Q 1481 4119 1714 3412 
Q 1947 2706 1947 2009 
Q 1947 1309 1714 600 
Q 1481 -109 1013 -844 
L 513 -844 
Q 928 -128 1133 580 
Q 1338 1288 1338 2009 
Q 1338 2731 1133 3434 
Q 928 4138 513 4856 
z
" transform="scale(0.015625)"/>
      <path id="DejaVuSans-2f" d="M 1625 4666 
L 2156 4666 
L 531 -594 
L 0 -594 
L 1625 4666 
z
" transform="scale(0.015625)"/>
      <path id="DejaVuSans-48" d="M 628 4666 
L 1259 4666 
L 1259 2753 
L 3553 2753 
L 3553 4666 
L 4184 4666 
L 4184 0 
L 3553 0 
L 3553 2222 
L 1259 2222 
L 1259 0 
L 628 0 
L 628 4666 
z
" transform="scale(0.015625)"/>
      <path id="DejaVuSans-7a" d="M 353 3500 
L 3084 3500 
L 3084 2975 
L 922 459 
L 3084 459 
L 3084 0 
L 275 0 
L 275 525 
L 2438 3041 
L 353 3041 
L 353 3500 
z
" transform="scale(0.015625)"/>
     </defs>
     <use xlink:href="#DejaVuSans-53"/>
     <use xlink:href="#DejaVuSans-69" x="63.476562"/>
     <use xlink:href="#DejaVuSans-6e" x="91.259766"/>
     <use xlink:href="#DejaVuSans-65" x="154.638672"/>
     <use xlink:href="#DejaVuSans-20" x="216.162109"/>
     <use xlink:href="#DejaVuSans-28" x="247.949219"/>
     <use xlink:href="#DejaVuSans-66" x="286.962891"/>
     <use xlink:href="#DejaVuSans-73" x="322.167969"/>
     <use xlink:href="#DejaVuSans-3d" x="374.267578"/>
     <use xlink:href="#DejaVuSans-35" x="458.056641"/>
     <use xlink:href="#DejaVuSans-30" x="521.679688"/>
     <use xlink:href="#DejaVuSans-30" x="585.302734"/>
     <use xlink:href="#DejaVuSans-29" x="648.925781"/>
     <use xlink:href="#DejaVuSans-2f" x="687.939453"/>
     <use xlink:href="#DejaVuSans-32" x="721.630859"/>
     <use xlink:href="#DejaVuSans-20" x="785.253906"/>
     <use xlink:href="#DejaVuSans-48" x="817.041016"/>
     <use xlink:href="#DejaVuSans-7a" x="892.236328"/>
    </g>
   </g>
  </g>
  <g id="axes_2">
   <g id="patch_7">
    <path d="M 48.49 229.52 
L 637.2 229.52 
L 637.2 148.74 
L 48.49 148.74 
z
" style="fill: #ffffff"/>
   </g>
   <g id="matplotlib.axis_3">
    <g id="xtick_9">
     <g id="line2d_13">
      <g>
       <use xlink:href="#m6c3e89ed52" x="75.249545" y="229.52" style="stroke: #000000; stroke-width: 0.8"/>
      </g>
     </g>
     <g id="text_13">
      <!-- 0.000 -->
      <g transform="translate(60.935483 244.118437) scale(0.1 -0.1)">
       <use xlink:href="#DejaVuSans-30"/>
       <use xlink:href="#DejaVuSans-2e" x="63.623047"/>
       <use xlink:href="#DejaVuSans-30" x="95.410156"/>
       <use xlink:href="#DejaVuSans-30" x="159.033203"/>
       <use xlink:href="#DejaVuSans-30" x="222.65625"/>
      </g>
     </g>
    </g>
    <g id="xtick_10">
     <g id="line2d_14">
      <g>
       <use xlink:href="#m6c3e89ed52" x="146.608333" y="229.52" style="stroke: #000000; stroke-width: 0.8"/>
      </g>
     </g>
     <g id="text_14">
      <!-- 0.002 -->
      <g transform="translate(132.294271 244.118437) scale(0.1 -0.1)">
       <use xlink:href="#DejaVuSans-30"/>
       <use xlink:href="#DejaVuSans-2e" x="63.623047"/>
       <use xlink:href="#DejaVuSans-30" x="95.410156"/>
       <use xlink:href="#DejaVuSans-30" x="159.033203"/>
       <use xlink:href="#DejaVuSans-32" x="222.65625"/>
      </g>
     </g>
    </g>
    <g id="xtick_11">
     <g id="line2d_15">
      <g>
       <use xlink:href="#m6c3e89ed52" x="217.967121" y="229.52" style="stroke: #000000; stroke-width: 0.8"/>
      </g>
     </g>
     <g id="text_15">
      <!-- 0.004 -->
      <g transform="translate(203.653059 244.118437) scale(0.1 -0.1)">
       <use xlink:href="#DejaVuSans-30"/>
       <use xlink:href="#DejaVuSans-2e" x="63.623047"/>
       <use xlink:href="#DejaVuSans-30" x="95.410156"/>
       <use xlink:href="#DejaVuSans-30" x="159.033203"/>
       <use xlink:href="#DejaVuSans-34" x="222.65625"/>
      </g>
     </g>
    </g>
    <g id="xtick_12">
     <g id="line2d_16">
      <g>
       <use xlink:href="#m6c3e89ed52" x="289.325909" y="229.52" style="stroke: #000000; stroke-width: 0.8"/>
      </g>
     </g>
     <g id="text_16">
      <!-- 0.006 -->
      <g transform="translate(275.011847 244.118437) scale(0.1 -0.1)">
       <use xlink:href="#DejaVuSans-30"/>
       <use xlink:href="#DejaVuSans-2e" x="63.623047"/>
       <use xlink:href="#DejaVuSans-30" x="95.410156"/>
       <use xlink:href="#DejaVuSans-30" x="159.033203"/>
       <use xlink:href="#DejaVuSans-36" x="222.65625"/>
      </g>
     </g>
    </g>
    <g id="xtick_13">
     <g id="line2d_17">
      <g>
       <use xlink:href="#m6c3e89ed52" x="360.684697" y="229.52" style="stroke: #000000; stroke-width: 0.8"/>
      </g>
     </g>
     <g id="text_17">
      <!-- 0.008 -->
      <g transform="translate(346.370634 244.118437) scale(0.1 -0.1)">
       <use xlink:href="#DejaVuSans-30"/>
       <use xlink:href="#DejaVuSans-2e" x="63.623047"/>
       <use xlink:href="#DejaVuSans-30" x="95.410156"/>
       <use xlink:href="#DejaVuSans-30" x="159.033203"/>
       <use xlink:href="#DejaVuSans-38" x="222.65625"/>
      </g>
     </g>
    </g>
    <g id="xtick_14">
     <g id="line2d_18">
      <g>
       <use xlink:href="#m6c3e89ed52" x="432.043485" y="229.52" style="stroke: #000000; stroke-width: 0.8"/>
      </g>
     </g>
     <g id="text_18">
      <!-- 0.010 -->
      <g transform="translate(417.729422 244.118437) scale(0.1 -0.1)">
       <use xlink:href="#DejaVuSans-30"/>
       <use xlink:href="#DejaVuSans-2e" x="63.623047"/>
       <use xlink:href="#DejaVuSans-30" x="95.410156"/>
       <use xlink:href="#DejaVuSans-31" x="159.033203"/>
       <use xlink:href="#DejaVuSans-30" x="222.65625"/>
      </g>
     </g>
    </g>
    <g id="xtick_15">
     <g id="line2d_19">
      <g>
       <use xlink:href="#m6c3e89ed52" x="503.402273" y="229.52" style="stroke: #000000; stroke-width: 0.8"/>
      </g>
     </g>
     <g id="text_19">
      <!-- 0.012 -->
      <g transform="translate(489.08821 244.118437) scale(0.1 -0.1)">
       <use xlink:href="#DejaVuSans-30"/>
       <use xlink:href="#DejaVuSans-2e" x="63.623047"/>
       <use xlink:href="#DejaVuSans-30" x="95.410156"/>
       <use xlink:href="#DejaVuSans-31" x="159.033203"/>
       <use xlink:href="#DejaVuSans-32" x="222.65625"/>
      </g>
     </g>
    </g>
    <g id="xtick_16">
     <g id="line2d_20">
      <g>
       <use xlink:href="#m6c3e89ed52" x="574.761061" y="229.52" style="stroke: #000000; stroke-width: 0.8"/>
      </g>
     </g>
     <g id="text_20">
      <!-- 0.014 -->
      <g transform="translate(560.446998 244.118437) scale(0.1 -0.1)">
       <use xlink:href="#DejaVuSans-30"/>
       <use xlink:href="#DejaVuSans-2e" x="63.623047"/>
       <use xlink:href="#DejaVuSans-30" x="95.410156"/>
       <use xlink:href="#DejaVuSans-31" x="159.033203"/>
       <use xlink:href="#DejaVuSans-34" x="222.65625"/>
      </g>
     </g>
    </g>
   </g>
   <g id="matplotlib.axis_4">
    <g id="ytick_4">
     <g id="line2d_21">
      <g>
       <use xlink:href="#mbf2f574d63" x="48.49" y="225.84891" style="stroke: #000000; stroke-width: 0.8"/>
      </g>
     </g>
     <g id="text_21">
      <!-- −1 -->
      <g transform="translate(26.747813 229.648128) scale(0.1 -0.1)">
       <use xlink:href="#DejaVuSans-2212"/>
       <use xlink:href="#DejaVuSans-31" x="83.789062"/>
      </g>
     </g>
    </g>
    <g id="ytick_5">
     <g id="line2d_22">
      <g>
       <use xlink:href="#mbf2f574d63" x="48.49" y="189.129795" style="stroke: #000000; stroke-width: 0.8"/>
      </g>
     </g>
     <g id="text_22">
      <!-- 0 -->
      <g transform="translate(35.1275 192.929014) scale(0.1 -0.1)">
       <use xlink:href="#DejaVuSans-30"/>
      </g>
     </g>
    </g>
    <g id="ytick_6">
     <g id="line2d_23">
      <g>
       <use xlink:href="#mbf2f574d63" x="48.49" y="152.410681" style="stroke: #000000; stroke-width: 0.8"/>
      </g>
     </g>
     <g id="text_23">
      <!-- 1 -->
      <g transform="translate(35.1275 156.2099) scale(0.1 -0.1)">
       <use xlink:href="#DejaVuSans-31"/>
      </g>
     </g>
    </g>
   </g>
   <g id="line2d_24">
    <path d="M 75.249545 189.129795 
L 88.119868 178.865511 
L 94.555029 173.990914 
L 99.917664 170.156441 
L 105.280298 166.586051 
L 109.570405 163.953416 
L 113.860513 161.545144 
L 118.15062 159.382696 
L 122.440728 157.485345 
L 126.730835 155.869998 
L 131.020943 154.551051 
L 134.238523 153.763526 
L 137.456104 153.153343 
L 140.673685 152.723562 
L 143.891265 152.476338 
L 147.108846 152.41291 
L 150.326426 152.533596 
L 153.544007 152.837792 
L 156.761588 153.323972 
L 159.979168 153.989697 
L 163.196749 154.831631 
L 167.486856 156.220888 
L 171.776964 157.903419 
L 176.067071 159.864228 
L 180.357179 162.085841 
L 184.647286 164.548461 
L 190.009921 167.932029 
L 195.372555 171.610641 
L 201.807716 176.342095 
L 209.315404 182.178938 
L 236.128576 203.421513 
L 242.563737 208.053645 
L 247.926372 211.627892 
L 252.216479 214.264073 
L 256.506587 216.676267 
L 260.796694 218.842975 
L 265.086802 220.74489 
L 269.376909 222.365062 
L 273.667017 223.689053 
L 276.884597 224.480478 
L 280.102178 225.094638 
L 283.319759 225.528455 
L 286.537339 225.779753 
L 289.75492 225.847272 
L 292.9725 225.730674 
L 296.190081 225.430543 
L 299.407662 224.948384 
L 302.625242 224.286615 
L 305.842823 223.448555 
L 310.13293 222.064298 
L 314.423038 220.38654 
L 318.713145 218.430232 
L 323.003253 216.212809 
L 327.29336 213.754032 
L 332.655995 210.374726 
L 338.018629 206.699719 
L 344.45379 201.971655 
L 351.961478 196.137393 
L 368.049381 183.203071 
L 376.629596 176.504765 
L 383.064758 171.763211 
L 388.427392 168.073837 
L 393.790026 164.677534 
L 398.080134 162.203422 
L 402.370241 159.96927 
L 406.660349 157.994985 
L 410.950456 156.298164 
L 415.240564 154.893927 
L 418.458144 154.040386 
L 421.675725 153.3628 
L 424.893306 152.864564 
L 428.110886 152.548179 
L 431.328467 152.415229 
L 434.546048 152.466383 
L 437.763628 152.701382 
L 440.981209 153.11905 
L 444.198789 153.717291 
L 447.41637 154.493107 
L 451.706478 155.796903 
L 455.996585 157.39775 
L 460.286692 159.281383 
L 464.5768 161.431014 
L 468.866907 163.827487 
L 473.157015 166.449446 
L 478.519649 170.008212 
L 483.882284 173.833124 
L 490.317445 178.699156 
L 498.89766 185.494747 
L 517.130617 200.058088 
L 523.565778 204.897778 
L 528.928412 208.693497 
L 534.291047 212.216916 
L 538.581154 214.806495 
L 542.871262 217.167252 
L 547.161369 219.278148 
L 551.451477 221.120373 
L 555.741584 222.677509 
L 560.031692 223.935679 
L 563.249272 224.676262 
L 566.466853 225.2386 
L 569.684433 225.619873 
L 572.902014 225.818168 
L 576.119595 225.832492 
L 579.337175 225.662772 
L 582.554756 225.30986 
L 585.772336 224.775526 
L 588.989917 224.062448 
L 592.207498 223.174203 
L 596.497605 221.725215 
L 600.787713 219.985748 
L 605.07782 217.971304 
L 609.367928 215.699833 
L 610.440455 215.09413 
L 610.440455 215.09413 
" clip-path="url(#p586169a90e)" style="fill: none; stroke: #008000; stroke-width: 1.5; stroke-linecap: square"/>
   </g>
   <g id="patch_8">
    <path d="M 48.49 229.52 
L 48.49 148.74 
" style="fill: none; stroke: #000000; stroke-width: 0.8; stroke-linejoin: miter; stroke-linecap: square"/>
   </g>
   <g id="patch_9">
    <path d="M 637.2 229.52 
L 637.2 148.74 
" style="fill: none; stroke: #000000; stroke-width: 0.8; stroke-linejoin: miter; stroke-linecap: square"/>
   </g>
   <g id="patch_10">
    <path d="M 48.49 229.52 
L 637.2 229.52 
" style="fill: none; stroke: #000000; stroke-width: 0.8; stroke-linejoin: miter; stroke-linecap: square"/>
   </g>
   <g id="patch_11">
    <path d="M 48.49 148.74 
L 637.2 148.74 
" style="fill: none; stroke: #000000; stroke-width: 0.8; stroke-linejoin: miter; stroke-linecap: square"/>
   </g>
   <g id="text_24">
    <!-- Sine (fs=500)/4 Hz -->
    <g transform="translate(286.160937 142.74) scale(0.12 -0.12)">
     <use xlink:href="#DejaVuSans-53"/>
     <use xlink:href="#DejaVuSans-69" x="63.476562"/>
     <use xlink:href="#DejaVuSans-6e" x="91.259766"/>
     <use xlink:href="#DejaVuSans-65" x="154.638672"/>
     <use xlink:href="#DejaVuSans-20" x="216.162109"/>
     <use xlink:href="#DejaVuSans-28" x="247.949219"/>
     <use xlink:href="#DejaVuSans-66" x="286.962891"/>
     <use xlink:href="#DejaVuSans-73" x="322.167969"/>
     <use xlink:href="#DejaVuSans-3d" x="374.267578"/>
     <use xlink:href="#DejaVuSans-35" x="458.056641"/>
     <use xlink:href="#DejaVuSans-30" x="521.679688"/>
     <use xlink:href="#DejaVuSans-30" x="585.302734"/>
     <use xlink:href="#DejaVuSans-29" x="648.925781"/>
     <use xlink:href="#DejaVuSans-2f" x="687.939453"/>
     <use xlink:href="#DejaVuSans-34" x="721.630859"/>
     <use xlink:href="#DejaVuSans-20" x="785.253906"/>
     <use xlink:href="#DejaVuSans-48" x="817.041016"/>
     <use xlink:href="#DejaVuSans-7a" x="892.236328"/>
    </g>
   </g>
  </g>
  <g id="axes_3">
   <g id="patch_12">
    <path d="M 48.49 352.82 
L 637.2 352.82 
L 637.2 272.04 
L 48.49 272.04 
z
" style="fill: #ffffff"/>
   </g>
   <g id="matplotlib.axis_5">
    <g id="xtick_17">
     <g id="line2d_25">
      <g>
       <use xlink:href="#m6c3e89ed52" x="75.249545" y="352.82" style="stroke: #000000; stroke-width: 0.8"/>
      </g>
     </g>
     <g id="text_25">
      <!-- 0.000 -->
      <g transform="translate(60.935483 367.418437) scale(0.1 -0.1)">
       <use xlink:href="#DejaVuSans-30"/>
       <use xlink:href="#DejaVuSans-2e" x="63.623047"/>
       <use xlink:href="#DejaVuSans-30" x="95.410156"/>
       <use xlink:href="#DejaVuSans-30" x="159.033203"/>
       <use xlink:href="#DejaVuSans-30" x="222.65625"/>
      </g>
     </g>
    </g>
    <g id="xtick_18">
     <g id="line2d_26">
      <g>
       <use xlink:href="#m6c3e89ed52" x="146.608333" y="352.82" style="stroke: #000000; stroke-width: 0.8"/>
      </g>
     </g>
     <g id="text_26">
      <!-- 0.002 -->
      <g transform="translate(132.294271 367.418437) scale(0.1 -0.1)">
       <use xlink:href="#DejaVuSans-30"/>
       <use xlink:href="#DejaVuSans-2e" x="63.623047"/>
       <use xlink:href="#DejaVuSans-30" x="95.410156"/>
       <use xlink:href="#DejaVuSans-30" x="159.033203"/>
       <use xlink:href="#DejaVuSans-32" x="222.65625"/>
      </g>
     </g>
    </g>
    <g id="xtick_19">
     <g id="line2d_27">
      <g>
       <use xlink:href="#m6c3e89ed52" x="217.967121" y="352.82" style="stroke: #000000; stroke-width: 0.8"/>
      </g>
     </g>
     <g id="text_27">
      <!-- 0.004 -->
      <g transform="translate(203.653059 367.418437) scale(0.1 -0.1)">
       <use xlink:href="#DejaVuSans-30"/>
       <use xlink:href="#DejaVuSans-2e" x="63.623047"/>
       <use xlink:href="#DejaVuSans-30" x="95.410156"/>
       <use xlink:href="#DejaVuSans-30" x="159.033203"/>
       <use xlink:href="#DejaVuSans-34" x="222.65625"/>
      </g>
     </g>
    </g>
    <g id="xtick_20">
     <g id="line2d_28">
      <g>
       <use xlink:href="#m6c3e89ed52" x="289.325909" y="352.82" style="stroke: #000000; stroke-width: 0.8"/>
      </g>
     </g>
     <g id="text_28">
      <!-- 0.006 -->
      <g transform="translate(275.011847 367.418437) scale(0.1 -0.1)">
       <use xlink:href="#DejaVuSans-30"/>
       <use xlink:href="#DejaVuSans-2e" x="63.623047"/>
       <use xlink:href="#DejaVuSans-30" x="95.410156"/>
       <use xlink:href="#DejaVuSans-30" x="159.033203"/>
       <use xlink:href="#DejaVuSans-36" x="222.65625"/>
      </g>
     </g>
    </g>
    <g id="xtick_21">
     <g id="line2d_29">
      <g>
       <use xlink:href="#m6c3e89ed52" x="360.684697" y="352.82" style="stroke: #000000; stroke-width: 0.8"/>
      </g>
     </g>
     <g id="text_29">
      <!-- 0.008 -->
      <g transform="translate(346.370634 367.418437) scale(0.1 -0.1)">
       <use xlink:href="#DejaVuSans-30"/>
       <use xlink:href="#DejaVuSans-2e" x="63.623047"/>
       <use xlink:href="#DejaVuSans-30" x="95.410156"/>
       <use xlink:href="#DejaVuSans-30" x="159.033203"/>
       <use xlink:href="#DejaVuSans-38" x="222.65625"/>
      </g>
     </g>
    </g>
    <g id="xtick_22">
     <g id="line2d_30">
      <g>
       <use xlink:href="#m6c3e89ed52" x="432.043485" y="352.82" style="stroke: #000000; stroke-width: 0.8"/>
      </g>
     </g>
     <g id="text_30">
      <!-- 0.010 -->
      <g transform="translate(417.729422 367.418437) scale(0.1 -0.1)">
       <use xlink:href="#DejaVuSans-30"/>
       <use xlink:href="#DejaVuSans-2e" x="63.623047"/>
       <use xlink:href="#DejaVuSans-30" x="95.410156"/>
       <use xlink:href="#DejaVuSans-31" x="159.033203"/>
       <use xlink:href="#DejaVuSans-30" x="222.65625"/>
      </g>
     </g>
    </g>
    <g id="xtick_23">
     <g id="line2d_31">
      <g>
       <use xlink:href="#m6c3e89ed52" x="503.402273" y="352.82" style="stroke: #000000; stroke-width: 0.8"/>
      </g>
     </g>
     <g id="text_31">
      <!-- 0.012 -->
      <g transform="translate(489.08821 367.418437) scale(0.1 -0.1)">
       <use xlink:href="#DejaVuSans-30"/>
       <use xlink:href="#DejaVuSans-2e" x="63.623047"/>
       <use xlink:href="#DejaVuSans-30" x="95.410156"/>
       <use xlink:href="#DejaVuSans-31" x="159.033203"/>
       <use xlink:href="#DejaVuSans-32" x="222.65625"/>
      </g>
     </g>
    </g>
    <g id="xtick_24">
     <g id="line2d_32">
      <g>
       <use xlink:href="#m6c3e89ed52" x="574.761061" y="352.82" style="stroke: #000000; stroke-width: 0.8"/>
      </g>
     </g>
     <g id="text_32">
      <!-- 0.014 -->
      <g transform="translate(560.446998 367.418437) scale(0.1 -0.1)">
       <use xlink:href="#DejaVuSans-30"/>
       <use xlink:href="#DejaVuSans-2e" x="63.623047"/>
       <use xlink:href="#DejaVuSans-30" x="95.410156"/>
       <use xlink:href="#DejaVuSans-31" x="159.033203"/>
       <use xlink:href="#DejaVuSans-34" x="222.65625"/>
      </g>
     </g>
    </g>
   </g>
   <g id="matplotlib.axis_6">
    <g id="ytick_7">
     <g id="line2d_33">
      <g>
       <use xlink:href="#mbf2f574d63" x="48.49" y="349.148182" style="stroke: #000000; stroke-width: 0.8"/>
      </g>
     </g>
     <g id="text_33">
      <!-- −0.05 -->
      <g transform="translate(10.844688 352.947401) scale(0.1 -0.1)">
       <use xlink:href="#DejaVuSans-2212"/>
       <use xlink:href="#DejaVuSans-30" x="83.789062"/>
       <use xlink:href="#DejaVuSans-2e" x="147.412109"/>
       <use xlink:href="#DejaVuSans-30" x="179.199219"/>
       <use xlink:href="#DejaVuSans-35" x="242.822266"/>
      </g>
     </g>
    </g>
    <g id="ytick_8">
     <g id="line2d_34">
      <g>
       <use xlink:href="#mbf2f574d63" x="48.49" y="312.43" style="stroke: #000000; stroke-width: 0.8"/>
      </g>
     </g>
     <g id="text_34">
      <!-- 0.00 -->
      <g transform="translate(19.224375 316.229219) scale(0.1 -0.1)">
       <use xlink:href="#DejaVuSans-30"/>
       <use xlink:href="#DejaVuSans-2e" x="63.623047"/>
       <use xlink:href="#DejaVuSans-30" x="95.410156"/>
       <use xlink:href="#DejaVuSans-30" x="159.033203"/>
      </g>
     </g>
    </g>
    <g id="ytick_9">
     <g id="line2d_35">
      <g>
       <use xlink:href="#mbf2f574d63" x="48.49" y="275.711818" style="stroke: #000000; stroke-width: 0.8"/>
      </g>
     </g>
     <g id="text_35">
      <!-- 0.05 -->
      <g transform="translate(19.224375 279.511037) scale(0.1 -0.1)">
       <use xlink:href="#DejaVuSans-30"/>
       <use xlink:href="#DejaVuSans-2e" x="63.623047"/>
       <use xlink:href="#DejaVuSans-30" x="95.410156"/>
       <use xlink:href="#DejaVuSans-35" x="159.033203"/>
      </g>
     </g>
    </g>
   </g>
   <g id="line2d_36">
    <path d="M 75.249545 312.43 
L 610.440455 312.43 
L 610.440455 312.43 
" clip-path="url(#p75295c8066)" style="fill: none; stroke: #0000ff; stroke-width: 1.5; stroke-linecap: square"/>
   </g>
   <g id="patch_13">
    <path d="M 48.49 352.82 
L 48.49 272.04 
" style="fill: none; stroke: #000000; stroke-width: 0.8; stroke-linejoin: miter; stroke-linecap: square"/>
   </g>
   <g id="patch_14">
    <path d="M 637.2 352.82 
L 637.2 272.04 
" style="fill: none; stroke: #000000; stroke-width: 0.8; stroke-linejoin: miter; stroke-linecap: square"/>
   </g>
   <g id="patch_15">
    <path d="M 48.49 352.82 
L 637.2 352.82 
" style="fill: none; stroke: #000000; stroke-width: 0.8; stroke-linejoin: miter; stroke-linecap: square"/>
   </g>
   <g id="patch_16">
    <path d="M 48.49 272.04 
L 637.2 272.04 
" style="fill: none; stroke: #000000; stroke-width: 0.8; stroke-linejoin: miter; stroke-linecap: square"/>
   </g>
   <g id="text_36">
    <!-- Sine 0hz (constant) -->
    <g transform="translate(284.527812 266.04) scale(0.12 -0.12)">
     <defs>
      <path id="DejaVuSans-68" d="M 3513 2113 
L 3513 0 
L 2938 0 
L 2938 2094 
Q 2938 2591 2744 2837 
Q 2550 3084 2163 3084 
Q 1697 3084 1428 2787 
Q 1159 2491 1159 1978 
L 1159 0 
L 581 0 
L 581 4863 
L 1159 4863 
L 1159 2956 
Q 1366 3272 1645 3428 
Q 1925 3584 2291 3584 
Q 2894 3584 3203 3211 
Q 3513 2838 3513 2113 
z
" transform="scale(0.015625)"/>
      <path id="DejaVuSans-63" d="M 3122 3366 
L 3122 2828 
Q 2878 2963 2633 3030 
Q 2388 3097 2138 3097 
Q 1578 3097 1268 2742 
Q 959 2388 959 1747 
Q 959 1106 1268 751 
Q 1578 397 2138 397 
Q 2388 397 2633 464 
Q 2878 531 3122 666 
L 3122 134 
Q 2881 22 2623 -34 
Q 2366 -91 2075 -91 
Q 1284 -91 818 406 
Q 353 903 353 1747 
Q 353 2603 823 3093 
Q 1294 3584 2113 3584 
Q 2378 3584 2631 3529 
Q 2884 3475 3122 3366 
z
" transform="scale(0.015625)"/>
      <path id="DejaVuSans-6f" d="M 1959 3097 
Q 1497 3097 1228 2736 
Q 959 2375 959 1747 
Q 959 1119 1226 758 
Q 1494 397 1959 397 
Q 2419 397 2687 759 
Q 2956 1122 2956 1747 
Q 2956 2369 2687 2733 
Q 2419 3097 1959 3097 
z
M 1959 3584 
Q 2709 3584 3137 3096 
Q 3566 2609 3566 1747 
Q 3566 888 3137 398 
Q 2709 -91 1959 -91 
Q 1206 -91 779 398 
Q 353 888 353 1747 
Q 353 2609 779 3096 
Q 1206 3584 1959 3584 
z
" transform="scale(0.015625)"/>
      <path id="DejaVuSans-74" d="M 1172 4494 
L 1172 3500 
L 2356 3500 
L 2356 3053 
L 1172 3053 
L 1172 1153 
Q 1172 725 1289 603 
Q 1406 481 1766 481 
L 2356 481 
L 2356 0 
L 1766 0 
Q 1100 0 847 248 
Q 594 497 594 1153 
L 594 3053 
L 172 3053 
L 172 3500 
L 594 3500 
L 594 4494 
L 1172 4494 
z
" transform="scale(0.015625)"/>
      <path id="DejaVuSans-61" d="M 2194 1759 
Q 1497 1759 1228 1600 
Q 959 1441 959 1056 
Q 959 750 1161 570 
Q 1363 391 1709 391 
Q 2188 391 2477 730 
Q 2766 1069 2766 1631 
L 2766 1759 
L 2194 1759 
z
M 3341 1997 
L 3341 0 
L 2766 0 
L 2766 531 
Q 2569 213 2275 61 
Q 1981 -91 1556 -91 
Q 1019 -91 701 211 
Q 384 513 384 1019 
Q 384 1609 779 1909 
Q 1175 2209 1959 2209 
L 2766 2209 
L 2766 2266 
Q 2766 2663 2505 2880 
Q 2244 3097 1772 3097 
Q 1472 3097 1187 3025 
Q 903 2953 641 2809 
L 641 3341 
Q 956 3463 1253 3523 
Q 1550 3584 1831 3584 
Q 2591 3584 2966 3190 
Q 3341 2797 3341 1997 
z
" transform="scale(0.015625)"/>
     </defs>
     <use xlink:href="#DejaVuSans-53"/>
     <use xlink:href="#DejaVuSans-69" x="63.476562"/>
     <use xlink:href="#DejaVuSans-6e" x="91.259766"/>
     <use xlink:href="#DejaVuSans-65" x="154.638672"/>
     <use xlink:href="#DejaVuSans-20" x="216.162109"/>
     <use xlink:href="#DejaVuSans-30" x="247.949219"/>
     <use xlink:href="#DejaVuSans-68" x="311.572266"/>
     <use xlink:href="#DejaVuSans-7a" x="374.951172"/>
     <use xlink:href="#DejaVuSans-20" x="427.441406"/>
     <use xlink:href="#DejaVuSans-28" x="459.228516"/>
     <use xlink:href="#DejaVuSans-63" x="498.242188"/>
     <use xlink:href="#DejaVuSans-6f" x="553.222656"/>
     <use xlink:href="#DejaVuSans-6e" x="614.404297"/>
     <use xlink:href="#DejaVuSans-73" x="677.783203"/>
     <use xlink:href="#DejaVuSans-74" x="729.882812"/>
     <use xlink:href="#DejaVuSans-61" x="769.091797"/>
     <use xlink:href="#DejaVuSans-6e" x="830.371094"/>
     <use xlink:href="#DejaVuSans-74" x="893.75"/>
     <use xlink:href="#DejaVuSans-29" x="932.958984"/>
    </g>
   </g>
  </g>
  <g id="axes_4">
   <g id="patch_17">
    <path d="M 48.49 476.12 
L 637.2 476.12 
L 637.2 395.34 
L 48.49 395.34 
z
" style="fill: #ffffff"/>
   </g>
   <g id="matplotlib.axis_7">
    <g id="xtick_25">
     <g id="line2d_37">
      <g>
       <use xlink:href="#m6c3e89ed52" x="75.249545" y="476.12" style="stroke: #000000; stroke-width: 0.8"/>
      </g>
     </g>
     <g id="text_37">
      <!-- 0.000 -->
      <g transform="translate(60.935483 490.718437) scale(0.1 -0.1)">
       <use xlink:href="#DejaVuSans-30"/>
       <use xlink:href="#DejaVuSans-2e" x="63.623047"/>
       <use xlink:href="#DejaVuSans-30" x="95.410156"/>
       <use xlink:href="#DejaVuSans-30" x="159.033203"/>
       <use xlink:href="#DejaVuSans-30" x="222.65625"/>
      </g>
     </g>
    </g>
    <g id="xtick_26">
     <g id="line2d_38">
      <g>
       <use xlink:href="#m6c3e89ed52" x="146.608333" y="476.12" style="stroke: #000000; stroke-width: 0.8"/>
      </g>
     </g>
     <g id="text_38">
      <!-- 0.002 -->
      <g transform="translate(132.294271 490.718437) scale(0.1 -0.1)">
       <use xlink:href="#DejaVuSans-30"/>
       <use xlink:href="#DejaVuSans-2e" x="63.623047"/>
       <use xlink:href="#DejaVuSans-30" x="95.410156"/>
       <use xlink:href="#DejaVuSans-30" x="159.033203"/>
       <use xlink:href="#DejaVuSans-32" x="222.65625"/>
      </g>
     </g>
    </g>
    <g id="xtick_27">
     <g id="line2d_39">
      <g>
       <use xlink:href="#m6c3e89ed52" x="217.967121" y="476.12" style="stroke: #000000; stroke-width: 0.8"/>
      </g>
     </g>
     <g id="text_39">
      <!-- 0.004 -->
      <g transform="translate(203.653059 490.718437) scale(0.1 -0.1)">
       <use xlink:href="#DejaVuSans-30"/>
       <use xlink:href="#DejaVuSans-2e" x="63.623047"/>
       <use xlink:href="#DejaVuSans-30" x="95.410156"/>
       <use xlink:href="#DejaVuSans-30" x="159.033203"/>
       <use xlink:href="#DejaVuSans-34" x="222.65625"/>
      </g>
     </g>
    </g>
    <g id="xtick_28">
     <g id="line2d_40">
      <g>
       <use xlink:href="#m6c3e89ed52" x="289.325909" y="476.12" style="stroke: #000000; stroke-width: 0.8"/>
      </g>
     </g>
     <g id="text_40">
      <!-- 0.006 -->
      <g transform="translate(275.011847 490.718437) scale(0.1 -0.1)">
       <use xlink:href="#DejaVuSans-30"/>
       <use xlink:href="#DejaVuSans-2e" x="63.623047"/>
       <use xlink:href="#DejaVuSans-30" x="95.410156"/>
       <use xlink:href="#DejaVuSans-30" x="159.033203"/>
       <use xlink:href="#DejaVuSans-36" x="222.65625"/>
      </g>
     </g>
    </g>
    <g id="xtick_29">
     <g id="line2d_41">
      <g>
       <use xlink:href="#m6c3e89ed52" x="360.684697" y="476.12" style="stroke: #000000; stroke-width: 0.8"/>
      </g>
     </g>
     <g id="text_41">
      <!-- 0.008 -->
      <g transform="translate(346.370634 490.718437) scale(0.1 -0.1)">
       <use xlink:href="#DejaVuSans-30"/>
       <use xlink:href="#DejaVuSans-2e" x="63.623047"/>
       <use xlink:href="#DejaVuSans-30" x="95.410156"/>
       <use xlink:href="#DejaVuSans-30" x="159.033203"/>
       <use xlink:href="#DejaVuSans-38" x="222.65625"/>
      </g>
     </g>
    </g>
    <g id="xtick_30">
     <g id="line2d_42">
      <g>
       <use xlink:href="#m6c3e89ed52" x="432.043485" y="476.12" style="stroke: #000000; stroke-width: 0.8"/>
      </g>
     </g>
     <g id="text_42">
      <!-- 0.010 -->
      <g transform="translate(417.729422 490.718437) scale(0.1 -0.1)">
       <use xlink:href="#DejaVuSans-30"/>
       <use xlink:href="#DejaVuSans-2e" x="63.623047"/>
       <use xlink:href="#DejaVuSans-30" x="95.410156"/>
       <use xlink:href="#DejaVuSans-31" x="159.033203"/>
       <use xlink:href="#DejaVuSans-30" x="222.65625"/>
      </g>
     </g>
    </g>
    <g id="xtick_31">
     <g id="line2d_43">
      <g>
       <use xlink:href="#m6c3e89ed52" x="503.402273" y="476.12" style="stroke: #000000; stroke-width: 0.8"/>
      </g>
     </g>
     <g id="text_43">
      <!-- 0.012 -->
      <g transform="translate(489.08821 490.718437) scale(0.1 -0.1)">
       <use xlink:href="#DejaVuSans-30"/>
       <use xlink:href="#DejaVuSans-2e" x="63.623047"/>
       <use xlink:href="#DejaVuSans-30" x="95.410156"/>
       <use xlink:href="#DejaVuSans-31" x="159.033203"/>
       <use xlink:href="#DejaVuSans-32" x="222.65625"/>
      </g>
     </g>
    </g>
    <g id="xtick_32">
     <g id="line2d_44">
      <g>
       <use xlink:href="#m6c3e89ed52" x="574.761061" y="476.12" style="stroke: #000000; stroke-width: 0.8"/>
      </g>
     </g>
     <g id="text_44">
      <!-- 0.014 -->
      <g transform="translate(560.446998 490.718437) scale(0.1 -0.1)">
       <use xlink:href="#DejaVuSans-30"/>
       <use xlink:href="#DejaVuSans-2e" x="63.623047"/>
       <use xlink:href="#DejaVuSans-30" x="95.410156"/>
       <use xlink:href="#DejaVuSans-31" x="159.033203"/>
       <use xlink:href="#DejaVuSans-34" x="222.65625"/>
      </g>
     </g>
    </g>
   </g>
   <g id="matplotlib.axis_8">
    <g id="ytick_10">
     <g id="line2d_45">
      <g>
       <use xlink:href="#mbf2f574d63" x="48.49" y="472.448182" style="stroke: #000000; stroke-width: 0.8"/>
      </g>
     </g>
     <g id="text_45">
      <!-- −1 -->
      <g transform="translate(26.747813 476.247401) scale(0.1 -0.1)">
       <use xlink:href="#DejaVuSans-2212"/>
       <use xlink:href="#DejaVuSans-31" x="83.789062"/>
      </g>
     </g>
    </g>
    <g id="ytick_11">
     <g id="line2d_46">
      <g>
       <use xlink:href="#mbf2f574d63" x="48.49" y="435.729431" style="stroke: #000000; stroke-width: 0.8"/>
      </g>
     </g>
     <g id="text_46">
      <!-- 0 -->
      <g transform="translate(35.1275 439.52865) scale(0.1 -0.1)">
       <use xlink:href="#DejaVuSans-30"/>
      </g>
     </g>
    </g>
    <g id="ytick_12">
     <g id="line2d_47">
      <g>
       <use xlink:href="#mbf2f574d63" x="48.49" y="399.010681" style="stroke: #000000; stroke-width: 0.8"/>
      </g>
     </g>
     <g id="text_47">
      <!-- 1 -->
      <g transform="translate(35.1275 402.8099) scale(0.1 -0.1)">
       <use xlink:href="#DejaVuSans-31"/>
      </g>
     </g>
    </g>
   </g>
   <g id="line2d_48">
    <path d="M 75.249545 435.729431 
L 81.684707 425.465249 
L 85.974814 419.028579 
L 89.192395 414.579092 
L 92.409975 410.553302 
L 94.555029 408.145053 
L 96.700083 405.982627 
L 98.845137 404.085295 
L 100.99019 402.469964 
L 103.135244 401.15103 
L 105.280298 400.140247 
L 107.425352 399.446622 
L 109.570405 399.076337 
L 111.715459 399.032692 
L 113.860513 399.316076 
L 116.005567 399.923963 
L 118.15062 400.850936 
L 120.295674 402.088734 
L 122.440728 403.626326 
L 124.585782 405.45001 
L 126.730835 407.543534 
L 128.875889 409.888241 
L 132.09347 413.829995 
L 135.31105 418.210451 
L 138.528631 422.941858 
L 142.818738 429.631726 
L 155.689061 450.021007 
L 158.906641 454.653094 
L 162.124222 458.90609 
L 165.341803 462.694798 
L 167.486856 464.924754 
L 169.63191 466.894532 
L 171.776964 468.586577 
L 173.922018 469.985811 
L 176.067071 471.079763 
L 178.212125 471.858686 
L 180.357179 472.315637 
L 182.502233 472.446544 
L 184.647286 472.250242 
L 186.79234 471.728478 
L 188.937394 470.885903 
L 191.082448 469.730026 
L 193.227501 468.271147 
L 195.372555 466.522268 
L 197.517609 464.498974 
L 199.662663 462.219295 
L 202.880243 458.364078 
L 206.097824 454.05543 
L 209.315404 449.379664 
L 213.605512 442.73696 
L 227.548361 420.696081 
L 230.765942 416.117041 
L 233.983522 411.930887 
L 237.201103 408.221481 
L 239.346157 406.050538 
L 241.491211 404.144083 
L 243.636264 402.519106 
L 245.781318 401.190087 
L 247.926372 400.168872 
L 250.071426 399.46456 
L 252.216479 399.083428 
L 254.361533 399.028872 
L 256.506587 399.30138 
L 258.651641 399.898521 
L 260.796694 400.814975 
L 262.941748 402.042575 
L 265.086802 403.570381 
L 267.231856 405.384776 
L 269.376909 407.469593 
L 271.521963 409.806252 
L 274.739544 413.737324 
L 277.957124 418.108956 
L 281.174705 422.833571 
L 285.464812 429.517775 
L 298.335135 449.914465 
L 301.552715 454.553946 
L 304.770296 458.816324 
L 307.987877 462.616211 
L 310.13293 464.85451 
L 312.277984 466.833257 
L 314.423038 468.534817 
L 316.568092 469.944026 
L 318.713145 471.048327 
L 320.858199 471.837878 
L 323.003253 472.305644 
L 325.148307 472.447454 
L 327.29336 472.262046 
L 329.438414 471.751072 
L 331.583468 470.919086 
L 333.728522 469.773502 
L 335.873575 468.324528 
L 338.018629 466.585079 
L 340.163683 464.570654 
L 342.308737 462.299206 
L 345.526317 458.454979 
L 348.743898 454.1555 
L 351.961478 449.486899 
L 356.251586 442.850387 
L 370.194435 420.80161 
L 373.412016 416.214855 
L 376.629596 412.019028 
L 379.847177 408.298181 
L 381.992231 406.118743 
L 384.137285 404.203184 
L 386.282338 402.568577 
L 388.427392 401.229487 
L 390.572446 400.19785 
L 392.7175 399.482857 
L 394.862553 399.090882 
L 397.007607 399.025416 
L 399.152661 399.287044 
L 401.297715 399.873434 
L 403.442768 400.779361 
L 405.587822 401.99675 
L 407.732876 403.514754 
L 409.877929 405.319843 
L 412.022983 407.395933 
L 414.168037 409.72452 
L 417.385618 413.644872 
L 420.603198 418.007635 
L 423.820779 422.725412 
L 428.110886 429.403885 
L 440.981209 449.807782 
L 444.198789 454.454612 
L 447.41637 458.726329 
L 450.633951 462.537357 
L 452.779004 464.783977 
L 454.924058 466.771673 
L 457.069112 468.482731 
L 459.214166 469.901903 
L 461.359219 471.016541 
L 463.504273 471.816713 
L 465.649327 472.295288 
L 467.794381 472.448 
L 469.939434 472.273489 
L 472.084488 471.77331 
L 474.229542 470.95192 
L 476.374596 469.81664 
L 478.519649 468.377586 
L 480.664703 466.647583 
L 482.809757 464.642048 
L 484.954811 462.378854 
L 488.172391 458.545655 
L 491.389972 454.255388 
L 494.607552 449.593998 
L 498.89766 442.963744 
L 512.840509 420.907287 
L 516.05809 416.312863 
L 519.27567 412.107403 
L 522.493251 408.375154 
L 524.638305 406.187241 
L 526.783359 404.262598 
L 528.928412 402.618376 
L 531.073466 401.269229 
L 533.21852 400.227179 
L 535.363574 399.501514 
L 537.508627 399.098699 
L 539.653681 399.022324 
L 541.798735 399.27307 
L 543.943788 399.848703 
L 546.088842 400.744093 
L 548.233896 401.95126 
L 550.37895 403.459446 
L 552.524003 405.255211 
L 554.669057 407.322553 
L 556.814111 409.643046 
L 560.031692 413.552639 
L 563.249272 417.90649 
L 566.466853 422.617381 
L 570.75696 429.290058 
L 583.627283 449.700959 
L 586.844863 454.355092 
L 590.062444 458.636105 
L 593.280025 462.458238 
L 595.425078 464.713156 
L 597.570132 466.709782 
L 599.715186 468.43032 
L 601.86024 469.85944 
L 604.005293 470.984405 
L 606.150347 471.79519 
L 608.295401 472.284569 
L 610.440455 472.448182 
L 610.440455 472.448182 
" clip-path="url(#p9194c432ec)" style="fill: none; stroke: #ff0000; stroke-width: 1.5; stroke-linecap: square"/>
   </g>
   <g id="line2d_49">
    <path d="M 75.249545 435.729431 
L 88.119868 425.465249 
L 94.555029 420.590701 
L 99.917664 416.756265 
L 105.280298 413.185911 
L 109.570405 410.553302 
L 113.860513 408.145053 
L 118.15062 405.982627 
L 122.440728 404.085295 
L 126.730835 402.469964 
L 131.020943 401.15103 
L 134.238523 400.363513 
L 137.456104 399.753336 
L 140.673685 399.323559 
L 143.891265 399.076337 
L 147.108846 399.01291 
L 150.326426 399.133595 
L 153.544007 399.437788 
L 156.761588 399.923963 
L 159.979168 400.589682 
L 163.196749 401.431607 
L 167.486856 402.820851 
L 171.776964 404.503364 
L 176.067071 406.464154 
L 180.357179 408.685745 
L 184.647286 411.148341 
L 190.009921 414.531875 
L 195.372555 418.210451 
L 201.807716 422.941858 
L 209.315404 428.778643 
L 236.128576 450.021007 
L 242.563737 454.653094 
L 247.926372 458.227305 
L 252.216479 460.863461 
L 256.506587 463.27563 
L 260.796694 465.442317 
L 265.086802 467.344213 
L 269.376909 468.964369 
L 273.667017 470.288347 
L 276.884597 471.079763 
L 280.102178 471.693918 
L 283.319759 472.12773 
L 286.537339 472.379026 
L 289.75492 472.446544 
L 292.9725 472.329947 
L 296.190081 472.029819 
L 299.407662 471.547665 
L 302.625242 470.885903 
L 305.842823 470.047851 
L 310.13293 468.663608 
L 314.423038 466.985866 
L 318.713145 465.029578 
L 323.003253 462.812177 
L 327.29336 460.353424 
L 332.655995 456.974151 
L 338.018629 453.299181 
L 344.45379 448.571164 
L 351.961478 442.73696 
L 368.049381 429.802765 
L 376.629596 423.104526 
L 383.064758 418.363019 
L 388.427392 414.673682 
L 393.790026 411.277412 
L 398.080134 408.803325 
L 402.370241 406.569195 
L 406.660349 404.59493 
L 410.950456 402.898125 
L 415.240564 401.493902 
L 418.458144 400.64037 
L 421.675725 399.96279 
L 424.893306 399.46456 
L 428.110886 399.148177 
L 431.328467 399.015229 
L 434.546048 399.066382 
L 437.763628 399.30138 
L 440.981209 399.719043 
L 444.198789 400.317279 
L 447.41637 401.093086 
L 451.706478 402.396869 
L 455.996585 403.997701 
L 460.286692 405.881314 
L 464.5768 408.030924 
L 468.866907 410.427374 
L 473.157015 413.049306 
L 478.519649 416.608037 
L 483.882284 420.432912 
L 490.317445 425.298896 
L 498.89766 432.094419 
L 517.130617 446.657616 
L 523.565778 451.497258 
L 528.928412 455.292939 
L 534.291047 458.816324 
L 538.581154 461.405877 
L 542.871262 463.76661 
L 547.161369 465.877486 
L 551.451477 467.719692 
L 555.741584 469.276813 
L 560.031692 470.53497 
L 563.249272 471.275546 
L 566.466853 471.837878 
L 569.684433 472.219147 
L 572.902014 472.41744 
L 576.119595 472.431764 
L 579.337175 472.262046 
L 582.554756 471.909138 
L 585.772336 471.374809 
L 588.989917 470.661738 
L 592.207498 469.773502 
L 596.497605 468.324528 
L 600.787713 466.585079 
L 605.07782 464.570654 
L 609.367928 462.299206 
L 610.440455 461.693509 
L 610.440455 461.693509 
" clip-path="url(#p9194c432ec)" style="fill: none; stroke: #008000; stroke-width: 1.5; stroke-linecap: square"/>
   </g>
   <g id="line2d_50">
    <path d="M 75.249545 435.729431 
L 610.440455 435.729431 
L 610.440455 435.729431 
" clip-path="url(#p9194c432ec)" style="fill: none; stroke: #0000ff; stroke-width: 1.5; stroke-linecap: square"/>
   </g>
   <g id="patch_18">
    <path d="M 48.49 476.12 
L 48.49 395.34 
" style="fill: none; stroke: #000000; stroke-width: 0.8; stroke-linejoin: miter; stroke-linecap: square"/>
   </g>
   <g id="patch_19">
    <path d="M 637.2 476.12 
L 637.2 395.34 
" style="fill: none; stroke: #000000; stroke-width: 0.8; stroke-linejoin: miter; stroke-linecap: square"/>
   </g>
   <g id="patch_20">
    <path d="M 48.49 476.12 
L 637.2 476.12 
" style="fill: none; stroke: #000000; stroke-width: 0.8; stroke-linejoin: miter; stroke-linecap: square"/>
   </g>
   <g id="patch_21">
    <path d="M 48.49 395.34 
L 637.2 395.34 
" style="fill: none; stroke: #000000; stroke-width: 0.8; stroke-linejoin: miter; stroke-linecap: square"/>
   </g>
   <g id="text_48">
    <!-- Overlapped:  -->
    <g transform="translate(304.02125 389.34) scale(0.12 -0.12)">
     <defs>
      <path id="DejaVuSans-4f" d="M 2522 4238 
Q 1834 4238 1429 3725 
Q 1025 3213 1025 2328 
Q 1025 1447 1429 934 
Q 1834 422 2522 422 
Q 3209 422 3611 934 
Q 4013 1447 4013 2328 
Q 4013 3213 3611 3725 
Q 3209 4238 2522 4238 
z
M 2522 4750 
Q 3503 4750 4090 4092 
Q 4678 3434 4678 2328 
Q 4678 1225 4090 567 
Q 3503 -91 2522 -91 
Q 1538 -91 948 565 
Q 359 1222 359 2328 
Q 359 3434 948 4092 
Q 1538 4750 2522 4750 
z
" transform="scale(0.015625)"/>
      <path id="DejaVuSans-76" d="M 191 3500 
L 800 3500 
L 1894 563 
L 2988 3500 
L 3597 3500 
L 2284 0 
L 1503 0 
L 191 3500 
z
" transform="scale(0.015625)"/>
      <path id="DejaVuSans-72" d="M 2631 2963 
Q 2534 3019 2420 3045 
Q 2306 3072 2169 3072 
Q 1681 3072 1420 2755 
Q 1159 2438 1159 1844 
L 1159 0 
L 581 0 
L 581 3500 
L 1159 3500 
L 1159 2956 
Q 1341 3275 1631 3429 
Q 1922 3584 2338 3584 
Q 2397 3584 2469 3576 
Q 2541 3569 2628 3553 
L 2631 2963 
z
" transform="scale(0.015625)"/>
      <path id="DejaVuSans-6c" d="M 603 4863 
L 1178 4863 
L 1178 0 
L 603 0 
L 603 4863 
z
" transform="scale(0.015625)"/>
      <path id="DejaVuSans-70" d="M 1159 525 
L 1159 -1331 
L 581 -1331 
L 581 3500 
L 1159 3500 
L 1159 2969 
Q 1341 3281 1617 3432 
Q 1894 3584 2278 3584 
Q 2916 3584 3314 3078 
Q 3713 2572 3713 1747 
Q 3713 922 3314 415 
Q 2916 -91 2278 -91 
Q 1894 -91 1617 61 
Q 1341 213 1159 525 
z
M 3116 1747 
Q 3116 2381 2855 2742 
Q 2594 3103 2138 3103 
Q 1681 3103 1420 2742 
Q 1159 2381 1159 1747 
Q 1159 1113 1420 752 
Q 1681 391 2138 391 
Q 2594 391 2855 752 
Q 3116 1113 3116 1747 
z
" transform="scale(0.015625)"/>
      <path id="DejaVuSans-64" d="M 2906 2969 
L 2906 4863 
L 3481 4863 
L 3481 0 
L 2906 0 
L 2906 525 
Q 2725 213 2448 61 
Q 2172 -91 1784 -91 
Q 1150 -91 751 415 
Q 353 922 353 1747 
Q 353 2572 751 3078 
Q 1150 3584 1784 3584 
Q 2172 3584 2448 3432 
Q 2725 3281 2906 2969 
z
M 947 1747 
Q 947 1113 1208 752 
Q 1469 391 1925 391 
Q 2381 391 2643 752 
Q 2906 1113 2906 1747 
Q 2906 2381 2643 2742 
Q 2381 3103 1925 3103 
Q 1469 3103 1208 2742 
Q 947 2381 947 1747 
z
" transform="scale(0.015625)"/>
      <path id="DejaVuSans-3a" d="M 750 794 
L 1409 794 
L 1409 0 
L 750 0 
L 750 794 
z
M 750 3309 
L 1409 3309 
L 1409 2516 
L 750 2516 
L 750 3309 
z
" transform="scale(0.015625)"/>
     </defs>
     <use xlink:href="#DejaVuSans-4f"/>
     <use xlink:href="#DejaVuSans-76" x="78.710938"/>
     <use xlink:href="#DejaVuSans-65" x="137.890625"/>
     <use xlink:href="#DejaVuSans-72" x="199.414062"/>
     <use xlink:href="#DejaVuSans-6c" x="240.527344"/>
     <use xlink:href="#DejaVuSans-61" x="268.310547"/>
     <use xlink:href="#DejaVuSans-70" x="329.589844"/>
     <use xlink:href="#DejaVuSans-70" x="393.066406"/>
     <use xlink:href="#DejaVuSans-65" x="456.542969"/>
     <use xlink:href="#DejaVuSans-64" x="518.066406"/>
     <use xlink:href="#DejaVuSans-3a" x="581.542969"/>
     <use xlink:href="#DejaVuSans-20" x="615.234375"/>
    </g>
   </g>
  </g>
 </g>
 <defs>
  <clipPath id="pa509a52682">
   <rect x="48.49" y="25.44" width="588.71" height="80.78"/>
  </clipPath>
  <clipPath id="p586169a90e">
   <rect x="48.49" y="148.74" width="588.71" height="80.78"/>
  </clipPath>
  <clipPath id="p75295c8066">
   <rect x="48.49" y="272.04" width="588.71" height="80.78"/>
  </clipPath>
  <clipPath id="p9194c432ec">
   <rect x="48.49" y="395.34" width="588.71" height="80.78"/>
  </clipPath>
 </defs>
</svg>
