<?xml version="1.0" encoding="utf-8" standalone="no"?>
<!DOCTYPE svg PUBLIC "-//W3C//DTD SVG 1.1//EN"
  "http://www.w3.org/Graphics/SVG/1.1/DTD/svg11.dtd">
<svg xmlns:xlink="http://www.w3.org/1999/xlink" width="864pt" height="1008pt" viewBox="0 0 864 1008" xmlns="http://www.w3.org/2000/svg" version="1.1">
 <metadata>
  <rdf:RDF xmlns:dc="http://purl.org/dc/elements/1.1/" xmlns:cc="http://creativecommons.org/ns#" xmlns:rdf="http://www.w3.org/1999/02/22-rdf-syntax-ns#">
   <cc:Work>
    <dc:type rdf:resource="http://purl.org/dc/dcmitype/StillImage"/>
    <dc:date>2025-11-02T13:11:13.176245</dc:date>
    <dc:format>image/svg+xml</dc:format>
    <dc:creator>
     <cc:Agent>
      <dc:title>Matplotlib v3.6.3, https://matplotlib.org/</dc:title>
     </cc:Agent>
    </dc:creator>
   </cc:Work>
  </rdf:RDF>
 </metadata>
 <defs>
  <style type="text/css">*{stroke-linejoin: round; stroke-linecap: butt}</style>
 </defs>
 <g id="figure_1">
  <g id="patch_1">
   <path d="M 0 1008 
L 864 1008 
L 864 0 
L 0 0 
z
" style="fill: #ffffff"/>
  </g>
  <g id="axes_1">
   <g id="patch_2">
    <path d="M 42.1 481.52 
L 423.405 481.52 
L 423.405 25.44 
L 42.1 25.44 
z
" style="fill: #ffffff"/>
   </g>
   <g id="matplotlib.axis_1">
    <g id="xtick_1">
     <g id="line2d_1">
      <path d="M 67.243658 481.52 
L 67.243658 25.44 
" clip-path="url(#p0763fef4d8)" style="fill: none; stroke: #b0b0b0; stroke-width: 0.8; stroke-linecap: square"/>
     </g>
     <g id="line2d_2">
      <defs>
       <path id="m6a5252bc57" d="M 0 0 
L 0 3.5 
" style="stroke: #000000; stroke-width: 0.8"/>
      </defs>
      <g>
       <use xlink:href="#m6a5252bc57" x="67.243658" y="481.52" style="stroke: #000000; stroke-width: 0.8"/>
      </g>
     </g>
     <g id="text_1">
      <!-- −1.5 -->
      <g transform="translate(55.102251 496.118437) scale(0.1 -0.1)">
       <defs>
        <path id="DejaVuSans-2212" d="M 678 2272 
L 4684 2272 
L 4684 1741 
L 678 1741 
L 678 2272 
z
" transform="scale(0.015625)"/>
        <path id="DejaVuSans-31" d="M 794 531 
L 1825 531 
L 1825 4091 
L 703 3866 
L 703 4441 
L 1819 4666 
L 2450 4666 
L 2450 531 
L 3481 531 
L 3481 0 
L 794 0 
L 794 531 
z
" transform="scale(0.015625)"/>
        <path id="DejaVuSans-2e" d="M 684 794 
L 1344 794 
L 1344 0 
L 684 0 
L 684 794 
z
" transform="scale(0.015625)"/>
        <path id="DejaVuSans-35" d="M 691 4666 
L 3169 4666 
L 3169 4134 
L 1269 4134 
L 1269 2991 
Q 1406 3038 1543 3061 
Q 1681 3084 1819 3084 
Q 2600 3084 3056 2656 
Q 3513 2228 3513 1497 
Q 3513 744 3044 326 
Q 2575 -91 1722 -91 
Q 1428 -91 1123 -41 
Q 819 9 494 109 
L 494 744 
Q 775 591 1075 516 
Q 1375 441 1709 441 
Q 2250 441 2565 725 
Q 2881 1009 2881 1497 
Q 2881 1984 2565 2268 
Q 2250 2553 1709 2553 
Q 1456 2553 1204 2497 
Q 953 2441 691 2322 
L 691 4666 
z
" transform="scale(0.015625)"/>
       </defs>
       <use xlink:href="#DejaVuSans-2212"/>
       <use xlink:href="#DejaVuSans-31" x="83.789062"/>
       <use xlink:href="#DejaVuSans-2e" x="147.412109"/>
       <use xlink:href="#DejaVuSans-35" x="179.199219"/>
      </g>
     </g>
    </g>
    <g id="xtick_2">
     <g id="line2d_3">
      <path d="M 122.413272 481.52 
L 122.413272 25.44 
" clip-path="url(#p0763fef4d8)" style="fill: none; stroke: #b0b0b0; stroke-width: 0.8; stroke-linecap: square"/>
     </g>
     <g id="line2d_4">
      <g>
       <use xlink:href="#m6a5252bc57" x="122.413272" y="481.52" style="stroke: #000000; stroke-width: 0.8"/>
      </g>
     </g>
     <g id="text_2">
      <!-- −1.0 -->
      <g transform="translate(110.271865 496.118437) scale(0.1 -0.1)">
       <defs>
        <path id="DejaVuSans-30" d="M 2034 4250 
Q 1547 4250 1301 3770 
Q 1056 3291 1056 2328 
Q 1056 1369 1301 889 
Q 1547 409 2034 409 
Q 2525 409 2770 889 
Q 3016 1369 3016 2328 
Q 3016 3291 2770 3770 
Q 2525 4250 2034 4250 
z
M 2034 4750 
Q 2819 4750 3233 4129 
Q 3647 3509 3647 2328 
Q 3647 1150 3233 529 
Q 2819 -91 2034 -91 
Q 1250 -91 836 529 
Q 422 1150 422 2328 
Q 422 3509 836 4129 
Q 1250 4750 2034 4750 
z
" transform="scale(0.015625)"/>
       </defs>
       <use xlink:href="#DejaVuSans-2212"/>
       <use xlink:href="#DejaVuSans-31" x="83.789062"/>
       <use xlink:href="#DejaVuSans-2e" x="147.412109"/>
       <use xlink:href="#DejaVuSans-30" x="179.199219"/>
      </g>
     </g>
    </g>
    <g id="xtick_3">
     <g id="line2d_5">
      <path d="M 177.582886 481.52 
L 177.582886 25.44 
" clip-path="url(#p0763fef4d8)" style="fill: none; stroke: #b0b0b0; stroke-width: 0.8; stroke-linecap: square"/>
     </g>
     <g id="line2d_6">
      <g>
       <use xlink:href="#m6a5252bc57" x="177.582886" y="481.52" style="stroke: #000000; stroke-width: 0.8"/>
      </g>
     </g>
     <g id="text_3">
      <!-- −0.5 -->
      <g transform="translate(165.44148 496.118437) scale(0.1 -0.1)">
       <use xlink:href="#DejaVuSans-2212"/>
       <use xlink:href="#DejaVuSans-30" x="83.789062"/>
       <use xlink:href="#DejaVuSans-2e" x="147.412109"/>
       <use xlink:href="#DejaVuSans-35" x="179.199219"/>
      </g>
     </g>
    </g>
    <g id="xtick_4">
     <g id="line2d_7">
      <path d="M 232.7525 481.52 
L 232.7525 25.44 
" clip-path="url(#p0763fef4d8)" style="fill: none; stroke: #b0b0b0; stroke-width: 0.8; stroke-linecap: square"/>
     </g>
     <g id="line2d_8">
      <g>
       <use xlink:href="#m6a5252bc57" x="232.7525" y="481.52" style="stroke: #000000; stroke-width: 0.8"/>
      </g>
     </g>
     <g id="text_4">
      <!-- 0.0 -->
      <g transform="translate(224.800938 496.118437) scale(0.1 -0.1)">
       <use xlink:href="#DejaVuSans-30"/>
       <use xlink:href="#DejaVuSans-2e" x="63.623047"/>
       <use xlink:href="#DejaVuSans-30" x="95.410156"/>
      </g>
     </g>
    </g>
    <g id="xtick_5">
     <g id="line2d_9">
      <path d="M 287.922114 481.52 
L 287.922114 25.44 
" clip-path="url(#p0763fef4d8)" style="fill: none; stroke: #b0b0b0; stroke-width: 0.8; stroke-linecap: square"/>
     </g>
     <g id="line2d_10">
      <g>
       <use xlink:href="#m6a5252bc57" x="287.922114" y="481.52" style="stroke: #000000; stroke-width: 0.8"/>
      </g>
     </g>
     <g id="text_5">
      <!-- 0.5 -->
      <g transform="translate(279.970552 496.118437) scale(0.1 -0.1)">
       <use xlink:href="#DejaVuSans-30"/>
       <use xlink:href="#DejaVuSans-2e" x="63.623047"/>
       <use xlink:href="#DejaVuSans-35" x="95.410156"/>
      </g>
     </g>
    </g>
    <g id="xtick_6">
     <g id="line2d_11">
      <path d="M 343.091728 481.52 
L 343.091728 25.44 
" clip-path="url(#p0763fef4d8)" style="fill: none; stroke: #b0b0b0; stroke-width: 0.8; stroke-linecap: square"/>
     </g>
     <g id="line2d_12">
      <g>
       <use xlink:href="#m6a5252bc57" x="343.091728" y="481.52" style="stroke: #000000; stroke-width: 0.8"/>
      </g>
     </g>
     <g id="text_6">
      <!-- 1.0 -->
      <g transform="translate(335.140166 496.118437) scale(0.1 -0.1)">
       <use xlink:href="#DejaVuSans-31"/>
       <use xlink:href="#DejaVuSans-2e" x="63.623047"/>
       <use xlink:href="#DejaVuSans-30" x="95.410156"/>
      </g>
     </g>
    </g>
    <g id="xtick_7">
     <g id="line2d_13">
      <path d="M 398.261342 481.52 
L 398.261342 25.44 
" clip-path="url(#p0763fef4d8)" style="fill: none; stroke: #b0b0b0; stroke-width: 0.8; stroke-linecap: square"/>
     </g>
     <g id="line2d_14">
      <g>
       <use xlink:href="#m6a5252bc57" x="398.261342" y="481.52" style="stroke: #000000; stroke-width: 0.8"/>
      </g>
     </g>
     <g id="text_7">
      <!-- 1.5 -->
      <g transform="translate(390.30978 496.118437) scale(0.1 -0.1)">
       <use xlink:href="#DejaVuSans-31"/>
       <use xlink:href="#DejaVuSans-2e" x="63.623047"/>
       <use xlink:href="#DejaVuSans-35" x="95.410156"/>
      </g>
     </g>
    </g>
   </g>
   <g id="matplotlib.axis_2">
    <g id="ytick_1">
     <g id="line2d_15">
      <path d="M 42.1 451.445599 
L 423.405 451.445599 
" clip-path="url(#p0763fef4d8)" style="fill: none; stroke: #b0b0b0; stroke-width: 0.8; stroke-linecap: square"/>
     </g>
     <g id="line2d_16">
      <defs>
       <path id="m9ae7ec79cc" d="M 0 0 
L -3.5 0 
" style="stroke: #000000; stroke-width: 0.8"/>
      </defs>
      <g>
       <use xlink:href="#m9ae7ec79cc" x="42.1" y="451.445599" style="stroke: #000000; stroke-width: 0.8"/>
      </g>
     </g>
     <g id="text_8">
      <!-- −1.5 -->
      <g transform="translate(10.817188 455.244818) scale(0.1 -0.1)">
       <use xlink:href="#DejaVuSans-2212"/>
       <use xlink:href="#DejaVuSans-31" x="83.789062"/>
       <use xlink:href="#DejaVuSans-2e" x="147.412109"/>
       <use xlink:href="#DejaVuSans-35" x="179.199219"/>
      </g>
     </g>
    </g>
    <g id="ytick_2">
     <g id="line2d_17">
      <path d="M 42.1 385.457066 
L 423.405 385.457066 
" clip-path="url(#p0763fef4d8)" style="fill: none; stroke: #b0b0b0; stroke-width: 0.8; stroke-linecap: square"/>
     </g>
     <g id="line2d_18">
      <g>
       <use xlink:href="#m9ae7ec79cc" x="42.1" y="385.457066" style="stroke: #000000; stroke-width: 0.8"/>
      </g>
     </g>
     <g id="text_9">
      <!-- −1.0 -->
      <g transform="translate(10.817188 389.256285) scale(0.1 -0.1)">
       <use xlink:href="#DejaVuSans-2212"/>
       <use xlink:href="#DejaVuSans-31" x="83.789062"/>
       <use xlink:href="#DejaVuSans-2e" x="147.412109"/>
       <use xlink:href="#DejaVuSans-30" x="179.199219"/>
      </g>
     </g>
    </g>
    <g id="ytick_3">
     <g id="line2d_19">
      <path d="M 42.1 319.468533 
L 423.405 319.468533 
" clip-path="url(#p0763fef4d8)" style="fill: none; stroke: #b0b0b0; stroke-width: 0.8; stroke-linecap: square"/>
     </g>
     <g id="line2d_20">
      <g>
       <use xlink:href="#m9ae7ec79cc" x="42.1" y="319.468533" style="stroke: #000000; stroke-width: 0.8"/>
      </g>
     </g>
     <g id="text_10">
      <!-- −0.5 -->
      <g transform="translate(10.817188 323.267752) scale(0.1 -0.1)">
       <use xlink:href="#DejaVuSans-2212"/>
       <use xlink:href="#DejaVuSans-30" x="83.789062"/>
       <use xlink:href="#DejaVuSans-2e" x="147.412109"/>
       <use xlink:href="#DejaVuSans-35" x="179.199219"/>
      </g>
     </g>
    </g>
    <g id="ytick_4">
     <g id="line2d_21">
      <path d="M 42.1 253.48 
L 423.405 253.48 
" clip-path="url(#p0763fef4d8)" style="fill: none; stroke: #b0b0b0; stroke-width: 0.8; stroke-linecap: square"/>
     </g>
     <g id="line2d_22">
      <g>
       <use xlink:href="#m9ae7ec79cc" x="42.1" y="253.48" style="stroke: #000000; stroke-width: 0.8"/>
      </g>
     </g>
     <g id="text_11">
      <!-- 0.0 -->
      <g transform="translate(19.196875 257.279219) scale(0.1 -0.1)">
       <use xlink:href="#DejaVuSans-30"/>
       <use xlink:href="#DejaVuSans-2e" x="63.623047"/>
       <use xlink:href="#DejaVuSans-30" x="95.410156"/>
      </g>
     </g>
    </g>
    <g id="ytick_5">
     <g id="line2d_23">
      <path d="M 42.1 187.491467 
L 423.405 187.491467 
" clip-path="url(#p0763fef4d8)" style="fill: none; stroke: #b0b0b0; stroke-width: 0.8; stroke-linecap: square"/>
     </g>
     <g id="line2d_24">
      <g>
       <use xlink:href="#m9ae7ec79cc" x="42.1" y="187.491467" style="stroke: #000000; stroke-width: 0.8"/>
      </g>
     </g>
     <g id="text_12">
      <!-- 0.5 -->
      <g transform="translate(19.196875 191.290686) scale(0.1 -0.1)">
       <use xlink:href="#DejaVuSans-30"/>
       <use xlink:href="#DejaVuSans-2e" x="63.623047"/>
       <use xlink:href="#DejaVuSans-35" x="95.410156"/>
      </g>
     </g>
    </g>
    <g id="ytick_6">
     <g id="line2d_25">
      <path d="M 42.1 121.502934 
L 423.405 121.502934 
" clip-path="url(#p0763fef4d8)" style="fill: none; stroke: #b0b0b0; stroke-width: 0.8; stroke-linecap: square"/>
     </g>
     <g id="line2d_26">
      <g>
       <use xlink:href="#m9ae7ec79cc" x="42.1" y="121.502934" style="stroke: #000000; stroke-width: 0.8"/>
      </g>
     </g>
     <g id="text_13">
      <!-- 1.0 -->
      <g transform="translate(19.196875 125.302152) scale(0.1 -0.1)">
       <use xlink:href="#DejaVuSans-31"/>
       <use xlink:href="#DejaVuSans-2e" x="63.623047"/>
       <use xlink:href="#DejaVuSans-30" x="95.410156"/>
      </g>
     </g>
    </g>
    <g id="ytick_7">
     <g id="line2d_27">
      <path d="M 42.1 55.514401 
L 423.405 55.514401 
" clip-path="url(#p0763fef4d8)" style="fill: none; stroke: #b0b0b0; stroke-width: 0.8; stroke-linecap: square"/>
     </g>
     <g id="line2d_28">
      <g>
       <use xlink:href="#m9ae7ec79cc" x="42.1" y="55.514401" style="stroke: #000000; stroke-width: 0.8"/>
      </g>
     </g>
     <g id="text_14">
      <!-- 1.5 -->
      <g transform="translate(19.196875 59.313619) scale(0.1 -0.1)">
       <use xlink:href="#DejaVuSans-31"/>
       <use xlink:href="#DejaVuSans-2e" x="63.623047"/>
       <use xlink:href="#DejaVuSans-35" x="95.410156"/>
      </g>
     </g>
    </g>
   </g>
   <g id="line2d_29">
    <path d="M 59.432045 385.457066 
L 63.959221 385.345995 
L 68.493329 385.012288 
L 73.041304 384.454468 
L 77.613543 383.669406 
L 82.220447 382.65233 
L 86.872414 381.396852 
L 91.576378 379.896183 
L 96.342739 378.141309 
L 101.18536 376.120182 
L 106.111177 373.822044 
L 111.134054 371.231726 
L 116.264391 368.334177 
L 121.516053 365.111028 
L 126.906373 361.539914 
L 132.449217 357.598955 
L 138.168849 353.257024 
L 144.082602 348.48603 
L 150.221674 343.244814 
L 156.620729 337.486191 
L 163.324831 331.150412 
L 170.39291 324.160717 
L 177.904694 316.415113 
L 185.988441 307.755066 
L 194.845204 297.934354 
L 204.856294 286.492404 
L 216.94725 272.320122 
L 236.338536 249.191487 
L 255.241054 226.767217 
L 266.798177 213.400964 
L 276.483421 202.531983 
L 285.114866 193.173692 
L 293.028757 184.916153 
L 300.408816 177.53248 
L 307.365969 170.88236 
L 313.976477 164.867334 
L 320.29927 159.411328 
L 326.37248 154.46124 
L 332.23077 149.970339 
L 337.898405 145.903098 
L 343.399651 142.226563 
L 348.751841 138.914928 
L 353.968838 135.946264 
L 359.067977 133.298488 
L 364.063123 130.953502 
L 368.964674 128.896483 
L 373.783031 127.113943 
L 378.532059 125.592797 
L 383.222157 124.322995 
L 387.860259 123.29672 
L 392.456763 122.506552 
L 397.02207 121.946693 
L 401.566578 121.612987 
L 406.072955 121.502934 
L 406.072955 121.502934 
" clip-path="url(#p0763fef4d8)" style="fill: none; stroke: #800080; stroke-width: 1.5; stroke-linecap: square"/>
   </g>
   <g id="line2d_30">
    <path d="M 59.432045 460.789091 
L 406.072955 46.170909 
L 406.072955 46.170909 
" clip-path="url(#p0763fef4d8)" style="fill: none; stroke: #bfbf00; stroke-width: 1.5; stroke-linecap: square"/>
   </g>
   <g id="line2d_31">
    <path d="M 59.432045 178.147975 
L 65.085815 184.737249 
L 70.659857 190.894902 
L 76.164569 196.647191 
L 81.606886 202.015125 
L 86.997206 207.021707 
L 92.345929 211.688036 
L 97.656521 216.027876 
L 102.942847 220.062344 
L 108.211842 223.805322 
L 113.473904 227.271944 
L 118.739432 230.475769 
L 124.022292 233.430748 
L 129.332884 236.147148 
L 134.685073 238.635597 
L 140.096192 240.906468 
L 145.580106 242.966898 
L 151.16108 244.826145 
L 156.859914 246.490006 
L 162.707804 247.965219 
L 168.742883 249.257376 
L 175.006747 250.369945 
L 181.565258 251.307458 
L 188.508545 252.073217 
L 195.975265 252.670006 
L 204.201136 253.100175 
L 213.685326 253.366664 
L 226.005067 253.474971 
L 248.637479 253.414436 
L 259.442384 253.169596 
L 268.236752 252.75219 
L 276.029317 252.163011 
L 283.184057 251.40161 
L 289.888159 250.466614 
L 296.256016 249.355653 
L 302.36389 248.065586 
L 308.263778 246.593203 
L 313.997276 244.933993 
L 319.599049 243.081926 
L 325.093362 241.031463 
L 330.501014 238.77617 
L 335.842804 236.307391 
L 341.136064 233.615743 
L 346.391192 230.693644 
L 351.625522 227.528056 
L 356.849453 224.108019 
L 362.073384 220.421159 
L 367.307714 216.45358 
L 372.559376 212.192662 
L 377.842237 207.618642 
L 383.163228 202.715792 
L 388.529283 197.467317 
L 393.950801 191.851651 
L 399.434715 185.849221 
L 404.991424 179.435257 
L 406.072955 178.147975 
L 406.072955 178.147975 
" clip-path="url(#p0763fef4d8)" style="fill: none; stroke: #008000; stroke-width: 1.5; stroke-linecap: square"/>
   </g>
   <g id="patch_3">
    <path d="M 42.1 481.52 
L 42.1 25.44 
" style="fill: none; stroke: #000000; stroke-width: 0.8; stroke-linejoin: miter; stroke-linecap: square"/>
   </g>
   <g id="patch_4">
    <path d="M 423.405 481.52 
L 423.405 25.44 
" style="fill: none; stroke: #000000; stroke-width: 0.8; stroke-linejoin: miter; stroke-linecap: square"/>
   </g>
   <g id="patch_5">
    <path d="M 42.1 481.52 
L 423.405 481.52 
" style="fill: none; stroke: #000000; stroke-width: 0.8; stroke-linejoin: miter; stroke-linecap: square"/>
   </g>
   <g id="patch_6">
    <path d="M 42.1 25.44 
L 423.405 25.44 
" style="fill: none; stroke: #000000; stroke-width: 0.8; stroke-linejoin: miter; stroke-linecap: square"/>
   </g>
   <g id="text_15">
    <!-- sin(x) vs x -->
    <g transform="translate(201.8825 19.44) scale(0.12 -0.12)">
     <defs>
      <path id="DejaVuSans-73" d="M 2834 3397 
L 2834 2853 
Q 2591 2978 2328 3040 
Q 2066 3103 1784 3103 
Q 1356 3103 1142 2972 
Q 928 2841 928 2578 
Q 928 2378 1081 2264 
Q 1234 2150 1697 2047 
L 1894 2003 
Q 2506 1872 2764 1633 
Q 3022 1394 3022 966 
Q 3022 478 2636 193 
Q 2250 -91 1575 -91 
Q 1294 -91 989 -36 
Q 684 19 347 128 
L 347 722 
Q 666 556 975 473 
Q 1284 391 1588 391 
Q 1994 391 2212 530 
Q 2431 669 2431 922 
Q 2431 1156 2273 1281 
Q 2116 1406 1581 1522 
L 1381 1569 
Q 847 1681 609 1914 
Q 372 2147 372 2553 
Q 372 3047 722 3315 
Q 1072 3584 1716 3584 
Q 2034 3584 2315 3537 
Q 2597 3491 2834 3397 
z
" transform="scale(0.015625)"/>
      <path id="DejaVuSans-69" d="M 603 3500 
L 1178 3500 
L 1178 0 
L 603 0 
L 603 3500 
z
M 603 4863 
L 1178 4863 
L 1178 4134 
L 603 4134 
L 603 4863 
z
" transform="scale(0.015625)"/>
      <path id="DejaVuSans-6e" d="M 3513 2113 
L 3513 0 
L 2938 0 
L 2938 2094 
Q 2938 2591 2744 2837 
Q 2550 3084 2163 3084 
Q 1697 3084 1428 2787 
Q 1159 2491 1159 1978 
L 1159 0 
L 581 0 
L 581 3500 
L 1159 3500 
L 1159 2956 
Q 1366 3272 1645 3428 
Q 1925 3584 2291 3584 
Q 2894 3584 3203 3211 
Q 3513 2838 3513 2113 
z
" transform="scale(0.015625)"/>
      <path id="DejaVuSans-28" d="M 1984 4856 
Q 1566 4138 1362 3434 
Q 1159 2731 1159 2009 
Q 1159 1288 1364 580 
Q 1569 -128 1984 -844 
L 1484 -844 
Q 1016 -109 783 600 
Q 550 1309 550 2009 
Q 550 2706 781 3412 
Q 1013 4119 1484 4856 
L 1984 4856 
z
" transform="scale(0.015625)"/>
      <path id="DejaVuSans-78" d="M 3513 3500 
L 2247 1797 
L 3578 0 
L 2900 0 
L 1881 1375 
L 863 0 
L 184 0 
L 1544 1831 
L 300 3500 
L 978 3500 
L 1906 2253 
L 2834 3500 
L 3513 3500 
z
" transform="scale(0.015625)"/>
      <path id="DejaVuSans-29" d="M 513 4856 
L 1013 4856 
Q 1481 4119 1714 3412 
Q 1947 2706 1947 2009 
Q 1947 1309 1714 600 
Q 1481 -109 1013 -844 
L 513 -844 
Q 928 -128 1133 580 
Q 1338 1288 1338 2009 
Q 1338 2731 1133 3434 
Q 928 4138 513 4856 
z
" transform="scale(0.015625)"/>
      <path id="DejaVuSans-20" transform="scale(0.015625)"/>
      <path id="DejaVuSans-76" d="M 191 3500 
L 800 3500 
L 1894 563 
L 2988 3500 
L 3597 3500 
L 2284 0 
L 1503 0 
L 191 3500 
z
" transform="scale(0.015625)"/>
     </defs>
     <use xlink:href="#DejaVuSans-73"/>
     <use xlink:href="#DejaVuSans-69" x="52.099609"/>
     <use xlink:href="#DejaVuSans-6e" x="79.882812"/>
     <use xlink:href="#DejaVuSans-28" x="143.261719"/>
     <use xlink:href="#DejaVuSans-78" x="182.275391"/>
     <use xlink:href="#DejaVuSans-29" x="241.455078"/>
     <use xlink:href="#DejaVuSans-20" x="280.46875"/>
     <use xlink:href="#DejaVuSans-76" x="312.255859"/>
     <use xlink:href="#DejaVuSans-73" x="371.435547"/>
     <use xlink:href="#DejaVuSans-20" x="423.535156"/>
     <use xlink:href="#DejaVuSans-78" x="455.322266"/>
    </g>
   </g>
   <g id="legend_1">
    <g id="patch_7">
     <path d="M 49.1 77.79625 
L 125.410938 77.79625 
Q 127.410938 77.79625 127.410938 75.79625 
L 127.410938 32.44 
Q 127.410938 30.44 125.410938 30.44 
L 49.1 30.44 
Q 47.1 30.44 47.1 32.44 
L 47.1 75.79625 
Q 47.1 77.79625 49.1 77.79625 
z
" style="fill: #ffffff; opacity: 0.8; stroke: #cccccc; stroke-linejoin: miter"/>
    </g>
    <g id="line2d_32">
     <path d="M 51.1 38.538438 
L 61.1 38.538438 
L 71.1 38.538438 
" style="fill: none; stroke: #800080; stroke-width: 1.5; stroke-linecap: square"/>
    </g>
    <g id="text_16">
     <!-- sin(x) -->
     <g transform="translate(79.1 42.038438) scale(0.1 -0.1)">
      <use xlink:href="#DejaVuSans-73"/>
      <use xlink:href="#DejaVuSans-69" x="52.099609"/>
      <use xlink:href="#DejaVuSans-6e" x="79.882812"/>
      <use xlink:href="#DejaVuSans-28" x="143.261719"/>
      <use xlink:href="#DejaVuSans-78" x="182.275391"/>
      <use xlink:href="#DejaVuSans-29" x="241.455078"/>
     </g>
    </g>
    <g id="line2d_33">
     <path d="M 51.1 53.216563 
L 61.1 53.216563 
L 71.1 53.216563 
" style="fill: none; stroke: #bfbf00; stroke-width: 1.5; stroke-linecap: square"/>
    </g>
    <g id="text_17">
     <!-- x -->
     <g transform="translate(79.1 56.716563) scale(0.1 -0.1)">
      <use xlink:href="#DejaVuSans-78"/>
     </g>
    </g>
    <g id="line2d_34">
     <path d="M 51.1 67.938438 
L 61.1 67.938438 
L 71.1 67.938438 
" style="fill: none; stroke: #008000; stroke-width: 1.5; stroke-linecap: square"/>
    </g>
    <g id="text_18">
     <!-- |sin(x)-x| -->
     <g transform="translate(79.1 71.438438) scale(0.1 -0.1)">
      <defs>
       <path id="DejaVuSans-7c" d="M 1344 4891 
L 1344 -1509 
L 813 -1509 
L 813 4891 
L 1344 4891 
z
" transform="scale(0.015625)"/>
       <path id="DejaVuSans-2d" d="M 313 2009 
L 1997 2009 
L 1997 1497 
L 313 1497 
L 313 2009 
z
" transform="scale(0.015625)"/>
      </defs>
      <use xlink:href="#DejaVuSans-7c"/>
      <use xlink:href="#DejaVuSans-73" x="33.691406"/>
      <use xlink:href="#DejaVuSans-69" x="85.791016"/>
      <use xlink:href="#DejaVuSans-6e" x="113.574219"/>
      <use xlink:href="#DejaVuSans-28" x="176.953125"/>
      <use xlink:href="#DejaVuSans-78" x="215.966797"/>
      <use xlink:href="#DejaVuSans-29" x="275.146484"/>
      <use xlink:href="#DejaVuSans-2d" x="314.160156"/>
      <use xlink:href="#DejaVuSans-78" x="350.244141"/>
      <use xlink:href="#DejaVuSans-7c" x="409.423828"/>
     </g>
    </g>
   </g>
  </g>
  <g id="axes_2">
   <g id="patch_8">
    <path d="M 471.895 481.52 
L 853.2 481.52 
L 853.2 25.44 
L 471.895 25.44 
z
" style="fill: #ffffff"/>
   </g>
   <g id="matplotlib.axis_3">
    <g id="xtick_8">
     <g id="line2d_35">
      <path d="M 497.038658 481.52 
L 497.038658 25.44 
" clip-path="url(#p1e94213ff9)" style="fill: none; stroke: #b0b0b0; stroke-width: 0.8; stroke-linecap: square"/>
     </g>
     <g id="line2d_36">
      <g>
       <use xlink:href="#m6a5252bc57" x="497.038658" y="481.52" style="stroke: #000000; stroke-width: 0.8"/>
      </g>
     </g>
     <g id="text_19">
      <!-- −1.5 -->
      <g transform="translate(484.897251 496.118437) scale(0.1 -0.1)">
       <use xlink:href="#DejaVuSans-2212"/>
       <use xlink:href="#DejaVuSans-31" x="83.789062"/>
       <use xlink:href="#DejaVuSans-2e" x="147.412109"/>
       <use xlink:href="#DejaVuSans-35" x="179.199219"/>
      </g>
     </g>
    </g>
    <g id="xtick_9">
     <g id="line2d_37">
      <path d="M 552.208272 481.52 
L 552.208272 25.44 
" clip-path="url(#p1e94213ff9)" style="fill: none; stroke: #b0b0b0; stroke-width: 0.8; stroke-linecap: square"/>
     </g>
     <g id="line2d_38">
      <g>
       <use xlink:href="#m6a5252bc57" x="552.208272" y="481.52" style="stroke: #000000; stroke-width: 0.8"/>
      </g>
     </g>
     <g id="text_20">
      <!-- −1.0 -->
      <g transform="translate(540.066865 496.118437) scale(0.1 -0.1)">
       <use xlink:href="#DejaVuSans-2212"/>
       <use xlink:href="#DejaVuSans-31" x="83.789062"/>
       <use xlink:href="#DejaVuSans-2e" x="147.412109"/>
       <use xlink:href="#DejaVuSans-30" x="179.199219"/>
      </g>
     </g>
    </g>
    <g id="xtick_10">
     <g id="line2d_39">
      <path d="M 607.377886 481.52 
L 607.377886 25.44 
" clip-path="url(#p1e94213ff9)" style="fill: none; stroke: #b0b0b0; stroke-width: 0.8; stroke-linecap: square"/>
     </g>
     <g id="line2d_40">
      <g>
       <use xlink:href="#m6a5252bc57" x="607.377886" y="481.52" style="stroke: #000000; stroke-width: 0.8"/>
      </g>
     </g>
     <g id="text_21">
      <!-- −0.5 -->
      <g transform="translate(595.23648 496.118437) scale(0.1 -0.1)">
       <use xlink:href="#DejaVuSans-2212"/>
       <use xlink:href="#DejaVuSans-30" x="83.789062"/>
       <use xlink:href="#DejaVuSans-2e" x="147.412109"/>
       <use xlink:href="#DejaVuSans-35" x="179.199219"/>
      </g>
     </g>
    </g>
    <g id="xtick_11">
     <g id="line2d_41">
      <path d="M 662.5475 481.52 
L 662.5475 25.44 
" clip-path="url(#p1e94213ff9)" style="fill: none; stroke: #b0b0b0; stroke-width: 0.8; stroke-linecap: square"/>
     </g>
     <g id="line2d_42">
      <g>
       <use xlink:href="#m6a5252bc57" x="662.5475" y="481.52" style="stroke: #000000; stroke-width: 0.8"/>
      </g>
     </g>
     <g id="text_22">
      <!-- 0.0 -->
      <g transform="translate(654.595937 496.118437) scale(0.1 -0.1)">
       <use xlink:href="#DejaVuSans-30"/>
       <use xlink:href="#DejaVuSans-2e" x="63.623047"/>
       <use xlink:href="#DejaVuSans-30" x="95.410156"/>
      </g>
     </g>
    </g>
    <g id="xtick_12">
     <g id="line2d_43">
      <path d="M 717.717114 481.52 
L 717.717114 25.44 
" clip-path="url(#p1e94213ff9)" style="fill: none; stroke: #b0b0b0; stroke-width: 0.8; stroke-linecap: square"/>
     </g>
     <g id="line2d_44">
      <g>
       <use xlink:href="#m6a5252bc57" x="717.717114" y="481.52" style="stroke: #000000; stroke-width: 0.8"/>
      </g>
     </g>
     <g id="text_23">
      <!-- 0.5 -->
      <g transform="translate(709.765552 496.118437) scale(0.1 -0.1)">
       <use xlink:href="#DejaVuSans-30"/>
       <use xlink:href="#DejaVuSans-2e" x="63.623047"/>
       <use xlink:href="#DejaVuSans-35" x="95.410156"/>
      </g>
     </g>
    </g>
    <g id="xtick_13">
     <g id="line2d_45">
      <path d="M 772.886728 481.52 
L 772.886728 25.44 
" clip-path="url(#p1e94213ff9)" style="fill: none; stroke: #b0b0b0; stroke-width: 0.8; stroke-linecap: square"/>
     </g>
     <g id="line2d_46">
      <g>
       <use xlink:href="#m6a5252bc57" x="772.886728" y="481.52" style="stroke: #000000; stroke-width: 0.8"/>
      </g>
     </g>
     <g id="text_24">
      <!-- 1.0 -->
      <g transform="translate(764.935166 496.118437) scale(0.1 -0.1)">
       <use xlink:href="#DejaVuSans-31"/>
       <use xlink:href="#DejaVuSans-2e" x="63.623047"/>
       <use xlink:href="#DejaVuSans-30" x="95.410156"/>
      </g>
     </g>
    </g>
    <g id="xtick_14">
     <g id="line2d_47">
      <path d="M 828.056342 481.52 
L 828.056342 25.44 
" clip-path="url(#p1e94213ff9)" style="fill: none; stroke: #b0b0b0; stroke-width: 0.8; stroke-linecap: square"/>
     </g>
     <g id="line2d_48">
      <g>
       <use xlink:href="#m6a5252bc57" x="828.056342" y="481.52" style="stroke: #000000; stroke-width: 0.8"/>
      </g>
     </g>
     <g id="text_25">
      <!-- 1.5 -->
      <g transform="translate(820.10478 496.118437) scale(0.1 -0.1)">
       <use xlink:href="#DejaVuSans-31"/>
       <use xlink:href="#DejaVuSans-2e" x="63.623047"/>
       <use xlink:href="#DejaVuSans-35" x="95.410156"/>
      </g>
     </g>
    </g>
   </g>
   <g id="matplotlib.axis_4">
    <g id="ytick_8">
     <g id="line2d_49">
      <path d="M 471.895 460.789091 
L 853.2 460.789091 
" clip-path="url(#p1e94213ff9)" style="fill: none; stroke: #b0b0b0; stroke-width: 0.8; stroke-linecap: square"/>
     </g>
     <g id="line2d_50">
      <g>
       <use xlink:href="#m9ae7ec79cc" x="471.895" y="460.789091" style="stroke: #000000; stroke-width: 0.8"/>
      </g>
     </g>
     <g id="text_26">
      <!-- −1.00 -->
      <g transform="translate(434.249687 464.58831) scale(0.1 -0.1)">
       <use xlink:href="#DejaVuSans-2212"/>
       <use xlink:href="#DejaVuSans-31" x="83.789062"/>
       <use xlink:href="#DejaVuSans-2e" x="147.412109"/>
       <use xlink:href="#DejaVuSans-30" x="179.199219"/>
       <use xlink:href="#DejaVuSans-30" x="242.822266"/>
      </g>
     </g>
    </g>
    <g id="ytick_9">
     <g id="line2d_51">
      <path d="M 471.895 408.961818 
L 853.2 408.961818 
" clip-path="url(#p1e94213ff9)" style="fill: none; stroke: #b0b0b0; stroke-width: 0.8; stroke-linecap: square"/>
     </g>
     <g id="line2d_52">
      <g>
       <use xlink:href="#m9ae7ec79cc" x="471.895" y="408.961818" style="stroke: #000000; stroke-width: 0.8"/>
      </g>
     </g>
     <g id="text_27">
      <!-- −0.75 -->
      <g transform="translate(434.249687 412.761037) scale(0.1 -0.1)">
       <defs>
        <path id="DejaVuSans-37" d="M 525 4666 
L 3525 4666 
L 3525 4397 
L 1831 0 
L 1172 0 
L 2766 4134 
L 525 4134 
L 525 4666 
z
" transform="scale(0.015625)"/>
       </defs>
       <use xlink:href="#DejaVuSans-2212"/>
       <use xlink:href="#DejaVuSans-30" x="83.789062"/>
       <use xlink:href="#DejaVuSans-2e" x="147.412109"/>
       <use xlink:href="#DejaVuSans-37" x="179.199219"/>
       <use xlink:href="#DejaVuSans-35" x="242.822266"/>
      </g>
     </g>
    </g>
    <g id="ytick_10">
     <g id="line2d_53">
      <path d="M 471.895 357.134545 
L 853.2 357.134545 
" clip-path="url(#p1e94213ff9)" style="fill: none; stroke: #b0b0b0; stroke-width: 0.8; stroke-linecap: square"/>
     </g>
     <g id="line2d_54">
      <g>
       <use xlink:href="#m9ae7ec79cc" x="471.895" y="357.134545" style="stroke: #000000; stroke-width: 0.8"/>
      </g>
     </g>
     <g id="text_28">
      <!-- −0.50 -->
      <g transform="translate(434.249687 360.933764) scale(0.1 -0.1)">
       <use xlink:href="#DejaVuSans-2212"/>
       <use xlink:href="#DejaVuSans-30" x="83.789062"/>
       <use xlink:href="#DejaVuSans-2e" x="147.412109"/>
       <use xlink:href="#DejaVuSans-35" x="179.199219"/>
       <use xlink:href="#DejaVuSans-30" x="242.822266"/>
      </g>
     </g>
    </g>
    <g id="ytick_11">
     <g id="line2d_55">
      <path d="M 471.895 305.307273 
L 853.2 305.307273 
" clip-path="url(#p1e94213ff9)" style="fill: none; stroke: #b0b0b0; stroke-width: 0.8; stroke-linecap: square"/>
     </g>
     <g id="line2d_56">
      <g>
       <use xlink:href="#m9ae7ec79cc" x="471.895" y="305.307273" style="stroke: #000000; stroke-width: 0.8"/>
      </g>
     </g>
     <g id="text_29">
      <!-- −0.25 -->
      <g transform="translate(434.249687 309.106491) scale(0.1 -0.1)">
       <defs>
        <path id="DejaVuSans-32" d="M 1228 531 
L 3431 531 
L 3431 0 
L 469 0 
L 469 531 
Q 828 903 1448 1529 
Q 2069 2156 2228 2338 
Q 2531 2678 2651 2914 
Q 2772 3150 2772 3378 
Q 2772 3750 2511 3984 
Q 2250 4219 1831 4219 
Q 1534 4219 1204 4116 
Q 875 4013 500 3803 
L 500 4441 
Q 881 4594 1212 4672 
Q 1544 4750 1819 4750 
Q 2544 4750 2975 4387 
Q 3406 4025 3406 3419 
Q 3406 3131 3298 2873 
Q 3191 2616 2906 2266 
Q 2828 2175 2409 1742 
Q 1991 1309 1228 531 
z
" transform="scale(0.015625)"/>
       </defs>
       <use xlink:href="#DejaVuSans-2212"/>
       <use xlink:href="#DejaVuSans-30" x="83.789062"/>
       <use xlink:href="#DejaVuSans-2e" x="147.412109"/>
       <use xlink:href="#DejaVuSans-32" x="179.199219"/>
       <use xlink:href="#DejaVuSans-35" x="242.822266"/>
      </g>
     </g>
    </g>
    <g id="ytick_12">
     <g id="line2d_57">
      <path d="M 471.895 253.48 
L 853.2 253.48 
" clip-path="url(#p1e94213ff9)" style="fill: none; stroke: #b0b0b0; stroke-width: 0.8; stroke-linecap: square"/>
     </g>
     <g id="line2d_58">
      <g>
       <use xlink:href="#m9ae7ec79cc" x="471.895" y="253.48" style="stroke: #000000; stroke-width: 0.8"/>
      </g>
     </g>
     <g id="text_30">
      <!-- 0.00 -->
      <g transform="translate(442.629375 257.279219) scale(0.1 -0.1)">
       <use xlink:href="#DejaVuSans-30"/>
       <use xlink:href="#DejaVuSans-2e" x="63.623047"/>
       <use xlink:href="#DejaVuSans-30" x="95.410156"/>
       <use xlink:href="#DejaVuSans-30" x="159.033203"/>
      </g>
     </g>
    </g>
    <g id="ytick_13">
     <g id="line2d_59">
      <path d="M 471.895 201.652727 
L 853.2 201.652727 
" clip-path="url(#p1e94213ff9)" style="fill: none; stroke: #b0b0b0; stroke-width: 0.8; stroke-linecap: square"/>
     </g>
     <g id="line2d_60">
      <g>
       <use xlink:href="#m9ae7ec79cc" x="471.895" y="201.652727" style="stroke: #000000; stroke-width: 0.8"/>
      </g>
     </g>
     <g id="text_31">
      <!-- 0.25 -->
      <g transform="translate(442.629375 205.451946) scale(0.1 -0.1)">
       <use xlink:href="#DejaVuSans-30"/>
       <use xlink:href="#DejaVuSans-2e" x="63.623047"/>
       <use xlink:href="#DejaVuSans-32" x="95.410156"/>
       <use xlink:href="#DejaVuSans-35" x="159.033203"/>
      </g>
     </g>
    </g>
    <g id="ytick_14">
     <g id="line2d_61">
      <path d="M 471.895 149.825455 
L 853.2 149.825455 
" clip-path="url(#p1e94213ff9)" style="fill: none; stroke: #b0b0b0; stroke-width: 0.8; stroke-linecap: square"/>
     </g>
     <g id="line2d_62">
      <g>
       <use xlink:href="#m9ae7ec79cc" x="471.895" y="149.825455" style="stroke: #000000; stroke-width: 0.8"/>
      </g>
     </g>
     <g id="text_32">
      <!-- 0.50 -->
      <g transform="translate(442.629375 153.624673) scale(0.1 -0.1)">
       <use xlink:href="#DejaVuSans-30"/>
       <use xlink:href="#DejaVuSans-2e" x="63.623047"/>
       <use xlink:href="#DejaVuSans-35" x="95.410156"/>
       <use xlink:href="#DejaVuSans-30" x="159.033203"/>
      </g>
     </g>
    </g>
    <g id="ytick_15">
     <g id="line2d_63">
      <path d="M 471.895 97.998182 
L 853.2 97.998182 
" clip-path="url(#p1e94213ff9)" style="fill: none; stroke: #b0b0b0; stroke-width: 0.8; stroke-linecap: square"/>
     </g>
     <g id="line2d_64">
      <g>
       <use xlink:href="#m9ae7ec79cc" x="471.895" y="97.998182" style="stroke: #000000; stroke-width: 0.8"/>
      </g>
     </g>
     <g id="text_33">
      <!-- 0.75 -->
      <g transform="translate(442.629375 101.797401) scale(0.1 -0.1)">
       <use xlink:href="#DejaVuSans-30"/>
       <use xlink:href="#DejaVuSans-2e" x="63.623047"/>
       <use xlink:href="#DejaVuSans-37" x="95.410156"/>
       <use xlink:href="#DejaVuSans-35" x="159.033203"/>
      </g>
     </g>
    </g>
    <g id="ytick_16">
     <g id="line2d_65">
      <path d="M 471.895 46.170909 
L 853.2 46.170909 
" clip-path="url(#p1e94213ff9)" style="fill: none; stroke: #b0b0b0; stroke-width: 0.8; stroke-linecap: square"/>
     </g>
     <g id="line2d_66">
      <g>
       <use xlink:href="#m9ae7ec79cc" x="471.895" y="46.170909" style="stroke: #000000; stroke-width: 0.8"/>
      </g>
     </g>
     <g id="text_34">
      <!-- 1.00 -->
      <g transform="translate(442.629375 49.970128) scale(0.1 -0.1)">
       <use xlink:href="#DejaVuSans-31"/>
       <use xlink:href="#DejaVuSans-2e" x="63.623047"/>
       <use xlink:href="#DejaVuSans-30" x="95.410156"/>
       <use xlink:href="#DejaVuSans-30" x="159.033203"/>
      </g>
     </g>
    </g>
   </g>
   <g id="line2d_67">
    <path d="M 489.227045 460.789091 
L 492.83908 460.678022 
L 496.458047 460.344081 
L 500.09088 459.785067 
L 503.744512 458.997316 
L 507.429342 457.974627 
L 511.152302 456.709765 
L 514.923793 455.192533 
L 518.754213 453.410409 
L 522.64703 451.352432 
L 526.612641 449.002769 
L 530.661448 446.343306 
L 534.800382 443.356283 
L 539.036376 440.022641 
L 543.37983 436.319026 
L 547.841143 432.220051 
L 552.430714 427.69842 
L 557.16241 422.721334 
L 562.046629 417.257532 
L 567.097238 411.27029 
L 572.331568 404.716622 
L 577.770418 397.54661 
L 583.44152 389.69799 
L 589.372606 381.105036 
L 595.601805 371.683702 
L 602.184582 361.31893 
L 609.197197 349.85616 
L 616.747112 337.081458 
L 625.011114 322.652188 
L 634.311582 305.953488 
L 645.390337 285.585717 
L 661.450371 255.54129 
L 683.566282 214.227602 
L 694.669301 193.97733 
L 703.924706 177.548383 
L 712.143644 163.403303 
L 719.655428 150.910274 
L 726.633379 139.729624 
L 733.191891 129.634842 
L 739.400291 120.4814 
L 745.310578 112.158188 
L 750.964348 104.575277 
L 756.389332 97.666435 
L 761.613263 91.369355 
L 766.653472 85.637947 
L 771.527292 80.428636 
L 776.248588 75.704154 
L 780.831227 71.42959 
L 785.285607 67.575519 
L 789.622128 64.11439 
L 793.85119 61.020668 
L 797.983191 58.270953 
L 802.025064 55.846021 
L 805.983743 53.728018 
L 809.869626 51.89899 
L 813.693114 50.343322 
L 817.461138 49.048827 
L 821.180632 48.004795 
L 824.861996 47.201352 
L 828.512161 46.631406 
L 832.141528 46.289124 
L 835.757028 46.171014 
L 835.867955 46.170909 
L 835.867955 46.170909 
" clip-path="url(#p1e94213ff9)" style="fill: none; stroke: #800080; stroke-width: 1.5; stroke-linecap: square"/>
   </g>
   <g id="line2d_68">
    <path d="M 489.227045 459.912775 
L 492.735087 459.919032 
L 496.253527 459.702917 
L 499.7893 459.262757 
L 503.352804 458.594546 
L 506.950972 457.692823 
L 510.590738 456.55058 
L 514.282501 455.157863 
L 518.033193 453.503953 
L 521.853214 451.574769 
L 525.74603 449.358027 
L 529.725508 446.833955 
L 533.795113 443.98718 
L 537.965245 440.796348 
L 542.246303 437.237912 
L 546.64522 433.289441 
L 551.172395 428.92399 
L 555.838229 424.112784 
L 560.656585 418.821506 
L 565.641332 413.013549 
L 570.806333 406.650357 
L 576.172388 399.682639 
L 581.763762 392.053495 
L 587.608186 383.69809 
L 593.740325 374.53833 
L 600.208709 364.471198 
L 607.082667 353.355324 
L 614.455793 341.002449 
L 622.48061 327.115494 
L 631.424035 311.183469 
L 641.844165 292.150287 
L 655.560883 266.597924 
L 686.277041 209.239013 
L 696.842761 190.07739 
L 705.824317 174.238832 
L 713.863 160.505056 
L 721.243059 148.329301 
L 728.117017 137.410714 
L 734.588867 127.54217 
L 740.721006 118.591419 
L 746.565431 110.44882 
L 752.156804 103.035189 
L 757.522859 96.284792 
L 762.68786 90.14006 
L 767.672607 84.551173 
L 772.490963 79.478979 
L 777.156797 74.886449 
L 781.683972 70.739004 
L 786.079423 67.010398 
L 790.357014 63.67021 
L 794.52368 60.695751 
L 798.589818 58.063469 
L 802.565829 55.752083 
L 806.455179 53.74599 
L 810.268267 52.027247 
L 814.015493 50.580315 
L 817.703789 49.393073 
L 821.340089 48.454937 
L 824.931324 47.756873 
L 828.487896 47.291064 
L 832.020202 47.052141 
L 835.53171 47.036997 
L 835.867955 47.047225 
L 835.867955 47.047225 
" clip-path="url(#p1e94213ff9)" style="fill: none; stroke: #bfbf00; stroke-width: 1.5; stroke-linecap: square"/>
   </g>
   <g id="line2d_69">
    <path d="M 489.227045 252.603684 
L 504.642321 253.008299 
L 524.057872 253.284575 
L 551.730493 253.437051 
L 609.772627 253.479746 
L 788.956571 253.374662 
L 814.133352 253.121098 
L 831.926608 252.727568 
L 835.867955 252.603684 
L 835.867955 252.603684 
" clip-path="url(#p1e94213ff9)" style="fill: none; stroke: #008000; stroke-width: 1.5; stroke-linecap: square"/>
   </g>
   <g id="patch_9">
    <path d="M 471.895 481.52 
L 471.895 25.44 
" style="fill: none; stroke: #000000; stroke-width: 0.8; stroke-linejoin: miter; stroke-linecap: square"/>
   </g>
   <g id="patch_10">
    <path d="M 853.2 481.52 
L 853.2 25.44 
" style="fill: none; stroke: #000000; stroke-width: 0.8; stroke-linejoin: miter; stroke-linecap: square"/>
   </g>
   <g id="patch_11">
    <path d="M 471.895 481.52 
L 853.2 481.52 
" style="fill: none; stroke: #000000; stroke-width: 0.8; stroke-linejoin: miter; stroke-linecap: square"/>
   </g>
   <g id="patch_12">
    <path d="M 471.895 25.44 
L 853.2 25.44 
" style="fill: none; stroke: #000000; stroke-width: 0.8; stroke-linejoin: miter; stroke-linecap: square"/>
   </g>
   <g id="text_35">
    <!-- sin(x) vs pade -->
    <g transform="translate(620.241875 19.44) scale(0.12 -0.12)">
     <defs>
      <path id="DejaVuSans-70" d="M 1159 525 
L 1159 -1331 
L 581 -1331 
L 581 3500 
L 1159 3500 
L 1159 2969 
Q 1341 3281 1617 3432 
Q 1894 3584 2278 3584 
Q 2916 3584 3314 3078 
Q 3713 2572 3713 1747 
Q 3713 922 3314 415 
Q 2916 -91 2278 -91 
Q 1894 -91 1617 61 
Q 1341 213 1159 525 
z
M 3116 1747 
Q 3116 2381 2855 2742 
Q 2594 3103 2138 3103 
Q 1681 3103 1420 2742 
Q 1159 2381 1159 1747 
Q 1159 1113 1420 752 
Q 1681 391 2138 391 
Q 2594 391 2855 752 
Q 3116 1113 3116 1747 
z
" transform="scale(0.015625)"/>
      <path id="DejaVuSans-61" d="M 2194 1759 
Q 1497 1759 1228 1600 
Q 959 1441 959 1056 
Q 959 750 1161 570 
Q 1363 391 1709 391 
Q 2188 391 2477 730 
Q 2766 1069 2766 1631 
L 2766 1759 
L 2194 1759 
z
M 3341 1997 
L 3341 0 
L 2766 0 
L 2766 531 
Q 2569 213 2275 61 
Q 1981 -91 1556 -91 
Q 1019 -91 701 211 
Q 384 513 384 1019 
Q 384 1609 779 1909 
Q 1175 2209 1959 2209 
L 2766 2209 
L 2766 2266 
Q 2766 2663 2505 2880 
Q 2244 3097 1772 3097 
Q 1472 3097 1187 3025 
Q 903 2953 641 2809 
L 641 3341 
Q 956 3463 1253 3523 
Q 1550 3584 1831 3584 
Q 2591 3584 2966 3190 
Q 3341 2797 3341 1997 
z
" transform="scale(0.015625)"/>
      <path id="DejaVuSans-64" d="M 2906 2969 
L 2906 4863 
L 3481 4863 
L 3481 0 
L 2906 0 
L 2906 525 
Q 2725 213 2448 61 
Q 2172 -91 1784 -91 
Q 1150 -91 751 415 
Q 353 922 353 1747 
Q 353 2572 751 3078 
Q 1150 3584 1784 3584 
Q 2172 3584 2448 3432 
Q 2725 3281 2906 2969 
z
M 947 1747 
Q 947 1113 1208 752 
Q 1469 391 1925 391 
Q 2381 391 2643 752 
Q 2906 1113 2906 1747 
Q 2906 2381 2643 2742 
Q 2381 3103 1925 3103 
Q 1469 3103 1208 2742 
Q 947 2381 947 1747 
z
" transform="scale(0.015625)"/>
      <path id="DejaVuSans-65" d="M 3597 1894 
L 3597 1613 
L 953 1613 
Q 991 1019 1311 708 
Q 1631 397 2203 397 
Q 2534 397 2845 478 
Q 3156 559 3463 722 
L 3463 178 
Q 3153 47 2828 -22 
Q 2503 -91 2169 -91 
Q 1331 -91 842 396 
Q 353 884 353 1716 
Q 353 2575 817 3079 
Q 1281 3584 2069 3584 
Q 2775 3584 3186 3129 
Q 3597 2675 3597 1894 
z
M 3022 2063 
Q 3016 2534 2758 2815 
Q 2500 3097 2075 3097 
Q 1594 3097 1305 2825 
Q 1016 2553 972 2059 
L 3022 2063 
z
" transform="scale(0.015625)"/>
     </defs>
     <use xlink:href="#DejaVuSans-73"/>
     <use xlink:href="#DejaVuSans-69" x="52.099609"/>
     <use xlink:href="#DejaVuSans-6e" x="79.882812"/>
     <use xlink:href="#DejaVuSans-28" x="143.261719"/>
     <use xlink:href="#DejaVuSans-78" x="182.275391"/>
     <use xlink:href="#DejaVuSans-29" x="241.455078"/>
     <use xlink:href="#DejaVuSans-20" x="280.46875"/>
     <use xlink:href="#DejaVuSans-76" x="312.255859"/>
     <use xlink:href="#DejaVuSans-73" x="371.435547"/>
     <use xlink:href="#DejaVuSans-20" x="423.535156"/>
     <use xlink:href="#DejaVuSans-70" x="455.322266"/>
     <use xlink:href="#DejaVuSans-61" x="518.798828"/>
     <use xlink:href="#DejaVuSans-64" x="580.078125"/>
     <use xlink:href="#DejaVuSans-65" x="643.554688"/>
    </g>
   </g>
   <g id="legend_2">
    <g id="patch_13">
     <path d="M 478.895 77.79625 
L 580.621562 77.79625 
Q 582.621562 77.79625 582.621562 75.79625 
L 582.621562 32.44 
Q 582.621562 30.44 580.621562 30.44 
L 478.895 30.44 
Q 476.895 30.44 476.895 32.44 
L 476.895 75.79625 
Q 476.895 77.79625 478.895 77.79625 
z
" style="fill: #ffffff; opacity: 0.8; stroke: #cccccc; stroke-linejoin: miter"/>
    </g>
    <g id="line2d_70">
     <path d="M 480.895 38.538438 
L 490.895 38.538438 
L 500.895 38.538438 
" style="fill: none; stroke: #800080; stroke-width: 1.5; stroke-linecap: square"/>
    </g>
    <g id="text_36">
     <!-- pade -->
     <g transform="translate(508.895 42.038438) scale(0.1 -0.1)">
      <use xlink:href="#DejaVuSans-70"/>
      <use xlink:href="#DejaVuSans-61" x="63.476562"/>
      <use xlink:href="#DejaVuSans-64" x="124.755859"/>
      <use xlink:href="#DejaVuSans-65" x="188.232422"/>
     </g>
    </g>
    <g id="line2d_71">
     <path d="M 480.895 53.216563 
L 490.895 53.216563 
L 500.895 53.216563 
" style="fill: none; stroke: #bfbf00; stroke-width: 1.5; stroke-linecap: square"/>
    </g>
    <g id="text_37">
     <!-- sin(x) -->
     <g transform="translate(508.895 56.716563) scale(0.1 -0.1)">
      <use xlink:href="#DejaVuSans-73"/>
      <use xlink:href="#DejaVuSans-69" x="52.099609"/>
      <use xlink:href="#DejaVuSans-6e" x="79.882812"/>
      <use xlink:href="#DejaVuSans-28" x="143.261719"/>
      <use xlink:href="#DejaVuSans-78" x="182.275391"/>
      <use xlink:href="#DejaVuSans-29" x="241.455078"/>
     </g>
    </g>
    <g id="line2d_72">
     <path d="M 480.895 67.938438 
L 490.895 67.938438 
L 500.895 67.938438 
" style="fill: none; stroke: #008000; stroke-width: 1.5; stroke-linecap: square"/>
    </g>
    <g id="text_38">
     <!-- |sin(x) - pade| -->
     <g transform="translate(508.895 71.438438) scale(0.1 -0.1)">
      <use xlink:href="#DejaVuSans-7c"/>
      <use xlink:href="#DejaVuSans-73" x="33.691406"/>
      <use xlink:href="#DejaVuSans-69" x="85.791016"/>
      <use xlink:href="#DejaVuSans-6e" x="113.574219"/>
      <use xlink:href="#DejaVuSans-28" x="176.953125"/>
      <use xlink:href="#DejaVuSans-78" x="215.966797"/>
      <use xlink:href="#DejaVuSans-29" x="275.146484"/>
      <use xlink:href="#DejaVuSans-20" x="314.160156"/>
      <use xlink:href="#DejaVuSans-2d" x="345.947266"/>
      <use xlink:href="#DejaVuSans-20" x="382.03125"/>
      <use xlink:href="#DejaVuSans-70" x="413.818359"/>
      <use xlink:href="#DejaVuSans-61" x="477.294922"/>
      <use xlink:href="#DejaVuSans-64" x="538.574219"/>
      <use xlink:href="#DejaVuSans-65" x="602.050781"/>
      <use xlink:href="#DejaVuSans-7c" x="663.574219"/>
     </g>
    </g>
   </g>
  </g>
  <g id="axes_3">
   <g id="patch_14">
    <path d="M 42.1 980.12 
L 423.405 980.12 
L 423.405 524.04 
L 42.1 524.04 
z
" style="fill: #ffffff"/>
   </g>
   <g id="matplotlib.axis_5">
    <g id="xtick_15">
     <g id="line2d_73">
      <path d="M 67.243658 980.12 
L 67.243658 524.04 
" clip-path="url(#p3e69acbb06)" style="fill: none; stroke: #b0b0b0; stroke-width: 0.8; stroke-linecap: square"/>
     </g>
     <g id="line2d_74">
      <g>
       <use xlink:href="#m6a5252bc57" x="67.243658" y="980.12" style="stroke: #000000; stroke-width: 0.8"/>
      </g>
     </g>
     <g id="text_39">
      <!-- −1.5 -->
      <g transform="translate(55.102251 994.718437) scale(0.1 -0.1)">
       <use xlink:href="#DejaVuSans-2212"/>
       <use xlink:href="#DejaVuSans-31" x="83.789062"/>
       <use xlink:href="#DejaVuSans-2e" x="147.412109"/>
       <use xlink:href="#DejaVuSans-35" x="179.199219"/>
      </g>
     </g>
    </g>
    <g id="xtick_16">
     <g id="line2d_75">
      <path d="M 122.413272 980.12 
L 122.413272 524.04 
" clip-path="url(#p3e69acbb06)" style="fill: none; stroke: #b0b0b0; stroke-width: 0.8; stroke-linecap: square"/>
     </g>
     <g id="line2d_76">
      <g>
       <use xlink:href="#m6a5252bc57" x="122.413272" y="980.12" style="stroke: #000000; stroke-width: 0.8"/>
      </g>
     </g>
     <g id="text_40">
      <!-- −1.0 -->
      <g transform="translate(110.271865 994.718437) scale(0.1 -0.1)">
       <use xlink:href="#DejaVuSans-2212"/>
       <use xlink:href="#DejaVuSans-31" x="83.789062"/>
       <use xlink:href="#DejaVuSans-2e" x="147.412109"/>
       <use xlink:href="#DejaVuSans-30" x="179.199219"/>
      </g>
     </g>
    </g>
    <g id="xtick_17">
     <g id="line2d_77">
      <path d="M 177.582886 980.12 
L 177.582886 524.04 
" clip-path="url(#p3e69acbb06)" style="fill: none; stroke: #b0b0b0; stroke-width: 0.8; stroke-linecap: square"/>
     </g>
     <g id="line2d_78">
      <g>
       <use xlink:href="#m6a5252bc57" x="177.582886" y="980.12" style="stroke: #000000; stroke-width: 0.8"/>
      </g>
     </g>
     <g id="text_41">
      <!-- −0.5 -->
      <g transform="translate(165.44148 994.718437) scale(0.1 -0.1)">
       <use xlink:href="#DejaVuSans-2212"/>
       <use xlink:href="#DejaVuSans-30" x="83.789062"/>
       <use xlink:href="#DejaVuSans-2e" x="147.412109"/>
       <use xlink:href="#DejaVuSans-35" x="179.199219"/>
      </g>
     </g>
    </g>
    <g id="xtick_18">
     <g id="line2d_79">
      <path d="M 232.7525 980.12 
L 232.7525 524.04 
" clip-path="url(#p3e69acbb06)" style="fill: none; stroke: #b0b0b0; stroke-width: 0.8; stroke-linecap: square"/>
     </g>
     <g id="line2d_80">
      <g>
       <use xlink:href="#m6a5252bc57" x="232.7525" y="980.12" style="stroke: #000000; stroke-width: 0.8"/>
      </g>
     </g>
     <g id="text_42">
      <!-- 0.0 -->
      <g transform="translate(224.800938 994.718437) scale(0.1 -0.1)">
       <use xlink:href="#DejaVuSans-30"/>
       <use xlink:href="#DejaVuSans-2e" x="63.623047"/>
       <use xlink:href="#DejaVuSans-30" x="95.410156"/>
      </g>
     </g>
    </g>
    <g id="xtick_19">
     <g id="line2d_81">
      <path d="M 287.922114 980.12 
L 287.922114 524.04 
" clip-path="url(#p3e69acbb06)" style="fill: none; stroke: #b0b0b0; stroke-width: 0.8; stroke-linecap: square"/>
     </g>
     <g id="line2d_82">
      <g>
       <use xlink:href="#m6a5252bc57" x="287.922114" y="980.12" style="stroke: #000000; stroke-width: 0.8"/>
      </g>
     </g>
     <g id="text_43">
      <!-- 0.5 -->
      <g transform="translate(279.970552 994.718437) scale(0.1 -0.1)">
       <use xlink:href="#DejaVuSans-30"/>
       <use xlink:href="#DejaVuSans-2e" x="63.623047"/>
       <use xlink:href="#DejaVuSans-35" x="95.410156"/>
      </g>
     </g>
    </g>
    <g id="xtick_20">
     <g id="line2d_83">
      <path d="M 343.091728 980.12 
L 343.091728 524.04 
" clip-path="url(#p3e69acbb06)" style="fill: none; stroke: #b0b0b0; stroke-width: 0.8; stroke-linecap: square"/>
     </g>
     <g id="line2d_84">
      <g>
       <use xlink:href="#m6a5252bc57" x="343.091728" y="980.12" style="stroke: #000000; stroke-width: 0.8"/>
      </g>
     </g>
     <g id="text_44">
      <!-- 1.0 -->
      <g transform="translate(335.140166 994.718437) scale(0.1 -0.1)">
       <use xlink:href="#DejaVuSans-31"/>
       <use xlink:href="#DejaVuSans-2e" x="63.623047"/>
       <use xlink:href="#DejaVuSans-30" x="95.410156"/>
      </g>
     </g>
    </g>
    <g id="xtick_21">
     <g id="line2d_85">
      <path d="M 398.261342 980.12 
L 398.261342 524.04 
" clip-path="url(#p3e69acbb06)" style="fill: none; stroke: #b0b0b0; stroke-width: 0.8; stroke-linecap: square"/>
     </g>
     <g id="line2d_86">
      <g>
       <use xlink:href="#m6a5252bc57" x="398.261342" y="980.12" style="stroke: #000000; stroke-width: 0.8"/>
      </g>
     </g>
     <g id="text_45">
      <!-- 1.5 -->
      <g transform="translate(390.30978 994.718437) scale(0.1 -0.1)">
       <use xlink:href="#DejaVuSans-31"/>
       <use xlink:href="#DejaVuSans-2e" x="63.623047"/>
       <use xlink:href="#DejaVuSans-35" x="95.410156"/>
      </g>
     </g>
    </g>
   </g>
   <g id="matplotlib.axis_6">
    <g id="ytick_17">
     <g id="line2d_87">
      <path d="M 42.1 927.327034 
L 423.405 927.327034 
" clip-path="url(#p3e69acbb06)" style="fill: none; stroke: #b0b0b0; stroke-width: 0.8; stroke-linecap: square"/>
     </g>
     <g id="line2d_88">
      <g>
       <use xlink:href="#m9ae7ec79cc" x="42.1" y="927.327034" style="stroke: #000000; stroke-width: 0.8"/>
      </g>
     </g>
     <g id="text_46">
      <!-- −14 -->
      <g transform="translate(13.995313 931.126253) scale(0.1 -0.1)">
       <defs>
        <path id="DejaVuSans-34" d="M 2419 4116 
L 825 1625 
L 2419 1625 
L 2419 4116 
z
M 2253 4666 
L 3047 4666 
L 3047 1625 
L 3713 1625 
L 3713 1100 
L 3047 1100 
L 3047 0 
L 2419 0 
L 2419 1100 
L 313 1100 
L 313 1709 
L 2253 4666 
z
" transform="scale(0.015625)"/>
       </defs>
       <use xlink:href="#DejaVuSans-2212"/>
       <use xlink:href="#DejaVuSans-31" x="83.789062"/>
       <use xlink:href="#DejaVuSans-34" x="147.412109"/>
      </g>
     </g>
    </g>
    <g id="ytick_18">
     <g id="line2d_89">
      <path d="M 42.1 873.431163 
L 423.405 873.431163 
" clip-path="url(#p3e69acbb06)" style="fill: none; stroke: #b0b0b0; stroke-width: 0.8; stroke-linecap: square"/>
     </g>
     <g id="line2d_90">
      <g>
       <use xlink:href="#m9ae7ec79cc" x="42.1" y="873.431163" style="stroke: #000000; stroke-width: 0.8"/>
      </g>
     </g>
     <g id="text_47">
      <!-- −12 -->
      <g transform="translate(13.995313 877.230382) scale(0.1 -0.1)">
       <use xlink:href="#DejaVuSans-2212"/>
       <use xlink:href="#DejaVuSans-31" x="83.789062"/>
       <use xlink:href="#DejaVuSans-32" x="147.412109"/>
      </g>
     </g>
    </g>
    <g id="ytick_19">
     <g id="line2d_91">
      <path d="M 42.1 819.535292 
L 423.405 819.535292 
" clip-path="url(#p3e69acbb06)" style="fill: none; stroke: #b0b0b0; stroke-width: 0.8; stroke-linecap: square"/>
     </g>
     <g id="line2d_92">
      <g>
       <use xlink:href="#m9ae7ec79cc" x="42.1" y="819.535292" style="stroke: #000000; stroke-width: 0.8"/>
      </g>
     </g>
     <g id="text_48">
      <!-- −10 -->
      <g transform="translate(13.995313 823.33451) scale(0.1 -0.1)">
       <use xlink:href="#DejaVuSans-2212"/>
       <use xlink:href="#DejaVuSans-31" x="83.789062"/>
       <use xlink:href="#DejaVuSans-30" x="147.412109"/>
      </g>
     </g>
    </g>
    <g id="ytick_20">
     <g id="line2d_93">
      <path d="M 42.1 765.63942 
L 423.405 765.63942 
" clip-path="url(#p3e69acbb06)" style="fill: none; stroke: #b0b0b0; stroke-width: 0.8; stroke-linecap: square"/>
     </g>
     <g id="line2d_94">
      <g>
       <use xlink:href="#m9ae7ec79cc" x="42.1" y="765.63942" style="stroke: #000000; stroke-width: 0.8"/>
      </g>
     </g>
     <g id="text_49">
      <!-- −8 -->
      <g transform="translate(20.357813 769.438639) scale(0.1 -0.1)">
       <defs>
        <path id="DejaVuSans-38" d="M 2034 2216 
Q 1584 2216 1326 1975 
Q 1069 1734 1069 1313 
Q 1069 891 1326 650 
Q 1584 409 2034 409 
Q 2484 409 2743 651 
Q 3003 894 3003 1313 
Q 3003 1734 2745 1975 
Q 2488 2216 2034 2216 
z
M 1403 2484 
Q 997 2584 770 2862 
Q 544 3141 544 3541 
Q 544 4100 942 4425 
Q 1341 4750 2034 4750 
Q 2731 4750 3128 4425 
Q 3525 4100 3525 3541 
Q 3525 3141 3298 2862 
Q 3072 2584 2669 2484 
Q 3125 2378 3379 2068 
Q 3634 1759 3634 1313 
Q 3634 634 3220 271 
Q 2806 -91 2034 -91 
Q 1263 -91 848 271 
Q 434 634 434 1313 
Q 434 1759 690 2068 
Q 947 2378 1403 2484 
z
M 1172 3481 
Q 1172 3119 1398 2916 
Q 1625 2713 2034 2713 
Q 2441 2713 2670 2916 
Q 2900 3119 2900 3481 
Q 2900 3844 2670 4047 
Q 2441 4250 2034 4250 
Q 1625 4250 1398 4047 
Q 1172 3844 1172 3481 
z
" transform="scale(0.015625)"/>
       </defs>
       <use xlink:href="#DejaVuSans-2212"/>
       <use xlink:href="#DejaVuSans-38" x="83.789062"/>
      </g>
     </g>
    </g>
    <g id="ytick_21">
     <g id="line2d_95">
      <path d="M 42.1 711.743549 
L 423.405 711.743549 
" clip-path="url(#p3e69acbb06)" style="fill: none; stroke: #b0b0b0; stroke-width: 0.8; stroke-linecap: square"/>
     </g>
     <g id="line2d_96">
      <g>
       <use xlink:href="#m9ae7ec79cc" x="42.1" y="711.743549" style="stroke: #000000; stroke-width: 0.8"/>
      </g>
     </g>
     <g id="text_50">
      <!-- −6 -->
      <g transform="translate(20.357813 715.542768) scale(0.1 -0.1)">
       <defs>
        <path id="DejaVuSans-36" d="M 2113 2584 
Q 1688 2584 1439 2293 
Q 1191 2003 1191 1497 
Q 1191 994 1439 701 
Q 1688 409 2113 409 
Q 2538 409 2786 701 
Q 3034 994 3034 1497 
Q 3034 2003 2786 2293 
Q 2538 2584 2113 2584 
z
M 3366 4563 
L 3366 3988 
Q 3128 4100 2886 4159 
Q 2644 4219 2406 4219 
Q 1781 4219 1451 3797 
Q 1122 3375 1075 2522 
Q 1259 2794 1537 2939 
Q 1816 3084 2150 3084 
Q 2853 3084 3261 2657 
Q 3669 2231 3669 1497 
Q 3669 778 3244 343 
Q 2819 -91 2113 -91 
Q 1303 -91 875 529 
Q 447 1150 447 2328 
Q 447 3434 972 4092 
Q 1497 4750 2381 4750 
Q 2619 4750 2861 4703 
Q 3103 4656 3366 4563 
z
" transform="scale(0.015625)"/>
       </defs>
       <use xlink:href="#DejaVuSans-2212"/>
       <use xlink:href="#DejaVuSans-36" x="83.789062"/>
      </g>
     </g>
    </g>
    <g id="ytick_22">
     <g id="line2d_97">
      <path d="M 42.1 657.847678 
L 423.405 657.847678 
" clip-path="url(#p3e69acbb06)" style="fill: none; stroke: #b0b0b0; stroke-width: 0.8; stroke-linecap: square"/>
     </g>
     <g id="line2d_98">
      <g>
       <use xlink:href="#m9ae7ec79cc" x="42.1" y="657.847678" style="stroke: #000000; stroke-width: 0.8"/>
      </g>
     </g>
     <g id="text_51">
      <!-- −4 -->
      <g transform="translate(20.357813 661.646896) scale(0.1 -0.1)">
       <use xlink:href="#DejaVuSans-2212"/>
       <use xlink:href="#DejaVuSans-34" x="83.789062"/>
      </g>
     </g>
    </g>
    <g id="ytick_23">
     <g id="line2d_99">
      <path d="M 42.1 603.951806 
L 423.405 603.951806 
" clip-path="url(#p3e69acbb06)" style="fill: none; stroke: #b0b0b0; stroke-width: 0.8; stroke-linecap: square"/>
     </g>
     <g id="line2d_100">
      <g>
       <use xlink:href="#m9ae7ec79cc" x="42.1" y="603.951806" style="stroke: #000000; stroke-width: 0.8"/>
      </g>
     </g>
     <g id="text_52">
      <!-- −2 -->
      <g transform="translate(20.357813 607.751025) scale(0.1 -0.1)">
       <use xlink:href="#DejaVuSans-2212"/>
       <use xlink:href="#DejaVuSans-32" x="83.789062"/>
      </g>
     </g>
    </g>
    <g id="ytick_24">
     <g id="line2d_101">
      <path d="M 42.1 550.055935 
L 423.405 550.055935 
" clip-path="url(#p3e69acbb06)" style="fill: none; stroke: #b0b0b0; stroke-width: 0.8; stroke-linecap: square"/>
     </g>
     <g id="line2d_102">
      <g>
       <use xlink:href="#m9ae7ec79cc" x="42.1" y="550.055935" style="stroke: #000000; stroke-width: 0.8"/>
      </g>
     </g>
     <g id="text_53">
      <!-- 0 -->
      <g transform="translate(28.7375 553.855154) scale(0.1 -0.1)">
       <use xlink:href="#DejaVuSans-30"/>
      </g>
     </g>
    </g>
   </g>
   <g id="line2d_103">
    <path d="M 232.754233 679.51047 
L 232.875559 629.622882 
L 233.121676 616.765468 
L 233.485653 608.736105 
L 233.967489 602.824481 
L 234.567183 598.129669 
L 235.284737 594.230707 
L 236.12015 590.894734 
L 237.080355 587.960055 
L 238.172285 585.328696 
L 239.406339 582.930285 
L 240.796383 580.713226 
L 242.356282 578.643278 
L 244.110303 576.685961 
L 246.086176 574.81671 
L 248.311633 573.020556 
L 250.821338 571.283969 
L 253.656889 569.595711 
L 256.866816 567.947147 
L 260.503115 566.333713 
L 264.621251 564.753876 
L 269.287084 563.206275 
L 274.569944 561.692571 
L 280.542627 560.216819 
L 287.281393 558.785104 
L 294.85904 557.40658 
L 303.34836 556.092161 
L 312.808285 554.856226 
L 323.276945 553.716168 
L 334.768206 552.691499 
L 347.254337 551.80406 
L 360.655608 551.076698 
L 374.83683 550.531294 
L 389.607347 550.186731 
L 404.724508 550.056809 
L 406.072955 550.055935 
L 406.072955 550.055935 
" clip-path="url(#p3e69acbb06)" style="fill: none; stroke: #800080; stroke-width: 1.5; stroke-linecap: square"/>
   </g>
   <g id="line2d_104">
    <path d="M 232.754233 679.51047 
L 232.875559 629.62288 
L 233.121676 616.765447 
L 233.485653 608.736019 
L 233.967489 602.824244 
L 234.567183 598.129141 
L 235.284737 594.22968 
L 236.12015 590.892917 
L 237.080355 587.957054 
L 238.172285 585.323989 
L 239.406339 582.923191 
L 240.796383 580.702858 
L 242.359749 578.624274 
L 244.120702 576.654575 
L 246.103508 574.77301 
L 248.339364 572.960904 
L 250.866402 571.202463 
L 253.729684 569.484932 
L 256.977742 567.800122 
L 260.669505 566.14011 
L 264.870835 564.499407 
L 269.654527 562.874521 
L 275.110709 561.26068 
L 281.336442 559.655792 
L 288.446119 558.057437 
L 296.567996 556.464256 
L 305.851133 554.874783 
L 316.461917 553.288491 
L 328.59447 551.704454 
L 342.467178 550.122367 
L 358.336558 548.541338 
L 376.486857 546.961486 
L 397.247389 545.382557 
L 406.072955 544.770909 
L 406.072955 544.770909 
" clip-path="url(#p3e69acbb06)" style="fill: none; stroke: #bfbf00; stroke-width: 1.5; stroke-linecap: square"/>
   </g>
   <g id="line2d_105">
    <path d="M 59.432045 556.618265 
L 72.476273 559.155197 
L 84.622692 561.74138 
L 95.919832 564.371355 
L 106.419691 567.041265 
L 116.174263 569.748404 
L 125.228614 572.489277 
L 133.631274 575.262532 
L 141.42384 578.065849 
L 148.651375 580.899453 
L 155.355477 583.763995 
L 161.574277 586.660403 
L 167.34244 589.589678 
L 172.694629 592.554631 
L 177.662043 595.558243 
L 182.275879 598.605761 
L 186.560404 601.700158 
L 190.543348 604.849156 
L 194.24551 608.057793 
L 197.691155 611.336839 
L 200.897615 614.693873 
L 203.88569 618.143426 
L 206.669244 621.696191 
L 209.262144 625.366159 
L 211.678255 629.171764 
L 213.927977 633.131064 
L 216.021709 637.267295 
L 217.969851 641.610846 
L 219.775868 646.18341 
L 221.45016 651.03157 
L 222.996194 656.194546 
L 224.420902 661.735727 
L 225.724285 667.707769 
L 226.913275 674.214139 
L 227.984407 681.32869 
L 228.944612 689.223544 
L 229.79389 698.083469 
L 230.532243 708.163246 
L 231.163136 719.900018 
L 231.686569 733.925884 
L 232.102542 751.294644 
L 232.411055 773.895732 
L 232.615575 805.977714 
L 232.723035 859.914936 
L 232.754233 959.389091 
L 232.813163 834.560772 
L 233.014217 783.232323 
L 233.336596 755.045904 
L 233.773368 735.442495 
L 234.327999 720.207663 
L 234.997022 707.781617 
L 235.780439 697.27025 
L 236.678248 688.153365 
L 237.690449 680.099794 
L 238.82051 672.864898 
L 240.064963 666.315942 
L 241.430742 660.304794 
L 242.917846 654.752946 
L 244.529743 649.586993 
L 246.269897 644.75065 
L 248.141777 640.199713 
L 250.155781 635.884784 
L 252.315375 631.78163 
L 254.63096 627.858523 
L 257.109467 624.096187 
L 259.764763 620.469804 
L 262.607247 616.964715 
L 265.650784 613.565533 
L 268.909242 610.260459 
L 272.403417 607.034272 
L 276.150643 603.878709 
L 280.168251 600.787688 
L 284.483973 597.749764 
L 289.118609 594.761358 
L 294.096422 591.818247 
L 299.448611 588.914239 
L 305.202908 586.047207 
L 311.393976 583.213302 
L 318.053015 580.412055 
L 325.218154 577.641507 
L 332.927525 574.901347 
L 341.219258 572.192551 
L 350.138418 569.515098 
L 359.730068 566.870405 
L 370.035805 564.261873 
L 381.107627 561.691239 
L 392.990596 559.162961 
L 405.733243 556.681464 
L 406.072955 556.618265 
L 406.072955 556.618265 
" clip-path="url(#p3e69acbb06)" style="fill: none; stroke: #008000; stroke-width: 1.5; stroke-linecap: square"/>
   </g>
   <g id="patch_15">
    <path d="M 42.1 980.12 
L 42.1 524.04 
" style="fill: none; stroke: #000000; stroke-width: 0.8; stroke-linejoin: miter; stroke-linecap: square"/>
   </g>
   <g id="patch_16">
    <path d="M 423.405 980.12 
L 423.405 524.04 
" style="fill: none; stroke: #000000; stroke-width: 0.8; stroke-linejoin: miter; stroke-linecap: square"/>
   </g>
   <g id="patch_17">
    <path d="M 42.1 980.12 
L 423.405 980.12 
" style="fill: none; stroke: #000000; stroke-width: 0.8; stroke-linejoin: miter; stroke-linecap: square"/>
   </g>
   <g id="patch_18">
    <path d="M 42.1 524.04 
L 423.405 524.04 
" style="fill: none; stroke: #000000; stroke-width: 0.8; stroke-linejoin: miter; stroke-linecap: square"/>
   </g>
   <g id="text_54">
    <!-- sin(x) vs x logarithmic -->
    <g transform="translate(166.053125 518.04) scale(0.12 -0.12)">
     <defs>
      <path id="DejaVuSans-6c" d="M 603 4863 
L 1178 4863 
L 1178 0 
L 603 0 
L 603 4863 
z
" transform="scale(0.015625)"/>
      <path id="DejaVuSans-6f" d="M 1959 3097 
Q 1497 3097 1228 2736 
Q 959 2375 959 1747 
Q 959 1119 1226 758 
Q 1494 397 1959 397 
Q 2419 397 2687 759 
Q 2956 1122 2956 1747 
Q 2956 2369 2687 2733 
Q 2419 3097 1959 3097 
z
M 1959 3584 
Q 2709 3584 3137 3096 
Q 3566 2609 3566 1747 
Q 3566 888 3137 398 
Q 2709 -91 1959 -91 
Q 1206 -91 779 398 
Q 353 888 353 1747 
Q 353 2609 779 3096 
Q 1206 3584 1959 3584 
z
" transform="scale(0.015625)"/>
      <path id="DejaVuSans-67" d="M 2906 1791 
Q 2906 2416 2648 2759 
Q 2391 3103 1925 3103 
Q 1463 3103 1205 2759 
Q 947 2416 947 1791 
Q 947 1169 1205 825 
Q 1463 481 1925 481 
Q 2391 481 2648 825 
Q 2906 1169 2906 1791 
z
M 3481 434 
Q 3481 -459 3084 -895 
Q 2688 -1331 1869 -1331 
Q 1566 -1331 1297 -1286 
Q 1028 -1241 775 -1147 
L 775 -588 
Q 1028 -725 1275 -790 
Q 1522 -856 1778 -856 
Q 2344 -856 2625 -561 
Q 2906 -266 2906 331 
L 2906 616 
Q 2728 306 2450 153 
Q 2172 0 1784 0 
Q 1141 0 747 490 
Q 353 981 353 1791 
Q 353 2603 747 3093 
Q 1141 3584 1784 3584 
Q 2172 3584 2450 3431 
Q 2728 3278 2906 2969 
L 2906 3500 
L 3481 3500 
L 3481 434 
z
" transform="scale(0.015625)"/>
      <path id="DejaVuSans-72" d="M 2631 2963 
Q 2534 3019 2420 3045 
Q 2306 3072 2169 3072 
Q 1681 3072 1420 2755 
Q 1159 2438 1159 1844 
L 1159 0 
L 581 0 
L 581 3500 
L 1159 3500 
L 1159 2956 
Q 1341 3275 1631 3429 
Q 1922 3584 2338 3584 
Q 2397 3584 2469 3576 
Q 2541 3569 2628 3553 
L 2631 2963 
z
" transform="scale(0.015625)"/>
      <path id="DejaVuSans-74" d="M 1172 4494 
L 1172 3500 
L 2356 3500 
L 2356 3053 
L 1172 3053 
L 1172 1153 
Q 1172 725 1289 603 
Q 1406 481 1766 481 
L 2356 481 
L 2356 0 
L 1766 0 
Q 1100 0 847 248 
Q 594 497 594 1153 
L 594 3053 
L 172 3053 
L 172 3500 
L 594 3500 
L 594 4494 
L 1172 4494 
z
" transform="scale(0.015625)"/>
      <path id="DejaVuSans-68" d="M 3513 2113 
L 3513 0 
L 2938 0 
L 2938 2094 
Q 2938 2591 2744 2837 
Q 2550 3084 2163 3084 
Q 1697 3084 1428 2787 
Q 1159 2491 1159 1978 
L 1159 0 
L 581 0 
L 581 4863 
L 1159 4863 
L 1159 2956 
Q 1366 3272 1645 3428 
Q 1925 3584 2291 3584 
Q 2894 3584 3203 3211 
Q 3513 2838 3513 2113 
z
" transform="scale(0.015625)"/>
      <path id="DejaVuSans-6d" d="M 3328 2828 
Q 3544 3216 3844 3400 
Q 4144 3584 4550 3584 
Q 5097 3584 5394 3201 
Q 5691 2819 5691 2113 
L 5691 0 
L 5113 0 
L 5113 2094 
Q 5113 2597 4934 2840 
Q 4756 3084 4391 3084 
Q 3944 3084 3684 2787 
Q 3425 2491 3425 1978 
L 3425 0 
L 2847 0 
L 2847 2094 
Q 2847 2600 2669 2842 
Q 2491 3084 2119 3084 
Q 1678 3084 1418 2786 
Q 1159 2488 1159 1978 
L 1159 0 
L 581 0 
L 581 3500 
L 1159 3500 
L 1159 2956 
Q 1356 3278 1631 3431 
Q 1906 3584 2284 3584 
Q 2666 3584 2933 3390 
Q 3200 3197 3328 2828 
z
" transform="scale(0.015625)"/>
      <path id="DejaVuSans-63" d="M 3122 3366 
L 3122 2828 
Q 2878 2963 2633 3030 
Q 2388 3097 2138 3097 
Q 1578 3097 1268 2742 
Q 959 2388 959 1747 
Q 959 1106 1268 751 
Q 1578 397 2138 397 
Q 2388 397 2633 464 
Q 2878 531 3122 666 
L 3122 134 
Q 2881 22 2623 -34 
Q 2366 -91 2075 -91 
Q 1284 -91 818 406 
Q 353 903 353 1747 
Q 353 2603 823 3093 
Q 1294 3584 2113 3584 
Q 2378 3584 2631 3529 
Q 2884 3475 3122 3366 
z
" transform="scale(0.015625)"/>
     </defs>
     <use xlink:href="#DejaVuSans-73"/>
     <use xlink:href="#DejaVuSans-69" x="52.099609"/>
     <use xlink:href="#DejaVuSans-6e" x="79.882812"/>
     <use xlink:href="#DejaVuSans-28" x="143.261719"/>
     <use xlink:href="#DejaVuSans-78" x="182.275391"/>
     <use xlink:href="#DejaVuSans-29" x="241.455078"/>
     <use xlink:href="#DejaVuSans-20" x="280.46875"/>
     <use xlink:href="#DejaVuSans-76" x="312.255859"/>
     <use xlink:href="#DejaVuSans-73" x="371.435547"/>
     <use xlink:href="#DejaVuSans-20" x="423.535156"/>
     <use xlink:href="#DejaVuSans-78" x="455.322266"/>
     <use xlink:href="#DejaVuSans-20" x="514.501953"/>
     <use xlink:href="#DejaVuSans-6c" x="546.289062"/>
     <use xlink:href="#DejaVuSans-6f" x="574.072266"/>
     <use xlink:href="#DejaVuSans-67" x="635.253906"/>
     <use xlink:href="#DejaVuSans-61" x="698.730469"/>
     <use xlink:href="#DejaVuSans-72" x="760.009766"/>
     <use xlink:href="#DejaVuSans-69" x="801.123047"/>
     <use xlink:href="#DejaVuSans-74" x="828.90625"/>
     <use xlink:href="#DejaVuSans-68" x="868.115234"/>
     <use xlink:href="#DejaVuSans-6d" x="931.494141"/>
     <use xlink:href="#DejaVuSans-69" x="1028.90625"/>
     <use xlink:href="#DejaVuSans-63" x="1056.689453"/>
    </g>
   </g>
   <g id="legend_3">
    <g id="patch_19">
     <path d="M 49.1 975.12 
L 125.410938 975.12 
Q 127.410938 975.12 127.410938 973.12 
L 127.410938 929.76375 
Q 127.410938 927.76375 125.410938 927.76375 
L 49.1 927.76375 
Q 47.1 927.76375 47.1 929.76375 
L 47.1 973.12 
Q 47.1 975.12 49.1 975.12 
z
" style="fill: #ffffff; opacity: 0.8; stroke: #cccccc; stroke-linejoin: miter"/>
    </g>
    <g id="line2d_106">
     <path d="M 51.1 935.862187 
L 61.1 935.862187 
L 71.1 935.862187 
" style="fill: none; stroke: #800080; stroke-width: 1.5; stroke-linecap: square"/>
    </g>
    <g id="text_55">
     <!-- sin(x) -->
     <g transform="translate(79.1 939.362187) scale(0.1 -0.1)">
      <use xlink:href="#DejaVuSans-73"/>
      <use xlink:href="#DejaVuSans-69" x="52.099609"/>
      <use xlink:href="#DejaVuSans-6e" x="79.882812"/>
      <use xlink:href="#DejaVuSans-28" x="143.261719"/>
      <use xlink:href="#DejaVuSans-78" x="182.275391"/>
      <use xlink:href="#DejaVuSans-29" x="241.455078"/>
     </g>
    </g>
    <g id="line2d_107">
     <path d="M 51.1 950.540312 
L 61.1 950.540312 
L 71.1 950.540312 
" style="fill: none; stroke: #bfbf00; stroke-width: 1.5; stroke-linecap: square"/>
    </g>
    <g id="text_56">
     <!-- x -->
     <g transform="translate(79.1 954.040312) scale(0.1 -0.1)">
      <use xlink:href="#DejaVuSans-78"/>
     </g>
    </g>
    <g id="line2d_108">
     <path d="M 51.1 965.262187 
L 61.1 965.262187 
L 71.1 965.262187 
" style="fill: none; stroke: #008000; stroke-width: 1.5; stroke-linecap: square"/>
    </g>
    <g id="text_57">
     <!-- |sin(x)-x| -->
     <g transform="translate(79.1 968.762187) scale(0.1 -0.1)">
      <use xlink:href="#DejaVuSans-7c"/>
      <use xlink:href="#DejaVuSans-73" x="33.691406"/>
      <use xlink:href="#DejaVuSans-69" x="85.791016"/>
      <use xlink:href="#DejaVuSans-6e" x="113.574219"/>
      <use xlink:href="#DejaVuSans-28" x="176.953125"/>
      <use xlink:href="#DejaVuSans-78" x="215.966797"/>
      <use xlink:href="#DejaVuSans-29" x="275.146484"/>
      <use xlink:href="#DejaVuSans-2d" x="314.160156"/>
      <use xlink:href="#DejaVuSans-78" x="350.244141"/>
      <use xlink:href="#DejaVuSans-7c" x="409.423828"/>
     </g>
    </g>
   </g>
  </g>
  <g id="axes_4">
   <g id="patch_20">
    <path d="M 471.895 980.12 
L 853.2 980.12 
L 853.2 524.04 
L 471.895 524.04 
z
" style="fill: #ffffff"/>
   </g>
   <g id="matplotlib.axis_7">
    <g id="xtick_22">
     <g id="line2d_109">
      <path d="M 497.038658 980.12 
L 497.038658 524.04 
" clip-path="url(#p2b01bcbedb)" style="fill: none; stroke: #b0b0b0; stroke-width: 0.8; stroke-linecap: square"/>
     </g>
     <g id="line2d_110">
      <g>
       <use xlink:href="#m6a5252bc57" x="497.038658" y="980.12" style="stroke: #000000; stroke-width: 0.8"/>
      </g>
     </g>
     <g id="text_58">
      <!-- −1.5 -->
      <g transform="translate(484.897251 994.718437) scale(0.1 -0.1)">
       <use xlink:href="#DejaVuSans-2212"/>
       <use xlink:href="#DejaVuSans-31" x="83.789062"/>
       <use xlink:href="#DejaVuSans-2e" x="147.412109"/>
       <use xlink:href="#DejaVuSans-35" x="179.199219"/>
      </g>
     </g>
    </g>
    <g id="xtick_23">
     <g id="line2d_111">
      <path d="M 552.208272 980.12 
L 552.208272 524.04 
" clip-path="url(#p2b01bcbedb)" style="fill: none; stroke: #b0b0b0; stroke-width: 0.8; stroke-linecap: square"/>
     </g>
     <g id="line2d_112">
      <g>
       <use xlink:href="#m6a5252bc57" x="552.208272" y="980.12" style="stroke: #000000; stroke-width: 0.8"/>
      </g>
     </g>
     <g id="text_59">
      <!-- −1.0 -->
      <g transform="translate(540.066865 994.718437) scale(0.1 -0.1)">
       <use xlink:href="#DejaVuSans-2212"/>
       <use xlink:href="#DejaVuSans-31" x="83.789062"/>
       <use xlink:href="#DejaVuSans-2e" x="147.412109"/>
       <use xlink:href="#DejaVuSans-30" x="179.199219"/>
      </g>
     </g>
    </g>
    <g id="xtick_24">
     <g id="line2d_113">
      <path d="M 607.377886 980.12 
L 607.377886 524.04 
" clip-path="url(#p2b01bcbedb)" style="fill: none; stroke: #b0b0b0; stroke-width: 0.8; stroke-linecap: square"/>
     </g>
     <g id="line2d_114">
      <g>
       <use xlink:href="#m6a5252bc57" x="607.377886" y="980.12" style="stroke: #000000; stroke-width: 0.8"/>
      </g>
     </g>
     <g id="text_60">
      <!-- −0.5 -->
      <g transform="translate(595.23648 994.718437) scale(0.1 -0.1)">
       <use xlink:href="#DejaVuSans-2212"/>
       <use xlink:href="#DejaVuSans-30" x="83.789062"/>
       <use xlink:href="#DejaVuSans-2e" x="147.412109"/>
       <use xlink:href="#DejaVuSans-35" x="179.199219"/>
      </g>
     </g>
    </g>
    <g id="xtick_25">
     <g id="line2d_115">
      <path d="M 662.5475 980.12 
L 662.5475 524.04 
" clip-path="url(#p2b01bcbedb)" style="fill: none; stroke: #b0b0b0; stroke-width: 0.8; stroke-linecap: square"/>
     </g>
     <g id="line2d_116">
      <g>
       <use xlink:href="#m6a5252bc57" x="662.5475" y="980.12" style="stroke: #000000; stroke-width: 0.8"/>
      </g>
     </g>
     <g id="text_61">
      <!-- 0.0 -->
      <g transform="translate(654.595937 994.718437) scale(0.1 -0.1)">
       <use xlink:href="#DejaVuSans-30"/>
       <use xlink:href="#DejaVuSans-2e" x="63.623047"/>
       <use xlink:href="#DejaVuSans-30" x="95.410156"/>
      </g>
     </g>
    </g>
    <g id="xtick_26">
     <g id="line2d_117">
      <path d="M 717.717114 980.12 
L 717.717114 524.04 
" clip-path="url(#p2b01bcbedb)" style="fill: none; stroke: #b0b0b0; stroke-width: 0.8; stroke-linecap: square"/>
     </g>
     <g id="line2d_118">
      <g>
       <use xlink:href="#m6a5252bc57" x="717.717114" y="980.12" style="stroke: #000000; stroke-width: 0.8"/>
      </g>
     </g>
     <g id="text_62">
      <!-- 0.5 -->
      <g transform="translate(709.765552 994.718437) scale(0.1 -0.1)">
       <use xlink:href="#DejaVuSans-30"/>
       <use xlink:href="#DejaVuSans-2e" x="63.623047"/>
       <use xlink:href="#DejaVuSans-35" x="95.410156"/>
      </g>
     </g>
    </g>
    <g id="xtick_27">
     <g id="line2d_119">
      <path d="M 772.886728 980.12 
L 772.886728 524.04 
" clip-path="url(#p2b01bcbedb)" style="fill: none; stroke: #b0b0b0; stroke-width: 0.8; stroke-linecap: square"/>
     </g>
     <g id="line2d_120">
      <g>
       <use xlink:href="#m6a5252bc57" x="772.886728" y="980.12" style="stroke: #000000; stroke-width: 0.8"/>
      </g>
     </g>
     <g id="text_63">
      <!-- 1.0 -->
      <g transform="translate(764.935166 994.718437) scale(0.1 -0.1)">
       <use xlink:href="#DejaVuSans-31"/>
       <use xlink:href="#DejaVuSans-2e" x="63.623047"/>
       <use xlink:href="#DejaVuSans-30" x="95.410156"/>
      </g>
     </g>
    </g>
    <g id="xtick_28">
     <g id="line2d_121">
      <path d="M 828.056342 980.12 
L 828.056342 524.04 
" clip-path="url(#p2b01bcbedb)" style="fill: none; stroke: #b0b0b0; stroke-width: 0.8; stroke-linecap: square"/>
     </g>
     <g id="line2d_122">
      <g>
       <use xlink:href="#m6a5252bc57" x="828.056342" y="980.12" style="stroke: #000000; stroke-width: 0.8"/>
      </g>
     </g>
     <g id="text_64">
      <!-- 1.5 -->
      <g transform="translate(820.10478 994.718437) scale(0.1 -0.1)">
       <use xlink:href="#DejaVuSans-31"/>
       <use xlink:href="#DejaVuSans-2e" x="63.623047"/>
       <use xlink:href="#DejaVuSans-35" x="95.410156"/>
      </g>
     </g>
    </g>
   </g>
   <g id="matplotlib.axis_8">
    <g id="ytick_25">
     <g id="line2d_123">
      <path d="M 471.895 949.868493 
L 853.2 949.868493 
" clip-path="url(#p2b01bcbedb)" style="fill: none; stroke: #b0b0b0; stroke-width: 0.8; stroke-linecap: square"/>
     </g>
     <g id="line2d_124">
      <g>
       <use xlink:href="#m9ae7ec79cc" x="471.895" y="949.868493" style="stroke: #000000; stroke-width: 0.8"/>
      </g>
     </g>
     <g id="text_65">
      <!-- −20 -->
      <g transform="translate(443.790312 953.667712) scale(0.1 -0.1)">
       <use xlink:href="#DejaVuSans-2212"/>
       <use xlink:href="#DejaVuSans-32" x="83.789062"/>
       <use xlink:href="#DejaVuSans-30" x="147.412109"/>
      </g>
     </g>
    </g>
    <g id="ytick_26">
     <g id="line2d_125">
      <path d="M 471.895 848.594097 
L 853.2 848.594097 
" clip-path="url(#p2b01bcbedb)" style="fill: none; stroke: #b0b0b0; stroke-width: 0.8; stroke-linecap: square"/>
     </g>
     <g id="line2d_126">
      <g>
       <use xlink:href="#m9ae7ec79cc" x="471.895" y="848.594097" style="stroke: #000000; stroke-width: 0.8"/>
      </g>
     </g>
     <g id="text_66">
      <!-- −15 -->
      <g transform="translate(443.790312 852.393316) scale(0.1 -0.1)">
       <use xlink:href="#DejaVuSans-2212"/>
       <use xlink:href="#DejaVuSans-31" x="83.789062"/>
       <use xlink:href="#DejaVuSans-35" x="147.412109"/>
      </g>
     </g>
    </g>
    <g id="ytick_27">
     <g id="line2d_127">
      <path d="M 471.895 747.319701 
L 853.2 747.319701 
" clip-path="url(#p2b01bcbedb)" style="fill: none; stroke: #b0b0b0; stroke-width: 0.8; stroke-linecap: square"/>
     </g>
     <g id="line2d_128">
      <g>
       <use xlink:href="#m9ae7ec79cc" x="471.895" y="747.319701" style="stroke: #000000; stroke-width: 0.8"/>
      </g>
     </g>
     <g id="text_67">
      <!-- −10 -->
      <g transform="translate(443.790312 751.11892) scale(0.1 -0.1)">
       <use xlink:href="#DejaVuSans-2212"/>
       <use xlink:href="#DejaVuSans-31" x="83.789062"/>
       <use xlink:href="#DejaVuSans-30" x="147.412109"/>
      </g>
     </g>
    </g>
    <g id="ytick_28">
     <g id="line2d_129">
      <path d="M 471.895 646.045305 
L 853.2 646.045305 
" clip-path="url(#p2b01bcbedb)" style="fill: none; stroke: #b0b0b0; stroke-width: 0.8; stroke-linecap: square"/>
     </g>
     <g id="line2d_130">
      <g>
       <use xlink:href="#m9ae7ec79cc" x="471.895" y="646.045305" style="stroke: #000000; stroke-width: 0.8"/>
      </g>
     </g>
     <g id="text_68">
      <!-- −5 -->
      <g transform="translate(450.152812 649.844524) scale(0.1 -0.1)">
       <use xlink:href="#DejaVuSans-2212"/>
       <use xlink:href="#DejaVuSans-35" x="83.789062"/>
      </g>
     </g>
    </g>
    <g id="ytick_29">
     <g id="line2d_131">
      <path d="M 471.895 544.770909 
L 853.2 544.770909 
" clip-path="url(#p2b01bcbedb)" style="fill: none; stroke: #b0b0b0; stroke-width: 0.8; stroke-linecap: square"/>
     </g>
     <g id="line2d_132">
      <g>
       <use xlink:href="#m9ae7ec79cc" x="471.895" y="544.770909" style="stroke: #000000; stroke-width: 0.8"/>
      </g>
     </g>
     <g id="text_69">
      <!-- 0 -->
      <g transform="translate(458.5325 548.570128) scale(0.1 -0.1)">
       <use xlink:href="#DejaVuSans-30"/>
      </g>
     </g>
    </g>
   </g>
   <g id="line2d_133">
    <path d="M 662.549233 642.072833 
L 662.670559 604.57582 
L 662.916676 594.911802 
L 663.280653 588.876691 
L 663.762489 584.433336 
L 664.362183 580.904574 
L 665.083204 577.961966 
L 665.929016 575.430446 
L 666.906553 573.197635 
L 668.029681 571.182366 
L 669.315731 569.3305 
L 670.785504 567.604468 
L 672.470195 565.971404 
L 674.401004 564.412447 
L 676.622995 562.908035 
L 679.184697 561.446684 
L 682.141573 560.020609 
L 685.562953 558.622497 
L 689.521632 557.250283 
L 694.100804 555.903406 
L 699.400997 554.581487 
L 705.522736 553.289056 
L 712.576949 552.032046 
L 720.681495 550.818642 
L 729.947299 549.660909 
L 740.474889 548.57404 
L 752.337059 547.577038 
L 765.558076 546.692612 
L 780.096341 545.945993 
L 795.82013 545.3635 
L 812.497191 544.969722 
L 829.801678 544.78421 
L 835.867955 544.770909 
L 835.867955 544.770909 
" clip-path="url(#p2b01bcbedb)" style="fill: none; stroke: #800080; stroke-width: 1.5; stroke-linecap: square"/>
   </g>
   <g id="line2d_134">
    <path d="M 662.549233 642.072833 
L 662.670559 604.57582 
L 662.916676 594.911802 
L 663.280653 588.876691 
L 663.762489 584.433336 
L 664.362183 580.904574 
L 665.083204 577.961966 
L 665.929016 575.430446 
L 666.906553 573.197635 
L 668.029681 571.182366 
L 669.315731 569.3305 
L 670.785504 567.604468 
L 672.470195 565.971404 
L 674.401004 564.412447 
L 676.622995 562.908035 
L 679.184697 561.446684 
L 682.141573 560.020609 
L 685.562953 558.622498 
L 689.521632 557.250284 
L 694.100804 555.903407 
L 699.400997 554.581489 
L 705.522736 553.289063 
L 712.576949 552.032063 
L 720.681495 550.818684 
L 729.947299 549.661012 
L 740.471422 548.574613 
L 752.32666 547.578412 
L 765.530344 546.695622 
L 780.027012 545.952159 
L 795.66414 545.375028 
L 812.167879 544.989701 
L 829.14652 544.815945 
L 835.867955 544.808172 
L 835.867955 544.808172 
" clip-path="url(#p2b01bcbedb)" style="fill: none; stroke: #bfbf00; stroke-width: 1.5; stroke-linecap: square"/>
   </g>
   <g id="line2d_135">
    <path d="M 489.227045 592.855133 
L 499.473853 596.414031 
L 509.169496 600.014949 
L 518.341707 603.6567 
L 527.018215 607.338871 
L 535.226754 611.061984 
L 542.995055 614.827699 
L 550.343915 618.635331 
L 557.297601 622.486803 
L 563.876912 626.383233 
L 570.106111 630.329021 
L 576.002532 634.325574 
L 581.586973 638.377797 
L 586.8733 642.486855 
L 591.882311 646.660536 
L 596.627872 650.902752 
L 601.127316 655.222085 
L 605.391042 659.622244 
L 609.436382 664.115804 
L 613.270269 668.705995 
L 616.906568 673.405701 
L 620.35568 678.226216 
L 623.628003 683.181495 
L 626.733936 688.288849 
L 629.676947 693.556904 
L 632.467434 699.009109 
L 635.108864 704.659529 
L 637.60817 710.532594 
L 639.972285 716.658454 
L 642.204675 723.064295 
L 644.308806 729.782496 
L 646.288146 736.852085 
L 648.146159 744.320755 
L 649.886314 752.247722 
L 651.501677 760.649872 
L 653.002647 769.641211 
L 654.389225 779.305337 
L 655.654477 789.681148 
L 656.833067 801.226455 
L 657.921531 814.236477 
L 659.041192 831.293849 
L 660.254447 857.476884 
L 660.517897 864.930209 
L 660.521364 864.930209 
L 660.764015 873.493235 
L 660.767481 872.514829 
L 660.861075 876.931522 
L 660.874941 876.557143 
L 660.94427 879.590561 
L 660.951203 879.087762 
L 661.086394 885.185088 
L 661.093327 884.258276 
L 661.169589 890.355602 
L 661.176521 888.751795 
L 661.290914 898.415829 
L 661.183454 887.395796 
L 661.297847 894.849122 
L 661.301313 894.849122 
L 661.329045 892.318503 
L 661.356777 904.513155 
L 661.40184 898.415829 
L 661.443438 904.513155 
L 661.446904 898.415829 
M 661.453837 898.415829 
L 661.485035 904.513155 
M 661.491968 904.513155 
L 661.502367 904.513155 
L 661.505834 898.415829 
L 661.537032 904.513155 
M 661.589028 904.513155 
L 661.602894 904.513155 
M 661.634092 904.513155 
L 661.637559 904.513155 
M 661.668757 904.513155 
L 661.675689 904.513155 
M 661.689555 904.513155 
L 661.696488 910.610481 
M 661.741552 910.610481 
L 661.745018 910.610481 
M 661.765817 904.513155 
L 661.783149 910.610481 
M 661.800481 910.610481 
L 661.810881 910.610481 
M 661.824746 910.610481 
L 661.828213 910.610481 
M 661.859411 910.610481 
L 661.866344 910.610481 
L 661.86981 904.513155 
L 661.876743 910.610481 
M 661.883676 910.610481 
L 661.890609 910.610481 
M 661.907941 910.610481 
L 661.911408 910.610481 
M 661.932206 910.610481 
L 661.935673 910.610481 
L 661.939139 904.513155 
L 661.942606 910.610481 
M 661.980736 904.513155 
L 661.984203 910.610481 
M 662.008468 910.610481 
L 662.011934 910.610481 
M 662.0258 910.610481 
L 662.032733 910.610481 
M 662.053532 910.610481 
L 662.056998 910.610481 
M 662.063931 910.610481 
L 662.067398 910.610481 
M 662.098596 910.610481 
L 662.112461 910.610481 
M 662.126327 916.707807 
L 662.13326 916.707807 
M 662.147126 916.707807 
L 662.157525 916.707807 
M 662.167924 916.707807 
L 662.171391 916.707807 
M 662.18179 916.707807 
L 662.185257 916.707807 
M 662.19219 916.707807 
L 662.195656 916.707807 
M 662.216455 916.707807 
L 662.219921 916.707807 
M 662.254586 916.707807 
L 662.261518 916.707807 
M 662.278851 916.707807 
L 662.285783 916.707807 
M 662.299649 916.707807 
L 662.303116 916.707807 
M 662.341247 922.805134 
L 662.344713 922.805134 
M 662.351646 922.805134 
L 662.355112 922.805134 
M 662.410575 922.805134 
L 662.414042 922.805134 
M 662.455639 928.90246 
L 662.462572 928.90246 
M 662.469505 928.90246 
L 662.476438 928.90246 
M 662.497237 928.90246 
L 662.500703 934.999786 
M 662.507636 934.999786 
L 662.518035 934.999786 
M 662.524968 934.999786 
L 662.531901 941.097112 
M 662.5423 953.291765 
L 662.549233 959.389091 
L 662.5527 953.291765 
M 662.563099 941.097112 
L 662.566565 941.097112 
L 662.570032 934.999786 
M 662.576965 934.999786 
L 662.587364 934.999786 
M 662.594297 934.999786 
L 662.597763 928.90246 
M 662.618562 928.90246 
L 662.625495 928.90246 
M 662.632428 928.90246 
L 662.639361 928.90246 
M 662.680958 922.805134 
L 662.684425 922.805134 
M 662.739888 922.805134 
L 662.743354 922.805134 
M 662.750287 922.805134 
L 662.753753 922.805134 
M 662.791884 916.707807 
L 662.795351 916.707807 
M 662.809217 916.707807 
L 662.816149 916.707807 
M 662.833482 916.707807 
L 662.840414 916.707807 
M 662.875079 916.707807 
L 662.878545 916.707807 
M 662.899344 916.707807 
L 662.90281 916.707807 
M 662.909743 916.707807 
L 662.91321 916.707807 
M 662.923609 916.707807 
L 662.927076 916.707807 
M 662.937475 916.707807 
L 662.947874 916.707807 
M 662.96174 916.707807 
L 662.968673 916.707807 
M 662.982539 910.610481 
L 662.996404 910.610481 
M 663.027602 910.610481 
L 663.031069 910.610481 
M 663.038002 910.610481 
L 663.041468 910.610481 
M 663.062267 910.610481 
L 663.0692 910.610481 
M 663.083066 910.610481 
L 663.086532 910.610481 
M 663.110797 910.610481 
L 663.114264 904.513155 
M 663.152394 910.610481 
L 663.155861 904.513155 
L 663.162794 910.610481 
M 663.183592 910.610481 
L 663.187059 910.610481 
M 663.204391 910.610481 
L 663.211324 910.610481 
M 663.218257 910.610481 
L 663.221723 910.610481 
L 663.22519 904.513155 
L 663.235589 910.610481 
M 663.266787 910.610481 
L 663.270254 910.610481 
M 663.284119 910.610481 
L 663.294519 910.610481 
M 663.311851 910.610481 
L 663.325717 910.610481 
L 663.329183 904.513155 
M 663.349982 910.610481 
L 663.353448 910.610481 
M 663.398512 910.610481 
L 663.401978 910.610481 
L 663.405445 904.513155 
M 663.419311 904.513155 
L 663.426243 904.513155 
M 663.457441 904.513155 
L 663.460908 904.513155 
M 663.492106 904.513155 
L 663.505972 904.513155 
M 663.557968 904.513155 
L 663.5857 904.513155 
L 663.589166 898.415829 
L 663.603032 904.513155 
M 663.609965 904.513155 
L 663.637697 904.513155 
L 663.641163 898.415829 
M 663.648096 898.415829 
L 663.738223 904.513155 
L 663.734757 894.849122 
L 663.755556 898.415829 
L 663.869948 890.355602 
L 663.904613 892.318503 
L 663.953143 886.221176 
L 663.973942 887.395796 
L 663.977408 887.395796 
L 664.105666 881.29847 
L 664.247791 875.853041 
L 664.251257 875.853041 
L 664.417646 869.755715 
L 664.421113 870.100723 
L 664.424579 870.100723 
L 664.587502 864.73687 
L 664.590969 864.73687 
L 664.830153 857.731875 
L 665.887419 834.29217 
L 667.11454 815.027714 
L 668.178738 802.129476 
L 669.39546 790.084903 
L 670.723108 779.174619 
L 672.165148 769.173466 
L 673.721581 759.939168 
L 675.388941 751.377532 
L 677.167227 743.394388 
L 679.070304 735.862884 
L 681.094707 728.750306 
L 683.243902 722.004107 
L 685.524822 715.572415 
L 687.937467 709.431242 
L 690.485303 703.551046 
L 693.175264 697.900001 
L 696.010815 692.458729 
L 698.998889 687.204604 
L 702.14642 682.119008 
L 705.46034 677.186482 
L 708.951049 672.389503 
L 712.62548 667.718168 
L 716.494031 663.160095 
L 720.567102 658.705211 
L 724.855093 654.3453 
L 729.371869 650.070484 
L 734.131297 645.872965 
L 739.147241 641.746629 
L 744.437034 637.684157 
L 750.014542 633.682427 
L 755.897097 629.7369 
L 762.102031 625.844303 
L 768.650144 622.000423 
L 775.558766 618.204239 
L 782.852164 614.45192 
L 790.551135 610.742648 
L 798.676479 607.076351 
L 807.255928 603.450732 
L 816.313745 599.866043 
L 825.877664 596.321966 
L 835.867955 592.855133 
L 835.867955 592.855133 
" clip-path="url(#p2b01bcbedb)" style="fill: none; stroke: #008000; stroke-width: 1.5; stroke-linecap: square"/>
   </g>
   <g id="patch_21">
    <path d="M 471.895 980.12 
L 471.895 524.04 
" style="fill: none; stroke: #000000; stroke-width: 0.8; stroke-linejoin: miter; stroke-linecap: square"/>
   </g>
   <g id="patch_22">
    <path d="M 853.2 980.12 
L 853.2 524.04 
" style="fill: none; stroke: #000000; stroke-width: 0.8; stroke-linejoin: miter; stroke-linecap: square"/>
   </g>
   <g id="patch_23">
    <path d="M 471.895 980.12 
L 853.2 980.12 
" style="fill: none; stroke: #000000; stroke-width: 0.8; stroke-linejoin: miter; stroke-linecap: square"/>
   </g>
   <g id="patch_24">
    <path d="M 471.895 524.04 
L 853.2 524.04 
" style="fill: none; stroke: #000000; stroke-width: 0.8; stroke-linejoin: miter; stroke-linecap: square"/>
   </g>
   <g id="text_70">
    <!-- sin(x) vs pade logarithmic -->
    <g transform="translate(584.4125 518.04) scale(0.12 -0.12)">
     <use xlink:href="#DejaVuSans-73"/>
     <use xlink:href="#DejaVuSans-69" x="52.099609"/>
     <use xlink:href="#DejaVuSans-6e" x="79.882812"/>
     <use xlink:href="#DejaVuSans-28" x="143.261719"/>
     <use xlink:href="#DejaVuSans-78" x="182.275391"/>
     <use xlink:href="#DejaVuSans-29" x="241.455078"/>
     <use xlink:href="#DejaVuSans-20" x="280.46875"/>
     <use xlink:href="#DejaVuSans-76" x="312.255859"/>
     <use xlink:href="#DejaVuSans-73" x="371.435547"/>
     <use xlink:href="#DejaVuSans-20" x="423.535156"/>
     <use xlink:href="#DejaVuSans-70" x="455.322266"/>
     <use xlink:href="#DejaVuSans-61" x="518.798828"/>
     <use xlink:href="#DejaVuSans-64" x="580.078125"/>
     <use xlink:href="#DejaVuSans-65" x="643.554688"/>
     <use xlink:href="#DejaVuSans-20" x="705.078125"/>
     <use xlink:href="#DejaVuSans-6c" x="736.865234"/>
     <use xlink:href="#DejaVuSans-6f" x="764.648438"/>
     <use xlink:href="#DejaVuSans-67" x="825.830078"/>
     <use xlink:href="#DejaVuSans-61" x="889.306641"/>
     <use xlink:href="#DejaVuSans-72" x="950.585938"/>
     <use xlink:href="#DejaVuSans-69" x="991.699219"/>
     <use xlink:href="#DejaVuSans-74" x="1019.482422"/>
     <use xlink:href="#DejaVuSans-68" x="1058.691406"/>
     <use xlink:href="#DejaVuSans-6d" x="1122.070312"/>
     <use xlink:href="#DejaVuSans-69" x="1219.482422"/>
     <use xlink:href="#DejaVuSans-63" x="1247.265625"/>
    </g>
   </g>
   <g id="legend_4">
    <g id="patch_25">
     <path d="M 478.895 576.39625 
L 580.621562 576.39625 
Q 582.621562 576.39625 582.621562 574.39625 
L 582.621562 531.04 
Q 582.621562 529.04 580.621562 529.04 
L 478.895 529.04 
Q 476.895 529.04 476.895 531.04 
L 476.895 574.39625 
Q 476.895 576.39625 478.895 576.39625 
z
" style="fill: #ffffff; opacity: 0.8; stroke: #cccccc; stroke-linejoin: miter"/>
    </g>
    <g id="line2d_136">
     <path d="M 480.895 537.138438 
L 490.895 537.138438 
L 500.895 537.138438 
" style="fill: none; stroke: #800080; stroke-width: 1.5; stroke-linecap: square"/>
    </g>
    <g id="text_71">
     <!-- pade -->
     <g transform="translate(508.895 540.638438) scale(0.1 -0.1)">
      <use xlink:href="#DejaVuSans-70"/>
      <use xlink:href="#DejaVuSans-61" x="63.476562"/>
      <use xlink:href="#DejaVuSans-64" x="124.755859"/>
      <use xlink:href="#DejaVuSans-65" x="188.232422"/>
     </g>
    </g>
    <g id="line2d_137">
     <path d="M 480.895 551.816562 
L 490.895 551.816562 
L 500.895 551.816562 
" style="fill: none; stroke: #bfbf00; stroke-width: 1.5; stroke-linecap: square"/>
    </g>
    <g id="text_72">
     <!-- sin(x) -->
     <g transform="translate(508.895 555.316562) scale(0.1 -0.1)">
      <use xlink:href="#DejaVuSans-73"/>
      <use xlink:href="#DejaVuSans-69" x="52.099609"/>
      <use xlink:href="#DejaVuSans-6e" x="79.882812"/>
      <use xlink:href="#DejaVuSans-28" x="143.261719"/>
      <use xlink:href="#DejaVuSans-78" x="182.275391"/>
      <use xlink:href="#DejaVuSans-29" x="241.455078"/>
     </g>
    </g>
    <g id="line2d_138">
     <path d="M 480.895 566.538437 
L 490.895 566.538437 
L 500.895 566.538437 
" style="fill: none; stroke: #008000; stroke-width: 1.5; stroke-linecap: square"/>
    </g>
    <g id="text_73">
     <!-- |sin(x) - pade| -->
     <g transform="translate(508.895 570.038437) scale(0.1 -0.1)">
      <use xlink:href="#DejaVuSans-7c"/>
      <use xlink:href="#DejaVuSans-73" x="33.691406"/>
      <use xlink:href="#DejaVuSans-69" x="85.791016"/>
      <use xlink:href="#DejaVuSans-6e" x="113.574219"/>
      <use xlink:href="#DejaVuSans-28" x="176.953125"/>
      <use xlink:href="#DejaVuSans-78" x="215.966797"/>
      <use xlink:href="#DejaVuSans-29" x="275.146484"/>
      <use xlink:href="#DejaVuSans-20" x="314.160156"/>
      <use xlink:href="#DejaVuSans-2d" x="345.947266"/>
      <use xlink:href="#DejaVuSans-20" x="382.03125"/>
      <use xlink:href="#DejaVuSans-70" x="413.818359"/>
      <use xlink:href="#DejaVuSans-61" x="477.294922"/>
      <use xlink:href="#DejaVuSans-64" x="538.574219"/>
      <use xlink:href="#DejaVuSans-65" x="602.050781"/>
      <use xlink:href="#DejaVuSans-7c" x="663.574219"/>
     </g>
    </g>
   </g>
  </g>
 </g>
 <defs>
  <clipPath id="p0763fef4d8">
   <rect x="42.1" y="25.44" width="381.305" height="456.08"/>
  </clipPath>
  <clipPath id="p1e94213ff9">
   <rect x="471.895" y="25.44" width="381.305" height="456.08"/>
  </clipPath>
  <clipPath id="p3e69acbb06">
   <rect x="42.1" y="524.04" width="381.305" height="456.08"/>
  </clipPath>
  <clipPath id="p2b01bcbedb">
   <rect x="471.895" y="524.04" width="381.305" height="456.08"/>
  </clipPath>
 </defs>
</svg>
