<?xml version="1.0" encoding="utf-8" standalone="no"?>
<!DOCTYPE svg PUBLIC "-//W3C//DTD SVG 1.1//EN"
  "http://www.w3.org/Graphics/SVG/1.1/DTD/svg11.dtd">
<svg xmlns:xlink="http://www.w3.org/1999/xlink" width="864pt" height="576pt" viewBox="0 0 864 576" xmlns="http://www.w3.org/2000/svg" version="1.1">
 <metadata>
  <rdf:RDF xmlns:dc="http://purl.org/dc/elements/1.1/" xmlns:cc="http://creativecommons.org/ns#" xmlns:rdf="http://www.w3.org/1999/02/22-rdf-syntax-ns#">
   <cc:Work>
    <dc:type rdf:resource="http://purl.org/dc/dcmitype/StillImage"/>
    <dc:date>2025-11-25T13:59:55.901570</dc:date>
    <dc:format>image/svg+xml</dc:format>
    <dc:creator>
     <cc:Agent>
      <dc:title>Matplotlib v3.6.3, https://matplotlib.org/</dc:title>
     </cc:Agent>
    </dc:creator>
   </cc:Work>
  </rdf:RDF>
 </metadata>
 <defs>
  <style type="text/css">*{stroke-linejoin: round; stroke-linecap: butt}</style>
 </defs>
 <g id="figure_1">
  <g id="patch_1">
   <path d="M 0 576 
L 864 576 
L 864 0 
L 0 0 
z
" style="fill: #ffffff"/>
  </g>
  <g id="axes_1">
   <g id="patch_2">
    <path d="M 48.49 265.52 
L 426.6 265.52 
L 426.6 25.44 
L 48.49 25.44 
z
" style="fill: #ffffff"/>
   </g>
   <g id="matplotlib.axis_1">
    <g id="xtick_1">
     <g id="line2d_1">
      <path d="M 65.676818 265.52 
L 65.676818 25.44 
" clip-path="url(#pa3e8299ff3)" style="fill: none; stroke: #b0b0b0; stroke-width: 0.8; stroke-linecap: square"/>
     </g>
     <g id="line2d_2">
      <defs>
       <path id="mfa22f3c3fc" d="M 0 0 
L 0 3.5 
" style="stroke: #000000; stroke-width: 0.8"/>
      </defs>
      <g>
       <use xlink:href="#mfa22f3c3fc" x="65.676818" y="265.52" style="stroke: #000000; stroke-width: 0.8"/>
      </g>
     </g>
     <g id="text_1">
      <!-- 0.00 -->
      <g transform="translate(54.544006 280.118437) scale(0.1 -0.1)">
       <defs>
        <path id="DejaVuSans-30" d="M 2034 4250 
Q 1547 4250 1301 3770 
Q 1056 3291 1056 2328 
Q 1056 1369 1301 889 
Q 1547 409 2034 409 
Q 2525 409 2770 889 
Q 3016 1369 3016 2328 
Q 3016 3291 2770 3770 
Q 2525 4250 2034 4250 
z
M 2034 4750 
Q 2819 4750 3233 4129 
Q 3647 3509 3647 2328 
Q 3647 1150 3233 529 
Q 2819 -91 2034 -91 
Q 1250 -91 836 529 
Q 422 1150 422 2328 
Q 422 3509 836 4129 
Q 1250 4750 2034 4750 
z
" transform="scale(0.015625)"/>
        <path id="DejaVuSans-2e" d="M 684 794 
L 1344 794 
L 1344 0 
L 684 0 
L 684 794 
z
" transform="scale(0.015625)"/>
       </defs>
       <use xlink:href="#DejaVuSans-30"/>
       <use xlink:href="#DejaVuSans-2e" x="63.623047"/>
       <use xlink:href="#DejaVuSans-30" x="95.410156"/>
       <use xlink:href="#DejaVuSans-30" x="159.033203"/>
      </g>
     </g>
    </g>
    <g id="xtick_2">
     <g id="line2d_3">
      <path d="M 108.859778 265.52 
L 108.859778 25.44 
" clip-path="url(#pa3e8299ff3)" style="fill: none; stroke: #b0b0b0; stroke-width: 0.8; stroke-linecap: square"/>
     </g>
     <g id="line2d_4">
      <g>
       <use xlink:href="#mfa22f3c3fc" x="108.859778" y="265.52" style="stroke: #000000; stroke-width: 0.8"/>
      </g>
     </g>
     <g id="text_2">
      <!-- 0.25 -->
      <g transform="translate(97.726966 280.118437) scale(0.1 -0.1)">
       <defs>
        <path id="DejaVuSans-32" d="M 1228 531 
L 3431 531 
L 3431 0 
L 469 0 
L 469 531 
Q 828 903 1448 1529 
Q 2069 2156 2228 2338 
Q 2531 2678 2651 2914 
Q 2772 3150 2772 3378 
Q 2772 3750 2511 3984 
Q 2250 4219 1831 4219 
Q 1534 4219 1204 4116 
Q 875 4013 500 3803 
L 500 4441 
Q 881 4594 1212 4672 
Q 1544 4750 1819 4750 
Q 2544 4750 2975 4387 
Q 3406 4025 3406 3419 
Q 3406 3131 3298 2873 
Q 3191 2616 2906 2266 
Q 2828 2175 2409 1742 
Q 1991 1309 1228 531 
z
" transform="scale(0.015625)"/>
        <path id="DejaVuSans-35" d="M 691 4666 
L 3169 4666 
L 3169 4134 
L 1269 4134 
L 1269 2991 
Q 1406 3038 1543 3061 
Q 1681 3084 1819 3084 
Q 2600 3084 3056 2656 
Q 3513 2228 3513 1497 
Q 3513 744 3044 326 
Q 2575 -91 1722 -91 
Q 1428 -91 1123 -41 
Q 819 9 494 109 
L 494 744 
Q 775 591 1075 516 
Q 1375 441 1709 441 
Q 2250 441 2565 725 
Q 2881 1009 2881 1497 
Q 2881 1984 2565 2268 
Q 2250 2553 1709 2553 
Q 1456 2553 1204 2497 
Q 953 2441 691 2322 
L 691 4666 
z
" transform="scale(0.015625)"/>
       </defs>
       <use xlink:href="#DejaVuSans-30"/>
       <use xlink:href="#DejaVuSans-2e" x="63.623047"/>
       <use xlink:href="#DejaVuSans-32" x="95.410156"/>
       <use xlink:href="#DejaVuSans-35" x="159.033203"/>
      </g>
     </g>
    </g>
    <g id="xtick_3">
     <g id="line2d_5">
      <path d="M 152.042739 265.52 
L 152.042739 25.44 
" clip-path="url(#pa3e8299ff3)" style="fill: none; stroke: #b0b0b0; stroke-width: 0.8; stroke-linecap: square"/>
     </g>
     <g id="line2d_6">
      <g>
       <use xlink:href="#mfa22f3c3fc" x="152.042739" y="265.52" style="stroke: #000000; stroke-width: 0.8"/>
      </g>
     </g>
     <g id="text_3">
      <!-- 0.50 -->
      <g transform="translate(140.909926 280.118437) scale(0.1 -0.1)">
       <use xlink:href="#DejaVuSans-30"/>
       <use xlink:href="#DejaVuSans-2e" x="63.623047"/>
       <use xlink:href="#DejaVuSans-35" x="95.410156"/>
       <use xlink:href="#DejaVuSans-30" x="159.033203"/>
      </g>
     </g>
    </g>
    <g id="xtick_4">
     <g id="line2d_7">
      <path d="M 195.225699 265.52 
L 195.225699 25.44 
" clip-path="url(#pa3e8299ff3)" style="fill: none; stroke: #b0b0b0; stroke-width: 0.8; stroke-linecap: square"/>
     </g>
     <g id="line2d_8">
      <g>
       <use xlink:href="#mfa22f3c3fc" x="195.225699" y="265.52" style="stroke: #000000; stroke-width: 0.8"/>
      </g>
     </g>
     <g id="text_4">
      <!-- 0.75 -->
      <g transform="translate(184.092886 280.118437) scale(0.1 -0.1)">
       <defs>
        <path id="DejaVuSans-37" d="M 525 4666 
L 3525 4666 
L 3525 4397 
L 1831 0 
L 1172 0 
L 2766 4134 
L 525 4134 
L 525 4666 
z
" transform="scale(0.015625)"/>
       </defs>
       <use xlink:href="#DejaVuSans-30"/>
       <use xlink:href="#DejaVuSans-2e" x="63.623047"/>
       <use xlink:href="#DejaVuSans-37" x="95.410156"/>
       <use xlink:href="#DejaVuSans-35" x="159.033203"/>
      </g>
     </g>
    </g>
    <g id="xtick_5">
     <g id="line2d_9">
      <path d="M 238.408659 265.52 
L 238.408659 25.44 
" clip-path="url(#pa3e8299ff3)" style="fill: none; stroke: #b0b0b0; stroke-width: 0.8; stroke-linecap: square"/>
     </g>
     <g id="line2d_10">
      <g>
       <use xlink:href="#mfa22f3c3fc" x="238.408659" y="265.52" style="stroke: #000000; stroke-width: 0.8"/>
      </g>
     </g>
     <g id="text_5">
      <!-- 1.00 -->
      <g transform="translate(227.275847 280.118437) scale(0.1 -0.1)">
       <defs>
        <path id="DejaVuSans-31" d="M 794 531 
L 1825 531 
L 1825 4091 
L 703 3866 
L 703 4441 
L 1819 4666 
L 2450 4666 
L 2450 531 
L 3481 531 
L 3481 0 
L 794 0 
L 794 531 
z
" transform="scale(0.015625)"/>
       </defs>
       <use xlink:href="#DejaVuSans-31"/>
       <use xlink:href="#DejaVuSans-2e" x="63.623047"/>
       <use xlink:href="#DejaVuSans-30" x="95.410156"/>
       <use xlink:href="#DejaVuSans-30" x="159.033203"/>
      </g>
     </g>
    </g>
    <g id="xtick_6">
     <g id="line2d_11">
      <path d="M 281.591619 265.52 
L 281.591619 25.44 
" clip-path="url(#pa3e8299ff3)" style="fill: none; stroke: #b0b0b0; stroke-width: 0.8; stroke-linecap: square"/>
     </g>
     <g id="line2d_12">
      <g>
       <use xlink:href="#mfa22f3c3fc" x="281.591619" y="265.52" style="stroke: #000000; stroke-width: 0.8"/>
      </g>
     </g>
     <g id="text_6">
      <!-- 1.25 -->
      <g transform="translate(270.458807 280.118437) scale(0.1 -0.1)">
       <use xlink:href="#DejaVuSans-31"/>
       <use xlink:href="#DejaVuSans-2e" x="63.623047"/>
       <use xlink:href="#DejaVuSans-32" x="95.410156"/>
       <use xlink:href="#DejaVuSans-35" x="159.033203"/>
      </g>
     </g>
    </g>
    <g id="xtick_7">
     <g id="line2d_13">
      <path d="M 324.77458 265.52 
L 324.77458 25.44 
" clip-path="url(#pa3e8299ff3)" style="fill: none; stroke: #b0b0b0; stroke-width: 0.8; stroke-linecap: square"/>
     </g>
     <g id="line2d_14">
      <g>
       <use xlink:href="#mfa22f3c3fc" x="324.77458" y="265.52" style="stroke: #000000; stroke-width: 0.8"/>
      </g>
     </g>
     <g id="text_7">
      <!-- 1.50 -->
      <g transform="translate(313.641767 280.118437) scale(0.1 -0.1)">
       <use xlink:href="#DejaVuSans-31"/>
       <use xlink:href="#DejaVuSans-2e" x="63.623047"/>
       <use xlink:href="#DejaVuSans-35" x="95.410156"/>
       <use xlink:href="#DejaVuSans-30" x="159.033203"/>
      </g>
     </g>
    </g>
    <g id="xtick_8">
     <g id="line2d_15">
      <path d="M 367.95754 265.52 
L 367.95754 25.44 
" clip-path="url(#pa3e8299ff3)" style="fill: none; stroke: #b0b0b0; stroke-width: 0.8; stroke-linecap: square"/>
     </g>
     <g id="line2d_16">
      <g>
       <use xlink:href="#mfa22f3c3fc" x="367.95754" y="265.52" style="stroke: #000000; stroke-width: 0.8"/>
      </g>
     </g>
     <g id="text_8">
      <!-- 1.75 -->
      <g transform="translate(356.824727 280.118437) scale(0.1 -0.1)">
       <use xlink:href="#DejaVuSans-31"/>
       <use xlink:href="#DejaVuSans-2e" x="63.623047"/>
       <use xlink:href="#DejaVuSans-37" x="95.410156"/>
       <use xlink:href="#DejaVuSans-35" x="159.033203"/>
      </g>
     </g>
    </g>
    <g id="xtick_9">
     <g id="line2d_17">
      <path d="M 411.1405 265.52 
L 411.1405 25.44 
" clip-path="url(#pa3e8299ff3)" style="fill: none; stroke: #b0b0b0; stroke-width: 0.8; stroke-linecap: square"/>
     </g>
     <g id="line2d_18">
      <g>
       <use xlink:href="#mfa22f3c3fc" x="411.1405" y="265.52" style="stroke: #000000; stroke-width: 0.8"/>
      </g>
     </g>
     <g id="text_9">
      <!-- 2.00 -->
      <g transform="translate(400.007688 280.118437) scale(0.1 -0.1)">
       <use xlink:href="#DejaVuSans-32"/>
       <use xlink:href="#DejaVuSans-2e" x="63.623047"/>
       <use xlink:href="#DejaVuSans-30" x="95.410156"/>
       <use xlink:href="#DejaVuSans-30" x="159.033203"/>
      </g>
     </g>
    </g>
   </g>
   <g id="matplotlib.axis_2">
    <g id="ytick_1">
     <g id="line2d_19">
      <path d="M 48.49 254.823036 
L 426.6 254.823036 
" clip-path="url(#pa3e8299ff3)" style="fill: none; stroke: #b0b0b0; stroke-width: 0.8; stroke-linecap: square"/>
     </g>
     <g id="line2d_20">
      <defs>
       <path id="mf918b9b04f" d="M 0 0 
L -3.5 0 
" style="stroke: #000000; stroke-width: 0.8"/>
      </defs>
      <g>
       <use xlink:href="#mf918b9b04f" x="48.49" y="254.823036" style="stroke: #000000; stroke-width: 0.8"/>
      </g>
     </g>
     <g id="text_10">
      <!-- −1.00 -->
      <g transform="translate(10.844687 258.622255) scale(0.1 -0.1)">
       <defs>
        <path id="DejaVuSans-2212" d="M 678 2272 
L 4684 2272 
L 4684 1741 
L 678 1741 
L 678 2272 
z
" transform="scale(0.015625)"/>
       </defs>
       <use xlink:href="#DejaVuSans-2212"/>
       <use xlink:href="#DejaVuSans-31" x="83.789062"/>
       <use xlink:href="#DejaVuSans-2e" x="147.412109"/>
       <use xlink:href="#DejaVuSans-30" x="179.199219"/>
       <use xlink:href="#DejaVuSans-30" x="242.822266"/>
      </g>
     </g>
    </g>
    <g id="ytick_2">
     <g id="line2d_21">
      <path d="M 48.49 227.487277 
L 426.6 227.487277 
" clip-path="url(#pa3e8299ff3)" style="fill: none; stroke: #b0b0b0; stroke-width: 0.8; stroke-linecap: square"/>
     </g>
     <g id="line2d_22">
      <g>
       <use xlink:href="#mf918b9b04f" x="48.49" y="227.487277" style="stroke: #000000; stroke-width: 0.8"/>
      </g>
     </g>
     <g id="text_11">
      <!-- −0.75 -->
      <g transform="translate(10.844687 231.286496) scale(0.1 -0.1)">
       <use xlink:href="#DejaVuSans-2212"/>
       <use xlink:href="#DejaVuSans-30" x="83.789062"/>
       <use xlink:href="#DejaVuSans-2e" x="147.412109"/>
       <use xlink:href="#DejaVuSans-37" x="179.199219"/>
       <use xlink:href="#DejaVuSans-35" x="242.822266"/>
      </g>
     </g>
    </g>
    <g id="ytick_3">
     <g id="line2d_23">
      <path d="M 48.49 200.151518 
L 426.6 200.151518 
" clip-path="url(#pa3e8299ff3)" style="fill: none; stroke: #b0b0b0; stroke-width: 0.8; stroke-linecap: square"/>
     </g>
     <g id="line2d_24">
      <g>
       <use xlink:href="#mf918b9b04f" x="48.49" y="200.151518" style="stroke: #000000; stroke-width: 0.8"/>
      </g>
     </g>
     <g id="text_12">
      <!-- −0.50 -->
      <g transform="translate(10.844687 203.950737) scale(0.1 -0.1)">
       <use xlink:href="#DejaVuSans-2212"/>
       <use xlink:href="#DejaVuSans-30" x="83.789062"/>
       <use xlink:href="#DejaVuSans-2e" x="147.412109"/>
       <use xlink:href="#DejaVuSans-35" x="179.199219"/>
       <use xlink:href="#DejaVuSans-30" x="242.822266"/>
      </g>
     </g>
    </g>
    <g id="ytick_4">
     <g id="line2d_25">
      <path d="M 48.49 172.815759 
L 426.6 172.815759 
" clip-path="url(#pa3e8299ff3)" style="fill: none; stroke: #b0b0b0; stroke-width: 0.8; stroke-linecap: square"/>
     </g>
     <g id="line2d_26">
      <g>
       <use xlink:href="#mf918b9b04f" x="48.49" y="172.815759" style="stroke: #000000; stroke-width: 0.8"/>
      </g>
     </g>
     <g id="text_13">
      <!-- −0.25 -->
      <g transform="translate(10.844687 176.614978) scale(0.1 -0.1)">
       <use xlink:href="#DejaVuSans-2212"/>
       <use xlink:href="#DejaVuSans-30" x="83.789062"/>
       <use xlink:href="#DejaVuSans-2e" x="147.412109"/>
       <use xlink:href="#DejaVuSans-32" x="179.199219"/>
       <use xlink:href="#DejaVuSans-35" x="242.822266"/>
      </g>
     </g>
    </g>
    <g id="ytick_5">
     <g id="line2d_27">
      <path d="M 48.49 145.48 
L 426.6 145.48 
" clip-path="url(#pa3e8299ff3)" style="fill: none; stroke: #b0b0b0; stroke-width: 0.8; stroke-linecap: square"/>
     </g>
     <g id="line2d_28">
      <g>
       <use xlink:href="#mf918b9b04f" x="48.49" y="145.48" style="stroke: #000000; stroke-width: 0.8"/>
      </g>
     </g>
     <g id="text_14">
      <!-- 0.00 -->
      <g transform="translate(19.224375 149.279219) scale(0.1 -0.1)">
       <use xlink:href="#DejaVuSans-30"/>
       <use xlink:href="#DejaVuSans-2e" x="63.623047"/>
       <use xlink:href="#DejaVuSans-30" x="95.410156"/>
       <use xlink:href="#DejaVuSans-30" x="159.033203"/>
      </g>
     </g>
    </g>
    <g id="ytick_6">
     <g id="line2d_29">
      <path d="M 48.49 118.144241 
L 426.6 118.144241 
" clip-path="url(#pa3e8299ff3)" style="fill: none; stroke: #b0b0b0; stroke-width: 0.8; stroke-linecap: square"/>
     </g>
     <g id="line2d_30">
      <g>
       <use xlink:href="#mf918b9b04f" x="48.49" y="118.144241" style="stroke: #000000; stroke-width: 0.8"/>
      </g>
     </g>
     <g id="text_15">
      <!-- 0.25 -->
      <g transform="translate(19.224375 121.94346) scale(0.1 -0.1)">
       <use xlink:href="#DejaVuSans-30"/>
       <use xlink:href="#DejaVuSans-2e" x="63.623047"/>
       <use xlink:href="#DejaVuSans-32" x="95.410156"/>
       <use xlink:href="#DejaVuSans-35" x="159.033203"/>
      </g>
     </g>
    </g>
    <g id="ytick_7">
     <g id="line2d_31">
      <path d="M 48.49 90.808482 
L 426.6 90.808482 
" clip-path="url(#pa3e8299ff3)" style="fill: none; stroke: #b0b0b0; stroke-width: 0.8; stroke-linecap: square"/>
     </g>
     <g id="line2d_32">
      <g>
       <use xlink:href="#mf918b9b04f" x="48.49" y="90.808482" style="stroke: #000000; stroke-width: 0.8"/>
      </g>
     </g>
     <g id="text_16">
      <!-- 0.50 -->
      <g transform="translate(19.224375 94.607701) scale(0.1 -0.1)">
       <use xlink:href="#DejaVuSans-30"/>
       <use xlink:href="#DejaVuSans-2e" x="63.623047"/>
       <use xlink:href="#DejaVuSans-35" x="95.410156"/>
       <use xlink:href="#DejaVuSans-30" x="159.033203"/>
      </g>
     </g>
    </g>
    <g id="ytick_8">
     <g id="line2d_33">
      <path d="M 48.49 63.472723 
L 426.6 63.472723 
" clip-path="url(#pa3e8299ff3)" style="fill: none; stroke: #b0b0b0; stroke-width: 0.8; stroke-linecap: square"/>
     </g>
     <g id="line2d_34">
      <g>
       <use xlink:href="#mf918b9b04f" x="48.49" y="63.472723" style="stroke: #000000; stroke-width: 0.8"/>
      </g>
     </g>
     <g id="text_17">
      <!-- 0.75 -->
      <g transform="translate(19.224375 67.271942) scale(0.1 -0.1)">
       <use xlink:href="#DejaVuSans-30"/>
       <use xlink:href="#DejaVuSans-2e" x="63.623047"/>
       <use xlink:href="#DejaVuSans-37" x="95.410156"/>
       <use xlink:href="#DejaVuSans-35" x="159.033203"/>
      </g>
     </g>
    </g>
    <g id="ytick_9">
     <g id="line2d_35">
      <path d="M 48.49 36.136964 
L 426.6 36.136964 
" clip-path="url(#pa3e8299ff3)" style="fill: none; stroke: #b0b0b0; stroke-width: 0.8; stroke-linecap: square"/>
     </g>
     <g id="line2d_36">
      <g>
       <use xlink:href="#mf918b9b04f" x="48.49" y="36.136964" style="stroke: #000000; stroke-width: 0.8"/>
      </g>
     </g>
     <g id="text_18">
      <!-- 1.00 -->
      <g transform="translate(19.224375 39.936183) scale(0.1 -0.1)">
       <use xlink:href="#DejaVuSans-31"/>
       <use xlink:href="#DejaVuSans-2e" x="63.623047"/>
       <use xlink:href="#DejaVuSans-30" x="95.410156"/>
       <use xlink:href="#DejaVuSans-30" x="159.033203"/>
      </g>
     </g>
    </g>
   </g>
   <g id="line2d_37">
    <path d="M 65.676818 145.48 
L 69.131455 92.803591 
L 70.858773 70.629541 
L 72.586092 53.158621 
L 74.31341 41.488593 
L 76.040729 36.352727 
L 77.768047 38.07373 
L 79.495365 46.543463 
L 81.222684 61.229743 
L 82.950002 81.209776 
L 84.677321 105.228144 
L 91.586594 209.750224 
L 93.313913 229.730257 
L 95.041231 244.416537 
L 96.76855 252.88627 
L 98.495868 254.607273 
L 100.223186 249.471407 
L 101.950505 237.801379 
L 103.677823 220.330459 
L 105.405142 198.156409 
L 107.13246 172.672507 
L 112.314415 92.803591 
L 114.041734 70.629541 
L 115.769052 53.158621 
L 117.49637 41.488593 
L 119.223689 36.352727 
L 120.951007 38.07373 
L 122.678326 46.543463 
L 124.405644 61.229743 
L 126.132963 81.209776 
L 127.860281 105.228144 
L 134.769555 209.750224 
L 136.496873 229.730257 
L 138.224191 244.416537 
L 139.95151 252.88627 
L 141.678828 254.607273 
L 143.406147 249.471407 
L 145.133465 237.801379 
L 146.860783 220.330459 
L 148.588102 198.156409 
L 150.31542 172.672507 
L 155.497376 92.803591 
L 157.224694 70.629541 
L 158.952012 53.158621 
L 160.679331 41.488593 
L 162.406649 36.352727 
L 164.133968 38.07373 
L 165.861286 46.543463 
L 167.588604 61.229743 
L 169.315923 81.209776 
L 171.043241 105.228144 
L 177.952515 209.750224 
L 179.679833 229.730257 
L 181.407152 244.416537 
L 183.13447 252.88627 
L 184.861788 254.607273 
L 186.589107 249.471407 
L 188.316425 237.801379 
L 190.043744 220.330459 
L 191.771062 198.156409 
L 193.498381 172.672507 
L 198.680336 92.803591 
L 200.407654 70.629541 
L 202.134973 53.158621 
L 203.862291 41.488593 
L 205.589609 36.352727 
L 207.316928 38.07373 
L 209.044246 46.543463 
L 210.771565 61.229743 
L 212.498883 81.209776 
L 214.226201 105.228144 
L 221.135475 209.750224 
L 222.862794 229.730257 
L 224.590112 244.416537 
L 226.31743 252.88627 
L 228.044749 254.607273 
L 229.772067 249.471407 
L 231.499386 237.801379 
L 233.226704 220.330459 
L 234.954022 198.156409 
L 236.681341 172.672507 
L 241.863296 92.803591 
L 243.590614 70.629541 
L 245.317933 53.158621 
L 247.045251 41.488593 
L 248.77257 36.352727 
L 250.499888 38.07373 
L 252.227206 46.543463 
L 253.954525 61.229743 
L 255.681843 81.209776 
L 257.409162 105.228144 
L 264.318435 209.750224 
L 266.045754 229.730257 
L 267.773072 244.416537 
L 269.500391 252.88627 
L 271.227709 254.607273 
L 272.955027 249.471407 
L 274.682346 237.801379 
L 276.409664 220.330459 
L 278.136983 198.156409 
L 279.864301 172.672507 
L 285.046256 92.803591 
L 286.773575 70.629541 
L 288.500893 53.158621 
L 290.228212 41.488593 
L 291.95553 36.352727 
L 293.682848 38.07373 
L 295.410167 46.543463 
L 297.137485 61.229743 
L 298.864804 81.209776 
L 300.592122 105.228144 
L 307.501396 209.750224 
L 309.228714 229.730257 
L 310.956032 244.416537 
L 312.683351 252.88627 
L 314.410669 254.607273 
L 316.137988 249.471407 
L 317.865306 237.801379 
L 319.592624 220.330459 
L 321.319943 198.156409 
L 323.047261 172.672507 
L 328.229217 92.803591 
L 329.956535 70.629541 
L 331.683853 53.158621 
L 333.411172 41.488593 
L 335.13849 36.352727 
L 336.865809 38.07373 
L 338.593127 46.543463 
L 340.320445 61.229743 
L 342.047764 81.209776 
L 343.775082 105.228144 
L 350.684356 209.750224 
L 352.411674 229.730257 
L 354.138993 244.416537 
L 355.866311 252.88627 
L 357.59363 254.607273 
L 359.320948 249.471407 
L 361.048266 237.801379 
L 362.775585 220.330459 
L 364.502903 198.156409 
L 366.230222 172.672507 
L 371.412177 92.803591 
L 373.139495 70.629541 
L 374.866814 53.158621 
L 376.594132 41.488593 
L 378.32145 36.352727 
L 380.048769 38.07373 
L 381.776087 46.543463 
L 383.503406 61.229743 
L 385.230724 81.209776 
L 386.958042 105.228144 
L 393.867316 209.750224 
L 395.594635 229.730257 
L 397.321953 244.416537 
L 399.049271 252.88627 
L 400.77659 254.607273 
L 402.503908 249.471407 
L 404.231227 237.801379 
L 405.958545 220.330459 
L 407.685863 198.156409 
L 409.413182 172.672507 
L 409.413182 172.672507 
" clip-path="url(#pa3e8299ff3)" style="fill: none; stroke: #ff00ff; stroke-width: 1.5; stroke-linecap: square"/>
   </g>
   <g id="patch_3">
    <path d="M 48.49 265.52 
L 48.49 25.44 
" style="fill: none; stroke: #000000; stroke-width: 0.8; stroke-linejoin: miter; stroke-linecap: square"/>
   </g>
   <g id="patch_4">
    <path d="M 426.6 265.52 
L 426.6 25.44 
" style="fill: none; stroke: #000000; stroke-width: 0.8; stroke-linejoin: miter; stroke-linecap: square"/>
   </g>
   <g id="patch_5">
    <path d="M 48.49 265.52 
L 426.6 265.52 
" style="fill: none; stroke: #000000; stroke-width: 0.8; stroke-linejoin: miter; stroke-linecap: square"/>
   </g>
   <g id="patch_6">
    <path d="M 48.49 25.44 
L 426.6 25.44 
" style="fill: none; stroke: #000000; stroke-width: 0.8; stroke-linejoin: miter; stroke-linecap: square"/>
   </g>
   <g id="text_19">
    <!-- Sinusoida cu freq=4 -->
    <g transform="translate(176.809062 19.44) scale(0.12 -0.12)">
     <defs>
      <path id="DejaVuSans-53" d="M 3425 4513 
L 3425 3897 
Q 3066 4069 2747 4153 
Q 2428 4238 2131 4238 
Q 1616 4238 1336 4038 
Q 1056 3838 1056 3469 
Q 1056 3159 1242 3001 
Q 1428 2844 1947 2747 
L 2328 2669 
Q 3034 2534 3370 2195 
Q 3706 1856 3706 1288 
Q 3706 609 3251 259 
Q 2797 -91 1919 -91 
Q 1588 -91 1214 -16 
Q 841 59 441 206 
L 441 856 
Q 825 641 1194 531 
Q 1563 422 1919 422 
Q 2459 422 2753 634 
Q 3047 847 3047 1241 
Q 3047 1584 2836 1778 
Q 2625 1972 2144 2069 
L 1759 2144 
Q 1053 2284 737 2584 
Q 422 2884 422 3419 
Q 422 4038 858 4394 
Q 1294 4750 2059 4750 
Q 2388 4750 2728 4690 
Q 3069 4631 3425 4513 
z
" transform="scale(0.015625)"/>
      <path id="DejaVuSans-69" d="M 603 3500 
L 1178 3500 
L 1178 0 
L 603 0 
L 603 3500 
z
M 603 4863 
L 1178 4863 
L 1178 4134 
L 603 4134 
L 603 4863 
z
" transform="scale(0.015625)"/>
      <path id="DejaVuSans-6e" d="M 3513 2113 
L 3513 0 
L 2938 0 
L 2938 2094 
Q 2938 2591 2744 2837 
Q 2550 3084 2163 3084 
Q 1697 3084 1428 2787 
Q 1159 2491 1159 1978 
L 1159 0 
L 581 0 
L 581 3500 
L 1159 3500 
L 1159 2956 
Q 1366 3272 1645 3428 
Q 1925 3584 2291 3584 
Q 2894 3584 3203 3211 
Q 3513 2838 3513 2113 
z
" transform="scale(0.015625)"/>
      <path id="DejaVuSans-75" d="M 544 1381 
L 544 3500 
L 1119 3500 
L 1119 1403 
Q 1119 906 1312 657 
Q 1506 409 1894 409 
Q 2359 409 2629 706 
Q 2900 1003 2900 1516 
L 2900 3500 
L 3475 3500 
L 3475 0 
L 2900 0 
L 2900 538 
Q 2691 219 2414 64 
Q 2138 -91 1772 -91 
Q 1169 -91 856 284 
Q 544 659 544 1381 
z
M 1991 3584 
L 1991 3584 
z
" transform="scale(0.015625)"/>
      <path id="DejaVuSans-73" d="M 2834 3397 
L 2834 2853 
Q 2591 2978 2328 3040 
Q 2066 3103 1784 3103 
Q 1356 3103 1142 2972 
Q 928 2841 928 2578 
Q 928 2378 1081 2264 
Q 1234 2150 1697 2047 
L 1894 2003 
Q 2506 1872 2764 1633 
Q 3022 1394 3022 966 
Q 3022 478 2636 193 
Q 2250 -91 1575 -91 
Q 1294 -91 989 -36 
Q 684 19 347 128 
L 347 722 
Q 666 556 975 473 
Q 1284 391 1588 391 
Q 1994 391 2212 530 
Q 2431 669 2431 922 
Q 2431 1156 2273 1281 
Q 2116 1406 1581 1522 
L 1381 1569 
Q 847 1681 609 1914 
Q 372 2147 372 2553 
Q 372 3047 722 3315 
Q 1072 3584 1716 3584 
Q 2034 3584 2315 3537 
Q 2597 3491 2834 3397 
z
" transform="scale(0.015625)"/>
      <path id="DejaVuSans-6f" d="M 1959 3097 
Q 1497 3097 1228 2736 
Q 959 2375 959 1747 
Q 959 1119 1226 758 
Q 1494 397 1959 397 
Q 2419 397 2687 759 
Q 2956 1122 2956 1747 
Q 2956 2369 2687 2733 
Q 2419 3097 1959 3097 
z
M 1959 3584 
Q 2709 3584 3137 3096 
Q 3566 2609 3566 1747 
Q 3566 888 3137 398 
Q 2709 -91 1959 -91 
Q 1206 -91 779 398 
Q 353 888 353 1747 
Q 353 2609 779 3096 
Q 1206 3584 1959 3584 
z
" transform="scale(0.015625)"/>
      <path id="DejaVuSans-64" d="M 2906 2969 
L 2906 4863 
L 3481 4863 
L 3481 0 
L 2906 0 
L 2906 525 
Q 2725 213 2448 61 
Q 2172 -91 1784 -91 
Q 1150 -91 751 415 
Q 353 922 353 1747 
Q 353 2572 751 3078 
Q 1150 3584 1784 3584 
Q 2172 3584 2448 3432 
Q 2725 3281 2906 2969 
z
M 947 1747 
Q 947 1113 1208 752 
Q 1469 391 1925 391 
Q 2381 391 2643 752 
Q 2906 1113 2906 1747 
Q 2906 2381 2643 2742 
Q 2381 3103 1925 3103 
Q 1469 3103 1208 2742 
Q 947 2381 947 1747 
z
" transform="scale(0.015625)"/>
      <path id="DejaVuSans-61" d="M 2194 1759 
Q 1497 1759 1228 1600 
Q 959 1441 959 1056 
Q 959 750 1161 570 
Q 1363 391 1709 391 
Q 2188 391 2477 730 
Q 2766 1069 2766 1631 
L 2766 1759 
L 2194 1759 
z
M 3341 1997 
L 3341 0 
L 2766 0 
L 2766 531 
Q 2569 213 2275 61 
Q 1981 -91 1556 -91 
Q 1019 -91 701 211 
Q 384 513 384 1019 
Q 384 1609 779 1909 
Q 1175 2209 1959 2209 
L 2766 2209 
L 2766 2266 
Q 2766 2663 2505 2880 
Q 2244 3097 1772 3097 
Q 1472 3097 1187 3025 
Q 903 2953 641 2809 
L 641 3341 
Q 956 3463 1253 3523 
Q 1550 3584 1831 3584 
Q 2591 3584 2966 3190 
Q 3341 2797 3341 1997 
z
" transform="scale(0.015625)"/>
      <path id="DejaVuSans-20" transform="scale(0.015625)"/>
      <path id="DejaVuSans-63" d="M 3122 3366 
L 3122 2828 
Q 2878 2963 2633 3030 
Q 2388 3097 2138 3097 
Q 1578 3097 1268 2742 
Q 959 2388 959 1747 
Q 959 1106 1268 751 
Q 1578 397 2138 397 
Q 2388 397 2633 464 
Q 2878 531 3122 666 
L 3122 134 
Q 2881 22 2623 -34 
Q 2366 -91 2075 -91 
Q 1284 -91 818 406 
Q 353 903 353 1747 
Q 353 2603 823 3093 
Q 1294 3584 2113 3584 
Q 2378 3584 2631 3529 
Q 2884 3475 3122 3366 
z
" transform="scale(0.015625)"/>
      <path id="DejaVuSans-66" d="M 2375 4863 
L 2375 4384 
L 1825 4384 
Q 1516 4384 1395 4259 
Q 1275 4134 1275 3809 
L 1275 3500 
L 2222 3500 
L 2222 3053 
L 1275 3053 
L 1275 0 
L 697 0 
L 697 3053 
L 147 3053 
L 147 3500 
L 697 3500 
L 697 3744 
Q 697 4328 969 4595 
Q 1241 4863 1831 4863 
L 2375 4863 
z
" transform="scale(0.015625)"/>
      <path id="DejaVuSans-72" d="M 2631 2963 
Q 2534 3019 2420 3045 
Q 2306 3072 2169 3072 
Q 1681 3072 1420 2755 
Q 1159 2438 1159 1844 
L 1159 0 
L 581 0 
L 581 3500 
L 1159 3500 
L 1159 2956 
Q 1341 3275 1631 3429 
Q 1922 3584 2338 3584 
Q 2397 3584 2469 3576 
Q 2541 3569 2628 3553 
L 2631 2963 
z
" transform="scale(0.015625)"/>
      <path id="DejaVuSans-65" d="M 3597 1894 
L 3597 1613 
L 953 1613 
Q 991 1019 1311 708 
Q 1631 397 2203 397 
Q 2534 397 2845 478 
Q 3156 559 3463 722 
L 3463 178 
Q 3153 47 2828 -22 
Q 2503 -91 2169 -91 
Q 1331 -91 842 396 
Q 353 884 353 1716 
Q 353 2575 817 3079 
Q 1281 3584 2069 3584 
Q 2775 3584 3186 3129 
Q 3597 2675 3597 1894 
z
M 3022 2063 
Q 3016 2534 2758 2815 
Q 2500 3097 2075 3097 
Q 1594 3097 1305 2825 
Q 1016 2553 972 2059 
L 3022 2063 
z
" transform="scale(0.015625)"/>
      <path id="DejaVuSans-71" d="M 947 1747 
Q 947 1113 1208 752 
Q 1469 391 1925 391 
Q 2381 391 2643 752 
Q 2906 1113 2906 1747 
Q 2906 2381 2643 2742 
Q 2381 3103 1925 3103 
Q 1469 3103 1208 2742 
Q 947 2381 947 1747 
z
M 2906 525 
Q 2725 213 2448 61 
Q 2172 -91 1784 -91 
Q 1150 -91 751 415 
Q 353 922 353 1747 
Q 353 2572 751 3078 
Q 1150 3584 1784 3584 
Q 2172 3584 2448 3432 
Q 2725 3281 2906 2969 
L 2906 3500 
L 3481 3500 
L 3481 -1331 
L 2906 -1331 
L 2906 525 
z
" transform="scale(0.015625)"/>
      <path id="DejaVuSans-3d" d="M 678 2906 
L 4684 2906 
L 4684 2381 
L 678 2381 
L 678 2906 
z
M 678 1631 
L 4684 1631 
L 4684 1100 
L 678 1100 
L 678 1631 
z
" transform="scale(0.015625)"/>
      <path id="DejaVuSans-34" d="M 2419 4116 
L 825 1625 
L 2419 1625 
L 2419 4116 
z
M 2253 4666 
L 3047 4666 
L 3047 1625 
L 3713 1625 
L 3713 1100 
L 3047 1100 
L 3047 0 
L 2419 0 
L 2419 1100 
L 313 1100 
L 313 1709 
L 2253 4666 
z
" transform="scale(0.015625)"/>
     </defs>
     <use xlink:href="#DejaVuSans-53"/>
     <use xlink:href="#DejaVuSans-69" x="63.476562"/>
     <use xlink:href="#DejaVuSans-6e" x="91.259766"/>
     <use xlink:href="#DejaVuSans-75" x="154.638672"/>
     <use xlink:href="#DejaVuSans-73" x="218.017578"/>
     <use xlink:href="#DejaVuSans-6f" x="270.117188"/>
     <use xlink:href="#DejaVuSans-69" x="331.298828"/>
     <use xlink:href="#DejaVuSans-64" x="359.082031"/>
     <use xlink:href="#DejaVuSans-61" x="422.558594"/>
     <use xlink:href="#DejaVuSans-20" x="483.837891"/>
     <use xlink:href="#DejaVuSans-63" x="515.625"/>
     <use xlink:href="#DejaVuSans-75" x="570.605469"/>
     <use xlink:href="#DejaVuSans-20" x="633.984375"/>
     <use xlink:href="#DejaVuSans-66" x="665.771484"/>
     <use xlink:href="#DejaVuSans-72" x="700.976562"/>
     <use xlink:href="#DejaVuSans-65" x="739.839844"/>
     <use xlink:href="#DejaVuSans-71" x="801.363281"/>
     <use xlink:href="#DejaVuSans-3d" x="864.839844"/>
     <use xlink:href="#DejaVuSans-34" x="948.628906"/>
    </g>
   </g>
  </g>
  <g id="axes_2">
   <g id="patch_7">
    <path d="M 475.09 265.52 
L 853.2 265.52 
L 853.2 25.44 
L 475.09 25.44 
z
" style="fill: #ffffff"/>
   </g>
   <g id="matplotlib.axis_3">
    <g id="xtick_10">
     <g id="line2d_38">
      <path d="M 492.276818 265.52 
L 492.276818 25.44 
" clip-path="url(#p8846e6aaaf)" style="fill: none; stroke: #b0b0b0; stroke-width: 0.8; stroke-linecap: square"/>
     </g>
     <g id="line2d_39">
      <g>
       <use xlink:href="#mfa22f3c3fc" x="492.276818" y="265.52" style="stroke: #000000; stroke-width: 0.8"/>
      </g>
     </g>
     <g id="text_20">
      <!-- 0 -->
      <g transform="translate(489.095568 280.118437) scale(0.1 -0.1)">
       <use xlink:href="#DejaVuSans-30"/>
      </g>
     </g>
    </g>
    <g id="xtick_11">
     <g id="line2d_40">
      <path d="M 535.459778 265.52 
L 535.459778 25.44 
" clip-path="url(#p8846e6aaaf)" style="fill: none; stroke: #b0b0b0; stroke-width: 0.8; stroke-linecap: square"/>
     </g>
     <g id="line2d_41">
      <g>
       <use xlink:href="#mfa22f3c3fc" x="535.459778" y="265.52" style="stroke: #000000; stroke-width: 0.8"/>
      </g>
     </g>
     <g id="text_21">
      <!-- 25 -->
      <g transform="translate(529.097278 280.118437) scale(0.1 -0.1)">
       <use xlink:href="#DejaVuSans-32"/>
       <use xlink:href="#DejaVuSans-35" x="63.623047"/>
      </g>
     </g>
    </g>
    <g id="xtick_12">
     <g id="line2d_42">
      <path d="M 578.642739 265.52 
L 578.642739 25.44 
" clip-path="url(#p8846e6aaaf)" style="fill: none; stroke: #b0b0b0; stroke-width: 0.8; stroke-linecap: square"/>
     </g>
     <g id="line2d_43">
      <g>
       <use xlink:href="#mfa22f3c3fc" x="578.642739" y="265.52" style="stroke: #000000; stroke-width: 0.8"/>
      </g>
     </g>
     <g id="text_22">
      <!-- 50 -->
      <g transform="translate(572.280239 280.118437) scale(0.1 -0.1)">
       <use xlink:href="#DejaVuSans-35"/>
       <use xlink:href="#DejaVuSans-30" x="63.623047"/>
      </g>
     </g>
    </g>
    <g id="xtick_13">
     <g id="line2d_44">
      <path d="M 621.825699 265.52 
L 621.825699 25.44 
" clip-path="url(#p8846e6aaaf)" style="fill: none; stroke: #b0b0b0; stroke-width: 0.8; stroke-linecap: square"/>
     </g>
     <g id="line2d_45">
      <g>
       <use xlink:href="#mfa22f3c3fc" x="621.825699" y="265.52" style="stroke: #000000; stroke-width: 0.8"/>
      </g>
     </g>
     <g id="text_23">
      <!-- 75 -->
      <g transform="translate(615.463199 280.118437) scale(0.1 -0.1)">
       <use xlink:href="#DejaVuSans-37"/>
       <use xlink:href="#DejaVuSans-35" x="63.623047"/>
      </g>
     </g>
    </g>
    <g id="xtick_14">
     <g id="line2d_46">
      <path d="M 665.008659 265.52 
L 665.008659 25.44 
" clip-path="url(#p8846e6aaaf)" style="fill: none; stroke: #b0b0b0; stroke-width: 0.8; stroke-linecap: square"/>
     </g>
     <g id="line2d_47">
      <g>
       <use xlink:href="#mfa22f3c3fc" x="665.008659" y="265.52" style="stroke: #000000; stroke-width: 0.8"/>
      </g>
     </g>
     <g id="text_24">
      <!-- 100 -->
      <g transform="translate(655.464909 280.118437) scale(0.1 -0.1)">
       <use xlink:href="#DejaVuSans-31"/>
       <use xlink:href="#DejaVuSans-30" x="63.623047"/>
       <use xlink:href="#DejaVuSans-30" x="127.246094"/>
      </g>
     </g>
    </g>
    <g id="xtick_15">
     <g id="line2d_48">
      <path d="M 708.191619 265.52 
L 708.191619 25.44 
" clip-path="url(#p8846e6aaaf)" style="fill: none; stroke: #b0b0b0; stroke-width: 0.8; stroke-linecap: square"/>
     </g>
     <g id="line2d_49">
      <g>
       <use xlink:href="#mfa22f3c3fc" x="708.191619" y="265.52" style="stroke: #000000; stroke-width: 0.8"/>
      </g>
     </g>
     <g id="text_25">
      <!-- 125 -->
      <g transform="translate(698.647869 280.118437) scale(0.1 -0.1)">
       <use xlink:href="#DejaVuSans-31"/>
       <use xlink:href="#DejaVuSans-32" x="63.623047"/>
       <use xlink:href="#DejaVuSans-35" x="127.246094"/>
      </g>
     </g>
    </g>
    <g id="xtick_16">
     <g id="line2d_50">
      <path d="M 751.37458 265.52 
L 751.37458 25.44 
" clip-path="url(#p8846e6aaaf)" style="fill: none; stroke: #b0b0b0; stroke-width: 0.8; stroke-linecap: square"/>
     </g>
     <g id="line2d_51">
      <g>
       <use xlink:href="#mfa22f3c3fc" x="751.37458" y="265.52" style="stroke: #000000; stroke-width: 0.8"/>
      </g>
     </g>
     <g id="text_26">
      <!-- 150 -->
      <g transform="translate(741.83083 280.118437) scale(0.1 -0.1)">
       <use xlink:href="#DejaVuSans-31"/>
       <use xlink:href="#DejaVuSans-35" x="63.623047"/>
       <use xlink:href="#DejaVuSans-30" x="127.246094"/>
      </g>
     </g>
    </g>
    <g id="xtick_17">
     <g id="line2d_52">
      <path d="M 794.55754 265.52 
L 794.55754 25.44 
" clip-path="url(#p8846e6aaaf)" style="fill: none; stroke: #b0b0b0; stroke-width: 0.8; stroke-linecap: square"/>
     </g>
     <g id="line2d_53">
      <g>
       <use xlink:href="#mfa22f3c3fc" x="794.55754" y="265.52" style="stroke: #000000; stroke-width: 0.8"/>
      </g>
     </g>
     <g id="text_27">
      <!-- 175 -->
      <g transform="translate(785.01379 280.118437) scale(0.1 -0.1)">
       <use xlink:href="#DejaVuSans-31"/>
       <use xlink:href="#DejaVuSans-37" x="63.623047"/>
       <use xlink:href="#DejaVuSans-35" x="127.246094"/>
      </g>
     </g>
    </g>
    <g id="xtick_18">
     <g id="line2d_54">
      <path d="M 837.7405 265.52 
L 837.7405 25.44 
" clip-path="url(#p8846e6aaaf)" style="fill: none; stroke: #b0b0b0; stroke-width: 0.8; stroke-linecap: square"/>
     </g>
     <g id="line2d_55">
      <g>
       <use xlink:href="#mfa22f3c3fc" x="837.7405" y="265.52" style="stroke: #000000; stroke-width: 0.8"/>
      </g>
     </g>
     <g id="text_28">
      <!-- 200 -->
      <g transform="translate(828.19675 280.118437) scale(0.1 -0.1)">
       <use xlink:href="#DejaVuSans-32"/>
       <use xlink:href="#DejaVuSans-30" x="63.623047"/>
       <use xlink:href="#DejaVuSans-30" x="127.246094"/>
      </g>
     </g>
    </g>
   </g>
   <g id="matplotlib.axis_4">
    <g id="ytick_10">
     <g id="line2d_56">
      <path d="M 475.09 254.607273 
L 853.2 254.607273 
" clip-path="url(#p8846e6aaaf)" style="fill: none; stroke: #b0b0b0; stroke-width: 0.8; stroke-linecap: square"/>
     </g>
     <g id="line2d_57">
      <g>
       <use xlink:href="#mf918b9b04f" x="475.09" y="254.607273" style="stroke: #000000; stroke-width: 0.8"/>
      </g>
     </g>
     <g id="text_29">
      <!-- 0.0 -->
      <g transform="translate(452.186875 258.406491) scale(0.1 -0.1)">
       <use xlink:href="#DejaVuSans-30"/>
       <use xlink:href="#DejaVuSans-2e" x="63.623047"/>
       <use xlink:href="#DejaVuSans-30" x="95.410156"/>
      </g>
     </g>
    </g>
    <g id="ytick_11">
     <g id="line2d_58">
      <path d="M 475.09 210.956364 
L 853.2 210.956364 
" clip-path="url(#p8846e6aaaf)" style="fill: none; stroke: #b0b0b0; stroke-width: 0.8; stroke-linecap: square"/>
     </g>
     <g id="line2d_59">
      <g>
       <use xlink:href="#mf918b9b04f" x="475.09" y="210.956364" style="stroke: #000000; stroke-width: 0.8"/>
      </g>
     </g>
     <g id="text_30">
      <!-- 0.2 -->
      <g transform="translate(452.186875 214.755582) scale(0.1 -0.1)">
       <use xlink:href="#DejaVuSans-30"/>
       <use xlink:href="#DejaVuSans-2e" x="63.623047"/>
       <use xlink:href="#DejaVuSans-32" x="95.410156"/>
      </g>
     </g>
    </g>
    <g id="ytick_12">
     <g id="line2d_60">
      <path d="M 475.09 167.305455 
L 853.2 167.305455 
" clip-path="url(#p8846e6aaaf)" style="fill: none; stroke: #b0b0b0; stroke-width: 0.8; stroke-linecap: square"/>
     </g>
     <g id="line2d_61">
      <g>
       <use xlink:href="#mf918b9b04f" x="475.09" y="167.305455" style="stroke: #000000; stroke-width: 0.8"/>
      </g>
     </g>
     <g id="text_31">
      <!-- 0.4 -->
      <g transform="translate(452.186875 171.104673) scale(0.1 -0.1)">
       <use xlink:href="#DejaVuSans-30"/>
       <use xlink:href="#DejaVuSans-2e" x="63.623047"/>
       <use xlink:href="#DejaVuSans-34" x="95.410156"/>
      </g>
     </g>
    </g>
    <g id="ytick_13">
     <g id="line2d_62">
      <path d="M 475.09 123.654545 
L 853.2 123.654545 
" clip-path="url(#p8846e6aaaf)" style="fill: none; stroke: #b0b0b0; stroke-width: 0.8; stroke-linecap: square"/>
     </g>
     <g id="line2d_63">
      <g>
       <use xlink:href="#mf918b9b04f" x="475.09" y="123.654545" style="stroke: #000000; stroke-width: 0.8"/>
      </g>
     </g>
     <g id="text_32">
      <!-- 0.6 -->
      <g transform="translate(452.186875 127.453764) scale(0.1 -0.1)">
       <defs>
        <path id="DejaVuSans-36" d="M 2113 2584 
Q 1688 2584 1439 2293 
Q 1191 2003 1191 1497 
Q 1191 994 1439 701 
Q 1688 409 2113 409 
Q 2538 409 2786 701 
Q 3034 994 3034 1497 
Q 3034 2003 2786 2293 
Q 2538 2584 2113 2584 
z
M 3366 4563 
L 3366 3988 
Q 3128 4100 2886 4159 
Q 2644 4219 2406 4219 
Q 1781 4219 1451 3797 
Q 1122 3375 1075 2522 
Q 1259 2794 1537 2939 
Q 1816 3084 2150 3084 
Q 2853 3084 3261 2657 
Q 3669 2231 3669 1497 
Q 3669 778 3244 343 
Q 2819 -91 2113 -91 
Q 1303 -91 875 529 
Q 447 1150 447 2328 
Q 447 3434 972 4092 
Q 1497 4750 2381 4750 
Q 2619 4750 2861 4703 
Q 3103 4656 3366 4563 
z
" transform="scale(0.015625)"/>
       </defs>
       <use xlink:href="#DejaVuSans-30"/>
       <use xlink:href="#DejaVuSans-2e" x="63.623047"/>
       <use xlink:href="#DejaVuSans-36" x="95.410156"/>
      </g>
     </g>
    </g>
    <g id="ytick_14">
     <g id="line2d_64">
      <path d="M 475.09 80.003636 
L 853.2 80.003636 
" clip-path="url(#p8846e6aaaf)" style="fill: none; stroke: #b0b0b0; stroke-width: 0.8; stroke-linecap: square"/>
     </g>
     <g id="line2d_65">
      <g>
       <use xlink:href="#mf918b9b04f" x="475.09" y="80.003636" style="stroke: #000000; stroke-width: 0.8"/>
      </g>
     </g>
     <g id="text_33">
      <!-- 0.8 -->
      <g transform="translate(452.186875 83.802855) scale(0.1 -0.1)">
       <defs>
        <path id="DejaVuSans-38" d="M 2034 2216 
Q 1584 2216 1326 1975 
Q 1069 1734 1069 1313 
Q 1069 891 1326 650 
Q 1584 409 2034 409 
Q 2484 409 2743 651 
Q 3003 894 3003 1313 
Q 3003 1734 2745 1975 
Q 2488 2216 2034 2216 
z
M 1403 2484 
Q 997 2584 770 2862 
Q 544 3141 544 3541 
Q 544 4100 942 4425 
Q 1341 4750 2034 4750 
Q 2731 4750 3128 4425 
Q 3525 4100 3525 3541 
Q 3525 3141 3298 2862 
Q 3072 2584 2669 2484 
Q 3125 2378 3379 2068 
Q 3634 1759 3634 1313 
Q 3634 634 3220 271 
Q 2806 -91 2034 -91 
Q 1263 -91 848 271 
Q 434 634 434 1313 
Q 434 1759 690 2068 
Q 947 2378 1403 2484 
z
M 1172 3481 
Q 1172 3119 1398 2916 
Q 1625 2713 2034 2713 
Q 2441 2713 2670 2916 
Q 2900 3119 2900 3481 
Q 2900 3844 2670 4047 
Q 2441 4250 2034 4250 
Q 1625 4250 1398 4047 
Q 1172 3844 1172 3481 
z
" transform="scale(0.015625)"/>
       </defs>
       <use xlink:href="#DejaVuSans-30"/>
       <use xlink:href="#DejaVuSans-2e" x="63.623047"/>
       <use xlink:href="#DejaVuSans-38" x="95.410156"/>
      </g>
     </g>
    </g>
    <g id="ytick_15">
     <g id="line2d_66">
      <path d="M 475.09 36.352727 
L 853.2 36.352727 
" clip-path="url(#p8846e6aaaf)" style="fill: none; stroke: #b0b0b0; stroke-width: 0.8; stroke-linecap: square"/>
     </g>
     <g id="line2d_67">
      <g>
       <use xlink:href="#mf918b9b04f" x="475.09" y="36.352727" style="stroke: #000000; stroke-width: 0.8"/>
      </g>
     </g>
     <g id="text_34">
      <!-- 1.0 -->
      <g transform="translate(452.186875 40.151946) scale(0.1 -0.1)">
       <use xlink:href="#DejaVuSans-31"/>
       <use xlink:href="#DejaVuSans-2e" x="63.623047"/>
       <use xlink:href="#DejaVuSans-30" x="95.410156"/>
      </g>
     </g>
    </g>
   </g>
   <g id="line2d_68">
    <path d="M 492.276818 36.352727 
L 836.013182 36.352727 
L 836.013182 36.352727 
" clip-path="url(#p8846e6aaaf)" style="fill: none; stroke: #000000; stroke-width: 1.5; stroke-linecap: square"/>
   </g>
   <g id="line2d_69">
    <path d="M 492.276818 254.607273 
L 495.731455 254.391935 
L 499.186092 253.746772 
L 502.640729 252.674329 
L 506.095365 251.178839 
L 509.550002 249.266204 
L 513.004639 246.943972 
L 516.459276 244.221309 
L 519.913913 241.108958 
L 523.36855 237.619204 
L 526.823186 233.765818 
L 530.277823 229.564009 
L 533.73246 225.030358 
L 537.187097 220.182759 
L 540.641734 215.040342 
L 545.823689 206.818626 
L 551.005644 198.052465 
L 556.187599 188.819666 
L 563.096873 175.925539 
L 571.733465 159.157274 
L 594.188604 115.034461 
L 601.097878 102.140334 
L 606.279833 92.907535 
L 611.461788 84.141374 
L 616.643744 75.919658 
L 620.098381 70.777241 
L 623.553017 65.929642 
L 627.007654 61.395991 
L 630.462291 57.194182 
L 633.916928 53.340796 
L 637.371565 49.851042 
L 640.826201 46.738691 
L 644.280838 44.016028 
L 647.735475 41.693796 
L 651.190112 39.781161 
L 654.644749 38.285671 
L 658.099386 37.213228 
L 661.554022 36.568065 
L 665.008659 36.352727 
L 668.463296 36.568065 
L 671.917933 37.213228 
L 675.37257 38.285671 
L 678.827206 39.781161 
L 682.281843 41.693796 
L 685.73648 44.016028 
L 689.191117 46.738691 
L 692.645754 49.851042 
L 696.100391 53.340796 
L 699.555027 57.194182 
L 703.009664 61.395991 
L 706.464301 65.929642 
L 709.918938 70.777241 
L 713.373575 75.919658 
L 718.55553 84.141374 
L 723.737485 92.907535 
L 728.91944 102.140334 
L 735.828714 115.034461 
L 744.465306 131.802726 
L 766.920445 175.925539 
L 773.829719 188.819666 
L 779.011674 198.052465 
L 784.19363 206.818626 
L 789.375585 215.040342 
L 792.830222 220.182759 
L 796.284858 225.030358 
L 799.739495 229.564009 
L 803.194132 233.765818 
L 806.648769 237.619204 
L 810.103406 241.108958 
L 813.558042 244.221309 
L 817.012679 246.943972 
L 820.467316 249.266204 
L 823.921953 251.178839 
L 827.37659 252.674329 
L 830.831227 253.746772 
L 834.285863 254.391935 
L 836.013182 254.553425 
L 836.013182 254.553425 
" clip-path="url(#p8846e6aaaf)" style="fill: none; stroke: #ffa500; stroke-width: 1.5; stroke-linecap: square"/>
   </g>
   <g id="patch_8">
    <path d="M 475.09 265.52 
L 475.09 25.44 
" style="fill: none; stroke: #000000; stroke-width: 0.8; stroke-linejoin: miter; stroke-linecap: square"/>
   </g>
   <g id="patch_9">
    <path d="M 853.2 265.52 
L 853.2 25.44 
" style="fill: none; stroke: #000000; stroke-width: 0.8; stroke-linejoin: miter; stroke-linecap: square"/>
   </g>
   <g id="patch_10">
    <path d="M 475.09 265.52 
L 853.2 265.52 
" style="fill: none; stroke: #000000; stroke-width: 0.8; stroke-linejoin: miter; stroke-linecap: square"/>
   </g>
   <g id="patch_11">
    <path d="M 475.09 25.44 
L 853.2 25.44 
" style="fill: none; stroke: #000000; stroke-width: 0.8; stroke-linejoin: miter; stroke-linecap: square"/>
   </g>
   <g id="text_35">
    <!-- Diferite tipuri de ferestre -->
    <g transform="translate(589.562187 19.44) scale(0.12 -0.12)">
     <defs>
      <path id="DejaVuSans-44" d="M 1259 4147 
L 1259 519 
L 2022 519 
Q 2988 519 3436 956 
Q 3884 1394 3884 2338 
Q 3884 3275 3436 3711 
Q 2988 4147 2022 4147 
L 1259 4147 
z
M 628 4666 
L 1925 4666 
Q 3281 4666 3915 4102 
Q 4550 3538 4550 2338 
Q 4550 1131 3912 565 
Q 3275 0 1925 0 
L 628 0 
L 628 4666 
z
" transform="scale(0.015625)"/>
      <path id="DejaVuSans-74" d="M 1172 4494 
L 1172 3500 
L 2356 3500 
L 2356 3053 
L 1172 3053 
L 1172 1153 
Q 1172 725 1289 603 
Q 1406 481 1766 481 
L 2356 481 
L 2356 0 
L 1766 0 
Q 1100 0 847 248 
Q 594 497 594 1153 
L 594 3053 
L 172 3053 
L 172 3500 
L 594 3500 
L 594 4494 
L 1172 4494 
z
" transform="scale(0.015625)"/>
      <path id="DejaVuSans-70" d="M 1159 525 
L 1159 -1331 
L 581 -1331 
L 581 3500 
L 1159 3500 
L 1159 2969 
Q 1341 3281 1617 3432 
Q 1894 3584 2278 3584 
Q 2916 3584 3314 3078 
Q 3713 2572 3713 1747 
Q 3713 922 3314 415 
Q 2916 -91 2278 -91 
Q 1894 -91 1617 61 
Q 1341 213 1159 525 
z
M 3116 1747 
Q 3116 2381 2855 2742 
Q 2594 3103 2138 3103 
Q 1681 3103 1420 2742 
Q 1159 2381 1159 1747 
Q 1159 1113 1420 752 
Q 1681 391 2138 391 
Q 2594 391 2855 752 
Q 3116 1113 3116 1747 
z
" transform="scale(0.015625)"/>
     </defs>
     <use xlink:href="#DejaVuSans-44"/>
     <use xlink:href="#DejaVuSans-69" x="77.001953"/>
     <use xlink:href="#DejaVuSans-66" x="104.785156"/>
     <use xlink:href="#DejaVuSans-65" x="139.990234"/>
     <use xlink:href="#DejaVuSans-72" x="201.513672"/>
     <use xlink:href="#DejaVuSans-69" x="242.626953"/>
     <use xlink:href="#DejaVuSans-74" x="270.410156"/>
     <use xlink:href="#DejaVuSans-65" x="309.619141"/>
     <use xlink:href="#DejaVuSans-20" x="371.142578"/>
     <use xlink:href="#DejaVuSans-74" x="402.929688"/>
     <use xlink:href="#DejaVuSans-69" x="442.138672"/>
     <use xlink:href="#DejaVuSans-70" x="469.921875"/>
     <use xlink:href="#DejaVuSans-75" x="533.398438"/>
     <use xlink:href="#DejaVuSans-72" x="596.777344"/>
     <use xlink:href="#DejaVuSans-69" x="637.890625"/>
     <use xlink:href="#DejaVuSans-20" x="665.673828"/>
     <use xlink:href="#DejaVuSans-64" x="697.460938"/>
     <use xlink:href="#DejaVuSans-65" x="760.9375"/>
     <use xlink:href="#DejaVuSans-20" x="822.460938"/>
     <use xlink:href="#DejaVuSans-66" x="854.248047"/>
     <use xlink:href="#DejaVuSans-65" x="889.453125"/>
     <use xlink:href="#DejaVuSans-72" x="950.976562"/>
     <use xlink:href="#DejaVuSans-65" x="989.839844"/>
     <use xlink:href="#DejaVuSans-73" x="1051.363281"/>
     <use xlink:href="#DejaVuSans-74" x="1103.462891"/>
     <use xlink:href="#DejaVuSans-72" x="1142.671875"/>
     <use xlink:href="#DejaVuSans-65" x="1181.535156"/>
    </g>
   </g>
   <g id="legend_1">
    <g id="patch_12">
     <path d="M 606.692656 260.52 
L 721.597344 260.52 
Q 723.597344 260.52 723.597344 258.52 
L 723.597344 230.16375 
Q 723.597344 228.16375 721.597344 228.16375 
L 606.692656 228.16375 
Q 604.692656 228.16375 604.692656 230.16375 
L 604.692656 258.52 
Q 604.692656 260.52 606.692656 260.52 
z
" style="fill: #ffffff; opacity: 0.8; stroke: #cccccc; stroke-linejoin: miter"/>
    </g>
    <g id="line2d_70">
     <path d="M 608.692656 236.262187 
L 618.692656 236.262187 
L 628.692656 236.262187 
" style="fill: none; stroke: #000000; stroke-width: 1.5; stroke-linecap: square"/>
    </g>
    <g id="text_36">
     <!-- Rect window -->
     <g transform="translate(636.692656 239.762187) scale(0.1 -0.1)">
      <defs>
       <path id="DejaVuSans-52" d="M 2841 2188 
Q 3044 2119 3236 1894 
Q 3428 1669 3622 1275 
L 4263 0 
L 3584 0 
L 2988 1197 
Q 2756 1666 2539 1819 
Q 2322 1972 1947 1972 
L 1259 1972 
L 1259 0 
L 628 0 
L 628 4666 
L 2053 4666 
Q 2853 4666 3247 4331 
Q 3641 3997 3641 3322 
Q 3641 2881 3436 2590 
Q 3231 2300 2841 2188 
z
M 1259 4147 
L 1259 2491 
L 2053 2491 
Q 2509 2491 2742 2702 
Q 2975 2913 2975 3322 
Q 2975 3731 2742 3939 
Q 2509 4147 2053 4147 
L 1259 4147 
z
" transform="scale(0.015625)"/>
       <path id="DejaVuSans-77" d="M 269 3500 
L 844 3500 
L 1563 769 
L 2278 3500 
L 2956 3500 
L 3675 769 
L 4391 3500 
L 4966 3500 
L 4050 0 
L 3372 0 
L 2619 2869 
L 1863 0 
L 1184 0 
L 269 3500 
z
" transform="scale(0.015625)"/>
      </defs>
      <use xlink:href="#DejaVuSans-52"/>
      <use xlink:href="#DejaVuSans-65" x="64.982422"/>
      <use xlink:href="#DejaVuSans-63" x="126.505859"/>
      <use xlink:href="#DejaVuSans-74" x="181.486328"/>
      <use xlink:href="#DejaVuSans-20" x="220.695312"/>
      <use xlink:href="#DejaVuSans-77" x="252.482422"/>
      <use xlink:href="#DejaVuSans-69" x="334.269531"/>
      <use xlink:href="#DejaVuSans-6e" x="362.052734"/>
      <use xlink:href="#DejaVuSans-64" x="425.431641"/>
      <use xlink:href="#DejaVuSans-6f" x="488.908203"/>
      <use xlink:href="#DejaVuSans-77" x="550.089844"/>
     </g>
    </g>
    <g id="line2d_71">
     <path d="M 608.692656 250.940312 
L 618.692656 250.940312 
L 628.692656 250.940312 
" style="fill: none; stroke: #ffa500; stroke-width: 1.5; stroke-linecap: square"/>
    </g>
    <g id="text_37">
     <!-- Hanning window -->
     <g transform="translate(636.692656 254.440312) scale(0.1 -0.1)">
      <defs>
       <path id="DejaVuSans-48" d="M 628 4666 
L 1259 4666 
L 1259 2753 
L 3553 2753 
L 3553 4666 
L 4184 4666 
L 4184 0 
L 3553 0 
L 3553 2222 
L 1259 2222 
L 1259 0 
L 628 0 
L 628 4666 
z
" transform="scale(0.015625)"/>
       <path id="DejaVuSans-67" d="M 2906 1791 
Q 2906 2416 2648 2759 
Q 2391 3103 1925 3103 
Q 1463 3103 1205 2759 
Q 947 2416 947 1791 
Q 947 1169 1205 825 
Q 1463 481 1925 481 
Q 2391 481 2648 825 
Q 2906 1169 2906 1791 
z
M 3481 434 
Q 3481 -459 3084 -895 
Q 2688 -1331 1869 -1331 
Q 1566 -1331 1297 -1286 
Q 1028 -1241 775 -1147 
L 775 -588 
Q 1028 -725 1275 -790 
Q 1522 -856 1778 -856 
Q 2344 -856 2625 -561 
Q 2906 -266 2906 331 
L 2906 616 
Q 2728 306 2450 153 
Q 2172 0 1784 0 
Q 1141 0 747 490 
Q 353 981 353 1791 
Q 353 2603 747 3093 
Q 1141 3584 1784 3584 
Q 2172 3584 2450 3431 
Q 2728 3278 2906 2969 
L 2906 3500 
L 3481 3500 
L 3481 434 
z
" transform="scale(0.015625)"/>
      </defs>
      <use xlink:href="#DejaVuSans-48"/>
      <use xlink:href="#DejaVuSans-61" x="75.195312"/>
      <use xlink:href="#DejaVuSans-6e" x="136.474609"/>
      <use xlink:href="#DejaVuSans-6e" x="199.853516"/>
      <use xlink:href="#DejaVuSans-69" x="263.232422"/>
      <use xlink:href="#DejaVuSans-6e" x="291.015625"/>
      <use xlink:href="#DejaVuSans-67" x="354.394531"/>
      <use xlink:href="#DejaVuSans-20" x="417.871094"/>
      <use xlink:href="#DejaVuSans-77" x="449.658203"/>
      <use xlink:href="#DejaVuSans-69" x="531.445312"/>
      <use xlink:href="#DejaVuSans-6e" x="559.228516"/>
      <use xlink:href="#DejaVuSans-64" x="622.607422"/>
      <use xlink:href="#DejaVuSans-6f" x="686.083984"/>
      <use xlink:href="#DejaVuSans-77" x="747.265625"/>
     </g>
    </g>
   </g>
  </g>
  <g id="axes_3">
   <g id="patch_13">
    <path d="M 48.49 548.12 
L 426.6 548.12 
L 426.6 308.04 
L 48.49 308.04 
z
" style="fill: #ffffff"/>
   </g>
   <g id="matplotlib.axis_5">
    <g id="xtick_19">
     <g id="line2d_72">
      <path d="M 65.676818 548.12 
L 65.676818 308.04 
" clip-path="url(#p5970bc8f9f)" style="fill: none; stroke: #b0b0b0; stroke-width: 0.8; stroke-linecap: square"/>
     </g>
     <g id="line2d_73">
      <g>
       <use xlink:href="#mfa22f3c3fc" x="65.676818" y="548.12" style="stroke: #000000; stroke-width: 0.8"/>
      </g>
     </g>
     <g id="text_38">
      <!-- 0.00 -->
      <g transform="translate(54.544006 562.718437) scale(0.1 -0.1)">
       <use xlink:href="#DejaVuSans-30"/>
       <use xlink:href="#DejaVuSans-2e" x="63.623047"/>
       <use xlink:href="#DejaVuSans-30" x="95.410156"/>
       <use xlink:href="#DejaVuSans-30" x="159.033203"/>
      </g>
     </g>
    </g>
    <g id="xtick_20">
     <g id="line2d_74">
      <path d="M 108.859778 548.12 
L 108.859778 308.04 
" clip-path="url(#p5970bc8f9f)" style="fill: none; stroke: #b0b0b0; stroke-width: 0.8; stroke-linecap: square"/>
     </g>
     <g id="line2d_75">
      <g>
       <use xlink:href="#mfa22f3c3fc" x="108.859778" y="548.12" style="stroke: #000000; stroke-width: 0.8"/>
      </g>
     </g>
     <g id="text_39">
      <!-- 0.25 -->
      <g transform="translate(97.726966 562.718437) scale(0.1 -0.1)">
       <use xlink:href="#DejaVuSans-30"/>
       <use xlink:href="#DejaVuSans-2e" x="63.623047"/>
       <use xlink:href="#DejaVuSans-32" x="95.410156"/>
       <use xlink:href="#DejaVuSans-35" x="159.033203"/>
      </g>
     </g>
    </g>
    <g id="xtick_21">
     <g id="line2d_76">
      <path d="M 152.042739 548.12 
L 152.042739 308.04 
" clip-path="url(#p5970bc8f9f)" style="fill: none; stroke: #b0b0b0; stroke-width: 0.8; stroke-linecap: square"/>
     </g>
     <g id="line2d_77">
      <g>
       <use xlink:href="#mfa22f3c3fc" x="152.042739" y="548.12" style="stroke: #000000; stroke-width: 0.8"/>
      </g>
     </g>
     <g id="text_40">
      <!-- 0.50 -->
      <g transform="translate(140.909926 562.718437) scale(0.1 -0.1)">
       <use xlink:href="#DejaVuSans-30"/>
       <use xlink:href="#DejaVuSans-2e" x="63.623047"/>
       <use xlink:href="#DejaVuSans-35" x="95.410156"/>
       <use xlink:href="#DejaVuSans-30" x="159.033203"/>
      </g>
     </g>
    </g>
    <g id="xtick_22">
     <g id="line2d_78">
      <path d="M 195.225699 548.12 
L 195.225699 308.04 
" clip-path="url(#p5970bc8f9f)" style="fill: none; stroke: #b0b0b0; stroke-width: 0.8; stroke-linecap: square"/>
     </g>
     <g id="line2d_79">
      <g>
       <use xlink:href="#mfa22f3c3fc" x="195.225699" y="548.12" style="stroke: #000000; stroke-width: 0.8"/>
      </g>
     </g>
     <g id="text_41">
      <!-- 0.75 -->
      <g transform="translate(184.092886 562.718437) scale(0.1 -0.1)">
       <use xlink:href="#DejaVuSans-30"/>
       <use xlink:href="#DejaVuSans-2e" x="63.623047"/>
       <use xlink:href="#DejaVuSans-37" x="95.410156"/>
       <use xlink:href="#DejaVuSans-35" x="159.033203"/>
      </g>
     </g>
    </g>
    <g id="xtick_23">
     <g id="line2d_80">
      <path d="M 238.408659 548.12 
L 238.408659 308.04 
" clip-path="url(#p5970bc8f9f)" style="fill: none; stroke: #b0b0b0; stroke-width: 0.8; stroke-linecap: square"/>
     </g>
     <g id="line2d_81">
      <g>
       <use xlink:href="#mfa22f3c3fc" x="238.408659" y="548.12" style="stroke: #000000; stroke-width: 0.8"/>
      </g>
     </g>
     <g id="text_42">
      <!-- 1.00 -->
      <g transform="translate(227.275847 562.718437) scale(0.1 -0.1)">
       <use xlink:href="#DejaVuSans-31"/>
       <use xlink:href="#DejaVuSans-2e" x="63.623047"/>
       <use xlink:href="#DejaVuSans-30" x="95.410156"/>
       <use xlink:href="#DejaVuSans-30" x="159.033203"/>
      </g>
     </g>
    </g>
    <g id="xtick_24">
     <g id="line2d_82">
      <path d="M 281.591619 548.12 
L 281.591619 308.04 
" clip-path="url(#p5970bc8f9f)" style="fill: none; stroke: #b0b0b0; stroke-width: 0.8; stroke-linecap: square"/>
     </g>
     <g id="line2d_83">
      <g>
       <use xlink:href="#mfa22f3c3fc" x="281.591619" y="548.12" style="stroke: #000000; stroke-width: 0.8"/>
      </g>
     </g>
     <g id="text_43">
      <!-- 1.25 -->
      <g transform="translate(270.458807 562.718437) scale(0.1 -0.1)">
       <use xlink:href="#DejaVuSans-31"/>
       <use xlink:href="#DejaVuSans-2e" x="63.623047"/>
       <use xlink:href="#DejaVuSans-32" x="95.410156"/>
       <use xlink:href="#DejaVuSans-35" x="159.033203"/>
      </g>
     </g>
    </g>
    <g id="xtick_25">
     <g id="line2d_84">
      <path d="M 324.77458 548.12 
L 324.77458 308.04 
" clip-path="url(#p5970bc8f9f)" style="fill: none; stroke: #b0b0b0; stroke-width: 0.8; stroke-linecap: square"/>
     </g>
     <g id="line2d_85">
      <g>
       <use xlink:href="#mfa22f3c3fc" x="324.77458" y="548.12" style="stroke: #000000; stroke-width: 0.8"/>
      </g>
     </g>
     <g id="text_44">
      <!-- 1.50 -->
      <g transform="translate(313.641767 562.718437) scale(0.1 -0.1)">
       <use xlink:href="#DejaVuSans-31"/>
       <use xlink:href="#DejaVuSans-2e" x="63.623047"/>
       <use xlink:href="#DejaVuSans-35" x="95.410156"/>
       <use xlink:href="#DejaVuSans-30" x="159.033203"/>
      </g>
     </g>
    </g>
    <g id="xtick_26">
     <g id="line2d_86">
      <path d="M 367.95754 548.12 
L 367.95754 308.04 
" clip-path="url(#p5970bc8f9f)" style="fill: none; stroke: #b0b0b0; stroke-width: 0.8; stroke-linecap: square"/>
     </g>
     <g id="line2d_87">
      <g>
       <use xlink:href="#mfa22f3c3fc" x="367.95754" y="548.12" style="stroke: #000000; stroke-width: 0.8"/>
      </g>
     </g>
     <g id="text_45">
      <!-- 1.75 -->
      <g transform="translate(356.824727 562.718437) scale(0.1 -0.1)">
       <use xlink:href="#DejaVuSans-31"/>
       <use xlink:href="#DejaVuSans-2e" x="63.623047"/>
       <use xlink:href="#DejaVuSans-37" x="95.410156"/>
       <use xlink:href="#DejaVuSans-35" x="159.033203"/>
      </g>
     </g>
    </g>
    <g id="xtick_27">
     <g id="line2d_88">
      <path d="M 411.1405 548.12 
L 411.1405 308.04 
" clip-path="url(#p5970bc8f9f)" style="fill: none; stroke: #b0b0b0; stroke-width: 0.8; stroke-linecap: square"/>
     </g>
     <g id="line2d_89">
      <g>
       <use xlink:href="#mfa22f3c3fc" x="411.1405" y="548.12" style="stroke: #000000; stroke-width: 0.8"/>
      </g>
     </g>
     <g id="text_46">
      <!-- 2.00 -->
      <g transform="translate(400.007688 562.718437) scale(0.1 -0.1)">
       <use xlink:href="#DejaVuSans-32"/>
       <use xlink:href="#DejaVuSans-2e" x="63.623047"/>
       <use xlink:href="#DejaVuSans-30" x="95.410156"/>
       <use xlink:href="#DejaVuSans-30" x="159.033203"/>
      </g>
     </g>
    </g>
   </g>
   <g id="matplotlib.axis_6">
    <g id="ytick_16">
     <g id="line2d_90">
      <path d="M 48.49 537.423036 
L 426.6 537.423036 
" clip-path="url(#p5970bc8f9f)" style="fill: none; stroke: #b0b0b0; stroke-width: 0.8; stroke-linecap: square"/>
     </g>
     <g id="line2d_91">
      <g>
       <use xlink:href="#mf918b9b04f" x="48.49" y="537.423036" style="stroke: #000000; stroke-width: 0.8"/>
      </g>
     </g>
     <g id="text_47">
      <!-- −1.00 -->
      <g transform="translate(10.844687 541.222255) scale(0.1 -0.1)">
       <use xlink:href="#DejaVuSans-2212"/>
       <use xlink:href="#DejaVuSans-31" x="83.789062"/>
       <use xlink:href="#DejaVuSans-2e" x="147.412109"/>
       <use xlink:href="#DejaVuSans-30" x="179.199219"/>
       <use xlink:href="#DejaVuSans-30" x="242.822266"/>
      </g>
     </g>
    </g>
    <g id="ytick_17">
     <g id="line2d_92">
      <path d="M 48.49 510.087277 
L 426.6 510.087277 
" clip-path="url(#p5970bc8f9f)" style="fill: none; stroke: #b0b0b0; stroke-width: 0.8; stroke-linecap: square"/>
     </g>
     <g id="line2d_93">
      <g>
       <use xlink:href="#mf918b9b04f" x="48.49" y="510.087277" style="stroke: #000000; stroke-width: 0.8"/>
      </g>
     </g>
     <g id="text_48">
      <!-- −0.75 -->
      <g transform="translate(10.844687 513.886496) scale(0.1 -0.1)">
       <use xlink:href="#DejaVuSans-2212"/>
       <use xlink:href="#DejaVuSans-30" x="83.789062"/>
       <use xlink:href="#DejaVuSans-2e" x="147.412109"/>
       <use xlink:href="#DejaVuSans-37" x="179.199219"/>
       <use xlink:href="#DejaVuSans-35" x="242.822266"/>
      </g>
     </g>
    </g>
    <g id="ytick_18">
     <g id="line2d_94">
      <path d="M 48.49 482.751518 
L 426.6 482.751518 
" clip-path="url(#p5970bc8f9f)" style="fill: none; stroke: #b0b0b0; stroke-width: 0.8; stroke-linecap: square"/>
     </g>
     <g id="line2d_95">
      <g>
       <use xlink:href="#mf918b9b04f" x="48.49" y="482.751518" style="stroke: #000000; stroke-width: 0.8"/>
      </g>
     </g>
     <g id="text_49">
      <!-- −0.50 -->
      <g transform="translate(10.844687 486.550737) scale(0.1 -0.1)">
       <use xlink:href="#DejaVuSans-2212"/>
       <use xlink:href="#DejaVuSans-30" x="83.789062"/>
       <use xlink:href="#DejaVuSans-2e" x="147.412109"/>
       <use xlink:href="#DejaVuSans-35" x="179.199219"/>
       <use xlink:href="#DejaVuSans-30" x="242.822266"/>
      </g>
     </g>
    </g>
    <g id="ytick_19">
     <g id="line2d_96">
      <path d="M 48.49 455.415759 
L 426.6 455.415759 
" clip-path="url(#p5970bc8f9f)" style="fill: none; stroke: #b0b0b0; stroke-width: 0.8; stroke-linecap: square"/>
     </g>
     <g id="line2d_97">
      <g>
       <use xlink:href="#mf918b9b04f" x="48.49" y="455.415759" style="stroke: #000000; stroke-width: 0.8"/>
      </g>
     </g>
     <g id="text_50">
      <!-- −0.25 -->
      <g transform="translate(10.844687 459.214978) scale(0.1 -0.1)">
       <use xlink:href="#DejaVuSans-2212"/>
       <use xlink:href="#DejaVuSans-30" x="83.789062"/>
       <use xlink:href="#DejaVuSans-2e" x="147.412109"/>
       <use xlink:href="#DejaVuSans-32" x="179.199219"/>
       <use xlink:href="#DejaVuSans-35" x="242.822266"/>
      </g>
     </g>
    </g>
    <g id="ytick_20">
     <g id="line2d_98">
      <path d="M 48.49 428.08 
L 426.6 428.08 
" clip-path="url(#p5970bc8f9f)" style="fill: none; stroke: #b0b0b0; stroke-width: 0.8; stroke-linecap: square"/>
     </g>
     <g id="line2d_99">
      <g>
       <use xlink:href="#mf918b9b04f" x="48.49" y="428.08" style="stroke: #000000; stroke-width: 0.8"/>
      </g>
     </g>
     <g id="text_51">
      <!-- 0.00 -->
      <g transform="translate(19.224375 431.879219) scale(0.1 -0.1)">
       <use xlink:href="#DejaVuSans-30"/>
       <use xlink:href="#DejaVuSans-2e" x="63.623047"/>
       <use xlink:href="#DejaVuSans-30" x="95.410156"/>
       <use xlink:href="#DejaVuSans-30" x="159.033203"/>
      </g>
     </g>
    </g>
    <g id="ytick_21">
     <g id="line2d_100">
      <path d="M 48.49 400.744241 
L 426.6 400.744241 
" clip-path="url(#p5970bc8f9f)" style="fill: none; stroke: #b0b0b0; stroke-width: 0.8; stroke-linecap: square"/>
     </g>
     <g id="line2d_101">
      <g>
       <use xlink:href="#mf918b9b04f" x="48.49" y="400.744241" style="stroke: #000000; stroke-width: 0.8"/>
      </g>
     </g>
     <g id="text_52">
      <!-- 0.25 -->
      <g transform="translate(19.224375 404.54346) scale(0.1 -0.1)">
       <use xlink:href="#DejaVuSans-30"/>
       <use xlink:href="#DejaVuSans-2e" x="63.623047"/>
       <use xlink:href="#DejaVuSans-32" x="95.410156"/>
       <use xlink:href="#DejaVuSans-35" x="159.033203"/>
      </g>
     </g>
    </g>
    <g id="ytick_22">
     <g id="line2d_102">
      <path d="M 48.49 373.408482 
L 426.6 373.408482 
" clip-path="url(#p5970bc8f9f)" style="fill: none; stroke: #b0b0b0; stroke-width: 0.8; stroke-linecap: square"/>
     </g>
     <g id="line2d_103">
      <g>
       <use xlink:href="#mf918b9b04f" x="48.49" y="373.408482" style="stroke: #000000; stroke-width: 0.8"/>
      </g>
     </g>
     <g id="text_53">
      <!-- 0.50 -->
      <g transform="translate(19.224375 377.207701) scale(0.1 -0.1)">
       <use xlink:href="#DejaVuSans-30"/>
       <use xlink:href="#DejaVuSans-2e" x="63.623047"/>
       <use xlink:href="#DejaVuSans-35" x="95.410156"/>
       <use xlink:href="#DejaVuSans-30" x="159.033203"/>
      </g>
     </g>
    </g>
    <g id="ytick_23">
     <g id="line2d_104">
      <path d="M 48.49 346.072723 
L 426.6 346.072723 
" clip-path="url(#p5970bc8f9f)" style="fill: none; stroke: #b0b0b0; stroke-width: 0.8; stroke-linecap: square"/>
     </g>
     <g id="line2d_105">
      <g>
       <use xlink:href="#mf918b9b04f" x="48.49" y="346.072723" style="stroke: #000000; stroke-width: 0.8"/>
      </g>
     </g>
     <g id="text_54">
      <!-- 0.75 -->
      <g transform="translate(19.224375 349.871942) scale(0.1 -0.1)">
       <use xlink:href="#DejaVuSans-30"/>
       <use xlink:href="#DejaVuSans-2e" x="63.623047"/>
       <use xlink:href="#DejaVuSans-37" x="95.410156"/>
       <use xlink:href="#DejaVuSans-35" x="159.033203"/>
      </g>
     </g>
    </g>
    <g id="ytick_24">
     <g id="line2d_106">
      <path d="M 48.49 318.736964 
L 426.6 318.736964 
" clip-path="url(#p5970bc8f9f)" style="fill: none; stroke: #b0b0b0; stroke-width: 0.8; stroke-linecap: square"/>
     </g>
     <g id="line2d_107">
      <g>
       <use xlink:href="#mf918b9b04f" x="48.49" y="318.736964" style="stroke: #000000; stroke-width: 0.8"/>
      </g>
     </g>
     <g id="text_55">
      <!-- 1.00 -->
      <g transform="translate(19.224375 322.536183) scale(0.1 -0.1)">
       <use xlink:href="#DejaVuSans-31"/>
       <use xlink:href="#DejaVuSans-2e" x="63.623047"/>
       <use xlink:href="#DejaVuSans-30" x="95.410156"/>
       <use xlink:href="#DejaVuSans-30" x="159.033203"/>
      </g>
     </g>
    </g>
   </g>
   <g id="line2d_108">
    <path d="M 65.676818 428.08 
L 69.131455 375.403591 
L 70.858773 353.229541 
L 72.586092 335.758621 
L 74.31341 324.088593 
L 76.040729 318.952727 
L 77.768047 320.67373 
L 79.495365 329.143463 
L 81.222684 343.829743 
L 82.950002 363.809776 
L 84.677321 387.828144 
L 91.586594 492.350224 
L 93.313913 512.330257 
L 95.041231 527.016537 
L 96.76855 535.48627 
L 98.495868 537.207273 
L 100.223186 532.071407 
L 101.950505 520.401379 
L 103.677823 502.930459 
L 105.405142 480.756409 
L 107.13246 455.272507 
L 112.314415 375.403591 
L 114.041734 353.229541 
L 115.769052 335.758621 
L 117.49637 324.088593 
L 119.223689 318.952727 
L 120.951007 320.67373 
L 122.678326 329.143463 
L 124.405644 343.829743 
L 126.132963 363.809776 
L 127.860281 387.828144 
L 134.769555 492.350224 
L 136.496873 512.330257 
L 138.224191 527.016537 
L 139.95151 535.48627 
L 141.678828 537.207273 
L 143.406147 532.071407 
L 145.133465 520.401379 
L 146.860783 502.930459 
L 148.588102 480.756409 
L 150.31542 455.272507 
L 155.497376 375.403591 
L 157.224694 353.229541 
L 158.952012 335.758621 
L 160.679331 324.088593 
L 162.406649 318.952727 
L 164.133968 320.67373 
L 165.861286 329.143463 
L 167.588604 343.829743 
L 169.315923 363.809776 
L 171.043241 387.828144 
L 177.952515 492.350224 
L 179.679833 512.330257 
L 181.407152 527.016537 
L 183.13447 535.48627 
L 184.861788 537.207273 
L 186.589107 532.071407 
L 188.316425 520.401379 
L 190.043744 502.930459 
L 191.771062 480.756409 
L 193.498381 455.272507 
L 198.680336 375.403591 
L 200.407654 353.229541 
L 202.134973 335.758621 
L 203.862291 324.088593 
L 205.589609 318.952727 
L 207.316928 320.67373 
L 209.044246 329.143463 
L 210.771565 343.829743 
L 212.498883 363.809776 
L 214.226201 387.828144 
L 221.135475 492.350224 
L 222.862794 512.330257 
L 224.590112 527.016537 
L 226.31743 535.48627 
L 228.044749 537.207273 
L 229.772067 532.071407 
L 231.499386 520.401379 
L 233.226704 502.930459 
L 234.954022 480.756409 
L 236.681341 455.272507 
L 241.863296 375.403591 
L 243.590614 353.229541 
L 245.317933 335.758621 
L 247.045251 324.088593 
L 248.77257 318.952727 
L 250.499888 320.67373 
L 252.227206 329.143463 
L 253.954525 343.829743 
L 255.681843 363.809776 
L 257.409162 387.828144 
L 264.318435 492.350224 
L 266.045754 512.330257 
L 267.773072 527.016537 
L 269.500391 535.48627 
L 271.227709 537.207273 
L 272.955027 532.071407 
L 274.682346 520.401379 
L 276.409664 502.930459 
L 278.136983 480.756409 
L 279.864301 455.272507 
L 285.046256 375.403591 
L 286.773575 353.229541 
L 288.500893 335.758621 
L 290.228212 324.088593 
L 291.95553 318.952727 
L 293.682848 320.67373 
L 295.410167 329.143463 
L 297.137485 343.829743 
L 298.864804 363.809776 
L 300.592122 387.828144 
L 307.501396 492.350224 
L 309.228714 512.330257 
L 310.956032 527.016537 
L 312.683351 535.48627 
L 314.410669 537.207273 
L 316.137988 532.071407 
L 317.865306 520.401379 
L 319.592624 502.930459 
L 321.319943 480.756409 
L 323.047261 455.272507 
L 328.229217 375.403591 
L 329.956535 353.229541 
L 331.683853 335.758621 
L 333.411172 324.088593 
L 335.13849 318.952727 
L 336.865809 320.67373 
L 338.593127 329.143463 
L 340.320445 343.829743 
L 342.047764 363.809776 
L 343.775082 387.828144 
L 350.684356 492.350224 
L 352.411674 512.330257 
L 354.138993 527.016537 
L 355.866311 535.48627 
L 357.59363 537.207273 
L 359.320948 532.071407 
L 361.048266 520.401379 
L 362.775585 502.930459 
L 364.502903 480.756409 
L 366.230222 455.272507 
L 371.412177 375.403591 
L 373.139495 353.229541 
L 374.866814 335.758621 
L 376.594132 324.088593 
L 378.32145 318.952727 
L 380.048769 320.67373 
L 381.776087 329.143463 
L 383.503406 343.829743 
L 385.230724 363.809776 
L 386.958042 387.828144 
L 393.867316 492.350224 
L 395.594635 512.330257 
L 397.321953 527.016537 
L 399.049271 535.48627 
L 400.77659 537.207273 
L 402.503908 532.071407 
L 404.231227 520.401379 
L 405.958545 502.930459 
L 407.685863 480.756409 
L 409.413182 455.272507 
L 409.413182 455.272507 
" clip-path="url(#p5970bc8f9f)" style="fill: none; stroke: #000000; stroke-width: 1.5; stroke-linecap: square"/>
   </g>
   <g id="patch_14">
    <path d="M 48.49 548.12 
L 48.49 308.04 
" style="fill: none; stroke: #000000; stroke-width: 0.8; stroke-linejoin: miter; stroke-linecap: square"/>
   </g>
   <g id="patch_15">
    <path d="M 426.6 548.12 
L 426.6 308.04 
" style="fill: none; stroke: #000000; stroke-width: 0.8; stroke-linejoin: miter; stroke-linecap: square"/>
   </g>
   <g id="patch_16">
    <path d="M 48.49 548.12 
L 426.6 548.12 
" style="fill: none; stroke: #000000; stroke-width: 0.8; stroke-linejoin: miter; stroke-linecap: square"/>
   </g>
   <g id="patch_17">
    <path d="M 48.49 308.04 
L 426.6 308.04 
" style="fill: none; stroke: #000000; stroke-width: 0.8; stroke-linejoin: miter; stroke-linecap: square"/>
   </g>
   <g id="text_56">
    <!-- Semnalul trecut prin rect -->
    <g transform="translate(162.614375 302.04) scale(0.12 -0.12)">
     <defs>
      <path id="DejaVuSans-6d" d="M 3328 2828 
Q 3544 3216 3844 3400 
Q 4144 3584 4550 3584 
Q 5097 3584 5394 3201 
Q 5691 2819 5691 2113 
L 5691 0 
L 5113 0 
L 5113 2094 
Q 5113 2597 4934 2840 
Q 4756 3084 4391 3084 
Q 3944 3084 3684 2787 
Q 3425 2491 3425 1978 
L 3425 0 
L 2847 0 
L 2847 2094 
Q 2847 2600 2669 2842 
Q 2491 3084 2119 3084 
Q 1678 3084 1418 2786 
Q 1159 2488 1159 1978 
L 1159 0 
L 581 0 
L 581 3500 
L 1159 3500 
L 1159 2956 
Q 1356 3278 1631 3431 
Q 1906 3584 2284 3584 
Q 2666 3584 2933 3390 
Q 3200 3197 3328 2828 
z
" transform="scale(0.015625)"/>
      <path id="DejaVuSans-6c" d="M 603 4863 
L 1178 4863 
L 1178 0 
L 603 0 
L 603 4863 
z
" transform="scale(0.015625)"/>
     </defs>
     <use xlink:href="#DejaVuSans-53"/>
     <use xlink:href="#DejaVuSans-65" x="63.476562"/>
     <use xlink:href="#DejaVuSans-6d" x="125"/>
     <use xlink:href="#DejaVuSans-6e" x="222.412109"/>
     <use xlink:href="#DejaVuSans-61" x="285.791016"/>
     <use xlink:href="#DejaVuSans-6c" x="347.070312"/>
     <use xlink:href="#DejaVuSans-75" x="374.853516"/>
     <use xlink:href="#DejaVuSans-6c" x="438.232422"/>
     <use xlink:href="#DejaVuSans-20" x="466.015625"/>
     <use xlink:href="#DejaVuSans-74" x="497.802734"/>
     <use xlink:href="#DejaVuSans-72" x="537.011719"/>
     <use xlink:href="#DejaVuSans-65" x="575.875"/>
     <use xlink:href="#DejaVuSans-63" x="637.398438"/>
     <use xlink:href="#DejaVuSans-75" x="692.378906"/>
     <use xlink:href="#DejaVuSans-74" x="755.757812"/>
     <use xlink:href="#DejaVuSans-20" x="794.966797"/>
     <use xlink:href="#DejaVuSans-70" x="826.753906"/>
     <use xlink:href="#DejaVuSans-72" x="890.230469"/>
     <use xlink:href="#DejaVuSans-69" x="931.34375"/>
     <use xlink:href="#DejaVuSans-6e" x="959.126953"/>
     <use xlink:href="#DejaVuSans-20" x="1022.505859"/>
     <use xlink:href="#DejaVuSans-72" x="1054.292969"/>
     <use xlink:href="#DejaVuSans-65" x="1093.15625"/>
     <use xlink:href="#DejaVuSans-63" x="1154.679688"/>
     <use xlink:href="#DejaVuSans-74" x="1209.660156"/>
    </g>
   </g>
  </g>
  <g id="axes_4">
   <g id="patch_18">
    <path d="M 475.09 548.12 
L 853.2 548.12 
L 853.2 308.04 
L 475.09 308.04 
z
" style="fill: #ffffff"/>
   </g>
   <g id="matplotlib.axis_7">
    <g id="xtick_28">
     <g id="line2d_109">
      <path d="M 492.276818 548.12 
L 492.276818 308.04 
" clip-path="url(#p24ef106fd1)" style="fill: none; stroke: #b0b0b0; stroke-width: 0.8; stroke-linecap: square"/>
     </g>
     <g id="line2d_110">
      <g>
       <use xlink:href="#mfa22f3c3fc" x="492.276818" y="548.12" style="stroke: #000000; stroke-width: 0.8"/>
      </g>
     </g>
     <g id="text_57">
      <!-- 0.00 -->
      <g transform="translate(481.144006 562.718437) scale(0.1 -0.1)">
       <use xlink:href="#DejaVuSans-30"/>
       <use xlink:href="#DejaVuSans-2e" x="63.623047"/>
       <use xlink:href="#DejaVuSans-30" x="95.410156"/>
       <use xlink:href="#DejaVuSans-30" x="159.033203"/>
      </g>
     </g>
    </g>
    <g id="xtick_29">
     <g id="line2d_111">
      <path d="M 535.459778 548.12 
L 535.459778 308.04 
" clip-path="url(#p24ef106fd1)" style="fill: none; stroke: #b0b0b0; stroke-width: 0.8; stroke-linecap: square"/>
     </g>
     <g id="line2d_112">
      <g>
       <use xlink:href="#mfa22f3c3fc" x="535.459778" y="548.12" style="stroke: #000000; stroke-width: 0.8"/>
      </g>
     </g>
     <g id="text_58">
      <!-- 0.25 -->
      <g transform="translate(524.326966 562.718437) scale(0.1 -0.1)">
       <use xlink:href="#DejaVuSans-30"/>
       <use xlink:href="#DejaVuSans-2e" x="63.623047"/>
       <use xlink:href="#DejaVuSans-32" x="95.410156"/>
       <use xlink:href="#DejaVuSans-35" x="159.033203"/>
      </g>
     </g>
    </g>
    <g id="xtick_30">
     <g id="line2d_113">
      <path d="M 578.642739 548.12 
L 578.642739 308.04 
" clip-path="url(#p24ef106fd1)" style="fill: none; stroke: #b0b0b0; stroke-width: 0.8; stroke-linecap: square"/>
     </g>
     <g id="line2d_114">
      <g>
       <use xlink:href="#mfa22f3c3fc" x="578.642739" y="548.12" style="stroke: #000000; stroke-width: 0.8"/>
      </g>
     </g>
     <g id="text_59">
      <!-- 0.50 -->
      <g transform="translate(567.509926 562.718437) scale(0.1 -0.1)">
       <use xlink:href="#DejaVuSans-30"/>
       <use xlink:href="#DejaVuSans-2e" x="63.623047"/>
       <use xlink:href="#DejaVuSans-35" x="95.410156"/>
       <use xlink:href="#DejaVuSans-30" x="159.033203"/>
      </g>
     </g>
    </g>
    <g id="xtick_31">
     <g id="line2d_115">
      <path d="M 621.825699 548.12 
L 621.825699 308.04 
" clip-path="url(#p24ef106fd1)" style="fill: none; stroke: #b0b0b0; stroke-width: 0.8; stroke-linecap: square"/>
     </g>
     <g id="line2d_116">
      <g>
       <use xlink:href="#mfa22f3c3fc" x="621.825699" y="548.12" style="stroke: #000000; stroke-width: 0.8"/>
      </g>
     </g>
     <g id="text_60">
      <!-- 0.75 -->
      <g transform="translate(610.692886 562.718437) scale(0.1 -0.1)">
       <use xlink:href="#DejaVuSans-30"/>
       <use xlink:href="#DejaVuSans-2e" x="63.623047"/>
       <use xlink:href="#DejaVuSans-37" x="95.410156"/>
       <use xlink:href="#DejaVuSans-35" x="159.033203"/>
      </g>
     </g>
    </g>
    <g id="xtick_32">
     <g id="line2d_117">
      <path d="M 665.008659 548.12 
L 665.008659 308.04 
" clip-path="url(#p24ef106fd1)" style="fill: none; stroke: #b0b0b0; stroke-width: 0.8; stroke-linecap: square"/>
     </g>
     <g id="line2d_118">
      <g>
       <use xlink:href="#mfa22f3c3fc" x="665.008659" y="548.12" style="stroke: #000000; stroke-width: 0.8"/>
      </g>
     </g>
     <g id="text_61">
      <!-- 1.00 -->
      <g transform="translate(653.875847 562.718437) scale(0.1 -0.1)">
       <use xlink:href="#DejaVuSans-31"/>
       <use xlink:href="#DejaVuSans-2e" x="63.623047"/>
       <use xlink:href="#DejaVuSans-30" x="95.410156"/>
       <use xlink:href="#DejaVuSans-30" x="159.033203"/>
      </g>
     </g>
    </g>
    <g id="xtick_33">
     <g id="line2d_119">
      <path d="M 708.191619 548.12 
L 708.191619 308.04 
" clip-path="url(#p24ef106fd1)" style="fill: none; stroke: #b0b0b0; stroke-width: 0.8; stroke-linecap: square"/>
     </g>
     <g id="line2d_120">
      <g>
       <use xlink:href="#mfa22f3c3fc" x="708.191619" y="548.12" style="stroke: #000000; stroke-width: 0.8"/>
      </g>
     </g>
     <g id="text_62">
      <!-- 1.25 -->
      <g transform="translate(697.058807 562.718437) scale(0.1 -0.1)">
       <use xlink:href="#DejaVuSans-31"/>
       <use xlink:href="#DejaVuSans-2e" x="63.623047"/>
       <use xlink:href="#DejaVuSans-32" x="95.410156"/>
       <use xlink:href="#DejaVuSans-35" x="159.033203"/>
      </g>
     </g>
    </g>
    <g id="xtick_34">
     <g id="line2d_121">
      <path d="M 751.37458 548.12 
L 751.37458 308.04 
" clip-path="url(#p24ef106fd1)" style="fill: none; stroke: #b0b0b0; stroke-width: 0.8; stroke-linecap: square"/>
     </g>
     <g id="line2d_122">
      <g>
       <use xlink:href="#mfa22f3c3fc" x="751.37458" y="548.12" style="stroke: #000000; stroke-width: 0.8"/>
      </g>
     </g>
     <g id="text_63">
      <!-- 1.50 -->
      <g transform="translate(740.241767 562.718437) scale(0.1 -0.1)">
       <use xlink:href="#DejaVuSans-31"/>
       <use xlink:href="#DejaVuSans-2e" x="63.623047"/>
       <use xlink:href="#DejaVuSans-35" x="95.410156"/>
       <use xlink:href="#DejaVuSans-30" x="159.033203"/>
      </g>
     </g>
    </g>
    <g id="xtick_35">
     <g id="line2d_123">
      <path d="M 794.55754 548.12 
L 794.55754 308.04 
" clip-path="url(#p24ef106fd1)" style="fill: none; stroke: #b0b0b0; stroke-width: 0.8; stroke-linecap: square"/>
     </g>
     <g id="line2d_124">
      <g>
       <use xlink:href="#mfa22f3c3fc" x="794.55754" y="548.12" style="stroke: #000000; stroke-width: 0.8"/>
      </g>
     </g>
     <g id="text_64">
      <!-- 1.75 -->
      <g transform="translate(783.424727 562.718437) scale(0.1 -0.1)">
       <use xlink:href="#DejaVuSans-31"/>
       <use xlink:href="#DejaVuSans-2e" x="63.623047"/>
       <use xlink:href="#DejaVuSans-37" x="95.410156"/>
       <use xlink:href="#DejaVuSans-35" x="159.033203"/>
      </g>
     </g>
    </g>
    <g id="xtick_36">
     <g id="line2d_125">
      <path d="M 837.7405 548.12 
L 837.7405 308.04 
" clip-path="url(#p24ef106fd1)" style="fill: none; stroke: #b0b0b0; stroke-width: 0.8; stroke-linecap: square"/>
     </g>
     <g id="line2d_126">
      <g>
       <use xlink:href="#mfa22f3c3fc" x="837.7405" y="548.12" style="stroke: #000000; stroke-width: 0.8"/>
      </g>
     </g>
     <g id="text_65">
      <!-- 2.00 -->
      <g transform="translate(826.607688 562.718437) scale(0.1 -0.1)">
       <use xlink:href="#DejaVuSans-32"/>
       <use xlink:href="#DejaVuSans-2e" x="63.623047"/>
       <use xlink:href="#DejaVuSans-30" x="95.410156"/>
       <use xlink:href="#DejaVuSans-30" x="159.033203"/>
      </g>
     </g>
    </g>
   </g>
   <g id="matplotlib.axis_8">
    <g id="ytick_25">
     <g id="line2d_127">
      <path d="M 475.09 538.400072 
L 853.2 538.400072 
" clip-path="url(#p24ef106fd1)" style="fill: none; stroke: #b0b0b0; stroke-width: 0.8; stroke-linecap: square"/>
     </g>
     <g id="line2d_128">
      <g>
       <use xlink:href="#mf918b9b04f" x="475.09" y="538.400072" style="stroke: #000000; stroke-width: 0.8"/>
      </g>
     </g>
     <g id="text_66">
      <!-- −1.00 -->
      <g transform="translate(437.444687 542.199291) scale(0.1 -0.1)">
       <use xlink:href="#DejaVuSans-2212"/>
       <use xlink:href="#DejaVuSans-31" x="83.789062"/>
       <use xlink:href="#DejaVuSans-2e" x="147.412109"/>
       <use xlink:href="#DejaVuSans-30" x="179.199219"/>
       <use xlink:href="#DejaVuSans-30" x="242.822266"/>
      </g>
     </g>
    </g>
    <g id="ytick_26">
     <g id="line2d_129">
      <path d="M 475.09 510.820054 
L 853.2 510.820054 
" clip-path="url(#p24ef106fd1)" style="fill: none; stroke: #b0b0b0; stroke-width: 0.8; stroke-linecap: square"/>
     </g>
     <g id="line2d_130">
      <g>
       <use xlink:href="#mf918b9b04f" x="475.09" y="510.820054" style="stroke: #000000; stroke-width: 0.8"/>
      </g>
     </g>
     <g id="text_67">
      <!-- −0.75 -->
      <g transform="translate(437.444687 514.619273) scale(0.1 -0.1)">
       <use xlink:href="#DejaVuSans-2212"/>
       <use xlink:href="#DejaVuSans-30" x="83.789062"/>
       <use xlink:href="#DejaVuSans-2e" x="147.412109"/>
       <use xlink:href="#DejaVuSans-37" x="179.199219"/>
       <use xlink:href="#DejaVuSans-35" x="242.822266"/>
      </g>
     </g>
    </g>
    <g id="ytick_27">
     <g id="line2d_131">
      <path d="M 475.09 483.240036 
L 853.2 483.240036 
" clip-path="url(#p24ef106fd1)" style="fill: none; stroke: #b0b0b0; stroke-width: 0.8; stroke-linecap: square"/>
     </g>
     <g id="line2d_132">
      <g>
       <use xlink:href="#mf918b9b04f" x="475.09" y="483.240036" style="stroke: #000000; stroke-width: 0.8"/>
      </g>
     </g>
     <g id="text_68">
      <!-- −0.50 -->
      <g transform="translate(437.444687 487.039255) scale(0.1 -0.1)">
       <use xlink:href="#DejaVuSans-2212"/>
       <use xlink:href="#DejaVuSans-30" x="83.789062"/>
       <use xlink:href="#DejaVuSans-2e" x="147.412109"/>
       <use xlink:href="#DejaVuSans-35" x="179.199219"/>
       <use xlink:href="#DejaVuSans-30" x="242.822266"/>
      </g>
     </g>
    </g>
    <g id="ytick_28">
     <g id="line2d_133">
      <path d="M 475.09 455.660018 
L 853.2 455.660018 
" clip-path="url(#p24ef106fd1)" style="fill: none; stroke: #b0b0b0; stroke-width: 0.8; stroke-linecap: square"/>
     </g>
     <g id="line2d_134">
      <g>
       <use xlink:href="#mf918b9b04f" x="475.09" y="455.660018" style="stroke: #000000; stroke-width: 0.8"/>
      </g>
     </g>
     <g id="text_69">
      <!-- −0.25 -->
      <g transform="translate(437.444687 459.459237) scale(0.1 -0.1)">
       <use xlink:href="#DejaVuSans-2212"/>
       <use xlink:href="#DejaVuSans-30" x="83.789062"/>
       <use xlink:href="#DejaVuSans-2e" x="147.412109"/>
       <use xlink:href="#DejaVuSans-32" x="179.199219"/>
       <use xlink:href="#DejaVuSans-35" x="242.822266"/>
      </g>
     </g>
    </g>
    <g id="ytick_29">
     <g id="line2d_135">
      <path d="M 475.09 428.08 
L 853.2 428.08 
" clip-path="url(#p24ef106fd1)" style="fill: none; stroke: #b0b0b0; stroke-width: 0.8; stroke-linecap: square"/>
     </g>
     <g id="line2d_136">
      <g>
       <use xlink:href="#mf918b9b04f" x="475.09" y="428.08" style="stroke: #000000; stroke-width: 0.8"/>
      </g>
     </g>
     <g id="text_70">
      <!-- 0.00 -->
      <g transform="translate(445.824375 431.879219) scale(0.1 -0.1)">
       <use xlink:href="#DejaVuSans-30"/>
       <use xlink:href="#DejaVuSans-2e" x="63.623047"/>
       <use xlink:href="#DejaVuSans-30" x="95.410156"/>
       <use xlink:href="#DejaVuSans-30" x="159.033203"/>
      </g>
     </g>
    </g>
    <g id="ytick_30">
     <g id="line2d_137">
      <path d="M 475.09 400.499982 
L 853.2 400.499982 
" clip-path="url(#p24ef106fd1)" style="fill: none; stroke: #b0b0b0; stroke-width: 0.8; stroke-linecap: square"/>
     </g>
     <g id="line2d_138">
      <g>
       <use xlink:href="#mf918b9b04f" x="475.09" y="400.499982" style="stroke: #000000; stroke-width: 0.8"/>
      </g>
     </g>
     <g id="text_71">
      <!-- 0.25 -->
      <g transform="translate(445.824375 404.299201) scale(0.1 -0.1)">
       <use xlink:href="#DejaVuSans-30"/>
       <use xlink:href="#DejaVuSans-2e" x="63.623047"/>
       <use xlink:href="#DejaVuSans-32" x="95.410156"/>
       <use xlink:href="#DejaVuSans-35" x="159.033203"/>
      </g>
     </g>
    </g>
    <g id="ytick_31">
     <g id="line2d_139">
      <path d="M 475.09 372.919964 
L 853.2 372.919964 
" clip-path="url(#p24ef106fd1)" style="fill: none; stroke: #b0b0b0; stroke-width: 0.8; stroke-linecap: square"/>
     </g>
     <g id="line2d_140">
      <g>
       <use xlink:href="#mf918b9b04f" x="475.09" y="372.919964" style="stroke: #000000; stroke-width: 0.8"/>
      </g>
     </g>
     <g id="text_72">
      <!-- 0.50 -->
      <g transform="translate(445.824375 376.719183) scale(0.1 -0.1)">
       <use xlink:href="#DejaVuSans-30"/>
       <use xlink:href="#DejaVuSans-2e" x="63.623047"/>
       <use xlink:href="#DejaVuSans-35" x="95.410156"/>
       <use xlink:href="#DejaVuSans-30" x="159.033203"/>
      </g>
     </g>
    </g>
    <g id="ytick_32">
     <g id="line2d_141">
      <path d="M 475.09 345.339946 
L 853.2 345.339946 
" clip-path="url(#p24ef106fd1)" style="fill: none; stroke: #b0b0b0; stroke-width: 0.8; stroke-linecap: square"/>
     </g>
     <g id="line2d_142">
      <g>
       <use xlink:href="#mf918b9b04f" x="475.09" y="345.339946" style="stroke: #000000; stroke-width: 0.8"/>
      </g>
     </g>
     <g id="text_73">
      <!-- 0.75 -->
      <g transform="translate(445.824375 349.139165) scale(0.1 -0.1)">
       <use xlink:href="#DejaVuSans-30"/>
       <use xlink:href="#DejaVuSans-2e" x="63.623047"/>
       <use xlink:href="#DejaVuSans-37" x="95.410156"/>
       <use xlink:href="#DejaVuSans-35" x="159.033203"/>
      </g>
     </g>
    </g>
    <g id="ytick_33">
     <g id="line2d_143">
      <path d="M 475.09 317.759928 
L 853.2 317.759928 
" clip-path="url(#p24ef106fd1)" style="fill: none; stroke: #b0b0b0; stroke-width: 0.8; stroke-linecap: square"/>
     </g>
     <g id="line2d_144">
      <g>
       <use xlink:href="#mf918b9b04f" x="475.09" y="317.759928" style="stroke: #000000; stroke-width: 0.8"/>
      </g>
     </g>
     <g id="text_74">
      <!-- 1.00 -->
      <g transform="translate(445.824375 321.559147) scale(0.1 -0.1)">
       <use xlink:href="#DejaVuSans-31"/>
       <use xlink:href="#DejaVuSans-2e" x="63.623047"/>
       <use xlink:href="#DejaVuSans-30" x="95.410156"/>
       <use xlink:href="#DejaVuSans-30" x="159.033203"/>
      </g>
     </g>
    </g>
   </g>
   <g id="line2d_145">
    <path d="M 492.276818 428.08 
L 495.731455 428.027563 
L 499.186092 427.712757 
L 507.822684 426.392421 
L 509.550002 426.493142 
L 511.277321 426.879539 
L 513.004639 427.594518 
L 514.731958 428.648594 
L 516.459276 430.012559 
L 519.913913 433.337156 
L 521.641231 435.030406 
L 523.36855 436.51478 
L 525.095868 437.59942 
L 526.823186 438.099028 
L 528.550505 437.853144 
L 530.277823 436.745338 
L 532.005142 434.720436 
L 533.73246 431.797939 
L 535.459778 428.08 
L 537.187097 423.752698 
L 542.369052 410.051859 
L 544.09637 406.455086 
L 545.823689 403.972169 
L 547.551007 402.929703 
L 549.278326 403.576113 
L 551.005644 406.053734 
L 552.732963 410.37714 
L 554.460281 416.42001 
L 556.187599 423.912251 
L 559.642236 441.507431 
L 561.369555 450.483228 
L 563.096873 458.723987 
L 564.824191 465.578108 
L 566.55151 470.443345 
L 568.278828 472.815626 
L 570.006147 472.333711 
L 571.733465 468.815994 
L 573.460783 462.286147 
L 575.188102 452.984983 
L 576.91542 441.366858 
L 580.370057 413.931372 
L 582.097376 399.837883 
L 583.824694 386.766861 
L 585.552012 375.669677 
L 587.279331 367.413087 
L 589.006649 362.713245 
L 590.733968 362.077345 
L 592.461286 365.757522 
L 594.188604 373.720911 
L 595.915923 385.638716 
L 597.643241 400.895904 
L 599.37056 418.621627 
L 604.552515 475.221652 
L 606.279833 491.05681 
L 608.007152 503.396699 
L 609.73447 511.295703 
L 611.461788 514.074549 
L 613.189107 511.375709 
L 614.916425 503.198176 
L 616.643744 489.908545 
L 618.371062 472.226954 
L 620.098381 451.188185 
L 625.280336 381.573336 
L 627.007654 361.226052 
L 628.734973 344.706826 
L 630.462291 333.178405 
L 632.189609 327.49704 
L 633.916928 328.14878 
L 635.644246 335.209821 
L 637.371565 348.33408 
L 639.098883 366.769303 
L 640.826201 389.401032 
L 644.280838 441.421289 
L 646.008157 467.491066 
L 647.735475 491.337653 
L 649.462794 511.395497 
L 651.190112 526.332562 
L 652.91743 535.141098 
L 654.644749 537.207273 
L 656.372067 532.35475 
L 658.099386 520.859074 
L 659.826704 503.431707 
L 661.554022 481.174663 
L 663.281341 455.508717 
L 668.463296 374.985337 
L 670.190614 352.728293 
L 671.917933 335.300926 
L 673.645251 323.80525 
L 675.37257 318.952727 
L 677.099888 321.018902 
L 678.827206 329.827438 
L 680.554525 344.764503 
L 682.281843 364.822347 
L 684.009162 388.668934 
L 689.191117 466.758968 
L 690.918435 489.390697 
L 692.645754 507.82592 
L 694.373072 520.950179 
L 696.100391 528.01122 
L 697.827709 528.66296 
L 699.555027 522.981595 
L 701.282346 511.453174 
L 703.009664 494.933948 
L 704.736983 474.586664 
L 711.646256 383.933046 
L 713.373575 366.251455 
L 715.100893 352.961824 
L 716.828212 344.784291 
L 718.55553 342.085451 
L 720.282848 344.864297 
L 722.010167 352.763301 
L 723.737485 365.10319 
L 725.464804 380.938348 
L 728.91944 418.420978 
L 730.646759 437.538373 
L 732.374077 455.264096 
L 734.101396 470.521284 
L 735.828714 482.439089 
L 737.556032 490.402478 
L 739.283351 494.082655 
L 741.010669 493.446755 
L 742.737988 488.746913 
L 744.465306 480.490323 
L 746.192624 469.393139 
L 747.919943 456.322117 
L 753.101898 414.793142 
L 754.829217 403.175017 
L 756.556535 393.873853 
L 758.283853 387.344006 
L 760.011172 383.826289 
L 761.73849 383.344374 
L 763.465809 385.716655 
L 765.193127 390.581892 
L 766.920445 397.436013 
L 768.647764 405.676772 
L 773.829719 432.247749 
L 775.557037 439.73999 
L 777.284356 445.78286 
L 779.011674 450.106266 
L 780.738993 452.583887 
L 782.466311 453.230297 
L 784.19363 452.187831 
L 785.920948 449.704914 
L 787.648266 446.108141 
L 789.375585 441.770741 
L 792.830222 432.407302 
L 794.55754 428.08 
L 796.284858 424.362061 
L 798.012177 421.439564 
L 799.739495 419.414662 
L 801.466814 418.306856 
L 803.194132 418.060972 
L 804.92145 418.56058 
L 806.648769 419.64522 
L 808.376087 421.129594 
L 813.558042 426.147441 
L 815.285361 427.511406 
L 817.012679 428.565482 
L 818.739998 429.280461 
L 820.467316 429.666858 
L 822.194635 429.767579 
L 823.921953 429.648024 
L 827.37659 429.055108 
L 830.831227 428.447243 
L 834.285863 428.132437 
L 836.013182 428.086769 
L 836.013182 428.086769 
" clip-path="url(#p24ef106fd1)" style="fill: none; stroke: #ffa500; stroke-width: 1.5; stroke-linecap: square"/>
   </g>
   <g id="patch_19">
    <path d="M 475.09 548.12 
L 475.09 308.04 
" style="fill: none; stroke: #000000; stroke-width: 0.8; stroke-linejoin: miter; stroke-linecap: square"/>
   </g>
   <g id="patch_20">
    <path d="M 853.2 548.12 
L 853.2 308.04 
" style="fill: none; stroke: #000000; stroke-width: 0.8; stroke-linejoin: miter; stroke-linecap: square"/>
   </g>
   <g id="patch_21">
    <path d="M 475.09 548.12 
L 853.2 548.12 
" style="fill: none; stroke: #000000; stroke-width: 0.8; stroke-linejoin: miter; stroke-linecap: square"/>
   </g>
   <g id="patch_22">
    <path d="M 475.09 308.04 
L 853.2 308.04 
" style="fill: none; stroke: #000000; stroke-width: 0.8; stroke-linejoin: miter; stroke-linecap: square"/>
   </g>
   <g id="text_75">
    <!-- Semnalul trecut prin Hanning -->
    <g transform="translate(575.816562 302.04) scale(0.12 -0.12)">
     <use xlink:href="#DejaVuSans-53"/>
     <use xlink:href="#DejaVuSans-65" x="63.476562"/>
     <use xlink:href="#DejaVuSans-6d" x="125"/>
     <use xlink:href="#DejaVuSans-6e" x="222.412109"/>
     <use xlink:href="#DejaVuSans-61" x="285.791016"/>
     <use xlink:href="#DejaVuSans-6c" x="347.070312"/>
     <use xlink:href="#DejaVuSans-75" x="374.853516"/>
     <use xlink:href="#DejaVuSans-6c" x="438.232422"/>
     <use xlink:href="#DejaVuSans-20" x="466.015625"/>
     <use xlink:href="#DejaVuSans-74" x="497.802734"/>
     <use xlink:href="#DejaVuSans-72" x="537.011719"/>
     <use xlink:href="#DejaVuSans-65" x="575.875"/>
     <use xlink:href="#DejaVuSans-63" x="637.398438"/>
     <use xlink:href="#DejaVuSans-75" x="692.378906"/>
     <use xlink:href="#DejaVuSans-74" x="755.757812"/>
     <use xlink:href="#DejaVuSans-20" x="794.966797"/>
     <use xlink:href="#DejaVuSans-70" x="826.753906"/>
     <use xlink:href="#DejaVuSans-72" x="890.230469"/>
     <use xlink:href="#DejaVuSans-69" x="931.34375"/>
     <use xlink:href="#DejaVuSans-6e" x="959.126953"/>
     <use xlink:href="#DejaVuSans-20" x="1022.505859"/>
     <use xlink:href="#DejaVuSans-48" x="1054.292969"/>
     <use xlink:href="#DejaVuSans-61" x="1129.488281"/>
     <use xlink:href="#DejaVuSans-6e" x="1190.767578"/>
     <use xlink:href="#DejaVuSans-6e" x="1254.146484"/>
     <use xlink:href="#DejaVuSans-69" x="1317.525391"/>
     <use xlink:href="#DejaVuSans-6e" x="1345.308594"/>
     <use xlink:href="#DejaVuSans-67" x="1408.6875"/>
    </g>
   </g>
  </g>
 </g>
 <defs>
  <clipPath id="pa3e8299ff3">
   <rect x="48.49" y="25.44" width="378.11" height="240.08"/>
  </clipPath>
  <clipPath id="p8846e6aaaf">
   <rect x="475.09" y="25.44" width="378.11" height="240.08"/>
  </clipPath>
  <clipPath id="p5970bc8f9f">
   <rect x="48.49" y="308.04" width="378.11" height="240.08"/>
  </clipPath>
  <clipPath id="p24ef106fd1">
   <rect x="475.09" y="308.04" width="378.11" height="240.08"/>
  </clipPath>
 </defs>
</svg>
