<?xml version="1.0" encoding="utf-8" standalone="no"?>
<!DOCTYPE svg PUBLIC "-//W3C//DTD SVG 1.1//EN"
  "http://www.w3.org/Graphics/SVG/1.1/DTD/svg11.dtd">
<svg xmlns:xlink="http://www.w3.org/1999/xlink" width="720pt" height="648pt" viewBox="0 0 720 648" xmlns="http://www.w3.org/2000/svg" version="1.1">
 <metadata>
  <rdf:RDF xmlns:dc="http://purl.org/dc/elements/1.1/" xmlns:cc="http://creativecommons.org/ns#" xmlns:rdf="http://www.w3.org/1999/02/22-rdf-syntax-ns#">
   <cc:Work>
    <dc:type rdf:resource="http://purl.org/dc/dcmitype/StillImage"/>
    <dc:date>2025-11-25T14:12:16.267870</dc:date>
    <dc:format>image/svg+xml</dc:format>
    <dc:creator>
     <cc:Agent>
      <dc:title>Matplotlib v3.6.3, https://matplotlib.org/</dc:title>
     </cc:Agent>
    </dc:creator>
   </cc:Work>
  </rdf:RDF>
 </metadata>
 <defs>
  <style type="text/css">*{stroke-linejoin: round; stroke-linecap: butt}</style>
 </defs>
 <g id="figure_1">
  <g id="patch_1">
   <path d="M 0 648 
L 720 648 
L 720 0 
L 0 0 
z
" style="fill: #ffffff"/>
  </g>
  <g id="axes_1">
   <g id="patch_2">
    <path d="M 44.66 294.48 
L 709.2 294.48 
L 709.2 25.44 
L 44.66 25.44 
z
" style="fill: #ffffff"/>
   </g>
   <g id="matplotlib.axis_1">
    <g id="xtick_1">
     <g id="line2d_1">
      <path d="M 74.866364 294.48 
L 74.866364 25.44 
" clip-path="url(#pf7141d6d6b)" style="fill: none; stroke: #b0b0b0; stroke-width: 0.8; stroke-linecap: square"/>
     </g>
     <g id="line2d_2">
      <defs>
       <path id="m699c99ac35" d="M 0 0 
L 0 3.5 
" style="stroke: #000000; stroke-width: 0.8"/>
      </defs>
      <g>
       <use xlink:href="#m699c99ac35" x="74.866364" y="294.48" style="stroke: #000000; stroke-width: 0.8"/>
      </g>
     </g>
     <g id="text_1">
      <!-- 0 -->
      <g transform="translate(71.685114 309.078438) scale(0.1 -0.1)">
       <defs>
        <path id="DejaVuSans-30" d="M 2034 4250 
Q 1547 4250 1301 3770 
Q 1056 3291 1056 2328 
Q 1056 1369 1301 889 
Q 1547 409 2034 409 
Q 2525 409 2770 889 
Q 3016 1369 3016 2328 
Q 3016 3291 2770 3770 
Q 2525 4250 2034 4250 
z
M 2034 4750 
Q 2819 4750 3233 4129 
Q 3647 3509 3647 2328 
Q 3647 1150 3233 529 
Q 2819 -91 2034 -91 
Q 1250 -91 836 529 
Q 422 1150 422 2328 
Q 422 3509 836 4129 
Q 1250 4750 2034 4750 
z
" transform="scale(0.015625)"/>
       </defs>
       <use xlink:href="#DejaVuSans-30"/>
      </g>
     </g>
    </g>
    <g id="xtick_2">
     <g id="line2d_3">
      <path d="M 100.392868 294.48 
L 100.392868 25.44 
" clip-path="url(#pf7141d6d6b)" style="fill: none; stroke: #b0b0b0; stroke-width: 0.8; stroke-linecap: square"/>
     </g>
     <g id="line2d_4">
      <g>
       <use xlink:href="#m699c99ac35" x="100.392868" y="294.48" style="stroke: #000000; stroke-width: 0.8"/>
      </g>
     </g>
     <g id="text_2">
      <!-- 3 -->
      <g transform="translate(97.211618 309.078438) scale(0.1 -0.1)">
       <defs>
        <path id="DejaVuSans-33" d="M 2597 2516 
Q 3050 2419 3304 2112 
Q 3559 1806 3559 1356 
Q 3559 666 3084 287 
Q 2609 -91 1734 -91 
Q 1441 -91 1130 -33 
Q 819 25 488 141 
L 488 750 
Q 750 597 1062 519 
Q 1375 441 1716 441 
Q 2309 441 2620 675 
Q 2931 909 2931 1356 
Q 2931 1769 2642 2001 
Q 2353 2234 1838 2234 
L 1294 2234 
L 1294 2753 
L 1863 2753 
Q 2328 2753 2575 2939 
Q 2822 3125 2822 3475 
Q 2822 3834 2567 4026 
Q 2313 4219 1838 4219 
Q 1578 4219 1281 4162 
Q 984 4106 628 3988 
L 628 4550 
Q 988 4650 1302 4700 
Q 1616 4750 1894 4750 
Q 2613 4750 3031 4423 
Q 3450 4097 3450 3541 
Q 3450 3153 3228 2886 
Q 3006 2619 2597 2516 
z
" transform="scale(0.015625)"/>
       </defs>
       <use xlink:href="#DejaVuSans-33"/>
      </g>
     </g>
    </g>
    <g id="xtick_3">
     <g id="line2d_5">
      <path d="M 125.919373 294.48 
L 125.919373 25.44 
" clip-path="url(#pf7141d6d6b)" style="fill: none; stroke: #b0b0b0; stroke-width: 0.8; stroke-linecap: square"/>
     </g>
     <g id="line2d_6">
      <g>
       <use xlink:href="#m699c99ac35" x="125.919373" y="294.48" style="stroke: #000000; stroke-width: 0.8"/>
      </g>
     </g>
     <g id="text_3">
      <!-- 6 -->
      <g transform="translate(122.738123 309.078438) scale(0.1 -0.1)">
       <defs>
        <path id="DejaVuSans-36" d="M 2113 2584 
Q 1688 2584 1439 2293 
Q 1191 2003 1191 1497 
Q 1191 994 1439 701 
Q 1688 409 2113 409 
Q 2538 409 2786 701 
Q 3034 994 3034 1497 
Q 3034 2003 2786 2293 
Q 2538 2584 2113 2584 
z
M 3366 4563 
L 3366 3988 
Q 3128 4100 2886 4159 
Q 2644 4219 2406 4219 
Q 1781 4219 1451 3797 
Q 1122 3375 1075 2522 
Q 1259 2794 1537 2939 
Q 1816 3084 2150 3084 
Q 2853 3084 3261 2657 
Q 3669 2231 3669 1497 
Q 3669 778 3244 343 
Q 2819 -91 2113 -91 
Q 1303 -91 875 529 
Q 447 1150 447 2328 
Q 447 3434 972 4092 
Q 1497 4750 2381 4750 
Q 2619 4750 2861 4703 
Q 3103 4656 3366 4563 
z
" transform="scale(0.015625)"/>
       </defs>
       <use xlink:href="#DejaVuSans-36"/>
      </g>
     </g>
    </g>
    <g id="xtick_4">
     <g id="line2d_7">
      <path d="M 151.445877 294.48 
L 151.445877 25.44 
" clip-path="url(#pf7141d6d6b)" style="fill: none; stroke: #b0b0b0; stroke-width: 0.8; stroke-linecap: square"/>
     </g>
     <g id="line2d_8">
      <g>
       <use xlink:href="#m699c99ac35" x="151.445877" y="294.48" style="stroke: #000000; stroke-width: 0.8"/>
      </g>
     </g>
     <g id="text_4">
      <!-- 9 -->
      <g transform="translate(148.264627 309.078438) scale(0.1 -0.1)">
       <defs>
        <path id="DejaVuSans-39" d="M 703 97 
L 703 672 
Q 941 559 1184 500 
Q 1428 441 1663 441 
Q 2288 441 2617 861 
Q 2947 1281 2994 2138 
Q 2813 1869 2534 1725 
Q 2256 1581 1919 1581 
Q 1219 1581 811 2004 
Q 403 2428 403 3163 
Q 403 3881 828 4315 
Q 1253 4750 1959 4750 
Q 2769 4750 3195 4129 
Q 3622 3509 3622 2328 
Q 3622 1225 3098 567 
Q 2575 -91 1691 -91 
Q 1453 -91 1209 -44 
Q 966 3 703 97 
z
M 1959 2075 
Q 2384 2075 2632 2365 
Q 2881 2656 2881 3163 
Q 2881 3666 2632 3958 
Q 2384 4250 1959 4250 
Q 1534 4250 1286 3958 
Q 1038 3666 1038 3163 
Q 1038 2656 1286 2365 
Q 1534 2075 1959 2075 
z
" transform="scale(0.015625)"/>
       </defs>
       <use xlink:href="#DejaVuSans-39"/>
      </g>
     </g>
    </g>
    <g id="xtick_5">
     <g id="line2d_9">
      <path d="M 176.972382 294.48 
L 176.972382 25.44 
" clip-path="url(#pf7141d6d6b)" style="fill: none; stroke: #b0b0b0; stroke-width: 0.8; stroke-linecap: square"/>
     </g>
     <g id="line2d_10">
      <g>
       <use xlink:href="#m699c99ac35" x="176.972382" y="294.48" style="stroke: #000000; stroke-width: 0.8"/>
      </g>
     </g>
     <g id="text_5">
      <!-- 12 -->
      <g transform="translate(170.609882 309.078438) scale(0.1 -0.1)">
       <defs>
        <path id="DejaVuSans-31" d="M 794 531 
L 1825 531 
L 1825 4091 
L 703 3866 
L 703 4441 
L 1819 4666 
L 2450 4666 
L 2450 531 
L 3481 531 
L 3481 0 
L 794 0 
L 794 531 
z
" transform="scale(0.015625)"/>
        <path id="DejaVuSans-32" d="M 1228 531 
L 3431 531 
L 3431 0 
L 469 0 
L 469 531 
Q 828 903 1448 1529 
Q 2069 2156 2228 2338 
Q 2531 2678 2651 2914 
Q 2772 3150 2772 3378 
Q 2772 3750 2511 3984 
Q 2250 4219 1831 4219 
Q 1534 4219 1204 4116 
Q 875 4013 500 3803 
L 500 4441 
Q 881 4594 1212 4672 
Q 1544 4750 1819 4750 
Q 2544 4750 2975 4387 
Q 3406 4025 3406 3419 
Q 3406 3131 3298 2873 
Q 3191 2616 2906 2266 
Q 2828 2175 2409 1742 
Q 1991 1309 1228 531 
z
" transform="scale(0.015625)"/>
       </defs>
       <use xlink:href="#DejaVuSans-31"/>
       <use xlink:href="#DejaVuSans-32" x="63.623047"/>
      </g>
     </g>
    </g>
    <g id="xtick_6">
     <g id="line2d_11">
      <path d="M 202.498886 294.48 
L 202.498886 25.44 
" clip-path="url(#pf7141d6d6b)" style="fill: none; stroke: #b0b0b0; stroke-width: 0.8; stroke-linecap: square"/>
     </g>
     <g id="line2d_12">
      <g>
       <use xlink:href="#m699c99ac35" x="202.498886" y="294.48" style="stroke: #000000; stroke-width: 0.8"/>
      </g>
     </g>
     <g id="text_6">
      <!-- 15 -->
      <g transform="translate(196.136386 309.078438) scale(0.1 -0.1)">
       <defs>
        <path id="DejaVuSans-35" d="M 691 4666 
L 3169 4666 
L 3169 4134 
L 1269 4134 
L 1269 2991 
Q 1406 3038 1543 3061 
Q 1681 3084 1819 3084 
Q 2600 3084 3056 2656 
Q 3513 2228 3513 1497 
Q 3513 744 3044 326 
Q 2575 -91 1722 -91 
Q 1428 -91 1123 -41 
Q 819 9 494 109 
L 494 744 
Q 775 591 1075 516 
Q 1375 441 1709 441 
Q 2250 441 2565 725 
Q 2881 1009 2881 1497 
Q 2881 1984 2565 2268 
Q 2250 2553 1709 2553 
Q 1456 2553 1204 2497 
Q 953 2441 691 2322 
L 691 4666 
z
" transform="scale(0.015625)"/>
       </defs>
       <use xlink:href="#DejaVuSans-31"/>
       <use xlink:href="#DejaVuSans-35" x="63.623047"/>
      </g>
     </g>
    </g>
    <g id="xtick_7">
     <g id="line2d_13">
      <path d="M 228.025391 294.48 
L 228.025391 25.44 
" clip-path="url(#pf7141d6d6b)" style="fill: none; stroke: #b0b0b0; stroke-width: 0.8; stroke-linecap: square"/>
     </g>
     <g id="line2d_14">
      <g>
       <use xlink:href="#m699c99ac35" x="228.025391" y="294.48" style="stroke: #000000; stroke-width: 0.8"/>
      </g>
     </g>
     <g id="text_7">
      <!-- 18 -->
      <g transform="translate(221.662891 309.078438) scale(0.1 -0.1)">
       <defs>
        <path id="DejaVuSans-38" d="M 2034 2216 
Q 1584 2216 1326 1975 
Q 1069 1734 1069 1313 
Q 1069 891 1326 650 
Q 1584 409 2034 409 
Q 2484 409 2743 651 
Q 3003 894 3003 1313 
Q 3003 1734 2745 1975 
Q 2488 2216 2034 2216 
z
M 1403 2484 
Q 997 2584 770 2862 
Q 544 3141 544 3541 
Q 544 4100 942 4425 
Q 1341 4750 2034 4750 
Q 2731 4750 3128 4425 
Q 3525 4100 3525 3541 
Q 3525 3141 3298 2862 
Q 3072 2584 2669 2484 
Q 3125 2378 3379 2068 
Q 3634 1759 3634 1313 
Q 3634 634 3220 271 
Q 2806 -91 2034 -91 
Q 1263 -91 848 271 
Q 434 634 434 1313 
Q 434 1759 690 2068 
Q 947 2378 1403 2484 
z
M 1172 3481 
Q 1172 3119 1398 2916 
Q 1625 2713 2034 2713 
Q 2441 2713 2670 2916 
Q 2900 3119 2900 3481 
Q 2900 3844 2670 4047 
Q 2441 4250 2034 4250 
Q 1625 4250 1398 4047 
Q 1172 3844 1172 3481 
z
" transform="scale(0.015625)"/>
       </defs>
       <use xlink:href="#DejaVuSans-31"/>
       <use xlink:href="#DejaVuSans-38" x="63.623047"/>
      </g>
     </g>
    </g>
    <g id="xtick_8">
     <g id="line2d_15">
      <path d="M 253.551895 294.48 
L 253.551895 25.44 
" clip-path="url(#pf7141d6d6b)" style="fill: none; stroke: #b0b0b0; stroke-width: 0.8; stroke-linecap: square"/>
     </g>
     <g id="line2d_16">
      <g>
       <use xlink:href="#m699c99ac35" x="253.551895" y="294.48" style="stroke: #000000; stroke-width: 0.8"/>
      </g>
     </g>
     <g id="text_8">
      <!-- 21 -->
      <g transform="translate(247.189395 309.078438) scale(0.1 -0.1)">
       <use xlink:href="#DejaVuSans-32"/>
       <use xlink:href="#DejaVuSans-31" x="63.623047"/>
      </g>
     </g>
    </g>
    <g id="xtick_9">
     <g id="line2d_17">
      <path d="M 279.078399 294.48 
L 279.078399 25.44 
" clip-path="url(#pf7141d6d6b)" style="fill: none; stroke: #b0b0b0; stroke-width: 0.8; stroke-linecap: square"/>
     </g>
     <g id="line2d_18">
      <g>
       <use xlink:href="#m699c99ac35" x="279.078399" y="294.48" style="stroke: #000000; stroke-width: 0.8"/>
      </g>
     </g>
     <g id="text_9">
      <!-- 24 -->
      <g transform="translate(272.715899 309.078438) scale(0.1 -0.1)">
       <defs>
        <path id="DejaVuSans-34" d="M 2419 4116 
L 825 1625 
L 2419 1625 
L 2419 4116 
z
M 2253 4666 
L 3047 4666 
L 3047 1625 
L 3713 1625 
L 3713 1100 
L 3047 1100 
L 3047 0 
L 2419 0 
L 2419 1100 
L 313 1100 
L 313 1709 
L 2253 4666 
z
" transform="scale(0.015625)"/>
       </defs>
       <use xlink:href="#DejaVuSans-32"/>
       <use xlink:href="#DejaVuSans-34" x="63.623047"/>
      </g>
     </g>
    </g>
    <g id="xtick_10">
     <g id="line2d_19">
      <path d="M 304.604904 294.48 
L 304.604904 25.44 
" clip-path="url(#pf7141d6d6b)" style="fill: none; stroke: #b0b0b0; stroke-width: 0.8; stroke-linecap: square"/>
     </g>
     <g id="line2d_20">
      <g>
       <use xlink:href="#m699c99ac35" x="304.604904" y="294.48" style="stroke: #000000; stroke-width: 0.8"/>
      </g>
     </g>
     <g id="text_10">
      <!-- 27 -->
      <g transform="translate(298.242404 309.078438) scale(0.1 -0.1)">
       <defs>
        <path id="DejaVuSans-37" d="M 525 4666 
L 3525 4666 
L 3525 4397 
L 1831 0 
L 1172 0 
L 2766 4134 
L 525 4134 
L 525 4666 
z
" transform="scale(0.015625)"/>
       </defs>
       <use xlink:href="#DejaVuSans-32"/>
       <use xlink:href="#DejaVuSans-37" x="63.623047"/>
      </g>
     </g>
    </g>
    <g id="xtick_11">
     <g id="line2d_21">
      <path d="M 330.131408 294.48 
L 330.131408 25.44 
" clip-path="url(#pf7141d6d6b)" style="fill: none; stroke: #b0b0b0; stroke-width: 0.8; stroke-linecap: square"/>
     </g>
     <g id="line2d_22">
      <g>
       <use xlink:href="#m699c99ac35" x="330.131408" y="294.48" style="stroke: #000000; stroke-width: 0.8"/>
      </g>
     </g>
     <g id="text_11">
      <!-- 30 -->
      <g transform="translate(323.768908 309.078438) scale(0.1 -0.1)">
       <use xlink:href="#DejaVuSans-33"/>
       <use xlink:href="#DejaVuSans-30" x="63.623047"/>
      </g>
     </g>
    </g>
    <g id="xtick_12">
     <g id="line2d_23">
      <path d="M 355.657913 294.48 
L 355.657913 25.44 
" clip-path="url(#pf7141d6d6b)" style="fill: none; stroke: #b0b0b0; stroke-width: 0.8; stroke-linecap: square"/>
     </g>
     <g id="line2d_24">
      <g>
       <use xlink:href="#m699c99ac35" x="355.657913" y="294.48" style="stroke: #000000; stroke-width: 0.8"/>
      </g>
     </g>
     <g id="text_12">
      <!-- 33 -->
      <g transform="translate(349.295413 309.078438) scale(0.1 -0.1)">
       <use xlink:href="#DejaVuSans-33"/>
       <use xlink:href="#DejaVuSans-33" x="63.623047"/>
      </g>
     </g>
    </g>
    <g id="xtick_13">
     <g id="line2d_25">
      <path d="M 381.184417 294.48 
L 381.184417 25.44 
" clip-path="url(#pf7141d6d6b)" style="fill: none; stroke: #b0b0b0; stroke-width: 0.8; stroke-linecap: square"/>
     </g>
     <g id="line2d_26">
      <g>
       <use xlink:href="#m699c99ac35" x="381.184417" y="294.48" style="stroke: #000000; stroke-width: 0.8"/>
      </g>
     </g>
     <g id="text_13">
      <!-- 36 -->
      <g transform="translate(374.821917 309.078438) scale(0.1 -0.1)">
       <use xlink:href="#DejaVuSans-33"/>
       <use xlink:href="#DejaVuSans-36" x="63.623047"/>
      </g>
     </g>
    </g>
    <g id="xtick_14">
     <g id="line2d_27">
      <path d="M 406.710922 294.48 
L 406.710922 25.44 
" clip-path="url(#pf7141d6d6b)" style="fill: none; stroke: #b0b0b0; stroke-width: 0.8; stroke-linecap: square"/>
     </g>
     <g id="line2d_28">
      <g>
       <use xlink:href="#m699c99ac35" x="406.710922" y="294.48" style="stroke: #000000; stroke-width: 0.8"/>
      </g>
     </g>
     <g id="text_14">
      <!-- 39 -->
      <g transform="translate(400.348422 309.078438) scale(0.1 -0.1)">
       <use xlink:href="#DejaVuSans-33"/>
       <use xlink:href="#DejaVuSans-39" x="63.623047"/>
      </g>
     </g>
    </g>
    <g id="xtick_15">
     <g id="line2d_29">
      <path d="M 432.237426 294.48 
L 432.237426 25.44 
" clip-path="url(#pf7141d6d6b)" style="fill: none; stroke: #b0b0b0; stroke-width: 0.8; stroke-linecap: square"/>
     </g>
     <g id="line2d_30">
      <g>
       <use xlink:href="#m699c99ac35" x="432.237426" y="294.48" style="stroke: #000000; stroke-width: 0.8"/>
      </g>
     </g>
     <g id="text_15">
      <!-- 42 -->
      <g transform="translate(425.874926 309.078438) scale(0.1 -0.1)">
       <use xlink:href="#DejaVuSans-34"/>
       <use xlink:href="#DejaVuSans-32" x="63.623047"/>
      </g>
     </g>
    </g>
    <g id="xtick_16">
     <g id="line2d_31">
      <path d="M 457.763931 294.48 
L 457.763931 25.44 
" clip-path="url(#pf7141d6d6b)" style="fill: none; stroke: #b0b0b0; stroke-width: 0.8; stroke-linecap: square"/>
     </g>
     <g id="line2d_32">
      <g>
       <use xlink:href="#m699c99ac35" x="457.763931" y="294.48" style="stroke: #000000; stroke-width: 0.8"/>
      </g>
     </g>
     <g id="text_16">
      <!-- 45 -->
      <g transform="translate(451.401431 309.078438) scale(0.1 -0.1)">
       <use xlink:href="#DejaVuSans-34"/>
       <use xlink:href="#DejaVuSans-35" x="63.623047"/>
      </g>
     </g>
    </g>
    <g id="xtick_17">
     <g id="line2d_33">
      <path d="M 483.290435 294.48 
L 483.290435 25.44 
" clip-path="url(#pf7141d6d6b)" style="fill: none; stroke: #b0b0b0; stroke-width: 0.8; stroke-linecap: square"/>
     </g>
     <g id="line2d_34">
      <g>
       <use xlink:href="#m699c99ac35" x="483.290435" y="294.48" style="stroke: #000000; stroke-width: 0.8"/>
      </g>
     </g>
     <g id="text_17">
      <!-- 48 -->
      <g transform="translate(476.927935 309.078438) scale(0.1 -0.1)">
       <use xlink:href="#DejaVuSans-34"/>
       <use xlink:href="#DejaVuSans-38" x="63.623047"/>
      </g>
     </g>
    </g>
    <g id="xtick_18">
     <g id="line2d_35">
      <path d="M 508.81694 294.48 
L 508.81694 25.44 
" clip-path="url(#pf7141d6d6b)" style="fill: none; stroke: #b0b0b0; stroke-width: 0.8; stroke-linecap: square"/>
     </g>
     <g id="line2d_36">
      <g>
       <use xlink:href="#m699c99ac35" x="508.81694" y="294.48" style="stroke: #000000; stroke-width: 0.8"/>
      </g>
     </g>
     <g id="text_18">
      <!-- 51 -->
      <g transform="translate(502.45444 309.078438) scale(0.1 -0.1)">
       <use xlink:href="#DejaVuSans-35"/>
       <use xlink:href="#DejaVuSans-31" x="63.623047"/>
      </g>
     </g>
    </g>
    <g id="xtick_19">
     <g id="line2d_37">
      <path d="M 534.343444 294.48 
L 534.343444 25.44 
" clip-path="url(#pf7141d6d6b)" style="fill: none; stroke: #b0b0b0; stroke-width: 0.8; stroke-linecap: square"/>
     </g>
     <g id="line2d_38">
      <g>
       <use xlink:href="#m699c99ac35" x="534.343444" y="294.48" style="stroke: #000000; stroke-width: 0.8"/>
      </g>
     </g>
     <g id="text_19">
      <!-- 54 -->
      <g transform="translate(527.980944 309.078438) scale(0.1 -0.1)">
       <use xlink:href="#DejaVuSans-35"/>
       <use xlink:href="#DejaVuSans-34" x="63.623047"/>
      </g>
     </g>
    </g>
    <g id="xtick_20">
     <g id="line2d_39">
      <path d="M 559.869949 294.48 
L 559.869949 25.44 
" clip-path="url(#pf7141d6d6b)" style="fill: none; stroke: #b0b0b0; stroke-width: 0.8; stroke-linecap: square"/>
     </g>
     <g id="line2d_40">
      <g>
       <use xlink:href="#m699c99ac35" x="559.869949" y="294.48" style="stroke: #000000; stroke-width: 0.8"/>
      </g>
     </g>
     <g id="text_20">
      <!-- 57 -->
      <g transform="translate(553.507449 309.078438) scale(0.1 -0.1)">
       <use xlink:href="#DejaVuSans-35"/>
       <use xlink:href="#DejaVuSans-37" x="63.623047"/>
      </g>
     </g>
    </g>
    <g id="xtick_21">
     <g id="line2d_41">
      <path d="M 585.396453 294.48 
L 585.396453 25.44 
" clip-path="url(#pf7141d6d6b)" style="fill: none; stroke: #b0b0b0; stroke-width: 0.8; stroke-linecap: square"/>
     </g>
     <g id="line2d_42">
      <g>
       <use xlink:href="#m699c99ac35" x="585.396453" y="294.48" style="stroke: #000000; stroke-width: 0.8"/>
      </g>
     </g>
     <g id="text_21">
      <!-- 60 -->
      <g transform="translate(579.033953 309.078438) scale(0.1 -0.1)">
       <use xlink:href="#DejaVuSans-36"/>
       <use xlink:href="#DejaVuSans-30" x="63.623047"/>
      </g>
     </g>
    </g>
    <g id="xtick_22">
     <g id="line2d_43">
      <path d="M 610.922958 294.48 
L 610.922958 25.44 
" clip-path="url(#pf7141d6d6b)" style="fill: none; stroke: #b0b0b0; stroke-width: 0.8; stroke-linecap: square"/>
     </g>
     <g id="line2d_44">
      <g>
       <use xlink:href="#m699c99ac35" x="610.922958" y="294.48" style="stroke: #000000; stroke-width: 0.8"/>
      </g>
     </g>
     <g id="text_22">
      <!-- 63 -->
      <g transform="translate(604.560458 309.078438) scale(0.1 -0.1)">
       <use xlink:href="#DejaVuSans-36"/>
       <use xlink:href="#DejaVuSans-33" x="63.623047"/>
      </g>
     </g>
    </g>
    <g id="xtick_23">
     <g id="line2d_45">
      <path d="M 636.449462 294.48 
L 636.449462 25.44 
" clip-path="url(#pf7141d6d6b)" style="fill: none; stroke: #b0b0b0; stroke-width: 0.8; stroke-linecap: square"/>
     </g>
     <g id="line2d_46">
      <g>
       <use xlink:href="#m699c99ac35" x="636.449462" y="294.48" style="stroke: #000000; stroke-width: 0.8"/>
      </g>
     </g>
     <g id="text_23">
      <!-- 66 -->
      <g transform="translate(630.086962 309.078438) scale(0.1 -0.1)">
       <use xlink:href="#DejaVuSans-36"/>
       <use xlink:href="#DejaVuSans-36" x="63.623047"/>
      </g>
     </g>
    </g>
    <g id="xtick_24">
     <g id="line2d_47">
      <path d="M 661.975967 294.48 
L 661.975967 25.44 
" clip-path="url(#pf7141d6d6b)" style="fill: none; stroke: #b0b0b0; stroke-width: 0.8; stroke-linecap: square"/>
     </g>
     <g id="line2d_48">
      <g>
       <use xlink:href="#m699c99ac35" x="661.975967" y="294.48" style="stroke: #000000; stroke-width: 0.8"/>
      </g>
     </g>
     <g id="text_24">
      <!-- 69 -->
      <g transform="translate(655.613467 309.078438) scale(0.1 -0.1)">
       <use xlink:href="#DejaVuSans-36"/>
       <use xlink:href="#DejaVuSans-39" x="63.623047"/>
      </g>
     </g>
    </g>
    <g id="xtick_25">
     <g id="line2d_49">
      <path d="M 687.502471 294.48 
L 687.502471 25.44 
" clip-path="url(#pf7141d6d6b)" style="fill: none; stroke: #b0b0b0; stroke-width: 0.8; stroke-linecap: square"/>
     </g>
     <g id="line2d_50">
      <g>
       <use xlink:href="#m699c99ac35" x="687.502471" y="294.48" style="stroke: #000000; stroke-width: 0.8"/>
      </g>
     </g>
     <g id="text_25">
      <!-- 72 -->
      <g transform="translate(681.139971 309.078438) scale(0.1 -0.1)">
       <use xlink:href="#DejaVuSans-37"/>
       <use xlink:href="#DejaVuSans-32" x="63.623047"/>
      </g>
     </g>
    </g>
    <g id="text_26">
     <!-- Esantioane -->
     <g transform="translate(349.215156 322.756563) scale(0.1 -0.1)">
      <defs>
       <path id="DejaVuSans-45" d="M 628 4666 
L 3578 4666 
L 3578 4134 
L 1259 4134 
L 1259 2753 
L 3481 2753 
L 3481 2222 
L 1259 2222 
L 1259 531 
L 3634 531 
L 3634 0 
L 628 0 
L 628 4666 
z
" transform="scale(0.015625)"/>
       <path id="DejaVuSans-73" d="M 2834 3397 
L 2834 2853 
Q 2591 2978 2328 3040 
Q 2066 3103 1784 3103 
Q 1356 3103 1142 2972 
Q 928 2841 928 2578 
Q 928 2378 1081 2264 
Q 1234 2150 1697 2047 
L 1894 2003 
Q 2506 1872 2764 1633 
Q 3022 1394 3022 966 
Q 3022 478 2636 193 
Q 2250 -91 1575 -91 
Q 1294 -91 989 -36 
Q 684 19 347 128 
L 347 722 
Q 666 556 975 473 
Q 1284 391 1588 391 
Q 1994 391 2212 530 
Q 2431 669 2431 922 
Q 2431 1156 2273 1281 
Q 2116 1406 1581 1522 
L 1381 1569 
Q 847 1681 609 1914 
Q 372 2147 372 2553 
Q 372 3047 722 3315 
Q 1072 3584 1716 3584 
Q 2034 3584 2315 3537 
Q 2597 3491 2834 3397 
z
" transform="scale(0.015625)"/>
       <path id="DejaVuSans-61" d="M 2194 1759 
Q 1497 1759 1228 1600 
Q 959 1441 959 1056 
Q 959 750 1161 570 
Q 1363 391 1709 391 
Q 2188 391 2477 730 
Q 2766 1069 2766 1631 
L 2766 1759 
L 2194 1759 
z
M 3341 1997 
L 3341 0 
L 2766 0 
L 2766 531 
Q 2569 213 2275 61 
Q 1981 -91 1556 -91 
Q 1019 -91 701 211 
Q 384 513 384 1019 
Q 384 1609 779 1909 
Q 1175 2209 1959 2209 
L 2766 2209 
L 2766 2266 
Q 2766 2663 2505 2880 
Q 2244 3097 1772 3097 
Q 1472 3097 1187 3025 
Q 903 2953 641 2809 
L 641 3341 
Q 956 3463 1253 3523 
Q 1550 3584 1831 3584 
Q 2591 3584 2966 3190 
Q 3341 2797 3341 1997 
z
" transform="scale(0.015625)"/>
       <path id="DejaVuSans-6e" d="M 3513 2113 
L 3513 0 
L 2938 0 
L 2938 2094 
Q 2938 2591 2744 2837 
Q 2550 3084 2163 3084 
Q 1697 3084 1428 2787 
Q 1159 2491 1159 1978 
L 1159 0 
L 581 0 
L 581 3500 
L 1159 3500 
L 1159 2956 
Q 1366 3272 1645 3428 
Q 1925 3584 2291 3584 
Q 2894 3584 3203 3211 
Q 3513 2838 3513 2113 
z
" transform="scale(0.015625)"/>
       <path id="DejaVuSans-74" d="M 1172 4494 
L 1172 3500 
L 2356 3500 
L 2356 3053 
L 1172 3053 
L 1172 1153 
Q 1172 725 1289 603 
Q 1406 481 1766 481 
L 2356 481 
L 2356 0 
L 1766 0 
Q 1100 0 847 248 
Q 594 497 594 1153 
L 594 3053 
L 172 3053 
L 172 3500 
L 594 3500 
L 594 4494 
L 1172 4494 
z
" transform="scale(0.015625)"/>
       <path id="DejaVuSans-69" d="M 603 3500 
L 1178 3500 
L 1178 0 
L 603 0 
L 603 3500 
z
M 603 4863 
L 1178 4863 
L 1178 4134 
L 603 4134 
L 603 4863 
z
" transform="scale(0.015625)"/>
       <path id="DejaVuSans-6f" d="M 1959 3097 
Q 1497 3097 1228 2736 
Q 959 2375 959 1747 
Q 959 1119 1226 758 
Q 1494 397 1959 397 
Q 2419 397 2687 759 
Q 2956 1122 2956 1747 
Q 2956 2369 2687 2733 
Q 2419 3097 1959 3097 
z
M 1959 3584 
Q 2709 3584 3137 3096 
Q 3566 2609 3566 1747 
Q 3566 888 3137 398 
Q 2709 -91 1959 -91 
Q 1206 -91 779 398 
Q 353 888 353 1747 
Q 353 2609 779 3096 
Q 1206 3584 1959 3584 
z
" transform="scale(0.015625)"/>
       <path id="DejaVuSans-65" d="M 3597 1894 
L 3597 1613 
L 953 1613 
Q 991 1019 1311 708 
Q 1631 397 2203 397 
Q 2534 397 2845 478 
Q 3156 559 3463 722 
L 3463 178 
Q 3153 47 2828 -22 
Q 2503 -91 2169 -91 
Q 1331 -91 842 396 
Q 353 884 353 1716 
Q 353 2575 817 3079 
Q 1281 3584 2069 3584 
Q 2775 3584 3186 3129 
Q 3597 2675 3597 1894 
z
M 3022 2063 
Q 3016 2534 2758 2815 
Q 2500 3097 2075 3097 
Q 1594 3097 1305 2825 
Q 1016 2553 972 2059 
L 3022 2063 
z
" transform="scale(0.015625)"/>
      </defs>
      <use xlink:href="#DejaVuSans-45"/>
      <use xlink:href="#DejaVuSans-73" x="63.183594"/>
      <use xlink:href="#DejaVuSans-61" x="115.283203"/>
      <use xlink:href="#DejaVuSans-6e" x="176.5625"/>
      <use xlink:href="#DejaVuSans-74" x="239.941406"/>
      <use xlink:href="#DejaVuSans-69" x="279.150391"/>
      <use xlink:href="#DejaVuSans-6f" x="306.933594"/>
      <use xlink:href="#DejaVuSans-61" x="368.115234"/>
      <use xlink:href="#DejaVuSans-6e" x="429.394531"/>
      <use xlink:href="#DejaVuSans-65" x="492.773438"/>
     </g>
    </g>
   </g>
   <g id="matplotlib.axis_2">
    <g id="ytick_1">
     <g id="line2d_51">
      <path d="M 44.66 261.869091 
L 709.2 261.869091 
" clip-path="url(#pf7141d6d6b)" style="fill: none; stroke: #b0b0b0; stroke-width: 0.8; stroke-linecap: square"/>
     </g>
     <g id="line2d_52">
      <defs>
       <path id="mfc82d1f467" d="M 0 0 
L -3.5 0 
" style="stroke: #000000; stroke-width: 0.8"/>
      </defs>
      <g>
       <use xlink:href="#mfc82d1f467" x="44.66" y="261.869091" style="stroke: #000000; stroke-width: 0.8"/>
      </g>
     </g>
     <g id="text_27">
      <!-- 5 -->
      <g transform="translate(31.2975 265.66831) scale(0.1 -0.1)">
       <use xlink:href="#DejaVuSans-35"/>
      </g>
     </g>
    </g>
    <g id="ytick_2">
     <g id="line2d_53">
      <path d="M 44.66 227.899394 
L 709.2 227.899394 
" clip-path="url(#pf7141d6d6b)" style="fill: none; stroke: #b0b0b0; stroke-width: 0.8; stroke-linecap: square"/>
     </g>
     <g id="line2d_54">
      <g>
       <use xlink:href="#mfc82d1f467" x="44.66" y="227.899394" style="stroke: #000000; stroke-width: 0.8"/>
      </g>
     </g>
     <g id="text_28">
      <!-- 10 -->
      <g transform="translate(24.935 231.698613) scale(0.1 -0.1)">
       <use xlink:href="#DejaVuSans-31"/>
       <use xlink:href="#DejaVuSans-30" x="63.623047"/>
      </g>
     </g>
    </g>
    <g id="ytick_3">
     <g id="line2d_55">
      <path d="M 44.66 193.929697 
L 709.2 193.929697 
" clip-path="url(#pf7141d6d6b)" style="fill: none; stroke: #b0b0b0; stroke-width: 0.8; stroke-linecap: square"/>
     </g>
     <g id="line2d_56">
      <g>
       <use xlink:href="#mfc82d1f467" x="44.66" y="193.929697" style="stroke: #000000; stroke-width: 0.8"/>
      </g>
     </g>
     <g id="text_29">
      <!-- 15 -->
      <g transform="translate(24.935 197.728916) scale(0.1 -0.1)">
       <use xlink:href="#DejaVuSans-31"/>
       <use xlink:href="#DejaVuSans-35" x="63.623047"/>
      </g>
     </g>
    </g>
    <g id="ytick_4">
     <g id="line2d_57">
      <path d="M 44.66 159.96 
L 709.2 159.96 
" clip-path="url(#pf7141d6d6b)" style="fill: none; stroke: #b0b0b0; stroke-width: 0.8; stroke-linecap: square"/>
     </g>
     <g id="line2d_58">
      <g>
       <use xlink:href="#mfc82d1f467" x="44.66" y="159.96" style="stroke: #000000; stroke-width: 0.8"/>
      </g>
     </g>
     <g id="text_30">
      <!-- 20 -->
      <g transform="translate(24.935 163.759219) scale(0.1 -0.1)">
       <use xlink:href="#DejaVuSans-32"/>
       <use xlink:href="#DejaVuSans-30" x="63.623047"/>
      </g>
     </g>
    </g>
    <g id="ytick_5">
     <g id="line2d_59">
      <path d="M 44.66 125.990303 
L 709.2 125.990303 
" clip-path="url(#pf7141d6d6b)" style="fill: none; stroke: #b0b0b0; stroke-width: 0.8; stroke-linecap: square"/>
     </g>
     <g id="line2d_60">
      <g>
       <use xlink:href="#mfc82d1f467" x="44.66" y="125.990303" style="stroke: #000000; stroke-width: 0.8"/>
      </g>
     </g>
     <g id="text_31">
      <!-- 25 -->
      <g transform="translate(24.935 129.789522) scale(0.1 -0.1)">
       <use xlink:href="#DejaVuSans-32"/>
       <use xlink:href="#DejaVuSans-35" x="63.623047"/>
      </g>
     </g>
    </g>
    <g id="ytick_6">
     <g id="line2d_61">
      <path d="M 44.66 92.020606 
L 709.2 92.020606 
" clip-path="url(#pf7141d6d6b)" style="fill: none; stroke: #b0b0b0; stroke-width: 0.8; stroke-linecap: square"/>
     </g>
     <g id="line2d_62">
      <g>
       <use xlink:href="#mfc82d1f467" x="44.66" y="92.020606" style="stroke: #000000; stroke-width: 0.8"/>
      </g>
     </g>
     <g id="text_32">
      <!-- 30 -->
      <g transform="translate(24.935 95.819825) scale(0.1 -0.1)">
       <use xlink:href="#DejaVuSans-33"/>
       <use xlink:href="#DejaVuSans-30" x="63.623047"/>
      </g>
     </g>
    </g>
    <g id="ytick_7">
     <g id="line2d_63">
      <path d="M 44.66 58.050909 
L 709.2 58.050909 
" clip-path="url(#pf7141d6d6b)" style="fill: none; stroke: #b0b0b0; stroke-width: 0.8; stroke-linecap: square"/>
     </g>
     <g id="line2d_64">
      <g>
       <use xlink:href="#mfc82d1f467" x="44.66" y="58.050909" style="stroke: #000000; stroke-width: 0.8"/>
      </g>
     </g>
     <g id="text_33">
      <!-- 35 -->
      <g transform="translate(24.935 61.850128) scale(0.1 -0.1)">
       <use xlink:href="#DejaVuSans-33"/>
       <use xlink:href="#DejaVuSans-35" x="63.623047"/>
      </g>
     </g>
    </g>
    <g id="text_34">
     <!-- Nr masini -->
     <g transform="translate(18.855313 183.831094) rotate(-90) scale(0.1 -0.1)">
      <defs>
       <path id="DejaVuSans-4e" d="M 628 4666 
L 1478 4666 
L 3547 763 
L 3547 4666 
L 4159 4666 
L 4159 0 
L 3309 0 
L 1241 3903 
L 1241 0 
L 628 0 
L 628 4666 
z
" transform="scale(0.015625)"/>
       <path id="DejaVuSans-72" d="M 2631 2963 
Q 2534 3019 2420 3045 
Q 2306 3072 2169 3072 
Q 1681 3072 1420 2755 
Q 1159 2438 1159 1844 
L 1159 0 
L 581 0 
L 581 3500 
L 1159 3500 
L 1159 2956 
Q 1341 3275 1631 3429 
Q 1922 3584 2338 3584 
Q 2397 3584 2469 3576 
Q 2541 3569 2628 3553 
L 2631 2963 
z
" transform="scale(0.015625)"/>
       <path id="DejaVuSans-20" transform="scale(0.015625)"/>
       <path id="DejaVuSans-6d" d="M 3328 2828 
Q 3544 3216 3844 3400 
Q 4144 3584 4550 3584 
Q 5097 3584 5394 3201 
Q 5691 2819 5691 2113 
L 5691 0 
L 5113 0 
L 5113 2094 
Q 5113 2597 4934 2840 
Q 4756 3084 4391 3084 
Q 3944 3084 3684 2787 
Q 3425 2491 3425 1978 
L 3425 0 
L 2847 0 
L 2847 2094 
Q 2847 2600 2669 2842 
Q 2491 3084 2119 3084 
Q 1678 3084 1418 2786 
Q 1159 2488 1159 1978 
L 1159 0 
L 581 0 
L 581 3500 
L 1159 3500 
L 1159 2956 
Q 1356 3278 1631 3431 
Q 1906 3584 2284 3584 
Q 2666 3584 2933 3390 
Q 3200 3197 3328 2828 
z
" transform="scale(0.015625)"/>
      </defs>
      <use xlink:href="#DejaVuSans-4e"/>
      <use xlink:href="#DejaVuSans-72" x="74.804688"/>
      <use xlink:href="#DejaVuSans-20" x="115.917969"/>
      <use xlink:href="#DejaVuSans-6d" x="147.705078"/>
      <use xlink:href="#DejaVuSans-61" x="245.117188"/>
      <use xlink:href="#DejaVuSans-73" x="306.396484"/>
      <use xlink:href="#DejaVuSans-69" x="358.496094"/>
      <use xlink:href="#DejaVuSans-6e" x="386.279297"/>
      <use xlink:href="#DejaVuSans-69" x="449.658203"/>
     </g>
    </g>
   </g>
   <g id="line2d_65">
    <path d="M 74.866364 227.899394 
L 83.375198 214.311515 
L 91.884033 173.547879 
L 100.392868 159.96 
L 108.901703 146.372121 
L 117.410538 119.196364 
L 125.919373 214.311515 
L 134.428207 159.96 
L 142.937042 159.96 
L 151.445877 132.784242 
L 159.954712 214.311515 
L 168.463547 146.372121 
L 176.972382 200.723636 
L 185.481216 227.899394 
L 193.990051 173.547879 
L 202.498886 268.66303 
L 211.007721 173.547879 
L 219.516556 214.311515 
L 228.025391 255.075152 
L 236.534225 268.66303 
L 245.04306 241.487273 
L 253.551895 241.487273 
L 262.06073 214.311515 
L 270.569565 268.66303 
L 279.078399 241.487273 
L 287.587234 241.487273 
L 296.096069 187.135758 
L 304.604904 200.723636 
L 313.113739 187.135758 
L 321.622574 173.547879 
L 330.131408 119.196364 
L 338.640243 159.96 
L 347.149078 159.96 
L 355.657913 187.135758 
L 364.166748 173.547879 
L 372.675583 227.899394 
L 381.184417 132.784242 
L 389.693252 214.311515 
L 398.202087 173.547879 
L 406.710922 241.487273 
L 415.219757 241.487273 
L 423.728592 255.075152 
L 432.237426 268.66303 
L 440.746261 255.075152 
L 449.255096 200.723636 
L 457.763931 227.899394 
L 466.272766 159.96 
L 474.781601 200.723636 
L 483.290435 173.547879 
L 491.79927 159.96 
L 500.308105 200.723636 
L 508.81694 173.547879 
L 517.325775 173.547879 
L 525.834609 241.487273 
L 534.343444 146.372121 
L 542.852279 92.020606 
L 551.361114 146.372121 
L 559.869949 173.547879 
L 568.378784 214.311515 
L 576.887618 37.669091 
L 585.396453 187.135758 
L 593.905288 159.96 
L 602.414123 159.96 
L 610.922958 200.723636 
L 619.431793 241.487273 
L 627.940627 268.66303 
L 636.449462 282.250909 
L 644.958297 241.487273 
L 653.467132 268.66303 
L 661.975967 200.723636 
L 670.484802 227.899394 
L 678.993636 159.96 
" clip-path="url(#pf7141d6d6b)" style="fill: none; stroke: #1f77b4; stroke-width: 1.5; stroke-linecap: square"/>
   </g>
   <g id="patch_3">
    <path d="M 44.66 294.48 
L 44.66 25.44 
" style="fill: none; stroke: #000000; stroke-width: 0.8; stroke-linejoin: miter; stroke-linecap: square"/>
   </g>
   <g id="patch_4">
    <path d="M 709.2 294.48 
L 709.2 25.44 
" style="fill: none; stroke: #000000; stroke-width: 0.8; stroke-linejoin: miter; stroke-linecap: square"/>
   </g>
   <g id="patch_5">
    <path d="M 44.66 294.48 
L 709.2 294.48 
" style="fill: none; stroke: #000000; stroke-width: 0.8; stroke-linejoin: miter; stroke-linecap: square"/>
   </g>
   <g id="patch_6">
    <path d="M 44.66 25.44 
L 709.2 25.44 
" style="fill: none; stroke: #000000; stroke-width: 0.8; stroke-linejoin: miter; stroke-linecap: square"/>
   </g>
   <g id="text_35">
    <!-- Semnalul brut pe 3 zile -->
    <g transform="translate(307.418125 19.44) scale(0.12 -0.12)">
     <defs>
      <path id="DejaVuSans-53" d="M 3425 4513 
L 3425 3897 
Q 3066 4069 2747 4153 
Q 2428 4238 2131 4238 
Q 1616 4238 1336 4038 
Q 1056 3838 1056 3469 
Q 1056 3159 1242 3001 
Q 1428 2844 1947 2747 
L 2328 2669 
Q 3034 2534 3370 2195 
Q 3706 1856 3706 1288 
Q 3706 609 3251 259 
Q 2797 -91 1919 -91 
Q 1588 -91 1214 -16 
Q 841 59 441 206 
L 441 856 
Q 825 641 1194 531 
Q 1563 422 1919 422 
Q 2459 422 2753 634 
Q 3047 847 3047 1241 
Q 3047 1584 2836 1778 
Q 2625 1972 2144 2069 
L 1759 2144 
Q 1053 2284 737 2584 
Q 422 2884 422 3419 
Q 422 4038 858 4394 
Q 1294 4750 2059 4750 
Q 2388 4750 2728 4690 
Q 3069 4631 3425 4513 
z
" transform="scale(0.015625)"/>
      <path id="DejaVuSans-6c" d="M 603 4863 
L 1178 4863 
L 1178 0 
L 603 0 
L 603 4863 
z
" transform="scale(0.015625)"/>
      <path id="DejaVuSans-75" d="M 544 1381 
L 544 3500 
L 1119 3500 
L 1119 1403 
Q 1119 906 1312 657 
Q 1506 409 1894 409 
Q 2359 409 2629 706 
Q 2900 1003 2900 1516 
L 2900 3500 
L 3475 3500 
L 3475 0 
L 2900 0 
L 2900 538 
Q 2691 219 2414 64 
Q 2138 -91 1772 -91 
Q 1169 -91 856 284 
Q 544 659 544 1381 
z
M 1991 3584 
L 1991 3584 
z
" transform="scale(0.015625)"/>
      <path id="DejaVuSans-62" d="M 3116 1747 
Q 3116 2381 2855 2742 
Q 2594 3103 2138 3103 
Q 1681 3103 1420 2742 
Q 1159 2381 1159 1747 
Q 1159 1113 1420 752 
Q 1681 391 2138 391 
Q 2594 391 2855 752 
Q 3116 1113 3116 1747 
z
M 1159 2969 
Q 1341 3281 1617 3432 
Q 1894 3584 2278 3584 
Q 2916 3584 3314 3078 
Q 3713 2572 3713 1747 
Q 3713 922 3314 415 
Q 2916 -91 2278 -91 
Q 1894 -91 1617 61 
Q 1341 213 1159 525 
L 1159 0 
L 581 0 
L 581 4863 
L 1159 4863 
L 1159 2969 
z
" transform="scale(0.015625)"/>
      <path id="DejaVuSans-70" d="M 1159 525 
L 1159 -1331 
L 581 -1331 
L 581 3500 
L 1159 3500 
L 1159 2969 
Q 1341 3281 1617 3432 
Q 1894 3584 2278 3584 
Q 2916 3584 3314 3078 
Q 3713 2572 3713 1747 
Q 3713 922 3314 415 
Q 2916 -91 2278 -91 
Q 1894 -91 1617 61 
Q 1341 213 1159 525 
z
M 3116 1747 
Q 3116 2381 2855 2742 
Q 2594 3103 2138 3103 
Q 1681 3103 1420 2742 
Q 1159 2381 1159 1747 
Q 1159 1113 1420 752 
Q 1681 391 2138 391 
Q 2594 391 2855 752 
Q 3116 1113 3116 1747 
z
" transform="scale(0.015625)"/>
      <path id="DejaVuSans-7a" d="M 353 3500 
L 3084 3500 
L 3084 2975 
L 922 459 
L 3084 459 
L 3084 0 
L 275 0 
L 275 525 
L 2438 3041 
L 353 3041 
L 353 3500 
z
" transform="scale(0.015625)"/>
     </defs>
     <use xlink:href="#DejaVuSans-53"/>
     <use xlink:href="#DejaVuSans-65" x="63.476562"/>
     <use xlink:href="#DejaVuSans-6d" x="125"/>
     <use xlink:href="#DejaVuSans-6e" x="222.412109"/>
     <use xlink:href="#DejaVuSans-61" x="285.791016"/>
     <use xlink:href="#DejaVuSans-6c" x="347.070312"/>
     <use xlink:href="#DejaVuSans-75" x="374.853516"/>
     <use xlink:href="#DejaVuSans-6c" x="438.232422"/>
     <use xlink:href="#DejaVuSans-20" x="466.015625"/>
     <use xlink:href="#DejaVuSans-62" x="497.802734"/>
     <use xlink:href="#DejaVuSans-72" x="561.279297"/>
     <use xlink:href="#DejaVuSans-75" x="602.392578"/>
     <use xlink:href="#DejaVuSans-74" x="665.771484"/>
     <use xlink:href="#DejaVuSans-20" x="704.980469"/>
     <use xlink:href="#DejaVuSans-70" x="736.767578"/>
     <use xlink:href="#DejaVuSans-65" x="800.244141"/>
     <use xlink:href="#DejaVuSans-20" x="861.767578"/>
     <use xlink:href="#DejaVuSans-33" x="893.554688"/>
     <use xlink:href="#DejaVuSans-20" x="957.177734"/>
     <use xlink:href="#DejaVuSans-7a" x="988.964844"/>
     <use xlink:href="#DejaVuSans-69" x="1041.455078"/>
     <use xlink:href="#DejaVuSans-6c" x="1069.238281"/>
     <use xlink:href="#DejaVuSans-65" x="1097.021484"/>
    </g>
   </g>
   <g id="legend_1">
    <g id="patch_7">
     <path d="M 600.842187 48.118125 
L 702.2 48.118125 
Q 704.2 48.118125 704.2 46.118125 
L 704.2 32.44 
Q 704.2 30.44 702.2 30.44 
L 600.842187 30.44 
Q 598.842187 30.44 598.842187 32.44 
L 598.842187 46.118125 
Q 598.842187 48.118125 600.842187 48.118125 
z
" style="fill: #ffffff; opacity: 0.8; stroke: #cccccc; stroke-linejoin: miter"/>
    </g>
    <g id="line2d_66">
     <path d="M 602.842187 38.538437 
L 612.842187 38.538437 
L 622.842187 38.538437 
" style="fill: none; stroke: #1f77b4; stroke-width: 1.5; stroke-linecap: square"/>
    </g>
    <g id="text_36">
     <!-- semnalul brut -->
     <g transform="translate(630.842187 42.038437) scale(0.1 -0.1)">
      <use xlink:href="#DejaVuSans-73"/>
      <use xlink:href="#DejaVuSans-65" x="52.099609"/>
      <use xlink:href="#DejaVuSans-6d" x="113.623047"/>
      <use xlink:href="#DejaVuSans-6e" x="211.035156"/>
      <use xlink:href="#DejaVuSans-61" x="274.414062"/>
      <use xlink:href="#DejaVuSans-6c" x="335.693359"/>
      <use xlink:href="#DejaVuSans-75" x="363.476562"/>
      <use xlink:href="#DejaVuSans-6c" x="426.855469"/>
      <use xlink:href="#DejaVuSans-20" x="454.638672"/>
      <use xlink:href="#DejaVuSans-62" x="486.425781"/>
      <use xlink:href="#DejaVuSans-72" x="549.902344"/>
      <use xlink:href="#DejaVuSans-75" x="591.015625"/>
      <use xlink:href="#DejaVuSans-74" x="654.394531"/>
     </g>
    </g>
   </g>
  </g>
  <g id="axes_2">
   <g id="patch_8">
    <path d="M 44.66 620.12 
L 709.2 620.12 
L 709.2 351.08 
L 44.66 351.08 
z
" style="fill: #ffffff"/>
   </g>
   <g id="matplotlib.axis_3">
    <g id="xtick_26">
     <g id="line2d_67">
      <g>
       <use xlink:href="#m699c99ac35" x="74.866364" y="620.12" style="stroke: #000000; stroke-width: 0.8"/>
      </g>
     </g>
     <g id="text_37">
      <!-- 0 -->
      <g transform="translate(71.685114 634.718438) scale(0.1 -0.1)">
       <use xlink:href="#DejaVuSans-30"/>
      </g>
     </g>
    </g>
    <g id="xtick_27">
     <g id="line2d_68">
      <g>
       <use xlink:href="#m699c99ac35" x="159.954712" y="620.12" style="stroke: #000000; stroke-width: 0.8"/>
      </g>
     </g>
     <g id="text_38">
      <!-- 10 -->
      <g transform="translate(153.592212 634.718438) scale(0.1 -0.1)">
       <use xlink:href="#DejaVuSans-31"/>
       <use xlink:href="#DejaVuSans-30" x="63.623047"/>
      </g>
     </g>
    </g>
    <g id="xtick_28">
     <g id="line2d_69">
      <g>
       <use xlink:href="#m699c99ac35" x="245.04306" y="620.12" style="stroke: #000000; stroke-width: 0.8"/>
      </g>
     </g>
     <g id="text_39">
      <!-- 20 -->
      <g transform="translate(238.68056 634.718438) scale(0.1 -0.1)">
       <use xlink:href="#DejaVuSans-32"/>
       <use xlink:href="#DejaVuSans-30" x="63.623047"/>
      </g>
     </g>
    </g>
    <g id="xtick_29">
     <g id="line2d_70">
      <g>
       <use xlink:href="#m699c99ac35" x="330.131408" y="620.12" style="stroke: #000000; stroke-width: 0.8"/>
      </g>
     </g>
     <g id="text_40">
      <!-- 30 -->
      <g transform="translate(323.768908 634.718438) scale(0.1 -0.1)">
       <use xlink:href="#DejaVuSans-33"/>
       <use xlink:href="#DejaVuSans-30" x="63.623047"/>
      </g>
     </g>
    </g>
    <g id="xtick_30">
     <g id="line2d_71">
      <g>
       <use xlink:href="#m699c99ac35" x="415.219757" y="620.12" style="stroke: #000000; stroke-width: 0.8"/>
      </g>
     </g>
     <g id="text_41">
      <!-- 40 -->
      <g transform="translate(408.857257 634.718438) scale(0.1 -0.1)">
       <use xlink:href="#DejaVuSans-34"/>
       <use xlink:href="#DejaVuSans-30" x="63.623047"/>
      </g>
     </g>
    </g>
    <g id="xtick_31">
     <g id="line2d_72">
      <g>
       <use xlink:href="#m699c99ac35" x="500.308105" y="620.12" style="stroke: #000000; stroke-width: 0.8"/>
      </g>
     </g>
     <g id="text_42">
      <!-- 50 -->
      <g transform="translate(493.945605 634.718438) scale(0.1 -0.1)">
       <use xlink:href="#DejaVuSans-35"/>
       <use xlink:href="#DejaVuSans-30" x="63.623047"/>
      </g>
     </g>
    </g>
    <g id="xtick_32">
     <g id="line2d_73">
      <g>
       <use xlink:href="#m699c99ac35" x="585.396453" y="620.12" style="stroke: #000000; stroke-width: 0.8"/>
      </g>
     </g>
     <g id="text_43">
      <!-- 60 -->
      <g transform="translate(579.033953 634.718438) scale(0.1 -0.1)">
       <use xlink:href="#DejaVuSans-36"/>
       <use xlink:href="#DejaVuSans-30" x="63.623047"/>
      </g>
     </g>
    </g>
    <g id="xtick_33">
     <g id="line2d_74">
      <g>
       <use xlink:href="#m699c99ac35" x="670.484802" y="620.12" style="stroke: #000000; stroke-width: 0.8"/>
      </g>
     </g>
     <g id="text_44">
      <!-- 70 -->
      <g transform="translate(664.122302 634.718438) scale(0.1 -0.1)">
       <use xlink:href="#DejaVuSans-37"/>
       <use xlink:href="#DejaVuSans-30" x="63.623047"/>
      </g>
     </g>
    </g>
   </g>
   <g id="matplotlib.axis_4">
    <g id="ytick_8">
     <g id="line2d_75">
      <g>
       <use xlink:href="#mfc82d1f467" x="44.66" y="587.509091" style="stroke: #000000; stroke-width: 0.8"/>
      </g>
     </g>
     <g id="text_45">
      <!-- 5 -->
      <g transform="translate(31.2975 591.30831) scale(0.1 -0.1)">
       <use xlink:href="#DejaVuSans-35"/>
      </g>
     </g>
    </g>
    <g id="ytick_9">
     <g id="line2d_76">
      <g>
       <use xlink:href="#mfc82d1f467" x="44.66" y="553.539394" style="stroke: #000000; stroke-width: 0.8"/>
      </g>
     </g>
     <g id="text_46">
      <!-- 10 -->
      <g transform="translate(24.935 557.338613) scale(0.1 -0.1)">
       <use xlink:href="#DejaVuSans-31"/>
       <use xlink:href="#DejaVuSans-30" x="63.623047"/>
      </g>
     </g>
    </g>
    <g id="ytick_10">
     <g id="line2d_77">
      <g>
       <use xlink:href="#mfc82d1f467" x="44.66" y="519.569697" style="stroke: #000000; stroke-width: 0.8"/>
      </g>
     </g>
     <g id="text_47">
      <!-- 15 -->
      <g transform="translate(24.935 523.368916) scale(0.1 -0.1)">
       <use xlink:href="#DejaVuSans-31"/>
       <use xlink:href="#DejaVuSans-35" x="63.623047"/>
      </g>
     </g>
    </g>
    <g id="ytick_11">
     <g id="line2d_78">
      <g>
       <use xlink:href="#mfc82d1f467" x="44.66" y="485.6" style="stroke: #000000; stroke-width: 0.8"/>
      </g>
     </g>
     <g id="text_48">
      <!-- 20 -->
      <g transform="translate(24.935 489.399219) scale(0.1 -0.1)">
       <use xlink:href="#DejaVuSans-32"/>
       <use xlink:href="#DejaVuSans-30" x="63.623047"/>
      </g>
     </g>
    </g>
    <g id="ytick_12">
     <g id="line2d_79">
      <g>
       <use xlink:href="#mfc82d1f467" x="44.66" y="451.630303" style="stroke: #000000; stroke-width: 0.8"/>
      </g>
     </g>
     <g id="text_49">
      <!-- 25 -->
      <g transform="translate(24.935 455.429522) scale(0.1 -0.1)">
       <use xlink:href="#DejaVuSans-32"/>
       <use xlink:href="#DejaVuSans-35" x="63.623047"/>
      </g>
     </g>
    </g>
    <g id="ytick_13">
     <g id="line2d_80">
      <g>
       <use xlink:href="#mfc82d1f467" x="44.66" y="417.660606" style="stroke: #000000; stroke-width: 0.8"/>
      </g>
     </g>
     <g id="text_50">
      <!-- 30 -->
      <g transform="translate(24.935 421.459825) scale(0.1 -0.1)">
       <use xlink:href="#DejaVuSans-33"/>
       <use xlink:href="#DejaVuSans-30" x="63.623047"/>
      </g>
     </g>
    </g>
    <g id="ytick_14">
     <g id="line2d_81">
      <g>
       <use xlink:href="#mfc82d1f467" x="44.66" y="383.690909" style="stroke: #000000; stroke-width: 0.8"/>
      </g>
     </g>
     <g id="text_51">
      <!-- 35 -->
      <g transform="translate(24.935 387.490128) scale(0.1 -0.1)">
       <use xlink:href="#DejaVuSans-33"/>
       <use xlink:href="#DejaVuSans-35" x="63.623047"/>
      </g>
     </g>
    </g>
   </g>
   <g id="line2d_82">
    <path d="M 74.866364 553.539394 
L 83.375198 539.951515 
L 91.884033 499.187879 
L 100.392868 485.6 
L 108.901703 472.012121 
L 117.410538 444.836364 
L 125.919373 539.951515 
L 134.428207 485.6 
L 142.937042 485.6 
L 151.445877 458.424242 
L 159.954712 539.951515 
L 168.463547 472.012121 
L 176.972382 526.363636 
L 185.481216 553.539394 
L 193.990051 499.187879 
L 202.498886 594.30303 
L 211.007721 499.187879 
L 219.516556 539.951515 
L 228.025391 580.715152 
L 236.534225 594.30303 
L 245.04306 567.127273 
L 253.551895 567.127273 
L 262.06073 539.951515 
L 270.569565 594.30303 
L 279.078399 567.127273 
L 287.587234 567.127273 
L 296.096069 512.775758 
L 304.604904 526.363636 
L 313.113739 512.775758 
L 321.622574 499.187879 
L 330.131408 444.836364 
L 338.640243 485.6 
L 347.149078 485.6 
L 355.657913 512.775758 
L 364.166748 499.187879 
L 372.675583 553.539394 
L 381.184417 458.424242 
L 389.693252 539.951515 
L 398.202087 499.187879 
L 406.710922 567.127273 
L 415.219757 567.127273 
L 423.728592 580.715152 
L 432.237426 594.30303 
L 440.746261 580.715152 
L 449.255096 526.363636 
L 457.763931 553.539394 
L 466.272766 485.6 
L 474.781601 526.363636 
L 483.290435 499.187879 
L 491.79927 485.6 
L 500.308105 526.363636 
L 508.81694 499.187879 
L 517.325775 499.187879 
L 525.834609 567.127273 
L 534.343444 472.012121 
L 542.852279 417.660606 
L 551.361114 472.012121 
L 559.869949 499.187879 
L 568.378784 539.951515 
L 576.887618 363.309091 
L 585.396453 512.775758 
L 593.905288 485.6 
L 602.414123 485.6 
L 610.922958 526.363636 
L 619.431793 567.127273 
L 627.940627 594.30303 
L 636.449462 607.890909 
L 644.958297 567.127273 
L 653.467132 594.30303 
L 661.975967 526.363636 
L 670.484802 553.539394 
L 678.993636 485.6 
" clip-path="url(#pbd617a0f71)" style="fill: none; stroke-dasharray: 5.55,2.4; stroke-dashoffset: 0; stroke: #808080; stroke-opacity: 0.2; stroke-width: 1.5"/>
   </g>
   <g id="line2d_83">
    <path d="M 108.901703 510.058182 
L 117.410538 488.317576 
L 125.919373 488.317576 
L 134.428207 485.6 
L 142.937042 485.6 
L 151.445877 482.882424 
L 159.954712 501.905455 
L 168.463547 488.317576 
L 176.972382 496.470303 
L 185.481216 510.058182 
L 193.990051 518.210909 
L 202.498886 529.081212 
L 211.007721 534.516364 
L 219.516556 537.233939 
L 228.025391 542.669091 
L 236.534225 561.692121 
L 245.04306 556.25697 
L 253.551895 569.844848 
L 262.06073 569.844848 
L 270.569565 572.562424 
L 279.078399 567.127273 
L 287.587234 567.127273 
L 296.096069 556.25697 
L 304.604904 553.539394 
L 313.113739 537.233939 
L 321.622574 523.646061 
L 330.131408 499.187879 
L 338.640243 493.752727 
L 347.149078 485.6 
L 355.657913 485.6 
L 364.166748 485.6 
L 372.675583 507.340606 
L 381.184417 501.905455 
L 389.693252 512.775758 
L 398.202087 510.058182 
L 406.710922 523.646061 
L 415.219757 526.363636 
L 423.728592 550.821818 
L 432.237426 561.692121 
L 440.746261 577.997576 
L 449.255096 569.844848 
L 457.763931 567.127273 
L 466.272766 548.104242 
L 474.781601 534.516364 
L 483.290435 518.210909 
L 491.79927 510.058182 
L 500.308105 504.62303 
L 508.81694 507.340606 
L 517.325775 501.905455 
L 525.834609 515.493333 
L 534.343444 512.775758 
L 542.852279 491.035152 
L 551.361114 485.6 
L 559.869949 485.6 
L 568.378784 480.164848 
L 576.887618 458.424242 
L 585.396453 477.447273 
L 593.905288 480.164848 
L 602.414123 477.447273 
L 610.922958 474.729697 
L 619.431793 515.493333 
L 627.940627 531.798788 
L 636.449462 556.25697 
L 644.958297 572.562424 
L 653.467132 586.150303 
L 661.975967 577.997576 
L 670.484802 569.844848 
L 678.993636 545.386667 
" clip-path="url(#pbd617a0f71)" style="fill: none; stroke: #1f77b4; stroke-width: 1.5; stroke-linecap: square"/>
   </g>
   <g id="line2d_84">
    <path d="M 142.937042 500.697643 
L 151.445877 490.129293 
L 159.954712 490.129293 
L 168.463547 487.109764 
L 176.972382 491.639057 
L 185.481216 500.697643 
L 193.990051 506.7367 
L 202.498886 512.775758 
L 211.007721 514.285522 
L 219.516556 520.324579 
L 228.025391 533.912458 
L 236.534225 539.951515 
L 245.04306 550.519865 
L 253.551895 555.049158 
L 262.06073 553.539394 
L 270.569565 564.107744 
L 279.078399 561.088215 
L 287.587234 568.637037 
L 296.096069 565.617508 
L 304.604904 559.578451 
L 313.113739 550.519865 
L 321.622574 542.971044 
L 330.131408 529.383165 
L 338.640243 523.344108 
L 347.149078 511.265993 
L 355.657913 505.226936 
L 364.166748 497.678114 
L 372.675583 502.207407 
L 381.184417 494.658586 
L 389.693252 497.678114 
L 398.202087 497.678114 
L 406.710922 511.265993 
L 415.219757 520.324579 
L 423.728592 530.892929 
L 432.237426 539.951515 
L 440.746261 549.010101 
L 449.255096 545.990572 
L 457.763931 556.558923 
L 466.272766 550.519865 
L 474.781601 553.539394 
L 483.290435 545.990572 
L 491.79927 536.931987 
L 500.308105 530.892929 
L 508.81694 520.324579 
L 517.325775 511.265993 
L 525.834609 515.795286 
L 534.343444 506.7367 
L 542.852279 499.187879 
L 551.361114 493.148822 
L 559.869949 493.148822 
L 568.378784 499.187879 
L 576.887618 481.070707 
L 585.396453 482.580471 
L 593.905288 481.070707 
L 602.414123 472.012121 
L 610.922958 478.051178 
L 619.431793 494.658586 
L 627.940627 508.246465 
L 636.449462 520.324579 
L 644.958297 523.344108 
L 653.467132 549.010101 
L 661.975967 550.519865 
L 670.484802 558.068687 
L 678.993636 558.068687 
" clip-path="url(#pbd617a0f71)" style="fill: none; stroke: #ff7f0e; stroke-width: 1.5; stroke-linecap: square"/>
   </g>
   <g id="line2d_85">
    <path d="M 176.972382 500.2331 
L 185.481216 500.2331 
L 193.990051 497.097436 
L 202.498886 504.413986 
L 211.007721 505.459207 
L 219.516556 510.685315 
L 228.025391 521.137529 
L 236.534225 525.318415 
L 245.04306 531.589744 
L 253.551895 537.861072 
L 262.06073 544.132401 
L 270.569565 548.313287 
L 279.078399 555.629837 
L 287.587234 558.765501 
L 296.096069 555.629837 
L 304.604904 557.72028 
L 313.113739 551.448951 
L 321.622574 551.448951 
L 330.131408 544.132401 
L 338.640243 536.815851 
L 347.149078 528.454079 
L 355.657913 524.273193 
L 364.166748 519.047086 
L 372.675583 520.092308 
L 381.184417 509.640093 
L 389.693252 507.54965 
L 398.202087 502.323543 
L 406.710922 506.504429 
L 415.219757 509.640093 
L 423.728592 514.8662 
L 432.237426 522.182751 
L 440.746261 532.634965 
L 449.255096 535.770629 
L 457.763931 540.996737 
L 466.272766 538.906294 
L 474.781601 540.996737 
L 483.290435 536.815851 
L 491.79927 538.906294 
L 500.308105 537.861072 
L 508.81694 537.861072 
L 517.325775 532.634965 
L 525.834609 532.634965 
L 534.343444 524.273193 
L 542.852279 510.685315 
L 551.361114 502.323543 
L 559.869949 500.2331 
L 568.378784 499.187879 
L 576.887618 489.780886 
L 585.396453 488.735664 
L 593.905288 487.690443 
L 602.414123 487.690443 
L 610.922958 487.690443 
L 619.431793 492.91655 
L 627.940627 500.2331 
L 636.449462 503.368765 
L 644.958297 510.685315 
L 653.467132 524.273193 
L 661.975967 528.454079 
L 670.484802 532.634965 
L 678.993636 528.454079 
" clip-path="url(#pbd617a0f71)" style="fill: none; stroke: #2ca02c; stroke-width: 1.5; stroke-linecap: square"/>
   </g>
   <g id="line2d_86">
    <path d="M 211.007721 508.779323 
L 219.516556 507.980036 
L 228.025391 510.377897 
L 236.534225 515.972906 
L 245.04306 520.768627 
L 253.551895 526.363636 
L 262.06073 531.958645 
L 270.569565 535.155793 
L 279.078399 539.951515 
L 287.587234 544.747237 
L 296.096069 547.944385 
L 304.604904 547.145098 
L 313.113739 549.542959 
L 321.622574 547.944385 
L 330.131408 541.550089 
L 338.640243 540.750802 
L 347.149078 534.356506 
L 355.657913 535.155793 
L 364.166748 532.757932 
L 372.675583 531.159358 
L 381.184417 523.166488 
L 389.693252 521.567914 
L 398.202087 517.57148 
L 406.710922 519.170053 
L 415.219757 517.57148 
L 423.728592 518.370766 
L 432.237426 519.96934 
L 440.746261 523.965775 
L 449.255096 523.965775 
L 457.763931 526.363636 
L 466.272766 525.564349 
L 474.781601 530.360071 
L 483.290435 531.159358 
L 491.79927 531.159358 
L 500.308105 531.958645 
L 508.81694 531.958645 
L 517.325775 528.761497 
L 525.834609 535.155793 
L 534.343444 531.159358 
L 542.852279 526.363636 
L 551.361114 520.768627 
L 559.869949 516.772193 
L 568.378784 514.374332 
L 576.887618 500.786453 
L 585.396453 496.790018 
L 593.905288 494.392157 
L 602.414123 490.395722 
L 610.922958 492.793583 
L 619.431793 495.191444 
L 627.940627 500.786453 
L 636.449462 507.980036 
L 644.958297 510.377897 
L 653.467132 515.972906 
L 661.975967 517.57148 
L 670.484802 516.772193 
L 678.993636 517.57148 
" clip-path="url(#pbd617a0f71)" style="fill: none; stroke: #d62728; stroke-width: 1.5; stroke-linecap: square"/>
   </g>
   <g id="patch_9">
    <path d="M 44.66 620.12 
L 44.66 351.08 
" style="fill: none; stroke: #000000; stroke-width: 0.8; stroke-linejoin: miter; stroke-linecap: square"/>
   </g>
   <g id="patch_10">
    <path d="M 709.2 620.12 
L 709.2 351.08 
" style="fill: none; stroke: #000000; stroke-width: 0.8; stroke-linejoin: miter; stroke-linecap: square"/>
   </g>
   <g id="patch_11">
    <path d="M 44.66 620.12 
L 709.2 620.12 
" style="fill: none; stroke: #000000; stroke-width: 0.8; stroke-linejoin: miter; stroke-linecap: square"/>
   </g>
   <g id="patch_12">
    <path d="M 44.66 351.08 
L 709.2 351.08 
" style="fill: none; stroke: #000000; stroke-width: 0.8; stroke-linejoin: miter; stroke-linecap: square"/>
   </g>
   <g id="text_52">
    <!-- Lowpass filters -->
    <g transform="translate(332.3875 345.08) scale(0.12 -0.12)">
     <defs>
      <path id="DejaVuSans-4c" d="M 628 4666 
L 1259 4666 
L 1259 531 
L 3531 531 
L 3531 0 
L 628 0 
L 628 4666 
z
" transform="scale(0.015625)"/>
      <path id="DejaVuSans-77" d="M 269 3500 
L 844 3500 
L 1563 769 
L 2278 3500 
L 2956 3500 
L 3675 769 
L 4391 3500 
L 4966 3500 
L 4050 0 
L 3372 0 
L 2619 2869 
L 1863 0 
L 1184 0 
L 269 3500 
z
" transform="scale(0.015625)"/>
      <path id="DejaVuSans-66" d="M 2375 4863 
L 2375 4384 
L 1825 4384 
Q 1516 4384 1395 4259 
Q 1275 4134 1275 3809 
L 1275 3500 
L 2222 3500 
L 2222 3053 
L 1275 3053 
L 1275 0 
L 697 0 
L 697 3053 
L 147 3053 
L 147 3500 
L 697 3500 
L 697 3744 
Q 697 4328 969 4595 
Q 1241 4863 1831 4863 
L 2375 4863 
z
" transform="scale(0.015625)"/>
     </defs>
     <use xlink:href="#DejaVuSans-4c"/>
     <use xlink:href="#DejaVuSans-6f" x="53.962891"/>
     <use xlink:href="#DejaVuSans-77" x="115.144531"/>
     <use xlink:href="#DejaVuSans-70" x="196.931641"/>
     <use xlink:href="#DejaVuSans-61" x="260.408203"/>
     <use xlink:href="#DejaVuSans-73" x="321.6875"/>
     <use xlink:href="#DejaVuSans-73" x="373.787109"/>
     <use xlink:href="#DejaVuSans-20" x="425.886719"/>
     <use xlink:href="#DejaVuSans-66" x="457.673828"/>
     <use xlink:href="#DejaVuSans-69" x="492.878906"/>
     <use xlink:href="#DejaVuSans-6c" x="520.662109"/>
     <use xlink:href="#DejaVuSans-74" x="548.445312"/>
     <use xlink:href="#DejaVuSans-65" x="587.654297"/>
     <use xlink:href="#DejaVuSans-72" x="649.177734"/>
     <use xlink:href="#DejaVuSans-73" x="690.291016"/>
    </g>
   </g>
   <g id="legend_2">
    <g id="patch_13">
     <path d="M 600.842187 432.470625 
L 702.2 432.470625 
Q 704.2 432.470625 704.2 430.470625 
L 704.2 358.08 
Q 704.2 356.08 702.2 356.08 
L 600.842187 356.08 
Q 598.842187 356.08 598.842187 358.08 
L 598.842187 430.470625 
Q 598.842187 432.470625 600.842187 432.470625 
z
" style="fill: #ffffff; opacity: 0.8; stroke: #cccccc; stroke-linejoin: miter"/>
    </g>
    <g id="line2d_87">
     <path d="M 602.842187 364.178437 
L 612.842187 364.178437 
L 622.842187 364.178437 
" style="fill: none; stroke-dasharray: 5.55,2.4; stroke-dashoffset: 0; stroke: #808080; stroke-opacity: 0.2; stroke-width: 1.5"/>
    </g>
    <g id="text_53">
     <!-- semnalul brut -->
     <g transform="translate(630.842187 367.678437) scale(0.1 -0.1)">
      <use xlink:href="#DejaVuSans-73"/>
      <use xlink:href="#DejaVuSans-65" x="52.099609"/>
      <use xlink:href="#DejaVuSans-6d" x="113.623047"/>
      <use xlink:href="#DejaVuSans-6e" x="211.035156"/>
      <use xlink:href="#DejaVuSans-61" x="274.414062"/>
      <use xlink:href="#DejaVuSans-6c" x="335.693359"/>
      <use xlink:href="#DejaVuSans-75" x="363.476562"/>
      <use xlink:href="#DejaVuSans-6c" x="426.855469"/>
      <use xlink:href="#DejaVuSans-20" x="454.638672"/>
      <use xlink:href="#DejaVuSans-62" x="486.425781"/>
      <use xlink:href="#DejaVuSans-72" x="549.902344"/>
      <use xlink:href="#DejaVuSans-75" x="591.015625"/>
      <use xlink:href="#DejaVuSans-74" x="654.394531"/>
     </g>
    </g>
    <g id="line2d_88">
     <path d="M 602.842187 378.856562 
L 612.842187 378.856562 
L 622.842187 378.856562 
" style="fill: none; stroke: #1f77b4; stroke-width: 1.5; stroke-linecap: square"/>
    </g>
    <g id="text_54">
     <!-- ws=5 -->
     <g transform="translate(630.842187 382.356562) scale(0.1 -0.1)">
      <defs>
       <path id="DejaVuSans-3d" d="M 678 2906 
L 4684 2906 
L 4684 2381 
L 678 2381 
L 678 2906 
z
M 678 1631 
L 4684 1631 
L 4684 1100 
L 678 1100 
L 678 1631 
z
" transform="scale(0.015625)"/>
      </defs>
      <use xlink:href="#DejaVuSans-77"/>
      <use xlink:href="#DejaVuSans-73" x="81.787109"/>
      <use xlink:href="#DejaVuSans-3d" x="133.886719"/>
      <use xlink:href="#DejaVuSans-35" x="217.675781"/>
     </g>
    </g>
    <g id="line2d_89">
     <path d="M 602.842187 393.534687 
L 612.842187 393.534687 
L 622.842187 393.534687 
" style="fill: none; stroke: #ff7f0e; stroke-width: 1.5; stroke-linecap: square"/>
    </g>
    <g id="text_55">
     <!-- ws=9 -->
     <g transform="translate(630.842187 397.034687) scale(0.1 -0.1)">
      <use xlink:href="#DejaVuSans-77"/>
      <use xlink:href="#DejaVuSans-73" x="81.787109"/>
      <use xlink:href="#DejaVuSans-3d" x="133.886719"/>
      <use xlink:href="#DejaVuSans-39" x="217.675781"/>
     </g>
    </g>
    <g id="line2d_90">
     <path d="M 602.842187 408.212812 
L 612.842187 408.212812 
L 622.842187 408.212812 
" style="fill: none; stroke: #2ca02c; stroke-width: 1.5; stroke-linecap: square"/>
    </g>
    <g id="text_56">
     <!-- ws=13 -->
     <g transform="translate(630.842187 411.712812) scale(0.1 -0.1)">
      <use xlink:href="#DejaVuSans-77"/>
      <use xlink:href="#DejaVuSans-73" x="81.787109"/>
      <use xlink:href="#DejaVuSans-3d" x="133.886719"/>
      <use xlink:href="#DejaVuSans-31" x="217.675781"/>
      <use xlink:href="#DejaVuSans-33" x="281.298828"/>
     </g>
    </g>
    <g id="line2d_91">
     <path d="M 602.842187 422.890937 
L 612.842187 422.890937 
L 622.842187 422.890937 
" style="fill: none; stroke: #d62728; stroke-width: 1.5; stroke-linecap: square"/>
    </g>
    <g id="text_57">
     <!-- ws=17 -->
     <g transform="translate(630.842187 426.390937) scale(0.1 -0.1)">
      <use xlink:href="#DejaVuSans-77"/>
      <use xlink:href="#DejaVuSans-73" x="81.787109"/>
      <use xlink:href="#DejaVuSans-3d" x="133.886719"/>
      <use xlink:href="#DejaVuSans-31" x="217.675781"/>
      <use xlink:href="#DejaVuSans-37" x="281.298828"/>
     </g>
    </g>
   </g>
  </g>
 </g>
 <defs>
  <clipPath id="pf7141d6d6b">
   <rect x="44.66" y="25.44" width="664.54" height="269.04"/>
  </clipPath>
  <clipPath id="pbd617a0f71">
   <rect x="44.66" y="351.08" width="664.54" height="269.04"/>
  </clipPath>
 </defs>
</svg>
