<?xml version="1.0" encoding="utf-8" standalone="no"?>
<!DOCTYPE svg PUBLIC "-//W3C//DTD SVG 1.1//EN"
  "http://www.w3.org/Graphics/SVG/1.1/DTD/svg11.dtd">
<svg xmlns:xlink="http://www.w3.org/1999/xlink" width="720pt" height="648pt" viewBox="0 0 720 648" xmlns="http://www.w3.org/2000/svg" version="1.1">
 <metadata>
  <rdf:RDF xmlns:dc="http://purl.org/dc/elements/1.1/" xmlns:cc="http://creativecommons.org/ns#" xmlns:rdf="http://www.w3.org/1999/02/22-rdf-syntax-ns#">
   <cc:Work>
    <dc:type rdf:resource="http://purl.org/dc/dcmitype/StillImage"/>
    <dc:date>2025-11-25T14:46:37.947632</dc:date>
    <dc:format>image/svg+xml</dc:format>
    <dc:creator>
     <cc:Agent>
      <dc:title>Matplotlib v3.6.3, https://matplotlib.org/</dc:title>
     </cc:Agent>
    </dc:creator>
   </cc:Work>
  </rdf:RDF>
 </metadata>
 <defs>
  <style type="text/css">*{stroke-linejoin: round; stroke-linecap: butt}</style>
 </defs>
 <g id="figure_1">
  <g id="patch_1">
   <path d="M 0 648 
L 720 648 
L 720 0 
L 0 0 
z
" style="fill: #ffffff"/>
  </g>
  <g id="axes_1">
   <g id="patch_2">
    <path d="M 44.66 181.24 
L 709.2 181.24 
L 709.2 25.44 
L 44.66 25.44 
z
" style="fill: #ffffff"/>
   </g>
   <g id="matplotlib.axis_1">
    <g id="xtick_1">
     <g id="line2d_1">
      <defs>
       <path id="mdd0c4521fa" d="M 0 0 
L 0 3.5 
" style="stroke: #000000; stroke-width: 0.8"/>
      </defs>
      <g>
       <use xlink:href="#mdd0c4521fa" x="74.866364" y="181.24" style="stroke: #000000; stroke-width: 0.8"/>
      </g>
     </g>
     <g id="text_1">
      <!-- 0 -->
      <g transform="translate(71.685114 195.838437) scale(0.1 -0.1)">
       <defs>
        <path id="DejaVuSans-30" d="M 2034 4250 
Q 1547 4250 1301 3770 
Q 1056 3291 1056 2328 
Q 1056 1369 1301 889 
Q 1547 409 2034 409 
Q 2525 409 2770 889 
Q 3016 1369 3016 2328 
Q 3016 3291 2770 3770 
Q 2525 4250 2034 4250 
z
M 2034 4750 
Q 2819 4750 3233 4129 
Q 3647 3509 3647 2328 
Q 3647 1150 3233 529 
Q 2819 -91 2034 -91 
Q 1250 -91 836 529 
Q 422 1150 422 2328 
Q 422 3509 836 4129 
Q 1250 4750 2034 4750 
z
" transform="scale(0.015625)"/>
       </defs>
       <use xlink:href="#DejaVuSans-30"/>
      </g>
     </g>
    </g>
    <g id="xtick_2">
     <g id="line2d_2">
      <g>
       <use xlink:href="#mdd0c4521fa" x="159.954712" y="181.24" style="stroke: #000000; stroke-width: 0.8"/>
      </g>
     </g>
     <g id="text_2">
      <!-- 10 -->
      <g transform="translate(153.592212 195.838437) scale(0.1 -0.1)">
       <defs>
        <path id="DejaVuSans-31" d="M 794 531 
L 1825 531 
L 1825 4091 
L 703 3866 
L 703 4441 
L 1819 4666 
L 2450 4666 
L 2450 531 
L 3481 531 
L 3481 0 
L 794 0 
L 794 531 
z
" transform="scale(0.015625)"/>
       </defs>
       <use xlink:href="#DejaVuSans-31"/>
       <use xlink:href="#DejaVuSans-30" x="63.623047"/>
      </g>
     </g>
    </g>
    <g id="xtick_3">
     <g id="line2d_3">
      <g>
       <use xlink:href="#mdd0c4521fa" x="245.04306" y="181.24" style="stroke: #000000; stroke-width: 0.8"/>
      </g>
     </g>
     <g id="text_3">
      <!-- 20 -->
      <g transform="translate(238.68056 195.838437) scale(0.1 -0.1)">
       <defs>
        <path id="DejaVuSans-32" d="M 1228 531 
L 3431 531 
L 3431 0 
L 469 0 
L 469 531 
Q 828 903 1448 1529 
Q 2069 2156 2228 2338 
Q 2531 2678 2651 2914 
Q 2772 3150 2772 3378 
Q 2772 3750 2511 3984 
Q 2250 4219 1831 4219 
Q 1534 4219 1204 4116 
Q 875 4013 500 3803 
L 500 4441 
Q 881 4594 1212 4672 
Q 1544 4750 1819 4750 
Q 2544 4750 2975 4387 
Q 3406 4025 3406 3419 
Q 3406 3131 3298 2873 
Q 3191 2616 2906 2266 
Q 2828 2175 2409 1742 
Q 1991 1309 1228 531 
z
" transform="scale(0.015625)"/>
       </defs>
       <use xlink:href="#DejaVuSans-32"/>
       <use xlink:href="#DejaVuSans-30" x="63.623047"/>
      </g>
     </g>
    </g>
    <g id="xtick_4">
     <g id="line2d_4">
      <g>
       <use xlink:href="#mdd0c4521fa" x="330.131408" y="181.24" style="stroke: #000000; stroke-width: 0.8"/>
      </g>
     </g>
     <g id="text_4">
      <!-- 30 -->
      <g transform="translate(323.768908 195.838437) scale(0.1 -0.1)">
       <defs>
        <path id="DejaVuSans-33" d="M 2597 2516 
Q 3050 2419 3304 2112 
Q 3559 1806 3559 1356 
Q 3559 666 3084 287 
Q 2609 -91 1734 -91 
Q 1441 -91 1130 -33 
Q 819 25 488 141 
L 488 750 
Q 750 597 1062 519 
Q 1375 441 1716 441 
Q 2309 441 2620 675 
Q 2931 909 2931 1356 
Q 2931 1769 2642 2001 
Q 2353 2234 1838 2234 
L 1294 2234 
L 1294 2753 
L 1863 2753 
Q 2328 2753 2575 2939 
Q 2822 3125 2822 3475 
Q 2822 3834 2567 4026 
Q 2313 4219 1838 4219 
Q 1578 4219 1281 4162 
Q 984 4106 628 3988 
L 628 4550 
Q 988 4650 1302 4700 
Q 1616 4750 1894 4750 
Q 2613 4750 3031 4423 
Q 3450 4097 3450 3541 
Q 3450 3153 3228 2886 
Q 3006 2619 2597 2516 
z
" transform="scale(0.015625)"/>
       </defs>
       <use xlink:href="#DejaVuSans-33"/>
       <use xlink:href="#DejaVuSans-30" x="63.623047"/>
      </g>
     </g>
    </g>
    <g id="xtick_5">
     <g id="line2d_5">
      <g>
       <use xlink:href="#mdd0c4521fa" x="415.219757" y="181.24" style="stroke: #000000; stroke-width: 0.8"/>
      </g>
     </g>
     <g id="text_5">
      <!-- 40 -->
      <g transform="translate(408.857257 195.838437) scale(0.1 -0.1)">
       <defs>
        <path id="DejaVuSans-34" d="M 2419 4116 
L 825 1625 
L 2419 1625 
L 2419 4116 
z
M 2253 4666 
L 3047 4666 
L 3047 1625 
L 3713 1625 
L 3713 1100 
L 3047 1100 
L 3047 0 
L 2419 0 
L 2419 1100 
L 313 1100 
L 313 1709 
L 2253 4666 
z
" transform="scale(0.015625)"/>
       </defs>
       <use xlink:href="#DejaVuSans-34"/>
       <use xlink:href="#DejaVuSans-30" x="63.623047"/>
      </g>
     </g>
    </g>
    <g id="xtick_6">
     <g id="line2d_6">
      <g>
       <use xlink:href="#mdd0c4521fa" x="500.308105" y="181.24" style="stroke: #000000; stroke-width: 0.8"/>
      </g>
     </g>
     <g id="text_6">
      <!-- 50 -->
      <g transform="translate(493.945605 195.838437) scale(0.1 -0.1)">
       <defs>
        <path id="DejaVuSans-35" d="M 691 4666 
L 3169 4666 
L 3169 4134 
L 1269 4134 
L 1269 2991 
Q 1406 3038 1543 3061 
Q 1681 3084 1819 3084 
Q 2600 3084 3056 2656 
Q 3513 2228 3513 1497 
Q 3513 744 3044 326 
Q 2575 -91 1722 -91 
Q 1428 -91 1123 -41 
Q 819 9 494 109 
L 494 744 
Q 775 591 1075 516 
Q 1375 441 1709 441 
Q 2250 441 2565 725 
Q 2881 1009 2881 1497 
Q 2881 1984 2565 2268 
Q 2250 2553 1709 2553 
Q 1456 2553 1204 2497 
Q 953 2441 691 2322 
L 691 4666 
z
" transform="scale(0.015625)"/>
       </defs>
       <use xlink:href="#DejaVuSans-35"/>
       <use xlink:href="#DejaVuSans-30" x="63.623047"/>
      </g>
     </g>
    </g>
    <g id="xtick_7">
     <g id="line2d_7">
      <g>
       <use xlink:href="#mdd0c4521fa" x="585.396453" y="181.24" style="stroke: #000000; stroke-width: 0.8"/>
      </g>
     </g>
     <g id="text_7">
      <!-- 60 -->
      <g transform="translate(579.033953 195.838437) scale(0.1 -0.1)">
       <defs>
        <path id="DejaVuSans-36" d="M 2113 2584 
Q 1688 2584 1439 2293 
Q 1191 2003 1191 1497 
Q 1191 994 1439 701 
Q 1688 409 2113 409 
Q 2538 409 2786 701 
Q 3034 994 3034 1497 
Q 3034 2003 2786 2293 
Q 2538 2584 2113 2584 
z
M 3366 4563 
L 3366 3988 
Q 3128 4100 2886 4159 
Q 2644 4219 2406 4219 
Q 1781 4219 1451 3797 
Q 1122 3375 1075 2522 
Q 1259 2794 1537 2939 
Q 1816 3084 2150 3084 
Q 2853 3084 3261 2657 
Q 3669 2231 3669 1497 
Q 3669 778 3244 343 
Q 2819 -91 2113 -91 
Q 1303 -91 875 529 
Q 447 1150 447 2328 
Q 447 3434 972 4092 
Q 1497 4750 2381 4750 
Q 2619 4750 2861 4703 
Q 3103 4656 3366 4563 
z
" transform="scale(0.015625)"/>
       </defs>
       <use xlink:href="#DejaVuSans-36"/>
       <use xlink:href="#DejaVuSans-30" x="63.623047"/>
      </g>
     </g>
    </g>
    <g id="xtick_8">
     <g id="line2d_8">
      <g>
       <use xlink:href="#mdd0c4521fa" x="670.484802" y="181.24" style="stroke: #000000; stroke-width: 0.8"/>
      </g>
     </g>
     <g id="text_8">
      <!-- 70 -->
      <g transform="translate(664.122302 195.838437) scale(0.1 -0.1)">
       <defs>
        <path id="DejaVuSans-37" d="M 525 4666 
L 3525 4666 
L 3525 4397 
L 1831 0 
L 1172 0 
L 2766 4134 
L 525 4134 
L 525 4666 
z
" transform="scale(0.015625)"/>
       </defs>
       <use xlink:href="#DejaVuSans-37"/>
       <use xlink:href="#DejaVuSans-30" x="63.623047"/>
      </g>
     </g>
    </g>
    <g id="text_9">
     <!-- Esantioane -->
     <g transform="translate(349.215156 209.516563) scale(0.1 -0.1)">
      <defs>
       <path id="DejaVuSans-45" d="M 628 4666 
L 3578 4666 
L 3578 4134 
L 1259 4134 
L 1259 2753 
L 3481 2753 
L 3481 2222 
L 1259 2222 
L 1259 531 
L 3634 531 
L 3634 0 
L 628 0 
L 628 4666 
z
" transform="scale(0.015625)"/>
       <path id="DejaVuSans-73" d="M 2834 3397 
L 2834 2853 
Q 2591 2978 2328 3040 
Q 2066 3103 1784 3103 
Q 1356 3103 1142 2972 
Q 928 2841 928 2578 
Q 928 2378 1081 2264 
Q 1234 2150 1697 2047 
L 1894 2003 
Q 2506 1872 2764 1633 
Q 3022 1394 3022 966 
Q 3022 478 2636 193 
Q 2250 -91 1575 -91 
Q 1294 -91 989 -36 
Q 684 19 347 128 
L 347 722 
Q 666 556 975 473 
Q 1284 391 1588 391 
Q 1994 391 2212 530 
Q 2431 669 2431 922 
Q 2431 1156 2273 1281 
Q 2116 1406 1581 1522 
L 1381 1569 
Q 847 1681 609 1914 
Q 372 2147 372 2553 
Q 372 3047 722 3315 
Q 1072 3584 1716 3584 
Q 2034 3584 2315 3537 
Q 2597 3491 2834 3397 
z
" transform="scale(0.015625)"/>
       <path id="DejaVuSans-61" d="M 2194 1759 
Q 1497 1759 1228 1600 
Q 959 1441 959 1056 
Q 959 750 1161 570 
Q 1363 391 1709 391 
Q 2188 391 2477 730 
Q 2766 1069 2766 1631 
L 2766 1759 
L 2194 1759 
z
M 3341 1997 
L 3341 0 
L 2766 0 
L 2766 531 
Q 2569 213 2275 61 
Q 1981 -91 1556 -91 
Q 1019 -91 701 211 
Q 384 513 384 1019 
Q 384 1609 779 1909 
Q 1175 2209 1959 2209 
L 2766 2209 
L 2766 2266 
Q 2766 2663 2505 2880 
Q 2244 3097 1772 3097 
Q 1472 3097 1187 3025 
Q 903 2953 641 2809 
L 641 3341 
Q 956 3463 1253 3523 
Q 1550 3584 1831 3584 
Q 2591 3584 2966 3190 
Q 3341 2797 3341 1997 
z
" transform="scale(0.015625)"/>
       <path id="DejaVuSans-6e" d="M 3513 2113 
L 3513 0 
L 2938 0 
L 2938 2094 
Q 2938 2591 2744 2837 
Q 2550 3084 2163 3084 
Q 1697 3084 1428 2787 
Q 1159 2491 1159 1978 
L 1159 0 
L 581 0 
L 581 3500 
L 1159 3500 
L 1159 2956 
Q 1366 3272 1645 3428 
Q 1925 3584 2291 3584 
Q 2894 3584 3203 3211 
Q 3513 2838 3513 2113 
z
" transform="scale(0.015625)"/>
       <path id="DejaVuSans-74" d="M 1172 4494 
L 1172 3500 
L 2356 3500 
L 2356 3053 
L 1172 3053 
L 1172 1153 
Q 1172 725 1289 603 
Q 1406 481 1766 481 
L 2356 481 
L 2356 0 
L 1766 0 
Q 1100 0 847 248 
Q 594 497 594 1153 
L 594 3053 
L 172 3053 
L 172 3500 
L 594 3500 
L 594 4494 
L 1172 4494 
z
" transform="scale(0.015625)"/>
       <path id="DejaVuSans-69" d="M 603 3500 
L 1178 3500 
L 1178 0 
L 603 0 
L 603 3500 
z
M 603 4863 
L 1178 4863 
L 1178 4134 
L 603 4134 
L 603 4863 
z
" transform="scale(0.015625)"/>
       <path id="DejaVuSans-6f" d="M 1959 3097 
Q 1497 3097 1228 2736 
Q 959 2375 959 1747 
Q 959 1119 1226 758 
Q 1494 397 1959 397 
Q 2419 397 2687 759 
Q 2956 1122 2956 1747 
Q 2956 2369 2687 2733 
Q 2419 3097 1959 3097 
z
M 1959 3584 
Q 2709 3584 3137 3096 
Q 3566 2609 3566 1747 
Q 3566 888 3137 398 
Q 2709 -91 1959 -91 
Q 1206 -91 779 398 
Q 353 888 353 1747 
Q 353 2609 779 3096 
Q 1206 3584 1959 3584 
z
" transform="scale(0.015625)"/>
       <path id="DejaVuSans-65" d="M 3597 1894 
L 3597 1613 
L 953 1613 
Q 991 1019 1311 708 
Q 1631 397 2203 397 
Q 2534 397 2845 478 
Q 3156 559 3463 722 
L 3463 178 
Q 3153 47 2828 -22 
Q 2503 -91 2169 -91 
Q 1331 -91 842 396 
Q 353 884 353 1716 
Q 353 2575 817 3079 
Q 1281 3584 2069 3584 
Q 2775 3584 3186 3129 
Q 3597 2675 3597 1894 
z
M 3022 2063 
Q 3016 2534 2758 2815 
Q 2500 3097 2075 3097 
Q 1594 3097 1305 2825 
Q 1016 2553 972 2059 
L 3022 2063 
z
" transform="scale(0.015625)"/>
      </defs>
      <use xlink:href="#DejaVuSans-45"/>
      <use xlink:href="#DejaVuSans-73" x="63.183594"/>
      <use xlink:href="#DejaVuSans-61" x="115.283203"/>
      <use xlink:href="#DejaVuSans-6e" x="176.5625"/>
      <use xlink:href="#DejaVuSans-74" x="239.941406"/>
      <use xlink:href="#DejaVuSans-69" x="279.150391"/>
      <use xlink:href="#DejaVuSans-6f" x="306.933594"/>
      <use xlink:href="#DejaVuSans-61" x="368.115234"/>
      <use xlink:href="#DejaVuSans-6e" x="429.394531"/>
      <use xlink:href="#DejaVuSans-65" x="492.773438"/>
     </g>
    </g>
   </g>
   <g id="matplotlib.axis_2">
    <g id="ytick_1">
     <g id="line2d_9">
      <defs>
       <path id="m875c3bc266" d="M 0 0 
L -3.5 0 
" style="stroke: #000000; stroke-width: 0.8"/>
      </defs>
      <g>
       <use xlink:href="#m875c3bc266" x="44.66" y="142.683434" style="stroke: #000000; stroke-width: 0.8"/>
      </g>
     </g>
     <g id="text_10">
      <!-- 10 -->
      <g transform="translate(24.935 146.482653) scale(0.1 -0.1)">
       <use xlink:href="#DejaVuSans-31"/>
       <use xlink:href="#DejaVuSans-30" x="63.623047"/>
      </g>
     </g>
    </g>
    <g id="ytick_2">
     <g id="line2d_10">
      <g>
       <use xlink:href="#m875c3bc266" x="44.66" y="103.34" style="stroke: #000000; stroke-width: 0.8"/>
      </g>
     </g>
     <g id="text_11">
      <!-- 20 -->
      <g transform="translate(24.935 107.139219) scale(0.1 -0.1)">
       <use xlink:href="#DejaVuSans-32"/>
       <use xlink:href="#DejaVuSans-30" x="63.623047"/>
      </g>
     </g>
    </g>
    <g id="ytick_3">
     <g id="line2d_11">
      <g>
       <use xlink:href="#m875c3bc266" x="44.66" y="63.996566" style="stroke: #000000; stroke-width: 0.8"/>
      </g>
     </g>
     <g id="text_12">
      <!-- 30 -->
      <g transform="translate(24.935 67.795784) scale(0.1 -0.1)">
       <use xlink:href="#DejaVuSans-33"/>
       <use xlink:href="#DejaVuSans-30" x="63.623047"/>
      </g>
     </g>
    </g>
    <g id="text_13">
     <!-- Nr masini -->
     <g transform="translate(18.855313 127.211094) rotate(-90) scale(0.1 -0.1)">
      <defs>
       <path id="DejaVuSans-4e" d="M 628 4666 
L 1478 4666 
L 3547 763 
L 3547 4666 
L 4159 4666 
L 4159 0 
L 3309 0 
L 1241 3903 
L 1241 0 
L 628 0 
L 628 4666 
z
" transform="scale(0.015625)"/>
       <path id="DejaVuSans-72" d="M 2631 2963 
Q 2534 3019 2420 3045 
Q 2306 3072 2169 3072 
Q 1681 3072 1420 2755 
Q 1159 2438 1159 1844 
L 1159 0 
L 581 0 
L 581 3500 
L 1159 3500 
L 1159 2956 
Q 1341 3275 1631 3429 
Q 1922 3584 2338 3584 
Q 2397 3584 2469 3576 
Q 2541 3569 2628 3553 
L 2631 2963 
z
" transform="scale(0.015625)"/>
       <path id="DejaVuSans-20" transform="scale(0.015625)"/>
       <path id="DejaVuSans-6d" d="M 3328 2828 
Q 3544 3216 3844 3400 
Q 4144 3584 4550 3584 
Q 5097 3584 5394 3201 
Q 5691 2819 5691 2113 
L 5691 0 
L 5113 0 
L 5113 2094 
Q 5113 2597 4934 2840 
Q 4756 3084 4391 3084 
Q 3944 3084 3684 2787 
Q 3425 2491 3425 1978 
L 3425 0 
L 2847 0 
L 2847 2094 
Q 2847 2600 2669 2842 
Q 2491 3084 2119 3084 
Q 1678 3084 1418 2786 
Q 1159 2488 1159 1978 
L 1159 0 
L 581 0 
L 581 3500 
L 1159 3500 
L 1159 2956 
Q 1356 3278 1631 3431 
Q 1906 3584 2284 3584 
Q 2666 3584 2933 3390 
Q 3200 3197 3328 2828 
z
" transform="scale(0.015625)"/>
      </defs>
      <use xlink:href="#DejaVuSans-4e"/>
      <use xlink:href="#DejaVuSans-72" x="74.804688"/>
      <use xlink:href="#DejaVuSans-20" x="115.917969"/>
      <use xlink:href="#DejaVuSans-6d" x="147.705078"/>
      <use xlink:href="#DejaVuSans-61" x="245.117188"/>
      <use xlink:href="#DejaVuSans-73" x="306.396484"/>
      <use xlink:href="#DejaVuSans-69" x="358.496094"/>
      <use xlink:href="#DejaVuSans-6e" x="386.279297"/>
      <use xlink:href="#DejaVuSans-69" x="449.658203"/>
     </g>
    </g>
   </g>
   <g id="line2d_12">
    <path d="M 74.866364 142.683434 
L 83.375198 134.814747 
L 91.884033 111.208687 
L 100.392868 103.34 
L 108.901703 95.471313 
L 117.410538 79.733939 
L 125.919373 134.814747 
L 134.428207 103.34 
L 142.937042 103.34 
L 151.445877 87.602626 
L 159.954712 134.814747 
L 168.463547 95.471313 
L 176.972382 126.946061 
L 185.481216 142.683434 
L 193.990051 111.208687 
L 202.498886 166.289495 
L 211.007721 111.208687 
L 219.516556 134.814747 
L 228.025391 158.420808 
L 236.534225 166.289495 
L 245.04306 150.552121 
L 253.551895 150.552121 
L 262.06073 134.814747 
L 270.569565 166.289495 
L 279.078399 150.552121 
L 287.587234 150.552121 
L 296.096069 119.077374 
L 304.604904 126.946061 
L 313.113739 119.077374 
L 321.622574 111.208687 
L 330.131408 79.733939 
L 338.640243 103.34 
L 347.149078 103.34 
L 355.657913 119.077374 
L 364.166748 111.208687 
L 372.675583 142.683434 
L 381.184417 87.602626 
L 389.693252 134.814747 
L 398.202087 111.208687 
L 406.710922 150.552121 
L 415.219757 150.552121 
L 423.728592 158.420808 
L 432.237426 166.289495 
L 440.746261 158.420808 
L 449.255096 126.946061 
L 457.763931 142.683434 
L 466.272766 103.34 
L 474.781601 126.946061 
L 483.290435 111.208687 
L 491.79927 103.34 
L 500.308105 126.946061 
L 508.81694 111.208687 
L 517.325775 111.208687 
L 525.834609 150.552121 
L 534.343444 95.471313 
L 542.852279 63.996566 
L 551.361114 95.471313 
L 559.869949 111.208687 
L 568.378784 134.814747 
L 576.887618 32.521818 
L 585.396453 119.077374 
L 593.905288 103.34 
L 602.414123 103.34 
L 610.922958 126.946061 
L 619.431793 150.552121 
L 627.940627 166.289495 
L 636.449462 174.158182 
L 644.958297 150.552121 
L 653.467132 166.289495 
L 661.975967 126.946061 
L 670.484802 142.683434 
L 678.993636 103.34 
" clip-path="url(#pf35e3db4c5)" style="fill: none; stroke: #1f77b4; stroke-opacity: 0.5; stroke-width: 1.5; stroke-linecap: square"/>
   </g>
   <g id="line2d_13">
    <path d="M 74.866364 142.681722 
L 83.375198 129.581244 
L 91.884033 114.149719 
L 100.392868 99.957966 
L 108.901703 94.55858 
L 117.410538 100.173473 
L 125.919373 108.448605 
L 134.428207 109.641368 
L 142.937042 105.003874 
L 151.445877 103.038693 
L 159.954712 107.26562 
L 168.463547 115.163831 
L 176.972382 124.047805 
L 185.481216 131.61476 
L 193.990051 134.817832 
L 202.498886 133.16058 
L 211.007721 132.320017 
L 219.516556 139.344659 
L 228.025391 151.908212 
L 236.534225 158.949356 
L 245.04306 155.302905 
L 253.551895 148.64272 
L 262.06073 148.354468 
L 270.569565 152.87084 
L 279.078399 152.795983 
L 287.587234 144.200799 
L 296.096069 132.676377 
L 304.604904 123.538375 
L 313.113739 114.816839 
L 321.622574 103.889074 
L 330.131408 95.236893 
L 338.640243 95.615826 
L 347.149078 104.902107 
L 355.657913 116.021897 
L 364.166748 121.546206 
L 372.675583 119.401674 
L 381.184417 114.758308 
L 389.693252 115.601616 
L 398.202087 125.167777 
L 406.710922 139.93875 
L 415.219757 153.933652 
L 423.728592 162.36297 
L 432.237426 162.241624 
L 440.746261 153.41556 
L 449.255096 139.888013 
L 457.763931 127.504718 
L 466.272766 119.495175 
L 474.781601 115.072012 
L 483.290435 112.234766 
L 491.79927 111.151125 
L 500.308105 114.014413 
L 508.81694 121.00935 
L 517.325775 125.660952 
L 525.834609 118.145593 
L 534.343444 99.881417 
L 542.852279 87.903125 
L 551.361114 93.004213 
L 559.869949 102.894834 
L 568.378784 101.220591 
L 576.887618 91.944003 
L 585.396453 89.552705 
L 593.905288 97.648987 
L 602.414123 111.572552 
L 610.922958 129.484975 
L 619.431793 149.291375 
L 627.940627 164.070725 
L 636.449462 168.149689 
L 644.958297 163.153179 
L 653.467132 154.298396 
L 661.975967 142.952807 
L 670.484802 126.090593 
L 678.993636 103.3157 
" clip-path="url(#pf35e3db4c5)" style="fill: none; stroke: #ff7f0e; stroke-width: 1.5; stroke-linecap: square"/>
   </g>
   <g id="line2d_14">
    <path d="M 74.866364 142.669926 
L 83.375198 129.76744 
L 91.884033 114.283067 
L 100.392868 100.061004 
L 108.901703 94.451433 
L 117.410538 99.325115 
L 125.919373 107.761338 
L 134.428207 110.953625 
L 142.937042 107.124008 
L 151.445877 102.485126 
L 159.954712 104.29702 
L 168.463547 114.00882 
L 176.972382 126.379144 
L 185.481216 134.120904 
L 193.990051 134.13278 
L 202.498886 130.630583 
L 211.007721 131.669537 
L 219.516556 140.883278 
L 228.025391 152.80865 
L 236.534225 158.302542 
L 245.04306 154.839262 
L 253.551895 149.159461 
L 262.06073 148.586852 
L 270.569565 152.054236 
L 279.078399 152.21209 
L 287.587234 145.009352 
L 296.096069 133.705759 
L 304.604904 123.154958 
L 313.113739 113.836591 
L 321.622574 104.087674 
L 330.131408 96.033914 
L 338.640243 95.292672 
L 347.149078 103.889642 
L 355.657913 115.943943 
L 364.166748 122.502375 
L 372.675583 120.34075 
L 381.184417 114.890905 
L 389.693252 114.685825 
L 398.202087 123.841296 
L 406.710922 139.564 
L 415.219757 155.064767 
L 423.728592 163.799346 
L 432.237426 162.412408 
L 440.746261 152.236359 
L 449.255096 138.704211 
L 457.763931 127.682424 
L 466.272766 120.974699 
L 474.781601 116.044264 
L 483.290435 111.098216 
L 491.79927 109.111752 
L 500.308105 114.117604 
L 508.81694 123.309223 
L 517.325775 126.458212 
L 525.834609 116.521214 
L 534.343444 99.426768 
L 542.852279 89.15113 
L 551.361114 92.24545 
L 559.869949 100.767311 
L 568.378784 102.530126 
L 576.887618 95.513868 
L 585.396453 89.24414 
L 593.905288 93.717626 
L 602.414123 110.202384 
L 610.922958 132.121506 
L 619.431793 151.407376 
L 627.940627 163.11021 
L 636.449462 166.407031 
L 644.958297 163.207379 
L 653.467132 155.451682 
L 661.975967 143.121613 
L 670.484802 125.307969 
L 678.993636 103.28052 
" clip-path="url(#pf35e3db4c5)" style="fill: none; stroke: #2ca02c; stroke-width: 1.5; stroke-linecap: square"/>
   </g>
   <g id="line2d_15">
    <path d="M 74.866364 142.686483 
L 83.375198 129.723069 
L 91.884033 114.389786 
L 100.392868 100.269321 
L 108.901703 94.387576 
L 117.410538 98.930208 
L 125.919373 107.576672 
L 134.428207 111.363662 
L 142.937042 107.629732 
L 151.445877 102.31794 
L 159.954712 103.616379 
L 168.463547 113.77878 
L 176.972382 126.952496 
L 185.481216 134.677341 
L 193.990051 133.891338 
L 202.498886 129.991735 
L 211.007721 131.556031 
L 219.516556 141.3654 
L 228.025391 153.118857 
L 236.534225 158.06378 
L 245.04306 154.525563 
L 253.551895 149.226671 
L 262.06073 148.808653 
L 270.569565 152.035373 
L 279.078399 152.057656 
L 287.587234 145.047682 
L 296.096069 133.868652 
L 304.604904 123.116646 
L 313.113739 113.61812 
L 321.622574 104.052463 
L 330.131408 96.282346 
L 338.640243 95.468531 
L 347.149078 103.711295 
L 355.657913 115.633276 
L 364.166748 122.485785 
L 372.675583 120.666982 
L 381.184417 115.153055 
L 389.693252 114.534155 
L 398.202087 123.43884 
L 406.710922 139.411483 
L 415.219757 155.378485 
L 423.728592 164.205523 
L 432.237426 162.389605 
L 440.746261 151.794527 
L 449.255096 138.408479 
L 457.763931 127.923247 
L 466.272766 121.426761 
L 474.781601 116.096976 
L 483.290435 110.712273 
L 491.79927 108.862647 
L 500.308105 114.322361 
L 508.81694 123.573214 
L 517.325775 126.372785 
L 525.834609 116.339788 
L 534.343444 99.542414 
L 542.852279 89.319779 
L 551.361114 92.033331 
L 559.869949 100.459659 
L 568.378784 102.733781 
L 576.887618 96.018676 
L 585.396453 89.235869 
L 593.905288 93.139364 
L 602.414123 109.926605 
L 610.922958 132.559371 
L 619.431793 151.867673 
L 627.940627 162.937545 
L 636.449462 165.965241 
L 644.958297 163.173077 
L 653.467132 155.739259 
L 661.975967 143.189595 
L 670.484802 125.139796 
L 678.993636 103.307259 
" clip-path="url(#pf35e3db4c5)" style="fill: none; stroke: #d62728; stroke-width: 1.5; stroke-linecap: square"/>
   </g>
   <g id="patch_3">
    <path d="M 44.66 181.24 
L 44.66 25.44 
" style="fill: none; stroke: #000000; stroke-width: 0.8; stroke-linejoin: miter; stroke-linecap: square"/>
   </g>
   <g id="patch_4">
    <path d="M 709.2 181.24 
L 709.2 25.44 
" style="fill: none; stroke: #000000; stroke-width: 0.8; stroke-linejoin: miter; stroke-linecap: square"/>
   </g>
   <g id="patch_5">
    <path d="M 44.66 181.24 
L 709.2 181.24 
" style="fill: none; stroke: #000000; stroke-width: 0.8; stroke-linejoin: miter; stroke-linecap: square"/>
   </g>
   <g id="patch_6">
    <path d="M 44.66 25.44 
L 709.2 25.44 
" style="fill: none; stroke: #000000; stroke-width: 0.8; stroke-linejoin: miter; stroke-linecap: square"/>
   </g>
   <g id="text_14">
    <!-- Butterworth comparison for different orders -->
    <g transform="translate(245.341563 19.44) scale(0.12 -0.12)">
     <defs>
      <path id="DejaVuSans-42" d="M 1259 2228 
L 1259 519 
L 2272 519 
Q 2781 519 3026 730 
Q 3272 941 3272 1375 
Q 3272 1813 3026 2020 
Q 2781 2228 2272 2228 
L 1259 2228 
z
M 1259 4147 
L 1259 2741 
L 2194 2741 
Q 2656 2741 2882 2914 
Q 3109 3088 3109 3444 
Q 3109 3797 2882 3972 
Q 2656 4147 2194 4147 
L 1259 4147 
z
M 628 4666 
L 2241 4666 
Q 2963 4666 3353 4366 
Q 3744 4066 3744 3513 
Q 3744 3084 3544 2831 
Q 3344 2578 2956 2516 
Q 3422 2416 3680 2098 
Q 3938 1781 3938 1306 
Q 3938 681 3513 340 
Q 3088 0 2303 0 
L 628 0 
L 628 4666 
z
" transform="scale(0.015625)"/>
      <path id="DejaVuSans-75" d="M 544 1381 
L 544 3500 
L 1119 3500 
L 1119 1403 
Q 1119 906 1312 657 
Q 1506 409 1894 409 
Q 2359 409 2629 706 
Q 2900 1003 2900 1516 
L 2900 3500 
L 3475 3500 
L 3475 0 
L 2900 0 
L 2900 538 
Q 2691 219 2414 64 
Q 2138 -91 1772 -91 
Q 1169 -91 856 284 
Q 544 659 544 1381 
z
M 1991 3584 
L 1991 3584 
z
" transform="scale(0.015625)"/>
      <path id="DejaVuSans-77" d="M 269 3500 
L 844 3500 
L 1563 769 
L 2278 3500 
L 2956 3500 
L 3675 769 
L 4391 3500 
L 4966 3500 
L 4050 0 
L 3372 0 
L 2619 2869 
L 1863 0 
L 1184 0 
L 269 3500 
z
" transform="scale(0.015625)"/>
      <path id="DejaVuSans-68" d="M 3513 2113 
L 3513 0 
L 2938 0 
L 2938 2094 
Q 2938 2591 2744 2837 
Q 2550 3084 2163 3084 
Q 1697 3084 1428 2787 
Q 1159 2491 1159 1978 
L 1159 0 
L 581 0 
L 581 4863 
L 1159 4863 
L 1159 2956 
Q 1366 3272 1645 3428 
Q 1925 3584 2291 3584 
Q 2894 3584 3203 3211 
Q 3513 2838 3513 2113 
z
" transform="scale(0.015625)"/>
      <path id="DejaVuSans-63" d="M 3122 3366 
L 3122 2828 
Q 2878 2963 2633 3030 
Q 2388 3097 2138 3097 
Q 1578 3097 1268 2742 
Q 959 2388 959 1747 
Q 959 1106 1268 751 
Q 1578 397 2138 397 
Q 2388 397 2633 464 
Q 2878 531 3122 666 
L 3122 134 
Q 2881 22 2623 -34 
Q 2366 -91 2075 -91 
Q 1284 -91 818 406 
Q 353 903 353 1747 
Q 353 2603 823 3093 
Q 1294 3584 2113 3584 
Q 2378 3584 2631 3529 
Q 2884 3475 3122 3366 
z
" transform="scale(0.015625)"/>
      <path id="DejaVuSans-70" d="M 1159 525 
L 1159 -1331 
L 581 -1331 
L 581 3500 
L 1159 3500 
L 1159 2969 
Q 1341 3281 1617 3432 
Q 1894 3584 2278 3584 
Q 2916 3584 3314 3078 
Q 3713 2572 3713 1747 
Q 3713 922 3314 415 
Q 2916 -91 2278 -91 
Q 1894 -91 1617 61 
Q 1341 213 1159 525 
z
M 3116 1747 
Q 3116 2381 2855 2742 
Q 2594 3103 2138 3103 
Q 1681 3103 1420 2742 
Q 1159 2381 1159 1747 
Q 1159 1113 1420 752 
Q 1681 391 2138 391 
Q 2594 391 2855 752 
Q 3116 1113 3116 1747 
z
" transform="scale(0.015625)"/>
      <path id="DejaVuSans-66" d="M 2375 4863 
L 2375 4384 
L 1825 4384 
Q 1516 4384 1395 4259 
Q 1275 4134 1275 3809 
L 1275 3500 
L 2222 3500 
L 2222 3053 
L 1275 3053 
L 1275 0 
L 697 0 
L 697 3053 
L 147 3053 
L 147 3500 
L 697 3500 
L 697 3744 
Q 697 4328 969 4595 
Q 1241 4863 1831 4863 
L 2375 4863 
z
" transform="scale(0.015625)"/>
      <path id="DejaVuSans-64" d="M 2906 2969 
L 2906 4863 
L 3481 4863 
L 3481 0 
L 2906 0 
L 2906 525 
Q 2725 213 2448 61 
Q 2172 -91 1784 -91 
Q 1150 -91 751 415 
Q 353 922 353 1747 
Q 353 2572 751 3078 
Q 1150 3584 1784 3584 
Q 2172 3584 2448 3432 
Q 2725 3281 2906 2969 
z
M 947 1747 
Q 947 1113 1208 752 
Q 1469 391 1925 391 
Q 2381 391 2643 752 
Q 2906 1113 2906 1747 
Q 2906 2381 2643 2742 
Q 2381 3103 1925 3103 
Q 1469 3103 1208 2742 
Q 947 2381 947 1747 
z
" transform="scale(0.015625)"/>
     </defs>
     <use xlink:href="#DejaVuSans-42"/>
     <use xlink:href="#DejaVuSans-75" x="68.603516"/>
     <use xlink:href="#DejaVuSans-74" x="131.982422"/>
     <use xlink:href="#DejaVuSans-74" x="171.191406"/>
     <use xlink:href="#DejaVuSans-65" x="210.400391"/>
     <use xlink:href="#DejaVuSans-72" x="271.923828"/>
     <use xlink:href="#DejaVuSans-77" x="313.037109"/>
     <use xlink:href="#DejaVuSans-6f" x="394.824219"/>
     <use xlink:href="#DejaVuSans-72" x="456.005859"/>
     <use xlink:href="#DejaVuSans-74" x="497.119141"/>
     <use xlink:href="#DejaVuSans-68" x="536.328125"/>
     <use xlink:href="#DejaVuSans-20" x="599.707031"/>
     <use xlink:href="#DejaVuSans-63" x="631.494141"/>
     <use xlink:href="#DejaVuSans-6f" x="686.474609"/>
     <use xlink:href="#DejaVuSans-6d" x="747.65625"/>
     <use xlink:href="#DejaVuSans-70" x="845.068359"/>
     <use xlink:href="#DejaVuSans-61" x="908.544922"/>
     <use xlink:href="#DejaVuSans-72" x="969.824219"/>
     <use xlink:href="#DejaVuSans-69" x="1010.9375"/>
     <use xlink:href="#DejaVuSans-73" x="1038.720703"/>
     <use xlink:href="#DejaVuSans-6f" x="1090.820312"/>
     <use xlink:href="#DejaVuSans-6e" x="1152.001953"/>
     <use xlink:href="#DejaVuSans-20" x="1215.380859"/>
     <use xlink:href="#DejaVuSans-66" x="1247.167969"/>
     <use xlink:href="#DejaVuSans-6f" x="1282.373047"/>
     <use xlink:href="#DejaVuSans-72" x="1343.554688"/>
     <use xlink:href="#DejaVuSans-20" x="1384.667969"/>
     <use xlink:href="#DejaVuSans-64" x="1416.455078"/>
     <use xlink:href="#DejaVuSans-69" x="1479.931641"/>
     <use xlink:href="#DejaVuSans-66" x="1507.714844"/>
     <use xlink:href="#DejaVuSans-66" x="1542.919922"/>
     <use xlink:href="#DejaVuSans-65" x="1578.125"/>
     <use xlink:href="#DejaVuSans-72" x="1639.648438"/>
     <use xlink:href="#DejaVuSans-65" x="1678.511719"/>
     <use xlink:href="#DejaVuSans-6e" x="1740.035156"/>
     <use xlink:href="#DejaVuSans-74" x="1803.414062"/>
     <use xlink:href="#DejaVuSans-20" x="1842.623047"/>
     <use xlink:href="#DejaVuSans-6f" x="1874.410156"/>
     <use xlink:href="#DejaVuSans-72" x="1935.591797"/>
     <use xlink:href="#DejaVuSans-64" x="1974.955078"/>
     <use xlink:href="#DejaVuSans-65" x="2038.431641"/>
     <use xlink:href="#DejaVuSans-72" x="2099.955078"/>
     <use xlink:href="#DejaVuSans-73" x="2141.068359"/>
    </g>
   </g>
   <g id="legend_1">
    <g id="patch_7">
     <path d="M 598.098437 92.1525 
L 702.2 92.1525 
Q 704.2 92.1525 704.2 90.1525 
L 704.2 32.44 
Q 704.2 30.44 702.2 30.44 
L 598.098437 30.44 
Q 596.098437 30.44 596.098437 32.44 
L 596.098437 90.1525 
Q 596.098437 92.1525 598.098437 92.1525 
z
" style="fill: #ffffff; opacity: 0.8; stroke: #cccccc; stroke-linejoin: miter"/>
    </g>
    <g id="line2d_16">
     <path d="M 600.098437 38.538437 
L 610.098437 38.538437 
L 620.098437 38.538437 
" style="fill: none; stroke: #1f77b4; stroke-opacity: 0.5; stroke-width: 1.5; stroke-linecap: square"/>
    </g>
    <g id="text_15">
     <!-- Original -->
     <g transform="translate(628.098437 42.038437) scale(0.1 -0.1)">
      <defs>
       <path id="DejaVuSans-4f" d="M 2522 4238 
Q 1834 4238 1429 3725 
Q 1025 3213 1025 2328 
Q 1025 1447 1429 934 
Q 1834 422 2522 422 
Q 3209 422 3611 934 
Q 4013 1447 4013 2328 
Q 4013 3213 3611 3725 
Q 3209 4238 2522 4238 
z
M 2522 4750 
Q 3503 4750 4090 4092 
Q 4678 3434 4678 2328 
Q 4678 1225 4090 567 
Q 3503 -91 2522 -91 
Q 1538 -91 948 565 
Q 359 1222 359 2328 
Q 359 3434 948 4092 
Q 1538 4750 2522 4750 
z
" transform="scale(0.015625)"/>
       <path id="DejaVuSans-67" d="M 2906 1791 
Q 2906 2416 2648 2759 
Q 2391 3103 1925 3103 
Q 1463 3103 1205 2759 
Q 947 2416 947 1791 
Q 947 1169 1205 825 
Q 1463 481 1925 481 
Q 2391 481 2648 825 
Q 2906 1169 2906 1791 
z
M 3481 434 
Q 3481 -459 3084 -895 
Q 2688 -1331 1869 -1331 
Q 1566 -1331 1297 -1286 
Q 1028 -1241 775 -1147 
L 775 -588 
Q 1028 -725 1275 -790 
Q 1522 -856 1778 -856 
Q 2344 -856 2625 -561 
Q 2906 -266 2906 331 
L 2906 616 
Q 2728 306 2450 153 
Q 2172 0 1784 0 
Q 1141 0 747 490 
Q 353 981 353 1791 
Q 353 2603 747 3093 
Q 1141 3584 1784 3584 
Q 2172 3584 2450 3431 
Q 2728 3278 2906 2969 
L 2906 3500 
L 3481 3500 
L 3481 434 
z
" transform="scale(0.015625)"/>
       <path id="DejaVuSans-6c" d="M 603 4863 
L 1178 4863 
L 1178 0 
L 603 0 
L 603 4863 
z
" transform="scale(0.015625)"/>
      </defs>
      <use xlink:href="#DejaVuSans-4f"/>
      <use xlink:href="#DejaVuSans-72" x="78.710938"/>
      <use xlink:href="#DejaVuSans-69" x="119.824219"/>
      <use xlink:href="#DejaVuSans-67" x="147.607422"/>
      <use xlink:href="#DejaVuSans-69" x="211.083984"/>
      <use xlink:href="#DejaVuSans-6e" x="238.867188"/>
      <use xlink:href="#DejaVuSans-61" x="302.246094"/>
      <use xlink:href="#DejaVuSans-6c" x="363.525391"/>
     </g>
    </g>
    <g id="line2d_17">
     <path d="M 600.098437 53.216563 
L 610.098437 53.216563 
L 620.098437 53.216563 
" style="fill: none; stroke: #ff7f0e; stroke-width: 1.5; stroke-linecap: square"/>
    </g>
    <g id="text_16">
     <!-- Filtrat ordin=3 -->
     <g transform="translate(628.098437 56.716563) scale(0.1 -0.1)">
      <defs>
       <path id="DejaVuSans-46" d="M 628 4666 
L 3309 4666 
L 3309 4134 
L 1259 4134 
L 1259 2759 
L 3109 2759 
L 3109 2228 
L 1259 2228 
L 1259 0 
L 628 0 
L 628 4666 
z
" transform="scale(0.015625)"/>
       <path id="DejaVuSans-3d" d="M 678 2906 
L 4684 2906 
L 4684 2381 
L 678 2381 
L 678 2906 
z
M 678 1631 
L 4684 1631 
L 4684 1100 
L 678 1100 
L 678 1631 
z
" transform="scale(0.015625)"/>
      </defs>
      <use xlink:href="#DejaVuSans-46"/>
      <use xlink:href="#DejaVuSans-69" x="50.269531"/>
      <use xlink:href="#DejaVuSans-6c" x="78.052734"/>
      <use xlink:href="#DejaVuSans-74" x="105.835938"/>
      <use xlink:href="#DejaVuSans-72" x="145.044922"/>
      <use xlink:href="#DejaVuSans-61" x="186.158203"/>
      <use xlink:href="#DejaVuSans-74" x="247.4375"/>
      <use xlink:href="#DejaVuSans-20" x="286.646484"/>
      <use xlink:href="#DejaVuSans-6f" x="318.433594"/>
      <use xlink:href="#DejaVuSans-72" x="379.615234"/>
      <use xlink:href="#DejaVuSans-64" x="418.978516"/>
      <use xlink:href="#DejaVuSans-69" x="482.455078"/>
      <use xlink:href="#DejaVuSans-6e" x="510.238281"/>
      <use xlink:href="#DejaVuSans-3d" x="573.617188"/>
      <use xlink:href="#DejaVuSans-33" x="657.40625"/>
     </g>
    </g>
    <g id="line2d_18">
     <path d="M 600.098437 67.894688 
L 610.098437 67.894688 
L 620.098437 67.894688 
" style="fill: none; stroke: #2ca02c; stroke-width: 1.5; stroke-linecap: square"/>
    </g>
    <g id="text_17">
     <!-- Filtrat ordin=7 -->
     <g transform="translate(628.098437 71.394688) scale(0.1 -0.1)">
      <use xlink:href="#DejaVuSans-46"/>
      <use xlink:href="#DejaVuSans-69" x="50.269531"/>
      <use xlink:href="#DejaVuSans-6c" x="78.052734"/>
      <use xlink:href="#DejaVuSans-74" x="105.835938"/>
      <use xlink:href="#DejaVuSans-72" x="145.044922"/>
      <use xlink:href="#DejaVuSans-61" x="186.158203"/>
      <use xlink:href="#DejaVuSans-74" x="247.4375"/>
      <use xlink:href="#DejaVuSans-20" x="286.646484"/>
      <use xlink:href="#DejaVuSans-6f" x="318.433594"/>
      <use xlink:href="#DejaVuSans-72" x="379.615234"/>
      <use xlink:href="#DejaVuSans-64" x="418.978516"/>
      <use xlink:href="#DejaVuSans-69" x="482.455078"/>
      <use xlink:href="#DejaVuSans-6e" x="510.238281"/>
      <use xlink:href="#DejaVuSans-3d" x="573.617188"/>
      <use xlink:href="#DejaVuSans-37" x="657.40625"/>
     </g>
    </g>
    <g id="line2d_19">
     <path d="M 600.098437 82.572812 
L 610.098437 82.572812 
L 620.098437 82.572812 
" style="fill: none; stroke: #d62728; stroke-width: 1.5; stroke-linecap: square"/>
    </g>
    <g id="text_18">
     <!-- Filtrat ordin=9 -->
     <g transform="translate(628.098437 86.072812) scale(0.1 -0.1)">
      <defs>
       <path id="DejaVuSans-39" d="M 703 97 
L 703 672 
Q 941 559 1184 500 
Q 1428 441 1663 441 
Q 2288 441 2617 861 
Q 2947 1281 2994 2138 
Q 2813 1869 2534 1725 
Q 2256 1581 1919 1581 
Q 1219 1581 811 2004 
Q 403 2428 403 3163 
Q 403 3881 828 4315 
Q 1253 4750 1959 4750 
Q 2769 4750 3195 4129 
Q 3622 3509 3622 2328 
Q 3622 1225 3098 567 
Q 2575 -91 1691 -91 
Q 1453 -91 1209 -44 
Q 966 3 703 97 
z
M 1959 2075 
Q 2384 2075 2632 2365 
Q 2881 2656 2881 3163 
Q 2881 3666 2632 3958 
Q 2384 4250 1959 4250 
Q 1534 4250 1286 3958 
Q 1038 3666 1038 3163 
Q 1038 2656 1286 2365 
Q 1534 2075 1959 2075 
z
" transform="scale(0.015625)"/>
      </defs>
      <use xlink:href="#DejaVuSans-46"/>
      <use xlink:href="#DejaVuSans-69" x="50.269531"/>
      <use xlink:href="#DejaVuSans-6c" x="78.052734"/>
      <use xlink:href="#DejaVuSans-74" x="105.835938"/>
      <use xlink:href="#DejaVuSans-72" x="145.044922"/>
      <use xlink:href="#DejaVuSans-61" x="186.158203"/>
      <use xlink:href="#DejaVuSans-74" x="247.4375"/>
      <use xlink:href="#DejaVuSans-20" x="286.646484"/>
      <use xlink:href="#DejaVuSans-6f" x="318.433594"/>
      <use xlink:href="#DejaVuSans-72" x="379.615234"/>
      <use xlink:href="#DejaVuSans-64" x="418.978516"/>
      <use xlink:href="#DejaVuSans-69" x="482.455078"/>
      <use xlink:href="#DejaVuSans-6e" x="510.238281"/>
      <use xlink:href="#DejaVuSans-3d" x="573.617188"/>
      <use xlink:href="#DejaVuSans-39" x="657.40625"/>
     </g>
    </g>
   </g>
  </g>
  <g id="axes_2">
   <g id="patch_8">
    <path d="M 44.66 393.64 
L 709.2 393.64 
L 709.2 237.84 
L 44.66 237.84 
z
" style="fill: #ffffff"/>
   </g>
   <g id="matplotlib.axis_3">
    <g id="xtick_9">
     <g id="line2d_20">
      <g>
       <use xlink:href="#mdd0c4521fa" x="74.866364" y="393.64" style="stroke: #000000; stroke-width: 0.8"/>
      </g>
     </g>
     <g id="text_19">
      <!-- 0 -->
      <g transform="translate(71.685114 408.238437) scale(0.1 -0.1)">
       <use xlink:href="#DejaVuSans-30"/>
      </g>
     </g>
    </g>
    <g id="xtick_10">
     <g id="line2d_21">
      <g>
       <use xlink:href="#mdd0c4521fa" x="159.954712" y="393.64" style="stroke: #000000; stroke-width: 0.8"/>
      </g>
     </g>
     <g id="text_20">
      <!-- 10 -->
      <g transform="translate(153.592212 408.238437) scale(0.1 -0.1)">
       <use xlink:href="#DejaVuSans-31"/>
       <use xlink:href="#DejaVuSans-30" x="63.623047"/>
      </g>
     </g>
    </g>
    <g id="xtick_11">
     <g id="line2d_22">
      <g>
       <use xlink:href="#mdd0c4521fa" x="245.04306" y="393.64" style="stroke: #000000; stroke-width: 0.8"/>
      </g>
     </g>
     <g id="text_21">
      <!-- 20 -->
      <g transform="translate(238.68056 408.238437) scale(0.1 -0.1)">
       <use xlink:href="#DejaVuSans-32"/>
       <use xlink:href="#DejaVuSans-30" x="63.623047"/>
      </g>
     </g>
    </g>
    <g id="xtick_12">
     <g id="line2d_23">
      <g>
       <use xlink:href="#mdd0c4521fa" x="330.131408" y="393.64" style="stroke: #000000; stroke-width: 0.8"/>
      </g>
     </g>
     <g id="text_22">
      <!-- 30 -->
      <g transform="translate(323.768908 408.238437) scale(0.1 -0.1)">
       <use xlink:href="#DejaVuSans-33"/>
       <use xlink:href="#DejaVuSans-30" x="63.623047"/>
      </g>
     </g>
    </g>
    <g id="xtick_13">
     <g id="line2d_24">
      <g>
       <use xlink:href="#mdd0c4521fa" x="415.219757" y="393.64" style="stroke: #000000; stroke-width: 0.8"/>
      </g>
     </g>
     <g id="text_23">
      <!-- 40 -->
      <g transform="translate(408.857257 408.238437) scale(0.1 -0.1)">
       <use xlink:href="#DejaVuSans-34"/>
       <use xlink:href="#DejaVuSans-30" x="63.623047"/>
      </g>
     </g>
    </g>
    <g id="xtick_14">
     <g id="line2d_25">
      <g>
       <use xlink:href="#mdd0c4521fa" x="500.308105" y="393.64" style="stroke: #000000; stroke-width: 0.8"/>
      </g>
     </g>
     <g id="text_24">
      <!-- 50 -->
      <g transform="translate(493.945605 408.238437) scale(0.1 -0.1)">
       <use xlink:href="#DejaVuSans-35"/>
       <use xlink:href="#DejaVuSans-30" x="63.623047"/>
      </g>
     </g>
    </g>
    <g id="xtick_15">
     <g id="line2d_26">
      <g>
       <use xlink:href="#mdd0c4521fa" x="585.396453" y="393.64" style="stroke: #000000; stroke-width: 0.8"/>
      </g>
     </g>
     <g id="text_25">
      <!-- 60 -->
      <g transform="translate(579.033953 408.238437) scale(0.1 -0.1)">
       <use xlink:href="#DejaVuSans-36"/>
       <use xlink:href="#DejaVuSans-30" x="63.623047"/>
      </g>
     </g>
    </g>
    <g id="xtick_16">
     <g id="line2d_27">
      <g>
       <use xlink:href="#mdd0c4521fa" x="670.484802" y="393.64" style="stroke: #000000; stroke-width: 0.8"/>
      </g>
     </g>
     <g id="text_26">
      <!-- 70 -->
      <g transform="translate(664.122302 408.238437) scale(0.1 -0.1)">
       <use xlink:href="#DejaVuSans-37"/>
       <use xlink:href="#DejaVuSans-30" x="63.623047"/>
      </g>
     </g>
    </g>
    <g id="text_27">
     <!-- Esantioane -->
     <g transform="translate(349.215156 421.916562) scale(0.1 -0.1)">
      <use xlink:href="#DejaVuSans-45"/>
      <use xlink:href="#DejaVuSans-73" x="63.183594"/>
      <use xlink:href="#DejaVuSans-61" x="115.283203"/>
      <use xlink:href="#DejaVuSans-6e" x="176.5625"/>
      <use xlink:href="#DejaVuSans-74" x="239.941406"/>
      <use xlink:href="#DejaVuSans-69" x="279.150391"/>
      <use xlink:href="#DejaVuSans-6f" x="306.933594"/>
      <use xlink:href="#DejaVuSans-61" x="368.115234"/>
      <use xlink:href="#DejaVuSans-6e" x="429.394531"/>
      <use xlink:href="#DejaVuSans-65" x="492.773438"/>
     </g>
    </g>
   </g>
   <g id="matplotlib.axis_4">
    <g id="ytick_4">
     <g id="line2d_28">
      <g>
       <use xlink:href="#m875c3bc266" x="44.66" y="355.083434" style="stroke: #000000; stroke-width: 0.8"/>
      </g>
     </g>
     <g id="text_28">
      <!-- 10 -->
      <g transform="translate(24.935 358.882653) scale(0.1 -0.1)">
       <use xlink:href="#DejaVuSans-31"/>
       <use xlink:href="#DejaVuSans-30" x="63.623047"/>
      </g>
     </g>
    </g>
    <g id="ytick_5">
     <g id="line2d_29">
      <g>
       <use xlink:href="#m875c3bc266" x="44.66" y="315.74" style="stroke: #000000; stroke-width: 0.8"/>
      </g>
     </g>
     <g id="text_29">
      <!-- 20 -->
      <g transform="translate(24.935 319.539219) scale(0.1 -0.1)">
       <use xlink:href="#DejaVuSans-32"/>
       <use xlink:href="#DejaVuSans-30" x="63.623047"/>
      </g>
     </g>
    </g>
    <g id="ytick_6">
     <g id="line2d_30">
      <g>
       <use xlink:href="#m875c3bc266" x="44.66" y="276.396566" style="stroke: #000000; stroke-width: 0.8"/>
      </g>
     </g>
     <g id="text_30">
      <!-- 30 -->
      <g transform="translate(24.935 280.195784) scale(0.1 -0.1)">
       <use xlink:href="#DejaVuSans-33"/>
       <use xlink:href="#DejaVuSans-30" x="63.623047"/>
      </g>
     </g>
    </g>
    <g id="text_31">
     <!-- Nr masini -->
     <g transform="translate(18.855313 339.611094) rotate(-90) scale(0.1 -0.1)">
      <use xlink:href="#DejaVuSans-4e"/>
      <use xlink:href="#DejaVuSans-72" x="74.804688"/>
      <use xlink:href="#DejaVuSans-20" x="115.917969"/>
      <use xlink:href="#DejaVuSans-6d" x="147.705078"/>
      <use xlink:href="#DejaVuSans-61" x="245.117188"/>
      <use xlink:href="#DejaVuSans-73" x="306.396484"/>
      <use xlink:href="#DejaVuSans-69" x="358.496094"/>
      <use xlink:href="#DejaVuSans-6e" x="386.279297"/>
      <use xlink:href="#DejaVuSans-69" x="449.658203"/>
     </g>
    </g>
   </g>
   <g id="line2d_31">
    <path d="M 74.866364 355.083434 
L 83.375198 347.214747 
L 91.884033 323.608687 
L 100.392868 315.74 
L 108.901703 307.871313 
L 117.410538 292.133939 
L 125.919373 347.214747 
L 134.428207 315.74 
L 142.937042 315.74 
L 151.445877 300.002626 
L 159.954712 347.214747 
L 168.463547 307.871313 
L 176.972382 339.346061 
L 185.481216 355.083434 
L 193.990051 323.608687 
L 202.498886 378.689495 
L 211.007721 323.608687 
L 219.516556 347.214747 
L 228.025391 370.820808 
L 236.534225 378.689495 
L 245.04306 362.952121 
L 253.551895 362.952121 
L 262.06073 347.214747 
L 270.569565 378.689495 
L 279.078399 362.952121 
L 287.587234 362.952121 
L 296.096069 331.477374 
L 304.604904 339.346061 
L 313.113739 331.477374 
L 321.622574 323.608687 
L 330.131408 292.133939 
L 338.640243 315.74 
L 347.149078 315.74 
L 355.657913 331.477374 
L 364.166748 323.608687 
L 372.675583 355.083434 
L 381.184417 300.002626 
L 389.693252 347.214747 
L 398.202087 323.608687 
L 406.710922 362.952121 
L 415.219757 362.952121 
L 423.728592 370.820808 
L 432.237426 378.689495 
L 440.746261 370.820808 
L 449.255096 339.346061 
L 457.763931 355.083434 
L 466.272766 315.74 
L 474.781601 339.346061 
L 483.290435 323.608687 
L 491.79927 315.74 
L 500.308105 339.346061 
L 508.81694 323.608687 
L 517.325775 323.608687 
L 525.834609 362.952121 
L 534.343444 307.871313 
L 542.852279 276.396566 
L 551.361114 307.871313 
L 559.869949 323.608687 
L 568.378784 347.214747 
L 576.887618 244.921818 
L 585.396453 331.477374 
L 593.905288 315.74 
L 602.414123 315.74 
L 610.922958 339.346061 
L 619.431793 362.952121 
L 627.940627 378.689495 
L 636.449462 386.558182 
L 644.958297 362.952121 
L 653.467132 378.689495 
L 661.975967 339.346061 
L 670.484802 355.083434 
L 678.993636 315.74 
" clip-path="url(#pf55a682bee)" style="fill: none; stroke: #1f77b4; stroke-opacity: 0.5; stroke-width: 1.5; stroke-linecap: square"/>
   </g>
   <g id="line2d_32">
    <path d="M 74.866364 354.637432 
L 83.375198 350.357234 
L 91.884033 341.611654 
L 100.392868 329.673354 
L 108.901703 321.693743 
L 117.410538 322.408884 
L 125.919373 328.275566 
L 134.428207 331.280762 
L 142.937042 327.867963 
L 151.445877 322.527018 
L 159.954712 322.51009 
L 168.463547 330.07985 
L 176.972382 340.252552 
L 185.481216 345.788818 
L 193.990051 344.387532 
L 202.498886 341.020068 
L 211.007721 342.782104 
L 219.516556 351.145626 
L 228.025391 359.940764 
L 236.534225 361.98562 
L 245.04306 357.220801 
L 253.551895 352.549441 
L 262.06073 353.341772 
L 270.569565 357.059367 
L 279.078399 356.811764 
L 287.587234 350.021629 
L 296.096069 341.165842 
L 304.604904 335.708736 
L 313.113739 333.692673 
L 321.622574 331.054758 
L 330.131408 326.049099 
L 338.640243 321.989859 
L 347.149078 323.139617 
L 355.657913 329.26912 
L 364.166748 335.428733 
L 372.675583 337.051924 
L 381.184417 334.678853 
L 389.693252 333.31918 
L 398.202087 337.387401 
L 406.710922 346.446869 
L 415.219757 355.511871 
L 423.728592 359.145475 
L 432.237426 355.752103 
L 440.746261 348.699136 
L 449.255096 343.250924 
L 457.763931 341.690077 
L 466.272766 341.261816 
L 474.781601 337.557245 
L 483.290435 330.222034 
L 491.79927 324.407389 
L 500.308105 325.291671 
L 508.81694 331.234684 
L 517.325775 334.07082 
L 525.834609 327.760067 
L 534.343444 316.115149 
L 542.852279 309.515102 
L 551.361114 313.176307 
L 559.869949 321.153995 
L 568.378784 323.828873 
L 576.887618 319.297961 
L 585.396453 314.772348 
L 593.905288 317.830627 
L 602.414123 328.800456 
L 610.922958 341.469184 
L 619.431793 349.344449 
L 627.940627 350.775307 
L 636.449462 348.875768 
L 644.958297 347.14083 
L 653.467132 345.364181 
L 661.975967 340.058426 
L 670.484802 328.916727 
L 678.993636 314.289513 
" clip-path="url(#pf55a682bee)" style="fill: none; stroke: #ff7f0e; stroke-width: 1.5; stroke-linecap: square"/>
   </g>
   <g id="line2d_33">
    <path d="M 74.866364 353.82869 
L 83.375198 348.893332 
L 91.884033 342.816475 
L 100.392868 336.142168 
L 108.901703 332.234585 
L 117.410538 333.652887 
L 125.919373 338.686743 
L 134.428207 342.341193 
L 142.937042 341.180391 
L 151.445877 336.875098 
L 159.954712 334.427677 
L 168.463547 336.858727 
L 176.972382 342.113873 
L 185.481216 345.494383 
L 193.990051 344.771419 
L 202.498886 342.301905 
L 211.007721 342.063258 
L 219.516556 345.25593 
L 228.025391 349.392184 
L 236.534225 351.445117 
L 245.04306 351.054659 
L 253.551895 350.237436 
L 262.06073 350.500244 
L 270.569565 351.091899 
L 279.078399 350.210197 
L 287.587234 347.202417 
L 296.096069 342.978943 
L 304.604904 338.607055 
L 313.113739 334.403883 
L 321.622574 330.748193 
L 330.131408 329.051697 
L 338.640243 330.857805 
L 347.149078 335.644096 
L 355.657913 340.132945 
L 364.166748 340.63878 
L 372.675583 336.505142 
L 381.184417 331.135315 
L 389.693252 329.377568 
L 398.202087 333.597132 
L 406.710922 341.892094 
L 415.219757 349.737309 
L 423.728592 353.343934 
L 432.237426 351.938303 
L 440.746261 347.461776 
L 449.255096 342.385646 
L 457.763931 337.712952 
L 466.272766 332.918973 
L 474.781601 327.752257 
L 483.290435 323.844879 
L 491.79927 323.935167 
L 500.308105 328.894246 
L 508.81694 335.594399 
L 517.325775 338.587372 
L 525.834609 334.814358 
L 534.343444 326.805405 
L 542.852279 320.621687 
L 551.361114 320.084811 
L 559.869949 323.116114 
L 568.378784 324.19099 
L 576.887618 320.48601 
L 585.396453 315.19623 
L 593.905288 314.418417 
L 602.414123 320.881452 
L 610.922958 331.126966 
L 619.431793 338.923616 
L 627.940627 341.057966 
L 636.449462 339.437257 
L 644.958297 337.784962 
L 653.467132 337.035846 
L 661.975967 334.506893 
L 670.484802 327.381473 
L 678.993636 316.324883 
" clip-path="url(#pf55a682bee)" style="fill: none; stroke: #2ca02c; stroke-width: 1.5; stroke-linecap: square"/>
   </g>
   <g id="line2d_34">
    <path d="M 74.866364 355.397625 
L 83.375198 349.102239 
L 91.884033 341.521174 
L 100.392868 334.351824 
L 108.901703 331.860872 
L 117.410538 335.899008 
L 125.919373 342.643364 
L 134.428207 345.575748 
L 142.937042 342.166565 
L 151.445877 336.932912 
L 159.954712 336.897332 
L 168.463547 343.82708 
L 176.972382 351.710849 
L 185.481216 352.686496 
L 193.990051 345.404192 
L 202.498886 336.816297 
L 211.007721 335.272003 
L 219.516556 342.179408 
L 228.025391 351.009723 
L 236.534225 354.380944 
L 245.04306 351.344718 
L 253.551895 347.278174 
L 262.06073 347.260017 
L 270.569565 350.706643 
L 279.078399 352.85833 
L 287.587234 350.570964 
L 296.096069 345.398942 
L 304.604904 340.885914 
L 313.113739 338.059385 
L 321.622574 334.846481 
L 330.131408 329.845868 
L 338.640243 325.342005 
L 347.149078 325.37058 
L 355.657913 330.808102 
L 364.166748 337.39553 
L 372.675583 339.554001 
L 381.184417 336.244565 
L 389.693252 332.495875 
L 398.202087 334.611592 
L 406.710922 343.739404 
L 415.219757 354.290797 
L 423.728592 358.801009 
L 432.237426 354.40338 
L 440.746261 344.718665 
L 449.255096 335.794139 
L 457.763931 330.621136 
L 466.272766 327.732475 
L 474.781601 324.695714 
L 483.290435 322.063295 
L 491.79927 323.077904 
L 500.308105 329.383389 
L 508.81694 337.750496 
L 517.325775 342.046798 
L 525.834609 338.94564 
L 534.343444 331.371397 
L 542.852279 325.635183 
L 551.361114 324.915 
L 559.869949 325.975275 
L 568.378784 322.876521 
L 576.887618 313.958967 
L 585.396453 304.649612 
L 593.905288 302.885042 
L 602.414123 311.717845 
L 610.922958 326.589016 
L 619.431793 339.715757 
L 627.940627 346.67302 
L 636.449462 348.516203 
L 644.958297 348.193824 
L 653.467132 346.159961 
L 661.975967 340.235283 
L 670.484802 329.271007 
L 678.993636 315.727343 
" clip-path="url(#pf55a682bee)" style="fill: none; stroke: #d62728; stroke-width: 1.5; stroke-linecap: square"/>
   </g>
   <g id="patch_9">
    <path d="M 44.66 393.64 
L 44.66 237.84 
" style="fill: none; stroke: #000000; stroke-width: 0.8; stroke-linejoin: miter; stroke-linecap: square"/>
   </g>
   <g id="patch_10">
    <path d="M 709.2 393.64 
L 709.2 237.84 
" style="fill: none; stroke: #000000; stroke-width: 0.8; stroke-linejoin: miter; stroke-linecap: square"/>
   </g>
   <g id="patch_11">
    <path d="M 44.66 393.64 
L 709.2 393.64 
" style="fill: none; stroke: #000000; stroke-width: 0.8; stroke-linejoin: miter; stroke-linecap: square"/>
   </g>
   <g id="patch_12">
    <path d="M 44.66 237.84 
L 709.2 237.84 
" style="fill: none; stroke: #000000; stroke-width: 0.8; stroke-linejoin: miter; stroke-linecap: square"/>
   </g>
   <g id="text_32">
    <!-- Chebyshev comparison for different orders -->
    <g transform="translate(248.107188 231.84) scale(0.12 -0.12)">
     <defs>
      <path id="DejaVuSans-43" d="M 4122 4306 
L 4122 3641 
Q 3803 3938 3442 4084 
Q 3081 4231 2675 4231 
Q 1875 4231 1450 3742 
Q 1025 3253 1025 2328 
Q 1025 1406 1450 917 
Q 1875 428 2675 428 
Q 3081 428 3442 575 
Q 3803 722 4122 1019 
L 4122 359 
Q 3791 134 3420 21 
Q 3050 -91 2638 -91 
Q 1578 -91 968 557 
Q 359 1206 359 2328 
Q 359 3453 968 4101 
Q 1578 4750 2638 4750 
Q 3056 4750 3426 4639 
Q 3797 4528 4122 4306 
z
" transform="scale(0.015625)"/>
      <path id="DejaVuSans-62" d="M 3116 1747 
Q 3116 2381 2855 2742 
Q 2594 3103 2138 3103 
Q 1681 3103 1420 2742 
Q 1159 2381 1159 1747 
Q 1159 1113 1420 752 
Q 1681 391 2138 391 
Q 2594 391 2855 752 
Q 3116 1113 3116 1747 
z
M 1159 2969 
Q 1341 3281 1617 3432 
Q 1894 3584 2278 3584 
Q 2916 3584 3314 3078 
Q 3713 2572 3713 1747 
Q 3713 922 3314 415 
Q 2916 -91 2278 -91 
Q 1894 -91 1617 61 
Q 1341 213 1159 525 
L 1159 0 
L 581 0 
L 581 4863 
L 1159 4863 
L 1159 2969 
z
" transform="scale(0.015625)"/>
      <path id="DejaVuSans-79" d="M 2059 -325 
Q 1816 -950 1584 -1140 
Q 1353 -1331 966 -1331 
L 506 -1331 
L 506 -850 
L 844 -850 
Q 1081 -850 1212 -737 
Q 1344 -625 1503 -206 
L 1606 56 
L 191 3500 
L 800 3500 
L 1894 763 
L 2988 3500 
L 3597 3500 
L 2059 -325 
z
" transform="scale(0.015625)"/>
      <path id="DejaVuSans-76" d="M 191 3500 
L 800 3500 
L 1894 563 
L 2988 3500 
L 3597 3500 
L 2284 0 
L 1503 0 
L 191 3500 
z
" transform="scale(0.015625)"/>
     </defs>
     <use xlink:href="#DejaVuSans-43"/>
     <use xlink:href="#DejaVuSans-68" x="69.824219"/>
     <use xlink:href="#DejaVuSans-65" x="133.203125"/>
     <use xlink:href="#DejaVuSans-62" x="194.726562"/>
     <use xlink:href="#DejaVuSans-79" x="258.203125"/>
     <use xlink:href="#DejaVuSans-73" x="317.382812"/>
     <use xlink:href="#DejaVuSans-68" x="369.482422"/>
     <use xlink:href="#DejaVuSans-65" x="432.861328"/>
     <use xlink:href="#DejaVuSans-76" x="494.384766"/>
     <use xlink:href="#DejaVuSans-20" x="553.564453"/>
     <use xlink:href="#DejaVuSans-63" x="585.351562"/>
     <use xlink:href="#DejaVuSans-6f" x="640.332031"/>
     <use xlink:href="#DejaVuSans-6d" x="701.513672"/>
     <use xlink:href="#DejaVuSans-70" x="798.925781"/>
     <use xlink:href="#DejaVuSans-61" x="862.402344"/>
     <use xlink:href="#DejaVuSans-72" x="923.681641"/>
     <use xlink:href="#DejaVuSans-69" x="964.794922"/>
     <use xlink:href="#DejaVuSans-73" x="992.578125"/>
     <use xlink:href="#DejaVuSans-6f" x="1044.677734"/>
     <use xlink:href="#DejaVuSans-6e" x="1105.859375"/>
     <use xlink:href="#DejaVuSans-20" x="1169.238281"/>
     <use xlink:href="#DejaVuSans-66" x="1201.025391"/>
     <use xlink:href="#DejaVuSans-6f" x="1236.230469"/>
     <use xlink:href="#DejaVuSans-72" x="1297.412109"/>
     <use xlink:href="#DejaVuSans-20" x="1338.525391"/>
     <use xlink:href="#DejaVuSans-64" x="1370.3125"/>
     <use xlink:href="#DejaVuSans-69" x="1433.789062"/>
     <use xlink:href="#DejaVuSans-66" x="1461.572266"/>
     <use xlink:href="#DejaVuSans-66" x="1496.777344"/>
     <use xlink:href="#DejaVuSans-65" x="1531.982422"/>
     <use xlink:href="#DejaVuSans-72" x="1593.505859"/>
     <use xlink:href="#DejaVuSans-65" x="1632.369141"/>
     <use xlink:href="#DejaVuSans-6e" x="1693.892578"/>
     <use xlink:href="#DejaVuSans-74" x="1757.271484"/>
     <use xlink:href="#DejaVuSans-20" x="1796.480469"/>
     <use xlink:href="#DejaVuSans-6f" x="1828.267578"/>
     <use xlink:href="#DejaVuSans-72" x="1889.449219"/>
     <use xlink:href="#DejaVuSans-64" x="1928.8125"/>
     <use xlink:href="#DejaVuSans-65" x="1992.289062"/>
     <use xlink:href="#DejaVuSans-72" x="2053.8125"/>
     <use xlink:href="#DejaVuSans-73" x="2094.925781"/>
    </g>
   </g>
   <g id="legend_2">
    <g id="patch_13">
     <path d="M 598.098437 304.5525 
L 702.2 304.5525 
Q 704.2 304.5525 704.2 302.5525 
L 704.2 244.84 
Q 704.2 242.84 702.2 242.84 
L 598.098437 242.84 
Q 596.098437 242.84 596.098437 244.84 
L 596.098437 302.5525 
Q 596.098437 304.5525 598.098437 304.5525 
z
" style="fill: #ffffff; opacity: 0.8; stroke: #cccccc; stroke-linejoin: miter"/>
    </g>
    <g id="line2d_35">
     <path d="M 600.098437 250.938438 
L 610.098437 250.938438 
L 620.098437 250.938438 
" style="fill: none; stroke: #1f77b4; stroke-opacity: 0.5; stroke-width: 1.5; stroke-linecap: square"/>
    </g>
    <g id="text_33">
     <!-- Original -->
     <g transform="translate(628.098437 254.438438) scale(0.1 -0.1)">
      <use xlink:href="#DejaVuSans-4f"/>
      <use xlink:href="#DejaVuSans-72" x="78.710938"/>
      <use xlink:href="#DejaVuSans-69" x="119.824219"/>
      <use xlink:href="#DejaVuSans-67" x="147.607422"/>
      <use xlink:href="#DejaVuSans-69" x="211.083984"/>
      <use xlink:href="#DejaVuSans-6e" x="238.867188"/>
      <use xlink:href="#DejaVuSans-61" x="302.246094"/>
      <use xlink:href="#DejaVuSans-6c" x="363.525391"/>
     </g>
    </g>
    <g id="line2d_36">
     <path d="M 600.098437 265.616563 
L 610.098437 265.616563 
L 620.098437 265.616563 
" style="fill: none; stroke: #ff7f0e; stroke-width: 1.5; stroke-linecap: square"/>
    </g>
    <g id="text_34">
     <!-- Filtrat ordin=3 -->
     <g transform="translate(628.098437 269.116563) scale(0.1 -0.1)">
      <use xlink:href="#DejaVuSans-46"/>
      <use xlink:href="#DejaVuSans-69" x="50.269531"/>
      <use xlink:href="#DejaVuSans-6c" x="78.052734"/>
      <use xlink:href="#DejaVuSans-74" x="105.835938"/>
      <use xlink:href="#DejaVuSans-72" x="145.044922"/>
      <use xlink:href="#DejaVuSans-61" x="186.158203"/>
      <use xlink:href="#DejaVuSans-74" x="247.4375"/>
      <use xlink:href="#DejaVuSans-20" x="286.646484"/>
      <use xlink:href="#DejaVuSans-6f" x="318.433594"/>
      <use xlink:href="#DejaVuSans-72" x="379.615234"/>
      <use xlink:href="#DejaVuSans-64" x="418.978516"/>
      <use xlink:href="#DejaVuSans-69" x="482.455078"/>
      <use xlink:href="#DejaVuSans-6e" x="510.238281"/>
      <use xlink:href="#DejaVuSans-3d" x="573.617188"/>
      <use xlink:href="#DejaVuSans-33" x="657.40625"/>
     </g>
    </g>
    <g id="line2d_37">
     <path d="M 600.098437 280.294688 
L 610.098437 280.294688 
L 620.098437 280.294688 
" style="fill: none; stroke: #2ca02c; stroke-width: 1.5; stroke-linecap: square"/>
    </g>
    <g id="text_35">
     <!-- Filtrat ordin=7 -->
     <g transform="translate(628.098437 283.794688) scale(0.1 -0.1)">
      <use xlink:href="#DejaVuSans-46"/>
      <use xlink:href="#DejaVuSans-69" x="50.269531"/>
      <use xlink:href="#DejaVuSans-6c" x="78.052734"/>
      <use xlink:href="#DejaVuSans-74" x="105.835938"/>
      <use xlink:href="#DejaVuSans-72" x="145.044922"/>
      <use xlink:href="#DejaVuSans-61" x="186.158203"/>
      <use xlink:href="#DejaVuSans-74" x="247.4375"/>
      <use xlink:href="#DejaVuSans-20" x="286.646484"/>
      <use xlink:href="#DejaVuSans-6f" x="318.433594"/>
      <use xlink:href="#DejaVuSans-72" x="379.615234"/>
      <use xlink:href="#DejaVuSans-64" x="418.978516"/>
      <use xlink:href="#DejaVuSans-69" x="482.455078"/>
      <use xlink:href="#DejaVuSans-6e" x="510.238281"/>
      <use xlink:href="#DejaVuSans-3d" x="573.617188"/>
      <use xlink:href="#DejaVuSans-37" x="657.40625"/>
     </g>
    </g>
    <g id="line2d_38">
     <path d="M 600.098437 294.972813 
L 610.098437 294.972813 
L 620.098437 294.972813 
" style="fill: none; stroke: #d62728; stroke-width: 1.5; stroke-linecap: square"/>
    </g>
    <g id="text_36">
     <!-- Filtrat ordin=9 -->
     <g transform="translate(628.098437 298.472813) scale(0.1 -0.1)">
      <use xlink:href="#DejaVuSans-46"/>
      <use xlink:href="#DejaVuSans-69" x="50.269531"/>
      <use xlink:href="#DejaVuSans-6c" x="78.052734"/>
      <use xlink:href="#DejaVuSans-74" x="105.835938"/>
      <use xlink:href="#DejaVuSans-72" x="145.044922"/>
      <use xlink:href="#DejaVuSans-61" x="186.158203"/>
      <use xlink:href="#DejaVuSans-74" x="247.4375"/>
      <use xlink:href="#DejaVuSans-20" x="286.646484"/>
      <use xlink:href="#DejaVuSans-6f" x="318.433594"/>
      <use xlink:href="#DejaVuSans-72" x="379.615234"/>
      <use xlink:href="#DejaVuSans-64" x="418.978516"/>
      <use xlink:href="#DejaVuSans-69" x="482.455078"/>
      <use xlink:href="#DejaVuSans-6e" x="510.238281"/>
      <use xlink:href="#DejaVuSans-3d" x="573.617188"/>
      <use xlink:href="#DejaVuSans-39" x="657.40625"/>
     </g>
    </g>
   </g>
  </g>
  <g id="axes_3">
   <g id="patch_14">
    <path d="M 44.66 606.04 
L 709.2 606.04 
L 709.2 450.24 
L 44.66 450.24 
z
" style="fill: #ffffff"/>
   </g>
   <g id="matplotlib.axis_5">
    <g id="xtick_17">
     <g id="line2d_39">
      <g>
       <use xlink:href="#mdd0c4521fa" x="74.866364" y="606.04" style="stroke: #000000; stroke-width: 0.8"/>
      </g>
     </g>
     <g id="text_37">
      <!-- 0 -->
      <g transform="translate(71.685114 620.638437) scale(0.1 -0.1)">
       <use xlink:href="#DejaVuSans-30"/>
      </g>
     </g>
    </g>
    <g id="xtick_18">
     <g id="line2d_40">
      <g>
       <use xlink:href="#mdd0c4521fa" x="159.954712" y="606.04" style="stroke: #000000; stroke-width: 0.8"/>
      </g>
     </g>
     <g id="text_38">
      <!-- 10 -->
      <g transform="translate(153.592212 620.638437) scale(0.1 -0.1)">
       <use xlink:href="#DejaVuSans-31"/>
       <use xlink:href="#DejaVuSans-30" x="63.623047"/>
      </g>
     </g>
    </g>
    <g id="xtick_19">
     <g id="line2d_41">
      <g>
       <use xlink:href="#mdd0c4521fa" x="245.04306" y="606.04" style="stroke: #000000; stroke-width: 0.8"/>
      </g>
     </g>
     <g id="text_39">
      <!-- 20 -->
      <g transform="translate(238.68056 620.638437) scale(0.1 -0.1)">
       <use xlink:href="#DejaVuSans-32"/>
       <use xlink:href="#DejaVuSans-30" x="63.623047"/>
      </g>
     </g>
    </g>
    <g id="xtick_20">
     <g id="line2d_42">
      <g>
       <use xlink:href="#mdd0c4521fa" x="330.131408" y="606.04" style="stroke: #000000; stroke-width: 0.8"/>
      </g>
     </g>
     <g id="text_40">
      <!-- 30 -->
      <g transform="translate(323.768908 620.638437) scale(0.1 -0.1)">
       <use xlink:href="#DejaVuSans-33"/>
       <use xlink:href="#DejaVuSans-30" x="63.623047"/>
      </g>
     </g>
    </g>
    <g id="xtick_21">
     <g id="line2d_43">
      <g>
       <use xlink:href="#mdd0c4521fa" x="415.219757" y="606.04" style="stroke: #000000; stroke-width: 0.8"/>
      </g>
     </g>
     <g id="text_41">
      <!-- 40 -->
      <g transform="translate(408.857257 620.638437) scale(0.1 -0.1)">
       <use xlink:href="#DejaVuSans-34"/>
       <use xlink:href="#DejaVuSans-30" x="63.623047"/>
      </g>
     </g>
    </g>
    <g id="xtick_22">
     <g id="line2d_44">
      <g>
       <use xlink:href="#mdd0c4521fa" x="500.308105" y="606.04" style="stroke: #000000; stroke-width: 0.8"/>
      </g>
     </g>
     <g id="text_42">
      <!-- 50 -->
      <g transform="translate(493.945605 620.638437) scale(0.1 -0.1)">
       <use xlink:href="#DejaVuSans-35"/>
       <use xlink:href="#DejaVuSans-30" x="63.623047"/>
      </g>
     </g>
    </g>
    <g id="xtick_23">
     <g id="line2d_45">
      <g>
       <use xlink:href="#mdd0c4521fa" x="585.396453" y="606.04" style="stroke: #000000; stroke-width: 0.8"/>
      </g>
     </g>
     <g id="text_43">
      <!-- 60 -->
      <g transform="translate(579.033953 620.638437) scale(0.1 -0.1)">
       <use xlink:href="#DejaVuSans-36"/>
       <use xlink:href="#DejaVuSans-30" x="63.623047"/>
      </g>
     </g>
    </g>
    <g id="xtick_24">
     <g id="line2d_46">
      <g>
       <use xlink:href="#mdd0c4521fa" x="670.484802" y="606.04" style="stroke: #000000; stroke-width: 0.8"/>
      </g>
     </g>
     <g id="text_44">
      <!-- 70 -->
      <g transform="translate(664.122302 620.638437) scale(0.1 -0.1)">
       <use xlink:href="#DejaVuSans-37"/>
       <use xlink:href="#DejaVuSans-30" x="63.623047"/>
      </g>
     </g>
    </g>
    <g id="text_45">
     <!-- Esantioane -->
     <g transform="translate(349.215156 634.316562) scale(0.1 -0.1)">
      <use xlink:href="#DejaVuSans-45"/>
      <use xlink:href="#DejaVuSans-73" x="63.183594"/>
      <use xlink:href="#DejaVuSans-61" x="115.283203"/>
      <use xlink:href="#DejaVuSans-6e" x="176.5625"/>
      <use xlink:href="#DejaVuSans-74" x="239.941406"/>
      <use xlink:href="#DejaVuSans-69" x="279.150391"/>
      <use xlink:href="#DejaVuSans-6f" x="306.933594"/>
      <use xlink:href="#DejaVuSans-61" x="368.115234"/>
      <use xlink:href="#DejaVuSans-6e" x="429.394531"/>
      <use xlink:href="#DejaVuSans-65" x="492.773438"/>
     </g>
    </g>
   </g>
   <g id="matplotlib.axis_6">
    <g id="ytick_7">
     <g id="line2d_47">
      <g>
       <use xlink:href="#m875c3bc266" x="44.66" y="588.101738" style="stroke: #000000; stroke-width: 0.8"/>
      </g>
     </g>
     <g id="text_46">
      <!-- 0 -->
      <g transform="translate(31.2975 591.900957) scale(0.1 -0.1)">
       <use xlink:href="#DejaVuSans-30"/>
      </g>
     </g>
    </g>
    <g id="ytick_8">
     <g id="line2d_48">
      <g>
       <use xlink:href="#m875c3bc266" x="44.66" y="553.68597" style="stroke: #000000; stroke-width: 0.8"/>
      </g>
     </g>
     <g id="text_47">
      <!-- 10 -->
      <g transform="translate(24.935 557.485188) scale(0.1 -0.1)">
       <use xlink:href="#DejaVuSans-31"/>
       <use xlink:href="#DejaVuSans-30" x="63.623047"/>
      </g>
     </g>
    </g>
    <g id="ytick_9">
     <g id="line2d_49">
      <g>
       <use xlink:href="#m875c3bc266" x="44.66" y="519.270201" style="stroke: #000000; stroke-width: 0.8"/>
      </g>
     </g>
     <g id="text_48">
      <!-- 20 -->
      <g transform="translate(24.935 523.06942) scale(0.1 -0.1)">
       <use xlink:href="#DejaVuSans-32"/>
       <use xlink:href="#DejaVuSans-30" x="63.623047"/>
      </g>
     </g>
    </g>
    <g id="ytick_10">
     <g id="line2d_50">
      <g>
       <use xlink:href="#m875c3bc266" x="44.66" y="484.854433" style="stroke: #000000; stroke-width: 0.8"/>
      </g>
     </g>
     <g id="text_49">
      <!-- 30 -->
      <g transform="translate(24.935 488.653652) scale(0.1 -0.1)">
       <use xlink:href="#DejaVuSans-33"/>
       <use xlink:href="#DejaVuSans-30" x="63.623047"/>
      </g>
     </g>
    </g>
    <g id="ytick_11">
     <g id="line2d_51">
      <g>
       <use xlink:href="#m875c3bc266" x="44.66" y="450.438665" style="stroke: #000000; stroke-width: 0.8"/>
      </g>
     </g>
     <g id="text_50">
      <!-- 40 -->
      <g transform="translate(24.935 454.237883) scale(0.1 -0.1)">
       <use xlink:href="#DejaVuSans-34"/>
       <use xlink:href="#DejaVuSans-30" x="63.623047"/>
      </g>
     </g>
    </g>
    <g id="text_51">
     <!-- Nr masini -->
     <g transform="translate(18.855313 552.011094) rotate(-90) scale(0.1 -0.1)">
      <use xlink:href="#DejaVuSans-4e"/>
      <use xlink:href="#DejaVuSans-72" x="74.804688"/>
      <use xlink:href="#DejaVuSans-20" x="115.917969"/>
      <use xlink:href="#DejaVuSans-6d" x="147.705078"/>
      <use xlink:href="#DejaVuSans-61" x="245.117188"/>
      <use xlink:href="#DejaVuSans-73" x="306.396484"/>
      <use xlink:href="#DejaVuSans-69" x="358.496094"/>
      <use xlink:href="#DejaVuSans-6e" x="386.279297"/>
      <use xlink:href="#DejaVuSans-69" x="449.658203"/>
     </g>
    </g>
   </g>
   <g id="line2d_52">
    <path d="M 74.866364 553.68597 
L 83.375198 546.802816 
L 91.884033 526.153355 
L 100.392868 519.270201 
L 108.901703 512.387048 
L 117.410538 498.62074 
L 125.919373 546.802816 
L 134.428207 519.270201 
L 142.937042 519.270201 
L 151.445877 505.503894 
L 159.954712 546.802816 
L 168.463547 512.387048 
L 176.972382 539.919662 
L 185.481216 553.68597 
L 193.990051 526.153355 
L 202.498886 574.335431 
L 211.007721 526.153355 
L 219.516556 546.802816 
L 228.025391 567.452277 
L 236.534225 574.335431 
L 245.04306 560.569123 
L 253.551895 560.569123 
L 262.06073 546.802816 
L 270.569565 574.335431 
L 279.078399 560.569123 
L 287.587234 560.569123 
L 296.096069 533.036509 
L 304.604904 539.919662 
L 313.113739 533.036509 
L 321.622574 526.153355 
L 330.131408 498.62074 
L 338.640243 519.270201 
L 347.149078 519.270201 
L 355.657913 533.036509 
L 364.166748 526.153355 
L 372.675583 553.68597 
L 381.184417 505.503894 
L 389.693252 546.802816 
L 398.202087 526.153355 
L 406.710922 560.569123 
L 415.219757 560.569123 
L 423.728592 567.452277 
L 432.237426 574.335431 
L 440.746261 567.452277 
L 449.255096 539.919662 
L 457.763931 553.68597 
L 466.272766 519.270201 
L 474.781601 539.919662 
L 483.290435 526.153355 
L 491.79927 519.270201 
L 500.308105 539.919662 
L 508.81694 526.153355 
L 517.325775 526.153355 
L 525.834609 560.569123 
L 534.343444 512.387048 
L 542.852279 484.854433 
L 551.361114 512.387048 
L 559.869949 526.153355 
L 568.378784 546.802816 
L 576.887618 457.321818 
L 585.396453 533.036509 
L 593.905288 519.270201 
L 602.414123 519.270201 
L 610.922958 539.919662 
L 619.431793 560.569123 
L 627.940627 574.335431 
L 636.449462 581.218584 
L 644.958297 560.569123 
L 653.467132 574.335431 
L 661.975967 539.919662 
L 670.484802 553.68597 
L 678.993636 519.270201 
" clip-path="url(#p69a70eddb7)" style="fill: none; stroke: #1f77b4; stroke-opacity: 0.5; stroke-width: 1.5; stroke-linecap: square"/>
   </g>
   <g id="line2d_53">
    <path d="M 74.866364 565.126341 
L 83.375198 558.206924 
L 91.884033 548.636598 
L 100.392868 537.82228 
L 108.901703 532.417714 
L 117.410538 536.160546 
L 125.919373 544.573823 
L 134.428207 549.345444 
L 142.937042 547.117243 
L 151.445877 542.526043 
L 159.954712 542.692855 
L 168.463547 549.740462 
L 176.972382 558.919301 
L 185.481216 563.541053 
L 193.990051 561.634895 
L 202.498886 557.957826 
L 211.007721 559.171298 
L 219.516556 566.687228 
L 228.025391 574.871994 
L 236.534225 577.224847 
L 245.04306 573.800488 
L 253.551895 570.847543 
L 262.06073 572.844485 
L 270.569565 576.88782 
L 279.078399 576.49708 
L 287.587234 569.63219 
L 296.096069 560.497254 
L 304.604904 553.522123 
L 313.113739 548.360272 
L 321.622574 542.478376 
L 330.131408 536.788152 
L 338.640243 535.728588 
L 347.149078 541.405165 
L 355.657913 549.809372 
L 364.166748 554.40268 
L 372.675583 552.856316 
L 381.184417 549.139327 
L 389.693252 549.216345 
L 398.202087 555.735291 
L 406.710922 566.736969 
L 415.219757 577.822051 
L 423.728592 584.525401 
L 432.237426 583.930662 
L 440.746261 576.282725 
L 449.255096 565.523647 
L 457.763931 556.708648 
L 466.272766 551.804446 
L 474.781601 548.791313 
L 483.290435 545.767127 
L 491.79927 544.745253 
L 500.308105 549.14438 
L 508.81694 557.367479 
L 517.325775 561.66267 
L 525.834609 555.912024 
L 534.343444 543.616518 
L 542.852279 535.076857 
L 551.361114 535.890975 
L 559.869949 540.837184 
L 568.378784 540.911027 
L 576.887618 534.493205 
L 585.396453 529.06188 
L 593.905288 532.636599 
L 602.414123 545.90004 
L 610.922958 562.770617 
L 619.431793 576.576407 
L 627.940627 584.638515 
L 636.449462 587.984381 
L 644.958297 588.127385 
L 653.467132 584.634542 
L 661.975967 575.708041 
L 670.484802 560.981392 
L 678.993636 543.341281 
" clip-path="url(#p69a70eddb7)" style="fill: none; stroke: #ff7f0e; stroke-width: 1.5; stroke-linecap: square"/>
   </g>
   <g id="line2d_54">
    <path d="M 74.866364 575.95226 
L 83.375198 571.810189 
L 91.884033 566.041032 
L 100.392868 558.579908 
L 108.901703 554.168775 
L 117.410538 556.779988 
L 125.919373 564.214561 
L 134.428207 569.792794 
L 142.937042 569.40285 
L 151.445877 565.722507 
L 159.954712 564.835023 
L 168.463547 569.264464 
L 176.972382 575.292451 
L 185.481216 577.333431 
L 193.990051 574.270025 
L 202.498886 570.672978 
L 211.007721 571.660749 
L 219.516556 577.249929 
L 228.025391 582.555125 
L 236.534225 583.490771 
L 245.04306 581.275662 
L 253.551895 580.510472 
L 262.06073 583.311035 
L 270.569565 586.660745 
L 279.078399 586.035483 
L 287.587234 580.628516 
L 296.096069 573.854655 
L 304.604904 569.050728 
L 313.113739 566.150057 
L 321.622574 563.225622 
L 330.131408 560.176236 
L 338.640243 559.340866 
L 347.149078 562.297967 
L 355.657913 567.201924 
L 364.166748 570.215279 
L 372.675583 569.438864 
L 381.184417 566.893628 
L 389.693252 566.603292 
L 398.202087 571.039874 
L 406.710922 579.259209 
L 415.219757 587.727752 
L 423.728592 592.563174 
L 432.237426 591.658118 
L 440.746261 585.762331 
L 449.255096 577.883986 
L 457.763931 571.110892 
L 466.272766 566.540109 
L 474.781601 563.464108 
L 483.290435 561.639864 
L 491.79927 562.60374 
L 500.308105 567.723987 
L 508.81694 575.027765 
L 517.325775 579.368336 
L 525.834609 577.018552 
L 534.343444 569.833268 
L 542.852279 563.596493 
L 551.361114 561.838899 
L 559.869949 562.288332 
L 568.378784 560.253931 
L 576.887618 554.842326 
L 585.396453 550.601628 
L 593.905288 552.901832 
L 602.414123 562.538906 
L 610.922958 575.255359 
L 619.431793 585.943649 
L 627.940627 592.610932 
L 636.449462 596.321458 
L 644.958297 598.099168 
L 653.467132 596.78733 
L 661.975967 590.286019 
L 670.484802 578.533547 
L 678.993636 564.602147 
" clip-path="url(#p69a70eddb7)" style="fill: none; stroke: #2ca02c; stroke-width: 1.5; stroke-linecap: square"/>
   </g>
   <g id="line2d_55">
    <path d="M 74.866364 584.539825 
L 83.375198 582.682106 
L 91.884033 579.816371 
L 100.392868 575.508415 
L 108.901703 572.591745 
L 117.410538 574.029496 
L 125.919373 579.110123 
L 134.428207 583.757953 
L 142.937042 584.769896 
L 151.445877 583.041722 
L 159.954712 582.074709 
L 168.463547 583.660323 
L 176.972382 585.865147 
L 185.481216 585.572974 
L 193.990051 582.437074 
L 202.498886 579.528693 
L 211.007721 579.947296 
L 219.516556 583.398178 
L 228.025391 586.692057 
L 236.534225 587.446281 
L 245.04306 586.561102 
L 253.551895 586.663692 
L 262.06073 588.605091 
L 270.569565 590.320784 
L 279.078399 589.331736 
L 287.587234 585.723575 
L 296.096069 582.029627 
L 304.604904 580.358943 
L 313.113739 580.354841 
L 321.622574 580.251617 
L 330.131408 579.364376 
L 338.640243 578.801887 
L 347.149078 579.704283 
L 355.657913 581.445463 
L 364.166748 582.134393 
L 372.675583 580.819312 
L 381.184417 578.782918 
L 389.693252 578.470908 
L 398.202087 581.255733 
L 406.710922 586.279489 
L 415.219757 591.224664 
L 423.728592 593.975755 
L 432.237426 593.714627 
L 440.746261 590.927413 
L 449.255096 586.740339 
L 457.763931 582.230765 
L 466.272766 578.144032 
L 474.781601 575.098919 
L 483.290435 573.914074 
L 491.79927 575.427601 
L 500.308105 579.643313 
L 508.81694 585.022586 
L 517.325775 589.038892 
L 525.834609 589.932316 
L 534.343444 588.03672 
L 542.852279 585.158982 
L 551.361114 582.574903 
L 559.869949 579.908855 
L 568.378784 576.209399 
L 576.887618 571.893513 
L 585.396453 569.146221 
L 593.905288 570.17795 
L 602.414123 575.210633 
L 610.922958 582.295409 
L 619.431793 588.989356 
L 627.940627 594.019948 
L 636.449462 597.346458 
L 644.958297 598.958182 
L 653.467132 598.099115 
L 661.975967 593.939293 
L 670.484802 586.887727 
L 678.993636 578.901279 
" clip-path="url(#p69a70eddb7)" style="fill: none; stroke: #d62728; stroke-width: 1.5; stroke-linecap: square"/>
   </g>
   <g id="line2d_56">
    <path d="M 74.866364 586.187011 
L 83.375198 584.728467 
L 91.884033 582.43736 
L 100.392868 578.937395 
L 108.901703 576.511168 
L 117.410538 577.640927 
L 125.919373 581.88061 
L 134.428207 585.965797 
L 142.937042 587.170313 
L 151.445877 586.001321 
L 159.954712 585.145483 
L 168.463547 586.060348 
L 176.972382 587.314774 
L 185.481216 586.56452 
L 193.990051 583.675122 
L 202.498886 581.195724 
L 211.007721 581.604446 
L 219.516556 584.58075 
L 228.025391 587.472904 
L 236.534225 588.31079 
L 245.04306 587.768494 
L 253.551895 587.878519 
L 262.06073 589.251766 
L 270.569565 590.251459 
L 279.078399 589.045716 
L 287.587234 585.931755 
L 296.096069 583.105189 
L 304.604904 582.254492 
L 313.113739 582.928146 
L 321.622574 583.480259 
L 330.131408 583.184061 
L 338.640243 582.860032 
L 347.149078 583.437397 
L 355.657913 584.461027 
L 364.166748 584.486482 
L 372.675583 582.878472 
L 381.184417 580.834349 
L 389.693252 580.424074 
L 398.202087 582.704044 
L 406.710922 586.837748 
L 415.219757 590.88657 
L 423.728592 593.240921 
L 432.237426 593.370709 
L 440.746261 591.598293 
L 449.255096 588.527384 
L 457.763931 584.754425 
L 466.272766 580.939655 
L 474.781601 577.945512 
L 483.290435 576.748344 
L 491.79927 578.017857 
L 500.308105 581.552024 
L 508.81694 586.054216 
L 517.325775 589.681837 
L 525.834609 591.151367 
L 534.343444 590.476495 
L 542.852279 588.586076 
L 551.361114 586.210593 
L 559.869949 583.29627 
L 568.378784 579.62446 
L 576.887618 575.847098 
L 585.396453 573.586308 
L 593.905288 574.312493 
L 602.414123 578.123323 
L 610.922958 583.655847 
L 619.431793 589.139241 
L 627.940627 593.467724 
L 636.449462 596.321292 
L 644.958297 597.50776 
L 653.467132 596.530185 
L 661.975967 593.003173 
L 670.484802 587.431438 
L 678.993636 581.335593 
" clip-path="url(#p69a70eddb7)" style="fill: none; stroke: #9467bd; stroke-width: 1.5; stroke-linecap: square"/>
   </g>
   <g id="patch_15">
    <path d="M 44.66 606.04 
L 44.66 450.24 
" style="fill: none; stroke: #000000; stroke-width: 0.8; stroke-linejoin: miter; stroke-linecap: square"/>
   </g>
   <g id="patch_16">
    <path d="M 709.2 606.04 
L 709.2 450.24 
" style="fill: none; stroke: #000000; stroke-width: 0.8; stroke-linejoin: miter; stroke-linecap: square"/>
   </g>
   <g id="patch_17">
    <path d="M 44.66 606.04 
L 709.2 606.04 
" style="fill: none; stroke: #000000; stroke-width: 0.8; stroke-linejoin: miter; stroke-linecap: square"/>
   </g>
   <g id="patch_18">
    <path d="M 44.66 450.24 
L 709.2 450.24 
" style="fill: none; stroke: #000000; stroke-width: 0.8; stroke-linejoin: miter; stroke-linecap: square"/>
   </g>
   <g id="text_52">
    <!-- Chebyshev comparison for different rps -->
    <g transform="translate(257.831875 444.24) scale(0.12 -0.12)">
     <use xlink:href="#DejaVuSans-43"/>
     <use xlink:href="#DejaVuSans-68" x="69.824219"/>
     <use xlink:href="#DejaVuSans-65" x="133.203125"/>
     <use xlink:href="#DejaVuSans-62" x="194.726562"/>
     <use xlink:href="#DejaVuSans-79" x="258.203125"/>
     <use xlink:href="#DejaVuSans-73" x="317.382812"/>
     <use xlink:href="#DejaVuSans-68" x="369.482422"/>
     <use xlink:href="#DejaVuSans-65" x="432.861328"/>
     <use xlink:href="#DejaVuSans-76" x="494.384766"/>
     <use xlink:href="#DejaVuSans-20" x="553.564453"/>
     <use xlink:href="#DejaVuSans-63" x="585.351562"/>
     <use xlink:href="#DejaVuSans-6f" x="640.332031"/>
     <use xlink:href="#DejaVuSans-6d" x="701.513672"/>
     <use xlink:href="#DejaVuSans-70" x="798.925781"/>
     <use xlink:href="#DejaVuSans-61" x="862.402344"/>
     <use xlink:href="#DejaVuSans-72" x="923.681641"/>
     <use xlink:href="#DejaVuSans-69" x="964.794922"/>
     <use xlink:href="#DejaVuSans-73" x="992.578125"/>
     <use xlink:href="#DejaVuSans-6f" x="1044.677734"/>
     <use xlink:href="#DejaVuSans-6e" x="1105.859375"/>
     <use xlink:href="#DejaVuSans-20" x="1169.238281"/>
     <use xlink:href="#DejaVuSans-66" x="1201.025391"/>
     <use xlink:href="#DejaVuSans-6f" x="1236.230469"/>
     <use xlink:href="#DejaVuSans-72" x="1297.412109"/>
     <use xlink:href="#DejaVuSans-20" x="1338.525391"/>
     <use xlink:href="#DejaVuSans-64" x="1370.3125"/>
     <use xlink:href="#DejaVuSans-69" x="1433.789062"/>
     <use xlink:href="#DejaVuSans-66" x="1461.572266"/>
     <use xlink:href="#DejaVuSans-66" x="1496.777344"/>
     <use xlink:href="#DejaVuSans-65" x="1531.982422"/>
     <use xlink:href="#DejaVuSans-72" x="1593.505859"/>
     <use xlink:href="#DejaVuSans-65" x="1632.369141"/>
     <use xlink:href="#DejaVuSans-6e" x="1693.892578"/>
     <use xlink:href="#DejaVuSans-74" x="1757.271484"/>
     <use xlink:href="#DejaVuSans-20" x="1796.480469"/>
     <use xlink:href="#DejaVuSans-72" x="1828.267578"/>
     <use xlink:href="#DejaVuSans-70" x="1869.380859"/>
     <use xlink:href="#DejaVuSans-73" x="1932.857422"/>
    </g>
   </g>
   <g id="legend_3">
    <g id="patch_19">
     <path d="M 580.770312 531.630625 
L 702.2 531.630625 
Q 704.2 531.630625 704.2 529.630625 
L 704.2 457.24 
Q 704.2 455.24 702.2 455.24 
L 580.770312 455.24 
Q 578.770312 455.24 578.770312 457.24 
L 578.770312 529.630625 
Q 578.770312 531.630625 580.770312 531.630625 
z
" style="fill: #ffffff; opacity: 0.8; stroke: #cccccc; stroke-linejoin: miter"/>
    </g>
    <g id="line2d_57">
     <path d="M 582.770312 463.338437 
L 592.770312 463.338437 
L 602.770312 463.338437 
" style="fill: none; stroke: #1f77b4; stroke-opacity: 0.5; stroke-width: 1.5; stroke-linecap: square"/>
    </g>
    <g id="text_53">
     <!-- Original -->
     <g transform="translate(610.770312 466.838437) scale(0.1 -0.1)">
      <use xlink:href="#DejaVuSans-4f"/>
      <use xlink:href="#DejaVuSans-72" x="78.710938"/>
      <use xlink:href="#DejaVuSans-69" x="119.824219"/>
      <use xlink:href="#DejaVuSans-67" x="147.607422"/>
      <use xlink:href="#DejaVuSans-69" x="211.083984"/>
      <use xlink:href="#DejaVuSans-6e" x="238.867188"/>
      <use xlink:href="#DejaVuSans-61" x="302.246094"/>
      <use xlink:href="#DejaVuSans-6c" x="363.525391"/>
     </g>
    </g>
    <g id="line2d_58">
     <path d="M 582.770312 478.016562 
L 592.770312 478.016562 
L 602.770312 478.016562 
" style="fill: none; stroke: #ff7f0e; stroke-width: 1.5; stroke-linecap: square"/>
    </g>
    <g id="text_54">
     <!-- Atenuare = 2 dB -->
     <g transform="translate(610.770312 481.516562) scale(0.1 -0.1)">
      <defs>
       <path id="DejaVuSans-41" d="M 2188 4044 
L 1331 1722 
L 3047 1722 
L 2188 4044 
z
M 1831 4666 
L 2547 4666 
L 4325 0 
L 3669 0 
L 3244 1197 
L 1141 1197 
L 716 0 
L 50 0 
L 1831 4666 
z
" transform="scale(0.015625)"/>
      </defs>
      <use xlink:href="#DejaVuSans-41"/>
      <use xlink:href="#DejaVuSans-74" x="66.658203"/>
      <use xlink:href="#DejaVuSans-65" x="105.867188"/>
      <use xlink:href="#DejaVuSans-6e" x="167.390625"/>
      <use xlink:href="#DejaVuSans-75" x="230.769531"/>
      <use xlink:href="#DejaVuSans-61" x="294.148438"/>
      <use xlink:href="#DejaVuSans-72" x="355.427734"/>
      <use xlink:href="#DejaVuSans-65" x="394.291016"/>
      <use xlink:href="#DejaVuSans-20" x="455.814453"/>
      <use xlink:href="#DejaVuSans-3d" x="487.601562"/>
      <use xlink:href="#DejaVuSans-20" x="571.390625"/>
      <use xlink:href="#DejaVuSans-32" x="603.177734"/>
      <use xlink:href="#DejaVuSans-20" x="666.800781"/>
      <use xlink:href="#DejaVuSans-64" x="698.587891"/>
      <use xlink:href="#DejaVuSans-42" x="762.064453"/>
     </g>
    </g>
    <g id="line2d_59">
     <path d="M 582.770312 492.694687 
L 592.770312 492.694687 
L 602.770312 492.694687 
" style="fill: none; stroke: #2ca02c; stroke-width: 1.5; stroke-linecap: square"/>
    </g>
    <g id="text_55">
     <!-- Atenuare = 5 dB -->
     <g transform="translate(610.770312 496.194687) scale(0.1 -0.1)">
      <use xlink:href="#DejaVuSans-41"/>
      <use xlink:href="#DejaVuSans-74" x="66.658203"/>
      <use xlink:href="#DejaVuSans-65" x="105.867188"/>
      <use xlink:href="#DejaVuSans-6e" x="167.390625"/>
      <use xlink:href="#DejaVuSans-75" x="230.769531"/>
      <use xlink:href="#DejaVuSans-61" x="294.148438"/>
      <use xlink:href="#DejaVuSans-72" x="355.427734"/>
      <use xlink:href="#DejaVuSans-65" x="394.291016"/>
      <use xlink:href="#DejaVuSans-20" x="455.814453"/>
      <use xlink:href="#DejaVuSans-3d" x="487.601562"/>
      <use xlink:href="#DejaVuSans-20" x="571.390625"/>
      <use xlink:href="#DejaVuSans-35" x="603.177734"/>
      <use xlink:href="#DejaVuSans-20" x="666.800781"/>
      <use xlink:href="#DejaVuSans-64" x="698.587891"/>
      <use xlink:href="#DejaVuSans-42" x="762.064453"/>
     </g>
    </g>
    <g id="line2d_60">
     <path d="M 582.770312 507.372813 
L 592.770312 507.372813 
L 602.770312 507.372813 
" style="fill: none; stroke: #d62728; stroke-width: 1.5; stroke-linecap: square"/>
    </g>
    <g id="text_56">
     <!-- Atenuare = 10 dB -->
     <g transform="translate(610.770312 510.872813) scale(0.1 -0.1)">
      <use xlink:href="#DejaVuSans-41"/>
      <use xlink:href="#DejaVuSans-74" x="66.658203"/>
      <use xlink:href="#DejaVuSans-65" x="105.867188"/>
      <use xlink:href="#DejaVuSans-6e" x="167.390625"/>
      <use xlink:href="#DejaVuSans-75" x="230.769531"/>
      <use xlink:href="#DejaVuSans-61" x="294.148438"/>
      <use xlink:href="#DejaVuSans-72" x="355.427734"/>
      <use xlink:href="#DejaVuSans-65" x="394.291016"/>
      <use xlink:href="#DejaVuSans-20" x="455.814453"/>
      <use xlink:href="#DejaVuSans-3d" x="487.601562"/>
      <use xlink:href="#DejaVuSans-20" x="571.390625"/>
      <use xlink:href="#DejaVuSans-31" x="603.177734"/>
      <use xlink:href="#DejaVuSans-30" x="666.800781"/>
      <use xlink:href="#DejaVuSans-20" x="730.423828"/>
      <use xlink:href="#DejaVuSans-64" x="762.210938"/>
      <use xlink:href="#DejaVuSans-42" x="825.6875"/>
     </g>
    </g>
    <g id="line2d_61">
     <path d="M 582.770312 522.050938 
L 592.770312 522.050938 
L 602.770312 522.050938 
" style="fill: none; stroke: #9467bd; stroke-width: 1.5; stroke-linecap: square"/>
    </g>
    <g id="text_57">
     <!-- Atenuare = 12 dB -->
     <g transform="translate(610.770312 525.550938) scale(0.1 -0.1)">
      <use xlink:href="#DejaVuSans-41"/>
      <use xlink:href="#DejaVuSans-74" x="66.658203"/>
      <use xlink:href="#DejaVuSans-65" x="105.867188"/>
      <use xlink:href="#DejaVuSans-6e" x="167.390625"/>
      <use xlink:href="#DejaVuSans-75" x="230.769531"/>
      <use xlink:href="#DejaVuSans-61" x="294.148438"/>
      <use xlink:href="#DejaVuSans-72" x="355.427734"/>
      <use xlink:href="#DejaVuSans-65" x="394.291016"/>
      <use xlink:href="#DejaVuSans-20" x="455.814453"/>
      <use xlink:href="#DejaVuSans-3d" x="487.601562"/>
      <use xlink:href="#DejaVuSans-20" x="571.390625"/>
      <use xlink:href="#DejaVuSans-31" x="603.177734"/>
      <use xlink:href="#DejaVuSans-32" x="666.800781"/>
      <use xlink:href="#DejaVuSans-20" x="730.423828"/>
      <use xlink:href="#DejaVuSans-64" x="762.210938"/>
      <use xlink:href="#DejaVuSans-42" x="825.6875"/>
     </g>
    </g>
   </g>
  </g>
 </g>
 <defs>
  <clipPath id="pf35e3db4c5">
   <rect x="44.66" y="25.44" width="664.54" height="155.8"/>
  </clipPath>
  <clipPath id="pf55a682bee">
   <rect x="44.66" y="237.84" width="664.54" height="155.8"/>
  </clipPath>
  <clipPath id="p69a70eddb7">
   <rect x="44.66" y="450.24" width="664.54" height="155.8"/>
  </clipPath>
 </defs>
</svg>
