<?xml version="1.0" encoding="utf-8" standalone="no"?>
<!DOCTYPE svg PUBLIC "-//W3C//DTD SVG 1.1//EN"
  "http://www.w3.org/Graphics/SVG/1.1/DTD/svg11.dtd">
<svg xmlns:xlink="http://www.w3.org/1999/xlink" width="460.8pt" height="345.6pt" viewBox="0 0 460.8 345.6" xmlns="http://www.w3.org/2000/svg" version="1.1">
 <metadata>
  <rdf:RDF xmlns:dc="http://purl.org/dc/elements/1.1/" xmlns:cc="http://creativecommons.org/ns#" xmlns:rdf="http://www.w3.org/1999/02/22-rdf-syntax-ns#">
   <cc:Work>
    <dc:type rdf:resource="http://purl.org/dc/dcmitype/StillImage"/>
    <dc:date>2025-10-28T17:37:26.739435</dc:date>
    <dc:format>image/svg+xml</dc:format>
    <dc:creator>
     <cc:Agent>
      <dc:title>Matplotlib v3.6.3, https://matplotlib.org/</dc:title>
     </cc:Agent>
    </dc:creator>
   </cc:Work>
  </rdf:RDF>
 </metadata>
 <defs>
  <style type="text/css">*{stroke-linejoin: round; stroke-linecap: butt}</style>
 </defs>
 <g id="figure_1">
  <g id="patch_1">
   <path d="M 0 345.6 
L 460.8 345.6 
L 460.8 0 
L 0 0 
z
" style="fill: #ffffff"/>
  </g>
  <g id="axes_1">
   <g id="patch_2">
    <path d="M 57.6 162.432 
L 414.72 162.432 
L 414.72 41.472 
L 57.6 41.472 
z
" style="fill: #ffffff"/>
   </g>
   <g id="matplotlib.axis_1">
    <g id="xtick_1">
     <g id="line2d_1">
      <defs>
       <path id="mb267642214" d="M 0 0 
L 0 3.5 
" style="stroke: #000000; stroke-width: 0.8"/>
      </defs>
      <g>
       <use xlink:href="#mb267642214" x="73.832727" y="162.432" style="stroke: #000000; stroke-width: 0.8"/>
      </g>
     </g>
     <g id="text_1">
      <!-- 0.0 -->
      <g transform="translate(65.881165 177.030437) scale(0.1 -0.1)">
       <defs>
        <path id="DejaVuSans-30" d="M 2034 4250 
Q 1547 4250 1301 3770 
Q 1056 3291 1056 2328 
Q 1056 1369 1301 889 
Q 1547 409 2034 409 
Q 2525 409 2770 889 
Q 3016 1369 3016 2328 
Q 3016 3291 2770 3770 
Q 2525 4250 2034 4250 
z
M 2034 4750 
Q 2819 4750 3233 4129 
Q 3647 3509 3647 2328 
Q 3647 1150 3233 529 
Q 2819 -91 2034 -91 
Q 1250 -91 836 529 
Q 422 1150 422 2328 
Q 422 3509 836 4129 
Q 1250 4750 2034 4750 
z
" transform="scale(0.015625)"/>
        <path id="DejaVuSans-2e" d="M 684 794 
L 1344 794 
L 1344 0 
L 684 0 
L 684 794 
z
" transform="scale(0.015625)"/>
       </defs>
       <use xlink:href="#DejaVuSans-30"/>
       <use xlink:href="#DejaVuSans-2e" x="63.623047"/>
       <use xlink:href="#DejaVuSans-30" x="95.410156"/>
      </g>
     </g>
    </g>
    <g id="xtick_2">
     <g id="line2d_2">
      <g>
       <use xlink:href="#mb267642214" x="138.763636" y="162.432" style="stroke: #000000; stroke-width: 0.8"/>
      </g>
     </g>
     <g id="text_2">
      <!-- 0.2 -->
      <g transform="translate(130.812074 177.030437) scale(0.1 -0.1)">
       <defs>
        <path id="DejaVuSans-32" d="M 1228 531 
L 3431 531 
L 3431 0 
L 469 0 
L 469 531 
Q 828 903 1448 1529 
Q 2069 2156 2228 2338 
Q 2531 2678 2651 2914 
Q 2772 3150 2772 3378 
Q 2772 3750 2511 3984 
Q 2250 4219 1831 4219 
Q 1534 4219 1204 4116 
Q 875 4013 500 3803 
L 500 4441 
Q 881 4594 1212 4672 
Q 1544 4750 1819 4750 
Q 2544 4750 2975 4387 
Q 3406 4025 3406 3419 
Q 3406 3131 3298 2873 
Q 3191 2616 2906 2266 
Q 2828 2175 2409 1742 
Q 1991 1309 1228 531 
z
" transform="scale(0.015625)"/>
       </defs>
       <use xlink:href="#DejaVuSans-30"/>
       <use xlink:href="#DejaVuSans-2e" x="63.623047"/>
       <use xlink:href="#DejaVuSans-32" x="95.410156"/>
      </g>
     </g>
    </g>
    <g id="xtick_3">
     <g id="line2d_3">
      <g>
       <use xlink:href="#mb267642214" x="203.694545" y="162.432" style="stroke: #000000; stroke-width: 0.8"/>
      </g>
     </g>
     <g id="text_3">
      <!-- 0.4 -->
      <g transform="translate(195.742983 177.030437) scale(0.1 -0.1)">
       <defs>
        <path id="DejaVuSans-34" d="M 2419 4116 
L 825 1625 
L 2419 1625 
L 2419 4116 
z
M 2253 4666 
L 3047 4666 
L 3047 1625 
L 3713 1625 
L 3713 1100 
L 3047 1100 
L 3047 0 
L 2419 0 
L 2419 1100 
L 313 1100 
L 313 1709 
L 2253 4666 
z
" transform="scale(0.015625)"/>
       </defs>
       <use xlink:href="#DejaVuSans-30"/>
       <use xlink:href="#DejaVuSans-2e" x="63.623047"/>
       <use xlink:href="#DejaVuSans-34" x="95.410156"/>
      </g>
     </g>
    </g>
    <g id="xtick_4">
     <g id="line2d_4">
      <g>
       <use xlink:href="#mb267642214" x="268.625455" y="162.432" style="stroke: #000000; stroke-width: 0.8"/>
      </g>
     </g>
     <g id="text_4">
      <!-- 0.6 -->
      <g transform="translate(260.673892 177.030437) scale(0.1 -0.1)">
       <defs>
        <path id="DejaVuSans-36" d="M 2113 2584 
Q 1688 2584 1439 2293 
Q 1191 2003 1191 1497 
Q 1191 994 1439 701 
Q 1688 409 2113 409 
Q 2538 409 2786 701 
Q 3034 994 3034 1497 
Q 3034 2003 2786 2293 
Q 2538 2584 2113 2584 
z
M 3366 4563 
L 3366 3988 
Q 3128 4100 2886 4159 
Q 2644 4219 2406 4219 
Q 1781 4219 1451 3797 
Q 1122 3375 1075 2522 
Q 1259 2794 1537 2939 
Q 1816 3084 2150 3084 
Q 2853 3084 3261 2657 
Q 3669 2231 3669 1497 
Q 3669 778 3244 343 
Q 2819 -91 2113 -91 
Q 1303 -91 875 529 
Q 447 1150 447 2328 
Q 447 3434 972 4092 
Q 1497 4750 2381 4750 
Q 2619 4750 2861 4703 
Q 3103 4656 3366 4563 
z
" transform="scale(0.015625)"/>
       </defs>
       <use xlink:href="#DejaVuSans-30"/>
       <use xlink:href="#DejaVuSans-2e" x="63.623047"/>
       <use xlink:href="#DejaVuSans-36" x="95.410156"/>
      </g>
     </g>
    </g>
    <g id="xtick_5">
     <g id="line2d_5">
      <g>
       <use xlink:href="#mb267642214" x="333.556364" y="162.432" style="stroke: #000000; stroke-width: 0.8"/>
      </g>
     </g>
     <g id="text_5">
      <!-- 0.8 -->
      <g transform="translate(325.604801 177.030437) scale(0.1 -0.1)">
       <defs>
        <path id="DejaVuSans-38" d="M 2034 2216 
Q 1584 2216 1326 1975 
Q 1069 1734 1069 1313 
Q 1069 891 1326 650 
Q 1584 409 2034 409 
Q 2484 409 2743 651 
Q 3003 894 3003 1313 
Q 3003 1734 2745 1975 
Q 2488 2216 2034 2216 
z
M 1403 2484 
Q 997 2584 770 2862 
Q 544 3141 544 3541 
Q 544 4100 942 4425 
Q 1341 4750 2034 4750 
Q 2731 4750 3128 4425 
Q 3525 4100 3525 3541 
Q 3525 3141 3298 2862 
Q 3072 2584 2669 2484 
Q 3125 2378 3379 2068 
Q 3634 1759 3634 1313 
Q 3634 634 3220 271 
Q 2806 -91 2034 -91 
Q 1263 -91 848 271 
Q 434 634 434 1313 
Q 434 1759 690 2068 
Q 947 2378 1403 2484 
z
M 1172 3481 
Q 1172 3119 1398 2916 
Q 1625 2713 2034 2713 
Q 2441 2713 2670 2916 
Q 2900 3119 2900 3481 
Q 2900 3844 2670 4047 
Q 2441 4250 2034 4250 
Q 1625 4250 1398 4047 
Q 1172 3844 1172 3481 
z
" transform="scale(0.015625)"/>
       </defs>
       <use xlink:href="#DejaVuSans-30"/>
       <use xlink:href="#DejaVuSans-2e" x="63.623047"/>
       <use xlink:href="#DejaVuSans-38" x="95.410156"/>
      </g>
     </g>
    </g>
    <g id="xtick_6">
     <g id="line2d_6">
      <g>
       <use xlink:href="#mb267642214" x="398.487273" y="162.432" style="stroke: #000000; stroke-width: 0.8"/>
      </g>
     </g>
     <g id="text_6">
      <!-- 1.0 -->
      <g transform="translate(390.53571 177.030437) scale(0.1 -0.1)">
       <defs>
        <path id="DejaVuSans-31" d="M 794 531 
L 1825 531 
L 1825 4091 
L 703 3866 
L 703 4441 
L 1819 4666 
L 2450 4666 
L 2450 531 
L 3481 531 
L 3481 0 
L 794 0 
L 794 531 
z
" transform="scale(0.015625)"/>
       </defs>
       <use xlink:href="#DejaVuSans-31"/>
       <use xlink:href="#DejaVuSans-2e" x="63.623047"/>
       <use xlink:href="#DejaVuSans-30" x="95.410156"/>
      </g>
     </g>
    </g>
   </g>
   <g id="matplotlib.axis_2">
    <g id="ytick_1">
     <g id="line2d_7">
      <defs>
       <path id="mf0264b240c" d="M 0 0 
L -3.5 0 
" style="stroke: #000000; stroke-width: 0.8"/>
      </defs>
      <g>
       <use xlink:href="#mf0264b240c" x="57.6" y="156.933886" style="stroke: #000000; stroke-width: 0.8"/>
      </g>
     </g>
     <g id="text_7">
      <!-- −1.0 -->
      <g transform="translate(26.317187 160.733105) scale(0.1 -0.1)">
       <defs>
        <path id="DejaVuSans-2212" d="M 678 2272 
L 4684 2272 
L 4684 1741 
L 678 1741 
L 678 2272 
z
" transform="scale(0.015625)"/>
       </defs>
       <use xlink:href="#DejaVuSans-2212"/>
       <use xlink:href="#DejaVuSans-31" x="83.789062"/>
       <use xlink:href="#DejaVuSans-2e" x="147.412109"/>
       <use xlink:href="#DejaVuSans-30" x="179.199219"/>
      </g>
     </g>
    </g>
    <g id="ytick_2">
     <g id="line2d_8">
      <g>
       <use xlink:href="#mf0264b240c" x="57.6" y="129.442943" style="stroke: #000000; stroke-width: 0.8"/>
      </g>
     </g>
     <g id="text_8">
      <!-- −0.5 -->
      <g transform="translate(26.317187 133.242162) scale(0.1 -0.1)">
       <defs>
        <path id="DejaVuSans-35" d="M 691 4666 
L 3169 4666 
L 3169 4134 
L 1269 4134 
L 1269 2991 
Q 1406 3038 1543 3061 
Q 1681 3084 1819 3084 
Q 2600 3084 3056 2656 
Q 3513 2228 3513 1497 
Q 3513 744 3044 326 
Q 2575 -91 1722 -91 
Q 1428 -91 1123 -41 
Q 819 9 494 109 
L 494 744 
Q 775 591 1075 516 
Q 1375 441 1709 441 
Q 2250 441 2565 725 
Q 2881 1009 2881 1497 
Q 2881 1984 2565 2268 
Q 2250 2553 1709 2553 
Q 1456 2553 1204 2497 
Q 953 2441 691 2322 
L 691 4666 
z
" transform="scale(0.015625)"/>
       </defs>
       <use xlink:href="#DejaVuSans-2212"/>
       <use xlink:href="#DejaVuSans-30" x="83.789062"/>
       <use xlink:href="#DejaVuSans-2e" x="147.412109"/>
       <use xlink:href="#DejaVuSans-35" x="179.199219"/>
      </g>
     </g>
    </g>
    <g id="ytick_3">
     <g id="line2d_9">
      <g>
       <use xlink:href="#mf0264b240c" x="57.6" y="101.952" style="stroke: #000000; stroke-width: 0.8"/>
      </g>
     </g>
     <g id="text_9">
      <!-- 0.0 -->
      <g transform="translate(34.696875 105.751219) scale(0.1 -0.1)">
       <use xlink:href="#DejaVuSans-30"/>
       <use xlink:href="#DejaVuSans-2e" x="63.623047"/>
       <use xlink:href="#DejaVuSans-30" x="95.410156"/>
      </g>
     </g>
    </g>
    <g id="ytick_4">
     <g id="line2d_10">
      <g>
       <use xlink:href="#mf0264b240c" x="57.6" y="74.461057" style="stroke: #000000; stroke-width: 0.8"/>
      </g>
     </g>
     <g id="text_10">
      <!-- 0.5 -->
      <g transform="translate(34.696875 78.260276) scale(0.1 -0.1)">
       <use xlink:href="#DejaVuSans-30"/>
       <use xlink:href="#DejaVuSans-2e" x="63.623047"/>
       <use xlink:href="#DejaVuSans-35" x="95.410156"/>
      </g>
     </g>
    </g>
    <g id="ytick_5">
     <g id="line2d_11">
      <g>
       <use xlink:href="#mf0264b240c" x="57.6" y="46.970114" style="stroke: #000000; stroke-width: 0.8"/>
      </g>
     </g>
     <g id="text_11">
      <!-- 1.0 -->
      <g transform="translate(34.696875 50.769333) scale(0.1 -0.1)">
       <use xlink:href="#DejaVuSans-31"/>
       <use xlink:href="#DejaVuSans-2e" x="63.623047"/>
       <use xlink:href="#DejaVuSans-30" x="95.410156"/>
      </g>
     </g>
    </g>
   </g>
   <g id="line2d_12">
    <path d="M 73.832727 101.952 
L 76.432563 75.440035 
L 77.732482 64.28407 
L 78.70742 57.44025 
L 79.682359 52.176431 
L 80.332318 49.639788 
L 80.982277 47.92979 
L 81.307256 47.393751 
L 81.632236 47.073459 
L 81.957215 46.970182 
L 82.282195 47.084327 
L 82.607174 47.415443 
L 83.257133 48.722499 
L 83.907093 50.870695 
L 84.557052 53.826086 
L 85.53199 59.66719 
L 86.506929 67.009247 
L 87.806847 78.676482 
L 89.756724 98.668786 
L 92.68154 128.615308 
L 93.981458 139.745696 
L 94.956396 146.565027 
L 95.931335 151.800764 
L 96.581294 154.317176 
L 97.231253 156.006106 
L 97.556233 156.531402 
L 97.881212 156.840865 
L 98.206192 156.933274 
L 98.531171 156.808263 
L 98.856151 156.466325 
L 99.50611 155.137933 
L 100.156069 152.969089 
L 100.806028 149.994065 
L 101.780966 144.126086 
L 102.755905 136.761086 
L 104.055823 125.070757 
L 106.0057 105.062603 
L 108.930516 75.137612 
L 110.230434 64.032913 
L 111.205373 57.238136 
L 112.180311 52.030533 
L 112.83027 49.534377 
L 113.480229 47.866532 
L 113.805209 47.351986 
L 114.130188 47.053352 
L 114.455168 46.971813 
L 114.780147 47.10769 
L 115.105127 47.460445 
L 115.755086 48.810161 
L 116.405045 50.999632 
L 117.055004 53.994259 
L 118.029943 59.889054 
L 119.004881 67.276925 
L 120.304799 78.990233 
L 122.254676 99.014039 
L 124.854513 125.852245 
L 126.154431 137.425952 
L 127.129369 144.67551 
L 128.104308 150.408543 
L 128.754267 153.28511 
L 129.404226 155.350504 
L 130.054185 156.572087 
L 130.379165 156.859887 
L 130.704144 156.930556 
L 131.029124 156.783815 
L 131.354103 156.420245 
L 132.004062 155.04922 
L 132.654021 152.839144 
L 133.30398 149.824943 
L 134.278919 143.90339 
L 135.253857 136.49272 
L 136.553776 124.75655 
L 138.503653 104.71729 
L 141.103489 77.89616 
L 142.403407 66.346122 
L 143.378346 59.119869 
L 144.353284 53.413996 
L 145.003243 50.557206 
L 145.653202 48.512564 
L 146.303161 47.31238 
L 146.628141 47.035417 
L 146.95312 46.975619 
L 147.2781 47.133222 
L 147.603079 47.507603 
L 148.253038 48.899925 
L 148.902998 51.130583 
L 149.552957 54.164329 
L 150.527895 60.112581 
L 151.502834 67.545975 
L 152.802752 79.304892 
L 154.752629 99.359408 
L 157.352465 126.163197 
L 158.652383 137.689452 
L 159.627322 144.892329 
L 160.60226 150.570985 
L 161.252219 153.40797 
L 161.902179 155.431839 
L 162.552138 156.610612 
L 162.877117 156.876736 
L 163.202097 156.925662 
L 163.527076 156.757199 
L 163.852056 156.372011 
L 164.502015 154.958406 
L 165.151974 152.707187 
L 165.801933 149.653926 
L 166.776871 143.679034 
L 167.75181 136.222989 
L 169.051728 124.441441 
L 171.001605 104.371868 
L 173.601441 77.585685 
L 174.90136 66.083327 
L 175.876298 58.903898 
L 176.851237 53.252514 
L 177.501196 50.435364 
L 178.151155 48.432287 
L 178.801114 47.274936 
L 179.126093 47.019654 
L 179.451073 46.9816 
L 179.776052 47.160923 
L 180.101032 47.556914 
L 180.750991 48.991787 
L 181.40095 51.263545 
L 182.050909 54.33629 
L 183.025848 60.337764 
L 184.000786 67.816386 
L 185.300704 79.620448 
L 187.250581 99.704879 
L 189.850418 126.473191 
L 191.150336 137.951538 
L 192.125274 145.10745 
L 193.100213 150.731505 
L 193.750172 153.528793 
L 194.400131 155.511058 
L 195.05009 156.646975 
L 195.37507 156.891412 
L 195.700049 156.918594 
L 196.025029 156.728414 
L 196.350008 156.321623 
L 196.999967 154.865496 
L 197.649926 152.573221 
L 198.299885 149.481023 
L 199.274824 143.453027 
L 200.249762 135.951901 
L 201.549681 124.125443 
L 203.499558 104.026351 
L 206.099394 77.276175 
L 207.399312 65.821952 
L 208.374251 58.68963 
L 209.349189 53.092959 
L 209.999148 50.315559 
L 210.649107 48.354126 
L 211.299066 47.239655 
L 211.624046 47.006065 
L 211.949025 46.989755 
L 212.274005 47.190791 
L 212.598984 47.608377 
L 213.248943 49.085745 
L 213.898903 51.398513 
L 214.548862 54.510134 
L 215.5238 60.564592 
L 216.498739 68.088148 
L 217.798657 79.936886 
L 220.073514 103.507925 
L 222.34837 126.782215 
L 223.648288 138.212201 
L 224.623227 145.320863 
L 225.598165 150.890094 
L 226.248124 153.647577 
L 226.898084 155.588159 
L 227.548043 156.681175 
L 227.873022 156.903915 
L 228.198002 156.909352 
L 228.522981 156.697462 
L 228.847961 156.269085 
L 229.49792 154.770492 
L 230.147879 152.437253 
L 230.797838 149.30624 
L 231.772776 143.225379 
L 232.747715 135.679469 
L 234.047633 123.808567 
L 236.32249 100.223249 
L 238.597346 76.96764 
L 239.897265 65.562006 
L 240.872203 58.477073 
L 241.847142 52.935337 
L 242.497101 50.197798 
L 243.14706 48.278086 
L 243.797019 47.206538 
L 244.121998 46.994648 
L 244.446978 47.000085 
L 244.771957 47.222825 
L 245.096937 47.66199 
L 245.746896 49.181794 
L 246.396855 51.53548 
L 247.046814 54.685855 
L 248.021753 60.793058 
L 248.996691 68.361248 
L 250.296609 80.254196 
L 252.571466 103.85356 
L 254.846323 127.090257 
L 256.146241 138.471428 
L 257.121179 145.532561 
L 258.096118 151.046748 
L 258.746077 153.764316 
L 259.396036 155.663138 
L 260.045995 156.713209 
L 260.370975 156.914245 
L 260.695954 156.897935 
L 261.020934 156.664345 
L 261.345913 156.214398 
L 261.995872 154.673399 
L 262.645831 152.299289 
L 263.29579 149.129583 
L 264.270729 142.996098 
L 265.245667 135.405702 
L 266.545586 123.490827 
L 268.820442 99.877649 
L 271.095299 76.660094 
L 272.395217 65.303499 
L 273.370156 58.266236 
L 274.345094 52.779653 
L 274.995053 50.082083 
L 275.645012 48.204169 
L 276.294971 47.175586 
L 276.619951 46.985406 
L 276.94493 47.012588 
L 277.26991 47.257025 
L 277.594889 47.71775 
L 278.244848 49.27993 
L 278.894808 51.674441 
L 279.544767 54.863446 
L 280.519705 61.023152 
L 281.494644 68.635678 
L 282.794562 80.572363 
L 285.069419 104.199121 
L 287.344275 127.397305 
L 288.644193 138.729212 
L 289.619132 145.742535 
L 290.59407 151.20146 
L 291.244029 153.879005 
L 291.893989 155.735992 
L 292.543948 156.743077 
L 292.868927 156.9224 
L 293.193907 156.884346 
L 293.518886 156.629064 
L 293.843866 156.157565 
L 294.493825 154.574221 
L 295.143784 152.159332 
L 295.793743 148.95106 
L 296.768681 142.765194 
L 297.74362 135.130612 
L 299.043538 123.172235 
L 301.318395 99.532132 
L 303.593251 76.353548 
L 304.89317 65.046442 
L 305.868108 58.057127 
L 306.843047 52.625915 
L 307.493006 49.968421 
L 308.142965 48.132378 
L 308.792924 47.146801 
L 309.117903 46.978338 
L 309.442883 47.027264 
L 309.767862 47.293388 
L 310.092842 47.775656 
L 310.742801 49.380149 
L 311.39276 51.815391 
L 312.042719 55.042899 
L 313.017658 61.254864 
L 313.992596 68.911425 
L 315.292514 80.891377 
L 317.567371 104.544592 
L 319.842228 127.703346 
L 321.142146 138.98554 
L 322.117084 145.950777 
L 323.092023 151.354223 
L 323.741982 153.99164 
L 324.391941 155.806719 
L 325.0419 156.770778 
L 325.36688 156.928381 
L 325.691859 156.868583 
L 326.016839 156.59162 
L 326.341818 156.098588 
L 326.991777 154.472961 
L 327.641736 152.01739 
L 328.291695 148.770678 
L 329.266634 142.532675 
L 330.241572 134.85421 
L 331.541491 122.852803 
L 333.816347 99.18671 
L 336.091204 76.048015 
L 337.391122 64.790844 
L 338.366061 57.849754 
L 339.340999 52.474128 
L 339.990958 49.856814 
L 340.640917 48.062716 
L 341.290876 47.120185 
L 341.615856 46.973444 
L 341.940835 47.044113 
L 342.265815 47.331913 
L 342.590794 47.835704 
L 343.240753 49.482449 
L 343.890713 51.958325 
L 344.540672 55.224208 
L 345.51561 61.488187 
L 346.490549 69.18848 
L 347.790467 81.211224 
L 350.065324 104.889961 
L 352.34018 128.008368 
L 353.640098 139.240404 
L 354.615037 146.157279 
L 355.589975 151.505032 
L 356.239934 154.102216 
L 356.889894 155.875315 
L 357.539853 156.79631 
L 357.864832 156.932187 
L 358.189812 156.850648 
L 358.514791 156.552014 
L 358.839771 156.037468 
L 359.48973 154.369623 
L 360.139689 151.873467 
L 360.789648 148.588444 
L 361.764586 142.298551 
L 362.739525 134.576506 
L 364.039443 122.532545 
L 366.3143 98.841397 
L 368.589156 75.743507 
L 369.889075 64.536717 
L 370.864013 57.644126 
L 371.838952 52.324298 
L 372.488911 49.747269 
L 373.13887 47.995186 
L 373.788829 47.095737 
L 374.113808 46.970726 
L 374.438788 47.063135 
L 374.763767 47.372598 
L 375.088747 47.897894 
L 375.738706 49.586824 
L 376.388665 52.103236 
L 377.038624 55.407365 
L 378.013563 61.723111 
L 378.988501 69.46683 
L 380.288419 81.531891 
L 382.563276 105.235214 
L 384.838133 128.312359 
L 386.138051 139.493792 
L 387.112989 146.362031 
L 388.087928 151.653881 
L 388.737887 154.21073 
L 389.387846 155.941779 
L 390.037805 156.819673 
L 390.362785 156.933818 
L 390.687764 156.830541 
L 391.012744 156.510249 
L 391.662703 155.224542 
L 392.312662 153.097015 
L 392.962621 150.161288 
L 393.937559 144.347115 
L 394.912498 137.028074 
L 396.212416 125.384049 
L 398.162293 105.407792 
L 398.487273 101.952 
L 398.487273 101.952 
" clip-path="url(#p8b55cb725f)" style="fill: none; stroke: #1f77b4; stroke-width: 1.5; stroke-linecap: square"/>
   </g>
   <g id="patch_3">
    <path d="M 57.6 162.432 
L 57.6 41.472 
" style="fill: none; stroke: #000000; stroke-width: 0.8; stroke-linejoin: miter; stroke-linecap: square"/>
   </g>
   <g id="patch_4">
    <path d="M 414.72 162.432 
L 414.72 41.472 
" style="fill: none; stroke: #000000; stroke-width: 0.8; stroke-linejoin: miter; stroke-linecap: square"/>
   </g>
   <g id="patch_5">
    <path d="M 57.6 162.432 
L 414.72 162.432 
" style="fill: none; stroke: #000000; stroke-width: 0.8; stroke-linejoin: miter; stroke-linecap: square"/>
   </g>
   <g id="patch_6">
    <path d="M 57.6 41.472 
L 414.72 41.472 
" style="fill: none; stroke: #000000; stroke-width: 0.8; stroke-linejoin: miter; stroke-linecap: square"/>
   </g>
  </g>
  <g id="axes_2">
   <g id="patch_7">
    <path d="M 172.720349 307.584 
L 299.599651 307.584 
L 299.599651 186.624 
L 172.720349 186.624 
z
" style="fill: #ffffff"/>
   </g>
   <g id="matplotlib.axis_3">
    <g id="xtick_7">
     <g id="line2d_13">
      <g>
       <use xlink:href="#mb267642214" x="175.642048" y="307.584" style="stroke: #000000; stroke-width: 0.8"/>
      </g>
     </g>
     <g id="text_12">
      <!-- −1 -->
      <g transform="translate(168.270954 322.182437) scale(0.1 -0.1)">
       <use xlink:href="#DejaVuSans-2212"/>
       <use xlink:href="#DejaVuSans-31" x="83.789062"/>
      </g>
     </g>
    </g>
    <g id="xtick_8">
     <g id="line2d_14">
      <g>
       <use xlink:href="#mb267642214" x="236.16" y="307.584" style="stroke: #000000; stroke-width: 0.8"/>
      </g>
     </g>
     <g id="text_13">
      <!-- 0 -->
      <g transform="translate(232.97875 322.182437) scale(0.1 -0.1)">
       <use xlink:href="#DejaVuSans-30"/>
      </g>
     </g>
    </g>
    <g id="xtick_9">
     <g id="line2d_15">
      <g>
       <use xlink:href="#mb267642214" x="296.677952" y="307.584" style="stroke: #000000; stroke-width: 0.8"/>
      </g>
     </g>
     <g id="text_14">
      <!-- 1 -->
      <g transform="translate(293.496702 322.182437) scale(0.1 -0.1)">
       <use xlink:href="#DejaVuSans-31"/>
      </g>
     </g>
    </g>
   </g>
   <g id="matplotlib.axis_4">
    <g id="ytick_6">
     <g id="line2d_16">
      <g>
       <use xlink:href="#mf0264b240c" x="172.720349" y="302.087763" style="stroke: #000000; stroke-width: 0.8"/>
      </g>
     </g>
     <g id="text_15">
      <!-- −1.0 -->
      <g transform="translate(141.437536 305.886982) scale(0.1 -0.1)">
       <use xlink:href="#DejaVuSans-2212"/>
       <use xlink:href="#DejaVuSans-31" x="83.789062"/>
       <use xlink:href="#DejaVuSans-2e" x="147.412109"/>
       <use xlink:href="#DejaVuSans-30" x="179.199219"/>
      </g>
     </g>
    </g>
    <g id="ytick_7">
     <g id="line2d_17">
      <g>
       <use xlink:href="#mf0264b240c" x="172.720349" y="271.828787" style="stroke: #000000; stroke-width: 0.8"/>
      </g>
     </g>
     <g id="text_16">
      <!-- −0.5 -->
      <g transform="translate(141.437536 275.628006) scale(0.1 -0.1)">
       <use xlink:href="#DejaVuSans-2212"/>
       <use xlink:href="#DejaVuSans-30" x="83.789062"/>
       <use xlink:href="#DejaVuSans-2e" x="147.412109"/>
       <use xlink:href="#DejaVuSans-35" x="179.199219"/>
      </g>
     </g>
    </g>
    <g id="ytick_8">
     <g id="line2d_18">
      <g>
       <use xlink:href="#mf0264b240c" x="172.720349" y="241.569811" style="stroke: #000000; stroke-width: 0.8"/>
      </g>
     </g>
     <g id="text_17">
      <!-- 0.0 -->
      <g transform="translate(149.817224 245.36903) scale(0.1 -0.1)">
       <use xlink:href="#DejaVuSans-30"/>
       <use xlink:href="#DejaVuSans-2e" x="63.623047"/>
       <use xlink:href="#DejaVuSans-30" x="95.410156"/>
      </g>
     </g>
    </g>
    <g id="ytick_9">
     <g id="line2d_19">
      <g>
       <use xlink:href="#mf0264b240c" x="172.720349" y="211.310835" style="stroke: #000000; stroke-width: 0.8"/>
      </g>
     </g>
     <g id="text_18">
      <!-- 0.5 -->
      <g transform="translate(149.817224 215.110054) scale(0.1 -0.1)">
       <use xlink:href="#DejaVuSans-30"/>
       <use xlink:href="#DejaVuSans-2e" x="63.623047"/>
       <use xlink:href="#DejaVuSans-35" x="95.410156"/>
      </g>
     </g>
    </g>
   </g>
   <g id="line2d_20">
    <path d="M 236.16 241.569811 
L 243.75006 241.760802 
L 251.205883 242.327496 
L 258.395895 243.25123 
L 265.193794 244.501431 
L 271.481049 246.036411 
L 277.149226 247.804453 
L 282.102106 249.745149 
L 286.257544 251.790986 
L 288.01479 252.830724 
L 289.549026 253.869116 
L 290.854583 254.896536 
L 291.926902 255.903274 
L 292.762555 256.879596 
L 293.359256 257.815813 
L 293.715869 258.702343 
L 293.83241 259.529782 
L 293.710038 260.288963 
L 293.351045 260.97102 
L 292.758843 261.567455 
L 291.937935 262.070191 
L 290.89389 262.471638 
L 289.633311 262.764739 
L 288.163789 262.943029 
L 286.493865 263.000683 
L 284.632981 262.932557 
L 282.591419 262.734237 
L 280.380253 262.402067 
L 275.496961 261.325576 
L 270.085006 259.690247 
L 264.254608 257.497065 
L 258.121933 254.761172 
L 251.806612 251.511882 
L 245.429227 247.79234 
L 239.108797 243.65886 
L 232.960338 239.179923 
L 227.092536 234.434883 
L 221.605591 229.512386 
L 216.589273 224.508554 
L 212.121238 219.524954 
L 208.265628 214.666414 
L 205.071994 210.038727 
L 202.57455 205.746288 
L 200.791788 201.889733 
L 200.169877 200.15476 
L 199.726444 198.563619 
L 199.459423 197.126814 
L 199.365819 195.854202 
L 199.441742 194.754927 
L 199.682438 193.837368 
L 200.082326 193.109085 
L 200.635041 192.576768 
L 201.333483 192.246192 
L 202.169862 192.122182 
L 203.135758 192.208572 
L 204.222176 192.508181 
L 205.419604 193.022783 
L 206.718078 193.753092 
L 208.107246 194.698748 
L 209.576434 195.858307 
L 211.114714 197.229244 
L 212.710974 198.807952 
L 216.03247 202.568922 
L 219.450947 207.091294 
L 222.877874 212.309096 
L 226.228288 218.141443 
L 229.422795 224.493984 
L 232.389411 231.260668 
L 235.06519 238.325764 
L 237.397612 245.566109 
L 239.345688 252.853524 
L 240.880778 260.057367 
L 241.987078 267.047145 
L 242.661787 273.695144 
L 242.914947 279.87902 
L 242.768954 285.484286 
L 242.257767 290.406654 
L 241.425825 294.554172 
L 240.905998 296.31247 
L 240.326703 297.84911 
L 239.695808 299.156861 
L 239.021544 300.229563 
L 238.312448 301.062161 
L 237.577303 301.650727 
L 236.825074 301.992483 
L 236.064846 302.085818 
L 235.305763 301.930291 
L 234.556956 301.526635 
L 233.827489 300.876756 
L 233.126286 299.983719 
L 232.462075 298.851737 
L 231.843322 297.486144 
L 231.278172 295.89337 
L 230.774392 294.08091 
L 230.339316 292.057279 
L 229.979788 289.831976 
L 229.512023 284.818945 
L 229.414295 279.135419 
L 229.71917 272.887083 
L 230.447539 266.189536 
L 231.607857 259.165933 
L 233.195702 251.944479 
L 235.193647 244.655829 
L 237.571475 237.430459 
L 240.286707 230.396059 
L 243.285451 223.674991 
L 246.503552 217.381896 
L 249.868004 211.621468 
L 253.298615 206.486464 
L 256.709861 202.05598 
L 260.012914 198.394034 
L 263.117771 195.548484 
L 264.567969 194.442206 
L 265.935453 193.550294 
L 267.209622 192.87392 
L 268.380215 192.413175 
L 269.437375 192.167078 
L 270.371715 192.133592 
L 271.174375 192.309642 
L 271.837089 192.691143 
L 272.352235 193.27303 
L 272.712892 194.049294 
L 272.912886 195.013023 
L 272.94684 196.156449 
L 272.810212 197.470996 
L 272.499333 198.947335 
L 272.011438 200.575443 
L 271.344695 202.344662 
L 270.498227 204.243765 
L 268.267471 208.384263 
L 265.331738 212.898316 
L 261.719373 217.682661 
L 257.474245 222.631751 
L 252.655132 227.640122 
L 247.334768 232.604722 
L 241.598565 237.42714 
L 235.543027 242.015702 
L 229.273898 246.287369 
L 222.904086 250.169415 
L 216.551391 253.600831 
L 210.336098 256.533437 
L 204.378492 258.932675 
L 198.796332 260.77807 
L 193.702353 262.063352 
L 189.201845 262.796236 
L 187.204444 262.961635 
L 185.390367 262.997872 
L 183.769694 262.90955 
L 182.351643 262.701985 
L 181.144523 262.381168 
L 180.155684 261.953715 
L 179.391471 261.426822 
L 178.857191 260.808208 
L 178.557077 260.106057 
L 178.494262 259.328969 
L 178.670757 258.485887 
L 179.087436 257.586045 
L 179.744027 256.638898 
L 180.639105 255.654061 
L 181.770099 254.64124 
L 183.133297 253.610168 
L 184.72386 252.570543 
L 186.535845 251.531956 
L 190.794934 249.495368 
L 195.842023 247.572691 
L 201.593116 245.830643 
L 207.95036 244.328626 
L 214.803939 243.117172 
L 222.034216 242.236634 
L 229.514094 241.716132 
L 237.111521 241.572804 
L 244.692114 241.811357 
L 252.121822 242.423953 
L 259.269591 243.390404 
L 266.009957 244.678699 
L 272.225526 246.245832 
L 277.809281 248.038921 
L 282.666666 249.996579 
L 286.717411 252.050526 
L 288.419496 253.090822 
L 289.897051 254.127378 
L 291.144682 255.15054 
L 292.158111 256.150585 
L 292.934196 257.117787 
L 293.470936 258.042474 
L 293.767486 258.915106 
L 293.824145 259.726329 
L 293.642358 260.467046 
L 293.2247 261.128479 
L 292.574857 261.702228 
L 291.697602 262.180334 
L 290.598766 262.555333 
L 289.285201 262.820314 
L 287.764742 262.968965 
L 286.046159 262.995628 
L 284.139109 262.895339 
L 282.054079 262.663868 
L 277.395827 261.794355 
L 272.1696 260.369229 
L 266.482772 258.384231 
L 260.449562 255.849177 
L 254.188599 252.788086 
L 247.820402 249.238979 
L 241.464869 245.253328 
L 235.238795 240.895191 
L 229.253504 236.240013 
L 223.612617 231.373157 
L 218.410029 226.38817 
L 213.728119 221.384824 
L 209.63624 216.46699 
L 206.189519 211.740372 
L 203.427988 207.310168 
L 201.376056 203.2787 
L 200.6195 201.443103 
L 200.042351 199.74307 
L 199.643252 198.189552 
L 199.419901 196.792898 
L 199.369078 195.562792 
L 199.486673 194.508192 
L 199.767722 193.637277 
L 200.206443 192.957393 
L 200.796283 192.475005 
L 201.529964 192.195657 
L 202.399536 192.123927 
L 203.396427 192.263398 
L 204.511508 192.61663 
L 205.735148 193.185133 
L 207.05728 193.969355 
L 208.467464 194.968664 
L 209.954958 196.181347 
L 211.508781 197.604607 
L 214.77072 201.06629 
L 218.163329 205.310026 
L 221.597281 210.275749 
L 224.986032 215.88801 
L 228.247876 222.057319 
L 231.307846 228.681789 
L 234.099431 235.649066 
L 236.566055 242.838498 
L 238.662294 250.123496 
L 240.354803 257.374036 
L 241.622926 264.459262 
L 242.458987 271.250109 
L 242.868253 277.621922 
L 242.868563 283.456985 
L 242.489652 288.646922 
L 241.772174 293.09492 
L 241.301858 295.014092 
L 240.766449 296.717711 
L 240.173501 298.197765 
L 239.530979 299.447289 
L 238.847196 300.460396 
L 238.130757 301.232309 
L 237.390494 301.759387 
L 236.63541 302.039144 
L 235.874611 302.070259 
L 235.117242 301.852584 
L 234.372425 301.387148 
L 233.649194 300.676147 
L 232.95643 299.722936 
L 232.302801 298.532007 
L 231.696699 297.108974 
L 231.146179 295.460535 
L 230.658906 293.594445 
L 230.242095 291.519469 
L 229.646172 286.782718 
L 229.405267 281.338846 
L 229.556071 275.28925 
L 230.123958 268.746077 
L 231.122116 261.829937 
L 232.550983 254.66744 
L 234.398002 247.388631 
L 236.637709 240.124362 
L 239.232139 233.003668 
L 242.131561 226.151201 
L 245.275518 219.684767 
L 248.594138 213.713038 
L 252.009718 208.333463 
L 255.438503 203.630444 
L 258.79266 199.6738 
L 261.982371 196.517554 
L 263.487485 195.251922 
L 264.918014 194.199066 
L 266.263151 193.360971 
L 267.512373 192.738538 
L 268.655515 192.331589 
L 269.68283 192.138877 
L 270.585058 192.158103 
L 271.353483 192.385938 
L 271.979993 192.818048 
L 272.457137 193.449128 
L 272.778176 194.272941 
L 272.937133 195.282355 
L 272.928834 196.469395 
L 272.748952 197.825293 
L 272.394042 199.34054 
L 271.86157 201.004948 
L 271.14994 202.807711 
L 270.258517 204.73747 
L 267.938628 208.930174 
L 264.916443 213.48373 
L 261.222271 218.294461 
L 256.901884 223.256701 
L 252.015863 228.265163 
L 246.638604 233.217253 
L 240.856998 238.015293 
L 234.768811 242.568587 
L 228.4808 246.795301 
L 222.106611 250.624101 
L 215.764488 253.995528 
L 209.574855 256.863067 
L 203.657819 259.193902 
L 198.130647 260.969336 
L 193.105272 262.184864 
L 188.68589 262.849918 
L 186.73333 262.982636 
L 184.966692 262.987273 
L 183.395845 262.868615 
L 182.029784 262.63215 
L 180.876584 262.28403 
L 179.943347 261.831022 
L 179.236161 261.280455 
L 178.760068 260.640172 
L 178.519029 259.918467 
L 178.515897 259.124029 
L 178.7524 258.265881 
L 179.229128 257.35332 
L 179.945519 256.395844 
L 180.899862 255.403099 
L 182.089299 254.384803 
L 183.509836 253.350687 
L 185.156354 252.310427 
L 187.022638 251.27358 
L 191.384306 249.247375 
L 196.524291 247.343762 
L 202.356768 245.628637 
L 208.782283 244.160374 
L 215.689667 242.988299 
L 222.958222 242.151413 
L 230.460088 241.677372 
L 238.062779 241.581779 
L 245.631806 241.867773 
L 253.033349 242.525953 
L 260.136912 243.53462 
L 266.817906 244.860336 
L 272.960115 246.458795 
L 278.457967 248.275969 
L 283.218601 250.24952 
L 287.163646 252.310427 
L 288.810164 253.350687 
L 290.230701 254.384803 
L 291.420138 255.403099 
L 292.374481 256.395844 
L 293.090872 257.35332 
L 293.5676 258.265881 
L 293.804103 259.124029 
L 293.800971 259.918467 
L 293.559932 260.640172 
L 293.083839 261.280455 
L 292.376653 261.831022 
L 291.443416 262.28403 
L 290.290216 262.63215 
L 288.924155 262.868615 
L 287.353308 262.987273 
L 285.58667 262.982636 
L 283.63411 262.849918 
L 281.506315 262.585081 
L 276.771486 261.64682 
L 271.481649 260.151657 
L 265.745163 258.097075 
L 259.676934 255.494662 
L 253.395964 252.370207 
L 247.022833 248.763449 
L 240.677185 244.727488 
L 234.475258 240.327876 
L 228.527531 235.641385 
L 222.936517 230.7545 
L 217.794763 225.761656 
L 213.183095 220.763259 
L 209.169149 215.863534 
L 205.806204 211.168251 
L 203.132361 206.782378 
L 201.17006 202.807711 
L 200.45843 201.004948 
L 199.925958 199.34054 
L 199.571048 197.825293 
L 199.391166 196.469395 
L 199.382867 195.282355 
L 199.541824 194.272941 
L 199.862863 193.449128 
L 200.340007 192.818048 
L 200.966517 192.385938 
L 201.734942 192.158103 
L 202.63717 192.138877 
L 203.664485 192.331589 
L 204.807627 192.738538 
L 206.056849 193.360971 
L 207.401986 194.199066 
L 208.832515 195.251922 
L 210.337629 196.517554 
L 211.906296 197.992894 
L 215.189497 201.555067 
L 218.592122 205.892662 
L 222.025077 210.94363 
L 225.402312 216.630688 
L 228.642864 222.862698 
L 231.672732 229.536355 
L 234.426573 236.538145 
L 236.849143 243.746541 
L 238.896484 251.034384 
L 240.53681 258.271405 
L 241.751077 265.326826 
L 242.533239 272.071992 
L 242.890157 278.38298 
L 242.841204 284.143112 
L 242.417538 289.245342 
L 241.661094 293.594445 
L 241.173821 295.460535 
L 240.623301 297.108974 
L 240.017199 298.532007 
L 239.36357 299.722936 
L 238.670806 300.676147 
L 237.947575 301.387148 
L 237.202758 301.852584 
L 236.445389 302.070259 
L 235.68459 302.039144 
L 234.929506 301.759387 
L 234.189243 301.232309 
L 233.472804 300.460396 
L 232.789021 299.447289 
L 232.146499 298.197765 
L 231.553551 296.717711 
L 231.018142 295.014092 
L 230.547826 293.09492 
L 230.149701 290.969206 
L 229.595788 286.13894 
L 229.402063 280.613567 
L 229.603857 274.495944 
L 230.225064 267.899407 
L 231.277302 260.945453 
L 232.759391 253.761263 
L 234.657151 246.477128 
L 236.943524 239.223814 
L 239.579029 232.12995 
L 242.512531 225.31946 
L 245.682318 218.909132 
L 249.01745 213.006344 
L 252.439364 207.707008 
L 255.863686 203.093782 
L 259.202216 199.234569 
L 262.365042 196.181347 
L 263.852536 194.968664 
L 265.26272 193.969355 
L 266.584852 193.185133 
L 267.808492 192.61663 
L 268.923573 192.263398 
L 269.920464 192.123927 
L 270.790036 192.195657 
L 271.523717 192.475005 
L 272.113557 192.957393 
L 272.552278 193.637277 
L 272.833327 194.508192 
L 272.950922 195.562792 
L 272.900099 196.792898 
L 272.676748 198.189552 
L 272.277649 199.74307 
L 271.7005 201.443103 
L 270.943944 203.2787 
L 270.007587 205.238374 
L 267.598791 209.481728 
L 264.490629 214.073164 
L 260.715365 218.908627 
L 256.320666 223.88237 
L 251.368902 228.889316 
L 245.936109 233.827368 
L 240.11063 238.59961 
L 233.991464 243.116356 
L 227.686348 247.297 
L 221.309633 251.071624 
L 214.979968 254.382334 
L 208.817876 257.184292 
L 202.943245 259.446434 
L 197.472812 261.151836 
L 192.517672 262.297758 
L 188.180891 262.895339 
L 186.273841 262.995628 
L 184.555258 262.968965 
L 183.034799 262.820314 
L 181.721234 262.555333 
L 180.622398 262.180334 
L 179.745143 261.702228 
L 179.0953 261.128479 
L 178.677642 260.467046 
L 178.495855 259.726329 
L 178.552514 258.915106 
L 178.849064 258.042474 
L 179.385804 257.117787 
L 180.161889 256.150585 
L 181.175318 255.15054 
L 182.422949 254.127378 
L 183.900504 253.090822 
L 185.602589 252.050526 
L 187.522717 251.016005 
L 191.98586 249.001305 
L 197.217395 247.117787 
L 203.129702 245.4305 
L 209.621746 243.996763 
L 216.581049 242.864678 
L 223.885879 242.071877 
L 231.407661 241.644542 
L 239.01351 241.596733 
L 246.568877 241.93002 
L 253.940212 242.633445 
L 260.997619 243.683804 
L 267.617423 245.046248 
L 273.684619 246.675185 
L 279.095116 248.515469 
L 283.757773 250.503832 
L 287.59614 252.570543 
L 289.186703 253.610168 
L 290.549901 254.64124 
L 291.680895 255.654061 
L 292.575973 256.638898 
L 293.232564 257.586045 
L 293.649243 258.485887 
L 293.825738 259.328969 
L 293.762923 260.106057 
L 293.462809 260.808208 
L 292.928529 261.426822 
L 292.164316 261.953715 
L 291.175477 262.381168 
L 289.968357 262.701985 
L 288.550306 262.90955 
L 286.929633 262.997872 
L 285.115556 262.961635 
L 283.118155 262.796236 
L 280.948311 262.497828 
L 276.138463 261.490566 
L 270.786711 259.925327 
L 265.002365 257.80134 
L 258.900979 255.131972 
L 252.601889 251.944775 
L 246.225698 248.281197 
L 239.891754 244.195952 
L 233.715703 239.756066 
L 227.807146 235.039615 
L 222.267452 230.134179 
L 217.187796 225.13505 
L 212.647429 220.143233 
L 208.712249 215.263273 
L 205.433677 210.600968 
L 202.847873 206.26102 
L 200.975305 202.344662 
L 200.308562 200.575443 
L 199.820667 198.947335 
L 199.509788 197.470996 
L 199.37316 196.156449 
L 199.407114 195.013023 
L 199.607108 194.049294 
L 199.967765 193.27303 
L 200.482911 192.691143 
L 201.145625 192.309642 
L 201.948285 192.133592 
L 202.882625 192.167078 
L 203.939785 192.413175 
L 205.110378 192.87392 
L 206.384547 193.550294 
L 207.752031 194.442206 
L 209.202229 195.548484 
L 210.724272 196.866872 
L 212.307086 198.394034 
L 215.610139 202.05598 
L 219.021385 206.486464 
L 222.451996 211.621468 
L 225.816448 217.381896 
L 229.034549 223.674991 
L 232.033293 230.396059 
L 234.748525 237.430459 
L 237.126353 244.655829 
L 239.124298 251.944479 
L 240.712143 259.165933 
L 241.872461 266.189536 
L 242.60083 272.887083 
L 242.905705 279.135419 
L 242.807977 284.818945 
L 242.340212 289.831976 
L 241.545608 294.08091 
L 241.041828 295.89337 
L 240.476678 297.486144 
L 239.857925 298.851737 
L 239.193714 299.983719 
L 238.492511 300.876756 
L 237.763044 301.526635 
L 237.014237 301.930291 
L 236.255154 302.085818 
L 235.494926 301.992483 
L 234.742697 301.650727 
L 234.007552 301.062161 
L 233.298456 300.229563 
L 232.624192 299.156861 
L 231.993297 297.84911 
L 231.414002 296.31247 
L 230.894175 294.554172 
L 230.441261 292.582481 
L 230.062233 290.406654 
L 229.551046 285.484286 
L 229.405053 279.87902 
L 229.658213 273.695144 
L 230.332922 267.047145 
L 231.439222 260.057367 
L 232.974312 252.853524 
L 234.922388 245.566109 
L 237.25481 238.325764 
L 239.930589 231.260668 
L 242.897205 224.493984 
L 246.091712 218.141443 
L 249.442126 212.309096 
L 252.869053 207.091294 
L 256.28753 202.568922 
L 259.609026 198.807952 
L 262.743566 195.858307 
L 264.212754 194.698748 
L 265.601922 193.753092 
L 266.900396 193.022783 
L 268.097824 192.508181 
L 269.184242 192.208572 
L 270.150138 192.122182 
L 270.986517 192.246192 
L 271.684959 192.576768 
L 272.237674 193.109085 
L 272.637562 193.837368 
L 272.878258 194.754927 
L 272.954181 195.854202 
L 272.860577 197.126814 
L 272.593556 198.563619 
L 272.150123 200.15476 
L 271.528212 201.889733 
L 270.726705 203.757446 
L 269.74545 205.746288 
L 267.248006 210.038727 
L 264.054372 214.666414 
L 260.198762 219.524954 
L 255.730727 224.508554 
L 250.714409 229.512386 
L 245.227464 234.434883 
L 239.359662 239.179923 
L 233.211203 243.65886 
L 226.890773 247.79234 
L 220.513388 251.511882 
L 214.198067 254.761172 
L 208.065392 257.497065 
L 202.234994 259.690247 
L 196.823039 261.325576 
L 191.939747 262.402067 
L 187.687019 262.932557 
L 185.826135 263.000683 
L 184.156211 262.943029 
L 182.686689 262.764739 
L 181.42611 262.471638 
L 180.382065 262.070191 
L 179.561157 261.567455 
L 178.968955 260.97102 
L 178.609962 260.288963 
L 178.48759 259.529782 
L 178.604131 258.702343 
L 178.960744 257.815813 
L 179.557445 256.879596 
L 180.393098 255.903274 
L 181.465417 254.896536 
L 182.770974 253.869116 
L 184.30521 252.830724 
L 186.062456 251.790986 
L 188.035955 250.759375 
L 192.599438 248.757292 
L 197.921155 246.894889 
L 203.911708 245.236336 
L 210.468523 243.837879 
L 217.477837 242.746373 
L 224.816932 241.998066 
L 232.356549 241.617657 
L 236.16 241.569811 
L 236.16 241.569811 
" clip-path="url(#pb76b66c84d)" style="fill: none; stroke: #1f77b4; stroke-width: 1.5; stroke-linecap: square"/>
   </g>
   <g id="patch_8">
    <path d="M 172.720349 307.584 
L 172.720349 186.624 
" style="fill: none; stroke: #000000; stroke-width: 0.8; stroke-linejoin: miter; stroke-linecap: square"/>
   </g>
   <g id="patch_9">
    <path d="M 299.599651 307.584 
L 299.599651 186.624 
" style="fill: none; stroke: #000000; stroke-width: 0.8; stroke-linejoin: miter; stroke-linecap: square"/>
   </g>
   <g id="patch_10">
    <path d="M 172.720349 307.584 
L 299.599651 307.584 
" style="fill: none; stroke: #000000; stroke-width: 0.8; stroke-linejoin: miter; stroke-linecap: square"/>
   </g>
   <g id="patch_11">
    <path d="M 172.720349 186.624 
L 299.599651 186.624 
" style="fill: none; stroke: #000000; stroke-width: 0.8; stroke-linejoin: miter; stroke-linecap: square"/>
   </g>
  </g>
 </g>
 <defs>
  <clipPath id="p8b55cb725f">
   <rect x="57.6" y="41.472" width="357.12" height="120.96"/>
  </clipPath>
  <clipPath id="pb76b66c84d">
   <rect x="172.720349" y="186.624" width="126.879302" height="120.96"/>
  </clipPath>
 </defs>
</svg>
