<?xml version="1.0" encoding="utf-8" standalone="no"?>
<!DOCTYPE svg PUBLIC "-//W3C//DTD SVG 1.1//EN"
  "http://www.w3.org/Graphics/SVG/1.1/DTD/svg11.dtd">
<svg xmlns:xlink="http://www.w3.org/1999/xlink" width="460.8pt" height="345.6pt" viewBox="0 0 460.8 345.6" xmlns="http://www.w3.org/2000/svg" version="1.1">
 <metadata>
  <rdf:RDF xmlns:dc="http://purl.org/dc/elements/1.1/" xmlns:cc="http://creativecommons.org/ns#" xmlns:rdf="http://www.w3.org/1999/02/22-rdf-syntax-ns#">
   <cc:Work>
    <dc:type rdf:resource="http://purl.org/dc/dcmitype/StillImage"/>
    <dc:date>2025-10-28T17:37:26.635478</dc:date>
    <dc:format>image/svg+xml</dc:format>
    <dc:creator>
     <cc:Agent>
      <dc:title>Matplotlib v3.6.3, https://matplotlib.org/</dc:title>
     </cc:Agent>
    </dc:creator>
   </cc:Work>
  </rdf:RDF>
 </metadata>
 <defs>
  <style type="text/css">*{stroke-linejoin: round; stroke-linecap: butt}</style>
 </defs>
 <g id="figure_1">
  <g id="patch_1">
   <path d="M 0 345.6 
L 460.8 345.6 
L 460.8 0 
L 0 0 
z
" style="fill: #ffffff"/>
  </g>
  <g id="axes_1">
   <g id="patch_2">
    <path d="M 57.6 162.432 
L 414.72 162.432 
L 414.72 41.472 
L 57.6 41.472 
z
" style="fill: #ffffff"/>
   </g>
   <g id="matplotlib.axis_1">
    <g id="xtick_1">
     <g id="line2d_1">
      <defs>
       <path id="m0cffb03043" d="M 0 0 
L 0 3.5 
" style="stroke: #000000; stroke-width: 0.8"/>
      </defs>
      <g>
       <use xlink:href="#m0cffb03043" x="73.832727" y="162.432" style="stroke: #000000; stroke-width: 0.8"/>
      </g>
     </g>
     <g id="text_1">
      <!-- 0.0 -->
      <g transform="translate(65.881165 177.030437) scale(0.1 -0.1)">
       <defs>
        <path id="DejaVuSans-30" d="M 2034 4250 
Q 1547 4250 1301 3770 
Q 1056 3291 1056 2328 
Q 1056 1369 1301 889 
Q 1547 409 2034 409 
Q 2525 409 2770 889 
Q 3016 1369 3016 2328 
Q 3016 3291 2770 3770 
Q 2525 4250 2034 4250 
z
M 2034 4750 
Q 2819 4750 3233 4129 
Q 3647 3509 3647 2328 
Q 3647 1150 3233 529 
Q 2819 -91 2034 -91 
Q 1250 -91 836 529 
Q 422 1150 422 2328 
Q 422 3509 836 4129 
Q 1250 4750 2034 4750 
z
" transform="scale(0.015625)"/>
        <path id="DejaVuSans-2e" d="M 684 794 
L 1344 794 
L 1344 0 
L 684 0 
L 684 794 
z
" transform="scale(0.015625)"/>
       </defs>
       <use xlink:href="#DejaVuSans-30"/>
       <use xlink:href="#DejaVuSans-2e" x="63.623047"/>
       <use xlink:href="#DejaVuSans-30" x="95.410156"/>
      </g>
     </g>
    </g>
    <g id="xtick_2">
     <g id="line2d_2">
      <g>
       <use xlink:href="#m0cffb03043" x="138.763636" y="162.432" style="stroke: #000000; stroke-width: 0.8"/>
      </g>
     </g>
     <g id="text_2">
      <!-- 0.2 -->
      <g transform="translate(130.812074 177.030437) scale(0.1 -0.1)">
       <defs>
        <path id="DejaVuSans-32" d="M 1228 531 
L 3431 531 
L 3431 0 
L 469 0 
L 469 531 
Q 828 903 1448 1529 
Q 2069 2156 2228 2338 
Q 2531 2678 2651 2914 
Q 2772 3150 2772 3378 
Q 2772 3750 2511 3984 
Q 2250 4219 1831 4219 
Q 1534 4219 1204 4116 
Q 875 4013 500 3803 
L 500 4441 
Q 881 4594 1212 4672 
Q 1544 4750 1819 4750 
Q 2544 4750 2975 4387 
Q 3406 4025 3406 3419 
Q 3406 3131 3298 2873 
Q 3191 2616 2906 2266 
Q 2828 2175 2409 1742 
Q 1991 1309 1228 531 
z
" transform="scale(0.015625)"/>
       </defs>
       <use xlink:href="#DejaVuSans-30"/>
       <use xlink:href="#DejaVuSans-2e" x="63.623047"/>
       <use xlink:href="#DejaVuSans-32" x="95.410156"/>
      </g>
     </g>
    </g>
    <g id="xtick_3">
     <g id="line2d_3">
      <g>
       <use xlink:href="#m0cffb03043" x="203.694545" y="162.432" style="stroke: #000000; stroke-width: 0.8"/>
      </g>
     </g>
     <g id="text_3">
      <!-- 0.4 -->
      <g transform="translate(195.742983 177.030437) scale(0.1 -0.1)">
       <defs>
        <path id="DejaVuSans-34" d="M 2419 4116 
L 825 1625 
L 2419 1625 
L 2419 4116 
z
M 2253 4666 
L 3047 4666 
L 3047 1625 
L 3713 1625 
L 3713 1100 
L 3047 1100 
L 3047 0 
L 2419 0 
L 2419 1100 
L 313 1100 
L 313 1709 
L 2253 4666 
z
" transform="scale(0.015625)"/>
       </defs>
       <use xlink:href="#DejaVuSans-30"/>
       <use xlink:href="#DejaVuSans-2e" x="63.623047"/>
       <use xlink:href="#DejaVuSans-34" x="95.410156"/>
      </g>
     </g>
    </g>
    <g id="xtick_4">
     <g id="line2d_4">
      <g>
       <use xlink:href="#m0cffb03043" x="268.625455" y="162.432" style="stroke: #000000; stroke-width: 0.8"/>
      </g>
     </g>
     <g id="text_4">
      <!-- 0.6 -->
      <g transform="translate(260.673892 177.030437) scale(0.1 -0.1)">
       <defs>
        <path id="DejaVuSans-36" d="M 2113 2584 
Q 1688 2584 1439 2293 
Q 1191 2003 1191 1497 
Q 1191 994 1439 701 
Q 1688 409 2113 409 
Q 2538 409 2786 701 
Q 3034 994 3034 1497 
Q 3034 2003 2786 2293 
Q 2538 2584 2113 2584 
z
M 3366 4563 
L 3366 3988 
Q 3128 4100 2886 4159 
Q 2644 4219 2406 4219 
Q 1781 4219 1451 3797 
Q 1122 3375 1075 2522 
Q 1259 2794 1537 2939 
Q 1816 3084 2150 3084 
Q 2853 3084 3261 2657 
Q 3669 2231 3669 1497 
Q 3669 778 3244 343 
Q 2819 -91 2113 -91 
Q 1303 -91 875 529 
Q 447 1150 447 2328 
Q 447 3434 972 4092 
Q 1497 4750 2381 4750 
Q 2619 4750 2861 4703 
Q 3103 4656 3366 4563 
z
" transform="scale(0.015625)"/>
       </defs>
       <use xlink:href="#DejaVuSans-30"/>
       <use xlink:href="#DejaVuSans-2e" x="63.623047"/>
       <use xlink:href="#DejaVuSans-36" x="95.410156"/>
      </g>
     </g>
    </g>
    <g id="xtick_5">
     <g id="line2d_5">
      <g>
       <use xlink:href="#m0cffb03043" x="333.556364" y="162.432" style="stroke: #000000; stroke-width: 0.8"/>
      </g>
     </g>
     <g id="text_5">
      <!-- 0.8 -->
      <g transform="translate(325.604801 177.030437) scale(0.1 -0.1)">
       <defs>
        <path id="DejaVuSans-38" d="M 2034 2216 
Q 1584 2216 1326 1975 
Q 1069 1734 1069 1313 
Q 1069 891 1326 650 
Q 1584 409 2034 409 
Q 2484 409 2743 651 
Q 3003 894 3003 1313 
Q 3003 1734 2745 1975 
Q 2488 2216 2034 2216 
z
M 1403 2484 
Q 997 2584 770 2862 
Q 544 3141 544 3541 
Q 544 4100 942 4425 
Q 1341 4750 2034 4750 
Q 2731 4750 3128 4425 
Q 3525 4100 3525 3541 
Q 3525 3141 3298 2862 
Q 3072 2584 2669 2484 
Q 3125 2378 3379 2068 
Q 3634 1759 3634 1313 
Q 3634 634 3220 271 
Q 2806 -91 2034 -91 
Q 1263 -91 848 271 
Q 434 634 434 1313 
Q 434 1759 690 2068 
Q 947 2378 1403 2484 
z
M 1172 3481 
Q 1172 3119 1398 2916 
Q 1625 2713 2034 2713 
Q 2441 2713 2670 2916 
Q 2900 3119 2900 3481 
Q 2900 3844 2670 4047 
Q 2441 4250 2034 4250 
Q 1625 4250 1398 4047 
Q 1172 3844 1172 3481 
z
" transform="scale(0.015625)"/>
       </defs>
       <use xlink:href="#DejaVuSans-30"/>
       <use xlink:href="#DejaVuSans-2e" x="63.623047"/>
       <use xlink:href="#DejaVuSans-38" x="95.410156"/>
      </g>
     </g>
    </g>
    <g id="xtick_6">
     <g id="line2d_6">
      <g>
       <use xlink:href="#m0cffb03043" x="398.487273" y="162.432" style="stroke: #000000; stroke-width: 0.8"/>
      </g>
     </g>
     <g id="text_6">
      <!-- 1.0 -->
      <g transform="translate(390.53571 177.030437) scale(0.1 -0.1)">
       <defs>
        <path id="DejaVuSans-31" d="M 794 531 
L 1825 531 
L 1825 4091 
L 703 3866 
L 703 4441 
L 1819 4666 
L 2450 4666 
L 2450 531 
L 3481 531 
L 3481 0 
L 794 0 
L 794 531 
z
" transform="scale(0.015625)"/>
       </defs>
       <use xlink:href="#DejaVuSans-31"/>
       <use xlink:href="#DejaVuSans-2e" x="63.623047"/>
       <use xlink:href="#DejaVuSans-30" x="95.410156"/>
      </g>
     </g>
    </g>
   </g>
   <g id="matplotlib.axis_2">
    <g id="ytick_1">
     <g id="line2d_7">
      <defs>
       <path id="mf20dcc709d" d="M 0 0 
L -3.5 0 
" style="stroke: #000000; stroke-width: 0.8"/>
      </defs>
      <g>
       <use xlink:href="#mf20dcc709d" x="57.6" y="156.933886" style="stroke: #000000; stroke-width: 0.8"/>
      </g>
     </g>
     <g id="text_7">
      <!-- −1.0 -->
      <g transform="translate(26.317187 160.733105) scale(0.1 -0.1)">
       <defs>
        <path id="DejaVuSans-2212" d="M 678 2272 
L 4684 2272 
L 4684 1741 
L 678 1741 
L 678 2272 
z
" transform="scale(0.015625)"/>
       </defs>
       <use xlink:href="#DejaVuSans-2212"/>
       <use xlink:href="#DejaVuSans-31" x="83.789062"/>
       <use xlink:href="#DejaVuSans-2e" x="147.412109"/>
       <use xlink:href="#DejaVuSans-30" x="179.199219"/>
      </g>
     </g>
    </g>
    <g id="ytick_2">
     <g id="line2d_8">
      <g>
       <use xlink:href="#mf20dcc709d" x="57.6" y="129.442943" style="stroke: #000000; stroke-width: 0.8"/>
      </g>
     </g>
     <g id="text_8">
      <!-- −0.5 -->
      <g transform="translate(26.317187 133.242162) scale(0.1 -0.1)">
       <defs>
        <path id="DejaVuSans-35" d="M 691 4666 
L 3169 4666 
L 3169 4134 
L 1269 4134 
L 1269 2991 
Q 1406 3038 1543 3061 
Q 1681 3084 1819 3084 
Q 2600 3084 3056 2656 
Q 3513 2228 3513 1497 
Q 3513 744 3044 326 
Q 2575 -91 1722 -91 
Q 1428 -91 1123 -41 
Q 819 9 494 109 
L 494 744 
Q 775 591 1075 516 
Q 1375 441 1709 441 
Q 2250 441 2565 725 
Q 2881 1009 2881 1497 
Q 2881 1984 2565 2268 
Q 2250 2553 1709 2553 
Q 1456 2553 1204 2497 
Q 953 2441 691 2322 
L 691 4666 
z
" transform="scale(0.015625)"/>
       </defs>
       <use xlink:href="#DejaVuSans-2212"/>
       <use xlink:href="#DejaVuSans-30" x="83.789062"/>
       <use xlink:href="#DejaVuSans-2e" x="147.412109"/>
       <use xlink:href="#DejaVuSans-35" x="179.199219"/>
      </g>
     </g>
    </g>
    <g id="ytick_3">
     <g id="line2d_9">
      <g>
       <use xlink:href="#mf20dcc709d" x="57.6" y="101.952" style="stroke: #000000; stroke-width: 0.8"/>
      </g>
     </g>
     <g id="text_9">
      <!-- 0.0 -->
      <g transform="translate(34.696875 105.751219) scale(0.1 -0.1)">
       <use xlink:href="#DejaVuSans-30"/>
       <use xlink:href="#DejaVuSans-2e" x="63.623047"/>
       <use xlink:href="#DejaVuSans-30" x="95.410156"/>
      </g>
     </g>
    </g>
    <g id="ytick_4">
     <g id="line2d_10">
      <g>
       <use xlink:href="#mf20dcc709d" x="57.6" y="74.461057" style="stroke: #000000; stroke-width: 0.8"/>
      </g>
     </g>
     <g id="text_10">
      <!-- 0.5 -->
      <g transform="translate(34.696875 78.260276) scale(0.1 -0.1)">
       <use xlink:href="#DejaVuSans-30"/>
       <use xlink:href="#DejaVuSans-2e" x="63.623047"/>
       <use xlink:href="#DejaVuSans-35" x="95.410156"/>
      </g>
     </g>
    </g>
    <g id="ytick_5">
     <g id="line2d_11">
      <g>
       <use xlink:href="#mf20dcc709d" x="57.6" y="46.970114" style="stroke: #000000; stroke-width: 0.8"/>
      </g>
     </g>
     <g id="text_11">
      <!-- 1.0 -->
      <g transform="translate(34.696875 50.769333) scale(0.1 -0.1)">
       <use xlink:href="#DejaVuSans-31"/>
       <use xlink:href="#DejaVuSans-2e" x="63.623047"/>
       <use xlink:href="#DejaVuSans-30" x="95.410156"/>
      </g>
     </g>
    </g>
   </g>
   <g id="line2d_12">
    <path d="M 73.832727 101.952 
L 76.432563 75.440035 
L 77.732482 64.28407 
L 78.70742 57.44025 
L 79.682359 52.176431 
L 80.332318 49.639788 
L 80.982277 47.92979 
L 81.307256 47.393751 
L 81.632236 47.073459 
L 81.957215 46.970182 
L 82.282195 47.084327 
L 82.607174 47.415443 
L 83.257133 48.722499 
L 83.907093 50.870695 
L 84.557052 53.826086 
L 85.53199 59.66719 
L 86.506929 67.009247 
L 87.806847 78.676482 
L 89.756724 98.668786 
L 92.68154 128.615308 
L 93.981458 139.745696 
L 94.956396 146.565027 
L 95.931335 151.800764 
L 96.581294 154.317176 
L 97.231253 156.006106 
L 97.556233 156.531402 
L 97.881212 156.840865 
L 98.206192 156.933274 
L 98.531171 156.808263 
L 98.856151 156.466325 
L 99.50611 155.137933 
L 100.156069 152.969089 
L 100.806028 149.994065 
L 101.780966 144.126086 
L 102.755905 136.761086 
L 104.055823 125.070757 
L 106.0057 105.062603 
L 108.930516 75.137612 
L 110.230434 64.032913 
L 111.205373 57.238136 
L 112.180311 52.030533 
L 112.83027 49.534377 
L 113.480229 47.866532 
L 113.805209 47.351986 
L 114.130188 47.053352 
L 114.455168 46.971813 
L 114.780147 47.10769 
L 115.105127 47.460445 
L 115.755086 48.810161 
L 116.405045 50.999632 
L 117.055004 53.994259 
L 118.029943 59.889054 
L 119.004881 67.276925 
L 120.304799 78.990233 
L 122.254676 99.014039 
L 124.854513 125.852245 
L 126.154431 137.425952 
L 127.129369 144.67551 
L 128.104308 150.408543 
L 128.754267 153.28511 
L 129.404226 155.350504 
L 130.054185 156.572087 
L 130.379165 156.859887 
L 130.704144 156.930556 
L 131.029124 156.783815 
L 131.354103 156.420245 
L 132.004062 155.04922 
L 132.654021 152.839144 
L 133.30398 149.824943 
L 134.278919 143.90339 
L 135.253857 136.49272 
L 136.553776 124.75655 
L 138.503653 104.71729 
L 141.103489 77.89616 
L 142.403407 66.346122 
L 143.378346 59.119869 
L 144.353284 53.413996 
L 145.003243 50.557206 
L 145.653202 48.512564 
L 146.303161 47.31238 
L 146.628141 47.035417 
L 146.95312 46.975619 
L 147.2781 47.133222 
L 147.603079 47.507603 
L 148.253038 48.899925 
L 148.902998 51.130583 
L 149.552957 54.164329 
L 150.527895 60.112581 
L 151.502834 67.545975 
L 152.802752 79.304892 
L 154.752629 99.359408 
L 157.352465 126.163197 
L 158.652383 137.689452 
L 159.627322 144.892329 
L 160.60226 150.570985 
L 161.252219 153.40797 
L 161.902179 155.431839 
L 162.552138 156.610612 
L 162.877117 156.876736 
L 163.202097 156.925662 
L 163.527076 156.757199 
L 163.852056 156.372011 
L 164.502015 154.958406 
L 165.151974 152.707187 
L 165.801933 149.653926 
L 166.776871 143.679034 
L 167.75181 136.222989 
L 169.051728 124.441441 
L 171.001605 104.371868 
L 173.601441 77.585685 
L 174.90136 66.083327 
L 175.876298 58.903898 
L 176.851237 53.252514 
L 177.501196 50.435364 
L 178.151155 48.432287 
L 178.801114 47.274936 
L 179.126093 47.019654 
L 179.451073 46.9816 
L 179.776052 47.160923 
L 180.101032 47.556914 
L 180.750991 48.991787 
L 181.40095 51.263545 
L 182.050909 54.33629 
L 183.025848 60.337764 
L 184.000786 67.816386 
L 185.300704 79.620448 
L 187.250581 99.704879 
L 189.850418 126.473191 
L 191.150336 137.951538 
L 192.125274 145.10745 
L 193.100213 150.731505 
L 193.750172 153.528793 
L 194.400131 155.511058 
L 195.05009 156.646975 
L 195.37507 156.891412 
L 195.700049 156.918594 
L 196.025029 156.728414 
L 196.350008 156.321623 
L 196.999967 154.865496 
L 197.649926 152.573221 
L 198.299885 149.481023 
L 199.274824 143.453027 
L 200.249762 135.951901 
L 201.549681 124.125443 
L 203.499558 104.026351 
L 206.099394 77.276175 
L 207.399312 65.821952 
L 208.374251 58.68963 
L 209.349189 53.092959 
L 209.999148 50.315559 
L 210.649107 48.354126 
L 211.299066 47.239655 
L 211.624046 47.006065 
L 211.949025 46.989755 
L 212.274005 47.190791 
L 212.598984 47.608377 
L 213.248943 49.085745 
L 213.898903 51.398513 
L 214.548862 54.510134 
L 215.5238 60.564592 
L 216.498739 68.088148 
L 217.798657 79.936886 
L 220.073514 103.507925 
L 222.34837 126.782215 
L 223.648288 138.212201 
L 224.623227 145.320863 
L 225.598165 150.890094 
L 226.248124 153.647577 
L 226.898084 155.588159 
L 227.548043 156.681175 
L 227.873022 156.903915 
L 228.198002 156.909352 
L 228.522981 156.697462 
L 228.847961 156.269085 
L 229.49792 154.770492 
L 230.147879 152.437253 
L 230.797838 149.30624 
L 231.772776 143.225379 
L 232.747715 135.679469 
L 234.047633 123.808567 
L 236.32249 100.223249 
L 238.597346 76.96764 
L 239.897265 65.562006 
L 240.872203 58.477073 
L 241.847142 52.935337 
L 242.497101 50.197798 
L 243.14706 48.278086 
L 243.797019 47.206538 
L 244.121998 46.994648 
L 244.446978 47.000085 
L 244.771957 47.222825 
L 245.096937 47.66199 
L 245.746896 49.181794 
L 246.396855 51.53548 
L 247.046814 54.685855 
L 248.021753 60.793058 
L 248.996691 68.361248 
L 250.296609 80.254196 
L 252.571466 103.85356 
L 254.846323 127.090257 
L 256.146241 138.471428 
L 257.121179 145.532561 
L 258.096118 151.046748 
L 258.746077 153.764316 
L 259.396036 155.663138 
L 260.045995 156.713209 
L 260.370975 156.914245 
L 260.695954 156.897935 
L 261.020934 156.664345 
L 261.345913 156.214398 
L 261.995872 154.673399 
L 262.645831 152.299289 
L 263.29579 149.129583 
L 264.270729 142.996098 
L 265.245667 135.405702 
L 266.545586 123.490827 
L 268.820442 99.877649 
L 271.095299 76.660094 
L 272.395217 65.303499 
L 273.370156 58.266236 
L 274.345094 52.779653 
L 274.995053 50.082083 
L 275.645012 48.204169 
L 276.294971 47.175586 
L 276.619951 46.985406 
L 276.94493 47.012588 
L 277.26991 47.257025 
L 277.594889 47.71775 
L 278.244848 49.27993 
L 278.894808 51.674441 
L 279.544767 54.863446 
L 280.519705 61.023152 
L 281.494644 68.635678 
L 282.794562 80.572363 
L 285.069419 104.199121 
L 287.344275 127.397305 
L 288.644193 138.729212 
L 289.619132 145.742535 
L 290.59407 151.20146 
L 291.244029 153.879005 
L 291.893989 155.735992 
L 292.543948 156.743077 
L 292.868927 156.9224 
L 293.193907 156.884346 
L 293.518886 156.629064 
L 293.843866 156.157565 
L 294.493825 154.574221 
L 295.143784 152.159332 
L 295.793743 148.95106 
L 296.768681 142.765194 
L 297.74362 135.130612 
L 299.043538 123.172235 
L 301.318395 99.532132 
L 303.593251 76.353548 
L 304.89317 65.046442 
L 305.868108 58.057127 
L 306.843047 52.625915 
L 307.493006 49.968421 
L 308.142965 48.132378 
L 308.792924 47.146801 
L 309.117903 46.978338 
L 309.442883 47.027264 
L 309.767862 47.293388 
L 310.092842 47.775656 
L 310.742801 49.380149 
L 311.39276 51.815391 
L 312.042719 55.042899 
L 313.017658 61.254864 
L 313.992596 68.911425 
L 315.292514 80.891377 
L 317.567371 104.544592 
L 319.842228 127.703346 
L 321.142146 138.98554 
L 322.117084 145.950777 
L 323.092023 151.354223 
L 323.741982 153.99164 
L 324.391941 155.806719 
L 325.0419 156.770778 
L 325.36688 156.928381 
L 325.691859 156.868583 
L 326.016839 156.59162 
L 326.341818 156.098588 
L 326.991777 154.472961 
L 327.641736 152.01739 
L 328.291695 148.770678 
L 329.266634 142.532675 
L 330.241572 134.85421 
L 331.541491 122.852803 
L 333.816347 99.18671 
L 336.091204 76.048015 
L 337.391122 64.790844 
L 338.366061 57.849754 
L 339.340999 52.474128 
L 339.990958 49.856814 
L 340.640917 48.062716 
L 341.290876 47.120185 
L 341.615856 46.973444 
L 341.940835 47.044113 
L 342.265815 47.331913 
L 342.590794 47.835704 
L 343.240753 49.482449 
L 343.890713 51.958325 
L 344.540672 55.224208 
L 345.51561 61.488187 
L 346.490549 69.18848 
L 347.790467 81.211224 
L 350.065324 104.889961 
L 352.34018 128.008368 
L 353.640098 139.240404 
L 354.615037 146.157279 
L 355.589975 151.505032 
L 356.239934 154.102216 
L 356.889894 155.875315 
L 357.539853 156.79631 
L 357.864832 156.932187 
L 358.189812 156.850648 
L 358.514791 156.552014 
L 358.839771 156.037468 
L 359.48973 154.369623 
L 360.139689 151.873467 
L 360.789648 148.588444 
L 361.764586 142.298551 
L 362.739525 134.576506 
L 364.039443 122.532545 
L 366.3143 98.841397 
L 368.589156 75.743507 
L 369.889075 64.536717 
L 370.864013 57.644126 
L 371.838952 52.324298 
L 372.488911 49.747269 
L 373.13887 47.995186 
L 373.788829 47.095737 
L 374.113808 46.970726 
L 374.438788 47.063135 
L 374.763767 47.372598 
L 375.088747 47.897894 
L 375.738706 49.586824 
L 376.388665 52.103236 
L 377.038624 55.407365 
L 378.013563 61.723111 
L 378.988501 69.46683 
L 380.288419 81.531891 
L 382.563276 105.235214 
L 384.838133 128.312359 
L 386.138051 139.493792 
L 387.112989 146.362031 
L 388.087928 151.653881 
L 388.737887 154.21073 
L 389.387846 155.941779 
L 390.037805 156.819673 
L 390.362785 156.933818 
L 390.687764 156.830541 
L 391.012744 156.510249 
L 391.662703 155.224542 
L 392.312662 153.097015 
L 392.962621 150.161288 
L 393.937559 144.347115 
L 394.912498 137.028074 
L 396.212416 125.384049 
L 398.162293 105.407792 
L 398.487273 101.952 
L 398.487273 101.952 
" clip-path="url(#pbd6e6a2cff)" style="fill: none; stroke: #1f77b4; stroke-width: 1.5; stroke-linecap: square"/>
   </g>
   <g id="patch_3">
    <path d="M 57.6 162.432 
L 57.6 41.472 
" style="fill: none; stroke: #000000; stroke-width: 0.8; stroke-linejoin: miter; stroke-linecap: square"/>
   </g>
   <g id="patch_4">
    <path d="M 414.72 162.432 
L 414.72 41.472 
" style="fill: none; stroke: #000000; stroke-width: 0.8; stroke-linejoin: miter; stroke-linecap: square"/>
   </g>
   <g id="patch_5">
    <path d="M 57.6 162.432 
L 414.72 162.432 
" style="fill: none; stroke: #000000; stroke-width: 0.8; stroke-linejoin: miter; stroke-linecap: square"/>
   </g>
   <g id="patch_6">
    <path d="M 57.6 41.472 
L 414.72 41.472 
" style="fill: none; stroke: #000000; stroke-width: 0.8; stroke-linejoin: miter; stroke-linecap: square"/>
   </g>
  </g>
  <g id="axes_2">
   <g id="patch_7">
    <path d="M 175.672441 307.584 
L 296.647559 307.584 
L 296.647559 186.624 
L 175.672441 186.624 
z
" style="fill: #ffffff"/>
   </g>
   <g id="matplotlib.axis_3">
    <g id="xtick_7">
     <g id="line2d_13">
      <g>
       <use xlink:href="#m0cffb03043" x="180.487109" y="307.584" style="stroke: #000000; stroke-width: 0.8"/>
      </g>
     </g>
     <g id="text_12">
      <!-- −1 -->
      <g transform="translate(173.116016 322.182437) scale(0.1 -0.1)">
       <use xlink:href="#DejaVuSans-2212"/>
       <use xlink:href="#DejaVuSans-31" x="83.789062"/>
      </g>
     </g>
    </g>
    <g id="xtick_8">
     <g id="line2d_14">
      <g>
       <use xlink:href="#m0cffb03043" x="236.16" y="307.584" style="stroke: #000000; stroke-width: 0.8"/>
      </g>
     </g>
     <g id="text_13">
      <!-- 0 -->
      <g transform="translate(232.97875 322.182437) scale(0.1 -0.1)">
       <use xlink:href="#DejaVuSans-30"/>
      </g>
     </g>
    </g>
    <g id="xtick_9">
     <g id="line2d_15">
      <g>
       <use xlink:href="#m0cffb03043" x="291.832891" y="307.584" style="stroke: #000000; stroke-width: 0.8"/>
      </g>
     </g>
     <g id="text_14">
      <!-- 1 -->
      <g transform="translate(288.651641 322.182437) scale(0.1 -0.1)">
       <use xlink:href="#DejaVuSans-31"/>
      </g>
     </g>
    </g>
   </g>
   <g id="matplotlib.axis_4">
    <g id="ytick_6">
     <g id="line2d_16">
      <g>
       <use xlink:href="#mf20dcc709d" x="175.672441" y="302.764481" style="stroke: #000000; stroke-width: 0.8"/>
      </g>
     </g>
     <g id="text_15">
      <!-- −1.0 -->
      <g transform="translate(144.389629 306.5637) scale(0.1 -0.1)">
       <use xlink:href="#DejaVuSans-2212"/>
       <use xlink:href="#DejaVuSans-31" x="83.789062"/>
       <use xlink:href="#DejaVuSans-2e" x="147.412109"/>
       <use xlink:href="#DejaVuSans-30" x="179.199219"/>
      </g>
     </g>
    </g>
    <g id="ytick_7">
     <g id="line2d_17">
      <g>
       <use xlink:href="#mf20dcc709d" x="175.672441" y="274.928036" style="stroke: #000000; stroke-width: 0.8"/>
      </g>
     </g>
     <g id="text_16">
      <!-- −0.5 -->
      <g transform="translate(144.389629 278.727255) scale(0.1 -0.1)">
       <use xlink:href="#DejaVuSans-2212"/>
       <use xlink:href="#DejaVuSans-30" x="83.789062"/>
       <use xlink:href="#DejaVuSans-2e" x="147.412109"/>
       <use xlink:href="#DejaVuSans-35" x="179.199219"/>
      </g>
     </g>
    </g>
    <g id="ytick_8">
     <g id="line2d_18">
      <g>
       <use xlink:href="#mf20dcc709d" x="175.672441" y="247.091591" style="stroke: #000000; stroke-width: 0.8"/>
      </g>
     </g>
     <g id="text_17">
      <!-- 0.0 -->
      <g transform="translate(152.769316 250.890809) scale(0.1 -0.1)">
       <use xlink:href="#DejaVuSans-30"/>
       <use xlink:href="#DejaVuSans-2e" x="63.623047"/>
       <use xlink:href="#DejaVuSans-30" x="95.410156"/>
      </g>
     </g>
    </g>
    <g id="ytick_9">
     <g id="line2d_19">
      <g>
       <use xlink:href="#mf20dcc709d" x="175.672441" y="219.255145" style="stroke: #000000; stroke-width: 0.8"/>
      </g>
     </g>
     <g id="text_18">
      <!-- 0.5 -->
      <g transform="translate(152.769316 223.054364) scale(0.1 -0.1)">
       <use xlink:href="#DejaVuSans-30"/>
       <use xlink:href="#DejaVuSans-2e" x="63.623047"/>
       <use xlink:href="#DejaVuSans-35" x="95.410156"/>
      </g>
     </g>
    </g>
    <g id="ytick_10">
     <g id="line2d_20">
      <g>
       <use xlink:href="#mf20dcc709d" x="175.672441" y="191.4187" style="stroke: #000000; stroke-width: 0.8"/>
      </g>
     </g>
     <g id="text_19">
      <!-- 1.0 -->
      <g transform="translate(152.769316 195.217919) scale(0.1 -0.1)">
       <use xlink:href="#DejaVuSans-31"/>
       <use xlink:href="#DejaVuSans-2e" x="63.623047"/>
       <use xlink:href="#DejaVuSans-30" x="95.410156"/>
      </g>
     </g>
    </g>
   </g>
   <g id="line2d_21">
    <path d="M 236.16 247.091591 
L 243.144059 247.179447 
L 250.014465 247.440214 
L 256.659485 247.865544 
L 262.971189 248.441757 
L 268.847268 249.150163 
L 274.192755 249.967526 
L 278.921622 250.866626 
L 282.958212 251.816931 
L 286.2385 252.785351 
L 288.711147 253.73706 
L 290.338339 254.636375 
L 290.826922 255.05522 
L 291.096383 255.447656 
L 291.146027 255.809385 
L 290.976072 256.136227 
L 290.587647 256.424148 
L 289.982787 256.669285 
L 288.136359 257.016776 
L 285.470678 257.152225 
L 282.033062 257.053497 
L 277.8834 256.703469 
L 273.093082 256.090599 
L 267.743735 255.209386 
L 261.925791 254.060688 
L 255.73691 252.651917 
L 249.280283 250.997077 
L 242.66286 249.11667 
L 235.99351 247.037437 
L 229.381167 244.791973 
L 222.932988 242.41819 
L 216.752549 239.95866 
L 210.938117 237.459836 
L 205.581026 234.971168 
L 200.764185 232.544142 
L 196.560744 230.231241 
L 193.032935 228.084867 
L 190.231117 226.156232 
L 188.193033 224.49425 
L 186.943286 223.144447 
L 186.618061 222.599654 
L 186.493059 222.147915 
L 186.567571 221.793512 
L 186.840057 221.540333 
L 187.308156 221.391844 
L 187.968698 221.351067 
L 189.850518 221.602386 
L 192.44481 222.308795 
L 195.699456 223.476513 
L 199.551963 225.103097 
L 203.930655 227.177239 
L 208.75602 229.678729 
L 213.942177 232.578586 
L 219.398437 235.839379 
L 225.030926 239.415707 
L 230.744248 243.254851 
L 236.443149 247.297582 
L 242.034161 251.479114 
L 247.427193 255.730177 
L 252.537033 259.978211 
L 257.28475 264.148635 
L 261.598966 268.166195 
L 265.416967 271.95634 
L 268.685654 275.446619 
L 271.362298 278.56807 
L 273.415111 281.256561 
L 274.823597 283.454078 
L 275.578712 285.109915 
L 275.711549 285.721126 
L 275.682802 286.181758 
L 275.494501 286.487989 
L 275.149346 286.636629 
L 274.650687 286.625144 
L 274.0025 286.451673 
L 272.276457 285.614783 
L 270.014635 284.125026 
L 267.268714 281.99288 
L 264.097541 279.240263 
L 260.565922 275.900356 
L 256.743332 272.017219 
L 252.702559 267.645198 
L 248.518319 262.848146 
L 244.265857 257.698449 
L 240.019572 252.275896 
L 235.851683 246.666386 
L 231.830961 240.960519 
L 228.021555 235.252074 
L 224.481929 229.636411 
L 221.263928 224.20883 
L 218.411989 219.062895 
L 215.962511 214.288783 
L 213.943389 209.971664 
L 212.373728 206.190146 
L 211.263721 203.014828 
L 210.614712 200.50697 
L 210.419425 198.717315 
L 210.487388 198.104543 
L 210.66235 197.685082 
L 210.941178 197.461899 
L 211.320295 197.437154 
L 211.795714 197.612178 
L 212.363056 197.987471 
L 213.75423 199.336648 
L 215.452113 201.471818 
L 217.410698 204.366713 
L 219.580724 207.981982 
L 221.910768 212.265735 
L 224.348359 217.15432 
L 226.84108 222.573299 
L 229.337645 228.438634 
L 231.788925 234.658039 
L 234.148908 241.132493 
L 236.375563 247.757876 
L 238.43161 254.42671 
L 240.285159 261.029965 
L 241.910229 267.458913 
L 243.287123 273.606974 
L 244.402655 279.371551 
L 245.250239 284.655799 
L 245.829825 289.370303 
L 246.147691 293.434638 
L 246.216102 296.778789 
L 246.052841 299.344383 
L 245.680625 301.085738 
L 245.42444 301.636729 
L 245.12642 301.970692 
L 244.790471 302.085818 
L 244.420669 301.981205 
L 244.021224 301.656862 
L 243.596459 301.113714 
L 242.688636 299.379251 
L 241.732895 296.803296 
L 240.764863 293.425394 
L 239.819194 289.298519 
L 238.928702 284.488211 
L 238.123546 279.071497 
L 237.430481 273.135606 
L 236.872205 266.77651 
L 236.466804 260.097318 
L 236.227307 253.206537 
L 236.161376 246.216245 
L 236.271115 239.240198 
L 236.55302 232.391915 
L 236.998065 225.782755 
L 237.591922 219.520044 
L 238.315307 213.705264 
L 239.14445 208.432349 
L 240.05168 203.786107 
L 241.006103 199.840804 
L 241.974365 196.658934 
L 242.921484 194.290185 
L 243.811733 192.770636 
L 244.224384 192.336718 
L 244.609542 192.122182 
L 244.962936 192.127494 
L 245.28042 192.352208 
L 245.557999 192.794967 
L 245.791859 193.453513 
L 246.114211 195.404483 
L 246.221502 198.169511 
L 246.092188 201.699655 
L 245.709816 205.933525 
L 245.063576 210.798381 
L 244.148747 216.211412 
L 242.967 222.081194 
L 241.526569 228.309282 
L 239.842282 234.791913 
L 237.935434 241.421801 
L 235.833525 248.089964 
L 233.569845 254.68759 
L 231.182929 261.107873 
L 228.715876 267.247808 
L 226.215566 273.009908 
L 223.731757 278.303814 
L 221.316117 283.047767 
L 219.021181 287.169922 
L 216.89926 290.609484 
L 215.00134 293.317633 
L 213.375972 295.258247 
L 212.068182 296.408389 
L 211.546231 296.683538 
L 211.11844 296.758562 
L 210.788994 296.63438 
L 210.56168 296.312737 
L 210.439853 295.7962 
L 210.426422 295.088135 
L 210.734 293.114786 
L 211.497907 290.434877 
L 212.723297 287.10188 
L 214.406627 283.179506 
L 216.535475 278.740487 
L 219.088522 273.865212 
L 222.035712 268.640251 
L 225.338587 263.156781 
L 228.950792 257.508958 
L 232.818747 251.792251 
L 236.882475 246.101779 
L 241.076565 240.530673 
L 245.331272 235.168496 
L 249.57371 230.099749 
L 253.729141 225.402483 
L 257.722321 221.147053 
L 261.478886 217.395019 
L 264.926747 214.19822 
L 267.997472 211.598045 
L 270.627625 209.624887 
L 272.760043 208.297812 
L 274.345012 207.624435 
L 274.91897 207.532147 
L 275.341336 207.601 
L 275.608443 207.828793 
L 275.717263 208.212663 
L 275.665429 208.749101 
L 275.451252 209.433976 
L 274.532572 211.229545 
L 272.961708 213.554864 
L 270.750571 216.357294 
L 267.9225 219.577176 
L 264.512063 223.149047 
L 260.56464 227.002943 
L 256.135813 231.06576 
L 251.290558 235.262638 
L 246.102253 239.518365 
L 240.651522 243.75874 
L 235.024932 247.911911 
L 229.313567 251.90962 
L 223.611489 255.688373 
L 218.014145 259.190486 
L 212.616706 262.365 
L 207.512405 265.168452 
L 202.79088 267.565483 
L 198.536562 269.529284 
L 194.827137 271.041863 
L 191.732107 272.094139 
L 189.311477 272.685861 
L 187.6146 272.825361 
L 187.049834 272.730379 
L 186.679196 272.529138 
L 186.505452 272.224887 
L 186.530557 271.821305 
L 186.755634 271.32248 
L 187.180974 270.732883 
L 188.629381 269.300992 
L 190.861225 267.567928 
L 193.848582 265.580164 
L 197.550498 263.387292 
L 201.913568 261.040925 
L 206.872732 258.593589 
L 212.352284 256.097618 
L 218.267078 253.604082 
L 224.5239 251.161771 
L 231.023 248.816247 
L 237.659742 246.608984 
L 244.326352 244.576622 
L 250.913739 242.750337 
L 257.31334 241.155344 
L 263.418976 239.810535 
L 269.128671 238.728271 
L 274.346421 237.914316 
L 278.983851 237.367915 
L 282.961765 237.08202 
L 286.211538 237.043648 
L 288.67633 237.234365 
L 290.312109 237.630883 
L 290.809062 237.897883 
L 291.08845 238.205759 
L 291.14869 238.550558 
L 290.989107 238.928171 
L 290.609941 239.334355 
L 289.198377 240.21498 
L 286.934091 241.156951 
L 283.851416 242.124506 
L 279.998379 243.082525 
L 275.435923 243.997402 
L 270.236907 244.837892 
L 264.484896 245.575882 
L 258.272766 246.187082 
L 251.701145 246.651618 
L 244.876727 246.95452 
L 237.910469 247.086086 
L 230.915723 247.042114 
L 224.006321 246.824007 
L 217.294655 246.438738 
L 210.889781 245.898683 
L 204.895578 245.221315 
L 199.409002 244.428784 
L 194.518459 243.547373 
L 190.302324 242.606854 
L 186.827636 241.639751 
L 184.148993 240.680537 
L 182.307657 239.764765 
L 181.330893 238.928171 
L 181.17131 238.550558 
L 181.23155 238.205759 
L 181.510938 237.897883 
L 182.007891 237.630883 
L 183.64367 237.234365 
L 186.108462 237.043648 
L 189.358235 237.08202 
L 193.336149 237.367915 
L 197.973579 237.914316 
L 203.191329 238.728271 
L 208.901024 239.810535 
L 215.00666 241.155344 
L 221.406261 242.750337 
L 227.993648 244.576622 
L 234.660258 246.608984 
L 241.297 248.816247 
L 247.7961 251.161771 
L 254.052922 253.604082 
L 259.967716 256.097618 
L 265.447268 258.593589 
L 270.406432 261.040925 
L 274.769502 263.387292 
L 278.471418 265.580164 
L 281.458775 267.567928 
L 283.690619 269.300992 
L 285.139026 270.732883 
L 285.789443 271.821305 
L 285.814548 272.224887 
L 285.640804 272.529138 
L 285.270166 272.730379 
L 284.7054 272.825361 
L 283.008523 272.685861 
L 280.587893 272.094139 
L 277.492863 271.041863 
L 273.783438 269.529284 
L 269.52912 267.565483 
L 264.807595 265.168452 
L 259.703294 262.365 
L 254.305855 259.190486 
L 248.708511 255.688373 
L 243.006433 251.90962 
L 237.295068 247.911911 
L 231.668478 243.75874 
L 226.217747 239.518365 
L 221.029442 235.262638 
L 216.184187 231.06576 
L 211.75536 227.002943 
L 207.807937 223.149047 
L 204.3975 219.577176 
L 201.569429 216.357294 
L 199.358292 213.554864 
L 197.787428 211.229545 
L 196.868748 209.433976 
L 196.602737 208.212663 
L 196.711557 207.828793 
L 196.978664 207.601 
L 197.40103 207.532147 
L 197.974988 207.624435 
L 199.559957 208.297812 
L 201.692375 209.624887 
L 204.322528 211.598045 
L 207.393253 214.19822 
L 210.841114 217.395019 
L 214.597679 221.147053 
L 218.590859 225.402483 
L 222.74629 230.099749 
L 226.988728 235.168496 
L 231.243435 240.530673 
L 235.437525 246.101779 
L 239.501253 251.792251 
L 243.369208 257.508958 
L 246.981413 263.156781 
L 250.284288 268.640251 
L 253.231478 273.865212 
L 255.784525 278.740487 
L 257.913373 283.179506 
L 259.596703 287.10188 
L 260.822093 290.434877 
L 261.586 293.114786 
L 261.893578 295.088135 
L 261.880147 295.7962 
L 261.75832 296.312737 
L 261.531006 296.63438 
L 261.20156 296.758562 
L 260.773769 296.683538 
L 260.251818 296.408389 
L 258.944028 295.258247 
L 257.31866 293.317633 
L 255.42074 290.609484 
L 253.298819 287.169922 
L 251.003883 283.047767 
L 248.588243 278.303814 
L 246.104434 273.009908 
L 243.604124 267.247808 
L 241.137071 261.107873 
L 238.750155 254.68759 
L 236.486475 248.089964 
L 234.384566 241.421801 
L 232.477718 234.791913 
L 230.793431 228.309282 
L 229.353 222.081194 
L 228.171253 216.211412 
L 227.256424 210.798381 
L 226.610184 205.933525 
L 226.227812 201.699655 
L 226.098498 198.169511 
L 226.205789 195.404483 
L 226.528141 193.453513 
L 226.762001 192.794967 
L 227.03958 192.352208 
L 227.357064 192.127494 
L 227.710458 192.122182 
L 228.095616 192.336718 
L 228.508267 192.770636 
L 229.398516 194.290185 
L 230.345635 196.658934 
L 231.313897 199.840804 
L 232.26832 203.786107 
L 233.17555 208.432349 
L 234.004693 213.705264 
L 234.728078 219.520044 
L 235.321935 225.782755 
L 235.76698 232.391915 
L 236.048885 239.240198 
L 236.158624 246.216245 
L 236.092693 253.206537 
L 235.853196 260.097318 
L 235.447795 266.77651 
L 234.889519 273.135606 
L 234.196454 279.071497 
L 233.391298 284.488211 
L 232.500806 289.298519 
L 231.555137 293.425394 
L 230.587105 296.803296 
L 229.631364 299.379251 
L 228.723541 301.113714 
L 228.298776 301.656862 
L 227.899331 301.981205 
L 227.529529 302.085818 
L 227.19358 301.970692 
L 226.89556 301.636729 
L 226.639375 301.085738 
L 226.267159 299.344383 
L 226.103898 296.778789 
L 226.172309 293.434638 
L 226.490175 289.370303 
L 227.069761 284.655799 
L 227.917345 279.371551 
L 229.032877 273.606974 
L 230.409771 267.458913 
L 232.034841 261.029965 
L 233.88839 254.42671 
L 235.944437 247.757876 
L 238.171092 241.132493 
L 240.531075 234.658039 
L 242.982355 228.438634 
L 245.47892 222.573299 
L 247.971641 217.15432 
L 250.409232 212.265735 
L 252.739276 207.981982 
L 254.909302 204.366713 
L 256.867887 201.471818 
L 258.56577 199.336648 
L 259.956944 197.987471 
L 260.524286 197.612178 
L 260.999705 197.437154 
L 261.378822 197.461899 
L 261.65765 197.685082 
L 261.832612 198.104543 
L 261.900575 198.717315 
L 261.705288 200.50697 
L 261.056279 203.014828 
L 259.946272 206.190146 
L 258.376611 209.971664 
L 256.357489 214.288783 
L 253.908011 219.062895 
L 251.056072 224.20883 
L 247.838071 229.636411 
L 244.298445 235.252074 
L 240.489039 240.960519 
L 236.468317 246.666386 
L 232.300428 252.275896 
L 228.054143 257.698449 
L 223.801681 262.848146 
L 219.617441 267.645198 
L 215.576668 272.017219 
L 211.754078 275.900356 
L 208.222459 279.240263 
L 205.051286 281.99288 
L 202.305365 284.125026 
L 200.043543 285.614783 
L 198.3175 286.451673 
L 197.669313 286.625144 
L 197.170654 286.636629 
L 196.825499 286.487989 
L 196.637198 286.181758 
L 196.608451 285.721126 
L 196.741288 285.109915 
L 197.496403 283.454078 
L 198.904889 281.256561 
L 200.957702 278.56807 
L 203.634346 275.446619 
L 206.903033 271.95634 
L 210.721034 268.166195 
L 215.03525 264.148635 
L 219.782967 259.978211 
L 224.892807 255.730177 
L 230.285839 251.479114 
L 235.876851 247.297582 
L 241.575752 243.254851 
L 247.289074 239.415707 
L 252.921563 235.839379 
L 258.377823 232.578586 
L 263.56398 229.678729 
L 268.389345 227.177239 
L 272.768037 225.103097 
L 276.620544 223.476513 
L 279.87519 222.308795 
L 282.469482 221.602386 
L 284.351302 221.351067 
L 285.011844 221.391844 
L 285.479943 221.540333 
L 285.752429 221.793512 
L 285.826941 222.147915 
L 285.701939 222.599654 
L 285.376714 223.144447 
L 284.126967 224.49425 
L 282.088883 226.156232 
L 279.287065 228.084867 
L 275.759256 230.231241 
L 271.555815 232.544142 
L 266.738974 234.971168 
L 261.381883 237.459836 
L 255.567451 239.95866 
L 249.387012 242.41819 
L 242.938833 244.791973 
L 236.32649 247.037437 
L 229.65714 249.11667 
L 223.039717 250.997077 
L 216.58309 252.651917 
L 210.394209 254.060688 
L 204.576265 255.209386 
L 199.226918 256.090599 
L 194.4366 256.703469 
L 190.286938 257.053497 
L 186.849322 257.152225 
L 184.183641 257.016776 
L 182.337213 256.669285 
L 181.732353 256.424148 
L 181.343928 256.136227 
L 181.173973 255.809385 
L 181.223617 255.447656 
L 181.493078 255.05522 
L 181.981661 254.636375 
L 183.608853 253.73706 
L 186.0815 252.785351 
L 189.361788 251.816931 
L 193.398378 250.866626 
L 198.127245 249.967526 
L 203.472732 249.150163 
L 209.348811 248.441757 
L 215.660515 247.865544 
L 222.305535 247.440214 
L 229.175941 247.179447 
L 236.16 247.091591 
L 236.16 247.091591 
" clip-path="url(#p3e70b6930e)" style="fill: none; stroke: #1f77b4; stroke-width: 1.5; stroke-linecap: square"/>
   </g>
   <g id="patch_8">
    <path d="M 175.672441 307.584 
L 175.672441 186.624 
" style="fill: none; stroke: #000000; stroke-width: 0.8; stroke-linejoin: miter; stroke-linecap: square"/>
   </g>
   <g id="patch_9">
    <path d="M 296.647559 307.584 
L 296.647559 186.624 
" style="fill: none; stroke: #000000; stroke-width: 0.8; stroke-linejoin: miter; stroke-linecap: square"/>
   </g>
   <g id="patch_10">
    <path d="M 175.672441 307.584 
L 296.647559 307.584 
" style="fill: none; stroke: #000000; stroke-width: 0.8; stroke-linejoin: miter; stroke-linecap: square"/>
   </g>
   <g id="patch_11">
    <path d="M 175.672441 186.624 
L 296.647559 186.624 
" style="fill: none; stroke: #000000; stroke-width: 0.8; stroke-linejoin: miter; stroke-linecap: square"/>
   </g>
  </g>
 </g>
 <defs>
  <clipPath id="pbd6e6a2cff">
   <rect x="57.6" y="41.472" width="357.12" height="120.96"/>
  </clipPath>
  <clipPath id="p3e70b6930e">
   <rect x="175.672441" y="186.624" width="120.975118" height="120.96"/>
  </clipPath>
 </defs>
</svg>
