<?xml version="1.0" encoding="utf-8" standalone="no"?>
<!DOCTYPE svg PUBLIC "-//W3C//DTD SVG 1.1//EN"
  "http://www.w3.org/Graphics/SVG/1.1/DTD/svg11.dtd">
<svg xmlns:xlink="http://www.w3.org/1999/xlink" width="460.8pt" height="345.6pt" viewBox="0 0 460.8 345.6" xmlns="http://www.w3.org/2000/svg" version="1.1">
 <metadata>
  <rdf:RDF xmlns:dc="http://purl.org/dc/elements/1.1/" xmlns:cc="http://creativecommons.org/ns#" xmlns:rdf="http://www.w3.org/1999/02/22-rdf-syntax-ns#">
   <cc:Work>
    <dc:type rdf:resource="http://purl.org/dc/dcmitype/StillImage"/>
    <dc:date>2025-10-28T17:37:26.826101</dc:date>
    <dc:format>image/svg+xml</dc:format>
    <dc:creator>
     <cc:Agent>
      <dc:title>Matplotlib v3.6.3, https://matplotlib.org/</dc:title>
     </cc:Agent>
    </dc:creator>
   </cc:Work>
  </rdf:RDF>
 </metadata>
 <defs>
  <style type="text/css">*{stroke-linejoin: round; stroke-linecap: butt}</style>
 </defs>
 <g id="figure_1">
  <g id="patch_1">
   <path d="M 0 345.6 
L 460.8 345.6 
L 460.8 0 
L 0 0 
z
" style="fill: #ffffff"/>
  </g>
  <g id="axes_1">
   <g id="patch_2">
    <path d="M 57.6 162.432 
L 414.72 162.432 
L 414.72 41.472 
L 57.6 41.472 
z
" style="fill: #ffffff"/>
   </g>
   <g id="matplotlib.axis_1">
    <g id="xtick_1">
     <g id="line2d_1">
      <defs>
       <path id="m3dc8315242" d="M 0 0 
L 0 3.5 
" style="stroke: #000000; stroke-width: 0.8"/>
      </defs>
      <g>
       <use xlink:href="#m3dc8315242" x="73.832727" y="162.432" style="stroke: #000000; stroke-width: 0.8"/>
      </g>
     </g>
     <g id="text_1">
      <!-- 0.0 -->
      <g transform="translate(65.881165 177.030437) scale(0.1 -0.1)">
       <defs>
        <path id="DejaVuSans-30" d="M 2034 4250 
Q 1547 4250 1301 3770 
Q 1056 3291 1056 2328 
Q 1056 1369 1301 889 
Q 1547 409 2034 409 
Q 2525 409 2770 889 
Q 3016 1369 3016 2328 
Q 3016 3291 2770 3770 
Q 2525 4250 2034 4250 
z
M 2034 4750 
Q 2819 4750 3233 4129 
Q 3647 3509 3647 2328 
Q 3647 1150 3233 529 
Q 2819 -91 2034 -91 
Q 1250 -91 836 529 
Q 422 1150 422 2328 
Q 422 3509 836 4129 
Q 1250 4750 2034 4750 
z
" transform="scale(0.015625)"/>
        <path id="DejaVuSans-2e" d="M 684 794 
L 1344 794 
L 1344 0 
L 684 0 
L 684 794 
z
" transform="scale(0.015625)"/>
       </defs>
       <use xlink:href="#DejaVuSans-30"/>
       <use xlink:href="#DejaVuSans-2e" x="63.623047"/>
       <use xlink:href="#DejaVuSans-30" x="95.410156"/>
      </g>
     </g>
    </g>
    <g id="xtick_2">
     <g id="line2d_2">
      <g>
       <use xlink:href="#m3dc8315242" x="138.763636" y="162.432" style="stroke: #000000; stroke-width: 0.8"/>
      </g>
     </g>
     <g id="text_2">
      <!-- 0.2 -->
      <g transform="translate(130.812074 177.030437) scale(0.1 -0.1)">
       <defs>
        <path id="DejaVuSans-32" d="M 1228 531 
L 3431 531 
L 3431 0 
L 469 0 
L 469 531 
Q 828 903 1448 1529 
Q 2069 2156 2228 2338 
Q 2531 2678 2651 2914 
Q 2772 3150 2772 3378 
Q 2772 3750 2511 3984 
Q 2250 4219 1831 4219 
Q 1534 4219 1204 4116 
Q 875 4013 500 3803 
L 500 4441 
Q 881 4594 1212 4672 
Q 1544 4750 1819 4750 
Q 2544 4750 2975 4387 
Q 3406 4025 3406 3419 
Q 3406 3131 3298 2873 
Q 3191 2616 2906 2266 
Q 2828 2175 2409 1742 
Q 1991 1309 1228 531 
z
" transform="scale(0.015625)"/>
       </defs>
       <use xlink:href="#DejaVuSans-30"/>
       <use xlink:href="#DejaVuSans-2e" x="63.623047"/>
       <use xlink:href="#DejaVuSans-32" x="95.410156"/>
      </g>
     </g>
    </g>
    <g id="xtick_3">
     <g id="line2d_3">
      <g>
       <use xlink:href="#m3dc8315242" x="203.694545" y="162.432" style="stroke: #000000; stroke-width: 0.8"/>
      </g>
     </g>
     <g id="text_3">
      <!-- 0.4 -->
      <g transform="translate(195.742983 177.030437) scale(0.1 -0.1)">
       <defs>
        <path id="DejaVuSans-34" d="M 2419 4116 
L 825 1625 
L 2419 1625 
L 2419 4116 
z
M 2253 4666 
L 3047 4666 
L 3047 1625 
L 3713 1625 
L 3713 1100 
L 3047 1100 
L 3047 0 
L 2419 0 
L 2419 1100 
L 313 1100 
L 313 1709 
L 2253 4666 
z
" transform="scale(0.015625)"/>
       </defs>
       <use xlink:href="#DejaVuSans-30"/>
       <use xlink:href="#DejaVuSans-2e" x="63.623047"/>
       <use xlink:href="#DejaVuSans-34" x="95.410156"/>
      </g>
     </g>
    </g>
    <g id="xtick_4">
     <g id="line2d_4">
      <g>
       <use xlink:href="#m3dc8315242" x="268.625455" y="162.432" style="stroke: #000000; stroke-width: 0.8"/>
      </g>
     </g>
     <g id="text_4">
      <!-- 0.6 -->
      <g transform="translate(260.673892 177.030437) scale(0.1 -0.1)">
       <defs>
        <path id="DejaVuSans-36" d="M 2113 2584 
Q 1688 2584 1439 2293 
Q 1191 2003 1191 1497 
Q 1191 994 1439 701 
Q 1688 409 2113 409 
Q 2538 409 2786 701 
Q 3034 994 3034 1497 
Q 3034 2003 2786 2293 
Q 2538 2584 2113 2584 
z
M 3366 4563 
L 3366 3988 
Q 3128 4100 2886 4159 
Q 2644 4219 2406 4219 
Q 1781 4219 1451 3797 
Q 1122 3375 1075 2522 
Q 1259 2794 1537 2939 
Q 1816 3084 2150 3084 
Q 2853 3084 3261 2657 
Q 3669 2231 3669 1497 
Q 3669 778 3244 343 
Q 2819 -91 2113 -91 
Q 1303 -91 875 529 
Q 447 1150 447 2328 
Q 447 3434 972 4092 
Q 1497 4750 2381 4750 
Q 2619 4750 2861 4703 
Q 3103 4656 3366 4563 
z
" transform="scale(0.015625)"/>
       </defs>
       <use xlink:href="#DejaVuSans-30"/>
       <use xlink:href="#DejaVuSans-2e" x="63.623047"/>
       <use xlink:href="#DejaVuSans-36" x="95.410156"/>
      </g>
     </g>
    </g>
    <g id="xtick_5">
     <g id="line2d_5">
      <g>
       <use xlink:href="#m3dc8315242" x="333.556364" y="162.432" style="stroke: #000000; stroke-width: 0.8"/>
      </g>
     </g>
     <g id="text_5">
      <!-- 0.8 -->
      <g transform="translate(325.604801 177.030437) scale(0.1 -0.1)">
       <defs>
        <path id="DejaVuSans-38" d="M 2034 2216 
Q 1584 2216 1326 1975 
Q 1069 1734 1069 1313 
Q 1069 891 1326 650 
Q 1584 409 2034 409 
Q 2484 409 2743 651 
Q 3003 894 3003 1313 
Q 3003 1734 2745 1975 
Q 2488 2216 2034 2216 
z
M 1403 2484 
Q 997 2584 770 2862 
Q 544 3141 544 3541 
Q 544 4100 942 4425 
Q 1341 4750 2034 4750 
Q 2731 4750 3128 4425 
Q 3525 4100 3525 3541 
Q 3525 3141 3298 2862 
Q 3072 2584 2669 2484 
Q 3125 2378 3379 2068 
Q 3634 1759 3634 1313 
Q 3634 634 3220 271 
Q 2806 -91 2034 -91 
Q 1263 -91 848 271 
Q 434 634 434 1313 
Q 434 1759 690 2068 
Q 947 2378 1403 2484 
z
M 1172 3481 
Q 1172 3119 1398 2916 
Q 1625 2713 2034 2713 
Q 2441 2713 2670 2916 
Q 2900 3119 2900 3481 
Q 2900 3844 2670 4047 
Q 2441 4250 2034 4250 
Q 1625 4250 1398 4047 
Q 1172 3844 1172 3481 
z
" transform="scale(0.015625)"/>
       </defs>
       <use xlink:href="#DejaVuSans-30"/>
       <use xlink:href="#DejaVuSans-2e" x="63.623047"/>
       <use xlink:href="#DejaVuSans-38" x="95.410156"/>
      </g>
     </g>
    </g>
    <g id="xtick_6">
     <g id="line2d_6">
      <g>
       <use xlink:href="#m3dc8315242" x="398.487273" y="162.432" style="stroke: #000000; stroke-width: 0.8"/>
      </g>
     </g>
     <g id="text_6">
      <!-- 1.0 -->
      <g transform="translate(390.53571 177.030437) scale(0.1 -0.1)">
       <defs>
        <path id="DejaVuSans-31" d="M 794 531 
L 1825 531 
L 1825 4091 
L 703 3866 
L 703 4441 
L 1819 4666 
L 2450 4666 
L 2450 531 
L 3481 531 
L 3481 0 
L 794 0 
L 794 531 
z
" transform="scale(0.015625)"/>
       </defs>
       <use xlink:href="#DejaVuSans-31"/>
       <use xlink:href="#DejaVuSans-2e" x="63.623047"/>
       <use xlink:href="#DejaVuSans-30" x="95.410156"/>
      </g>
     </g>
    </g>
   </g>
   <g id="matplotlib.axis_2">
    <g id="ytick_1">
     <g id="line2d_7">
      <defs>
       <path id="m3f4d23d451" d="M 0 0 
L -3.5 0 
" style="stroke: #000000; stroke-width: 0.8"/>
      </defs>
      <g>
       <use xlink:href="#m3f4d23d451" x="57.6" y="156.933886" style="stroke: #000000; stroke-width: 0.8"/>
      </g>
     </g>
     <g id="text_7">
      <!-- −1.0 -->
      <g transform="translate(26.317187 160.733105) scale(0.1 -0.1)">
       <defs>
        <path id="DejaVuSans-2212" d="M 678 2272 
L 4684 2272 
L 4684 1741 
L 678 1741 
L 678 2272 
z
" transform="scale(0.015625)"/>
       </defs>
       <use xlink:href="#DejaVuSans-2212"/>
       <use xlink:href="#DejaVuSans-31" x="83.789062"/>
       <use xlink:href="#DejaVuSans-2e" x="147.412109"/>
       <use xlink:href="#DejaVuSans-30" x="179.199219"/>
      </g>
     </g>
    </g>
    <g id="ytick_2">
     <g id="line2d_8">
      <g>
       <use xlink:href="#m3f4d23d451" x="57.6" y="129.442943" style="stroke: #000000; stroke-width: 0.8"/>
      </g>
     </g>
     <g id="text_8">
      <!-- −0.5 -->
      <g transform="translate(26.317187 133.242162) scale(0.1 -0.1)">
       <defs>
        <path id="DejaVuSans-35" d="M 691 4666 
L 3169 4666 
L 3169 4134 
L 1269 4134 
L 1269 2991 
Q 1406 3038 1543 3061 
Q 1681 3084 1819 3084 
Q 2600 3084 3056 2656 
Q 3513 2228 3513 1497 
Q 3513 744 3044 326 
Q 2575 -91 1722 -91 
Q 1428 -91 1123 -41 
Q 819 9 494 109 
L 494 744 
Q 775 591 1075 516 
Q 1375 441 1709 441 
Q 2250 441 2565 725 
Q 2881 1009 2881 1497 
Q 2881 1984 2565 2268 
Q 2250 2553 1709 2553 
Q 1456 2553 1204 2497 
Q 953 2441 691 2322 
L 691 4666 
z
" transform="scale(0.015625)"/>
       </defs>
       <use xlink:href="#DejaVuSans-2212"/>
       <use xlink:href="#DejaVuSans-30" x="83.789062"/>
       <use xlink:href="#DejaVuSans-2e" x="147.412109"/>
       <use xlink:href="#DejaVuSans-35" x="179.199219"/>
      </g>
     </g>
    </g>
    <g id="ytick_3">
     <g id="line2d_9">
      <g>
       <use xlink:href="#m3f4d23d451" x="57.6" y="101.952" style="stroke: #000000; stroke-width: 0.8"/>
      </g>
     </g>
     <g id="text_9">
      <!-- 0.0 -->
      <g transform="translate(34.696875 105.751219) scale(0.1 -0.1)">
       <use xlink:href="#DejaVuSans-30"/>
       <use xlink:href="#DejaVuSans-2e" x="63.623047"/>
       <use xlink:href="#DejaVuSans-30" x="95.410156"/>
      </g>
     </g>
    </g>
    <g id="ytick_4">
     <g id="line2d_10">
      <g>
       <use xlink:href="#m3f4d23d451" x="57.6" y="74.461057" style="stroke: #000000; stroke-width: 0.8"/>
      </g>
     </g>
     <g id="text_10">
      <!-- 0.5 -->
      <g transform="translate(34.696875 78.260276) scale(0.1 -0.1)">
       <use xlink:href="#DejaVuSans-30"/>
       <use xlink:href="#DejaVuSans-2e" x="63.623047"/>
       <use xlink:href="#DejaVuSans-35" x="95.410156"/>
      </g>
     </g>
    </g>
    <g id="ytick_5">
     <g id="line2d_11">
      <g>
       <use xlink:href="#m3f4d23d451" x="57.6" y="46.970114" style="stroke: #000000; stroke-width: 0.8"/>
      </g>
     </g>
     <g id="text_11">
      <!-- 1.0 -->
      <g transform="translate(34.696875 50.769333) scale(0.1 -0.1)">
       <use xlink:href="#DejaVuSans-31"/>
       <use xlink:href="#DejaVuSans-2e" x="63.623047"/>
       <use xlink:href="#DejaVuSans-30" x="95.410156"/>
      </g>
     </g>
    </g>
   </g>
   <g id="line2d_12">
    <path d="M 73.832727 101.952 
L 76.432563 75.440035 
L 77.732482 64.28407 
L 78.70742 57.44025 
L 79.682359 52.176431 
L 80.332318 49.639788 
L 80.982277 47.92979 
L 81.307256 47.393751 
L 81.632236 47.073459 
L 81.957215 46.970182 
L 82.282195 47.084327 
L 82.607174 47.415443 
L 83.257133 48.722499 
L 83.907093 50.870695 
L 84.557052 53.826086 
L 85.53199 59.66719 
L 86.506929 67.009247 
L 87.806847 78.676482 
L 89.756724 98.668786 
L 92.68154 128.615308 
L 93.981458 139.745696 
L 94.956396 146.565027 
L 95.931335 151.800764 
L 96.581294 154.317176 
L 97.231253 156.006106 
L 97.556233 156.531402 
L 97.881212 156.840865 
L 98.206192 156.933274 
L 98.531171 156.808263 
L 98.856151 156.466325 
L 99.50611 155.137933 
L 100.156069 152.969089 
L 100.806028 149.994065 
L 101.780966 144.126086 
L 102.755905 136.761086 
L 104.055823 125.070757 
L 106.0057 105.062603 
L 108.930516 75.137612 
L 110.230434 64.032913 
L 111.205373 57.238136 
L 112.180311 52.030533 
L 112.83027 49.534377 
L 113.480229 47.866532 
L 113.805209 47.351986 
L 114.130188 47.053352 
L 114.455168 46.971813 
L 114.780147 47.10769 
L 115.105127 47.460445 
L 115.755086 48.810161 
L 116.405045 50.999632 
L 117.055004 53.994259 
L 118.029943 59.889054 
L 119.004881 67.276925 
L 120.304799 78.990233 
L 122.254676 99.014039 
L 124.854513 125.852245 
L 126.154431 137.425952 
L 127.129369 144.67551 
L 128.104308 150.408543 
L 128.754267 153.28511 
L 129.404226 155.350504 
L 130.054185 156.572087 
L 130.379165 156.859887 
L 130.704144 156.930556 
L 131.029124 156.783815 
L 131.354103 156.420245 
L 132.004062 155.04922 
L 132.654021 152.839144 
L 133.30398 149.824943 
L 134.278919 143.90339 
L 135.253857 136.49272 
L 136.553776 124.75655 
L 138.503653 104.71729 
L 141.103489 77.89616 
L 142.403407 66.346122 
L 143.378346 59.119869 
L 144.353284 53.413996 
L 145.003243 50.557206 
L 145.653202 48.512564 
L 146.303161 47.31238 
L 146.628141 47.035417 
L 146.95312 46.975619 
L 147.2781 47.133222 
L 147.603079 47.507603 
L 148.253038 48.899925 
L 148.902998 51.130583 
L 149.552957 54.164329 
L 150.527895 60.112581 
L 151.502834 67.545975 
L 152.802752 79.304892 
L 154.752629 99.359408 
L 157.352465 126.163197 
L 158.652383 137.689452 
L 159.627322 144.892329 
L 160.60226 150.570985 
L 161.252219 153.40797 
L 161.902179 155.431839 
L 162.552138 156.610612 
L 162.877117 156.876736 
L 163.202097 156.925662 
L 163.527076 156.757199 
L 163.852056 156.372011 
L 164.502015 154.958406 
L 165.151974 152.707187 
L 165.801933 149.653926 
L 166.776871 143.679034 
L 167.75181 136.222989 
L 169.051728 124.441441 
L 171.001605 104.371868 
L 173.601441 77.585685 
L 174.90136 66.083327 
L 175.876298 58.903898 
L 176.851237 53.252514 
L 177.501196 50.435364 
L 178.151155 48.432287 
L 178.801114 47.274936 
L 179.126093 47.019654 
L 179.451073 46.9816 
L 179.776052 47.160923 
L 180.101032 47.556914 
L 180.750991 48.991787 
L 181.40095 51.263545 
L 182.050909 54.33629 
L 183.025848 60.337764 
L 184.000786 67.816386 
L 185.300704 79.620448 
L 187.250581 99.704879 
L 189.850418 126.473191 
L 191.150336 137.951538 
L 192.125274 145.10745 
L 193.100213 150.731505 
L 193.750172 153.528793 
L 194.400131 155.511058 
L 195.05009 156.646975 
L 195.37507 156.891412 
L 195.700049 156.918594 
L 196.025029 156.728414 
L 196.350008 156.321623 
L 196.999967 154.865496 
L 197.649926 152.573221 
L 198.299885 149.481023 
L 199.274824 143.453027 
L 200.249762 135.951901 
L 201.549681 124.125443 
L 203.499558 104.026351 
L 206.099394 77.276175 
L 207.399312 65.821952 
L 208.374251 58.68963 
L 209.349189 53.092959 
L 209.999148 50.315559 
L 210.649107 48.354126 
L 211.299066 47.239655 
L 211.624046 47.006065 
L 211.949025 46.989755 
L 212.274005 47.190791 
L 212.598984 47.608377 
L 213.248943 49.085745 
L 213.898903 51.398513 
L 214.548862 54.510134 
L 215.5238 60.564592 
L 216.498739 68.088148 
L 217.798657 79.936886 
L 220.073514 103.507925 
L 222.34837 126.782215 
L 223.648288 138.212201 
L 224.623227 145.320863 
L 225.598165 150.890094 
L 226.248124 153.647577 
L 226.898084 155.588159 
L 227.548043 156.681175 
L 227.873022 156.903915 
L 228.198002 156.909352 
L 228.522981 156.697462 
L 228.847961 156.269085 
L 229.49792 154.770492 
L 230.147879 152.437253 
L 230.797838 149.30624 
L 231.772776 143.225379 
L 232.747715 135.679469 
L 234.047633 123.808567 
L 236.32249 100.223249 
L 238.597346 76.96764 
L 239.897265 65.562006 
L 240.872203 58.477073 
L 241.847142 52.935337 
L 242.497101 50.197798 
L 243.14706 48.278086 
L 243.797019 47.206538 
L 244.121998 46.994648 
L 244.446978 47.000085 
L 244.771957 47.222825 
L 245.096937 47.66199 
L 245.746896 49.181794 
L 246.396855 51.53548 
L 247.046814 54.685855 
L 248.021753 60.793058 
L 248.996691 68.361248 
L 250.296609 80.254196 
L 252.571466 103.85356 
L 254.846323 127.090257 
L 256.146241 138.471428 
L 257.121179 145.532561 
L 258.096118 151.046748 
L 258.746077 153.764316 
L 259.396036 155.663138 
L 260.045995 156.713209 
L 260.370975 156.914245 
L 260.695954 156.897935 
L 261.020934 156.664345 
L 261.345913 156.214398 
L 261.995872 154.673399 
L 262.645831 152.299289 
L 263.29579 149.129583 
L 264.270729 142.996098 
L 265.245667 135.405702 
L 266.545586 123.490827 
L 268.820442 99.877649 
L 271.095299 76.660094 
L 272.395217 65.303499 
L 273.370156 58.266236 
L 274.345094 52.779653 
L 274.995053 50.082083 
L 275.645012 48.204169 
L 276.294971 47.175586 
L 276.619951 46.985406 
L 276.94493 47.012588 
L 277.26991 47.257025 
L 277.594889 47.71775 
L 278.244848 49.27993 
L 278.894808 51.674441 
L 279.544767 54.863446 
L 280.519705 61.023152 
L 281.494644 68.635678 
L 282.794562 80.572363 
L 285.069419 104.199121 
L 287.344275 127.397305 
L 288.644193 138.729212 
L 289.619132 145.742535 
L 290.59407 151.20146 
L 291.244029 153.879005 
L 291.893989 155.735992 
L 292.543948 156.743077 
L 292.868927 156.9224 
L 293.193907 156.884346 
L 293.518886 156.629064 
L 293.843866 156.157565 
L 294.493825 154.574221 
L 295.143784 152.159332 
L 295.793743 148.95106 
L 296.768681 142.765194 
L 297.74362 135.130612 
L 299.043538 123.172235 
L 301.318395 99.532132 
L 303.593251 76.353548 
L 304.89317 65.046442 
L 305.868108 58.057127 
L 306.843047 52.625915 
L 307.493006 49.968421 
L 308.142965 48.132378 
L 308.792924 47.146801 
L 309.117903 46.978338 
L 309.442883 47.027264 
L 309.767862 47.293388 
L 310.092842 47.775656 
L 310.742801 49.380149 
L 311.39276 51.815391 
L 312.042719 55.042899 
L 313.017658 61.254864 
L 313.992596 68.911425 
L 315.292514 80.891377 
L 317.567371 104.544592 
L 319.842228 127.703346 
L 321.142146 138.98554 
L 322.117084 145.950777 
L 323.092023 151.354223 
L 323.741982 153.99164 
L 324.391941 155.806719 
L 325.0419 156.770778 
L 325.36688 156.928381 
L 325.691859 156.868583 
L 326.016839 156.59162 
L 326.341818 156.098588 
L 326.991777 154.472961 
L 327.641736 152.01739 
L 328.291695 148.770678 
L 329.266634 142.532675 
L 330.241572 134.85421 
L 331.541491 122.852803 
L 333.816347 99.18671 
L 336.091204 76.048015 
L 337.391122 64.790844 
L 338.366061 57.849754 
L 339.340999 52.474128 
L 339.990958 49.856814 
L 340.640917 48.062716 
L 341.290876 47.120185 
L 341.615856 46.973444 
L 341.940835 47.044113 
L 342.265815 47.331913 
L 342.590794 47.835704 
L 343.240753 49.482449 
L 343.890713 51.958325 
L 344.540672 55.224208 
L 345.51561 61.488187 
L 346.490549 69.18848 
L 347.790467 81.211224 
L 350.065324 104.889961 
L 352.34018 128.008368 
L 353.640098 139.240404 
L 354.615037 146.157279 
L 355.589975 151.505032 
L 356.239934 154.102216 
L 356.889894 155.875315 
L 357.539853 156.79631 
L 357.864832 156.932187 
L 358.189812 156.850648 
L 358.514791 156.552014 
L 358.839771 156.037468 
L 359.48973 154.369623 
L 360.139689 151.873467 
L 360.789648 148.588444 
L 361.764586 142.298551 
L 362.739525 134.576506 
L 364.039443 122.532545 
L 366.3143 98.841397 
L 368.589156 75.743507 
L 369.889075 64.536717 
L 370.864013 57.644126 
L 371.838952 52.324298 
L 372.488911 49.747269 
L 373.13887 47.995186 
L 373.788829 47.095737 
L 374.113808 46.970726 
L 374.438788 47.063135 
L 374.763767 47.372598 
L 375.088747 47.897894 
L 375.738706 49.586824 
L 376.388665 52.103236 
L 377.038624 55.407365 
L 378.013563 61.723111 
L 378.988501 69.46683 
L 380.288419 81.531891 
L 382.563276 105.235214 
L 384.838133 128.312359 
L 386.138051 139.493792 
L 387.112989 146.362031 
L 388.087928 151.653881 
L 388.737887 154.21073 
L 389.387846 155.941779 
L 390.037805 156.819673 
L 390.362785 156.933818 
L 390.687764 156.830541 
L 391.012744 156.510249 
L 391.662703 155.224542 
L 392.312662 153.097015 
L 392.962621 150.161288 
L 393.937559 144.347115 
L 394.912498 137.028074 
L 396.212416 125.384049 
L 398.162293 105.407792 
L 398.487273 101.952 
L 398.487273 101.952 
" clip-path="url(#pa49e7a56c0)" style="fill: none; stroke: #1f77b4; stroke-width: 1.5; stroke-linecap: square"/>
   </g>
   <g id="patch_3">
    <path d="M 57.6 162.432 
L 57.6 41.472 
" style="fill: none; stroke: #000000; stroke-width: 0.8; stroke-linejoin: miter; stroke-linecap: square"/>
   </g>
   <g id="patch_4">
    <path d="M 414.72 162.432 
L 414.72 41.472 
" style="fill: none; stroke: #000000; stroke-width: 0.8; stroke-linejoin: miter; stroke-linecap: square"/>
   </g>
   <g id="patch_5">
    <path d="M 57.6 162.432 
L 414.72 162.432 
" style="fill: none; stroke: #000000; stroke-width: 0.8; stroke-linejoin: miter; stroke-linecap: square"/>
   </g>
   <g id="patch_6">
    <path d="M 57.6 41.472 
L 414.72 41.472 
" style="fill: none; stroke: #000000; stroke-width: 0.8; stroke-linejoin: miter; stroke-linecap: square"/>
   </g>
  </g>
  <g id="axes_2">
   <g id="patch_7">
    <path d="M 175.668788 307.584 
L 296.651212 307.584 
L 296.651212 186.624 
L 175.668788 186.624 
z
" style="fill: #ffffff"/>
   </g>
   <g id="matplotlib.axis_3">
    <g id="xtick_7">
     <g id="line2d_13">
      <g>
       <use xlink:href="#m3dc8315242" x="180.699791" y="307.584" style="stroke: #000000; stroke-width: 0.8"/>
      </g>
     </g>
     <g id="text_12">
      <!-- −1 -->
      <g transform="translate(173.328697 322.182437) scale(0.1 -0.1)">
       <use xlink:href="#DejaVuSans-2212"/>
       <use xlink:href="#DejaVuSans-31" x="83.789062"/>
      </g>
     </g>
    </g>
    <g id="xtick_8">
     <g id="line2d_14">
      <g>
       <use xlink:href="#m3dc8315242" x="236.16" y="307.584" style="stroke: #000000; stroke-width: 0.8"/>
      </g>
     </g>
     <g id="text_13">
      <!-- 0 -->
      <g transform="translate(232.97875 322.182437) scale(0.1 -0.1)">
       <use xlink:href="#DejaVuSans-30"/>
      </g>
     </g>
    </g>
    <g id="xtick_9">
     <g id="line2d_15">
      <g>
       <use xlink:href="#m3dc8315242" x="291.620209" y="307.584" style="stroke: #000000; stroke-width: 0.8"/>
      </g>
     </g>
     <g id="text_14">
      <!-- 1 -->
      <g transform="translate(288.438959 322.182437) scale(0.1 -0.1)">
       <use xlink:href="#DejaVuSans-31"/>
      </g>
     </g>
    </g>
   </g>
   <g id="matplotlib.axis_4">
    <g id="ytick_6">
     <g id="line2d_16">
      <g>
       <use xlink:href="#m3f4d23d451" x="175.668788" y="302.584589" style="stroke: #000000; stroke-width: 0.8"/>
      </g>
     </g>
     <g id="text_15">
      <!-- −1.0 -->
      <g transform="translate(144.385975 306.383807) scale(0.1 -0.1)">
       <use xlink:href="#DejaVuSans-2212"/>
       <use xlink:href="#DejaVuSans-31" x="83.789062"/>
       <use xlink:href="#DejaVuSans-2e" x="147.412109"/>
       <use xlink:href="#DejaVuSans-30" x="179.199219"/>
      </g>
     </g>
    </g>
    <g id="ytick_7">
     <g id="line2d_17">
      <g>
       <use xlink:href="#m3f4d23d451" x="175.668788" y="274.854484" style="stroke: #000000; stroke-width: 0.8"/>
      </g>
     </g>
     <g id="text_16">
      <!-- −0.5 -->
      <g transform="translate(144.385975 278.653703) scale(0.1 -0.1)">
       <use xlink:href="#DejaVuSans-2212"/>
       <use xlink:href="#DejaVuSans-30" x="83.789062"/>
       <use xlink:href="#DejaVuSans-2e" x="147.412109"/>
       <use xlink:href="#DejaVuSans-35" x="179.199219"/>
      </g>
     </g>
    </g>
    <g id="ytick_8">
     <g id="line2d_18">
      <g>
       <use xlink:href="#m3f4d23d451" x="175.668788" y="247.12438" style="stroke: #000000; stroke-width: 0.8"/>
      </g>
     </g>
     <g id="text_17">
      <!-- 0.0 -->
      <g transform="translate(152.765663 250.923598) scale(0.1 -0.1)">
       <use xlink:href="#DejaVuSans-30"/>
       <use xlink:href="#DejaVuSans-2e" x="63.623047"/>
       <use xlink:href="#DejaVuSans-30" x="95.410156"/>
      </g>
     </g>
    </g>
    <g id="ytick_9">
     <g id="line2d_19">
      <g>
       <use xlink:href="#m3f4d23d451" x="175.668788" y="219.394275" style="stroke: #000000; stroke-width: 0.8"/>
      </g>
     </g>
     <g id="text_18">
      <!-- 0.5 -->
      <g transform="translate(152.765663 223.193494) scale(0.1 -0.1)">
       <use xlink:href="#DejaVuSans-30"/>
       <use xlink:href="#DejaVuSans-2e" x="63.623047"/>
       <use xlink:href="#DejaVuSans-35" x="95.410156"/>
      </g>
     </g>
    </g>
    <g id="ytick_10">
     <g id="line2d_20">
      <g>
       <use xlink:href="#m3f4d23d451" x="175.668788" y="191.664171" style="stroke: #000000; stroke-width: 0.8"/>
      </g>
     </g>
     <g id="text_19">
      <!-- 1.0 -->
      <g transform="translate(152.765663 195.463389) scale(0.1 -0.1)">
       <use xlink:href="#DejaVuSans-31"/>
       <use xlink:href="#DejaVuSans-2e" x="63.623047"/>
       <use xlink:href="#DejaVuSans-30" x="95.410156"/>
      </g>
     </g>
    </g>
   </g>
   <g id="line2d_21">
    <path d="M 236.16 247.12438 
L 239.642479 247.2778 
L 243.090973 247.736252 
L 246.471883 248.494338 
L 249.752378 249.543125 
L 252.900768 250.870254 
L 255.886862 252.460075 
L 258.682315 254.293832 
L 261.260945 256.349872 
L 263.599032 258.603896 
L 265.675588 261.029237 
L 267.472593 263.59716 
L 268.975198 266.277199 
L 270.171897 269.037497 
L 271.05465 271.845175 
L 271.618978 274.666708 
L 271.864009 277.468305 
L 271.79249 280.216301 
L 271.410748 282.877535 
L 270.728619 285.419737 
L 269.759335 287.811891 
L 268.519369 290.024593 
L 267.028243 292.030388 
L 265.308308 293.804083 
L 263.384484 295.323034 
L 261.283972 296.567409 
L 259.035945 297.520415 
L 256.67121 298.168488 
L 254.221855 298.501449 
L 251.720884 298.512626 
L 249.201833 298.198925 
L 246.698387 297.56087 
L 244.243997 296.602597 
L 241.87149 295.33181 
L 239.612699 293.75969 
L 237.498093 291.900773 
L 235.556429 289.772781 
L 233.814421 287.396424 
L 232.296435 284.795164 
L 231.024208 281.994947 
L 230.016599 279.02391 
L 229.289369 275.912058 
L 228.855006 272.690929 
L 228.722573 269.393225 
L 228.897609 266.052451 
L 229.38206 262.702526 
L 230.174259 259.377401 
L 231.268943 256.110671 
L 232.65731 252.935193 
L 234.327117 249.882714 
L 236.262825 246.983507 
L 238.445766 244.266031 
L 240.854364 241.756604 
L 243.464374 239.479104 
L 246.24916 237.454703 
L 249.179999 235.701619 
L 252.226405 234.234918 
L 255.356479 233.066335 
L 258.537273 232.204152 
L 261.73516 231.653095 
L 264.916223 231.414289 
L 268.04664 231.485242 
L 271.093067 231.859882 
L 274.023018 232.528619 
L 276.805241 233.478465 
L 279.410067 234.693179 
L 281.80975 236.153456 
L 283.978787 237.837152 
L 285.894204 239.719532 
L 287.53582 241.773563 
L 288.886476 243.970218 
L 289.932231 246.278812 
L 290.662521 248.667357 
L 291.070278 251.102923 
L 291.152011 253.552024 
L 290.907846 255.980995 
L 290.341524 258.356384 
L 289.460354 260.645334 
L 288.275138 262.815959 
L 286.800039 264.837712 
L 285.052422 266.681737 
L 283.052656 268.321197 
L 280.823882 269.731585 
L 278.391745 270.891009 
L 275.784107 271.780435 
L 273.030722 272.383917 
L 270.1629 272.688774 
L 267.21315 272.68574 
L 264.214807 272.369071 
L 261.201652 271.736613 
L 258.207526 270.789828 
L 255.265945 269.533781 
L 252.409716 267.977081 
L 249.670562 266.131789 
L 247.078763 264.013278 
L 244.662807 261.640063 
L 242.449069 259.03359 
L 240.461505 256.217991 
L 238.721383 253.219815 
L 237.24704 250.067724 
L 236.053672 246.792167 
L 235.153161 243.425035 
L 234.553941 239.999299 
L 234.2609 236.548636 
L 234.275329 233.107045 
L 234.594905 229.708461 
L 235.213718 226.38637 
L 236.12234 223.173427 
L 237.307935 220.101087 
L 238.754405 217.199246 
L 240.442573 214.495901 
L 242.350407 212.016835 
L 244.453271 209.78532 
L 246.724204 207.821857 
L 249.134234 206.143941 
L 251.652709 204.765864 
L 254.247644 203.698553 
L 256.886092 202.949449 
L 259.534522 202.52242 
L 262.159198 202.41772 
L 264.72657 202.631991 
L 267.203657 203.158298 
L 269.558426 203.986212 
L 271.760157 205.101932 
L 273.779798 206.488442 
L 275.590295 208.125706 
L 277.166906 209.990905 
L 278.487482 212.058688 
L 279.532723 214.301473 
L 280.2864 216.689759 
L 280.735541 219.192464 
L 280.870581 221.777282 
L 280.685473 224.411056 
L 280.177759 227.060151 
L 279.3486 229.690849 
L 278.202763 232.269727 
L 276.748568 234.764043 
L 274.997797 237.142113 
L 272.965559 239.373671 
L 270.670122 241.430219 
L 268.132702 243.28535 
L 265.377224 244.915051 
L 262.430054 246.297983 
L 259.319694 247.41572 
L 256.076462 248.252962 
L 252.732147 248.797714 
L 249.319648 249.041418 
L 245.872598 248.979056 
L 242.424986 248.609209 
L 239.010765 247.934067 
L 235.663471 246.959414 
L 232.415841 245.694557 
L 229.299438 244.152219 
L 226.344297 242.348399 
L 223.57858 240.302188 
L 221.028259 238.03555 
L 218.71682 235.573074 
L 216.664998 232.941689 
L 214.890539 230.170365 
L 213.408005 227.289775 
L 212.228603 224.331948 
L 211.360065 221.329903 
L 210.806558 218.317274 
L 210.568641 215.327923 
L 210.643258 212.395556 
L 211.023775 209.553337 
L 211.700062 206.833508 
L 212.658607 204.267024 
L 213.882672 201.883197 
L 215.352487 199.709364 
L 217.045482 197.77057 
L 218.936539 196.089286 
L 220.998287 194.685151 
L 223.201416 193.574748 
L 225.515009 192.771413 
L 227.906903 192.285082 
L 230.344058 192.122182 
L 232.792931 192.285551 
L 235.219866 192.774409 
L 237.59148 193.584366 
L 239.875044 194.707471 
L 242.03886 196.132303 
L 244.052627 197.844099 
L 245.887786 199.824926 
L 247.51785 202.053882 
L 248.918706 204.507335 
L 250.068896 207.159192 
L 250.949863 209.981196 
L 251.546163 212.943251 
L 251.845644 216.01376 
L 251.839588 219.15999 
L 251.522812 222.348441 
L 250.893726 225.545229 
L 249.95436 228.716475 
L 248.710335 231.828687 
L 247.170805 234.849143 
L 245.348353 237.746263 
L 243.25885 240.489972 
L 240.921274 243.052038 
L 238.357496 245.406395 
L 235.592031 247.529441 
L 232.651761 249.400304 
L 229.565631 251.001082 
L 226.364314 252.317043 
L 223.079869 253.336795 
L 219.745374 254.052411 
L 216.394549 254.459523 
L 213.061372 254.557368 
L 209.779696 254.348794 
L 206.582859 253.840229 
L 203.503308 253.041603 
L 200.57223 251.966238 
L 197.819195 250.630687 
L 195.27182 249.05455 
L 192.955458 247.260247 
L 190.892906 245.272757 
L 189.104148 243.119336 
L 187.606128 240.829201 
L 186.412555 238.433194 
L 185.533753 235.963431 
L 184.976539 233.452932 
L 184.74415 230.935242 
L 184.836203 228.444045 
L 185.248707 226.012781 
L 185.974101 223.674258 
L 187.00135 221.46028 
L 188.316067 219.401276 
L 189.900677 217.525958 
L 191.734623 215.860985 
L 193.7946 214.43066 
L 196.054821 213.25665 
L 198.487313 212.357734 
L 201.062236 211.749592 
L 203.748227 211.444618 
L 206.512758 211.451783 
L 209.322507 211.776522 
L 212.14374 212.420679 
L 214.942698 213.382479 
L 217.68598 214.656545 
L 220.340928 216.233962 
L 222.876 218.102373 
L 225.26113 220.246121 
L 227.46807 222.646423 
L 229.470719 225.281583 
L 231.245412 228.127241 
L 232.771201 231.156645 
L 234.030086 234.340956 
L 235.007225 237.649576 
L 235.691103 241.050497 
L 236.073664 244.510658 
L 236.150402 247.99633 
L 235.920414 251.47349 
L 235.386407 254.908214 
L 234.554673 258.26706 
L 233.43501 261.517447 
L 232.040617 264.628027 
L 230.387936 267.56904 
L 228.496471 270.31265 
L 226.388559 272.833266 
L 224.08912 275.107826 
L 221.625366 277.116063 
L 219.026497 278.840732 
L 216.323361 280.267806 
L 213.548104 281.386633 
L 210.733802 282.19006 
L 207.914083 282.674504 
L 205.122743 282.839999 
L 202.393358 282.690193 
L 199.758899 282.232297 
L 197.251358 281.477009 
L 194.901381 280.438388 
L 192.737915 279.133687 
L 190.787878 277.583158 
L 189.075852 275.809821 
L 187.623801 273.839192 
L 186.450817 271.698996 
L 185.572902 269.418848 
L 185.002788 267.029907 
L 184.749786 264.564528 
L 184.81968 262.05588 
L 185.214661 259.537574 
L 185.933298 257.043274 
L 186.970559 254.60631 
L 188.317861 252.259295 
L 189.96317 250.033755 
L 191.891138 247.959762 
L 194.083275 246.065594 
L 196.518159 244.377406 
L 199.171682 242.91893 
L 202.01732 241.711207 
L 205.02644 240.77234 
L 208.168619 240.117289 
L 211.411996 239.757694 
L 214.723631 239.701749 
L 218.069881 239.954097 
L 221.416781 240.515782 
L 224.730435 241.384236 
L 227.977395 242.553302 
L 231.125048 244.013308 
L 234.141982 245.751173 
L 236.998346 247.750556 
L 239.666187 249.992043 
L 242.119769 252.453366 
L 244.335867 255.109654 
L 246.294028 257.93372 
L 247.976801 260.89637 
L 249.36994 263.966731 
L 250.462561 267.112607 
L 251.247266 270.300844 
L 251.720224 273.497708 
L 251.881216 276.669269 
L 251.733633 279.781787 
L 251.284435 282.802098 
L 250.544073 285.697992 
L 249.526365 288.438577 
L 248.248335 290.994636 
L 246.730021 293.338955 
L 244.994241 295.446636 
L 243.06633 297.29538 
L 240.973851 298.865742 
L 238.746278 300.14135 
L 236.414654 301.109095 
L 234.011238 301.759275 
L 231.569135 302.085713 
L 229.121912 302.085818 
L 226.703217 301.760623 
L 224.346389 301.114765 
L 222.084078 300.156437 
L 219.947867 298.897295 
L 217.967914 297.352317 
L 216.172601 295.53964 
L 214.588209 293.48035 
L 213.238616 291.19824 
L 212.145025 288.719536 
L 211.325714 286.072605 
L 210.795831 283.287622 
L 210.567214 280.396232 
L 210.648258 277.431185 
L 211.043813 274.425963 
L 211.755131 271.414399 
L 212.779846 268.430288 
L 214.112001 265.507005 
L 215.742111 262.677121 
L 217.657275 259.972031 
L 219.841316 257.421599 
L 222.274966 255.053815 
L 224.936082 252.894475 
L 227.799902 250.966888 
L 230.839319 249.291612 
L 234.025193 247.886215 
L 237.326683 246.76508 
L 240.711591 245.939238 
L 244.146735 245.416244 
L 247.598321 245.200091 
L 251.032331 245.291165 
L 254.414905 245.686243 
L 257.71273 246.378528 
L 260.893416 247.357727 
L 263.925866 248.610173 
L 266.780626 250.118981 
L 269.430225 251.864238 
L 271.849481 253.823235 
L 274.015791 255.970727 
L 275.909386 258.279222 
L 277.513553 260.719295 
L 278.814829 263.259927 
L 279.803147 265.868859 
L 280.471954 268.512961 
L 280.818284 271.158614 
L 280.842785 273.772094 
L 280.549717 276.319956 
L 279.946896 278.769421 
L 279.045608 281.088751 
L 277.860474 283.247611 
L 276.409284 285.217417 
L 274.712793 286.971666 
L 272.79448 288.486237 
L 270.68028 289.739673 
L 268.398286 290.71342 
L 265.978428 291.392048 
L 263.452126 291.763425 
L 260.851935 291.818855 
L 258.211168 291.553185 
L 255.563515 290.96486 
L 252.942659 290.055944 
L 250.381888 288.8321 
L 247.913712 287.302524 
L 245.569496 285.479843 
L 243.379094 283.379975 
L 241.370514 281.021943 
L 239.569589 278.427665 
L 237.99969 275.621703 
L 236.681448 272.630987 
L 235.632527 269.484503 
L 234.867415 266.21297 
L 234.39726 262.84849 
L 234.229742 259.42418 
L 234.368982 255.973798 
L 234.8155 252.531359 
L 235.5662 249.130751 
L 236.614412 245.805344 
L 237.949964 242.587615 
L 239.559296 239.508779 
L 241.42562 236.598434 
L 243.529103 233.884224 
L 245.847103 231.391525 
L 248.354416 229.143159 
L 251.023574 227.159135 
L 253.825149 225.456421 
L 256.728096 224.048753 
L 259.700104 222.94648 
L 262.707963 222.15645 
L 265.717948 221.68193 
L 268.696198 221.522573 
L 271.609108 221.674425 
L 274.423708 222.129969 
L 277.108045 222.878217 
L 279.631541 223.904832 
L 281.965347 225.192302 
L 284.082673 226.720132 
L 285.95909 228.465091 
L 287.572811 230.401468 
L 288.904944 232.501378 
L 289.9397 234.735075 
L 290.664581 237.0713 
L 291.070517 239.477633 
L 291.151975 241.920873 
L 290.907019 244.367413 
L 290.337334 246.783628 
L 289.448207 249.136264 
L 288.248467 251.392814 
L 286.750383 253.521897 
L 284.969528 255.493614 
L 282.924598 257.279894 
L 280.637201 258.854817 
L 278.131612 260.194909 
L 275.434491 261.279415 
L 272.574588 262.090538 
L 269.582407 262.61364 
L 266.489862 262.837417 
L 263.329915 262.754028 
L 260.136197 262.359181 
L 256.942626 261.652195 
L 253.783023 260.635997 
L 250.690721 259.317102 
L 247.698191 257.705531 
L 244.83667 255.814703 
L 242.135805 253.661286 
L 239.623314 251.265001 
L 237.324674 248.648405 
L 235.262829 245.836633 
L 233.457929 242.857112 
L 231.927102 239.739249 
L 230.684259 236.514098 
L 229.739936 233.214008 
L 229.101177 229.872252 
L 228.771451 226.522652 
L 228.750619 223.19919 
L 229.034932 219.935627 
L 229.617077 216.765113 
L 230.486266 213.719814 
L 231.628352 210.830545 
L 233.026002 208.126419 
L 234.658886 205.634516 
L 236.503922 203.379575 
L 238.535532 201.383713 
L 240.72594 199.666174 
L 243.045491 198.24311 
L 245.462989 197.127397 
L 247.946059 196.328492 
L 250.461512 195.852322 
L 252.975734 195.701221 
L 255.455064 195.873901 
L 257.866186 196.365474 
L 260.176507 197.1675 
L 262.354533 198.268093 
L 264.370232 199.65205 
L 266.195376 201.301033 
L 267.803867 203.193774 
L 269.172036 205.30632 
L 270.278916 207.61231 
L 271.106483 210.083272 
L 271.639863 212.688954 
L 271.867506 215.397667 
L 271.781319 218.176649 
L 271.376756 220.99244 
L 270.652881 223.811261 
L 269.612371 226.599409 
L 268.261495 229.323631 
L 266.610039 231.951516 
L 264.6712 234.451856 
L 262.461435 236.795008 
L 260.000277 238.953233 
L 257.31011 240.901009 
L 254.415921 242.615329 
L 251.345012 244.075959 
L 248.126694 245.265672 
L 244.79195 246.170442 
L 241.373087 246.779609 
L 237.903368 247.085996 
L 234.416632 247.085996 
L 230.946913 246.779609 
L 227.52805 246.170442 
L 224.193306 245.265672 
L 220.974988 244.075959 
L 217.904079 242.615329 
L 215.00989 240.901009 
L 212.319723 238.953233 
L 209.858565 236.795008 
L 207.6488 234.451856 
L 205.709961 231.951516 
L 204.058505 229.323631 
L 202.707629 226.599409 
L 201.667119 223.811261 
L 200.943244 220.99244 
L 200.538681 218.176649 
L 200.452494 215.397667 
L 200.680137 212.688954 
L 201.213517 210.083272 
L 202.041084 207.61231 
L 203.147964 205.30632 
L 204.516133 203.193774 
L 206.124624 201.301033 
L 207.949768 199.65205 
L 209.965467 198.268093 
L 212.143493 197.1675 
L 214.453814 196.365474 
L 216.864936 195.873901 
L 219.344266 195.701221 
L 221.858488 195.852322 
L 224.373941 196.328492 
L 226.857011 197.127397 
L 229.274509 198.24311 
L 231.59406 199.666174 
L 233.784468 201.383713 
L 235.816078 203.379575 
L 237.661114 205.634516 
L 239.293998 208.126419 
L 240.691648 210.830545 
L 241.833734 213.719814 
L 242.702923 216.765113 
L 243.285068 219.935627 
L 243.569381 223.19919 
L 243.548549 226.522652 
L 243.218823 229.872252 
L 242.580064 233.214008 
L 241.635741 236.514098 
L 240.392898 239.739249 
L 238.862071 242.857112 
L 237.057171 245.836633 
L 234.995326 248.648405 
L 232.696686 251.265001 
L 230.184195 253.661286 
L 227.48333 255.814703 
L 224.621809 257.705531 
L 221.629279 259.317102 
L 218.536977 260.635997 
L 215.377374 261.652195 
L 212.183803 262.359181 
L 208.990085 262.754028 
L 205.830138 262.837417 
L 202.737593 262.61364 
L 199.745412 262.090538 
L 196.885509 261.279415 
L 194.188388 260.194909 
L 191.682799 258.854817 
L 189.395402 257.279894 
L 187.350472 255.493614 
L 185.569617 253.521897 
L 184.071533 251.392814 
L 182.871793 249.136264 
L 181.982666 246.783628 
L 181.412981 244.367413 
L 181.168025 241.920873 
L 181.249483 239.477633 
L 181.655419 237.0713 
L 182.3803 234.735075 
L 183.415056 232.501378 
L 184.747189 230.401468 
L 186.36091 228.465091 
L 188.237327 226.720132 
L 190.354653 225.192302 
L 192.688459 223.904832 
L 195.211955 222.878217 
L 197.896292 222.129969 
L 200.710892 221.674425 
L 203.623802 221.522573 
L 206.602052 221.68193 
L 209.612037 222.15645 
L 212.619896 222.94648 
L 215.591904 224.048753 
L 218.494851 225.456421 
L 221.296426 227.159135 
L 223.965584 229.143159 
L 226.472897 231.391525 
L 228.790897 233.884224 
L 230.89438 236.598434 
L 232.760704 239.508779 
L 234.370036 242.587615 
L 235.705588 245.805344 
L 236.7538 249.130751 
L 237.5045 252.531359 
L 237.951018 255.973798 
L 238.090258 259.42418 
L 237.92274 262.84849 
L 237.452585 266.21297 
L 236.687473 269.484503 
L 235.638552 272.630987 
L 234.32031 275.621703 
L 232.750411 278.427665 
L 230.949486 281.021943 
L 228.940906 283.379975 
L 226.750504 285.479843 
L 224.406288 287.302524 
L 221.938112 288.8321 
L 219.377341 290.055944 
L 216.756485 290.96486 
L 214.108832 291.553185 
L 211.468065 291.818855 
L 208.867874 291.763425 
L 206.341572 291.392048 
L 203.921714 290.71342 
L 201.63972 289.739673 
L 199.52552 288.486237 
L 197.607207 286.971666 
L 195.910716 285.217417 
L 194.459526 283.247611 
L 193.274392 281.088751 
L 192.373104 278.769421 
L 191.770283 276.319956 
L 191.477215 273.772094 
L 191.501716 271.158614 
L 191.848046 268.512961 
L 192.516853 265.868859 
L 193.505171 263.259927 
L 194.806447 260.719295 
L 196.410614 258.279222 
L 198.304209 255.970727 
L 200.470519 253.823235 
L 202.889775 251.864238 
L 205.539374 250.118981 
L 208.394134 248.610173 
L 211.426584 247.357727 
L 214.60727 246.378528 
L 217.905095 245.686243 
L 221.287669 245.291165 
L 224.721679 245.200091 
L 228.173265 245.416244 
L 231.608409 245.939238 
L 234.993317 246.76508 
L 238.294807 247.886215 
L 241.480681 249.291612 
L 244.520098 250.966888 
L 247.383918 252.894475 
L 250.045034 255.053815 
L 252.478684 257.421599 
L 254.662725 259.972031 
L 256.577889 262.677121 
L 258.207999 265.507005 
L 259.540154 268.430288 
L 260.564869 271.414399 
L 261.276187 274.425963 
L 261.671742 277.431185 
L 261.752786 280.396232 
L 261.524169 283.287622 
L 260.994286 286.072605 
L 260.174975 288.719536 
L 259.081384 291.19824 
L 257.731791 293.48035 
L 256.147399 295.53964 
L 254.352086 297.352317 
L 252.372133 298.897295 
L 250.235922 300.156437 
L 247.973611 301.114765 
L 245.616783 301.760623 
L 243.198088 302.085818 
L 240.750865 302.085713 
L 238.308762 301.759275 
L 235.905346 301.109095 
L 233.573722 300.14135 
L 231.346149 298.865742 
L 229.25367 297.29538 
L 227.325759 295.446636 
L 225.589979 293.338955 
L 224.071665 290.994636 
L 222.793635 288.438577 
L 221.775927 285.697992 
L 221.035565 282.802098 
L 220.586367 279.781787 
L 220.438784 276.669269 
L 220.599776 273.497708 
L 221.072734 270.300844 
L 221.857439 267.112607 
L 222.95006 263.966731 
L 224.343199 260.89637 
L 226.025972 257.93372 
L 227.984133 255.109654 
L 230.200231 252.453366 
L 232.653813 249.992043 
L 235.321654 247.750556 
L 238.178018 245.751173 
L 241.194952 244.013308 
L 244.342605 242.553302 
L 247.589565 241.384236 
L 250.903219 240.515782 
L 254.250119 239.954097 
L 257.596369 239.701749 
L 260.908004 239.757694 
L 264.151381 240.117289 
L 267.29356 240.77234 
L 270.30268 241.711207 
L 273.148318 242.91893 
L 275.801841 244.377406 
L 278.236725 246.065594 
L 280.428862 247.959762 
L 282.35683 250.033755 
L 284.002139 252.259295 
L 285.349441 254.60631 
L 286.386702 257.043274 
L 287.105339 259.537574 
L 287.50032 262.05588 
L 287.570214 264.564528 
L 287.317212 267.029907 
L 286.747098 269.418848 
L 285.869183 271.698996 
L 284.696199 273.839192 
L 283.244148 275.809821 
L 281.532122 277.583158 
L 279.582085 279.133687 
L 277.418619 280.438388 
L 275.068642 281.477009 
L 272.561101 282.232297 
L 269.926642 282.690193 
L 267.197257 282.839999 
L 264.405917 282.674504 
L 261.586198 282.19006 
L 258.771896 281.386633 
L 255.996639 280.267806 
L 253.293503 278.840732 
L 250.694634 277.116063 
L 248.23088 275.107826 
L 245.931441 272.833266 
L 243.823529 270.31265 
L 241.932064 267.56904 
L 240.279383 264.628027 
L 238.88499 261.517447 
L 237.765327 258.26706 
L 236.933593 254.908214 
L 236.399586 251.47349 
L 236.169598 247.99633 
L 236.246336 244.510658 
L 236.628897 241.050497 
L 237.312775 237.649576 
L 238.289914 234.340956 
L 239.548799 231.156645 
L 241.074588 228.127241 
L 242.849281 225.281583 
L 244.85193 222.646423 
L 247.05887 220.246121 
L 249.444 218.102373 
L 251.979072 216.233962 
L 254.63402 214.656545 
L 257.377302 213.382479 
L 260.17626 212.420679 
L 262.997493 211.776522 
L 265.807242 211.451783 
L 268.571773 211.444618 
L 271.257764 211.749592 
L 273.832687 212.357734 
L 276.265179 213.25665 
L 278.5254 214.43066 
L 280.585377 215.860985 
L 282.419323 217.525958 
L 284.003933 219.401276 
L 285.31865 221.46028 
L 286.345899 223.674258 
L 287.071293 226.012781 
L 287.483797 228.444045 
L 287.57585 230.935242 
L 287.343461 233.452932 
L 286.786247 235.963431 
L 285.907445 238.433194 
L 284.713872 240.829201 
L 283.215852 243.119336 
L 281.427094 245.272757 
L 279.364542 247.260247 
L 277.04818 249.05455 
L 274.500805 250.630687 
L 271.74777 251.966238 
L 268.816692 253.041603 
L 265.737141 253.840229 
L 262.540304 254.348794 
L 259.258628 254.557368 
L 255.925451 254.459523 
L 252.574626 254.052411 
L 249.240131 253.336795 
L 245.955686 252.317043 
L 242.754369 251.001082 
L 239.668239 249.400304 
L 236.727969 247.529441 
L 233.962504 245.406395 
L 231.398726 243.052038 
L 229.06115 240.489972 
L 226.971647 237.746263 
L 225.149195 234.849143 
L 223.609665 231.828687 
L 222.36564 228.716475 
L 221.426274 225.545229 
L 220.797188 222.348441 
L 220.480412 219.15999 
L 220.474356 216.01376 
L 220.773837 212.943251 
L 221.370137 209.981196 
L 222.251104 207.159192 
L 223.401294 204.507335 
L 224.80215 202.053882 
L 226.432214 199.824926 
L 228.267373 197.844099 
L 230.28114 196.132303 
L 232.444956 194.707471 
L 234.72852 193.584366 
L 237.100134 192.774409 
L 239.527069 192.285551 
L 241.975942 192.122182 
L 244.413097 192.285082 
L 246.804991 192.771413 
L 249.118584 193.574748 
L 251.321713 194.685151 
L 253.383461 196.089286 
L 255.274518 197.77057 
L 256.967513 199.709364 
L 258.437328 201.883197 
L 259.661393 204.267024 
L 260.619938 206.833508 
L 261.296225 209.553337 
L 261.676742 212.395556 
L 261.751359 215.327923 
L 261.513442 218.317274 
L 260.959935 221.329903 
L 260.091397 224.331948 
L 258.911995 227.289775 
L 257.429461 230.170365 
L 255.655002 232.941689 
L 253.60318 235.573074 
L 251.291741 238.03555 
L 248.74142 240.302188 
L 245.975703 242.348399 
L 243.020562 244.152219 
L 239.904159 245.694557 
L 236.656529 246.959414 
L 233.309235 247.934067 
L 229.895014 248.609209 
L 226.447402 248.979056 
L 223.000352 249.041418 
L 219.587853 248.797714 
L 216.243538 248.252962 
L 213.000306 247.41572 
L 209.889946 246.297983 
L 206.942776 244.915051 
L 204.187298 243.28535 
L 201.649878 241.430219 
L 199.354441 239.373671 
L 197.322203 237.142113 
L 195.571432 234.764043 
L 194.117237 232.269727 
L 192.9714 229.690849 
L 192.142241 227.060151 
L 191.634527 224.411056 
L 191.449419 221.777282 
L 191.584459 219.192464 
L 192.0336 216.689759 
L 192.787277 214.301473 
L 193.832518 212.058688 
L 195.153094 209.990905 
L 196.729705 208.125706 
L 198.540202 206.488442 
L 200.559843 205.101932 
L 202.761574 203.986212 
L 205.116343 203.158298 
L 207.59343 202.631991 
L 210.160802 202.41772 
L 212.785478 202.52242 
L 215.433908 202.949449 
L 218.072356 203.698553 
L 220.667291 204.765864 
L 223.185766 206.143941 
L 225.595796 207.821857 
L 227.866729 209.78532 
L 229.969593 212.016835 
L 231.877427 214.495901 
L 233.565595 217.199246 
L 235.012065 220.101087 
L 236.19766 223.173427 
L 237.106282 226.38637 
L 237.725095 229.708461 
L 238.044671 233.107045 
L 238.0591 236.548636 
L 237.766059 239.999299 
L 237.166839 243.425035 
L 236.266328 246.792167 
L 235.07296 250.067724 
L 233.598617 253.219815 
L 231.858495 256.217991 
L 229.870931 259.03359 
L 227.657193 261.640063 
L 225.241237 264.013278 
L 222.649438 266.131789 
L 219.910284 267.977081 
L 217.054055 269.533781 
L 214.112474 270.789828 
L 211.118348 271.736613 
L 208.105193 272.369071 
L 205.10685 272.68574 
L 202.1571 272.688774 
L 199.289278 272.383917 
L 196.535893 271.780435 
L 193.928255 270.891009 
L 191.496118 269.731585 
L 189.267344 268.321197 
L 187.267578 266.681737 
L 185.519961 264.837712 
L 184.044862 262.815959 
L 182.859646 260.645334 
L 181.978476 258.356384 
L 181.412154 255.980995 
L 181.167989 253.552024 
L 181.249722 251.102923 
L 181.657479 248.667357 
L 182.387769 246.278812 
L 183.433524 243.970218 
L 184.78418 241.773563 
L 186.425796 239.719532 
L 188.341213 237.837152 
L 190.51025 236.153456 
L 192.909933 234.693179 
L 195.514759 233.478465 
L 198.296982 232.528619 
L 201.226933 231.859882 
L 204.27336 231.485242 
L 207.403777 231.414289 
L 210.58484 231.653095 
L 213.782727 232.204152 
L 216.963521 233.066335 
L 220.093595 234.234918 
L 223.140001 235.701619 
L 226.07084 237.454703 
L 228.855626 239.479104 
L 231.465636 241.756604 
L 233.874234 244.266031 
L 236.057175 246.983507 
L 237.992883 249.882714 
L 239.66269 252.935193 
L 241.051057 256.110671 
L 242.145741 259.377401 
L 242.93794 262.702526 
L 243.422391 266.052451 
L 243.597427 269.393225 
L 243.464994 272.690929 
L 243.030631 275.912058 
L 242.303401 279.02391 
L 241.295792 281.994947 
L 240.023565 284.795164 
L 238.505579 287.396424 
L 236.763571 289.772781 
L 234.821907 291.900773 
L 232.707301 293.75969 
L 230.44851 295.33181 
L 228.076003 296.602597 
L 225.621613 297.56087 
L 223.118167 298.198925 
L 220.599116 298.512626 
L 218.098145 298.501449 
L 215.64879 298.168488 
L 213.284055 297.520415 
L 211.036028 296.567409 
L 208.935516 295.323034 
L 207.011692 293.804083 
L 205.291757 292.030388 
L 203.800631 290.024593 
L 202.560665 287.811891 
L 201.591381 285.419737 
L 200.909252 282.877535 
L 200.52751 280.216301 
L 200.455991 277.468305 
L 200.701022 274.666708 
L 201.26535 271.845175 
L 202.148103 269.037497 
L 203.344802 266.277199 
L 204.847407 263.59716 
L 206.644412 261.029237 
L 208.720968 258.603896 
L 211.059055 256.349872 
L 213.637685 254.293832 
L 216.433138 252.460075 
L 219.419232 250.870254 
L 222.567622 249.543125 
L 225.848117 248.494338 
L 229.229027 247.736252 
L 232.677521 247.2778 
L 236.16 247.12438 
L 236.16 247.12438 
" clip-path="url(#pc7adf566d2)" style="fill: none; stroke: #1f77b4; stroke-width: 1.5; stroke-linecap: square"/>
   </g>
   <g id="patch_8">
    <path d="M 175.668788 307.584 
L 175.668788 186.624 
" style="fill: none; stroke: #000000; stroke-width: 0.8; stroke-linejoin: miter; stroke-linecap: square"/>
   </g>
   <g id="patch_9">
    <path d="M 296.651212 307.584 
L 296.651212 186.624 
" style="fill: none; stroke: #000000; stroke-width: 0.8; stroke-linejoin: miter; stroke-linecap: square"/>
   </g>
   <g id="patch_10">
    <path d="M 175.668788 307.584 
L 296.651212 307.584 
" style="fill: none; stroke: #000000; stroke-width: 0.8; stroke-linejoin: miter; stroke-linecap: square"/>
   </g>
   <g id="patch_11">
    <path d="M 175.668788 186.624 
L 296.651212 186.624 
" style="fill: none; stroke: #000000; stroke-width: 0.8; stroke-linejoin: miter; stroke-linecap: square"/>
   </g>
  </g>
 </g>
 <defs>
  <clipPath id="pa49e7a56c0">
   <rect x="57.6" y="41.472" width="357.12" height="120.96"/>
  </clipPath>
  <clipPath id="pc7adf566d2">
   <rect x="175.668788" y="186.624" width="120.982425" height="120.96"/>
  </clipPath>
 </defs>
</svg>
