<?xml version="1.0" encoding="utf-8" standalone="no"?>
<!DOCTYPE svg PUBLIC "-//W3C//DTD SVG 1.1//EN"
  "http://www.w3.org/Graphics/SVG/1.1/DTD/svg11.dtd">
<svg xmlns:xlink="http://www.w3.org/1999/xlink" width="460.8pt" height="345.6pt" viewBox="0 0 460.8 345.6" xmlns="http://www.w3.org/2000/svg" version="1.1">
 <metadata>
  <rdf:RDF xmlns:dc="http://purl.org/dc/elements/1.1/" xmlns:cc="http://creativecommons.org/ns#" xmlns:rdf="http://www.w3.org/1999/02/22-rdf-syntax-ns#">
   <cc:Work>
    <dc:type rdf:resource="http://purl.org/dc/dcmitype/StillImage"/>
    <dc:date>2025-10-28T17:37:26.786617</dc:date>
    <dc:format>image/svg+xml</dc:format>
    <dc:creator>
     <cc:Agent>
      <dc:title>Matplotlib v3.6.3, https://matplotlib.org/</dc:title>
     </cc:Agent>
    </dc:creator>
   </cc:Work>
  </rdf:RDF>
 </metadata>
 <defs>
  <style type="text/css">*{stroke-linejoin: round; stroke-linecap: butt}</style>
 </defs>
 <g id="figure_1">
  <g id="patch_1">
   <path d="M 0 345.6 
L 460.8 345.6 
L 460.8 0 
L 0 0 
z
" style="fill: #ffffff"/>
  </g>
  <g id="axes_1">
   <g id="patch_2">
    <path d="M 57.6 162.432 
L 414.72 162.432 
L 414.72 41.472 
L 57.6 41.472 
z
" style="fill: #ffffff"/>
   </g>
   <g id="matplotlib.axis_1">
    <g id="xtick_1">
     <g id="line2d_1">
      <defs>
       <path id="m64759281c8" d="M 0 0 
L 0 3.5 
" style="stroke: #000000; stroke-width: 0.8"/>
      </defs>
      <g>
       <use xlink:href="#m64759281c8" x="73.832727" y="162.432" style="stroke: #000000; stroke-width: 0.8"/>
      </g>
     </g>
     <g id="text_1">
      <!-- 0.0 -->
      <g transform="translate(65.881165 177.030437) scale(0.1 -0.1)">
       <defs>
        <path id="DejaVuSans-30" d="M 2034 4250 
Q 1547 4250 1301 3770 
Q 1056 3291 1056 2328 
Q 1056 1369 1301 889 
Q 1547 409 2034 409 
Q 2525 409 2770 889 
Q 3016 1369 3016 2328 
Q 3016 3291 2770 3770 
Q 2525 4250 2034 4250 
z
M 2034 4750 
Q 2819 4750 3233 4129 
Q 3647 3509 3647 2328 
Q 3647 1150 3233 529 
Q 2819 -91 2034 -91 
Q 1250 -91 836 529 
Q 422 1150 422 2328 
Q 422 3509 836 4129 
Q 1250 4750 2034 4750 
z
" transform="scale(0.015625)"/>
        <path id="DejaVuSans-2e" d="M 684 794 
L 1344 794 
L 1344 0 
L 684 0 
L 684 794 
z
" transform="scale(0.015625)"/>
       </defs>
       <use xlink:href="#DejaVuSans-30"/>
       <use xlink:href="#DejaVuSans-2e" x="63.623047"/>
       <use xlink:href="#DejaVuSans-30" x="95.410156"/>
      </g>
     </g>
    </g>
    <g id="xtick_2">
     <g id="line2d_2">
      <g>
       <use xlink:href="#m64759281c8" x="138.763636" y="162.432" style="stroke: #000000; stroke-width: 0.8"/>
      </g>
     </g>
     <g id="text_2">
      <!-- 0.2 -->
      <g transform="translate(130.812074 177.030437) scale(0.1 -0.1)">
       <defs>
        <path id="DejaVuSans-32" d="M 1228 531 
L 3431 531 
L 3431 0 
L 469 0 
L 469 531 
Q 828 903 1448 1529 
Q 2069 2156 2228 2338 
Q 2531 2678 2651 2914 
Q 2772 3150 2772 3378 
Q 2772 3750 2511 3984 
Q 2250 4219 1831 4219 
Q 1534 4219 1204 4116 
Q 875 4013 500 3803 
L 500 4441 
Q 881 4594 1212 4672 
Q 1544 4750 1819 4750 
Q 2544 4750 2975 4387 
Q 3406 4025 3406 3419 
Q 3406 3131 3298 2873 
Q 3191 2616 2906 2266 
Q 2828 2175 2409 1742 
Q 1991 1309 1228 531 
z
" transform="scale(0.015625)"/>
       </defs>
       <use xlink:href="#DejaVuSans-30"/>
       <use xlink:href="#DejaVuSans-2e" x="63.623047"/>
       <use xlink:href="#DejaVuSans-32" x="95.410156"/>
      </g>
     </g>
    </g>
    <g id="xtick_3">
     <g id="line2d_3">
      <g>
       <use xlink:href="#m64759281c8" x="203.694545" y="162.432" style="stroke: #000000; stroke-width: 0.8"/>
      </g>
     </g>
     <g id="text_3">
      <!-- 0.4 -->
      <g transform="translate(195.742983 177.030437) scale(0.1 -0.1)">
       <defs>
        <path id="DejaVuSans-34" d="M 2419 4116 
L 825 1625 
L 2419 1625 
L 2419 4116 
z
M 2253 4666 
L 3047 4666 
L 3047 1625 
L 3713 1625 
L 3713 1100 
L 3047 1100 
L 3047 0 
L 2419 0 
L 2419 1100 
L 313 1100 
L 313 1709 
L 2253 4666 
z
" transform="scale(0.015625)"/>
       </defs>
       <use xlink:href="#DejaVuSans-30"/>
       <use xlink:href="#DejaVuSans-2e" x="63.623047"/>
       <use xlink:href="#DejaVuSans-34" x="95.410156"/>
      </g>
     </g>
    </g>
    <g id="xtick_4">
     <g id="line2d_4">
      <g>
       <use xlink:href="#m64759281c8" x="268.625455" y="162.432" style="stroke: #000000; stroke-width: 0.8"/>
      </g>
     </g>
     <g id="text_4">
      <!-- 0.6 -->
      <g transform="translate(260.673892 177.030437) scale(0.1 -0.1)">
       <defs>
        <path id="DejaVuSans-36" d="M 2113 2584 
Q 1688 2584 1439 2293 
Q 1191 2003 1191 1497 
Q 1191 994 1439 701 
Q 1688 409 2113 409 
Q 2538 409 2786 701 
Q 3034 994 3034 1497 
Q 3034 2003 2786 2293 
Q 2538 2584 2113 2584 
z
M 3366 4563 
L 3366 3988 
Q 3128 4100 2886 4159 
Q 2644 4219 2406 4219 
Q 1781 4219 1451 3797 
Q 1122 3375 1075 2522 
Q 1259 2794 1537 2939 
Q 1816 3084 2150 3084 
Q 2853 3084 3261 2657 
Q 3669 2231 3669 1497 
Q 3669 778 3244 343 
Q 2819 -91 2113 -91 
Q 1303 -91 875 529 
Q 447 1150 447 2328 
Q 447 3434 972 4092 
Q 1497 4750 2381 4750 
Q 2619 4750 2861 4703 
Q 3103 4656 3366 4563 
z
" transform="scale(0.015625)"/>
       </defs>
       <use xlink:href="#DejaVuSans-30"/>
       <use xlink:href="#DejaVuSans-2e" x="63.623047"/>
       <use xlink:href="#DejaVuSans-36" x="95.410156"/>
      </g>
     </g>
    </g>
    <g id="xtick_5">
     <g id="line2d_5">
      <g>
       <use xlink:href="#m64759281c8" x="333.556364" y="162.432" style="stroke: #000000; stroke-width: 0.8"/>
      </g>
     </g>
     <g id="text_5">
      <!-- 0.8 -->
      <g transform="translate(325.604801 177.030437) scale(0.1 -0.1)">
       <defs>
        <path id="DejaVuSans-38" d="M 2034 2216 
Q 1584 2216 1326 1975 
Q 1069 1734 1069 1313 
Q 1069 891 1326 650 
Q 1584 409 2034 409 
Q 2484 409 2743 651 
Q 3003 894 3003 1313 
Q 3003 1734 2745 1975 
Q 2488 2216 2034 2216 
z
M 1403 2484 
Q 997 2584 770 2862 
Q 544 3141 544 3541 
Q 544 4100 942 4425 
Q 1341 4750 2034 4750 
Q 2731 4750 3128 4425 
Q 3525 4100 3525 3541 
Q 3525 3141 3298 2862 
Q 3072 2584 2669 2484 
Q 3125 2378 3379 2068 
Q 3634 1759 3634 1313 
Q 3634 634 3220 271 
Q 2806 -91 2034 -91 
Q 1263 -91 848 271 
Q 434 634 434 1313 
Q 434 1759 690 2068 
Q 947 2378 1403 2484 
z
M 1172 3481 
Q 1172 3119 1398 2916 
Q 1625 2713 2034 2713 
Q 2441 2713 2670 2916 
Q 2900 3119 2900 3481 
Q 2900 3844 2670 4047 
Q 2441 4250 2034 4250 
Q 1625 4250 1398 4047 
Q 1172 3844 1172 3481 
z
" transform="scale(0.015625)"/>
       </defs>
       <use xlink:href="#DejaVuSans-30"/>
       <use xlink:href="#DejaVuSans-2e" x="63.623047"/>
       <use xlink:href="#DejaVuSans-38" x="95.410156"/>
      </g>
     </g>
    </g>
    <g id="xtick_6">
     <g id="line2d_6">
      <g>
       <use xlink:href="#m64759281c8" x="398.487273" y="162.432" style="stroke: #000000; stroke-width: 0.8"/>
      </g>
     </g>
     <g id="text_6">
      <!-- 1.0 -->
      <g transform="translate(390.53571 177.030437) scale(0.1 -0.1)">
       <defs>
        <path id="DejaVuSans-31" d="M 794 531 
L 1825 531 
L 1825 4091 
L 703 3866 
L 703 4441 
L 1819 4666 
L 2450 4666 
L 2450 531 
L 3481 531 
L 3481 0 
L 794 0 
L 794 531 
z
" transform="scale(0.015625)"/>
       </defs>
       <use xlink:href="#DejaVuSans-31"/>
       <use xlink:href="#DejaVuSans-2e" x="63.623047"/>
       <use xlink:href="#DejaVuSans-30" x="95.410156"/>
      </g>
     </g>
    </g>
   </g>
   <g id="matplotlib.axis_2">
    <g id="ytick_1">
     <g id="line2d_7">
      <defs>
       <path id="me1d109839a" d="M 0 0 
L -3.5 0 
" style="stroke: #000000; stroke-width: 0.8"/>
      </defs>
      <g>
       <use xlink:href="#me1d109839a" x="57.6" y="156.933886" style="stroke: #000000; stroke-width: 0.8"/>
      </g>
     </g>
     <g id="text_7">
      <!-- −1.0 -->
      <g transform="translate(26.317187 160.733105) scale(0.1 -0.1)">
       <defs>
        <path id="DejaVuSans-2212" d="M 678 2272 
L 4684 2272 
L 4684 1741 
L 678 1741 
L 678 2272 
z
" transform="scale(0.015625)"/>
       </defs>
       <use xlink:href="#DejaVuSans-2212"/>
       <use xlink:href="#DejaVuSans-31" x="83.789062"/>
       <use xlink:href="#DejaVuSans-2e" x="147.412109"/>
       <use xlink:href="#DejaVuSans-30" x="179.199219"/>
      </g>
     </g>
    </g>
    <g id="ytick_2">
     <g id="line2d_8">
      <g>
       <use xlink:href="#me1d109839a" x="57.6" y="129.442943" style="stroke: #000000; stroke-width: 0.8"/>
      </g>
     </g>
     <g id="text_8">
      <!-- −0.5 -->
      <g transform="translate(26.317187 133.242162) scale(0.1 -0.1)">
       <defs>
        <path id="DejaVuSans-35" d="M 691 4666 
L 3169 4666 
L 3169 4134 
L 1269 4134 
L 1269 2991 
Q 1406 3038 1543 3061 
Q 1681 3084 1819 3084 
Q 2600 3084 3056 2656 
Q 3513 2228 3513 1497 
Q 3513 744 3044 326 
Q 2575 -91 1722 -91 
Q 1428 -91 1123 -41 
Q 819 9 494 109 
L 494 744 
Q 775 591 1075 516 
Q 1375 441 1709 441 
Q 2250 441 2565 725 
Q 2881 1009 2881 1497 
Q 2881 1984 2565 2268 
Q 2250 2553 1709 2553 
Q 1456 2553 1204 2497 
Q 953 2441 691 2322 
L 691 4666 
z
" transform="scale(0.015625)"/>
       </defs>
       <use xlink:href="#DejaVuSans-2212"/>
       <use xlink:href="#DejaVuSans-30" x="83.789062"/>
       <use xlink:href="#DejaVuSans-2e" x="147.412109"/>
       <use xlink:href="#DejaVuSans-35" x="179.199219"/>
      </g>
     </g>
    </g>
    <g id="ytick_3">
     <g id="line2d_9">
      <g>
       <use xlink:href="#me1d109839a" x="57.6" y="101.952" style="stroke: #000000; stroke-width: 0.8"/>
      </g>
     </g>
     <g id="text_9">
      <!-- 0.0 -->
      <g transform="translate(34.696875 105.751219) scale(0.1 -0.1)">
       <use xlink:href="#DejaVuSans-30"/>
       <use xlink:href="#DejaVuSans-2e" x="63.623047"/>
       <use xlink:href="#DejaVuSans-30" x="95.410156"/>
      </g>
     </g>
    </g>
    <g id="ytick_4">
     <g id="line2d_10">
      <g>
       <use xlink:href="#me1d109839a" x="57.6" y="74.461057" style="stroke: #000000; stroke-width: 0.8"/>
      </g>
     </g>
     <g id="text_10">
      <!-- 0.5 -->
      <g transform="translate(34.696875 78.260276) scale(0.1 -0.1)">
       <use xlink:href="#DejaVuSans-30"/>
       <use xlink:href="#DejaVuSans-2e" x="63.623047"/>
       <use xlink:href="#DejaVuSans-35" x="95.410156"/>
      </g>
     </g>
    </g>
    <g id="ytick_5">
     <g id="line2d_11">
      <g>
       <use xlink:href="#me1d109839a" x="57.6" y="46.970114" style="stroke: #000000; stroke-width: 0.8"/>
      </g>
     </g>
     <g id="text_11">
      <!-- 1.0 -->
      <g transform="translate(34.696875 50.769333) scale(0.1 -0.1)">
       <use xlink:href="#DejaVuSans-31"/>
       <use xlink:href="#DejaVuSans-2e" x="63.623047"/>
       <use xlink:href="#DejaVuSans-30" x="95.410156"/>
      </g>
     </g>
    </g>
   </g>
   <g id="line2d_12">
    <path d="M 73.832727 101.952 
L 76.432563 75.440035 
L 77.732482 64.28407 
L 78.70742 57.44025 
L 79.682359 52.176431 
L 80.332318 49.639788 
L 80.982277 47.92979 
L 81.307256 47.393751 
L 81.632236 47.073459 
L 81.957215 46.970182 
L 82.282195 47.084327 
L 82.607174 47.415443 
L 83.257133 48.722499 
L 83.907093 50.870695 
L 84.557052 53.826086 
L 85.53199 59.66719 
L 86.506929 67.009247 
L 87.806847 78.676482 
L 89.756724 98.668786 
L 92.68154 128.615308 
L 93.981458 139.745696 
L 94.956396 146.565027 
L 95.931335 151.800764 
L 96.581294 154.317176 
L 97.231253 156.006106 
L 97.556233 156.531402 
L 97.881212 156.840865 
L 98.206192 156.933274 
L 98.531171 156.808263 
L 98.856151 156.466325 
L 99.50611 155.137933 
L 100.156069 152.969089 
L 100.806028 149.994065 
L 101.780966 144.126086 
L 102.755905 136.761086 
L 104.055823 125.070757 
L 106.0057 105.062603 
L 108.930516 75.137612 
L 110.230434 64.032913 
L 111.205373 57.238136 
L 112.180311 52.030533 
L 112.83027 49.534377 
L 113.480229 47.866532 
L 113.805209 47.351986 
L 114.130188 47.053352 
L 114.455168 46.971813 
L 114.780147 47.10769 
L 115.105127 47.460445 
L 115.755086 48.810161 
L 116.405045 50.999632 
L 117.055004 53.994259 
L 118.029943 59.889054 
L 119.004881 67.276925 
L 120.304799 78.990233 
L 122.254676 99.014039 
L 124.854513 125.852245 
L 126.154431 137.425952 
L 127.129369 144.67551 
L 128.104308 150.408543 
L 128.754267 153.28511 
L 129.404226 155.350504 
L 130.054185 156.572087 
L 130.379165 156.859887 
L 130.704144 156.930556 
L 131.029124 156.783815 
L 131.354103 156.420245 
L 132.004062 155.04922 
L 132.654021 152.839144 
L 133.30398 149.824943 
L 134.278919 143.90339 
L 135.253857 136.49272 
L 136.553776 124.75655 
L 138.503653 104.71729 
L 141.103489 77.89616 
L 142.403407 66.346122 
L 143.378346 59.119869 
L 144.353284 53.413996 
L 145.003243 50.557206 
L 145.653202 48.512564 
L 146.303161 47.31238 
L 146.628141 47.035417 
L 146.95312 46.975619 
L 147.2781 47.133222 
L 147.603079 47.507603 
L 148.253038 48.899925 
L 148.902998 51.130583 
L 149.552957 54.164329 
L 150.527895 60.112581 
L 151.502834 67.545975 
L 152.802752 79.304892 
L 154.752629 99.359408 
L 157.352465 126.163197 
L 158.652383 137.689452 
L 159.627322 144.892329 
L 160.60226 150.570985 
L 161.252219 153.40797 
L 161.902179 155.431839 
L 162.552138 156.610612 
L 162.877117 156.876736 
L 163.202097 156.925662 
L 163.527076 156.757199 
L 163.852056 156.372011 
L 164.502015 154.958406 
L 165.151974 152.707187 
L 165.801933 149.653926 
L 166.776871 143.679034 
L 167.75181 136.222989 
L 169.051728 124.441441 
L 171.001605 104.371868 
L 173.601441 77.585685 
L 174.90136 66.083327 
L 175.876298 58.903898 
L 176.851237 53.252514 
L 177.501196 50.435364 
L 178.151155 48.432287 
L 178.801114 47.274936 
L 179.126093 47.019654 
L 179.451073 46.9816 
L 179.776052 47.160923 
L 180.101032 47.556914 
L 180.750991 48.991787 
L 181.40095 51.263545 
L 182.050909 54.33629 
L 183.025848 60.337764 
L 184.000786 67.816386 
L 185.300704 79.620448 
L 187.250581 99.704879 
L 189.850418 126.473191 
L 191.150336 137.951538 
L 192.125274 145.10745 
L 193.100213 150.731505 
L 193.750172 153.528793 
L 194.400131 155.511058 
L 195.05009 156.646975 
L 195.37507 156.891412 
L 195.700049 156.918594 
L 196.025029 156.728414 
L 196.350008 156.321623 
L 196.999967 154.865496 
L 197.649926 152.573221 
L 198.299885 149.481023 
L 199.274824 143.453027 
L 200.249762 135.951901 
L 201.549681 124.125443 
L 203.499558 104.026351 
L 206.099394 77.276175 
L 207.399312 65.821952 
L 208.374251 58.68963 
L 209.349189 53.092959 
L 209.999148 50.315559 
L 210.649107 48.354126 
L 211.299066 47.239655 
L 211.624046 47.006065 
L 211.949025 46.989755 
L 212.274005 47.190791 
L 212.598984 47.608377 
L 213.248943 49.085745 
L 213.898903 51.398513 
L 214.548862 54.510134 
L 215.5238 60.564592 
L 216.498739 68.088148 
L 217.798657 79.936886 
L 220.073514 103.507925 
L 222.34837 126.782215 
L 223.648288 138.212201 
L 224.623227 145.320863 
L 225.598165 150.890094 
L 226.248124 153.647577 
L 226.898084 155.588159 
L 227.548043 156.681175 
L 227.873022 156.903915 
L 228.198002 156.909352 
L 228.522981 156.697462 
L 228.847961 156.269085 
L 229.49792 154.770492 
L 230.147879 152.437253 
L 230.797838 149.30624 
L 231.772776 143.225379 
L 232.747715 135.679469 
L 234.047633 123.808567 
L 236.32249 100.223249 
L 238.597346 76.96764 
L 239.897265 65.562006 
L 240.872203 58.477073 
L 241.847142 52.935337 
L 242.497101 50.197798 
L 243.14706 48.278086 
L 243.797019 47.206538 
L 244.121998 46.994648 
L 244.446978 47.000085 
L 244.771957 47.222825 
L 245.096937 47.66199 
L 245.746896 49.181794 
L 246.396855 51.53548 
L 247.046814 54.685855 
L 248.021753 60.793058 
L 248.996691 68.361248 
L 250.296609 80.254196 
L 252.571466 103.85356 
L 254.846323 127.090257 
L 256.146241 138.471428 
L 257.121179 145.532561 
L 258.096118 151.046748 
L 258.746077 153.764316 
L 259.396036 155.663138 
L 260.045995 156.713209 
L 260.370975 156.914245 
L 260.695954 156.897935 
L 261.020934 156.664345 
L 261.345913 156.214398 
L 261.995872 154.673399 
L 262.645831 152.299289 
L 263.29579 149.129583 
L 264.270729 142.996098 
L 265.245667 135.405702 
L 266.545586 123.490827 
L 268.820442 99.877649 
L 271.095299 76.660094 
L 272.395217 65.303499 
L 273.370156 58.266236 
L 274.345094 52.779653 
L 274.995053 50.082083 
L 275.645012 48.204169 
L 276.294971 47.175586 
L 276.619951 46.985406 
L 276.94493 47.012588 
L 277.26991 47.257025 
L 277.594889 47.71775 
L 278.244848 49.27993 
L 278.894808 51.674441 
L 279.544767 54.863446 
L 280.519705 61.023152 
L 281.494644 68.635678 
L 282.794562 80.572363 
L 285.069419 104.199121 
L 287.344275 127.397305 
L 288.644193 138.729212 
L 289.619132 145.742535 
L 290.59407 151.20146 
L 291.244029 153.879005 
L 291.893989 155.735992 
L 292.543948 156.743077 
L 292.868927 156.9224 
L 293.193907 156.884346 
L 293.518886 156.629064 
L 293.843866 156.157565 
L 294.493825 154.574221 
L 295.143784 152.159332 
L 295.793743 148.95106 
L 296.768681 142.765194 
L 297.74362 135.130612 
L 299.043538 123.172235 
L 301.318395 99.532132 
L 303.593251 76.353548 
L 304.89317 65.046442 
L 305.868108 58.057127 
L 306.843047 52.625915 
L 307.493006 49.968421 
L 308.142965 48.132378 
L 308.792924 47.146801 
L 309.117903 46.978338 
L 309.442883 47.027264 
L 309.767862 47.293388 
L 310.092842 47.775656 
L 310.742801 49.380149 
L 311.39276 51.815391 
L 312.042719 55.042899 
L 313.017658 61.254864 
L 313.992596 68.911425 
L 315.292514 80.891377 
L 317.567371 104.544592 
L 319.842228 127.703346 
L 321.142146 138.98554 
L 322.117084 145.950777 
L 323.092023 151.354223 
L 323.741982 153.99164 
L 324.391941 155.806719 
L 325.0419 156.770778 
L 325.36688 156.928381 
L 325.691859 156.868583 
L 326.016839 156.59162 
L 326.341818 156.098588 
L 326.991777 154.472961 
L 327.641736 152.01739 
L 328.291695 148.770678 
L 329.266634 142.532675 
L 330.241572 134.85421 
L 331.541491 122.852803 
L 333.816347 99.18671 
L 336.091204 76.048015 
L 337.391122 64.790844 
L 338.366061 57.849754 
L 339.340999 52.474128 
L 339.990958 49.856814 
L 340.640917 48.062716 
L 341.290876 47.120185 
L 341.615856 46.973444 
L 341.940835 47.044113 
L 342.265815 47.331913 
L 342.590794 47.835704 
L 343.240753 49.482449 
L 343.890713 51.958325 
L 344.540672 55.224208 
L 345.51561 61.488187 
L 346.490549 69.18848 
L 347.790467 81.211224 
L 350.065324 104.889961 
L 352.34018 128.008368 
L 353.640098 139.240404 
L 354.615037 146.157279 
L 355.589975 151.505032 
L 356.239934 154.102216 
L 356.889894 155.875315 
L 357.539853 156.79631 
L 357.864832 156.932187 
L 358.189812 156.850648 
L 358.514791 156.552014 
L 358.839771 156.037468 
L 359.48973 154.369623 
L 360.139689 151.873467 
L 360.789648 148.588444 
L 361.764586 142.298551 
L 362.739525 134.576506 
L 364.039443 122.532545 
L 366.3143 98.841397 
L 368.589156 75.743507 
L 369.889075 64.536717 
L 370.864013 57.644126 
L 371.838952 52.324298 
L 372.488911 49.747269 
L 373.13887 47.995186 
L 373.788829 47.095737 
L 374.113808 46.970726 
L 374.438788 47.063135 
L 374.763767 47.372598 
L 375.088747 47.897894 
L 375.738706 49.586824 
L 376.388665 52.103236 
L 377.038624 55.407365 
L 378.013563 61.723111 
L 378.988501 69.46683 
L 380.288419 81.531891 
L 382.563276 105.235214 
L 384.838133 128.312359 
L 386.138051 139.493792 
L 387.112989 146.362031 
L 388.087928 151.653881 
L 388.737887 154.21073 
L 389.387846 155.941779 
L 390.037805 156.819673 
L 390.362785 156.933818 
L 390.687764 156.830541 
L 391.012744 156.510249 
L 391.662703 155.224542 
L 392.312662 153.097015 
L 392.962621 150.161288 
L 393.937559 144.347115 
L 394.912498 137.028074 
L 396.212416 125.384049 
L 398.162293 105.407792 
L 398.487273 101.952 
L 398.487273 101.952 
" clip-path="url(#p6037c08704)" style="fill: none; stroke: #1f77b4; stroke-width: 1.5; stroke-linecap: square"/>
   </g>
   <g id="patch_3">
    <path d="M 57.6 162.432 
L 57.6 41.472 
" style="fill: none; stroke: #000000; stroke-width: 0.8; stroke-linejoin: miter; stroke-linecap: square"/>
   </g>
   <g id="patch_4">
    <path d="M 414.72 162.432 
L 414.72 41.472 
" style="fill: none; stroke: #000000; stroke-width: 0.8; stroke-linejoin: miter; stroke-linecap: square"/>
   </g>
   <g id="patch_5">
    <path d="M 57.6 162.432 
L 414.72 162.432 
" style="fill: none; stroke: #000000; stroke-width: 0.8; stroke-linejoin: miter; stroke-linecap: square"/>
   </g>
   <g id="patch_6">
    <path d="M 57.6 41.472 
L 414.72 41.472 
" style="fill: none; stroke: #000000; stroke-width: 0.8; stroke-linejoin: miter; stroke-linecap: square"/>
   </g>
  </g>
  <g id="axes_2">
   <g id="patch_7">
    <path d="M 175.679552 307.584 
L 296.640448 307.584 
L 296.640448 186.624 
L 175.679552 186.624 
z
" style="fill: #ffffff"/>
   </g>
   <g id="matplotlib.axis_3">
    <g id="xtick_7">
     <g id="line2d_13">
      <g>
       <use xlink:href="#m64759281c8" x="200.447912" y="307.584" style="stroke: #000000; stroke-width: 0.8"/>
      </g>
     </g>
     <g id="text_12">
      <!-- −0.5 -->
      <g transform="translate(188.306506 322.182437) scale(0.1 -0.1)">
       <use xlink:href="#DejaVuSans-2212"/>
       <use xlink:href="#DejaVuSans-30" x="83.789062"/>
       <use xlink:href="#DejaVuSans-2e" x="147.412109"/>
       <use xlink:href="#DejaVuSans-35" x="179.199219"/>
      </g>
     </g>
    </g>
    <g id="xtick_8">
     <g id="line2d_14">
      <g>
       <use xlink:href="#m64759281c8" x="236.16" y="307.584" style="stroke: #000000; stroke-width: 0.8"/>
      </g>
     </g>
     <g id="text_13">
      <!-- 0.0 -->
      <g transform="translate(228.208438 322.182437) scale(0.1 -0.1)">
       <use xlink:href="#DejaVuSans-30"/>
       <use xlink:href="#DejaVuSans-2e" x="63.623047"/>
       <use xlink:href="#DejaVuSans-30" x="95.410156"/>
      </g>
     </g>
    </g>
    <g id="xtick_9">
     <g id="line2d_15">
      <g>
       <use xlink:href="#m64759281c8" x="271.872088" y="307.584" style="stroke: #000000; stroke-width: 0.8"/>
      </g>
     </g>
     <g id="text_14">
      <!-- 0.5 -->
      <g transform="translate(263.920525 322.182437) scale(0.1 -0.1)">
       <use xlink:href="#DejaVuSans-30"/>
       <use xlink:href="#DejaVuSans-2e" x="63.623047"/>
       <use xlink:href="#DejaVuSans-35" x="95.410156"/>
      </g>
     </g>
    </g>
   </g>
   <g id="matplotlib.axis_4">
    <g id="ytick_6">
     <g id="line2d_16">
      <g>
       <use xlink:href="#me1d109839a" x="175.679552" y="282.815627" style="stroke: #000000; stroke-width: 0.8"/>
      </g>
     </g>
     <g id="text_15">
      <!-- −0.5 -->
      <g transform="translate(144.396739 286.614846) scale(0.1 -0.1)">
       <use xlink:href="#DejaVuSans-2212"/>
       <use xlink:href="#DejaVuSans-30" x="83.789062"/>
       <use xlink:href="#DejaVuSans-2e" x="147.412109"/>
       <use xlink:href="#DejaVuSans-35" x="179.199219"/>
      </g>
     </g>
    </g>
    <g id="ytick_7">
     <g id="line2d_17">
      <g>
       <use xlink:href="#me1d109839a" x="175.679552" y="247.103539" style="stroke: #000000; stroke-width: 0.8"/>
      </g>
     </g>
     <g id="text_16">
      <!-- 0.0 -->
      <g transform="translate(152.776427 250.902758) scale(0.1 -0.1)">
       <use xlink:href="#DejaVuSans-30"/>
       <use xlink:href="#DejaVuSans-2e" x="63.623047"/>
       <use xlink:href="#DejaVuSans-30" x="95.410156"/>
      </g>
     </g>
    </g>
    <g id="ytick_8">
     <g id="line2d_18">
      <g>
       <use xlink:href="#me1d109839a" x="175.679552" y="211.391451" style="stroke: #000000; stroke-width: 0.8"/>
      </g>
     </g>
     <g id="text_17">
      <!-- 0.5 -->
      <g transform="translate(152.776427 215.19067) scale(0.1 -0.1)">
       <use xlink:href="#DejaVuSans-30"/>
       <use xlink:href="#DejaVuSans-2e" x="63.623047"/>
       <use xlink:href="#DejaVuSans-35" x="95.410156"/>
      </g>
     </g>
    </g>
   </g>
   <g id="line2d_19">
    <path d="M 236.16 247.103539 
L 240.647025 247.244691 
L 245.103019 247.666751 
L 249.497219 248.365547 
L 253.799394 249.334167 
L 257.980104 250.563021 
L 262.010955 252.039928 
L 265.864843 253.750224 
L 269.516184 255.676897 
L 272.941136 257.800737 
L 276.117799 260.100509 
L 279.026405 262.553147 
L 281.649482 265.13396 
L 283.972006 267.816852 
L 285.981519 270.574564 
L 287.66824 273.37891 
L 289.025136 276.201042 
L 290.047983 279.011701 
L 290.735394 281.781487 
L 291.08882 284.481125 
L 291.112537 287.081725 
L 290.813591 289.555049 
L 290.201739 291.873766 
L 289.289345 294.011697 
L 288.091272 295.944059 
L 286.624735 297.647686 
L 284.909149 299.101243 
L 282.965944 300.285422 
L 280.818372 301.183122 
L 278.491293 301.779601 
L 276.010947 302.062623 
L 273.404718 302.022566 
L 270.700882 301.652518 
L 267.928355 300.948347 
L 265.116424 299.90874 
L 262.29449 298.535229 
L 259.491794 296.832179 
L 256.737161 294.80676 
L 254.058733 292.468891 
L 251.48372 289.831159 
L 249.038152 286.908716 
L 246.746643 283.719151 
L 244.632173 280.282343 
L 242.715881 276.620293 
L 241.016869 272.756935 
L 239.552037 268.717936 
L 238.335926 264.530468 
L 237.380591 260.222985 
L 236.69549 255.824972 
L 236.2874 251.366693 
L 236.160353 246.87893 
L 236.315607 242.392721 
L 236.751626 237.939089 
L 237.4641 233.548777 
L 238.445981 229.251984 
L 239.687548 225.078103 
L 241.176493 221.055467 
L 242.898031 217.211113 
L 244.835036 213.57054 
L 246.968192 210.1575 
L 249.27617 206.993789 
L 251.735816 204.099064 
L 254.322363 201.490678 
L 257.009653 199.183531 
L 259.770372 197.189948 
L 262.576297 195.519575 
L 265.398552 194.179304 
L 268.207866 193.173219 
L 270.974838 192.502566 
L 273.670205 192.16575 
L 276.265106 192.158357 
L 278.73134 192.473202 
L 281.041629 193.100396 
L 283.169858 194.027447 
L 285.091319 195.239371 
L 286.782933 196.718839 
L 288.223462 198.446331 
L 289.393704 200.400321 
L 290.276672 202.557471 
L 290.857748 204.892847 
L 291.124823 207.380146 
L 291.068407 209.991933 
L 290.681728 212.699894 
L 289.960793 215.475089 
L 288.904431 218.288218 
L 287.514316 221.109883 
L 285.794954 223.910856 
L 283.753654 226.66234 
L 281.400471 229.336234 
L 278.748123 231.905382 
L 275.811886 234.34382 
L 272.609468 236.627008 
L 269.160859 238.732054 
L 265.48816 240.637919 
L 261.615397 242.325604 
L 257.568317 243.778326 
L 253.374164 244.981663 
L 249.061447 245.923688 
L 244.659696 246.595077 
L 240.199208 246.989188 
L 235.710785 247.102127 
L 231.225469 246.932775 
L 226.774276 246.482808 
L 222.387929 245.756674 
L 218.096592 244.761555 
L 213.929609 243.507306 
L 209.915258 242.006361 
L 206.0805 240.273623 
L 202.450756 238.326335 
L 199.049681 236.183915 
L 195.898971 233.867789 
L 193.018171 231.401198 
L 190.424514 228.808982 
L 188.132775 226.117363 
L 186.155145 223.353707 
L 184.501137 220.546275 
L 183.177502 217.72397 
L 182.188183 214.916075 
L 181.534283 212.15199 
L 181.214066 209.460965 
L 181.222978 206.871835 
L 181.553697 204.412759 
L 182.196202 202.110964 
L 183.137873 199.992499 
L 184.363605 198.081996 
L 185.855955 196.402449 
L 187.595299 194.974996 
L 189.560015 193.818732 
L 191.726681 192.950532 
L 194.070289 192.38489 
L 196.564472 192.133787 
L 199.181746 192.206578 
L 201.89376 192.609898 
L 204.67155 193.347601 
L 207.485804 194.420713 
L 210.307125 195.827422 
L 213.106303 197.563077 
L 215.854568 199.620232 
L 218.523861 201.988697 
L 221.087079 204.655623 
L 223.518325 207.605609 
L 225.793135 210.82083 
L 227.888705 214.281185 
L 229.784095 217.964473 
L 231.460411 221.846577 
L 232.900986 225.901669 
L 234.091519 230.102437 
L 235.020212 234.420315 
L 235.677872 238.825727 
L 236.057995 243.288347 
L 236.156822 247.777353 
L 235.973377 252.261697 
L 235.509473 256.710374 
L 234.769696 261.092681 
L 233.761365 265.37849 
L 232.494464 269.538502 
L 230.981555 273.544503 
L 229.237663 277.369599 
L 227.280139 280.988457 
L 225.128509 284.377511 
L 222.804294 287.515171 
L 220.330819 290.382003 
L 217.732999 292.960894 
L 215.03712 295.237196 
L 212.270598 297.198848 
L 209.461731 298.836475 
L 206.639449 300.143464 
L 203.833047 301.116015 
L 201.071923 301.753166 
L 198.385312 302.056795 
L 195.802023 302.031596 
L 193.350172 301.685027 
L 191.056936 301.027243 
L 188.948297 300.070991 
L 187.048811 298.831494 
L 185.381382 297.326311 
L 183.967053 295.575169 
L 182.824811 293.599785 
L 181.971415 291.423666 
L 181.421237 289.071893 
L 181.186129 286.570895 
L 181.275311 283.948203 
L 181.695282 281.232209 
L 182.449755 278.451898 
L 183.539614 275.636593 
L 184.962903 272.815688 
L 186.714834 270.018378 
L 188.787819 267.273401 
L 191.171533 264.608777 
L 193.852999 262.051554 
L 196.81669 259.627562 
L 200.044663 257.361187 
L 203.516709 255.275144 
L 207.210526 253.390278 
L 211.101905 251.725372 
L 215.164941 250.29698 
L 219.372253 249.11928 
L 223.695216 248.203942 
L 228.104215 247.560027 
L 232.568889 247.193903 
L 237.0584 247.10919 
L 241.541696 247.306724 
L 245.987779 247.784553 
L 250.365971 248.537954 
L 254.646178 249.559472 
L 258.79915 250.838993 
L 262.796732 252.363828 
L 266.612105 254.118833 
L 270.220016 256.086543 
L 273.596996 258.247329 
L 276.721558 260.579575 
L 279.574379 263.059872 
L 282.138468 265.663229 
L 284.399301 268.363299 
L 286.344952 271.132618 
L 287.966181 273.942846 
L 289.256515 276.765032 
L 290.212295 279.569868 
L 290.832702 282.327958 
L 291.119755 285.010082 
L 291.078287 287.587461 
L 290.715894 290.032017 
L 290.042863 292.31663 
L 289.072067 294.415381 
L 287.818851 296.303794 
L 286.300884 297.959051 
L 284.537998 299.360209 
L 282.552005 300.488387 
L 280.366495 301.326943 
L 278.006623 301.861628 
L 275.498878 302.080719 
L 272.870841 301.975128 
L 270.150939 301.538497 
L 267.36818 300.767252 
L 264.551898 299.660651 
L 261.731481 298.220793 
L 258.93611 296.452606 
L 256.194493 294.363817 
L 253.534606 291.964885 
L 250.983442 289.268919 
L 248.566765 286.291569 
L 246.308882 283.050894 
L 244.232419 279.567213 
L 242.358122 275.862928 
L 240.704668 271.962337 
L 239.288494 267.891426 
L 238.123656 263.677643 
L 237.221697 259.349666 
L 236.591543 254.937158 
L 236.239426 250.470507 
L 236.168829 245.980569 
L 236.380447 241.498398 
L 236.87219 237.054985 
L 237.639196 232.680984 
L 238.673877 228.406452 
L 239.965985 224.260591 
L 241.502708 220.271495 
L 243.268782 216.465909 
L 245.24663 212.869003 
L 247.416518 209.504151 
L 249.756736 206.392736 
L 252.243792 203.553967 
L 254.85262 201.004718 
L 257.556814 198.759382 
L 260.328857 196.829756 
L 263.140375 195.224941 
L 265.962391 193.951272 
L 268.765588 193.012264 
L 271.520571 192.408597 
L 274.198136 192.138108 
L 276.769534 192.195825 
L 279.206728 192.574015 
L 281.482652 193.262262 
L 283.571455 194.247563 
L 285.448737 195.514455 
L 287.09177 197.045156 
L 288.47971 198.819731 
L 289.593783 200.816274 
L 290.417463 203.011111 
L 290.936625 205.379016 
L 291.139675 207.893439 
L 291.017661 210.52675 
L 290.56436 213.250488 
L 289.776342 216.035621 
L 288.653005 218.852808 
L 287.196589 221.672662 
L 285.412166 224.466022 
L 283.307599 227.20421 
L 280.893482 229.859293 
L 278.183054 232.404334 
L 275.192089 234.813635 
L 271.938764 237.06297 
L 268.443504 239.1298 
L 264.728812 240.993481 
L 260.819075 242.635442 
L 256.740357 244.039362 
L 252.520174 245.191309 
L 248.187259 246.079869 
L 243.771317 246.696246 
L 239.302766 247.034346 
L 234.812478 247.090826 
L 230.331511 246.865129 
L 225.890844 246.359484 
L 221.521109 245.578892 
L 217.252325 244.531075 
L 213.113645 243.22641 
L 209.133102 241.677838 
L 205.337367 239.900739 
L 201.751524 237.912803 
L 198.398853 235.733867 
L 195.300633 233.385735 
L 192.47596 230.891984 
L 189.941585 228.277749 
L 187.711776 225.569502 
L 185.798198 222.794805 
L 184.209813 219.98207 
L 182.952817 217.160297 
L 182.030584 214.358813 
L 181.44365 211.60701 
L 181.189713 208.934075 
L 181.26366 206.368729 
L 181.657622 203.938965 
L 182.361052 201.671794 
L 183.36082 199.593 
L 184.641343 197.726906 
L 186.184728 196.096149 
L 187.970937 194.721475 
L 189.977971 193.621548 
L 192.182073 192.812779 
L 194.557944 192.309169 
L 197.078976 192.122182 
L 199.71749 192.260636 
L 202.444991 192.730614 
L 205.232425 193.535408 
L 208.050442 194.675476 
L 210.869661 196.148435 
L 213.660938 197.949075 
L 216.395627 200.069394 
L 219.045838 202.498662 
L 221.584691 205.223512 
L 223.986556 208.228046 
L 226.227286 211.493971 
L 228.284433 215.000754 
L 230.13745 218.725792 
L 231.767878 222.64461 
L 233.15951 226.731066 
L 234.298537 230.957577 
L 235.173674 235.295356 
L 235.77626 239.714655 
L 236.100335 244.185029 
L 236.142696 248.675589 
L 235.902925 253.155275 
L 235.383392 257.593119 
L 234.589232 261.958514 
L 233.528305 266.221476 
L 232.211117 270.352905 
L 230.650733 274.324829 
L 228.862654 278.110651 
L 226.86468 281.685372 
L 224.676751 285.025809 
L 222.320764 288.110786 
L 219.820379 290.921322 
L 217.200806 293.440786 
L 214.488573 295.655038 
L 211.711294 297.552547 
L 208.897414 299.124486 
L 206.075957 300.364801 
L 203.27626 301.270258 
L 200.52771 301.840464 
L 197.859477 302.077862 
L 195.300253 301.987705 
L 192.877986 301.577996 
L 190.619633 300.859417 
L 188.55091 299.845222 
L 186.696059 298.551112 
L 185.07763 296.995092 
L 183.716268 295.197304 
L 182.630529 293.179839 
L 181.836706 290.966536 
L 181.348676 288.582765 
L 181.177774 286.055194 
L 181.332683 283.411548 
L 181.819347 280.680357 
L 182.640917 277.890695 
L 183.79771 275.071922 
L 185.287201 272.25341 
L 187.104038 269.464287 
L 189.240081 266.733167 
L 191.684467 264.087895 
L 194.423699 261.555294 
L 197.441757 259.160926 
L 200.720231 256.928857 
L 204.238479 254.881445 
L 207.973802 253.039137 
L 211.901636 251.420283 
L 215.995761 250.040974 
L 220.228528 248.914895 
L 224.571096 248.053202 
L 228.993677 247.464423 
L 233.465796 247.154381 
L 237.956551 247.126139 
L 242.434878 247.379978 
L 246.869822 247.913387 
L 251.230801 248.721094 
L 255.48787 249.795106 
L 259.611977 251.124785 
L 263.575215 252.696941 
L 267.351062 254.495957 
L 270.914604 256.503919 
L 274.242752 258.700786 
L 277.314439 261.064569 
L 280.110797 263.571523 
L 282.615315 266.19637 
L 284.813981 268.912519 
L 286.695399 271.69231 
L 288.250877 274.507261 
L 289.474502 277.328328 
L 290.363182 280.126165 
L 290.916666 282.871389 
L 291.137539 285.534848 
L 291.031191 288.087881 
L 290.605764 290.502583 
L 289.872068 292.752054 
L 288.843484 294.810646 
L 287.535833 296.654196 
L 285.96723 298.260246 
L 284.157918 299.608249 
L 282.130081 300.67976 
L 279.90764 301.458602 
L 277.516036 301.931023 
L 274.981995 302.085818 
L 272.333289 301.91444 
L 269.59848 301.411082 
L 266.806664 300.572734 
L 263.987207 299.399223 
L 261.169476 297.893214 
L 258.382579 296.060201 
L 255.655098 293.90846 
L 253.014832 291.44899 
L 250.488547 288.695415 
L 248.101735 285.663881 
L 245.878383 282.37291 
L 243.840758 278.843253 
L 242.009205 275.097706 
L 240.401966 271.160922 
L 239.035014 267.059197 
L 237.92191 262.820246 
L 237.073683 258.472964 
L 236.498725 254.047177 
L 236.202723 249.57339 
L 236.188602 245.082519 
L 236.456502 240.605628 
L 237.003774 236.17366 
L 237.825009 231.817171 
L 238.912078 227.566069 
L 240.254214 223.449353 
L 241.838105 219.494867 
L 243.648011 215.729058 
L 245.665912 212.176754 
L 247.871663 208.860946 
L 250.243181 205.802596 
L 252.756643 203.020459 
L 255.386696 200.530922 
L 258.106692 198.347869 
L 260.888923 196.482565 
L 263.704873 194.943562 
L 266.525477 193.736635 
L 269.32138 192.864732 
L 272.063206 192.327963 
L 274.721818 192.123603 
L 277.26859 192.24612 
L 279.67566 192.68724 
L 281.916185 193.436018 
L 283.964586 194.478951 
L 285.796779 195.800099 
L 287.390397 197.381235 
L 288.724996 199.202016 
L 289.782238 201.240164 
L 290.546065 203.471679 
L 291.002849 205.87105 
L 291.141516 208.411491 
L 290.953654 211.065186 
L 290.433594 213.80354 
L 289.578469 216.597436 
L 288.388246 219.417503 
L 286.865733 222.23438 
L 285.016564 225.01898 
L 282.849153 227.742753 
L 280.374632 230.377946 
L 277.606756 232.897851 
L 274.561791 235.277046 
L 271.258375 237.491626 
L 267.717366 239.519414 
L 263.961657 241.340166 
L 260.015989 242.935751 
L 255.906734 244.290312 
L 251.661671 245.390412 
L 247.309748 246.225153 
L 242.880833 246.786275 
L 238.405455 247.06823 
L 233.914545 247.06823 
L 229.439167 246.786275 
L 225.010252 246.225153 
L 220.658329 245.390412 
L 216.413266 244.290312 
L 212.304011 242.935751 
L 208.358343 241.340166 
L 204.602634 239.519414 
L 201.061625 237.491626 
L 197.758209 235.277046 
L 194.713244 232.897851 
L 191.945368 230.377946 
L 189.470847 227.742753 
L 187.303436 225.01898 
L 185.454267 222.23438 
L 183.931754 219.417503 
L 182.741531 216.597436 
L 181.886406 213.80354 
L 181.366346 211.065186 
L 181.178484 208.411491 
L 181.317151 205.87105 
L 181.773935 203.471679 
L 182.537762 201.240164 
L 183.595004 199.202016 
L 184.929603 197.381235 
L 186.523221 195.800099 
L 188.355414 194.478951 
L 190.403815 193.436018 
L 192.64434 192.68724 
L 195.05141 192.24612 
L 197.598182 192.123603 
L 200.256794 192.327963 
L 202.99862 192.864732 
L 205.794523 193.736635 
L 208.615127 194.943562 
L 211.431077 196.482565 
L 214.213308 198.347869 
L 216.933304 200.530922 
L 219.563357 203.020459 
L 222.076819 205.802596 
L 224.448337 208.860946 
L 226.654088 212.176754 
L 228.671989 215.729058 
L 230.481895 219.494867 
L 232.065786 223.449353 
L 233.407922 227.566069 
L 234.494991 231.817171 
L 235.316226 236.17366 
L 235.863498 240.605628 
L 236.131398 245.082519 
L 236.117277 249.57339 
L 235.821275 254.047177 
L 235.246317 258.472964 
L 234.39809 262.820246 
L 233.284986 267.059197 
L 231.918034 271.160922 
L 230.310795 275.097706 
L 228.479242 278.843253 
L 226.441617 282.37291 
L 224.218265 285.663881 
L 221.831453 288.695415 
L 219.305168 291.44899 
L 216.664902 293.90846 
L 213.937421 296.060201 
L 211.150524 297.893214 
L 208.332793 299.399223 
L 205.513336 300.572734 
L 202.72152 301.411082 
L 199.986711 301.91444 
L 197.338005 302.085818 
L 194.803964 301.931023 
L 192.41236 301.458602 
L 190.189919 300.67976 
L 188.162082 299.608249 
L 186.35277 298.260246 
L 184.784167 296.654196 
L 183.476516 294.810646 
L 182.447932 292.752054 
L 181.714236 290.502583 
L 181.288809 288.087881 
L 181.182461 285.534848 
L 181.403334 282.871389 
L 181.956818 280.126165 
L 182.845498 277.328328 
L 184.069123 274.507261 
L 185.624601 271.69231 
L 187.506019 268.912519 
L 189.704685 266.19637 
L 192.209203 263.571523 
L 195.005561 261.064569 
L 198.077248 258.700786 
L 201.405396 256.503919 
L 204.968938 254.495957 
L 208.744785 252.696941 
L 212.708023 251.124785 
L 216.83213 249.795106 
L 221.089199 248.721094 
L 225.450178 247.913387 
L 229.885122 247.379978 
L 234.363449 247.126139 
L 238.854204 247.154381 
L 243.326323 247.464423 
L 247.748904 248.053202 
L 252.091472 248.914895 
L 256.324239 250.040974 
L 260.418364 251.420283 
L 264.346198 253.039137 
L 268.081521 254.881445 
L 271.599769 256.928857 
L 274.878243 259.160926 
L 277.896301 261.555294 
L 280.635533 264.087895 
L 283.079919 266.733167 
L 285.215962 269.464287 
L 287.032799 272.25341 
L 288.52229 275.071922 
L 289.679083 277.890695 
L 290.500653 280.680357 
L 290.987317 283.411548 
L 291.142226 286.055194 
L 290.971324 288.582765 
L 290.483294 290.966536 
L 289.689471 293.179839 
L 288.603732 295.197304 
L 287.24237 296.995092 
L 285.623941 298.551112 
L 283.76909 299.845222 
L 281.700367 300.859417 
L 279.442014 301.577996 
L 277.019747 301.987705 
L 274.460523 302.077862 
L 271.79229 301.840464 
L 269.04374 301.270258 
L 266.244043 300.364801 
L 263.422586 299.124486 
L 260.608706 297.552547 
L 257.831427 295.655038 
L 255.119194 293.440786 
L 252.499621 290.921322 
L 249.999236 288.110786 
L 247.643249 285.025809 
L 245.45532 281.685372 
L 243.457346 278.110651 
L 241.669267 274.324829 
L 240.108883 270.352905 
L 238.791695 266.221476 
L 237.730768 261.958514 
L 236.936608 257.593119 
L 236.417075 253.155275 
L 236.177304 248.675589 
L 236.219665 244.185029 
L 236.54374 239.714655 
L 237.146326 235.295356 
L 238.021463 230.957577 
L 239.16049 226.731066 
L 240.552122 222.64461 
L 242.18255 218.725792 
L 244.035567 215.000754 
L 246.092714 211.493971 
L 248.333444 208.228046 
L 250.735309 205.223512 
L 253.274162 202.498662 
L 255.924373 200.069394 
L 258.659062 197.949075 
L 261.450339 196.148435 
L 264.269558 194.675476 
L 267.087575 193.535408 
L 269.875009 192.730614 
L 272.60251 192.260636 
L 275.241024 192.122182 
L 277.762056 192.309169 
L 280.137927 192.812779 
L 282.342029 193.621548 
L 284.349063 194.721475 
L 286.135272 196.096149 
L 287.678657 197.726906 
L 288.95918 199.593 
L 289.958948 201.671794 
L 290.662378 203.938965 
L 291.05634 206.368729 
L 291.130287 208.934075 
L 290.87635 211.60701 
L 290.289416 214.358813 
L 289.367183 217.160297 
L 288.110187 219.98207 
L 286.521802 222.794805 
L 284.608224 225.569502 
L 282.378415 228.277749 
L 279.84404 230.891984 
L 277.019367 233.385735 
L 273.921147 235.733867 
L 270.568476 237.912803 
L 266.982633 239.900739 
L 263.186898 241.677838 
L 259.206355 243.22641 
L 255.067675 244.531075 
L 250.798891 245.578892 
L 246.429156 246.359484 
L 241.988489 246.865129 
L 237.507522 247.090826 
L 233.017234 247.034346 
L 228.548683 246.696246 
L 224.132741 246.079869 
L 219.799826 245.191309 
L 215.579643 244.039362 
L 211.500925 242.635442 
L 207.591188 240.993481 
L 203.876496 239.1298 
L 200.381236 237.06297 
L 197.127911 234.813635 
L 194.136946 232.404334 
L 191.426518 229.859293 
L 189.012401 227.20421 
L 186.907834 224.466022 
L 185.123411 221.672662 
L 183.666995 218.852808 
L 182.543658 216.035621 
L 181.75564 213.250488 
L 181.302339 210.52675 
L 181.180325 207.893439 
L 181.383375 205.379016 
L 181.902537 203.011111 
L 182.726217 200.816274 
L 183.84029 198.819731 
L 185.22823 197.045156 
L 186.871263 195.514455 
L 188.748545 194.247563 
L 190.837348 193.262262 
L 193.113272 192.574015 
L 195.550466 192.195825 
L 198.121864 192.138108 
L 200.799429 192.408597 
L 203.554412 193.012264 
L 206.357609 193.951272 
L 209.179625 195.224941 
L 211.991143 196.829756 
L 214.763186 198.759382 
L 217.46738 201.004718 
L 220.076208 203.553967 
L 222.563264 206.392736 
L 224.903482 209.504151 
L 227.07337 212.869003 
L 229.051218 216.465909 
L 230.817292 220.271495 
L 232.354015 224.260591 
L 233.646123 228.406452 
L 234.680804 232.680984 
L 235.44781 237.054985 
L 235.939553 241.498398 
L 236.151171 245.980569 
L 236.080574 250.470507 
L 235.728457 254.937158 
L 235.098303 259.349666 
L 234.196344 263.677643 
L 233.031506 267.891426 
L 231.615332 271.962337 
L 229.961878 275.862928 
L 228.087581 279.567213 
L 226.011118 283.050894 
L 223.753235 286.291569 
L 221.336558 289.268919 
L 218.785394 291.964885 
L 216.125507 294.363817 
L 213.38389 296.452606 
L 210.588519 298.220793 
L 207.768102 299.660651 
L 204.95182 300.767252 
L 202.169061 301.538497 
L 199.449159 301.975128 
L 196.821122 302.080719 
L 194.313377 301.861628 
L 191.953505 301.326943 
L 189.767995 300.488387 
L 187.782002 299.360209 
L 186.019116 297.959051 
L 184.501149 296.303794 
L 183.247933 294.415381 
L 182.277137 292.31663 
L 181.604106 290.032017 
L 181.241713 287.587461 
L 181.200245 285.010082 
L 181.487298 282.327958 
L 182.107705 279.569868 
L 183.063485 276.765032 
L 184.353819 273.942846 
L 185.975048 271.132618 
L 187.920699 268.363299 
L 190.181532 265.663229 
L 192.745621 263.059872 
L 195.598442 260.579575 
L 198.723004 258.247329 
L 202.099984 256.086543 
L 205.707895 254.118833 
L 209.523268 252.363828 
L 213.52085 250.838993 
L 217.673822 249.559472 
L 221.954029 248.537954 
L 226.332221 247.784553 
L 230.778304 247.306724 
L 235.2616 247.10919 
L 239.751111 247.193903 
L 244.215785 247.560027 
L 248.624784 248.203942 
L 252.947747 249.11928 
L 257.155059 250.29698 
L 261.218095 251.725372 
L 265.109474 253.390278 
L 268.803291 255.275144 
L 272.275337 257.361187 
L 275.50331 259.627562 
L 278.467001 262.051554 
L 281.148467 264.608777 
L 283.532181 267.273401 
L 285.605166 270.018378 
L 287.357097 272.815688 
L 288.780386 275.636593 
L 289.870245 278.451898 
L 290.624718 281.232209 
L 291.044689 283.948203 
L 291.133871 286.570895 
L 290.898763 289.071893 
L 290.348585 291.423666 
L 289.495189 293.599785 
L 288.352947 295.575169 
L 286.938618 297.326311 
L 285.271189 298.831494 
L 283.371703 300.070991 
L 281.263064 301.027243 
L 278.969828 301.685027 
L 276.517977 302.031596 
L 273.934688 302.056795 
L 271.248077 301.753166 
L 268.486953 301.116015 
L 265.680551 300.143464 
L 262.858269 298.836475 
L 260.049402 297.198848 
L 257.28288 295.237196 
L 254.587001 292.960894 
L 251.989181 290.382003 
L 249.515706 287.515171 
L 247.191491 284.377511 
L 245.039861 280.988457 
L 243.082337 277.369599 
L 241.338445 273.544503 
L 239.825536 269.538502 
L 238.558635 265.37849 
L 237.550304 261.092681 
L 236.810527 256.710374 
L 236.346623 252.261697 
L 236.163178 247.777353 
L 236.262005 243.288347 
L 236.642128 238.825727 
L 237.299788 234.420315 
L 238.228481 230.102437 
L 239.419014 225.901669 
L 240.859589 221.846577 
L 242.535905 217.964473 
L 244.431295 214.281185 
L 246.526865 210.82083 
L 248.801675 207.605609 
L 251.232921 204.655623 
L 253.796139 201.988697 
L 256.465432 199.620232 
L 259.213697 197.563077 
L 262.012875 195.827422 
L 264.834196 194.420713 
L 267.64845 193.347601 
L 270.42624 192.609898 
L 273.138254 192.206578 
L 275.755528 192.133787 
L 278.249711 192.38489 
L 280.593319 192.950532 
L 282.759985 193.818732 
L 284.724701 194.974996 
L 286.464045 196.402449 
L 287.956395 198.081996 
L 289.182127 199.992499 
L 290.123798 202.110964 
L 290.766303 204.412759 
L 291.097022 206.871835 
L 291.105934 209.460965 
L 290.785717 212.15199 
L 290.131817 214.916075 
L 289.142498 217.72397 
L 287.818863 220.546275 
L 286.164855 223.353707 
L 284.187225 226.117363 
L 281.895486 228.808982 
L 279.301829 231.401198 
L 276.421029 233.867789 
L 273.270319 236.183915 
L 269.869244 238.326335 
L 266.2395 240.273623 
L 262.404742 242.006361 
L 258.390391 243.507306 
L 254.223408 244.761555 
L 249.932071 245.756674 
L 245.545724 246.482808 
L 241.094531 246.932775 
L 236.609215 247.102127 
L 232.120792 246.989188 
L 227.660304 246.595077 
L 223.258553 245.923688 
L 218.945836 244.981663 
L 214.751683 243.778326 
L 210.704603 242.325604 
L 206.83184 240.637919 
L 203.159141 238.732054 
L 199.710532 236.627008 
L 196.508114 234.34382 
L 193.571877 231.905382 
L 190.919529 229.336234 
L 188.566346 226.66234 
L 186.525046 223.910856 
L 184.805684 221.109883 
L 183.415569 218.288218 
L 182.359207 215.475089 
L 181.638272 212.699894 
L 181.251593 209.991933 
L 181.195177 207.380146 
L 181.462252 204.892847 
L 182.043328 202.557471 
L 182.926296 200.400321 
L 184.096538 198.446331 
L 185.537067 196.718839 
L 187.228681 195.239371 
L 189.150142 194.027447 
L 191.278371 193.100396 
L 193.58866 192.473202 
L 196.054894 192.158357 
L 198.649795 192.16575 
L 201.345162 192.502566 
L 204.112134 193.173219 
L 206.921448 194.179304 
L 209.743703 195.519575 
L 212.549628 197.189948 
L 215.310347 199.183531 
L 217.997637 201.490678 
L 220.584184 204.099064 
L 223.04383 206.993789 
L 225.351808 210.1575 
L 227.484964 213.57054 
L 229.421969 217.211113 
L 231.143507 221.055467 
L 232.632452 225.078103 
L 233.874019 229.251984 
L 234.8559 233.548777 
L 235.568374 237.939089 
L 236.004393 242.392721 
L 236.159647 246.87893 
L 236.0326 251.366693 
L 235.62451 255.824972 
L 234.939409 260.222985 
L 233.984074 264.530468 
L 232.767963 268.717936 
L 231.303131 272.756935 
L 229.604119 276.620293 
L 227.687827 280.282343 
L 225.573357 283.719151 
L 223.281848 286.908716 
L 220.83628 289.831159 
L 218.261267 292.468891 
L 215.582839 294.80676 
L 212.828206 296.832179 
L 210.02551 298.535229 
L 207.203576 299.90874 
L 204.391645 300.948347 
L 201.619118 301.652518 
L 198.915282 302.022566 
L 196.309053 302.062623 
L 193.828707 301.779601 
L 191.501628 301.183122 
L 189.354056 300.285422 
L 187.410851 299.101243 
L 185.695265 297.647686 
L 184.228728 295.944059 
L 183.030655 294.011697 
L 182.118261 291.873766 
L 181.506409 289.555049 
L 181.207463 287.081725 
L 181.23118 284.481125 
L 181.584606 281.781487 
L 182.272017 279.011701 
L 183.294864 276.201042 
L 184.65176 273.37891 
L 186.338481 270.574564 
L 188.347994 267.816852 
L 190.670518 265.13396 
L 193.293595 262.553147 
L 196.202201 260.100509 
L 199.378864 257.800737 
L 202.803816 255.676897 
L 206.455157 253.750224 
L 210.309045 252.039928 
L 214.339896 250.563021 
L 218.520606 249.334167 
L 222.822781 248.365547 
L 227.216981 247.666751 
L 231.672975 247.244691 
L 236.16 247.103539 
L 236.16 247.103539 
" clip-path="url(#p0e371421bd)" style="fill: none; stroke: #1f77b4; stroke-width: 1.5; stroke-linecap: square"/>
   </g>
   <g id="patch_8">
    <path d="M 175.679552 307.584 
L 175.679552 186.624 
" style="fill: none; stroke: #000000; stroke-width: 0.8; stroke-linejoin: miter; stroke-linecap: square"/>
   </g>
   <g id="patch_9">
    <path d="M 296.640448 307.584 
L 296.640448 186.624 
" style="fill: none; stroke: #000000; stroke-width: 0.8; stroke-linejoin: miter; stroke-linecap: square"/>
   </g>
   <g id="patch_10">
    <path d="M 175.679552 307.584 
L 296.640448 307.584 
" style="fill: none; stroke: #000000; stroke-width: 0.8; stroke-linejoin: miter; stroke-linecap: square"/>
   </g>
   <g id="patch_11">
    <path d="M 175.679552 186.624 
L 296.640448 186.624 
" style="fill: none; stroke: #000000; stroke-width: 0.8; stroke-linejoin: miter; stroke-linecap: square"/>
   </g>
  </g>
 </g>
 <defs>
  <clipPath id="p6037c08704">
   <rect x="57.6" y="41.472" width="357.12" height="120.96"/>
  </clipPath>
  <clipPath id="p0e371421bd">
   <rect x="175.679552" y="186.624" width="120.960897" height="120.96"/>
  </clipPath>
 </defs>
</svg>
