<?xml version="1.0" encoding="utf-8" standalone="no"?>
<!DOCTYPE svg PUBLIC "-//W3C//DTD SVG 1.1//EN"
  "http://www.w3.org/Graphics/SVG/1.1/DTD/svg11.dtd">
<svg xmlns:xlink="http://www.w3.org/1999/xlink" width="460.8pt" height="345.6pt" viewBox="0 0 460.8 345.6" xmlns="http://www.w3.org/2000/svg" version="1.1">
 <metadata>
  <rdf:RDF xmlns:dc="http://purl.org/dc/elements/1.1/" xmlns:cc="http://creativecommons.org/ns#" xmlns:rdf="http://www.w3.org/1999/02/22-rdf-syntax-ns#">
   <cc:Work>
    <dc:type rdf:resource="http://purl.org/dc/dcmitype/StillImage"/>
    <dc:date>2025-10-28T17:37:26.867846</dc:date>
    <dc:format>image/svg+xml</dc:format>
    <dc:creator>
     <cc:Agent>
      <dc:title>Matplotlib v3.6.3, https://matplotlib.org/</dc:title>
     </cc:Agent>
    </dc:creator>
   </cc:Work>
  </rdf:RDF>
 </metadata>
 <defs>
  <style type="text/css">*{stroke-linejoin: round; stroke-linecap: butt}</style>
 </defs>
 <g id="figure_1">
  <g id="patch_1">
   <path d="M 0 345.6 
L 460.8 345.6 
L 460.8 0 
L 0 0 
z
" style="fill: #ffffff"/>
  </g>
  <g id="axes_1">
   <g id="patch_2">
    <path d="M 57.6 162.432 
L 414.72 162.432 
L 414.72 41.472 
L 57.6 41.472 
z
" style="fill: #ffffff"/>
   </g>
   <g id="matplotlib.axis_1">
    <g id="xtick_1">
     <g id="line2d_1">
      <defs>
       <path id="m4f0dd88fd2" d="M 0 0 
L 0 3.5 
" style="stroke: #000000; stroke-width: 0.8"/>
      </defs>
      <g>
       <use xlink:href="#m4f0dd88fd2" x="73.832727" y="162.432" style="stroke: #000000; stroke-width: 0.8"/>
      </g>
     </g>
     <g id="text_1">
      <!-- 0.0 -->
      <g transform="translate(65.881165 177.030437) scale(0.1 -0.1)">
       <defs>
        <path id="DejaVuSans-30" d="M 2034 4250 
Q 1547 4250 1301 3770 
Q 1056 3291 1056 2328 
Q 1056 1369 1301 889 
Q 1547 409 2034 409 
Q 2525 409 2770 889 
Q 3016 1369 3016 2328 
Q 3016 3291 2770 3770 
Q 2525 4250 2034 4250 
z
M 2034 4750 
Q 2819 4750 3233 4129 
Q 3647 3509 3647 2328 
Q 3647 1150 3233 529 
Q 2819 -91 2034 -91 
Q 1250 -91 836 529 
Q 422 1150 422 2328 
Q 422 3509 836 4129 
Q 1250 4750 2034 4750 
z
" transform="scale(0.015625)"/>
        <path id="DejaVuSans-2e" d="M 684 794 
L 1344 794 
L 1344 0 
L 684 0 
L 684 794 
z
" transform="scale(0.015625)"/>
       </defs>
       <use xlink:href="#DejaVuSans-30"/>
       <use xlink:href="#DejaVuSans-2e" x="63.623047"/>
       <use xlink:href="#DejaVuSans-30" x="95.410156"/>
      </g>
     </g>
    </g>
    <g id="xtick_2">
     <g id="line2d_2">
      <g>
       <use xlink:href="#m4f0dd88fd2" x="138.763636" y="162.432" style="stroke: #000000; stroke-width: 0.8"/>
      </g>
     </g>
     <g id="text_2">
      <!-- 0.2 -->
      <g transform="translate(130.812074 177.030437) scale(0.1 -0.1)">
       <defs>
        <path id="DejaVuSans-32" d="M 1228 531 
L 3431 531 
L 3431 0 
L 469 0 
L 469 531 
Q 828 903 1448 1529 
Q 2069 2156 2228 2338 
Q 2531 2678 2651 2914 
Q 2772 3150 2772 3378 
Q 2772 3750 2511 3984 
Q 2250 4219 1831 4219 
Q 1534 4219 1204 4116 
Q 875 4013 500 3803 
L 500 4441 
Q 881 4594 1212 4672 
Q 1544 4750 1819 4750 
Q 2544 4750 2975 4387 
Q 3406 4025 3406 3419 
Q 3406 3131 3298 2873 
Q 3191 2616 2906 2266 
Q 2828 2175 2409 1742 
Q 1991 1309 1228 531 
z
" transform="scale(0.015625)"/>
       </defs>
       <use xlink:href="#DejaVuSans-30"/>
       <use xlink:href="#DejaVuSans-2e" x="63.623047"/>
       <use xlink:href="#DejaVuSans-32" x="95.410156"/>
      </g>
     </g>
    </g>
    <g id="xtick_3">
     <g id="line2d_3">
      <g>
       <use xlink:href="#m4f0dd88fd2" x="203.694545" y="162.432" style="stroke: #000000; stroke-width: 0.8"/>
      </g>
     </g>
     <g id="text_3">
      <!-- 0.4 -->
      <g transform="translate(195.742983 177.030437) scale(0.1 -0.1)">
       <defs>
        <path id="DejaVuSans-34" d="M 2419 4116 
L 825 1625 
L 2419 1625 
L 2419 4116 
z
M 2253 4666 
L 3047 4666 
L 3047 1625 
L 3713 1625 
L 3713 1100 
L 3047 1100 
L 3047 0 
L 2419 0 
L 2419 1100 
L 313 1100 
L 313 1709 
L 2253 4666 
z
" transform="scale(0.015625)"/>
       </defs>
       <use xlink:href="#DejaVuSans-30"/>
       <use xlink:href="#DejaVuSans-2e" x="63.623047"/>
       <use xlink:href="#DejaVuSans-34" x="95.410156"/>
      </g>
     </g>
    </g>
    <g id="xtick_4">
     <g id="line2d_4">
      <g>
       <use xlink:href="#m4f0dd88fd2" x="268.625455" y="162.432" style="stroke: #000000; stroke-width: 0.8"/>
      </g>
     </g>
     <g id="text_4">
      <!-- 0.6 -->
      <g transform="translate(260.673892 177.030437) scale(0.1 -0.1)">
       <defs>
        <path id="DejaVuSans-36" d="M 2113 2584 
Q 1688 2584 1439 2293 
Q 1191 2003 1191 1497 
Q 1191 994 1439 701 
Q 1688 409 2113 409 
Q 2538 409 2786 701 
Q 3034 994 3034 1497 
Q 3034 2003 2786 2293 
Q 2538 2584 2113 2584 
z
M 3366 4563 
L 3366 3988 
Q 3128 4100 2886 4159 
Q 2644 4219 2406 4219 
Q 1781 4219 1451 3797 
Q 1122 3375 1075 2522 
Q 1259 2794 1537 2939 
Q 1816 3084 2150 3084 
Q 2853 3084 3261 2657 
Q 3669 2231 3669 1497 
Q 3669 778 3244 343 
Q 2819 -91 2113 -91 
Q 1303 -91 875 529 
Q 447 1150 447 2328 
Q 447 3434 972 4092 
Q 1497 4750 2381 4750 
Q 2619 4750 2861 4703 
Q 3103 4656 3366 4563 
z
" transform="scale(0.015625)"/>
       </defs>
       <use xlink:href="#DejaVuSans-30"/>
       <use xlink:href="#DejaVuSans-2e" x="63.623047"/>
       <use xlink:href="#DejaVuSans-36" x="95.410156"/>
      </g>
     </g>
    </g>
    <g id="xtick_5">
     <g id="line2d_5">
      <g>
       <use xlink:href="#m4f0dd88fd2" x="333.556364" y="162.432" style="stroke: #000000; stroke-width: 0.8"/>
      </g>
     </g>
     <g id="text_5">
      <!-- 0.8 -->
      <g transform="translate(325.604801 177.030437) scale(0.1 -0.1)">
       <defs>
        <path id="DejaVuSans-38" d="M 2034 2216 
Q 1584 2216 1326 1975 
Q 1069 1734 1069 1313 
Q 1069 891 1326 650 
Q 1584 409 2034 409 
Q 2484 409 2743 651 
Q 3003 894 3003 1313 
Q 3003 1734 2745 1975 
Q 2488 2216 2034 2216 
z
M 1403 2484 
Q 997 2584 770 2862 
Q 544 3141 544 3541 
Q 544 4100 942 4425 
Q 1341 4750 2034 4750 
Q 2731 4750 3128 4425 
Q 3525 4100 3525 3541 
Q 3525 3141 3298 2862 
Q 3072 2584 2669 2484 
Q 3125 2378 3379 2068 
Q 3634 1759 3634 1313 
Q 3634 634 3220 271 
Q 2806 -91 2034 -91 
Q 1263 -91 848 271 
Q 434 634 434 1313 
Q 434 1759 690 2068 
Q 947 2378 1403 2484 
z
M 1172 3481 
Q 1172 3119 1398 2916 
Q 1625 2713 2034 2713 
Q 2441 2713 2670 2916 
Q 2900 3119 2900 3481 
Q 2900 3844 2670 4047 
Q 2441 4250 2034 4250 
Q 1625 4250 1398 4047 
Q 1172 3844 1172 3481 
z
" transform="scale(0.015625)"/>
       </defs>
       <use xlink:href="#DejaVuSans-30"/>
       <use xlink:href="#DejaVuSans-2e" x="63.623047"/>
       <use xlink:href="#DejaVuSans-38" x="95.410156"/>
      </g>
     </g>
    </g>
    <g id="xtick_6">
     <g id="line2d_6">
      <g>
       <use xlink:href="#m4f0dd88fd2" x="398.487273" y="162.432" style="stroke: #000000; stroke-width: 0.8"/>
      </g>
     </g>
     <g id="text_6">
      <!-- 1.0 -->
      <g transform="translate(390.53571 177.030437) scale(0.1 -0.1)">
       <defs>
        <path id="DejaVuSans-31" d="M 794 531 
L 1825 531 
L 1825 4091 
L 703 3866 
L 703 4441 
L 1819 4666 
L 2450 4666 
L 2450 531 
L 3481 531 
L 3481 0 
L 794 0 
L 794 531 
z
" transform="scale(0.015625)"/>
       </defs>
       <use xlink:href="#DejaVuSans-31"/>
       <use xlink:href="#DejaVuSans-2e" x="63.623047"/>
       <use xlink:href="#DejaVuSans-30" x="95.410156"/>
      </g>
     </g>
    </g>
   </g>
   <g id="matplotlib.axis_2">
    <g id="ytick_1">
     <g id="line2d_7">
      <defs>
       <path id="m9cba664dce" d="M 0 0 
L -3.5 0 
" style="stroke: #000000; stroke-width: 0.8"/>
      </defs>
      <g>
       <use xlink:href="#m9cba664dce" x="57.6" y="156.933886" style="stroke: #000000; stroke-width: 0.8"/>
      </g>
     </g>
     <g id="text_7">
      <!-- −1.0 -->
      <g transform="translate(26.317187 160.733105) scale(0.1 -0.1)">
       <defs>
        <path id="DejaVuSans-2212" d="M 678 2272 
L 4684 2272 
L 4684 1741 
L 678 1741 
L 678 2272 
z
" transform="scale(0.015625)"/>
       </defs>
       <use xlink:href="#DejaVuSans-2212"/>
       <use xlink:href="#DejaVuSans-31" x="83.789062"/>
       <use xlink:href="#DejaVuSans-2e" x="147.412109"/>
       <use xlink:href="#DejaVuSans-30" x="179.199219"/>
      </g>
     </g>
    </g>
    <g id="ytick_2">
     <g id="line2d_8">
      <g>
       <use xlink:href="#m9cba664dce" x="57.6" y="129.442943" style="stroke: #000000; stroke-width: 0.8"/>
      </g>
     </g>
     <g id="text_8">
      <!-- −0.5 -->
      <g transform="translate(26.317187 133.242162) scale(0.1 -0.1)">
       <defs>
        <path id="DejaVuSans-35" d="M 691 4666 
L 3169 4666 
L 3169 4134 
L 1269 4134 
L 1269 2991 
Q 1406 3038 1543 3061 
Q 1681 3084 1819 3084 
Q 2600 3084 3056 2656 
Q 3513 2228 3513 1497 
Q 3513 744 3044 326 
Q 2575 -91 1722 -91 
Q 1428 -91 1123 -41 
Q 819 9 494 109 
L 494 744 
Q 775 591 1075 516 
Q 1375 441 1709 441 
Q 2250 441 2565 725 
Q 2881 1009 2881 1497 
Q 2881 1984 2565 2268 
Q 2250 2553 1709 2553 
Q 1456 2553 1204 2497 
Q 953 2441 691 2322 
L 691 4666 
z
" transform="scale(0.015625)"/>
       </defs>
       <use xlink:href="#DejaVuSans-2212"/>
       <use xlink:href="#DejaVuSans-30" x="83.789062"/>
       <use xlink:href="#DejaVuSans-2e" x="147.412109"/>
       <use xlink:href="#DejaVuSans-35" x="179.199219"/>
      </g>
     </g>
    </g>
    <g id="ytick_3">
     <g id="line2d_9">
      <g>
       <use xlink:href="#m9cba664dce" x="57.6" y="101.952" style="stroke: #000000; stroke-width: 0.8"/>
      </g>
     </g>
     <g id="text_9">
      <!-- 0.0 -->
      <g transform="translate(34.696875 105.751219) scale(0.1 -0.1)">
       <use xlink:href="#DejaVuSans-30"/>
       <use xlink:href="#DejaVuSans-2e" x="63.623047"/>
       <use xlink:href="#DejaVuSans-30" x="95.410156"/>
      </g>
     </g>
    </g>
    <g id="ytick_4">
     <g id="line2d_10">
      <g>
       <use xlink:href="#m9cba664dce" x="57.6" y="74.461057" style="stroke: #000000; stroke-width: 0.8"/>
      </g>
     </g>
     <g id="text_10">
      <!-- 0.5 -->
      <g transform="translate(34.696875 78.260276) scale(0.1 -0.1)">
       <use xlink:href="#DejaVuSans-30"/>
       <use xlink:href="#DejaVuSans-2e" x="63.623047"/>
       <use xlink:href="#DejaVuSans-35" x="95.410156"/>
      </g>
     </g>
    </g>
    <g id="ytick_5">
     <g id="line2d_11">
      <g>
       <use xlink:href="#m9cba664dce" x="57.6" y="46.970114" style="stroke: #000000; stroke-width: 0.8"/>
      </g>
     </g>
     <g id="text_11">
      <!-- 1.0 -->
      <g transform="translate(34.696875 50.769333) scale(0.1 -0.1)">
       <use xlink:href="#DejaVuSans-31"/>
       <use xlink:href="#DejaVuSans-2e" x="63.623047"/>
       <use xlink:href="#DejaVuSans-30" x="95.410156"/>
      </g>
     </g>
    </g>
   </g>
   <g id="line2d_12">
    <path d="M 73.832727 101.952 
L 76.432563 75.440035 
L 77.732482 64.28407 
L 78.70742 57.44025 
L 79.682359 52.176431 
L 80.332318 49.639788 
L 80.982277 47.92979 
L 81.307256 47.393751 
L 81.632236 47.073459 
L 81.957215 46.970182 
L 82.282195 47.084327 
L 82.607174 47.415443 
L 83.257133 48.722499 
L 83.907093 50.870695 
L 84.557052 53.826086 
L 85.53199 59.66719 
L 86.506929 67.009247 
L 87.806847 78.676482 
L 89.756724 98.668786 
L 92.68154 128.615308 
L 93.981458 139.745696 
L 94.956396 146.565027 
L 95.931335 151.800764 
L 96.581294 154.317176 
L 97.231253 156.006106 
L 97.556233 156.531402 
L 97.881212 156.840865 
L 98.206192 156.933274 
L 98.531171 156.808263 
L 98.856151 156.466325 
L 99.50611 155.137933 
L 100.156069 152.969089 
L 100.806028 149.994065 
L 101.780966 144.126086 
L 102.755905 136.761086 
L 104.055823 125.070757 
L 106.0057 105.062603 
L 108.930516 75.137612 
L 110.230434 64.032913 
L 111.205373 57.238136 
L 112.180311 52.030533 
L 112.83027 49.534377 
L 113.480229 47.866532 
L 113.805209 47.351986 
L 114.130188 47.053352 
L 114.455168 46.971813 
L 114.780147 47.10769 
L 115.105127 47.460445 
L 115.755086 48.810161 
L 116.405045 50.999632 
L 117.055004 53.994259 
L 118.029943 59.889054 
L 119.004881 67.276925 
L 120.304799 78.990233 
L 122.254676 99.014039 
L 124.854513 125.852245 
L 126.154431 137.425952 
L 127.129369 144.67551 
L 128.104308 150.408543 
L 128.754267 153.28511 
L 129.404226 155.350504 
L 130.054185 156.572087 
L 130.379165 156.859887 
L 130.704144 156.930556 
L 131.029124 156.783815 
L 131.354103 156.420245 
L 132.004062 155.04922 
L 132.654021 152.839144 
L 133.30398 149.824943 
L 134.278919 143.90339 
L 135.253857 136.49272 
L 136.553776 124.75655 
L 138.503653 104.71729 
L 141.103489 77.89616 
L 142.403407 66.346122 
L 143.378346 59.119869 
L 144.353284 53.413996 
L 145.003243 50.557206 
L 145.653202 48.512564 
L 146.303161 47.31238 
L 146.628141 47.035417 
L 146.95312 46.975619 
L 147.2781 47.133222 
L 147.603079 47.507603 
L 148.253038 48.899925 
L 148.902998 51.130583 
L 149.552957 54.164329 
L 150.527895 60.112581 
L 151.502834 67.545975 
L 152.802752 79.304892 
L 154.752629 99.359408 
L 157.352465 126.163197 
L 158.652383 137.689452 
L 159.627322 144.892329 
L 160.60226 150.570985 
L 161.252219 153.40797 
L 161.902179 155.431839 
L 162.552138 156.610612 
L 162.877117 156.876736 
L 163.202097 156.925662 
L 163.527076 156.757199 
L 163.852056 156.372011 
L 164.502015 154.958406 
L 165.151974 152.707187 
L 165.801933 149.653926 
L 166.776871 143.679034 
L 167.75181 136.222989 
L 169.051728 124.441441 
L 171.001605 104.371868 
L 173.601441 77.585685 
L 174.90136 66.083327 
L 175.876298 58.903898 
L 176.851237 53.252514 
L 177.501196 50.435364 
L 178.151155 48.432287 
L 178.801114 47.274936 
L 179.126093 47.019654 
L 179.451073 46.9816 
L 179.776052 47.160923 
L 180.101032 47.556914 
L 180.750991 48.991787 
L 181.40095 51.263545 
L 182.050909 54.33629 
L 183.025848 60.337764 
L 184.000786 67.816386 
L 185.300704 79.620448 
L 187.250581 99.704879 
L 189.850418 126.473191 
L 191.150336 137.951538 
L 192.125274 145.10745 
L 193.100213 150.731505 
L 193.750172 153.528793 
L 194.400131 155.511058 
L 195.05009 156.646975 
L 195.37507 156.891412 
L 195.700049 156.918594 
L 196.025029 156.728414 
L 196.350008 156.321623 
L 196.999967 154.865496 
L 197.649926 152.573221 
L 198.299885 149.481023 
L 199.274824 143.453027 
L 200.249762 135.951901 
L 201.549681 124.125443 
L 203.499558 104.026351 
L 206.099394 77.276175 
L 207.399312 65.821952 
L 208.374251 58.68963 
L 209.349189 53.092959 
L 209.999148 50.315559 
L 210.649107 48.354126 
L 211.299066 47.239655 
L 211.624046 47.006065 
L 211.949025 46.989755 
L 212.274005 47.190791 
L 212.598984 47.608377 
L 213.248943 49.085745 
L 213.898903 51.398513 
L 214.548862 54.510134 
L 215.5238 60.564592 
L 216.498739 68.088148 
L 217.798657 79.936886 
L 220.073514 103.507925 
L 222.34837 126.782215 
L 223.648288 138.212201 
L 224.623227 145.320863 
L 225.598165 150.890094 
L 226.248124 153.647577 
L 226.898084 155.588159 
L 227.548043 156.681175 
L 227.873022 156.903915 
L 228.198002 156.909352 
L 228.522981 156.697462 
L 228.847961 156.269085 
L 229.49792 154.770492 
L 230.147879 152.437253 
L 230.797838 149.30624 
L 231.772776 143.225379 
L 232.747715 135.679469 
L 234.047633 123.808567 
L 236.32249 100.223249 
L 238.597346 76.96764 
L 239.897265 65.562006 
L 240.872203 58.477073 
L 241.847142 52.935337 
L 242.497101 50.197798 
L 243.14706 48.278086 
L 243.797019 47.206538 
L 244.121998 46.994648 
L 244.446978 47.000085 
L 244.771957 47.222825 
L 245.096937 47.66199 
L 245.746896 49.181794 
L 246.396855 51.53548 
L 247.046814 54.685855 
L 248.021753 60.793058 
L 248.996691 68.361248 
L 250.296609 80.254196 
L 252.571466 103.85356 
L 254.846323 127.090257 
L 256.146241 138.471428 
L 257.121179 145.532561 
L 258.096118 151.046748 
L 258.746077 153.764316 
L 259.396036 155.663138 
L 260.045995 156.713209 
L 260.370975 156.914245 
L 260.695954 156.897935 
L 261.020934 156.664345 
L 261.345913 156.214398 
L 261.995872 154.673399 
L 262.645831 152.299289 
L 263.29579 149.129583 
L 264.270729 142.996098 
L 265.245667 135.405702 
L 266.545586 123.490827 
L 268.820442 99.877649 
L 271.095299 76.660094 
L 272.395217 65.303499 
L 273.370156 58.266236 
L 274.345094 52.779653 
L 274.995053 50.082083 
L 275.645012 48.204169 
L 276.294971 47.175586 
L 276.619951 46.985406 
L 276.94493 47.012588 
L 277.26991 47.257025 
L 277.594889 47.71775 
L 278.244848 49.27993 
L 278.894808 51.674441 
L 279.544767 54.863446 
L 280.519705 61.023152 
L 281.494644 68.635678 
L 282.794562 80.572363 
L 285.069419 104.199121 
L 287.344275 127.397305 
L 288.644193 138.729212 
L 289.619132 145.742535 
L 290.59407 151.20146 
L 291.244029 153.879005 
L 291.893989 155.735992 
L 292.543948 156.743077 
L 292.868927 156.9224 
L 293.193907 156.884346 
L 293.518886 156.629064 
L 293.843866 156.157565 
L 294.493825 154.574221 
L 295.143784 152.159332 
L 295.793743 148.95106 
L 296.768681 142.765194 
L 297.74362 135.130612 
L 299.043538 123.172235 
L 301.318395 99.532132 
L 303.593251 76.353548 
L 304.89317 65.046442 
L 305.868108 58.057127 
L 306.843047 52.625915 
L 307.493006 49.968421 
L 308.142965 48.132378 
L 308.792924 47.146801 
L 309.117903 46.978338 
L 309.442883 47.027264 
L 309.767862 47.293388 
L 310.092842 47.775656 
L 310.742801 49.380149 
L 311.39276 51.815391 
L 312.042719 55.042899 
L 313.017658 61.254864 
L 313.992596 68.911425 
L 315.292514 80.891377 
L 317.567371 104.544592 
L 319.842228 127.703346 
L 321.142146 138.98554 
L 322.117084 145.950777 
L 323.092023 151.354223 
L 323.741982 153.99164 
L 324.391941 155.806719 
L 325.0419 156.770778 
L 325.36688 156.928381 
L 325.691859 156.868583 
L 326.016839 156.59162 
L 326.341818 156.098588 
L 326.991777 154.472961 
L 327.641736 152.01739 
L 328.291695 148.770678 
L 329.266634 142.532675 
L 330.241572 134.85421 
L 331.541491 122.852803 
L 333.816347 99.18671 
L 336.091204 76.048015 
L 337.391122 64.790844 
L 338.366061 57.849754 
L 339.340999 52.474128 
L 339.990958 49.856814 
L 340.640917 48.062716 
L 341.290876 47.120185 
L 341.615856 46.973444 
L 341.940835 47.044113 
L 342.265815 47.331913 
L 342.590794 47.835704 
L 343.240753 49.482449 
L 343.890713 51.958325 
L 344.540672 55.224208 
L 345.51561 61.488187 
L 346.490549 69.18848 
L 347.790467 81.211224 
L 350.065324 104.889961 
L 352.34018 128.008368 
L 353.640098 139.240404 
L 354.615037 146.157279 
L 355.589975 151.505032 
L 356.239934 154.102216 
L 356.889894 155.875315 
L 357.539853 156.79631 
L 357.864832 156.932187 
L 358.189812 156.850648 
L 358.514791 156.552014 
L 358.839771 156.037468 
L 359.48973 154.369623 
L 360.139689 151.873467 
L 360.789648 148.588444 
L 361.764586 142.298551 
L 362.739525 134.576506 
L 364.039443 122.532545 
L 366.3143 98.841397 
L 368.589156 75.743507 
L 369.889075 64.536717 
L 370.864013 57.644126 
L 371.838952 52.324298 
L 372.488911 49.747269 
L 373.13887 47.995186 
L 373.788829 47.095737 
L 374.113808 46.970726 
L 374.438788 47.063135 
L 374.763767 47.372598 
L 375.088747 47.897894 
L 375.738706 49.586824 
L 376.388665 52.103236 
L 377.038624 55.407365 
L 378.013563 61.723111 
L 378.988501 69.46683 
L 380.288419 81.531891 
L 382.563276 105.235214 
L 384.838133 128.312359 
L 386.138051 139.493792 
L 387.112989 146.362031 
L 388.087928 151.653881 
L 388.737887 154.21073 
L 389.387846 155.941779 
L 390.037805 156.819673 
L 390.362785 156.933818 
L 390.687764 156.830541 
L 391.012744 156.510249 
L 391.662703 155.224542 
L 392.312662 153.097015 
L 392.962621 150.161288 
L 393.937559 144.347115 
L 394.912498 137.028074 
L 396.212416 125.384049 
L 398.162293 105.407792 
L 398.487273 101.952 
L 398.487273 101.952 
" clip-path="url(#pd5d317741a)" style="fill: none; stroke: #1f77b4; stroke-width: 1.5; stroke-linecap: square"/>
   </g>
   <g id="patch_3">
    <path d="M 57.6 162.432 
L 57.6 41.472 
" style="fill: none; stroke: #000000; stroke-width: 0.8; stroke-linejoin: miter; stroke-linecap: square"/>
   </g>
   <g id="patch_4">
    <path d="M 414.72 162.432 
L 414.72 41.472 
" style="fill: none; stroke: #000000; stroke-width: 0.8; stroke-linejoin: miter; stroke-linecap: square"/>
   </g>
   <g id="patch_5">
    <path d="M 57.6 162.432 
L 414.72 162.432 
" style="fill: none; stroke: #000000; stroke-width: 0.8; stroke-linejoin: miter; stroke-linecap: square"/>
   </g>
   <g id="patch_6">
    <path d="M 57.6 41.472 
L 414.72 41.472 
" style="fill: none; stroke: #000000; stroke-width: 0.8; stroke-linejoin: miter; stroke-linecap: square"/>
   </g>
  </g>
  <g id="axes_2">
   <g id="patch_7">
    <path d="M 175.659793 307.584 
L 296.660207 307.584 
L 296.660207 186.624 
L 175.659793 186.624 
z
" style="fill: #ffffff"/>
   </g>
   <g id="matplotlib.axis_3">
    <g id="xtick_7">
     <g id="line2d_13">
      <g>
       <use xlink:href="#m4f0dd88fd2" x="180.901666" y="307.584" style="stroke: #000000; stroke-width: 0.8"/>
      </g>
     </g>
     <g id="text_12">
      <!-- −1 -->
      <g transform="translate(173.530572 322.182437) scale(0.1 -0.1)">
       <use xlink:href="#DejaVuSans-2212"/>
       <use xlink:href="#DejaVuSans-31" x="83.789062"/>
      </g>
     </g>
    </g>
    <g id="xtick_8">
     <g id="line2d_14">
      <g>
       <use xlink:href="#m4f0dd88fd2" x="236.16" y="307.584" style="stroke: #000000; stroke-width: 0.8"/>
      </g>
     </g>
     <g id="text_13">
      <!-- 0 -->
      <g transform="translate(232.97875 322.182437) scale(0.1 -0.1)">
       <use xlink:href="#DejaVuSans-30"/>
      </g>
     </g>
    </g>
    <g id="xtick_9">
     <g id="line2d_15">
      <g>
       <use xlink:href="#m4f0dd88fd2" x="291.418334" y="307.584" style="stroke: #000000; stroke-width: 0.8"/>
      </g>
     </g>
     <g id="text_14">
      <!-- 1 -->
      <g transform="translate(288.237084 322.182437) scale(0.1 -0.1)">
       <use xlink:href="#DejaVuSans-31"/>
      </g>
     </g>
    </g>
   </g>
   <g id="matplotlib.axis_4">
    <g id="ytick_6">
     <g id="line2d_16">
      <g>
       <use xlink:href="#m9cba664dce" x="175.659793" y="302.342991" style="stroke: #000000; stroke-width: 0.8"/>
      </g>
     </g>
     <g id="text_15">
      <!-- −1.0 -->
      <g transform="translate(144.37698 306.142209) scale(0.1 -0.1)">
       <use xlink:href="#DejaVuSans-2212"/>
       <use xlink:href="#DejaVuSans-31" x="83.789062"/>
       <use xlink:href="#DejaVuSans-2e" x="147.412109"/>
       <use xlink:href="#DejaVuSans-30" x="179.199219"/>
      </g>
     </g>
    </g>
    <g id="ytick_7">
     <g id="line2d_17">
      <g>
       <use xlink:href="#m9cba664dce" x="175.659793" y="274.713823" style="stroke: #000000; stroke-width: 0.8"/>
      </g>
     </g>
     <g id="text_16">
      <!-- −0.5 -->
      <g transform="translate(144.37698 278.513042) scale(0.1 -0.1)">
       <use xlink:href="#DejaVuSans-2212"/>
       <use xlink:href="#DejaVuSans-30" x="83.789062"/>
       <use xlink:href="#DejaVuSans-2e" x="147.412109"/>
       <use xlink:href="#DejaVuSans-35" x="179.199219"/>
      </g>
     </g>
    </g>
    <g id="ytick_8">
     <g id="line2d_18">
      <g>
       <use xlink:href="#m9cba664dce" x="175.659793" y="247.084656" style="stroke: #000000; stroke-width: 0.8"/>
      </g>
     </g>
     <g id="text_17">
      <!-- 0.0 -->
      <g transform="translate(152.756668 250.883875) scale(0.1 -0.1)">
       <use xlink:href="#DejaVuSans-30"/>
       <use xlink:href="#DejaVuSans-2e" x="63.623047"/>
       <use xlink:href="#DejaVuSans-30" x="95.410156"/>
      </g>
     </g>
    </g>
    <g id="ytick_9">
     <g id="line2d_19">
      <g>
       <use xlink:href="#m9cba664dce" x="175.659793" y="219.455489" style="stroke: #000000; stroke-width: 0.8"/>
      </g>
     </g>
     <g id="text_18">
      <!-- 0.5 -->
      <g transform="translate(152.756668 223.254708) scale(0.1 -0.1)">
       <use xlink:href="#DejaVuSans-30"/>
       <use xlink:href="#DejaVuSans-2e" x="63.623047"/>
       <use xlink:href="#DejaVuSans-35" x="95.410156"/>
      </g>
     </g>
    </g>
    <g id="ytick_10">
     <g id="line2d_20">
      <g>
       <use xlink:href="#m9cba664dce" x="175.659793" y="191.826322" style="stroke: #000000; stroke-width: 0.8"/>
      </g>
     </g>
     <g id="text_19">
      <!-- 1.0 -->
      <g transform="translate(152.756668 195.625541) scale(0.1 -0.1)">
       <use xlink:href="#DejaVuSans-31"/>
       <use xlink:href="#DejaVuSans-2e" x="63.623047"/>
       <use xlink:href="#DejaVuSans-30" x="95.410156"/>
      </g>
     </g>
    </g>
   </g>
   <g id="line2d_21">
    <path d="M 236.16 247.084656 
L 239.621565 247.368317 
L 243.000116 248.213274 
L 246.214377 249.601572 
L 249.186512 251.503706 
L 251.843752 253.879236 
L 254.119925 256.677629 
L 255.956835 259.839321 
L 257.305486 263.296956 
L 258.127109 266.976796 
L 258.393973 270.800261 
L 258.089971 274.685573 
L 257.210959 278.549464 
L 255.764845 282.308913 
L 253.771429 285.882888 
L 251.261995 289.194032 
L 248.278656 292.170285 
L 244.873484 294.746389 
L 241.10742 296.865252 
L 237.04901 298.47914 
L 232.772973 299.550679 
L 228.358645 300.053636 
L 223.888325 299.973466 
L 219.445561 299.30762 
L 215.113404 298.065597 
L 210.972683 296.26875 
L 207.100315 293.94984 
L 203.5677 291.152355 
L 200.439241 287.929599 
L 197.770993 284.343587 
L 195.609502 280.463746 
L 193.990831 276.365467 
L 192.939813 272.128536 
L 192.469535 267.835466 
L 192.581066 263.569776 
L 193.263441 259.41425 
L 194.49389 255.449208 
L 196.238318 251.750832 
L 198.45202 248.389575 
L 201.08062 245.428696 
L 204.061203 242.922935 
L 207.323643 240.917377 
L 210.792059 239.44651 
L 214.386412 238.533508 
L 218.024175 238.189751 
L 221.62206 238.414586 
L 225.097762 239.19535 
L 228.371679 240.507631 
L 231.368579 242.315783 
L 234.019173 244.573676 
L 236.261565 247.225658 
L 238.042549 250.207724 
L 239.318718 253.448858 
L 240.057378 256.872511 
L 240.237231 260.398215 
L 239.848822 263.943256 
L 238.894739 267.424414 
L 237.389558 270.759699 
L 235.359547 273.87007 
L 232.842113 276.681085 
L 229.885025 279.124468 
L 226.545416 281.139529 
L 222.888593 282.674443 
L 218.986677 283.687329 
L 214.917089 284.147135 
L 210.760945 284.034287 
L 206.601356 283.341099 
L 202.521695 282.071944 
L 198.603857 280.243159 
L 194.926548 277.88271 
L 191.563645 275.029615 
L 188.582651 271.733126 
L 186.043287 268.051709 
L 183.996245 264.051826 
L 182.48213 259.806545 
L 181.530613 255.394026 
L 181.159812 250.895884 
L 181.375912 246.395494 
L 182.17304 241.976247 
L 183.533385 237.719819 
L 185.427573 233.704463 
L 187.815277 230.003379 
L 190.646065 226.683191 
L 193.86045 223.802559 
L 197.391134 221.410952 
L 201.164413 219.547627 
L 205.101718 218.240806 
L 209.121255 217.507092 
L 213.139714 217.35113 
L 217.074009 217.765506 
L 220.843013 218.730913 
L 224.369255 220.216554 
L 227.580531 222.180791 
L 230.411421 224.572017 
L 232.804646 227.329738 
L 234.712271 230.385843 
L 236.096702 233.666027 
L 236.931472 237.09135 
L 237.20179 240.579887 
L 236.904854 244.048444 
L 236.049904 247.414301 
L 234.658031 250.596942 
L 232.761732 253.519741 
L 230.404234 256.111567 
L 227.638587 258.308272 
L 224.526555 260.054035 
L 221.137324 261.302533 
L 217.546057 262.017911 
L 213.832319 262.175534 
L 210.078419 261.762507 
L 206.36768 260.777945 
L 202.782708 259.232997 
L 199.403653 257.150616 
L 196.306542 254.565082 
L 193.561685 251.521291 
L 191.232203 248.073819 
L 189.37271 244.285784 
L 188.028169 240.227533 
L 187.232949 235.975175 
L 187.01011 231.608994 
L 187.370912 227.211774 
L 188.314582 222.867075 
L 189.828327 218.657486 
L 191.887597 214.662909 
L 194.456597 210.958888 
L 197.489033 207.615034 
L 200.929075 204.693576 
L 204.712519 202.248064 
L 208.768129 200.322248 
L 213.01912 198.949173 
L 217.38476 198.150488 
L 221.782053 197.935995 
L 226.127471 198.303452 
L 230.338694 199.238615 
L 234.336327 200.715544 
L 238.045558 202.697145 
L 241.397715 205.135944 
L 244.331698 207.975087 
L 246.795252 211.149525 
L 248.746057 214.587375 
L 250.152606 218.211429 
L 250.994861 221.940759 
L 251.264671 225.692421 
L 250.965935 229.383179 
L 250.114518 232.931252 
L 248.737919 236.258023 
L 246.874689 239.289678 
L 244.573624 241.958759 
L 241.892744 244.205564 
L 238.898074 245.979404 
L 235.662265 247.239658 
L 232.263069 247.956624 
L 228.781714 248.112144 
L 225.301201 247.699979 
L 221.904571 246.725944 
L 218.673159 245.207787 
L 215.6849 243.174818 
L 213.012691 240.667299 
L 210.722869 237.735603 
L 208.873815 234.439163 
L 207.514739 230.845229 
L 206.684642 227.027468 
L 206.4115 223.06442 
L 206.711675 219.037864 
L 207.589572 215.031104 
L 209.037537 211.127235 
L 211.036021 207.407402 
L 213.553979 203.949108 
L 216.549517 200.824595 
L 219.970761 198.099335 
L 223.756941 195.83066 
L 227.839652 194.066567 
L 232.144283 192.844716 
L 236.591569 192.191637 
L 241.099245 192.122182 
L 245.583758 192.639212 
L 249.962013 193.733537 
L 254.1531 195.384104 
L 258.079984 197.558444 
L 261.671109 200.21334 
L 264.86189 203.295737 
L 267.596058 206.743844 
L 269.826829 210.488427 
L 271.517882 214.454253 
L 272.644114 218.561661 
L 273.192155 222.728225 
L 273.16065 226.870473 
L 272.560281 230.905631 
L 271.413541 234.753353 
L 269.75426 238.337391 
L 267.626893 241.587196 
L 265.085593 244.43938 
L 262.193071 246.839047 
L 259.019286 248.740934 
L 255.639979 250.110354 
L 252.135086 250.92392 
L 248.587067 251.170035 
L 245.07918 250.849126 
L 241.693737 249.973637 
L 238.510384 248.567767 
L 235.60443 246.666962 
L 233.045274 244.317171 
L 230.894953 241.573885 
L 229.206839 238.500977 
L 228.024523 235.169363 
L 227.380905 231.655518 
L 227.297496 228.039879 
L 227.783975 224.405161 
L 228.837977 220.834623 
L 230.445142 217.410331 
L 232.579412 214.21144 
L 235.203574 211.312536 
L 238.270033 208.782075 
L 241.721804 206.680953 
L 245.493702 205.061229 
L 249.513697 203.965034 
L 253.704419 203.42369 
L 257.984774 203.457051 
L 262.271629 204.073086 
L 266.481555 205.26771 
L 270.532561 207.024864 
L 274.345806 209.316849 
L 277.847247 212.104903 
L 280.969179 215.340003 
L 283.651652 218.963892 
L 285.843718 222.910284 
L 287.504494 227.106256 
L 288.604018 231.473758 
L 289.123867 235.931247 
L 289.057544 240.395382 
L 288.410614 244.782766 
L 287.200582 249.011682 
L 285.456527 253.003795 
L 283.218495 256.685788 
L 280.53666 259.990889 
L 277.470276 262.860261 
L 274.086435 265.244229 
L 270.458668 267.103313 
L 266.665404 268.409048 
L 262.788335 269.14458 
L 258.910707 269.305005 
L 255.115577 268.89748 
L 251.484084 267.941057 
L 248.093746 266.466291 
L 245.016845 264.514594 
L 242.318916 262.137365 
L 240.057376 259.394915 
L 238.280324 256.355202 
L 237.025537 253.092408 
L 236.319683 249.685386 
L 236.177758 246.216009 
L 236.602778 242.767453 
L 237.585713 239.42246 
L 239.105675 236.261605 
L 241.13036 233.361604 
L 243.616716 230.793716 
L 246.511845 228.622244 
L 249.754112 226.903188 
L 253.274427 225.683079 
L 256.997694 224.997991 
L 260.844375 224.872797 
L 264.732159 225.320634 
L 268.577674 226.342633 
L 272.298236 227.927886 
L 275.813576 230.053675 
L 279.047512 232.685939 
L 281.929549 235.779984 
L 284.396348 239.281413 
L 286.393052 243.127256 
L 287.874434 247.247285 
L 288.805838 251.565477 
L 289.163912 256.001598 
L 288.93709 260.472872 
L 288.12584 264.895713 
L 286.742654 269.187463 
L 284.811788 273.268118 
L 282.368757 277.061993 
L 279.459596 280.499302 
L 276.1399 283.517611 
L 272.473663 286.063138 
L 268.531944 288.091878 
L 264.391387 289.570512 
L 260.132617 290.477105 
L 255.838561 290.80156 
L 251.592718 290.545823 
L 247.477416 289.723842 
L 243.572096 288.361273 
L 239.951652 286.49494 
L 236.684871 284.172061 
L 233.832998 281.449262 
L 231.448461 278.391389 
L 229.573774 275.070152 
L 228.240655 271.562621 
L 227.469365 267.949619 
L 227.268288 264.314026 
L 227.633759 260.739047 
L 228.55014 257.306472 
L 229.990154 254.094963 
L 231.915456 251.178408 
L 234.277436 248.62438 
L 237.018238 246.492717 
L 240.071972 244.834272 
L 243.366092 243.689851 
L 246.82292 243.089352 
L 250.361261 243.051147 
L 253.898116 243.581689 
L 257.350406 244.675377 
L 260.63672 246.314674 
L 263.679016 248.470467 
L 266.404251 251.102678 
L 268.745917 254.161094 
L 270.645429 257.586419 
L 272.053352 261.31151 
L 272.93044 265.262776 
L 273.248459 269.361714 
L 272.990776 273.526551 
L 272.152716 277.673946 
L 270.741659 281.720734 
L 268.776893 285.585657 
L 266.289209 289.191067 
L 263.320269 292.46454 
L 259.921733 295.340393 
L 256.154186 297.761051 
L 252.085877 299.678254 
L 247.791296 301.054058 
L 243.349621 301.861633 
L 238.843071 302.085818 
L 234.355185 301.72344 
L 229.969092 300.783378 
L 225.765766 299.286378 
L 221.822346 297.26462 
L 218.210529 294.761043 
L 214.995071 291.828451 
L 212.232439 288.528407 
L 209.969642 284.929947 
L 208.243242 281.108142 
L 207.078605 277.142522 
L 206.489365 273.115423 
L 206.477152 269.110263 
L 207.031553 265.209799 
L 208.130343 261.494401 
L 209.739942 258.040372 
L 211.816131 254.918355 
L 214.304973 252.191858 
L 217.143943 249.915927 
L 220.263242 248.135999 
L 223.587257 246.88695 
L 227.036143 246.192372 
L 230.527495 246.064076 
L 233.978076 246.50185 
L 237.305554 247.493463 
L 240.43023 249.014922 
L 243.276706 251.030974 
L 245.775462 253.495843 
L 247.864312 256.35419 
L 249.489708 259.542268 
L 250.60786 262.989254 
L 251.185658 266.618734 
L 251.201361 270.350298 
L 250.645061 274.101221 
L 249.51889 277.788196 
L 247.83698 281.32907 
L 245.625168 284.644569 
L 242.920466 287.659951 
L 239.770283 290.306571 
L 236.231446 292.523317 
L 232.369011 294.257888 
L 228.254907 295.46789 
L 223.96644 296.121721 
L 219.584679 296.199238 
L 215.192763 295.692175 
L 210.874174 294.604321 
L 206.71099 292.951444 
L 202.782175 290.760961 
L 199.161935 288.071371 
L 195.918164 284.931451 
L 193.111038 281.399241 
L 190.791752 277.540834 
L 189.001459 273.428998 
L 187.770409 269.141658 
L 187.117321 264.760273 
L 187.048998 260.368135 
L 187.560181 256.048634 
L 188.633664 251.883517 
L 190.240659 247.951185 
L 192.341395 244.325056 
L 194.885952 241.07204 
L 197.815309 238.251136 
L 201.062573 235.912211 
L 204.554386 234.094955 
L 208.212454 232.828061 
L 211.955185 232.128622 
L 215.699397 232.001785 
L 219.362056 232.440641 
L 222.862014 233.426374 
L 226.121702 234.928661 
L 229.068759 236.906304 
L 231.637535 239.308097 
L 233.770475 242.073898 
L 235.419312 245.13589 
L 236.546087 248.419999 
L 237.123933 251.847448 
L 237.137646 255.336406 
L 236.583998 258.803696 
L 235.471809 262.166543 
L 233.821761 265.344304 
L 231.665969 268.260153 
L 229.04731 270.842696 
L 226.018528 273.027461 
L 222.641134 274.75825 
L 218.98412 275.98832 
L 215.122518 276.681355 
L 211.135837 276.812239 
L 207.106399 276.367575 
L 203.117618 275.345975 
L 199.252265 273.758089 
L 195.590729 271.626389 
L 192.209347 268.984702 
L 189.178805 265.877507 
L 186.562662 262.359011 
L 184.416021 258.492017 
L 182.784382 254.346622 
L 181.702684 249.99875 
L 181.194584 245.528575 
L 181.271954 241.018845 
L 181.934638 236.553162 
L 183.170452 232.214237 
L 184.95544 228.082166 
L 187.254372 224.232761 
L 190.021479 220.73597 
L 193.20141 217.654419 
L 196.730387 215.042108 
L 200.537534 212.943288 
L 204.546361 211.391538 
L 208.676356 210.409068 
L 212.844669 210.006258 
L 216.967839 210.181447 
L 220.963539 210.92097 
L 224.752291 212.199446 
L 228.25913 213.980313 
L 231.415162 216.216595 
L 234.159005 218.851886 
L 236.438072 221.821534 
L 238.209663 225.053992 
L 239.441857 228.472318 
L 240.114181 231.995784 
L 240.218028 235.541569 
L 239.756841 239.026486 
L 238.746039 242.368732 
L 237.212688 245.489591 
L 235.194937 248.315088 
L 232.741222 250.777533 
L 229.909243 252.816942 
L 226.764767 254.382289 
L 223.380242 255.43258 
L 219.83329 255.937706 
L 216.205076 255.879081 
L 212.578613 255.250028 
L 209.037028 254.055926 
L 205.661817 252.314095 
L 202.531144 250.053443 
L 199.718204 247.313859 
L 197.289694 244.145387 
L 195.304412 240.607181 
L 193.812029 236.766272 
L 192.852049 232.696168 
L 192.452979 228.475326 
L 192.631731 224.185511 
L 193.393268 219.910093 
L 194.730492 215.732304 
L 196.624394 211.733507 
L 199.044446 207.991494 
L 201.949238 204.578863 
L 205.287332 201.561507 
L 208.998345 198.997236 
L 213.014196 196.934573 
L 217.260533 195.411743 
L 221.658276 194.455872 
L 226.125271 194.082428 
L 230.578001 194.294894 
L 234.933326 195.084701 
L 239.110216 196.431406 
L 243.031442 198.303122 
L 246.625184 200.657182 
L 249.826531 203.441038 
L 252.578827 206.593352 
L 254.834857 210.045287 
L 256.557827 213.721937 
L 257.722129 217.543901 
L 258.313872 221.428937 
L 258.33117 225.293681 
L 257.784176 229.055396 
L 256.694866 232.63369 
L 255.096578 235.952207 
L 253.033311 238.940213 
L 250.558801 241.534083 
L 247.735395 243.678623 
L 244.632748 245.328228 
L 241.326358 246.447833 
L 237.895991 247.013647 
L 234.424009 247.013647 
L 230.993642 246.447833 
L 227.687252 245.328228 
L 224.584605 243.678623 
L 221.761199 241.534083 
L 219.286689 238.940213 
L 217.223422 235.952207 
L 215.625134 232.63369 
L 214.535824 229.055396 
L 213.98883 225.293681 
L 214.006128 221.428937 
L 214.597871 217.543901 
L 215.762173 213.721937 
L 217.485143 210.045287 
L 219.741173 206.593352 
L 222.493469 203.441038 
L 225.694816 200.657182 
L 229.288558 198.303122 
L 233.209784 196.431406 
L 237.386674 195.084701 
L 241.741999 194.294894 
L 246.194729 194.082428 
L 250.661724 194.455872 
L 255.059467 195.411743 
L 259.305804 196.934573 
L 263.321655 198.997236 
L 267.032668 201.561507 
L 270.370762 204.578863 
L 273.275554 207.991494 
L 275.695606 211.733507 
L 277.589508 215.732304 
L 278.926732 219.910093 
L 279.688269 224.185511 
L 279.867021 228.475326 
L 279.467951 232.696168 
L 278.507971 236.766272 
L 277.015588 240.607181 
L 275.030306 244.145387 
L 272.601796 247.313859 
L 269.788856 250.053443 
L 266.658183 252.314095 
L 263.282972 254.055926 
L 259.741387 255.250028 
L 256.114924 255.879081 
L 252.48671 255.937706 
L 248.939758 255.43258 
L 245.555233 254.382289 
L 242.410757 252.816942 
L 239.578778 250.777533 
L 237.125063 248.315088 
L 235.107312 245.489591 
L 233.573961 242.368732 
L 232.563159 239.026486 
L 232.101972 235.541569 
L 232.205819 231.995784 
L 232.878143 228.472318 
L 234.110337 225.053992 
L 235.881928 221.821534 
L 238.160995 218.851886 
L 240.904838 216.216595 
L 244.06087 213.980313 
L 247.567709 212.199446 
L 251.356461 210.92097 
L 255.352161 210.181447 
L 259.475331 210.006258 
L 263.643644 210.409068 
L 267.773639 211.391538 
L 271.782466 212.943288 
L 275.589613 215.042108 
L 279.11859 217.654419 
L 282.298521 220.73597 
L 285.065628 224.232761 
L 287.36456 228.082166 
L 289.149548 232.214237 
L 290.385362 236.553162 
L 291.048046 241.018845 
L 291.125416 245.528575 
L 290.617316 249.99875 
L 289.535618 254.346622 
L 287.903979 258.492017 
L 285.757338 262.359011 
L 283.141195 265.877507 
L 280.110653 268.984702 
L 276.729271 271.626389 
L 273.067735 273.758089 
L 269.202382 275.345975 
L 265.213601 276.367575 
L 261.184163 276.812239 
L 257.197482 276.681355 
L 253.33588 275.98832 
L 249.678866 274.75825 
L 246.301472 273.027461 
L 243.27269 270.842696 
L 240.654031 268.260153 
L 238.498239 265.344304 
L 236.848191 262.166543 
L 235.736002 258.803696 
L 235.182354 255.336406 
L 235.196067 251.847448 
L 235.773913 248.419999 
L 236.900688 245.13589 
L 238.549525 242.073898 
L 240.682465 239.308097 
L 243.251241 236.906304 
L 246.198298 234.928661 
L 249.457986 233.426374 
L 252.957944 232.440641 
L 256.620603 232.001785 
L 260.364815 232.128622 
L 264.107546 232.828061 
L 267.765614 234.094955 
L 271.257427 235.912211 
L 274.504691 238.251136 
L 277.434048 241.07204 
L 279.978605 244.325056 
L 282.079341 247.951185 
L 283.686336 251.883517 
L 284.759819 256.048634 
L 285.271002 260.368135 
L 285.202679 264.760273 
L 284.549591 269.141658 
L 283.318541 273.428998 
L 281.528248 277.540834 
L 279.208962 281.399241 
L 276.401836 284.931451 
L 273.158065 288.071371 
L 269.537825 290.760961 
L 265.60901 292.951444 
L 261.445826 294.604321 
L 257.127237 295.692175 
L 252.735321 296.199238 
L 248.35356 296.121721 
L 244.065093 295.46789 
L 239.950989 294.257888 
L 236.088554 292.523317 
L 232.549717 290.306571 
L 229.399534 287.659951 
L 226.694832 284.644569 
L 224.48302 281.32907 
L 222.80111 277.788196 
L 221.674939 274.101221 
L 221.118639 270.350298 
L 221.134342 266.618734 
L 221.71214 262.989254 
L 222.830292 259.542268 
L 224.455688 256.35419 
L 226.544538 253.495843 
L 229.043294 251.030974 
L 231.88977 249.014922 
L 235.014446 247.493463 
L 238.341924 246.50185 
L 241.792505 246.064076 
L 245.283857 246.192372 
L 248.732743 246.88695 
L 252.056758 248.135999 
L 255.176057 249.915927 
L 258.015027 252.191858 
L 260.503869 254.918355 
L 262.580058 258.040372 
L 264.189657 261.494401 
L 265.288447 265.209799 
L 265.842848 269.110263 
L 265.830635 273.115423 
L 265.241395 277.142522 
L 264.076758 281.108142 
L 262.350358 284.929947 
L 260.087561 288.528407 
L 257.324929 291.828451 
L 254.109471 294.761043 
L 250.497654 297.26462 
L 246.554234 299.286378 
L 242.350908 300.783378 
L 237.964815 301.72344 
L 233.476929 302.085818 
L 228.970379 301.861633 
L 224.528704 301.054058 
L 220.234123 299.678254 
L 216.165814 297.761051 
L 212.398267 295.340393 
L 208.999731 292.46454 
L 206.030791 289.191067 
L 203.543107 285.585657 
L 201.578341 281.720734 
L 200.167284 277.673946 
L 199.329224 273.526551 
L 199.071541 269.361714 
L 199.38956 265.262776 
L 200.266648 261.31151 
L 201.674571 257.586419 
L 203.574083 254.161094 
L 205.915749 251.102678 
L 208.640984 248.470467 
L 211.68328 246.314674 
L 214.969594 244.675377 
L 218.421884 243.581689 
L 221.958739 243.051147 
L 225.49708 243.089352 
L 228.953908 243.689851 
L 232.248028 244.834272 
L 235.301762 246.492717 
L 238.042564 248.62438 
L 240.404544 251.178408 
L 242.329846 254.094963 
L 243.76986 257.306472 
L 244.686241 260.739047 
L 245.051712 264.314026 
L 244.850635 267.949619 
L 244.079345 271.562621 
L 242.746226 275.070152 
L 240.871539 278.391389 
L 238.487002 281.449262 
L 235.635129 284.172061 
L 232.368348 286.49494 
L 228.747904 288.361273 
L 224.842584 289.723842 
L 220.727282 290.545823 
L 216.481439 290.80156 
L 212.187383 290.477105 
L 207.928613 289.570512 
L 203.788056 288.091878 
L 199.846337 286.063138 
L 196.1801 283.517611 
L 192.860404 280.499302 
L 189.951243 277.061993 
L 187.508212 273.268118 
L 185.577346 269.187463 
L 184.19416 264.895713 
L 183.38291 260.472872 
L 183.156088 256.001598 
L 183.514162 251.565477 
L 184.445566 247.247285 
L 185.926948 243.127256 
L 187.923652 239.281413 
L 190.390451 235.779984 
L 193.272488 232.685939 
L 196.506424 230.053675 
L 200.021764 227.927886 
L 203.742326 226.342633 
L 207.587841 225.320634 
L 211.475625 224.872797 
L 215.322306 224.997991 
L 219.045573 225.683079 
L 222.565888 226.903188 
L 225.808155 228.622244 
L 228.703284 230.793716 
L 231.18964 233.361604 
L 233.214325 236.261605 
L 234.734287 239.42246 
L 235.717222 242.767453 
L 236.142242 246.216009 
L 236.000317 249.685386 
L 235.294463 253.092408 
L 234.039676 256.355202 
L 232.262624 259.394915 
L 230.001084 262.137365 
L 227.303155 264.514594 
L 224.226254 266.466291 
L 220.835916 267.941057 
L 217.204423 268.89748 
L 213.409293 269.305005 
L 209.531665 269.14458 
L 205.654596 268.409048 
L 201.861332 267.103313 
L 198.233565 265.244229 
L 194.849724 262.860261 
L 191.78334 259.990889 
L 189.101505 256.685788 
L 186.863473 253.003795 
L 185.119418 249.011682 
L 183.909386 244.782766 
L 183.262456 240.395382 
L 183.196133 235.931247 
L 183.715982 231.473758 
L 184.815506 227.106256 
L 186.476282 222.910284 
L 188.668348 218.963892 
L 191.350821 215.340003 
L 194.472753 212.104903 
L 197.974194 209.316849 
L 201.787439 207.024864 
L 205.838445 205.26771 
L 210.048371 204.073086 
L 214.335226 203.457051 
L 218.615581 203.42369 
L 222.806303 203.965034 
L 226.826298 205.061229 
L 230.598196 206.680953 
L 234.049967 208.782075 
L 237.116426 211.312536 
L 239.740588 214.21144 
L 241.874858 217.410331 
L 243.482023 220.834623 
L 244.536025 224.405161 
L 245.022504 228.039879 
L 244.939095 231.655518 
L 244.295477 235.169363 
L 243.113161 238.500977 
L 241.425047 241.573885 
L 239.274726 244.317171 
L 236.71557 246.666962 
L 233.809616 248.567767 
L 230.626263 249.973637 
L 227.24082 250.849126 
L 223.732933 251.170035 
L 220.184914 250.92392 
L 216.680021 250.110354 
L 213.300714 248.740934 
L 210.126929 246.839047 
L 207.234407 244.43938 
L 204.693107 241.587196 
L 202.56574 238.337391 
L 200.906459 234.753353 
L 199.759719 230.905631 
L 199.15935 226.870473 
L 199.127845 222.728225 
L 199.675886 218.561661 
L 200.802118 214.454253 
L 202.493171 210.488427 
L 204.723942 206.743844 
L 207.45811 203.295737 
L 210.648891 200.21334 
L 214.240016 197.558444 
L 218.1669 195.384104 
L 222.357987 193.733537 
L 226.736242 192.639212 
L 231.220755 192.122182 
L 235.728431 192.191637 
L 240.175717 192.844716 
L 244.480348 194.066567 
L 248.563059 195.83066 
L 252.349239 198.099335 
L 255.770483 200.824595 
L 258.766021 203.949108 
L 261.283979 207.407402 
L 263.282463 211.127235 
L 264.730428 215.031104 
L 265.608325 219.037864 
L 265.9085 223.06442 
L 265.635358 227.027468 
L 264.805261 230.845229 
L 263.446185 234.439163 
L 261.597131 237.735603 
L 259.307309 240.667299 
L 256.6351 243.174818 
L 253.646841 245.207787 
L 250.415429 246.725944 
L 247.018799 247.699979 
L 243.538286 248.112144 
L 240.056931 247.956624 
L 236.657735 247.239658 
L 233.421926 245.979404 
L 230.427256 244.205564 
L 227.746376 241.958759 
L 225.445311 239.289678 
L 223.582081 236.258023 
L 222.205482 232.931252 
L 221.354065 229.383179 
L 221.055329 225.692421 
L 221.325139 221.940759 
L 222.167394 218.211429 
L 223.573943 214.587375 
L 225.524748 211.149525 
L 227.988302 207.975087 
L 230.922285 205.135944 
L 234.274442 202.697145 
L 237.983673 200.715544 
L 241.981306 199.238615 
L 246.192529 198.303452 
L 250.537947 197.935995 
L 254.93524 198.150488 
L 259.30088 198.949173 
L 263.551871 200.322248 
L 267.607481 202.248064 
L 271.390925 204.693576 
L 274.830967 207.615034 
L 277.863403 210.958888 
L 280.432403 214.662909 
L 282.491673 218.657486 
L 284.005418 222.867075 
L 284.949088 227.211774 
L 285.30989 231.608994 
L 285.087051 235.975175 
L 284.291831 240.227533 
L 282.94729 244.285784 
L 281.087797 248.073819 
L 278.758315 251.521291 
L 276.013458 254.565082 
L 272.916347 257.150616 
L 269.537292 259.232997 
L 265.95232 260.777945 
L 262.241581 261.762507 
L 258.487681 262.175534 
L 254.773943 262.017911 
L 251.182676 261.302533 
L 247.793445 260.054035 
L 244.681413 258.308272 
L 241.915766 256.111567 
L 239.558268 253.519741 
L 237.661969 250.596942 
L 236.270096 247.414301 
L 235.415146 244.048444 
L 235.11821 240.579887 
L 235.388528 237.09135 
L 236.223298 233.666027 
L 237.607729 230.385843 
L 239.515354 227.329738 
L 241.908579 224.572017 
L 244.739469 222.180791 
L 247.950745 220.216554 
L 251.476987 218.730913 
L 255.245991 217.765506 
L 259.180286 217.35113 
L 263.198745 217.507092 
L 267.218282 218.240806 
L 271.155587 219.547627 
L 274.928866 221.410952 
L 278.45955 223.802559 
L 281.673935 226.683191 
L 284.504723 230.003379 
L 286.892427 233.704463 
L 288.786615 237.719819 
L 290.14696 241.976247 
L 290.944088 246.395494 
L 291.160188 250.895884 
L 290.789387 255.394026 
L 289.83787 259.806545 
L 288.323755 264.051826 
L 286.276713 268.051709 
L 283.737349 271.733126 
L 280.756355 275.029615 
L 277.393452 277.88271 
L 273.716143 280.243159 
L 269.798305 282.071944 
L 265.718644 283.341099 
L 261.559055 284.034287 
L 257.402911 284.147135 
L 253.333323 283.687329 
L 249.431407 282.674443 
L 245.774584 281.139529 
L 242.434975 279.124468 
L 239.477887 276.681085 
L 236.960453 273.87007 
L 234.930442 270.759699 
L 233.425261 267.424414 
L 232.471178 263.943256 
L 232.082769 260.398215 
L 232.262622 256.872511 
L 233.001282 253.448858 
L 234.277451 250.207724 
L 236.058435 247.225658 
L 238.300827 244.573676 
L 240.951421 242.315783 
L 243.948321 240.507631 
L 247.222238 239.19535 
L 250.69794 238.414586 
L 254.295825 238.189751 
L 257.933588 238.533508 
L 261.527941 239.44651 
L 264.996357 240.917377 
L 268.258797 242.922935 
L 271.23938 245.428696 
L 273.86798 248.389575 
L 276.081682 251.750832 
L 277.82611 255.449208 
L 279.056559 259.41425 
L 279.738934 263.569776 
L 279.850465 267.835466 
L 279.380187 272.128536 
L 278.329169 276.365467 
L 276.710498 280.463746 
L 274.549007 284.343587 
L 271.880759 287.929599 
L 268.7523 291.152355 
L 265.219685 293.94984 
L 261.347317 296.26875 
L 257.206596 298.065597 
L 252.874439 299.30762 
L 248.431675 299.973466 
L 243.961355 300.053636 
L 239.547027 299.550679 
L 235.27099 298.47914 
L 231.21258 296.865252 
L 227.446516 294.746389 
L 224.041344 292.170285 
L 221.058005 289.194032 
L 218.548571 285.882888 
L 216.555155 282.308913 
L 215.109041 278.549464 
L 214.230029 274.685573 
L 213.926027 270.800261 
L 214.192891 266.976796 
L 215.014514 263.296956 
L 216.363165 259.839321 
L 218.200075 256.677629 
L 220.476248 253.879236 
L 223.133488 251.503706 
L 226.105623 249.601572 
L 229.319884 248.213274 
L 232.698435 247.368317 
L 236.16 247.084656 
L 236.16 247.084656 
" clip-path="url(#p0c156f1687)" style="fill: none; stroke: #1f77b4; stroke-width: 1.5; stroke-linecap: square"/>
   </g>
   <g id="patch_8">
    <path d="M 175.659793 307.584 
L 175.659793 186.624 
" style="fill: none; stroke: #000000; stroke-width: 0.8; stroke-linejoin: miter; stroke-linecap: square"/>
   </g>
   <g id="patch_9">
    <path d="M 296.660207 307.584 
L 296.660207 186.624 
" style="fill: none; stroke: #000000; stroke-width: 0.8; stroke-linejoin: miter; stroke-linecap: square"/>
   </g>
   <g id="patch_10">
    <path d="M 175.659793 307.584 
L 296.660207 307.584 
" style="fill: none; stroke: #000000; stroke-width: 0.8; stroke-linejoin: miter; stroke-linecap: square"/>
   </g>
   <g id="patch_11">
    <path d="M 175.659793 186.624 
L 296.660207 186.624 
" style="fill: none; stroke: #000000; stroke-width: 0.8; stroke-linejoin: miter; stroke-linecap: square"/>
   </g>
  </g>
 </g>
 <defs>
  <clipPath id="pd5d317741a">
   <rect x="57.6" y="41.472" width="357.12" height="120.96"/>
  </clipPath>
  <clipPath id="p0c156f1687">
   <rect x="175.659793" y="186.624" width="121.000414" height="120.96"/>
  </clipPath>
 </defs>
</svg>
